ISO-10303-21;
HEADER;
/* Generated by software containing ST-Developer
 * from STEP Tools, Inc. (www.steptools.com) 
 */

FILE_DESCRIPTION(
/* description */ (''),
/* implementation_level */ '2;1');

FILE_NAME(
/* name */ 
'S:\\Future Scope 1\\WIP\\Client Category\\Tom\\02 Progressive Work\\H
ardware\\19mm Circlips.stp',
/* time_stamp */ '2025-11-05T12:14:33+06:00',
/* author */ ('SD'),
/* organization */ (''),
/* preprocessor_version */ 'ST-DEVELOPER v18.1',
/* originating_system */ 'Autodesk Inventor 2021',
/* authorisation */ '');

FILE_SCHEMA (('AUTOMOTIVE_DESIGN { 1 0 10303 214 3 1 1 }'));
ENDSEC;

DATA;
#10=MECHANICAL_DESIGN_GEOMETRIC_PRESENTATION_REPRESENTATION('',(#13),#411);
#11=SHAPE_REPRESENTATION_RELATIONSHIP('SRR','None',#417,#12);
#12=ADVANCED_BREP_SHAPE_REPRESENTATION('',(#14),#410);
#13=STYLED_ITEM('',(#427),#14);
#14=MANIFOLD_SOLID_BREP('Solid1',#225);
#15=FACE_BOUND('',#43,.T.);
#16=FACE_BOUND('',#44,.T.);
#17=FACE_BOUND('',#49,.T.);
#18=FACE_BOUND('',#50,.T.);
#19=PLANE('',#260);
#20=PLANE('',#264);
#21=PLANE('',#271);
#22=PLANE('',#272);
#23=FACE_OUTER_BOUND('',#35,.T.);
#24=FACE_OUTER_BOUND('',#36,.T.);
#25=FACE_OUTER_BOUND('',#37,.T.);
#26=FACE_OUTER_BOUND('',#38,.T.);
#27=FACE_OUTER_BOUND('',#39,.T.);
#28=FACE_OUTER_BOUND('',#40,.T.);
#29=FACE_OUTER_BOUND('',#41,.T.);
#30=FACE_OUTER_BOUND('',#42,.T.);
#31=FACE_OUTER_BOUND('',#45,.T.);
#32=FACE_OUTER_BOUND('',#46,.T.);
#33=FACE_OUTER_BOUND('',#47,.T.);
#34=FACE_OUTER_BOUND('',#48,.T.);
#35=EDGE_LOOP('',(#145,#146,#147,#148));
#36=EDGE_LOOP('',(#149,#150,#151,#152));
#37=EDGE_LOOP('',(#153,#154,#155,#156));
#38=EDGE_LOOP('',(#157,#158,#159,#160));
#39=EDGE_LOOP('',(#161,#162,#163,#164));
#40=EDGE_LOOP('',(#165,#166,#167,#168));
#41=EDGE_LOOP('',(#169,#170,#171,#172));
#42=EDGE_LOOP('',(#173,#174,#175,#176,#177,#178,#179,#180));
#43=EDGE_LOOP('',(#181));
#44=EDGE_LOOP('',(#182));
#45=EDGE_LOOP('',(#183,#184,#185,#186));
#46=EDGE_LOOP('',(#187,#188,#189,#190));
#47=EDGE_LOOP('',(#191,#192,#193,#194));
#48=EDGE_LOOP('',(#195,#196,#197,#198,#199,#200,#201,#202));
#49=EDGE_LOOP('',(#203));
#50=EDGE_LOOP('',(#204));
#51=LINE('',#351,#65);
#52=LINE('',#354,#66);
#53=LINE('',#360,#67);
#54=LINE('',#363,#68);
#55=LINE('',#368,#69);
#56=LINE('',#374,#70);
#57=LINE('',#380,#71);
#58=LINE('',#384,#72);
#59=LINE('',#386,#73);
#60=LINE('',#387,#74);
#61=LINE('',#396,#75);
#62=LINE('',#400,#76);
#63=LINE('',#404,#77);
#64=LINE('',#406,#78);
#65=VECTOR('',#279,0.1);
#66=VECTOR('',#282,0.1);
#67=VECTOR('',#287,0.1);
#68=VECTOR('',#290,0.1);
#69=VECTOR('',#295,0.1);
#70=VECTOR('',#302,0.1);
#71=VECTOR('',#309,0.1);
#72=VECTOR('',#314,0.1);
#73=VECTOR('',#315,0.1);
#74=VECTOR('',#316,0.1);
#75=VECTOR('',#329,0.1);
#76=VECTOR('',#334,0.1);
#77=VECTOR('',#339,0.1);
#78=VECTOR('',#342,0.1);
#79=CIRCLE('',#246,0.805);
#80=CIRCLE('',#247,0.805);
#81=CIRCLE('',#249,1.);
#82=CIRCLE('',#250,1.);
#83=CIRCLE('',#252,0.1);
#84=CIRCLE('',#253,0.1);
#85=CIRCLE('',#255,0.1);
#86=CIRCLE('',#256,0.1);
#87=CIRCLE('',#258,0.205);
#88=CIRCLE('',#259,0.205);
#89=CIRCLE('',#262,0.805);
#90=CIRCLE('',#263,0.805);
#91=CIRCLE('',#265,0.205);
#92=CIRCLE('',#266,0.805);
#93=CIRCLE('',#268,0.205);
#94=CIRCLE('',#270,0.805);
#95=VERTEX_POINT('',#347);
#96=VERTEX_POINT('',#348);
#97=VERTEX_POINT('',#350);
#98=VERTEX_POINT('',#352);
#99=VERTEX_POINT('',#356);
#100=VERTEX_POINT('',#357);
#101=VERTEX_POINT('',#359);
#102=VERTEX_POINT('',#361);
#103=VERTEX_POINT('',#365);
#104=VERTEX_POINT('',#367);
#105=VERTEX_POINT('',#371);
#106=VERTEX_POINT('',#373);
#107=VERTEX_POINT('',#377);
#108=VERTEX_POINT('',#379);
#109=VERTEX_POINT('',#383);
#110=VERTEX_POINT('',#385);
#111=VERTEX_POINT('',#392);
#112=VERTEX_POINT('',#394);
#113=VERTEX_POINT('',#398);
#114=VERTEX_POINT('',#402);
#115=EDGE_CURVE('',#95,#96,#79,.T.);
#116=EDGE_CURVE('',#95,#97,#51,.T.);
#117=EDGE_CURVE('',#98,#97,#80,.T.);
#118=EDGE_CURVE('',#98,#96,#52,.T.);
#119=EDGE_CURVE('',#99,#100,#81,.T.);
#120=EDGE_CURVE('',#99,#101,#53,.T.);
#121=EDGE_CURVE('',#102,#101,#82,.T.);
#122=EDGE_CURVE('',#102,#100,#54,.T.);
#123=EDGE_CURVE('',#103,#103,#83,.T.);
#124=EDGE_CURVE('',#103,#104,#55,.T.);
#125=EDGE_CURVE('',#104,#104,#84,.T.);
#126=EDGE_CURVE('',#105,#105,#85,.T.);
#127=EDGE_CURVE('',#105,#106,#56,.T.);
#128=EDGE_CURVE('',#106,#106,#86,.T.);
#129=EDGE_CURVE('',#107,#98,#87,.T.);
#130=EDGE_CURVE('',#108,#107,#57,.T.);
#131=EDGE_CURVE('',#96,#108,#88,.T.);
#132=EDGE_CURVE('',#109,#102,#58,.T.);
#133=EDGE_CURVE('',#110,#109,#59,.T.);
#134=EDGE_CURVE('',#100,#110,#60,.T.);
#135=EDGE_CURVE('',#110,#107,#89,.T.);
#136=EDGE_CURVE('',#108,#109,#90,.T.);
#137=EDGE_CURVE('',#97,#111,#91,.T.);
#138=EDGE_CURVE('',#111,#112,#92,.T.);
#139=EDGE_CURVE('',#112,#99,#61,.T.);
#140=EDGE_CURVE('',#113,#95,#93,.T.);
#141=EDGE_CURVE('',#111,#113,#62,.T.);
#142=EDGE_CURVE('',#114,#113,#94,.T.);
#143=EDGE_CURVE('',#112,#114,#63,.T.);
#144=EDGE_CURVE('',#101,#114,#64,.T.);
#145=ORIENTED_EDGE('',*,*,#115,.F.);
#146=ORIENTED_EDGE('',*,*,#116,.T.);
#147=ORIENTED_EDGE('',*,*,#117,.F.);
#148=ORIENTED_EDGE('',*,*,#118,.T.);
#149=ORIENTED_EDGE('',*,*,#119,.F.);
#150=ORIENTED_EDGE('',*,*,#120,.T.);
#151=ORIENTED_EDGE('',*,*,#121,.F.);
#152=ORIENTED_EDGE('',*,*,#122,.T.);
#153=ORIENTED_EDGE('',*,*,#123,.F.);
#154=ORIENTED_EDGE('',*,*,#124,.T.);
#155=ORIENTED_EDGE('',*,*,#125,.F.);
#156=ORIENTED_EDGE('',*,*,#124,.F.);
#157=ORIENTED_EDGE('',*,*,#126,.F.);
#158=ORIENTED_EDGE('',*,*,#127,.T.);
#159=ORIENTED_EDGE('',*,*,#128,.F.);
#160=ORIENTED_EDGE('',*,*,#127,.F.);
#161=ORIENTED_EDGE('',*,*,#118,.F.);
#162=ORIENTED_EDGE('',*,*,#129,.F.);
#163=ORIENTED_EDGE('',*,*,#130,.F.);
#164=ORIENTED_EDGE('',*,*,#131,.F.);
#165=ORIENTED_EDGE('',*,*,#132,.F.);
#166=ORIENTED_EDGE('',*,*,#133,.F.);
#167=ORIENTED_EDGE('',*,*,#134,.F.);
#168=ORIENTED_EDGE('',*,*,#122,.F.);
#169=ORIENTED_EDGE('',*,*,#130,.T.);
#170=ORIENTED_EDGE('',*,*,#135,.F.);
#171=ORIENTED_EDGE('',*,*,#133,.T.);
#172=ORIENTED_EDGE('',*,*,#136,.F.);
#173=ORIENTED_EDGE('',*,*,#119,.T.);
#174=ORIENTED_EDGE('',*,*,#134,.T.);
#175=ORIENTED_EDGE('',*,*,#135,.T.);
#176=ORIENTED_EDGE('',*,*,#129,.T.);
#177=ORIENTED_EDGE('',*,*,#117,.T.);
#178=ORIENTED_EDGE('',*,*,#137,.T.);
#179=ORIENTED_EDGE('',*,*,#138,.T.);
#180=ORIENTED_EDGE('',*,*,#139,.T.);
#181=ORIENTED_EDGE('',*,*,#126,.T.);
#182=ORIENTED_EDGE('',*,*,#123,.T.);
#183=ORIENTED_EDGE('',*,*,#116,.F.);
#184=ORIENTED_EDGE('',*,*,#140,.F.);
#185=ORIENTED_EDGE('',*,*,#141,.F.);
#186=ORIENTED_EDGE('',*,*,#137,.F.);
#187=ORIENTED_EDGE('',*,*,#141,.T.);
#188=ORIENTED_EDGE('',*,*,#142,.F.);
#189=ORIENTED_EDGE('',*,*,#143,.F.);
#190=ORIENTED_EDGE('',*,*,#138,.F.);
#191=ORIENTED_EDGE('',*,*,#139,.F.);
#192=ORIENTED_EDGE('',*,*,#143,.T.);
#193=ORIENTED_EDGE('',*,*,#144,.F.);
#194=ORIENTED_EDGE('',*,*,#120,.F.);
#195=ORIENTED_EDGE('',*,*,#115,.T.);
#196=ORIENTED_EDGE('',*,*,#131,.T.);
#197=ORIENTED_EDGE('',*,*,#136,.T.);
#198=ORIENTED_EDGE('',*,*,#132,.T.);
#199=ORIENTED_EDGE('',*,*,#121,.T.);
#200=ORIENTED_EDGE('',*,*,#144,.T.);
#201=ORIENTED_EDGE('',*,*,#142,.T.);
#202=ORIENTED_EDGE('',*,*,#140,.T.);
#203=ORIENTED_EDGE('',*,*,#128,.T.);
#204=ORIENTED_EDGE('',*,*,#125,.T.);
#205=CYLINDRICAL_SURFACE('',#245,0.805);
#206=CYLINDRICAL_SURFACE('',#248,1.);
#207=CYLINDRICAL_SURFACE('',#251,0.1);
#208=CYLINDRICAL_SURFACE('',#254,0.1);
#209=CYLINDRICAL_SURFACE('',#257,0.205);
#210=CYLINDRICAL_SURFACE('',#261,0.805);
#211=CYLINDRICAL_SURFACE('',#267,0.205);
#212=CYLINDRICAL_SURFACE('',#269,0.805);
#213=ADVANCED_FACE('',(#23),#205,.F.);
#214=ADVANCED_FACE('',(#24),#206,.T.);
#215=ADVANCED_FACE('',(#25),#207,.F.);
#216=ADVANCED_FACE('',(#26),#208,.F.);
#217=ADVANCED_FACE('',(#27),#209,.T.);
#218=ADVANCED_FACE('',(#28),#19,.F.);
#219=ADVANCED_FACE('',(#29),#210,.F.);
#220=ADVANCED_FACE('',(#30,#15,#16),#20,.T.);
#221=ADVANCED_FACE('',(#31),#211,.T.);
#222=ADVANCED_FACE('',(#32),#212,.F.);
#223=ADVANCED_FACE('',(#33),#21,.F.);
#224=ADVANCED_FACE('',(#34,#17,#18),#22,.T.);
#225=CLOSED_SHELL('',(#213,#214,#215,#216,#217,#218,#219,#220,#221,#222,
#223,#224));
#226=DERIVED_UNIT_ELEMENT(#228,1.);
#227=DERIVED_UNIT_ELEMENT(#412,3.);
#228=(
MASS_UNIT()
NAMED_UNIT(*)
SI_UNIT($,.GRAM.)
);
#229=DERIVED_UNIT((#226,#227));
#230=MEASURE_REPRESENTATION_ITEM('density measure',
POSITIVE_RATIO_MEASURE(7.99),#229);
#231=PROPERTY_DEFINITION_REPRESENTATION(#236,#233);
#232=PROPERTY_DEFINITION_REPRESENTATION(#237,#234);
#233=REPRESENTATION('material name',(#235),#410);
#234=REPRESENTATION('density',(#230),#410);
#235=DESCRIPTIVE_REPRESENTATION_ITEM('Stainless Steel 316L',
'Stainless Steel 316L');
#236=PROPERTY_DEFINITION('material property','material name',#419);
#237=PROPERTY_DEFINITION('material property','density of part',#419);
#238=DATE_TIME_ROLE('creation_date');
#239=APPLIED_DATE_AND_TIME_ASSIGNMENT(#240,#238,(#419));
#240=DATE_AND_TIME(#241,#242);
#241=CALENDAR_DATE(2025,16,9);
#242=LOCAL_TIME(0,0,0.,#243);
#243=COORDINATED_UNIVERSAL_TIME_OFFSET(0,0,.BEHIND.);
#244=AXIS2_PLACEMENT_3D('placement',#345,#273,#274);
#245=AXIS2_PLACEMENT_3D('',#346,#275,#276);
#246=AXIS2_PLACEMENT_3D('',#349,#277,#278);
#247=AXIS2_PLACEMENT_3D('',#353,#280,#281);
#248=AXIS2_PLACEMENT_3D('',#355,#283,#284);
#249=AXIS2_PLACEMENT_3D('',#358,#285,#286);
#250=AXIS2_PLACEMENT_3D('',#362,#288,#289);
#251=AXIS2_PLACEMENT_3D('',#364,#291,#292);
#252=AXIS2_PLACEMENT_3D('',#366,#293,#294);
#253=AXIS2_PLACEMENT_3D('',#369,#296,#297);
#254=AXIS2_PLACEMENT_3D('',#370,#298,#299);
#255=AXIS2_PLACEMENT_3D('',#372,#300,#301);
#256=AXIS2_PLACEMENT_3D('',#375,#303,#304);
#257=AXIS2_PLACEMENT_3D('',#376,#305,#306);
#258=AXIS2_PLACEMENT_3D('',#378,#307,#308);
#259=AXIS2_PLACEMENT_3D('',#381,#310,#311);
#260=AXIS2_PLACEMENT_3D('',#382,#312,#313);
#261=AXIS2_PLACEMENT_3D('',#388,#317,#318);
#262=AXIS2_PLACEMENT_3D('',#389,#319,#320);
#263=AXIS2_PLACEMENT_3D('',#390,#321,#322);
#264=AXIS2_PLACEMENT_3D('',#391,#323,#324);
#265=AXIS2_PLACEMENT_3D('',#393,#325,#326);
#266=AXIS2_PLACEMENT_3D('',#395,#327,#328);
#267=AXIS2_PLACEMENT_3D('',#397,#330,#331);
#268=AXIS2_PLACEMENT_3D('',#399,#332,#333);
#269=AXIS2_PLACEMENT_3D('',#401,#335,#336);
#270=AXIS2_PLACEMENT_3D('',#403,#337,#338);
#271=AXIS2_PLACEMENT_3D('',#405,#340,#341);
#272=AXIS2_PLACEMENT_3D('',#407,#343,#344);
#273=DIRECTION('axis',(0.,0.,1.));
#274=DIRECTION('refdir',(1.,0.,0.));
#275=DIRECTION('center_axis',(0.,0.,1.));
#276=DIRECTION('ref_axis',(6.12323399573677E-17,1.,0.));
#277=DIRECTION('center_axis',(0.,0.,-1.));
#278=DIRECTION('ref_axis',(1.,0.,0.));
#279=DIRECTION('',(0.,0.,-1.));
#280=DIRECTION('center_axis',(0.,0.,1.));
#281=DIRECTION('ref_axis',(1.,0.,0.));
#282=DIRECTION('',(-1.22460635382238E-16,0.,1.));
#283=DIRECTION('center_axis',(0.,0.,1.));
#284=DIRECTION('ref_axis',(6.12323399573677E-17,1.,0.));
#285=DIRECTION('center_axis',(0.,0.,-1.));
#286=DIRECTION('ref_axis',(1.,0.,0.));
#287=DIRECTION('',(0.,0.,1.));
#288=DIRECTION('center_axis',(0.,0.,1.));
#289=DIRECTION('ref_axis',(1.,0.,0.));
#290=DIRECTION('',(0.,0.,-1.));
#291=DIRECTION('center_axis',(0.,0.,1.));
#292=DIRECTION('ref_axis',(1.,0.,0.));
#293=DIRECTION('center_axis',(0.,0.,1.));
#294=DIRECTION('ref_axis',(1.,0.,0.));
#295=DIRECTION('',(0.,0.,1.));
#296=DIRECTION('center_axis',(0.,0.,-1.));
#297=DIRECTION('ref_axis',(1.,0.,0.));
#298=DIRECTION('center_axis',(0.,0.,1.));
#299=DIRECTION('ref_axis',(1.,0.,0.));
#300=DIRECTION('center_axis',(0.,0.,1.));
#301=DIRECTION('ref_axis',(1.,0.,0.));
#302=DIRECTION('',(0.,0.,1.));
#303=DIRECTION('center_axis',(0.,0.,-1.));
#304=DIRECTION('ref_axis',(1.,0.,0.));
#305=DIRECTION('center_axis',(1.22460635382238E-16,0.,-1.));
#306=DIRECTION('ref_axis',(-1.,0.,-1.22460635382238E-16));
#307=DIRECTION('center_axis',(1.22460635382238E-16,0.,-1.));
#308=DIRECTION('ref_axis',(-1.,0.,-1.22460635382238E-16));
#309=DIRECTION('',(1.22460635382238E-16,0.,-1.));
#310=DIRECTION('center_axis',(-1.22460635382238E-16,0.,1.));
#311=DIRECTION('ref_axis',(-1.,0.,-1.22460635382238E-16));
#312=DIRECTION('center_axis',(1.,2.42070942132443E-16,0.));
#313=DIRECTION('ref_axis',(-2.42070942132443E-16,1.,0.));
#314=DIRECTION('',(2.42070942132443E-16,-1.,0.));
#315=DIRECTION('',(0.,0.,1.));
#316=DIRECTION('',(-2.42070942132443E-16,1.,0.));
#317=DIRECTION('center_axis',(0.,0.,1.));
#318=DIRECTION('ref_axis',(1.,0.,0.));
#319=DIRECTION('center_axis',(0.,0.,1.));
#320=DIRECTION('ref_axis',(1.,0.,0.));
#321=DIRECTION('center_axis',(0.,0.,-1.));
#322=DIRECTION('ref_axis',(1.,0.,0.));
#323=DIRECTION('center_axis',(0.,0.,-1.));
#324=DIRECTION('ref_axis',(-1.,0.,0.));
#325=DIRECTION('center_axis',(0.,0.,-1.));
#326=DIRECTION('ref_axis',(1.,0.,0.));
#327=DIRECTION('center_axis',(0.,0.,1.));
#328=DIRECTION('ref_axis',(1.,0.,0.));
#329=DIRECTION('',(2.24780160551554E-16,-1.,0.));
#330=DIRECTION('center_axis',(0.,0.,1.));
#331=DIRECTION('ref_axis',(1.,0.,0.));
#332=DIRECTION('center_axis',(0.,0.,1.));
#333=DIRECTION('ref_axis',(1.,0.,0.));
#334=DIRECTION('',(0.,0.,1.));
#335=DIRECTION('center_axis',(0.,0.,1.));
#336=DIRECTION('ref_axis',(1.,0.,0.));
#337=DIRECTION('center_axis',(0.,0.,-1.));
#338=DIRECTION('ref_axis',(1.,0.,0.));
#339=DIRECTION('',(0.,0.,1.));
#340=DIRECTION('center_axis',(-1.,-2.24780160551554E-16,0.));
#341=DIRECTION('ref_axis',(2.24780160551554E-16,-1.,0.));
#342=DIRECTION('',(-2.24780160551554E-16,1.,0.));
#343=DIRECTION('center_axis',(0.,0.,1.));
#344=DIRECTION('ref_axis',(1.,0.,0.));
#345=CARTESIAN_POINT('',(0.,0.,0.));
#346=CARTESIAN_POINT('Origin',(0.,0.,-0.1));
#347=CARTESIAN_POINT('',(-0.407769803749264,-0.694081253997172,0.1));
#348=CARTESIAN_POINT('',(0.407769803749264,-0.694081253997172,0.1));
#349=CARTESIAN_POINT('Origin',(0.,0.,0.1));
#350=CARTESIAN_POINT('',(-0.407769803749264,-0.694081253997172,0.));
#351=CARTESIAN_POINT('',(-0.407769803749264,-0.694081253997172,0.05));
#352=CARTESIAN_POINT('',(0.407769803749264,-0.694081253997172,2.77555756156289E-17));
#353=CARTESIAN_POINT('Origin',(0.,0.,0.));
#354=CARTESIAN_POINT('',(0.407769803749264,-0.694081253997172,0.05));
#355=CARTESIAN_POINT('Origin',(0.,0.,0.05));
#356=CARTESIAN_POINT('',(-0.041,-0.999159146482681,0.));
#357=CARTESIAN_POINT('',(0.041,-0.999159146482681,0.));
#358=CARTESIAN_POINT('Origin',(0.,0.,0.));
#359=CARTESIAN_POINT('',(-0.041,-0.999159146482681,0.1));
#360=CARTESIAN_POINT('',(-0.041,-0.999159146482681,0.05));
#361=CARTESIAN_POINT('',(0.041,-0.999159146482681,0.1));
#362=CARTESIAN_POINT('Origin',(0.,0.,0.1));
#363=CARTESIAN_POINT('',(0.041,-0.999159146482681,0.05));
#364=CARTESIAN_POINT('Origin',(-0.246,-0.795,0.05));
#365=CARTESIAN_POINT('',(-0.346,-0.795,0.));
#366=CARTESIAN_POINT('Origin',(-0.246,-0.795,0.));
#367=CARTESIAN_POINT('',(-0.346,-0.795,0.1));
#368=CARTESIAN_POINT('',(-0.346,-0.795,0.05));
#369=CARTESIAN_POINT('Origin',(-0.246,-0.795,0.1));
#370=CARTESIAN_POINT('Origin',(0.246,-0.795,0.05));
#371=CARTESIAN_POINT('',(0.146,-0.795,0.));
#372=CARTESIAN_POINT('Origin',(0.246,-0.795,0.));
#373=CARTESIAN_POINT('',(0.146,-0.795,0.1));
#374=CARTESIAN_POINT('',(0.146,-0.795,0.05));
#375=CARTESIAN_POINT('Origin',(0.246,-0.795,0.1));
#376=CARTESIAN_POINT('Origin',(0.246,-0.82,0.05));
#377=CARTESIAN_POINT('',(0.0416314045747459,-0.803922773749527,2.77555756156289E-17));
#378=CARTESIAN_POINT('Origin',(0.246,-0.82,2.22044604925031E-17));
#379=CARTESIAN_POINT('',(0.0416314045747461,-0.803922773749527,0.1));
#380=CARTESIAN_POINT('',(0.0416314045747461,-0.803922773749527,0.05));
#381=CARTESIAN_POINT('Origin',(0.246,-0.82,0.1));
#382=CARTESIAN_POINT('Origin',(0.041,-0.964477611316849,-0.1));
#383=CARTESIAN_POINT('',(0.0409999999999998,-0.803955222633699,0.1));
#384=CARTESIAN_POINT('',(0.0409999999999999,-0.482238805658425,0.1));
#385=CARTESIAN_POINT('',(0.0409999999999998,-0.803955222633699,0.));
#386=CARTESIAN_POINT('',(0.0409999999999998,-0.803955222633699,-0.1));
#387=CARTESIAN_POINT('',(0.0409999999999999,-0.482238805658425,0.));
#388=CARTESIAN_POINT('Origin',(0.,0.,-0.1));
#389=CARTESIAN_POINT('Origin',(0.,0.,0.));
#390=CARTESIAN_POINT('Origin',(0.,0.,0.1));
#391=CARTESIAN_POINT('Origin',(0.,0.,0.));
#392=CARTESIAN_POINT('',(-0.0416314045747461,-0.803922773749527,0.));
#393=CARTESIAN_POINT('Origin',(-0.246,-0.82,0.));
#394=CARTESIAN_POINT('',(-0.0409999999999999,-0.803955222633699,0.));
#395=CARTESIAN_POINT('Origin',(0.,0.,0.));
#396=CARTESIAN_POINT('',(-0.0410000000000001,-0.482238805658425,0.));
#397=CARTESIAN_POINT('Origin',(-0.246,-0.82,0.05));
#398=CARTESIAN_POINT('',(-0.0416314045747461,-0.803922773749527,0.1));
#399=CARTESIAN_POINT('Origin',(-0.246,-0.82,0.1));
#400=CARTESIAN_POINT('',(-0.0416314045747461,-0.803922773749527,0.05));
#401=CARTESIAN_POINT('Origin',(0.,0.,-0.1));
#402=CARTESIAN_POINT('',(-0.0409999999999999,-0.803955222633699,0.1));
#403=CARTESIAN_POINT('Origin',(0.,0.,0.1));
#404=CARTESIAN_POINT('',(-0.0409999999999999,-0.803955222633699,-0.1));
#405=CARTESIAN_POINT('Origin',(-0.041,-0.964477611316849,-0.1));
#406=CARTESIAN_POINT('',(-0.0410000000000001,-0.482238805658425,0.1));
#407=CARTESIAN_POINT('Origin',(0.,0.,0.1));
#408=UNCERTAINTY_MEASURE_WITH_UNIT(LENGTH_MEASURE(0.001),#412,
'DISTANCE_ACCURACY_VALUE',
'Maximum model space distance between geometric entities at asserted c
onnectivities');
#409=UNCERTAINTY_MEASURE_WITH_UNIT(LENGTH_MEASURE(0.001),#412,
'DISTANCE_ACCURACY_VALUE',
'Maximum model space distance between geometric entities at asserted c
onnectivities');
#410=(
GEOMETRIC_REPRESENTATION_CONTEXT(3)
GLOBAL_UNCERTAINTY_ASSIGNED_CONTEXT((#408))
GLOBAL_UNIT_ASSIGNED_CONTEXT((#412,#413,#414))
REPRESENTATION_CONTEXT('','3D')
);
#411=(
GEOMETRIC_REPRESENTATION_CONTEXT(3)
GLOBAL_UNCERTAINTY_ASSIGNED_CONTEXT((#409))
GLOBAL_UNIT_ASSIGNED_CONTEXT((#412,#413,#414))
REPRESENTATION_CONTEXT('','3D')
);
#412=(
LENGTH_UNIT()
NAMED_UNIT(*)
SI_UNIT(.CENTI.,.METRE.)
);
#413=(
NAMED_UNIT(*)
PLANE_ANGLE_UNIT()
SI_UNIT($,.RADIAN.)
);
#414=(
NAMED_UNIT(*)
SI_UNIT($,.STERADIAN.)
SOLID_ANGLE_UNIT()
);
#415=SHAPE_DEFINITION_REPRESENTATION(#416,#417);
#416=PRODUCT_DEFINITION_SHAPE('',$,#419);
#417=SHAPE_REPRESENTATION('',(#244),#410);
#418=PRODUCT_DEFINITION_CONTEXT('part definition',#423,'design');
#419=PRODUCT_DEFINITION('Internal 19mm Circlips','19mm Circlips',#420,#418);
#420=PRODUCT_DEFINITION_FORMATION('',$,#425);
#421=PRODUCT_RELATED_PRODUCT_CATEGORY('19mm Circlips','19mm Circlips',(#425));
#422=APPLICATION_PROTOCOL_DEFINITION('international standard',
'automotive_design',2009,#423);
#423=APPLICATION_CONTEXT(
'Core Data for Automotive Mechanical Design Process');
#424=PRODUCT_CONTEXT('part definition',#423,'mechanical');
#425=PRODUCT('Internal 19mm Circlips','19mm Circlips',$,(#424));
#426=PRESENTATION_STYLE_ASSIGNMENT((#428));
#427=PRESENTATION_STYLE_ASSIGNMENT((#429));
#428=SURFACE_STYLE_USAGE(.BOTH.,#434);
#429=SURFACE_STYLE_USAGE(.BOTH.,#435);
#430=SURFACE_STYLE_RENDERING_WITH_PROPERTIES($,#442,(#432));
#431=SURFACE_STYLE_RENDERING_WITH_PROPERTIES($,#443,(#433));
#432=SURFACE_STYLE_TRANSPARENT(0.);
#433=SURFACE_STYLE_TRANSPARENT(0.);
#434=SURFACE_SIDE_STYLE('',(#436,#430));
#435=SURFACE_SIDE_STYLE('',(#437,#431));
#436=SURFACE_STYLE_FILL_AREA(#438);
#437=SURFACE_STYLE_FILL_AREA(#439);
#438=FILL_AREA_STYLE('',(#440));
#439=FILL_AREA_STYLE('',(#441));
#440=FILL_AREA_STYLE_COLOUR('',#442);
#441=FILL_AREA_STYLE_COLOUR('',#443);
#442=COLOUR_RGB('',0.745098039215686,0.737254901960784,0.729411764705882);
#443=COLOUR_RGB('',0.952941176470588,0.968627450980392,1.);
ENDSEC;
END-ISO-10303-21;
