ISO-10303-21;
HEADER;
/* Generated by software containing ST-Developer
 * from STEP Tools, Inc. (www.steptools.com) 
 */

FILE_DESCRIPTION(
/* description */ (''),
/* implementation_level */ '2;1');

FILE_NAME(
/* name */ 
'S:\\Future Scope 1\\WIP\\Client Category\\Tom\\02 Progressive Work\\H
ardware\\3mm E Clip.stp',
/* time_stamp */ '2025-11-05T12:14:34+06:00',
/* author */ ('SD'),
/* organization */ (''),
/* preprocessor_version */ 'ST-DEVELOPER v18.1',
/* originating_system */ 'Autodesk Inventor 2021',
/* authorisation */ '');

FILE_SCHEMA (('AUTOMOTIVE_DESIGN { 1 0 10303 214 3 1 1 }'));
ENDSEC;

DATA;
#10=MECHANICAL_DESIGN_GEOMETRIC_PRESENTATION_REPRESENTATION('',(#13),#885);
#11=SHAPE_REPRESENTATION_RELATIONSHIP('SRR','None',#891,#12);
#12=ADVANCED_BREP_SHAPE_REPRESENTATION('',(#14),#884);
#13=STYLED_ITEM('',(#901),#14);
#14=MANIFOLD_SOLID_BREP('Solid1',#491);
#15=PLANE('',#523);
#16=PLANE('',#538);
#17=PLANE('',#554);
#18=PLANE('',#557);
#19=PLANE('',#561);
#20=PLANE('',#564);
#21=PLANE('',#568);
#22=PLANE('',#571);
#23=FACE_OUTER_BOUND('',#49,.T.);
#24=FACE_OUTER_BOUND('',#50,.T.);
#25=FACE_OUTER_BOUND('',#51,.T.);
#26=FACE_OUTER_BOUND('',#52,.T.);
#27=FACE_OUTER_BOUND('',#53,.T.);
#28=FACE_OUTER_BOUND('',#54,.T.);
#29=FACE_OUTER_BOUND('',#55,.T.);
#30=FACE_OUTER_BOUND('',#56,.T.);
#31=FACE_OUTER_BOUND('',#57,.T.);
#32=FACE_OUTER_BOUND('',#58,.T.);
#33=FACE_OUTER_BOUND('',#59,.T.);
#34=FACE_OUTER_BOUND('',#60,.T.);
#35=FACE_OUTER_BOUND('',#61,.T.);
#36=FACE_OUTER_BOUND('',#62,.T.);
#37=FACE_OUTER_BOUND('',#63,.T.);
#38=FACE_OUTER_BOUND('',#64,.T.);
#39=FACE_OUTER_BOUND('',#65,.T.);
#40=FACE_OUTER_BOUND('',#66,.T.);
#41=FACE_OUTER_BOUND('',#67,.T.);
#42=FACE_OUTER_BOUND('',#68,.T.);
#43=FACE_OUTER_BOUND('',#69,.T.);
#44=FACE_OUTER_BOUND('',#70,.T.);
#45=FACE_OUTER_BOUND('',#71,.T.);
#46=FACE_OUTER_BOUND('',#72,.T.);
#47=FACE_OUTER_BOUND('',#73,.T.);
#48=FACE_OUTER_BOUND('',#74,.T.);
#49=EDGE_LOOP('',(#303,#304,#305,#306));
#50=EDGE_LOOP('',(#307,#308,#309,#310));
#51=EDGE_LOOP('',(#311,#312,#313,#314));
#52=EDGE_LOOP('',(#315,#316,#317,#318));
#53=EDGE_LOOP('',(#319,#320,#321,#322,#323,#324,#325,#326,#327,#328,#329,
#330,#331,#332,#333,#334,#335,#336,#337,#338,#339,#340,#341,#342));
#54=EDGE_LOOP('',(#343,#344,#345,#346,#347,#348,#349,#350,#351,#352,#353,
#354,#355,#356,#357,#358,#359,#360,#361,#362,#363,#364,#365,#366));
#55=EDGE_LOOP('',(#367,#368,#369,#370));
#56=EDGE_LOOP('',(#371,#372,#373,#374));
#57=EDGE_LOOP('',(#375,#376,#377,#378));
#58=EDGE_LOOP('',(#379,#380,#381,#382));
#59=EDGE_LOOP('',(#383,#384,#385,#386));
#60=EDGE_LOOP('',(#387,#388,#389,#390));
#61=EDGE_LOOP('',(#391,#392,#393,#394));
#62=EDGE_LOOP('',(#395,#396,#397,#398));
#63=EDGE_LOOP('',(#399,#400,#401,#402));
#64=EDGE_LOOP('',(#403,#404,#405,#406));
#65=EDGE_LOOP('',(#407,#408,#409,#410));
#66=EDGE_LOOP('',(#411,#412,#413,#414));
#67=EDGE_LOOP('',(#415,#416,#417,#418));
#68=EDGE_LOOP('',(#419,#420,#421,#422));
#69=EDGE_LOOP('',(#423,#424,#425,#426));
#70=EDGE_LOOP('',(#427,#428,#429,#430));
#71=EDGE_LOOP('',(#431,#432,#433,#434));
#72=EDGE_LOOP('',(#435,#436,#437,#438));
#73=EDGE_LOOP('',(#439,#440,#441,#442));
#74=EDGE_LOOP('',(#443,#444,#445,#446));
#75=CIRCLE('',#512,0.115);
#76=CIRCLE('',#513,0.115);
#77=CIRCLE('',#515,0.115);
#78=CIRCLE('',#516,0.115);
#79=CIRCLE('',#518,0.115);
#80=CIRCLE('',#519,0.115);
#81=CIRCLE('',#521,0.315);
#82=CIRCLE('',#522,0.315);
#83=CIRCLE('',#524,0.03);
#84=CIRCLE('',#525,0.03);
#85=CIRCLE('',#526,0.015);
#86=CIRCLE('',#527,0.015);
#87=CIRCLE('',#528,0.03);
#88=CIRCLE('',#529,0.215);
#89=CIRCLE('',#530,0.03);
#90=CIRCLE('',#531,0.03);
#91=CIRCLE('',#532,0.03);
#92=CIRCLE('',#533,0.03);
#93=CIRCLE('',#534,0.215);
#94=CIRCLE('',#535,0.03);
#95=CIRCLE('',#536,0.015);
#96=CIRCLE('',#537,0.015);
#97=CIRCLE('',#539,0.03);
#98=CIRCLE('',#540,0.015);
#99=CIRCLE('',#541,0.015);
#100=CIRCLE('',#542,0.03);
#101=CIRCLE('',#543,0.215);
#102=CIRCLE('',#544,0.03);
#103=CIRCLE('',#545,0.03);
#104=CIRCLE('',#546,0.03);
#105=CIRCLE('',#547,0.03);
#106=CIRCLE('',#548,0.215);
#107=CIRCLE('',#549,0.03);
#108=CIRCLE('',#550,0.015);
#109=CIRCLE('',#551,0.015);
#110=CIRCLE('',#552,0.03);
#111=LINE('',#739,#147);
#112=LINE('',#743,#148);
#113=LINE('',#748,#149);
#114=LINE('',#752,#150);
#115=LINE('',#757,#151);
#116=LINE('',#761,#152);
#117=LINE('',#768,#153);
#118=LINE('',#771,#154);
#119=LINE('',#778,#155);
#120=LINE('',#783,#156);
#121=LINE('',#791,#157);
#122=LINE('',#796,#158);
#123=LINE('',#804,#159);
#124=LINE('',#808,#160);
#125=LINE('',#813,#161);
#126=LINE('',#818,#162);
#127=LINE('',#826,#163);
#128=LINE('',#831,#164);
#129=LINE('',#839,#165);
#130=LINE('',#844,#166);
#131=LINE('',#847,#167);
#132=LINE('',#849,#168);
#133=LINE('',#852,#169);
#134=LINE('',#854,#170);
#135=LINE('',#856,#171);
#136=LINE('',#858,#172);
#137=LINE('',#860,#173);
#138=LINE('',#862,#174);
#139=LINE('',#865,#175);
#140=LINE('',#867,#176);
#141=LINE('',#869,#177);
#142=LINE('',#871,#178);
#143=LINE('',#873,#179);
#144=LINE('',#875,#180);
#145=LINE('',#878,#181);
#146=LINE('',#880,#182);
#147=VECTOR('',#577,100.);
#148=VECTOR('',#580,100.);
#149=VECTOR('',#585,100.);
#150=VECTOR('',#588,100.);
#151=VECTOR('',#593,100.);
#152=VECTOR('',#596,100.);
#153=VECTOR('',#603,100.);
#154=VECTOR('',#606,100.);
#155=VECTOR('',#613,100.);
#156=VECTOR('',#618,100.);
#157=VECTOR('',#625,100.);
#158=VECTOR('',#630,100.);
#159=VECTOR('',#637,100.);
#160=VECTOR('',#642,100.);
#161=VECTOR('',#647,100.);
#162=VECTOR('',#652,100.);
#163=VECTOR('',#659,100.);
#164=VECTOR('',#664,100.);
#165=VECTOR('',#671,100.);
#166=VECTOR('',#676,100.);
#167=VECTOR('',#681,100.);
#168=VECTOR('',#684,100.);
#169=VECTOR('',#689,100.);
#170=VECTOR('',#692,100.);
#171=VECTOR('',#695,100.);
#172=VECTOR('',#698,100.);
#173=VECTOR('',#701,100.);
#174=VECTOR('',#704,100.);
#175=VECTOR('',#709,100.);
#176=VECTOR('',#712,100.);
#177=VECTOR('',#715,100.);
#178=VECTOR('',#718,100.);
#179=VECTOR('',#721,100.);
#180=VECTOR('',#724,100.);
#181=VECTOR('',#729,100.);
#182=VECTOR('',#732,100.);
#183=VERTEX_POINT('',#737);
#184=VERTEX_POINT('',#738);
#185=VERTEX_POINT('',#740);
#186=VERTEX_POINT('',#742);
#187=VERTEX_POINT('',#746);
#188=VERTEX_POINT('',#747);
#189=VERTEX_POINT('',#749);
#190=VERTEX_POINT('',#751);
#191=VERTEX_POINT('',#755);
#192=VERTEX_POINT('',#756);
#193=VERTEX_POINT('',#758);
#194=VERTEX_POINT('',#760);
#195=VERTEX_POINT('',#764);
#196=VERTEX_POINT('',#765);
#197=VERTEX_POINT('',#767);
#198=VERTEX_POINT('',#769);
#199=VERTEX_POINT('',#773);
#200=VERTEX_POINT('',#775);
#201=VERTEX_POINT('',#777);
#202=VERTEX_POINT('',#780);
#203=VERTEX_POINT('',#782);
#204=VERTEX_POINT('',#784);
#205=VERTEX_POINT('',#786);
#206=VERTEX_POINT('',#788);
#207=VERTEX_POINT('',#790);
#208=VERTEX_POINT('',#793);
#209=VERTEX_POINT('',#795);
#210=VERTEX_POINT('',#797);
#211=VERTEX_POINT('',#799);
#212=VERTEX_POINT('',#801);
#213=VERTEX_POINT('',#803);
#214=VERTEX_POINT('',#806);
#215=VERTEX_POINT('',#810);
#216=VERTEX_POINT('',#812);
#217=VERTEX_POINT('',#815);
#218=VERTEX_POINT('',#817);
#219=VERTEX_POINT('',#819);
#220=VERTEX_POINT('',#821);
#221=VERTEX_POINT('',#823);
#222=VERTEX_POINT('',#825);
#223=VERTEX_POINT('',#828);
#224=VERTEX_POINT('',#830);
#225=VERTEX_POINT('',#832);
#226=VERTEX_POINT('',#834);
#227=VERTEX_POINT('',#836);
#228=VERTEX_POINT('',#838);
#229=VERTEX_POINT('',#841);
#230=VERTEX_POINT('',#843);
#231=EDGE_CURVE('',#183,#184,#111,.T.);
#232=EDGE_CURVE('',#183,#185,#75,.T.);
#233=EDGE_CURVE('',#185,#186,#112,.T.);
#234=EDGE_CURVE('',#184,#186,#76,.T.);
#235=EDGE_CURVE('',#187,#188,#113,.T.);
#236=EDGE_CURVE('',#187,#189,#77,.T.);
#237=EDGE_CURVE('',#189,#190,#114,.T.);
#238=EDGE_CURVE('',#188,#190,#78,.T.);
#239=EDGE_CURVE('',#191,#192,#115,.T.);
#240=EDGE_CURVE('',#191,#193,#79,.T.);
#241=EDGE_CURVE('',#193,#194,#116,.T.);
#242=EDGE_CURVE('',#192,#194,#80,.T.);
#243=EDGE_CURVE('',#195,#196,#81,.T.);
#244=EDGE_CURVE('',#195,#197,#117,.T.);
#245=EDGE_CURVE('',#197,#198,#82,.T.);
#246=EDGE_CURVE('',#196,#198,#118,.T.);
#247=EDGE_CURVE('',#199,#195,#83,.T.);
#248=EDGE_CURVE('',#196,#200,#84,.T.);
#249=EDGE_CURVE('',#200,#201,#119,.T.);
#250=EDGE_CURVE('',#201,#193,#85,.T.);
#251=EDGE_CURVE('',#191,#202,#86,.T.);
#252=EDGE_CURVE('',#202,#203,#120,.T.);
#253=EDGE_CURVE('',#204,#203,#87,.T.);
#254=EDGE_CURVE('',#205,#204,#88,.T.);
#255=EDGE_CURVE('',#206,#205,#89,.T.);
#256=EDGE_CURVE('',#206,#207,#121,.T.);
#257=EDGE_CURVE('',#207,#189,#90,.T.);
#258=EDGE_CURVE('',#187,#208,#91,.T.);
#259=EDGE_CURVE('',#208,#209,#122,.T.);
#260=EDGE_CURVE('',#210,#209,#92,.T.);
#261=EDGE_CURVE('',#211,#210,#93,.T.);
#262=EDGE_CURVE('',#212,#211,#94,.T.);
#263=EDGE_CURVE('',#212,#213,#123,.T.);
#264=EDGE_CURVE('',#213,#185,#95,.T.);
#265=EDGE_CURVE('',#183,#214,#96,.T.);
#266=EDGE_CURVE('',#214,#199,#124,.T.);
#267=EDGE_CURVE('',#215,#197,#97,.T.);
#268=EDGE_CURVE('',#216,#215,#125,.T.);
#269=EDGE_CURVE('',#184,#216,#98,.T.);
#270=EDGE_CURVE('',#217,#186,#99,.T.);
#271=EDGE_CURVE('',#218,#217,#126,.T.);
#272=EDGE_CURVE('',#218,#219,#100,.T.);
#273=EDGE_CURVE('',#219,#220,#101,.T.);
#274=EDGE_CURVE('',#220,#221,#102,.T.);
#275=EDGE_CURVE('',#222,#221,#127,.T.);
#276=EDGE_CURVE('',#188,#222,#103,.T.);
#277=EDGE_CURVE('',#223,#190,#104,.T.);
#278=EDGE_CURVE('',#224,#223,#128,.T.);
#279=EDGE_CURVE('',#224,#225,#105,.T.);
#280=EDGE_CURVE('',#225,#226,#106,.T.);
#281=EDGE_CURVE('',#226,#227,#107,.T.);
#282=EDGE_CURVE('',#228,#227,#129,.T.);
#283=EDGE_CURVE('',#192,#228,#108,.T.);
#284=EDGE_CURVE('',#229,#194,#109,.T.);
#285=EDGE_CURVE('',#230,#229,#130,.T.);
#286=EDGE_CURVE('',#198,#230,#110,.T.);
#287=EDGE_CURVE('',#200,#230,#131,.T.);
#288=EDGE_CURVE('',#201,#229,#132,.T.);
#289=EDGE_CURVE('',#202,#228,#133,.T.);
#290=EDGE_CURVE('',#203,#227,#134,.T.);
#291=EDGE_CURVE('',#204,#226,#135,.T.);
#292=EDGE_CURVE('',#205,#225,#136,.T.);
#293=EDGE_CURVE('',#206,#224,#137,.T.);
#294=EDGE_CURVE('',#207,#223,#138,.T.);
#295=EDGE_CURVE('',#208,#222,#139,.T.);
#296=EDGE_CURVE('',#209,#221,#140,.T.);
#297=EDGE_CURVE('',#210,#220,#141,.T.);
#298=EDGE_CURVE('',#211,#219,#142,.T.);
#299=EDGE_CURVE('',#212,#218,#143,.T.);
#300=EDGE_CURVE('',#213,#217,#144,.T.);
#301=EDGE_CURVE('',#199,#215,#145,.T.);
#302=EDGE_CURVE('',#214,#216,#146,.T.);
#303=ORIENTED_EDGE('',*,*,#231,.F.);
#304=ORIENTED_EDGE('',*,*,#232,.T.);
#305=ORIENTED_EDGE('',*,*,#233,.T.);
#306=ORIENTED_EDGE('',*,*,#234,.F.);
#307=ORIENTED_EDGE('',*,*,#235,.F.);
#308=ORIENTED_EDGE('',*,*,#236,.T.);
#309=ORIENTED_EDGE('',*,*,#237,.T.);
#310=ORIENTED_EDGE('',*,*,#238,.F.);
#311=ORIENTED_EDGE('',*,*,#239,.F.);
#312=ORIENTED_EDGE('',*,*,#240,.T.);
#313=ORIENTED_EDGE('',*,*,#241,.T.);
#314=ORIENTED_EDGE('',*,*,#242,.F.);
#315=ORIENTED_EDGE('',*,*,#243,.F.);
#316=ORIENTED_EDGE('',*,*,#244,.T.);
#317=ORIENTED_EDGE('',*,*,#245,.T.);
#318=ORIENTED_EDGE('',*,*,#246,.F.);
#319=ORIENTED_EDGE('',*,*,#247,.T.);
#320=ORIENTED_EDGE('',*,*,#243,.T.);
#321=ORIENTED_EDGE('',*,*,#248,.T.);
#322=ORIENTED_EDGE('',*,*,#249,.T.);
#323=ORIENTED_EDGE('',*,*,#250,.T.);
#324=ORIENTED_EDGE('',*,*,#240,.F.);
#325=ORIENTED_EDGE('',*,*,#251,.T.);
#326=ORIENTED_EDGE('',*,*,#252,.T.);
#327=ORIENTED_EDGE('',*,*,#253,.F.);
#328=ORIENTED_EDGE('',*,*,#254,.F.);
#329=ORIENTED_EDGE('',*,*,#255,.F.);
#330=ORIENTED_EDGE('',*,*,#256,.T.);
#331=ORIENTED_EDGE('',*,*,#257,.T.);
#332=ORIENTED_EDGE('',*,*,#236,.F.);
#333=ORIENTED_EDGE('',*,*,#258,.T.);
#334=ORIENTED_EDGE('',*,*,#259,.T.);
#335=ORIENTED_EDGE('',*,*,#260,.F.);
#336=ORIENTED_EDGE('',*,*,#261,.F.);
#337=ORIENTED_EDGE('',*,*,#262,.F.);
#338=ORIENTED_EDGE('',*,*,#263,.T.);
#339=ORIENTED_EDGE('',*,*,#264,.T.);
#340=ORIENTED_EDGE('',*,*,#232,.F.);
#341=ORIENTED_EDGE('',*,*,#265,.T.);
#342=ORIENTED_EDGE('',*,*,#266,.T.);
#343=ORIENTED_EDGE('',*,*,#245,.F.);
#344=ORIENTED_EDGE('',*,*,#267,.F.);
#345=ORIENTED_EDGE('',*,*,#268,.F.);
#346=ORIENTED_EDGE('',*,*,#269,.F.);
#347=ORIENTED_EDGE('',*,*,#234,.T.);
#348=ORIENTED_EDGE('',*,*,#270,.F.);
#349=ORIENTED_EDGE('',*,*,#271,.F.);
#350=ORIENTED_EDGE('',*,*,#272,.T.);
#351=ORIENTED_EDGE('',*,*,#273,.T.);
#352=ORIENTED_EDGE('',*,*,#274,.T.);
#353=ORIENTED_EDGE('',*,*,#275,.F.);
#354=ORIENTED_EDGE('',*,*,#276,.F.);
#355=ORIENTED_EDGE('',*,*,#238,.T.);
#356=ORIENTED_EDGE('',*,*,#277,.F.);
#357=ORIENTED_EDGE('',*,*,#278,.F.);
#358=ORIENTED_EDGE('',*,*,#279,.T.);
#359=ORIENTED_EDGE('',*,*,#280,.T.);
#360=ORIENTED_EDGE('',*,*,#281,.T.);
#361=ORIENTED_EDGE('',*,*,#282,.F.);
#362=ORIENTED_EDGE('',*,*,#283,.F.);
#363=ORIENTED_EDGE('',*,*,#242,.T.);
#364=ORIENTED_EDGE('',*,*,#284,.F.);
#365=ORIENTED_EDGE('',*,*,#285,.F.);
#366=ORIENTED_EDGE('',*,*,#286,.F.);
#367=ORIENTED_EDGE('',*,*,#286,.T.);
#368=ORIENTED_EDGE('',*,*,#287,.F.);
#369=ORIENTED_EDGE('',*,*,#248,.F.);
#370=ORIENTED_EDGE('',*,*,#246,.T.);
#371=ORIENTED_EDGE('',*,*,#285,.T.);
#372=ORIENTED_EDGE('',*,*,#288,.F.);
#373=ORIENTED_EDGE('',*,*,#249,.F.);
#374=ORIENTED_EDGE('',*,*,#287,.T.);
#375=ORIENTED_EDGE('',*,*,#284,.T.);
#376=ORIENTED_EDGE('',*,*,#241,.F.);
#377=ORIENTED_EDGE('',*,*,#250,.F.);
#378=ORIENTED_EDGE('',*,*,#288,.T.);
#379=ORIENTED_EDGE('',*,*,#283,.T.);
#380=ORIENTED_EDGE('',*,*,#289,.F.);
#381=ORIENTED_EDGE('',*,*,#251,.F.);
#382=ORIENTED_EDGE('',*,*,#239,.T.);
#383=ORIENTED_EDGE('',*,*,#282,.T.);
#384=ORIENTED_EDGE('',*,*,#290,.F.);
#385=ORIENTED_EDGE('',*,*,#252,.F.);
#386=ORIENTED_EDGE('',*,*,#289,.T.);
#387=ORIENTED_EDGE('',*,*,#281,.F.);
#388=ORIENTED_EDGE('',*,*,#291,.F.);
#389=ORIENTED_EDGE('',*,*,#253,.T.);
#390=ORIENTED_EDGE('',*,*,#290,.T.);
#391=ORIENTED_EDGE('',*,*,#280,.F.);
#392=ORIENTED_EDGE('',*,*,#292,.F.);
#393=ORIENTED_EDGE('',*,*,#254,.T.);
#394=ORIENTED_EDGE('',*,*,#291,.T.);
#395=ORIENTED_EDGE('',*,*,#279,.F.);
#396=ORIENTED_EDGE('',*,*,#293,.F.);
#397=ORIENTED_EDGE('',*,*,#255,.T.);
#398=ORIENTED_EDGE('',*,*,#292,.T.);
#399=ORIENTED_EDGE('',*,*,#278,.T.);
#400=ORIENTED_EDGE('',*,*,#294,.F.);
#401=ORIENTED_EDGE('',*,*,#256,.F.);
#402=ORIENTED_EDGE('',*,*,#293,.T.);
#403=ORIENTED_EDGE('',*,*,#277,.T.);
#404=ORIENTED_EDGE('',*,*,#237,.F.);
#405=ORIENTED_EDGE('',*,*,#257,.F.);
#406=ORIENTED_EDGE('',*,*,#294,.T.);
#407=ORIENTED_EDGE('',*,*,#276,.T.);
#408=ORIENTED_EDGE('',*,*,#295,.F.);
#409=ORIENTED_EDGE('',*,*,#258,.F.);
#410=ORIENTED_EDGE('',*,*,#235,.T.);
#411=ORIENTED_EDGE('',*,*,#275,.T.);
#412=ORIENTED_EDGE('',*,*,#296,.F.);
#413=ORIENTED_EDGE('',*,*,#259,.F.);
#414=ORIENTED_EDGE('',*,*,#295,.T.);
#415=ORIENTED_EDGE('',*,*,#274,.F.);
#416=ORIENTED_EDGE('',*,*,#297,.F.);
#417=ORIENTED_EDGE('',*,*,#260,.T.);
#418=ORIENTED_EDGE('',*,*,#296,.T.);
#419=ORIENTED_EDGE('',*,*,#273,.F.);
#420=ORIENTED_EDGE('',*,*,#298,.F.);
#421=ORIENTED_EDGE('',*,*,#261,.T.);
#422=ORIENTED_EDGE('',*,*,#297,.T.);
#423=ORIENTED_EDGE('',*,*,#272,.F.);
#424=ORIENTED_EDGE('',*,*,#299,.F.);
#425=ORIENTED_EDGE('',*,*,#262,.T.);
#426=ORIENTED_EDGE('',*,*,#298,.T.);
#427=ORIENTED_EDGE('',*,*,#271,.T.);
#428=ORIENTED_EDGE('',*,*,#300,.F.);
#429=ORIENTED_EDGE('',*,*,#263,.F.);
#430=ORIENTED_EDGE('',*,*,#299,.T.);
#431=ORIENTED_EDGE('',*,*,#270,.T.);
#432=ORIENTED_EDGE('',*,*,#233,.F.);
#433=ORIENTED_EDGE('',*,*,#264,.F.);
#434=ORIENTED_EDGE('',*,*,#300,.T.);
#435=ORIENTED_EDGE('',*,*,#267,.T.);
#436=ORIENTED_EDGE('',*,*,#244,.F.);
#437=ORIENTED_EDGE('',*,*,#247,.F.);
#438=ORIENTED_EDGE('',*,*,#301,.T.);
#439=ORIENTED_EDGE('',*,*,#268,.T.);
#440=ORIENTED_EDGE('',*,*,#301,.F.);
#441=ORIENTED_EDGE('',*,*,#266,.F.);
#442=ORIENTED_EDGE('',*,*,#302,.T.);
#443=ORIENTED_EDGE('',*,*,#269,.T.);
#444=ORIENTED_EDGE('',*,*,#302,.F.);
#445=ORIENTED_EDGE('',*,*,#265,.F.);
#446=ORIENTED_EDGE('',*,*,#231,.T.);
#447=CYLINDRICAL_SURFACE('',#511,0.115);
#448=CYLINDRICAL_SURFACE('',#514,0.115);
#449=CYLINDRICAL_SURFACE('',#517,0.115);
#450=CYLINDRICAL_SURFACE('',#520,0.315);
#451=CYLINDRICAL_SURFACE('',#553,0.03);
#452=CYLINDRICAL_SURFACE('',#555,0.015);
#453=CYLINDRICAL_SURFACE('',#556,0.015);
#454=CYLINDRICAL_SURFACE('',#558,0.03);
#455=CYLINDRICAL_SURFACE('',#559,0.215);
#456=CYLINDRICAL_SURFACE('',#560,0.03);
#457=CYLINDRICAL_SURFACE('',#562,0.03);
#458=CYLINDRICAL_SURFACE('',#563,0.03);
#459=CYLINDRICAL_SURFACE('',#565,0.03);
#460=CYLINDRICAL_SURFACE('',#566,0.215);
#461=CYLINDRICAL_SURFACE('',#567,0.03);
#462=CYLINDRICAL_SURFACE('',#569,0.015);
#463=CYLINDRICAL_SURFACE('',#570,0.03);
#464=CYLINDRICAL_SURFACE('',#572,0.015);
#465=ADVANCED_FACE('',(#23),#447,.F.);
#466=ADVANCED_FACE('',(#24),#448,.F.);
#467=ADVANCED_FACE('',(#25),#449,.F.);
#468=ADVANCED_FACE('',(#26),#450,.T.);
#469=ADVANCED_FACE('',(#27),#15,.T.);
#470=ADVANCED_FACE('',(#28),#16,.F.);
#471=ADVANCED_FACE('',(#29),#451,.T.);
#472=ADVANCED_FACE('',(#30),#17,.F.);
#473=ADVANCED_FACE('',(#31),#452,.T.);
#474=ADVANCED_FACE('',(#32),#453,.T.);
#475=ADVANCED_FACE('',(#33),#18,.F.);
#476=ADVANCED_FACE('',(#34),#454,.F.);
#477=ADVANCED_FACE('',(#35),#455,.F.);
#478=ADVANCED_FACE('',(#36),#456,.F.);
#479=ADVANCED_FACE('',(#37),#19,.F.);
#480=ADVANCED_FACE('',(#38),#457,.T.);
#481=ADVANCED_FACE('',(#39),#458,.T.);
#482=ADVANCED_FACE('',(#40),#20,.F.);
#483=ADVANCED_FACE('',(#41),#459,.F.);
#484=ADVANCED_FACE('',(#42),#460,.F.);
#485=ADVANCED_FACE('',(#43),#461,.F.);
#486=ADVANCED_FACE('',(#44),#21,.F.);
#487=ADVANCED_FACE('',(#45),#462,.T.);
#488=ADVANCED_FACE('',(#46),#463,.T.);
#489=ADVANCED_FACE('',(#47),#22,.F.);
#490=ADVANCED_FACE('',(#48),#464,.T.);
#491=CLOSED_SHELL('',(#465,#466,#467,#468,#469,#470,#471,#472,#473,#474,
#475,#476,#477,#478,#479,#480,#481,#482,#483,#484,#485,#486,#487,#488,#489,
#490));
#492=DERIVED_UNIT_ELEMENT(#494,1.);
#493=DERIVED_UNIT_ELEMENT(#886,3.);
#494=(
MASS_UNIT()
NAMED_UNIT(*)
SI_UNIT($,.GRAM.)
);
#495=DERIVED_UNIT((#492,#493));
#496=MEASURE_REPRESENTATION_ITEM('density measure',
POSITIVE_RATIO_MEASURE(7.85),#495);
#497=PROPERTY_DEFINITION_REPRESENTATION(#502,#499);
#498=PROPERTY_DEFINITION_REPRESENTATION(#503,#500);
#499=REPRESENTATION('material name',(#501),#884);
#500=REPRESENTATION('density',(#496),#884);
#501=DESCRIPTIVE_REPRESENTATION_ITEM('Steel','Steel');
#502=PROPERTY_DEFINITION('material property','material name',#893);
#503=PROPERTY_DEFINITION('material property','density of part',#893);
#504=DATE_TIME_ROLE('creation_date');
#505=APPLIED_DATE_AND_TIME_ASSIGNMENT(#506,#504,(#893));
#506=DATE_AND_TIME(#507,#508);
#507=CALENDAR_DATE(2025,16,9);
#508=LOCAL_TIME(0,0,0.,#509);
#509=COORDINATED_UNIVERSAL_TIME_OFFSET(0,0,.BEHIND.);
#510=AXIS2_PLACEMENT_3D('placement',#735,#573,#574);
#511=AXIS2_PLACEMENT_3D('',#736,#575,#576);
#512=AXIS2_PLACEMENT_3D('',#741,#578,#579);
#513=AXIS2_PLACEMENT_3D('',#744,#581,#582);
#514=AXIS2_PLACEMENT_3D('',#745,#583,#584);
#515=AXIS2_PLACEMENT_3D('',#750,#586,#587);
#516=AXIS2_PLACEMENT_3D('',#753,#589,#590);
#517=AXIS2_PLACEMENT_3D('',#754,#591,#592);
#518=AXIS2_PLACEMENT_3D('',#759,#594,#595);
#519=AXIS2_PLACEMENT_3D('',#762,#597,#598);
#520=AXIS2_PLACEMENT_3D('',#763,#599,#600);
#521=AXIS2_PLACEMENT_3D('',#766,#601,#602);
#522=AXIS2_PLACEMENT_3D('',#770,#604,#605);
#523=AXIS2_PLACEMENT_3D('',#772,#607,#608);
#524=AXIS2_PLACEMENT_3D('',#774,#609,#610);
#525=AXIS2_PLACEMENT_3D('',#776,#611,#612);
#526=AXIS2_PLACEMENT_3D('',#779,#614,#615);
#527=AXIS2_PLACEMENT_3D('',#781,#616,#617);
#528=AXIS2_PLACEMENT_3D('',#785,#619,#620);
#529=AXIS2_PLACEMENT_3D('',#787,#621,#622);
#530=AXIS2_PLACEMENT_3D('',#789,#623,#624);
#531=AXIS2_PLACEMENT_3D('',#792,#626,#627);
#532=AXIS2_PLACEMENT_3D('',#794,#628,#629);
#533=AXIS2_PLACEMENT_3D('',#798,#631,#632);
#534=AXIS2_PLACEMENT_3D('',#800,#633,#634);
#535=AXIS2_PLACEMENT_3D('',#802,#635,#636);
#536=AXIS2_PLACEMENT_3D('',#805,#638,#639);
#537=AXIS2_PLACEMENT_3D('',#807,#640,#641);
#538=AXIS2_PLACEMENT_3D('',#809,#643,#644);
#539=AXIS2_PLACEMENT_3D('',#811,#645,#646);
#540=AXIS2_PLACEMENT_3D('',#814,#648,#649);
#541=AXIS2_PLACEMENT_3D('',#816,#650,#651);
#542=AXIS2_PLACEMENT_3D('',#820,#653,#654);
#543=AXIS2_PLACEMENT_3D('',#822,#655,#656);
#544=AXIS2_PLACEMENT_3D('',#824,#657,#658);
#545=AXIS2_PLACEMENT_3D('',#827,#660,#661);
#546=AXIS2_PLACEMENT_3D('',#829,#662,#663);
#547=AXIS2_PLACEMENT_3D('',#833,#665,#666);
#548=AXIS2_PLACEMENT_3D('',#835,#667,#668);
#549=AXIS2_PLACEMENT_3D('',#837,#669,#670);
#550=AXIS2_PLACEMENT_3D('',#840,#672,#673);
#551=AXIS2_PLACEMENT_3D('',#842,#674,#675);
#552=AXIS2_PLACEMENT_3D('',#845,#677,#678);
#553=AXIS2_PLACEMENT_3D('',#846,#679,#680);
#554=AXIS2_PLACEMENT_3D('',#848,#682,#683);
#555=AXIS2_PLACEMENT_3D('',#850,#685,#686);
#556=AXIS2_PLACEMENT_3D('',#851,#687,#688);
#557=AXIS2_PLACEMENT_3D('',#853,#690,#691);
#558=AXIS2_PLACEMENT_3D('',#855,#693,#694);
#559=AXIS2_PLACEMENT_3D('',#857,#696,#697);
#560=AXIS2_PLACEMENT_3D('',#859,#699,#700);
#561=AXIS2_PLACEMENT_3D('',#861,#702,#703);
#562=AXIS2_PLACEMENT_3D('',#863,#705,#706);
#563=AXIS2_PLACEMENT_3D('',#864,#707,#708);
#564=AXIS2_PLACEMENT_3D('',#866,#710,#711);
#565=AXIS2_PLACEMENT_3D('',#868,#713,#714);
#566=AXIS2_PLACEMENT_3D('',#870,#716,#717);
#567=AXIS2_PLACEMENT_3D('',#872,#719,#720);
#568=AXIS2_PLACEMENT_3D('',#874,#722,#723);
#569=AXIS2_PLACEMENT_3D('',#876,#725,#726);
#570=AXIS2_PLACEMENT_3D('',#877,#727,#728);
#571=AXIS2_PLACEMENT_3D('',#879,#730,#731);
#572=AXIS2_PLACEMENT_3D('',#881,#733,#734);
#573=DIRECTION('axis',(0.,0.,1.));
#574=DIRECTION('refdir',(1.,0.,0.));
#575=DIRECTION('center_axis',(-1.,0.,0.));
#576=DIRECTION('ref_axis',(0.,0.,1.));
#577=DIRECTION('',(-1.,0.,0.));
#578=DIRECTION('center_axis',(1.,0.,0.));
#579=DIRECTION('ref_axis',(0.,0.,-1.));
#580=DIRECTION('',(-1.,0.,0.));
#581=DIRECTION('center_axis',(1.,0.,0.));
#582=DIRECTION('ref_axis',(0.,0.,-1.));
#583=DIRECTION('center_axis',(-1.,0.,0.));
#584=DIRECTION('ref_axis',(0.,0.,1.));
#585=DIRECTION('',(-1.,0.,0.));
#586=DIRECTION('center_axis',(1.,0.,0.));
#587=DIRECTION('ref_axis',(0.,0.,-1.));
#588=DIRECTION('',(-1.,0.,0.));
#589=DIRECTION('center_axis',(1.,0.,0.));
#590=DIRECTION('ref_axis',(0.,0.,-1.));
#591=DIRECTION('center_axis',(-1.,0.,0.));
#592=DIRECTION('ref_axis',(0.,0.122892856725251,-0.992419944260446));
#593=DIRECTION('',(-1.,0.,0.));
#594=DIRECTION('center_axis',(1.,0.,0.));
#595=DIRECTION('ref_axis',(0.,0.,-1.));
#596=DIRECTION('',(-1.,0.,0.));
#597=DIRECTION('center_axis',(1.,0.,0.));
#598=DIRECTION('ref_axis',(0.,0.,-1.));
#599=DIRECTION('center_axis',(-1.,0.,0.));
#600=DIRECTION('ref_axis',(0.,-1.,-2.7735193757867E-9));
#601=DIRECTION('center_axis',(1.,0.,0.));
#602=DIRECTION('ref_axis',(0.,0.,-1.));
#603=DIRECTION('',(-1.,0.,0.));
#604=DIRECTION('center_axis',(1.,0.,0.));
#605=DIRECTION('ref_axis',(0.,0.,-1.));
#606=DIRECTION('',(-1.,0.,0.));
#607=DIRECTION('center_axis',(1.,0.,0.));
#608=DIRECTION('ref_axis',(0.,0.,-1.));
#609=DIRECTION('center_axis',(1.,0.,0.));
#610=DIRECTION('ref_axis',(0.,0.,-1.));
#611=DIRECTION('center_axis',(1.,0.,0.));
#612=DIRECTION('ref_axis',(0.,0.,-1.));
#613=DIRECTION('',(0.,-0.965925826289068,0.258819045102521));
#614=DIRECTION('center_axis',(1.,0.,0.));
#615=DIRECTION('ref_axis',(0.,0.,-1.));
#616=DIRECTION('center_axis',(1.,0.,0.));
#617=DIRECTION('ref_axis',(0.,0.,-1.));
#618=DIRECTION('',(0.,1.26628250015715E-16,-1.));
#619=DIRECTION('center_axis',(1.,0.,0.));
#620=DIRECTION('ref_axis',(0.,0.,-1.));
#621=DIRECTION('center_axis',(1.,0.,0.));
#622=DIRECTION('ref_axis',(0.,0.,-1.));
#623=DIRECTION('center_axis',(1.,0.,0.));
#624=DIRECTION('ref_axis',(0.,0.,-1.));
#625=DIRECTION('',(0.,0.965925826289068,0.258819045102521));
#626=DIRECTION('center_axis',(1.,0.,0.));
#627=DIRECTION('ref_axis',(0.,0.,-1.));
#628=DIRECTION('center_axis',(1.,0.,0.));
#629=DIRECTION('ref_axis',(0.,0.,-1.));
#630=DIRECTION('',(0.,-0.965925826289068,0.258819045102521));
#631=DIRECTION('center_axis',(1.,0.,0.));
#632=DIRECTION('ref_axis',(0.,0.,-1.));
#633=DIRECTION('center_axis',(1.,0.,0.));
#634=DIRECTION('ref_axis',(0.,0.,-1.));
#635=DIRECTION('center_axis',(1.,0.,0.));
#636=DIRECTION('ref_axis',(0.,0.,-1.));
#637=DIRECTION('',(0.,1.26628250015715E-16,-1.));
#638=DIRECTION('center_axis',(1.,0.,0.));
#639=DIRECTION('ref_axis',(0.,0.,-1.));
#640=DIRECTION('center_axis',(1.,0.,0.));
#641=DIRECTION('ref_axis',(0.,0.,-1.));
#642=DIRECTION('',(0.,0.965925826289068,0.258819045102521));
#643=DIRECTION('center_axis',(1.,0.,0.));
#644=DIRECTION('ref_axis',(0.,0.,-1.));
#645=DIRECTION('center_axis',(1.,0.,0.));
#646=DIRECTION('ref_axis',(0.,0.,-1.));
#647=DIRECTION('',(0.,0.965925826289068,0.258819045102521));
#648=DIRECTION('center_axis',(1.,0.,0.));
#649=DIRECTION('ref_axis',(0.,0.,-1.));
#650=DIRECTION('center_axis',(1.,0.,0.));
#651=DIRECTION('ref_axis',(0.,0.,-1.));
#652=DIRECTION('',(0.,1.26628250015715E-16,-1.));
#653=DIRECTION('center_axis',(1.,0.,0.));
#654=DIRECTION('ref_axis',(0.,0.,-1.));
#655=DIRECTION('center_axis',(1.,0.,0.));
#656=DIRECTION('ref_axis',(0.,0.,-1.));
#657=DIRECTION('center_axis',(1.,0.,0.));
#658=DIRECTION('ref_axis',(0.,0.,-1.));
#659=DIRECTION('',(0.,-0.965925826289068,0.258819045102521));
#660=DIRECTION('center_axis',(1.,0.,0.));
#661=DIRECTION('ref_axis',(0.,0.,-1.));
#662=DIRECTION('center_axis',(1.,0.,0.));
#663=DIRECTION('ref_axis',(0.,0.,-1.));
#664=DIRECTION('',(0.,0.965925826289068,0.258819045102521));
#665=DIRECTION('center_axis',(1.,0.,0.));
#666=DIRECTION('ref_axis',(0.,0.,-1.));
#667=DIRECTION('center_axis',(1.,0.,0.));
#668=DIRECTION('ref_axis',(0.,0.,-1.));
#669=DIRECTION('center_axis',(1.,0.,0.));
#670=DIRECTION('ref_axis',(0.,0.,-1.));
#671=DIRECTION('',(0.,1.26628250015715E-16,-1.));
#672=DIRECTION('center_axis',(1.,0.,0.));
#673=DIRECTION('ref_axis',(0.,0.,-1.));
#674=DIRECTION('center_axis',(1.,0.,0.));
#675=DIRECTION('ref_axis',(0.,0.,-1.));
#676=DIRECTION('',(0.,-0.965925826289068,0.258819045102521));
#677=DIRECTION('center_axis',(1.,0.,0.));
#678=DIRECTION('ref_axis',(0.,0.,-1.));
#679=DIRECTION('center_axis',(-1.,0.,0.));
#680=DIRECTION('ref_axis',(0.,0.,1.));
#681=DIRECTION('',(-1.,0.,0.));
#682=DIRECTION('center_axis',(0.,-0.258819045102521,-0.965925826289068));
#683=DIRECTION('ref_axis',(0.,0.965925826289068,-0.258819045102521));
#684=DIRECTION('',(-1.,0.,0.));
#685=DIRECTION('center_axis',(-1.,0.,0.));
#686=DIRECTION('ref_axis',(0.,0.,1.));
#687=DIRECTION('center_axis',(-1.,0.,0.));
#688=DIRECTION('ref_axis',(0.,0.,1.));
#689=DIRECTION('',(-1.,0.,0.));
#690=DIRECTION('center_axis',(0.,1.,1.26628250015715E-16));
#691=DIRECTION('ref_axis',(0.,-1.26628250015715E-16,1.));
#692=DIRECTION('',(-1.,0.,0.));
#693=DIRECTION('center_axis',(-1.,0.,0.));
#694=DIRECTION('ref_axis',(0.,0.547475780039385,-0.836821528326242));
#695=DIRECTION('',(-1.,0.,0.));
#696=DIRECTION('center_axis',(-1.,0.,0.));
#697=DIRECTION('ref_axis',(0.,0.,1.));
#698=DIRECTION('',(-1.,0.,0.));
#699=DIRECTION('center_axis',(-1.,0.,0.));
#700=DIRECTION('ref_axis',(0.,0.,1.));
#701=DIRECTION('',(-1.,0.,0.));
#702=DIRECTION('center_axis',(0.,-0.258819045102521,0.965925826289068));
#703=DIRECTION('ref_axis',(0.,-0.965925826289068,-0.258819045102521));
#704=DIRECTION('',(-1.,0.,0.));
#705=DIRECTION('center_axis',(-1.,0.,0.));
#706=DIRECTION('ref_axis',(0.,0.,1.));
#707=DIRECTION('center_axis',(-1.,0.,0.));
#708=DIRECTION('ref_axis',(0.,0.,1.));
#709=DIRECTION('',(-1.,0.,0.));
#710=DIRECTION('center_axis',(0.,-0.258819045102521,-0.965925826289068));
#711=DIRECTION('ref_axis',(0.,0.965925826289068,-0.258819045102521));
#712=DIRECTION('',(-1.,0.,0.));
#713=DIRECTION('center_axis',(-1.,0.,0.));
#714=DIRECTION('ref_axis',(0.,0.,1.));
#715=DIRECTION('',(-1.,0.,0.));
#716=DIRECTION('center_axis',(-1.,0.,0.));
#717=DIRECTION('ref_axis',(0.,0.,1.));
#718=DIRECTION('',(-1.,0.,0.));
#719=DIRECTION('center_axis',(-1.,0.,0.));
#720=DIRECTION('ref_axis',(0.,0.,1.));
#721=DIRECTION('',(-1.,0.,0.));
#722=DIRECTION('center_axis',(0.,1.,1.26628250015715E-16));
#723=DIRECTION('ref_axis',(0.,-1.26628250015715E-16,1.));
#724=DIRECTION('',(-1.,0.,0.));
#725=DIRECTION('center_axis',(-1.,0.,0.));
#726=DIRECTION('ref_axis',(0.,-0.622958190464482,-0.782255132890298));
#727=DIRECTION('center_axis',(-1.,0.,0.));
#728=DIRECTION('ref_axis',(0.,0.,1.));
#729=DIRECTION('',(-1.,0.,0.));
#730=DIRECTION('center_axis',(0.,-0.258819045102521,0.965925826289068));
#731=DIRECTION('ref_axis',(0.,-0.965925826289068,-0.258819045102521));
#732=DIRECTION('',(-1.,0.,0.));
#733=DIRECTION('center_axis',(-1.,0.,0.));
#734=DIRECTION('ref_axis',(0.,-0.104990267630989,-0.994473249365096));
#735=CARTESIAN_POINT('',(0.,0.,0.));
#736=CARTESIAN_POINT('Origin',(0.06,0.,0.));
#737=CARTESIAN_POINT('',(0.06,0.0523040468215925,0.102417218699224));
#738=CARTESIAN_POINT('',(0.,0.0523040468215925,0.102417218699224));
#739=CARTESIAN_POINT('',(0.06,0.0523040468215925,0.102417218699224));
#740=CARTESIAN_POINT('',(0.06,-0.0257423072120034,0.112081816631436));
#741=CARTESIAN_POINT('Origin',(0.06,0.,0.));
#742=CARTESIAN_POINT('',(0.,-0.0257423072120034,0.112081816631436));
#743=CARTESIAN_POINT('',(0.06,-0.0257423072120034,0.112081816631436));
#744=CARTESIAN_POINT('Origin',(0.,0.,0.));
#745=CARTESIAN_POINT('Origin',(0.06,0.,0.));
#746=CARTESIAN_POINT('',(0.06,-0.114836089105639,0.00613780407977151));
#747=CARTESIAN_POINT('',(0.,-0.114836089105639,0.00613780407977151));
#748=CARTESIAN_POINT('',(0.06,-0.114836089105639,0.00613780407977151));
#749=CARTESIAN_POINT('',(0.06,-0.114836089105639,-0.00613780407977151));
#750=CARTESIAN_POINT('Origin',(0.06,0.,0.));
#751=CARTESIAN_POINT('',(0.,-0.114836089105639,-0.00613780407977151));
#752=CARTESIAN_POINT('',(0.06,-0.114836089105639,-0.00613780407977151));
#753=CARTESIAN_POINT('Origin',(0.,0.,0.));
#754=CARTESIAN_POINT('Origin',(0.06,0.,0.));
#755=CARTESIAN_POINT('',(0.06,-0.0257423076923076,-0.112081816521122));
#756=CARTESIAN_POINT('',(0.,-0.0257423076923076,-0.112081816521122));
#757=CARTESIAN_POINT('',(0.06,-0.0257423076923076,-0.112081816521122));
#758=CARTESIAN_POINT('',(0.06,0.0523040463827039,-0.102417218923362));
#759=CARTESIAN_POINT('Origin',(0.06,0.,0.));
#760=CARTESIAN_POINT('',(0.,0.0523040463827039,-0.102417218923362));
#761=CARTESIAN_POINT('',(0.06,0.0523040463827039,-0.102417218923362));
#762=CARTESIAN_POINT('Origin',(0.,0.,0.));
#763=CARTESIAN_POINT('Origin',(0.06,0.,0.));
#764=CARTESIAN_POINT('',(0.06,0.248097922814003,0.1940938450734));
#765=CARTESIAN_POINT('',(0.06,0.248097923890649,-0.194093843697192));
#766=CARTESIAN_POINT('Origin',(0.06,0.,0.));
#767=CARTESIAN_POINT('',(0.,0.248097922814003,0.1940938450734));
#768=CARTESIAN_POINT('',(0.06,0.248097922814003,0.1940938450734));
#769=CARTESIAN_POINT('',(0.,0.248097923890649,-0.194093843697191));
#770=CARTESIAN_POINT('Origin',(0.,0.,0.));
#771=CARTESIAN_POINT('',(0.06,0.248097923890649,-0.194093843697192));
#772=CARTESIAN_POINT('Origin',(0.06,0.,0.));
#773=CARTESIAN_POINT('',(0.06,0.232234121539853,0.146630940937359));
#774=CARTESIAN_POINT('Origin',(0.06,0.224469550186777,0.175608715726031));
#775=CARTESIAN_POINT('',(0.06,0.232234121539853,-0.146630940937358));
#776=CARTESIAN_POINT('Origin',(0.06,0.224469550186777,-0.17560871572603));
#777=CARTESIAN_POINT('',(0.06,0.0630085994748598,-0.101287098961308));
#778=CARTESIAN_POINT('',(0.06,0.232234121539853,-0.146630940937358));
#779=CARTESIAN_POINT('Origin',(0.06,0.059126313798322,-0.115775986355644));
#780=CARTESIAN_POINT('',(0.06,-0.0441,-0.126701183893443));
#781=CARTESIAN_POINT('Origin',(0.06,-0.0291,-0.126701183893443));
#782=CARTESIAN_POINT('',(0.06,-0.0441,-0.169511622020438));
#783=CARTESIAN_POINT('',(0.06,-0.0441,-0.126701183893443));
#784=CARTESIAN_POINT('',(0.06,-0.0861162162162162,-0.196999993158888));
#785=CARTESIAN_POINT('Origin',(0.06,-0.0741,-0.169511622020438));
#786=CARTESIAN_POINT('',(0.06,-0.195901613268816,-0.0885864431991445));
#787=CARTESIAN_POINT('Origin',(0.06,3.25260651745651E-16,3.68628738645072E-16));
#788=CARTESIAN_POINT('',(0.06,-0.176331075793685,-0.047247769359429));
#789=CARTESIAN_POINT('Origin',(0.06,-0.168566504440609,-0.076225544148101));
#790=CARTESIAN_POINT('',(0.06,-0.137028758388817,-0.0367167451501231));
#791=CARTESIAN_POINT('',(0.06,-0.176331075793685,-0.0472477693594289));
#792=CARTESIAN_POINT('Origin',(0.06,-0.144793329741893,-0.00773897036145102));
#793=CARTESIAN_POINT('',(0.06,-0.137028758388817,0.036716745150123));
#794=CARTESIAN_POINT('Origin',(0.06,-0.144793329741893,0.00773897036145098));
#795=CARTESIAN_POINT('',(0.06,-0.176331075793685,0.0472477693594289));
#796=CARTESIAN_POINT('',(0.06,-0.137028758388817,0.036716745150123));
#797=CARTESIAN_POINT('',(0.06,-0.195901613268816,0.0885864431991444));
#798=CARTESIAN_POINT('Origin',(0.06,-0.168566504440609,0.076225544148101));
#799=CARTESIAN_POINT('',(0.06,-0.0861162162162162,0.196999993158888));
#800=CARTESIAN_POINT('Origin',(0.06,-1.0842021724855E-16,8.67361737988404E-17));
#801=CARTESIAN_POINT('',(0.06,-0.0441,0.169511622020438));
#802=CARTESIAN_POINT('Origin',(0.06,-0.0741,0.169511622020438));
#803=CARTESIAN_POINT('',(0.06,-0.0441,0.126701183893443));
#804=CARTESIAN_POINT('',(0.06,-0.0441,0.169511622020438));
#805=CARTESIAN_POINT('Origin',(0.06,-0.0291,0.126701183893443));
#806=CARTESIAN_POINT('',(0.06,0.0630085994748597,0.101287098961308));
#807=CARTESIAN_POINT('Origin',(0.06,0.0591263137983219,0.115775986355644));
#808=CARTESIAN_POINT('',(0.06,0.0630085994748597,0.101287098961308));
#809=CARTESIAN_POINT('Origin',(0.,0.,0.));
#810=CARTESIAN_POINT('',(0.,0.232234121539853,0.146630940937359));
#811=CARTESIAN_POINT('Origin',(0.,0.224469550186777,0.175608715726031));
#812=CARTESIAN_POINT('',(0.,0.0630085994748597,0.101287098961308));
#813=CARTESIAN_POINT('',(0.,0.0630085994748597,0.101287098961308));
#814=CARTESIAN_POINT('Origin',(0.,0.0591263137983219,0.115775986355644));
#815=CARTESIAN_POINT('',(0.,-0.0441,0.126701183893443));
#816=CARTESIAN_POINT('Origin',(0.,-0.0291,0.126701183893443));
#817=CARTESIAN_POINT('',(0.,-0.0441,0.169511622020438));
#818=CARTESIAN_POINT('',(0.,-0.0441,0.169511622020438));
#819=CARTESIAN_POINT('',(0.,-0.0861162162162162,0.196999993158888));
#820=CARTESIAN_POINT('Origin',(0.,-0.0741,0.169511622020438));
#821=CARTESIAN_POINT('',(0.,-0.195901613268816,0.0885864431991444));
#822=CARTESIAN_POINT('Origin',(0.,-1.0842021724855E-16,8.67361737988404E-17));
#823=CARTESIAN_POINT('',(0.,-0.176331075793685,0.0472477693594289));
#824=CARTESIAN_POINT('Origin',(0.,-0.168566504440609,0.076225544148101));
#825=CARTESIAN_POINT('',(0.,-0.137028758388817,0.036716745150123));
#826=CARTESIAN_POINT('',(0.,-0.137028758388817,0.036716745150123));
#827=CARTESIAN_POINT('Origin',(0.,-0.144793329741893,0.00773897036145098));
#828=CARTESIAN_POINT('',(0.,-0.137028758388817,-0.0367167451501231));
#829=CARTESIAN_POINT('Origin',(0.,-0.144793329741893,-0.00773897036145102));
#830=CARTESIAN_POINT('',(0.,-0.176331075793685,-0.047247769359429));
#831=CARTESIAN_POINT('',(0.,-0.176331075793685,-0.0472477693594289));
#832=CARTESIAN_POINT('',(0.,-0.195901613268816,-0.0885864431991445));
#833=CARTESIAN_POINT('Origin',(0.,-0.168566504440609,-0.076225544148101));
#834=CARTESIAN_POINT('',(0.,-0.0861162162162162,-0.196999993158888));
#835=CARTESIAN_POINT('Origin',(0.,3.25260651745651E-16,3.68628738645072E-16));
#836=CARTESIAN_POINT('',(0.,-0.0441,-0.169511622020438));
#837=CARTESIAN_POINT('Origin',(0.,-0.0741,-0.169511622020438));
#838=CARTESIAN_POINT('',(0.,-0.0441,-0.126701183893443));
#839=CARTESIAN_POINT('',(0.,-0.0441,-0.126701183893443));
#840=CARTESIAN_POINT('Origin',(0.,-0.0291,-0.126701183893443));
#841=CARTESIAN_POINT('',(0.,0.0630085994748598,-0.101287098961308));
#842=CARTESIAN_POINT('Origin',(0.,0.059126313798322,-0.115775986355644));
#843=CARTESIAN_POINT('',(0.,0.232234121539853,-0.146630940937358));
#844=CARTESIAN_POINT('',(0.,0.232234121539853,-0.146630940937358));
#845=CARTESIAN_POINT('Origin',(0.,0.224469550186777,-0.17560871572603));
#846=CARTESIAN_POINT('Origin',(0.06,0.224469550186777,-0.17560871572603));
#847=CARTESIAN_POINT('',(0.06,0.232234121539853,-0.146630940937358));
#848=CARTESIAN_POINT('Origin',(0.06,0.232234121539853,-0.146630940937358));
#849=CARTESIAN_POINT('',(0.06,0.0630085994748598,-0.101287098961308));
#850=CARTESIAN_POINT('Origin',(0.06,0.059126313798322,-0.115775986355644));
#851=CARTESIAN_POINT('Origin',(0.06,-0.0291,-0.126701183893443));
#852=CARTESIAN_POINT('',(0.06,-0.0441,-0.126701183893443));
#853=CARTESIAN_POINT('Origin',(0.06,-0.0441,-0.126701183893443));
#854=CARTESIAN_POINT('',(0.06,-0.0441,-0.169511622020438));
#855=CARTESIAN_POINT('Origin',(0.06,-0.0741,-0.169511622020438));
#856=CARTESIAN_POINT('',(0.06,-0.0861162162162162,-0.196999993158888));
#857=CARTESIAN_POINT('Origin',(0.06,3.25260651745651E-16,3.68628738645072E-16));
#858=CARTESIAN_POINT('',(0.06,-0.195901613268816,-0.0885864431991445));
#859=CARTESIAN_POINT('Origin',(0.06,-0.168566504440609,-0.076225544148101));
#860=CARTESIAN_POINT('',(0.06,-0.176331075793685,-0.047247769359429));
#861=CARTESIAN_POINT('Origin',(0.06,-0.176331075793685,-0.0472477693594289));
#862=CARTESIAN_POINT('',(0.06,-0.137028758388817,-0.0367167451501231));
#863=CARTESIAN_POINT('Origin',(0.06,-0.144793329741893,-0.00773897036145102));
#864=CARTESIAN_POINT('Origin',(0.06,-0.144793329741893,0.00773897036145098));
#865=CARTESIAN_POINT('',(0.06,-0.137028758388817,0.036716745150123));
#866=CARTESIAN_POINT('Origin',(0.06,-0.137028758388817,0.036716745150123));
#867=CARTESIAN_POINT('',(0.06,-0.176331075793685,0.0472477693594289));
#868=CARTESIAN_POINT('Origin',(0.06,-0.168566504440609,0.076225544148101));
#869=CARTESIAN_POINT('',(0.06,-0.195901613268816,0.0885864431991444));
#870=CARTESIAN_POINT('Origin',(0.06,-1.0842021724855E-16,8.67361737988404E-17));
#871=CARTESIAN_POINT('',(0.06,-0.0861162162162162,0.196999993158888));
#872=CARTESIAN_POINT('Origin',(0.06,-0.0741,0.169511622020438));
#873=CARTESIAN_POINT('',(0.06,-0.0441,0.169511622020438));
#874=CARTESIAN_POINT('Origin',(0.06,-0.0441,0.169511622020438));
#875=CARTESIAN_POINT('',(0.06,-0.0441,0.126701183893443));
#876=CARTESIAN_POINT('Origin',(0.06,-0.0291,0.126701183893443));
#877=CARTESIAN_POINT('Origin',(0.06,0.224469550186777,0.175608715726031));
#878=CARTESIAN_POINT('',(0.06,0.232234121539853,0.146630940937359));
#879=CARTESIAN_POINT('Origin',(0.06,0.0630085994748597,0.101287098961308));
#880=CARTESIAN_POINT('',(0.06,0.0630085994748597,0.101287098961308));
#881=CARTESIAN_POINT('Origin',(0.06,0.0591263137983219,0.115775986355644));
#882=UNCERTAINTY_MEASURE_WITH_UNIT(LENGTH_MEASURE(0.001),#886,
'DISTANCE_ACCURACY_VALUE',
'Maximum model space distance between geometric entities at asserted c
onnectivities');
#883=UNCERTAINTY_MEASURE_WITH_UNIT(LENGTH_MEASURE(0.001),#886,
'DISTANCE_ACCURACY_VALUE',
'Maximum model space distance between geometric entities at asserted c
onnectivities');
#884=(
GEOMETRIC_REPRESENTATION_CONTEXT(3)
GLOBAL_UNCERTAINTY_ASSIGNED_CONTEXT((#882))
GLOBAL_UNIT_ASSIGNED_CONTEXT((#886,#887,#888))
REPRESENTATION_CONTEXT('','3D')
);
#885=(
GEOMETRIC_REPRESENTATION_CONTEXT(3)
GLOBAL_UNCERTAINTY_ASSIGNED_CONTEXT((#883))
GLOBAL_UNIT_ASSIGNED_CONTEXT((#886,#887,#888))
REPRESENTATION_CONTEXT('','3D')
);
#886=(
LENGTH_UNIT()
NAMED_UNIT(*)
SI_UNIT(.CENTI.,.METRE.)
);
#887=(
NAMED_UNIT(*)
PLANE_ANGLE_UNIT()
SI_UNIT($,.RADIAN.)
);
#888=(
NAMED_UNIT(*)
SI_UNIT($,.STERADIAN.)
SOLID_ANGLE_UNIT()
);
#889=SHAPE_DEFINITION_REPRESENTATION(#890,#891);
#890=PRODUCT_DEFINITION_SHAPE('',$,#893);
#891=SHAPE_REPRESENTATION('',(#510),#884);
#892=PRODUCT_DEFINITION_CONTEXT('part definition',#897,'design');
#893=PRODUCT_DEFINITION('3mm E Clip','3mm E Clip',#894,#892);
#894=PRODUCT_DEFINITION_FORMATION('',$,#899);
#895=PRODUCT_RELATED_PRODUCT_CATEGORY('3mm E Clip','3mm E Clip',(#899));
#896=APPLICATION_PROTOCOL_DEFINITION('international standard',
'automotive_design',2009,#897);
#897=APPLICATION_CONTEXT(
'Core Data for Automotive Mechanical Design Process');
#898=PRODUCT_CONTEXT('part definition',#897,'mechanical');
#899=PRODUCT('3mm E Clip','3mm E Clip',$,(#898));
#900=PRESENTATION_STYLE_ASSIGNMENT((#902));
#901=PRESENTATION_STYLE_ASSIGNMENT((#903));
#902=SURFACE_STYLE_USAGE(.BOTH.,#908);
#903=SURFACE_STYLE_USAGE(.BOTH.,#909);
#904=SURFACE_STYLE_RENDERING_WITH_PROPERTIES($,#916,(#906));
#905=SURFACE_STYLE_RENDERING_WITH_PROPERTIES($,#917,(#907));
#906=SURFACE_STYLE_TRANSPARENT(0.);
#907=SURFACE_STYLE_TRANSPARENT(0.);
#908=SURFACE_SIDE_STYLE('',(#910,#904));
#909=SURFACE_SIDE_STYLE('',(#911,#905));
#910=SURFACE_STYLE_FILL_AREA(#912);
#911=SURFACE_STYLE_FILL_AREA(#913);
#912=FILL_AREA_STYLE('',(#914));
#913=FILL_AREA_STYLE('',(#915));
#914=FILL_AREA_STYLE_COLOUR('',#916);
#915=FILL_AREA_STYLE_COLOUR('',#917);
#916=COLOUR_RGB('',0.749019607843137,0.749019607843137,0.749019607843137);
#917=COLOUR_RGB('',0.690196078431373,0.690196078431373,0.690196078431373);
ENDSEC;
END-ISO-10303-21;
