ISO-10303-21;
HEADER;
/* Generated by software containing ST-Developer
 * from STEP Tools, Inc. (www.steptools.com) 
 */

FILE_DESCRIPTION(
/* description */ (''),
/* implementation_level */ '2;1');

FILE_NAME(
/* name */ 
'S:\\Future Scope 1\\WIP\\Client Category\\Tom\\02 Progressive Work\\H
ardware\\4mm E Clip.stp',
/* time_stamp */ '2025-11-05T12:14:40+06:00',
/* author */ (''),
/* organization */ (''),
/* preprocessor_version */ 'ST-DEVELOPER v18.1',
/* originating_system */ 'Autodesk Inventor 2021',
/* authorisation */ '');

FILE_SCHEMA (('AUTOMOTIVE_DESIGN { 1 0 10303 214 3 1 1 }'));
ENDSEC;

DATA;
#10=MECHANICAL_DESIGN_GEOMETRIC_PRESENTATION_REPRESENTATION('',(#464,#465,
#466,#467,#468,#469,#470,#471,#472,#473,#474,#475,#476,#477,#478,#479,#480,
#481,#482,#483,#484,#485,#486,#487,#488,#489,#490),#911);
#11=SHAPE_REPRESENTATION_RELATIONSHIP('SRR','None',#917,#12);
#12=ADVANCED_BREP_SHAPE_REPRESENTATION('',(#13),#910);
#13=MANIFOLD_SOLID_BREP('Solid1',#517);
#14=PLANE('',#549);
#15=PLANE('',#564);
#16=PLANE('',#580);
#17=PLANE('',#583);
#18=PLANE('',#587);
#19=PLANE('',#590);
#20=PLANE('',#594);
#21=PLANE('',#597);
#22=FACE_OUTER_BOUND('',#48,.T.);
#23=FACE_OUTER_BOUND('',#49,.T.);
#24=FACE_OUTER_BOUND('',#50,.T.);
#25=FACE_OUTER_BOUND('',#51,.T.);
#26=FACE_OUTER_BOUND('',#52,.T.);
#27=FACE_OUTER_BOUND('',#53,.T.);
#28=FACE_OUTER_BOUND('',#54,.T.);
#29=FACE_OUTER_BOUND('',#55,.T.);
#30=FACE_OUTER_BOUND('',#56,.T.);
#31=FACE_OUTER_BOUND('',#57,.T.);
#32=FACE_OUTER_BOUND('',#58,.T.);
#33=FACE_OUTER_BOUND('',#59,.T.);
#34=FACE_OUTER_BOUND('',#60,.T.);
#35=FACE_OUTER_BOUND('',#61,.T.);
#36=FACE_OUTER_BOUND('',#62,.T.);
#37=FACE_OUTER_BOUND('',#63,.T.);
#38=FACE_OUTER_BOUND('',#64,.T.);
#39=FACE_OUTER_BOUND('',#65,.T.);
#40=FACE_OUTER_BOUND('',#66,.T.);
#41=FACE_OUTER_BOUND('',#67,.T.);
#42=FACE_OUTER_BOUND('',#68,.T.);
#43=FACE_OUTER_BOUND('',#69,.T.);
#44=FACE_OUTER_BOUND('',#70,.T.);
#45=FACE_OUTER_BOUND('',#71,.T.);
#46=FACE_OUTER_BOUND('',#72,.T.);
#47=FACE_OUTER_BOUND('',#73,.T.);
#48=EDGE_LOOP('',(#302,#303,#304,#305));
#49=EDGE_LOOP('',(#306,#307,#308,#309));
#50=EDGE_LOOP('',(#310,#311,#312,#313));
#51=EDGE_LOOP('',(#314,#315,#316,#317));
#52=EDGE_LOOP('',(#318,#319,#320,#321,#322,#323,#324,#325,#326,#327,#328,
#329,#330,#331,#332,#333,#334,#335,#336,#337,#338,#339,#340,#341));
#53=EDGE_LOOP('',(#342,#343,#344,#345,#346,#347,#348,#349,#350,#351,#352,
#353,#354,#355,#356,#357,#358,#359,#360,#361,#362,#363,#364,#365));
#54=EDGE_LOOP('',(#366,#367,#368,#369));
#55=EDGE_LOOP('',(#370,#371,#372,#373));
#56=EDGE_LOOP('',(#374,#375,#376,#377));
#57=EDGE_LOOP('',(#378,#379,#380,#381));
#58=EDGE_LOOP('',(#382,#383,#384,#385));
#59=EDGE_LOOP('',(#386,#387,#388,#389));
#60=EDGE_LOOP('',(#390,#391,#392,#393));
#61=EDGE_LOOP('',(#394,#395,#396,#397));
#62=EDGE_LOOP('',(#398,#399,#400,#401));
#63=EDGE_LOOP('',(#402,#403,#404,#405));
#64=EDGE_LOOP('',(#406,#407,#408,#409));
#65=EDGE_LOOP('',(#410,#411,#412,#413));
#66=EDGE_LOOP('',(#414,#415,#416,#417));
#67=EDGE_LOOP('',(#418,#419,#420,#421));
#68=EDGE_LOOP('',(#422,#423,#424,#425));
#69=EDGE_LOOP('',(#426,#427,#428,#429));
#70=EDGE_LOOP('',(#430,#431,#432,#433));
#71=EDGE_LOOP('',(#434,#435,#436,#437));
#72=EDGE_LOOP('',(#438,#439,#440,#441));
#73=EDGE_LOOP('',(#442,#443,#444,#445));
#74=CIRCLE('',#538,0.2);
#75=CIRCLE('',#539,0.2);
#76=CIRCLE('',#541,0.2);
#77=CIRCLE('',#542,0.2);
#78=CIRCLE('',#544,0.2);
#79=CIRCLE('',#545,0.2);
#80=CIRCLE('',#547,0.465);
#81=CIRCLE('',#548,0.465);
#82=CIRCLE('',#550,0.035);
#83=CIRCLE('',#551,0.035);
#84=CIRCLE('',#552,0.0175);
#85=CIRCLE('',#553,0.0175);
#86=CIRCLE('',#554,0.035);
#87=CIRCLE('',#555,0.332499999999999);
#88=CIRCLE('',#556,0.0350000000000001);
#89=CIRCLE('',#557,0.0349999999999999);
#90=CIRCLE('',#558,0.0349999999999999);
#91=CIRCLE('',#559,0.0350000000000001);
#92=CIRCLE('',#560,0.3325);
#93=CIRCLE('',#561,0.035);
#94=CIRCLE('',#562,0.0175);
#95=CIRCLE('',#563,0.0174999999999999);
#96=CIRCLE('',#565,0.035);
#97=CIRCLE('',#566,0.0174999999999999);
#98=CIRCLE('',#567,0.0175);
#99=CIRCLE('',#568,0.035);
#100=CIRCLE('',#569,0.3325);
#101=CIRCLE('',#570,0.0350000000000001);
#102=CIRCLE('',#571,0.0349999999999999);
#103=CIRCLE('',#572,0.0349999999999999);
#104=CIRCLE('',#573,0.0350000000000001);
#105=CIRCLE('',#574,0.332499999999999);
#106=CIRCLE('',#575,0.035);
#107=CIRCLE('',#576,0.0175);
#108=CIRCLE('',#577,0.0175);
#109=CIRCLE('',#578,0.035);
#110=LINE('',#765,#146);
#111=LINE('',#769,#147);
#112=LINE('',#774,#148);
#113=LINE('',#778,#149);
#114=LINE('',#783,#150);
#115=LINE('',#787,#151);
#116=LINE('',#794,#152);
#117=LINE('',#797,#153);
#118=LINE('',#804,#154);
#119=LINE('',#809,#155);
#120=LINE('',#817,#156);
#121=LINE('',#822,#157);
#122=LINE('',#830,#158);
#123=LINE('',#834,#159);
#124=LINE('',#839,#160);
#125=LINE('',#844,#161);
#126=LINE('',#852,#162);
#127=LINE('',#857,#163);
#128=LINE('',#865,#164);
#129=LINE('',#870,#165);
#130=LINE('',#873,#166);
#131=LINE('',#875,#167);
#132=LINE('',#878,#168);
#133=LINE('',#880,#169);
#134=LINE('',#882,#170);
#135=LINE('',#884,#171);
#136=LINE('',#886,#172);
#137=LINE('',#888,#173);
#138=LINE('',#891,#174);
#139=LINE('',#893,#175);
#140=LINE('',#895,#176);
#141=LINE('',#897,#177);
#142=LINE('',#899,#178);
#143=LINE('',#901,#179);
#144=LINE('',#904,#180);
#145=LINE('',#906,#181);
#146=VECTOR('',#603,100.);
#147=VECTOR('',#606,100.);
#148=VECTOR('',#611,100.);
#149=VECTOR('',#614,100.);
#150=VECTOR('',#619,100.);
#151=VECTOR('',#622,100.);
#152=VECTOR('',#629,100.);
#153=VECTOR('',#632,100.);
#154=VECTOR('',#639,100.);
#155=VECTOR('',#644,100.);
#156=VECTOR('',#651,100.);
#157=VECTOR('',#656,100.);
#158=VECTOR('',#663,100.);
#159=VECTOR('',#668,100.);
#160=VECTOR('',#673,100.);
#161=VECTOR('',#678,100.);
#162=VECTOR('',#685,100.);
#163=VECTOR('',#690,100.);
#164=VECTOR('',#697,100.);
#165=VECTOR('',#702,100.);
#166=VECTOR('',#707,100.);
#167=VECTOR('',#710,100.);
#168=VECTOR('',#715,100.);
#169=VECTOR('',#718,100.);
#170=VECTOR('',#721,100.);
#171=VECTOR('',#724,100.);
#172=VECTOR('',#727,100.);
#173=VECTOR('',#730,100.);
#174=VECTOR('',#735,100.);
#175=VECTOR('',#738,100.);
#176=VECTOR('',#741,100.);
#177=VECTOR('',#744,100.);
#178=VECTOR('',#747,100.);
#179=VECTOR('',#750,100.);
#180=VECTOR('',#755,100.);
#181=VECTOR('',#758,100.);
#182=VERTEX_POINT('',#763);
#183=VERTEX_POINT('',#764);
#184=VERTEX_POINT('',#766);
#185=VERTEX_POINT('',#768);
#186=VERTEX_POINT('',#772);
#187=VERTEX_POINT('',#773);
#188=VERTEX_POINT('',#775);
#189=VERTEX_POINT('',#777);
#190=VERTEX_POINT('',#781);
#191=VERTEX_POINT('',#782);
#192=VERTEX_POINT('',#784);
#193=VERTEX_POINT('',#786);
#194=VERTEX_POINT('',#790);
#195=VERTEX_POINT('',#791);
#196=VERTEX_POINT('',#793);
#197=VERTEX_POINT('',#795);
#198=VERTEX_POINT('',#799);
#199=VERTEX_POINT('',#801);
#200=VERTEX_POINT('',#803);
#201=VERTEX_POINT('',#806);
#202=VERTEX_POINT('',#808);
#203=VERTEX_POINT('',#810);
#204=VERTEX_POINT('',#812);
#205=VERTEX_POINT('',#814);
#206=VERTEX_POINT('',#816);
#207=VERTEX_POINT('',#819);
#208=VERTEX_POINT('',#821);
#209=VERTEX_POINT('',#823);
#210=VERTEX_POINT('',#825);
#211=VERTEX_POINT('',#827);
#212=VERTEX_POINT('',#829);
#213=VERTEX_POINT('',#832);
#214=VERTEX_POINT('',#836);
#215=VERTEX_POINT('',#838);
#216=VERTEX_POINT('',#841);
#217=VERTEX_POINT('',#843);
#218=VERTEX_POINT('',#845);
#219=VERTEX_POINT('',#847);
#220=VERTEX_POINT('',#849);
#221=VERTEX_POINT('',#851);
#222=VERTEX_POINT('',#854);
#223=VERTEX_POINT('',#856);
#224=VERTEX_POINT('',#858);
#225=VERTEX_POINT('',#860);
#226=VERTEX_POINT('',#862);
#227=VERTEX_POINT('',#864);
#228=VERTEX_POINT('',#867);
#229=VERTEX_POINT('',#869);
#230=EDGE_CURVE('',#182,#183,#110,.T.);
#231=EDGE_CURVE('',#182,#184,#74,.T.);
#232=EDGE_CURVE('',#184,#185,#111,.T.);
#233=EDGE_CURVE('',#183,#185,#75,.T.);
#234=EDGE_CURVE('',#186,#187,#112,.T.);
#235=EDGE_CURVE('',#186,#188,#76,.T.);
#236=EDGE_CURVE('',#188,#189,#113,.T.);
#237=EDGE_CURVE('',#187,#189,#77,.T.);
#238=EDGE_CURVE('',#190,#191,#114,.T.);
#239=EDGE_CURVE('',#190,#192,#78,.T.);
#240=EDGE_CURVE('',#192,#193,#115,.T.);
#241=EDGE_CURVE('',#191,#193,#79,.T.);
#242=EDGE_CURVE('',#194,#195,#80,.T.);
#243=EDGE_CURVE('',#194,#196,#116,.T.);
#244=EDGE_CURVE('',#196,#197,#81,.T.);
#245=EDGE_CURVE('',#195,#197,#117,.T.);
#246=EDGE_CURVE('',#198,#194,#82,.T.);
#247=EDGE_CURVE('',#195,#199,#83,.T.);
#248=EDGE_CURVE('',#199,#200,#118,.T.);
#249=EDGE_CURVE('',#200,#192,#84,.T.);
#250=EDGE_CURVE('',#190,#201,#85,.T.);
#251=EDGE_CURVE('',#201,#202,#119,.T.);
#252=EDGE_CURVE('',#203,#202,#86,.T.);
#253=EDGE_CURVE('',#204,#203,#87,.T.);
#254=EDGE_CURVE('',#205,#204,#88,.T.);
#255=EDGE_CURVE('',#205,#206,#120,.T.);
#256=EDGE_CURVE('',#206,#188,#89,.T.);
#257=EDGE_CURVE('',#186,#207,#90,.T.);
#258=EDGE_CURVE('',#207,#208,#121,.T.);
#259=EDGE_CURVE('',#209,#208,#91,.T.);
#260=EDGE_CURVE('',#210,#209,#92,.T.);
#261=EDGE_CURVE('',#211,#210,#93,.T.);
#262=EDGE_CURVE('',#211,#212,#122,.T.);
#263=EDGE_CURVE('',#212,#184,#94,.T.);
#264=EDGE_CURVE('',#182,#213,#95,.T.);
#265=EDGE_CURVE('',#213,#198,#123,.T.);
#266=EDGE_CURVE('',#214,#196,#96,.T.);
#267=EDGE_CURVE('',#215,#214,#124,.T.);
#268=EDGE_CURVE('',#183,#215,#97,.T.);
#269=EDGE_CURVE('',#216,#185,#98,.T.);
#270=EDGE_CURVE('',#217,#216,#125,.T.);
#271=EDGE_CURVE('',#217,#218,#99,.T.);
#272=EDGE_CURVE('',#218,#219,#100,.T.);
#273=EDGE_CURVE('',#219,#220,#101,.T.);
#274=EDGE_CURVE('',#221,#220,#126,.T.);
#275=EDGE_CURVE('',#187,#221,#102,.T.);
#276=EDGE_CURVE('',#222,#189,#103,.T.);
#277=EDGE_CURVE('',#223,#222,#127,.T.);
#278=EDGE_CURVE('',#223,#224,#104,.T.);
#279=EDGE_CURVE('',#224,#225,#105,.T.);
#280=EDGE_CURVE('',#225,#226,#106,.T.);
#281=EDGE_CURVE('',#227,#226,#128,.T.);
#282=EDGE_CURVE('',#191,#227,#107,.T.);
#283=EDGE_CURVE('',#228,#193,#108,.T.);
#284=EDGE_CURVE('',#229,#228,#129,.T.);
#285=EDGE_CURVE('',#197,#229,#109,.T.);
#286=EDGE_CURVE('',#199,#229,#130,.T.);
#287=EDGE_CURVE('',#200,#228,#131,.T.);
#288=EDGE_CURVE('',#201,#227,#132,.T.);
#289=EDGE_CURVE('',#202,#226,#133,.T.);
#290=EDGE_CURVE('',#203,#225,#134,.T.);
#291=EDGE_CURVE('',#204,#224,#135,.T.);
#292=EDGE_CURVE('',#205,#223,#136,.T.);
#293=EDGE_CURVE('',#206,#222,#137,.T.);
#294=EDGE_CURVE('',#207,#221,#138,.T.);
#295=EDGE_CURVE('',#208,#220,#139,.T.);
#296=EDGE_CURVE('',#209,#219,#140,.T.);
#297=EDGE_CURVE('',#210,#218,#141,.T.);
#298=EDGE_CURVE('',#211,#217,#142,.T.);
#299=EDGE_CURVE('',#212,#216,#143,.T.);
#300=EDGE_CURVE('',#198,#214,#144,.T.);
#301=EDGE_CURVE('',#213,#215,#145,.T.);
#302=ORIENTED_EDGE('',*,*,#230,.F.);
#303=ORIENTED_EDGE('',*,*,#231,.T.);
#304=ORIENTED_EDGE('',*,*,#232,.T.);
#305=ORIENTED_EDGE('',*,*,#233,.F.);
#306=ORIENTED_EDGE('',*,*,#234,.F.);
#307=ORIENTED_EDGE('',*,*,#235,.T.);
#308=ORIENTED_EDGE('',*,*,#236,.T.);
#309=ORIENTED_EDGE('',*,*,#237,.F.);
#310=ORIENTED_EDGE('',*,*,#238,.F.);
#311=ORIENTED_EDGE('',*,*,#239,.T.);
#312=ORIENTED_EDGE('',*,*,#240,.T.);
#313=ORIENTED_EDGE('',*,*,#241,.F.);
#314=ORIENTED_EDGE('',*,*,#242,.F.);
#315=ORIENTED_EDGE('',*,*,#243,.T.);
#316=ORIENTED_EDGE('',*,*,#244,.T.);
#317=ORIENTED_EDGE('',*,*,#245,.F.);
#318=ORIENTED_EDGE('',*,*,#246,.T.);
#319=ORIENTED_EDGE('',*,*,#242,.T.);
#320=ORIENTED_EDGE('',*,*,#247,.T.);
#321=ORIENTED_EDGE('',*,*,#248,.T.);
#322=ORIENTED_EDGE('',*,*,#249,.T.);
#323=ORIENTED_EDGE('',*,*,#239,.F.);
#324=ORIENTED_EDGE('',*,*,#250,.T.);
#325=ORIENTED_EDGE('',*,*,#251,.T.);
#326=ORIENTED_EDGE('',*,*,#252,.F.);
#327=ORIENTED_EDGE('',*,*,#253,.F.);
#328=ORIENTED_EDGE('',*,*,#254,.F.);
#329=ORIENTED_EDGE('',*,*,#255,.T.);
#330=ORIENTED_EDGE('',*,*,#256,.T.);
#331=ORIENTED_EDGE('',*,*,#235,.F.);
#332=ORIENTED_EDGE('',*,*,#257,.T.);
#333=ORIENTED_EDGE('',*,*,#258,.T.);
#334=ORIENTED_EDGE('',*,*,#259,.F.);
#335=ORIENTED_EDGE('',*,*,#260,.F.);
#336=ORIENTED_EDGE('',*,*,#261,.F.);
#337=ORIENTED_EDGE('',*,*,#262,.T.);
#338=ORIENTED_EDGE('',*,*,#263,.T.);
#339=ORIENTED_EDGE('',*,*,#231,.F.);
#340=ORIENTED_EDGE('',*,*,#264,.T.);
#341=ORIENTED_EDGE('',*,*,#265,.T.);
#342=ORIENTED_EDGE('',*,*,#244,.F.);
#343=ORIENTED_EDGE('',*,*,#266,.F.);
#344=ORIENTED_EDGE('',*,*,#267,.F.);
#345=ORIENTED_EDGE('',*,*,#268,.F.);
#346=ORIENTED_EDGE('',*,*,#233,.T.);
#347=ORIENTED_EDGE('',*,*,#269,.F.);
#348=ORIENTED_EDGE('',*,*,#270,.F.);
#349=ORIENTED_EDGE('',*,*,#271,.T.);
#350=ORIENTED_EDGE('',*,*,#272,.T.);
#351=ORIENTED_EDGE('',*,*,#273,.T.);
#352=ORIENTED_EDGE('',*,*,#274,.F.);
#353=ORIENTED_EDGE('',*,*,#275,.F.);
#354=ORIENTED_EDGE('',*,*,#237,.T.);
#355=ORIENTED_EDGE('',*,*,#276,.F.);
#356=ORIENTED_EDGE('',*,*,#277,.F.);
#357=ORIENTED_EDGE('',*,*,#278,.T.);
#358=ORIENTED_EDGE('',*,*,#279,.T.);
#359=ORIENTED_EDGE('',*,*,#280,.T.);
#360=ORIENTED_EDGE('',*,*,#281,.F.);
#361=ORIENTED_EDGE('',*,*,#282,.F.);
#362=ORIENTED_EDGE('',*,*,#241,.T.);
#363=ORIENTED_EDGE('',*,*,#283,.F.);
#364=ORIENTED_EDGE('',*,*,#284,.F.);
#365=ORIENTED_EDGE('',*,*,#285,.F.);
#366=ORIENTED_EDGE('',*,*,#285,.T.);
#367=ORIENTED_EDGE('',*,*,#286,.F.);
#368=ORIENTED_EDGE('',*,*,#247,.F.);
#369=ORIENTED_EDGE('',*,*,#245,.T.);
#370=ORIENTED_EDGE('',*,*,#284,.T.);
#371=ORIENTED_EDGE('',*,*,#287,.F.);
#372=ORIENTED_EDGE('',*,*,#248,.F.);
#373=ORIENTED_EDGE('',*,*,#286,.T.);
#374=ORIENTED_EDGE('',*,*,#283,.T.);
#375=ORIENTED_EDGE('',*,*,#240,.F.);
#376=ORIENTED_EDGE('',*,*,#249,.F.);
#377=ORIENTED_EDGE('',*,*,#287,.T.);
#378=ORIENTED_EDGE('',*,*,#282,.T.);
#379=ORIENTED_EDGE('',*,*,#288,.F.);
#380=ORIENTED_EDGE('',*,*,#250,.F.);
#381=ORIENTED_EDGE('',*,*,#238,.T.);
#382=ORIENTED_EDGE('',*,*,#281,.T.);
#383=ORIENTED_EDGE('',*,*,#289,.F.);
#384=ORIENTED_EDGE('',*,*,#251,.F.);
#385=ORIENTED_EDGE('',*,*,#288,.T.);
#386=ORIENTED_EDGE('',*,*,#280,.F.);
#387=ORIENTED_EDGE('',*,*,#290,.F.);
#388=ORIENTED_EDGE('',*,*,#252,.T.);
#389=ORIENTED_EDGE('',*,*,#289,.T.);
#390=ORIENTED_EDGE('',*,*,#279,.F.);
#391=ORIENTED_EDGE('',*,*,#291,.F.);
#392=ORIENTED_EDGE('',*,*,#253,.T.);
#393=ORIENTED_EDGE('',*,*,#290,.T.);
#394=ORIENTED_EDGE('',*,*,#278,.F.);
#395=ORIENTED_EDGE('',*,*,#292,.F.);
#396=ORIENTED_EDGE('',*,*,#254,.T.);
#397=ORIENTED_EDGE('',*,*,#291,.T.);
#398=ORIENTED_EDGE('',*,*,#277,.T.);
#399=ORIENTED_EDGE('',*,*,#293,.F.);
#400=ORIENTED_EDGE('',*,*,#255,.F.);
#401=ORIENTED_EDGE('',*,*,#292,.T.);
#402=ORIENTED_EDGE('',*,*,#276,.T.);
#403=ORIENTED_EDGE('',*,*,#236,.F.);
#404=ORIENTED_EDGE('',*,*,#256,.F.);
#405=ORIENTED_EDGE('',*,*,#293,.T.);
#406=ORIENTED_EDGE('',*,*,#275,.T.);
#407=ORIENTED_EDGE('',*,*,#294,.F.);
#408=ORIENTED_EDGE('',*,*,#257,.F.);
#409=ORIENTED_EDGE('',*,*,#234,.T.);
#410=ORIENTED_EDGE('',*,*,#274,.T.);
#411=ORIENTED_EDGE('',*,*,#295,.F.);
#412=ORIENTED_EDGE('',*,*,#258,.F.);
#413=ORIENTED_EDGE('',*,*,#294,.T.);
#414=ORIENTED_EDGE('',*,*,#273,.F.);
#415=ORIENTED_EDGE('',*,*,#296,.F.);
#416=ORIENTED_EDGE('',*,*,#259,.T.);
#417=ORIENTED_EDGE('',*,*,#295,.T.);
#418=ORIENTED_EDGE('',*,*,#272,.F.);
#419=ORIENTED_EDGE('',*,*,#297,.F.);
#420=ORIENTED_EDGE('',*,*,#260,.T.);
#421=ORIENTED_EDGE('',*,*,#296,.T.);
#422=ORIENTED_EDGE('',*,*,#271,.F.);
#423=ORIENTED_EDGE('',*,*,#298,.F.);
#424=ORIENTED_EDGE('',*,*,#261,.T.);
#425=ORIENTED_EDGE('',*,*,#297,.T.);
#426=ORIENTED_EDGE('',*,*,#270,.T.);
#427=ORIENTED_EDGE('',*,*,#299,.F.);
#428=ORIENTED_EDGE('',*,*,#262,.F.);
#429=ORIENTED_EDGE('',*,*,#298,.T.);
#430=ORIENTED_EDGE('',*,*,#269,.T.);
#431=ORIENTED_EDGE('',*,*,#232,.F.);
#432=ORIENTED_EDGE('',*,*,#263,.F.);
#433=ORIENTED_EDGE('',*,*,#299,.T.);
#434=ORIENTED_EDGE('',*,*,#266,.T.);
#435=ORIENTED_EDGE('',*,*,#243,.F.);
#436=ORIENTED_EDGE('',*,*,#246,.F.);
#437=ORIENTED_EDGE('',*,*,#300,.T.);
#438=ORIENTED_EDGE('',*,*,#267,.T.);
#439=ORIENTED_EDGE('',*,*,#300,.F.);
#440=ORIENTED_EDGE('',*,*,#265,.F.);
#441=ORIENTED_EDGE('',*,*,#301,.T.);
#442=ORIENTED_EDGE('',*,*,#268,.T.);
#443=ORIENTED_EDGE('',*,*,#301,.F.);
#444=ORIENTED_EDGE('',*,*,#264,.F.);
#445=ORIENTED_EDGE('',*,*,#230,.T.);
#446=CYLINDRICAL_SURFACE('',#537,0.2);
#447=CYLINDRICAL_SURFACE('',#540,0.2);
#448=CYLINDRICAL_SURFACE('',#543,0.2);
#449=CYLINDRICAL_SURFACE('',#546,0.465);
#450=CYLINDRICAL_SURFACE('',#579,0.035);
#451=CYLINDRICAL_SURFACE('',#581,0.0175);
#452=CYLINDRICAL_SURFACE('',#582,0.0175);
#453=CYLINDRICAL_SURFACE('',#584,0.035);
#454=CYLINDRICAL_SURFACE('',#585,0.332499999999999);
#455=CYLINDRICAL_SURFACE('',#586,0.0350000000000001);
#456=CYLINDRICAL_SURFACE('',#588,0.0349999999999999);
#457=CYLINDRICAL_SURFACE('',#589,0.0349999999999999);
#458=CYLINDRICAL_SURFACE('',#591,0.0350000000000001);
#459=CYLINDRICAL_SURFACE('',#592,0.3325);
#460=CYLINDRICAL_SURFACE('',#593,0.035);
#461=CYLINDRICAL_SURFACE('',#595,0.0175);
#462=CYLINDRICAL_SURFACE('',#596,0.035);
#463=CYLINDRICAL_SURFACE('',#598,0.0174999999999999);
#464=STYLED_ITEM('',(#926),#491);
#465=STYLED_ITEM('',(#926),#492);
#466=STYLED_ITEM('',(#926),#493);
#467=STYLED_ITEM('',(#926),#494);
#468=STYLED_ITEM('',(#926),#495);
#469=STYLED_ITEM('',(#926),#496);
#470=STYLED_ITEM('',(#926),#497);
#471=STYLED_ITEM('',(#926),#498);
#472=STYLED_ITEM('',(#926),#499);
#473=STYLED_ITEM('',(#926),#500);
#474=STYLED_ITEM('',(#926),#501);
#475=STYLED_ITEM('',(#926),#502);
#476=STYLED_ITEM('',(#926),#503);
#477=STYLED_ITEM('',(#926),#504);
#478=STYLED_ITEM('',(#926),#505);
#479=STYLED_ITEM('',(#926),#506);
#480=STYLED_ITEM('',(#926),#507);
#481=STYLED_ITEM('',(#926),#508);
#482=STYLED_ITEM('',(#926),#509);
#483=STYLED_ITEM('',(#926),#510);
#484=STYLED_ITEM('',(#926),#511);
#485=STYLED_ITEM('',(#926),#512);
#486=STYLED_ITEM('',(#926),#513);
#487=STYLED_ITEM('',(#926),#514);
#488=STYLED_ITEM('',(#926),#515);
#489=STYLED_ITEM('',(#926),#516);
#490=STYLED_ITEM('',(#927),#13);
#491=ADVANCED_FACE('',(#22),#446,.F.);
#492=ADVANCED_FACE('',(#23),#447,.F.);
#493=ADVANCED_FACE('',(#24),#448,.F.);
#494=ADVANCED_FACE('',(#25),#449,.T.);
#495=ADVANCED_FACE('',(#26),#14,.T.);
#496=ADVANCED_FACE('',(#27),#15,.F.);
#497=ADVANCED_FACE('',(#28),#450,.T.);
#498=ADVANCED_FACE('',(#29),#16,.F.);
#499=ADVANCED_FACE('',(#30),#451,.T.);
#500=ADVANCED_FACE('',(#31),#452,.T.);
#501=ADVANCED_FACE('',(#32),#17,.F.);
#502=ADVANCED_FACE('',(#33),#453,.F.);
#503=ADVANCED_FACE('',(#34),#454,.F.);
#504=ADVANCED_FACE('',(#35),#455,.F.);
#505=ADVANCED_FACE('',(#36),#18,.F.);
#506=ADVANCED_FACE('',(#37),#456,.T.);
#507=ADVANCED_FACE('',(#38),#457,.T.);
#508=ADVANCED_FACE('',(#39),#19,.F.);
#509=ADVANCED_FACE('',(#40),#458,.F.);
#510=ADVANCED_FACE('',(#41),#459,.F.);
#511=ADVANCED_FACE('',(#42),#460,.F.);
#512=ADVANCED_FACE('',(#43),#20,.F.);
#513=ADVANCED_FACE('',(#44),#461,.T.);
#514=ADVANCED_FACE('',(#45),#462,.T.);
#515=ADVANCED_FACE('',(#46),#21,.F.);
#516=ADVANCED_FACE('',(#47),#463,.T.);
#517=CLOSED_SHELL('',(#491,#492,#493,#494,#495,#496,#497,#498,#499,#500,
#501,#502,#503,#504,#505,#506,#507,#508,#509,#510,#511,#512,#513,#514,#515,
#516));
#518=DERIVED_UNIT_ELEMENT(#520,1.);
#519=DERIVED_UNIT_ELEMENT(#912,3.);
#520=(
MASS_UNIT()
NAMED_UNIT(*)
SI_UNIT($,.GRAM.)
);
#521=DERIVED_UNIT((#518,#519));
#522=MEASURE_REPRESENTATION_ITEM('density measure',
POSITIVE_RATIO_MEASURE(8.),#521);
#523=PROPERTY_DEFINITION_REPRESENTATION(#528,#525);
#524=PROPERTY_DEFINITION_REPRESENTATION(#529,#526);
#525=REPRESENTATION('material name',(#527),#910);
#526=REPRESENTATION('density',(#522),#910);
#527=DESCRIPTIVE_REPRESENTATION_ITEM('Stainless Steel',
'Stainless Steel');
#528=PROPERTY_DEFINITION('material property','material name',#919);
#529=PROPERTY_DEFINITION('material property','density of part',#919);
#530=DATE_TIME_ROLE('creation_date');
#531=APPLIED_DATE_AND_TIME_ASSIGNMENT(#532,#530,(#919));
#532=DATE_AND_TIME(#533,#534);
#533=CALENDAR_DATE(2025,27,10);
#534=LOCAL_TIME(0,0,0.,#535);
#535=COORDINATED_UNIVERSAL_TIME_OFFSET(0,0,.BEHIND.);
#536=AXIS2_PLACEMENT_3D('placement',#761,#599,#600);
#537=AXIS2_PLACEMENT_3D('',#762,#601,#602);
#538=AXIS2_PLACEMENT_3D('',#767,#604,#605);
#539=AXIS2_PLACEMENT_3D('',#770,#607,#608);
#540=AXIS2_PLACEMENT_3D('',#771,#609,#610);
#541=AXIS2_PLACEMENT_3D('',#776,#612,#613);
#542=AXIS2_PLACEMENT_3D('',#779,#615,#616);
#543=AXIS2_PLACEMENT_3D('',#780,#617,#618);
#544=AXIS2_PLACEMENT_3D('',#785,#620,#621);
#545=AXIS2_PLACEMENT_3D('',#788,#623,#624);
#546=AXIS2_PLACEMENT_3D('',#789,#625,#626);
#547=AXIS2_PLACEMENT_3D('',#792,#627,#628);
#548=AXIS2_PLACEMENT_3D('',#796,#630,#631);
#549=AXIS2_PLACEMENT_3D('',#798,#633,#634);
#550=AXIS2_PLACEMENT_3D('',#800,#635,#636);
#551=AXIS2_PLACEMENT_3D('',#802,#637,#638);
#552=AXIS2_PLACEMENT_3D('',#805,#640,#641);
#553=AXIS2_PLACEMENT_3D('',#807,#642,#643);
#554=AXIS2_PLACEMENT_3D('',#811,#645,#646);
#555=AXIS2_PLACEMENT_3D('',#813,#647,#648);
#556=AXIS2_PLACEMENT_3D('',#815,#649,#650);
#557=AXIS2_PLACEMENT_3D('',#818,#652,#653);
#558=AXIS2_PLACEMENT_3D('',#820,#654,#655);
#559=AXIS2_PLACEMENT_3D('',#824,#657,#658);
#560=AXIS2_PLACEMENT_3D('',#826,#659,#660);
#561=AXIS2_PLACEMENT_3D('',#828,#661,#662);
#562=AXIS2_PLACEMENT_3D('',#831,#664,#665);
#563=AXIS2_PLACEMENT_3D('',#833,#666,#667);
#564=AXIS2_PLACEMENT_3D('',#835,#669,#670);
#565=AXIS2_PLACEMENT_3D('',#837,#671,#672);
#566=AXIS2_PLACEMENT_3D('',#840,#674,#675);
#567=AXIS2_PLACEMENT_3D('',#842,#676,#677);
#568=AXIS2_PLACEMENT_3D('',#846,#679,#680);
#569=AXIS2_PLACEMENT_3D('',#848,#681,#682);
#570=AXIS2_PLACEMENT_3D('',#850,#683,#684);
#571=AXIS2_PLACEMENT_3D('',#853,#686,#687);
#572=AXIS2_PLACEMENT_3D('',#855,#688,#689);
#573=AXIS2_PLACEMENT_3D('',#859,#691,#692);
#574=AXIS2_PLACEMENT_3D('',#861,#693,#694);
#575=AXIS2_PLACEMENT_3D('',#863,#695,#696);
#576=AXIS2_PLACEMENT_3D('',#866,#698,#699);
#577=AXIS2_PLACEMENT_3D('',#868,#700,#701);
#578=AXIS2_PLACEMENT_3D('',#871,#703,#704);
#579=AXIS2_PLACEMENT_3D('',#872,#705,#706);
#580=AXIS2_PLACEMENT_3D('',#874,#708,#709);
#581=AXIS2_PLACEMENT_3D('',#876,#711,#712);
#582=AXIS2_PLACEMENT_3D('',#877,#713,#714);
#583=AXIS2_PLACEMENT_3D('',#879,#716,#717);
#584=AXIS2_PLACEMENT_3D('',#881,#719,#720);
#585=AXIS2_PLACEMENT_3D('',#883,#722,#723);
#586=AXIS2_PLACEMENT_3D('',#885,#725,#726);
#587=AXIS2_PLACEMENT_3D('',#887,#728,#729);
#588=AXIS2_PLACEMENT_3D('',#889,#731,#732);
#589=AXIS2_PLACEMENT_3D('',#890,#733,#734);
#590=AXIS2_PLACEMENT_3D('',#892,#736,#737);
#591=AXIS2_PLACEMENT_3D('',#894,#739,#740);
#592=AXIS2_PLACEMENT_3D('',#896,#742,#743);
#593=AXIS2_PLACEMENT_3D('',#898,#745,#746);
#594=AXIS2_PLACEMENT_3D('',#900,#748,#749);
#595=AXIS2_PLACEMENT_3D('',#902,#751,#752);
#596=AXIS2_PLACEMENT_3D('',#903,#753,#754);
#597=AXIS2_PLACEMENT_3D('',#905,#756,#757);
#598=AXIS2_PLACEMENT_3D('',#907,#759,#760);
#599=DIRECTION('axis',(0.,0.,1.));
#600=DIRECTION('refdir',(1.,0.,0.));
#601=DIRECTION('center_axis',(-1.,0.,0.));
#602=DIRECTION('ref_axis',(0.,0.,1.));
#603=DIRECTION('',(-1.,0.,0.));
#604=DIRECTION('center_axis',(1.,0.,0.));
#605=DIRECTION('ref_axis',(0.,0.,-1.));
#606=DIRECTION('',(-1.,0.,0.));
#607=DIRECTION('center_axis',(1.,0.,0.));
#608=DIRECTION('ref_axis',(0.,0.,-1.));
#609=DIRECTION('center_axis',(-1.,0.,0.));
#610=DIRECTION('ref_axis',(0.,0.,1.));
#611=DIRECTION('',(-1.,0.,0.));
#612=DIRECTION('center_axis',(1.,0.,0.));
#613=DIRECTION('ref_axis',(0.,0.,-1.));
#614=DIRECTION('',(-1.,0.,0.));
#615=DIRECTION('center_axis',(1.,0.,0.));
#616=DIRECTION('ref_axis',(0.,0.,-1.));
#617=DIRECTION('center_axis',(-1.,0.,0.));
#618=DIRECTION('ref_axis',(0.,0.199604377573496,-0.979876570009456));
#619=DIRECTION('',(-1.,0.,0.));
#620=DIRECTION('center_axis',(1.,0.,0.));
#621=DIRECTION('ref_axis',(0.,0.,-1.));
#622=DIRECTION('',(-1.,0.,0.));
#623=DIRECTION('center_axis',(1.,0.,0.));
#624=DIRECTION('ref_axis',(0.,0.,-1.));
#625=DIRECTION('center_axis',(-1.,0.,0.));
#626=DIRECTION('ref_axis',(0.,-1.,9.06383838488227E-9));
#627=DIRECTION('center_axis',(1.,0.,0.));
#628=DIRECTION('ref_axis',(0.,0.,-1.));
#629=DIRECTION('',(-1.,0.,0.));
#630=DIRECTION('center_axis',(1.,0.,0.));
#631=DIRECTION('ref_axis',(0.,0.,-1.));
#632=DIRECTION('',(-1.,0.,0.));
#633=DIRECTION('center_axis',(1.,0.,0.));
#634=DIRECTION('ref_axis',(0.,0.,-1.));
#635=DIRECTION('center_axis',(1.,0.,0.));
#636=DIRECTION('ref_axis',(0.,0.,-1.));
#637=DIRECTION('center_axis',(1.,0.,0.));
#638=DIRECTION('ref_axis',(0.,0.,-1.));
#639=DIRECTION('',(0.,-0.965925826289069,0.25881904510252));
#640=DIRECTION('center_axis',(1.,0.,0.));
#641=DIRECTION('ref_axis',(0.,0.,-1.));
#642=DIRECTION('center_axis',(1.,0.,0.));
#643=DIRECTION('ref_axis',(0.,0.,-1.));
#644=DIRECTION('',(0.,1.59613998946978E-16,-1.));
#645=DIRECTION('center_axis',(1.,0.,0.));
#646=DIRECTION('ref_axis',(0.,0.,-1.));
#647=DIRECTION('center_axis',(1.,0.,0.));
#648=DIRECTION('ref_axis',(0.,0.,-1.));
#649=DIRECTION('center_axis',(1.,0.,0.));
#650=DIRECTION('ref_axis',(0.,0.,-1.));
#651=DIRECTION('',(0.,0.965925826289068,0.258819045102521));
#652=DIRECTION('center_axis',(1.,0.,0.));
#653=DIRECTION('ref_axis',(0.,0.,-1.));
#654=DIRECTION('center_axis',(1.,0.,0.));
#655=DIRECTION('ref_axis',(0.,0.,-1.));
#656=DIRECTION('',(0.,-0.965925826289068,0.258819045102521));
#657=DIRECTION('center_axis',(1.,0.,0.));
#658=DIRECTION('ref_axis',(0.,0.,-1.));
#659=DIRECTION('center_axis',(1.,0.,0.));
#660=DIRECTION('ref_axis',(0.,0.,-1.));
#661=DIRECTION('center_axis',(1.,0.,0.));
#662=DIRECTION('ref_axis',(0.,0.,-1.));
#663=DIRECTION('',(0.,1.59613998946978E-16,-1.));
#664=DIRECTION('center_axis',(1.,0.,0.));
#665=DIRECTION('ref_axis',(0.,0.,-1.));
#666=DIRECTION('center_axis',(1.,0.,0.));
#667=DIRECTION('ref_axis',(0.,0.,-1.));
#668=DIRECTION('',(0.,0.965925826289068,0.258819045102521));
#669=DIRECTION('center_axis',(1.,0.,0.));
#670=DIRECTION('ref_axis',(0.,0.,-1.));
#671=DIRECTION('center_axis',(1.,0.,0.));
#672=DIRECTION('ref_axis',(0.,0.,-1.));
#673=DIRECTION('',(0.,0.965925826289068,0.258819045102521));
#674=DIRECTION('center_axis',(1.,0.,0.));
#675=DIRECTION('ref_axis',(0.,0.,-1.));
#676=DIRECTION('center_axis',(1.,0.,0.));
#677=DIRECTION('ref_axis',(0.,0.,-1.));
#678=DIRECTION('',(0.,1.59613998946978E-16,-1.));
#679=DIRECTION('center_axis',(1.,0.,0.));
#680=DIRECTION('ref_axis',(0.,0.,-1.));
#681=DIRECTION('center_axis',(1.,0.,0.));
#682=DIRECTION('ref_axis',(0.,0.,-1.));
#683=DIRECTION('center_axis',(1.,0.,0.));
#684=DIRECTION('ref_axis',(0.,0.,-1.));
#685=DIRECTION('',(0.,-0.965925826289068,0.258819045102521));
#686=DIRECTION('center_axis',(1.,0.,0.));
#687=DIRECTION('ref_axis',(0.,0.,-1.));
#688=DIRECTION('center_axis',(1.,0.,0.));
#689=DIRECTION('ref_axis',(0.,0.,-1.));
#690=DIRECTION('',(0.,0.965925826289068,0.258819045102521));
#691=DIRECTION('center_axis',(1.,0.,0.));
#692=DIRECTION('ref_axis',(0.,0.,-1.));
#693=DIRECTION('center_axis',(1.,0.,0.));
#694=DIRECTION('ref_axis',(0.,0.,-1.));
#695=DIRECTION('center_axis',(1.,0.,0.));
#696=DIRECTION('ref_axis',(0.,0.,-1.));
#697=DIRECTION('',(0.,1.59613998946978E-16,-1.));
#698=DIRECTION('center_axis',(1.,0.,0.));
#699=DIRECTION('ref_axis',(0.,0.,-1.));
#700=DIRECTION('center_axis',(1.,0.,0.));
#701=DIRECTION('ref_axis',(0.,0.,-1.));
#702=DIRECTION('',(0.,-0.965925826289069,0.25881904510252));
#703=DIRECTION('center_axis',(1.,0.,0.));
#704=DIRECTION('ref_axis',(0.,0.,-1.));
#705=DIRECTION('center_axis',(-1.,0.,0.));
#706=DIRECTION('ref_axis',(0.,0.,1.));
#707=DIRECTION('',(-1.,0.,0.));
#708=DIRECTION('center_axis',(0.,-0.25881904510252,-0.965925826289069));
#709=DIRECTION('ref_axis',(0.,0.965925826289069,-0.25881904510252));
#710=DIRECTION('',(-1.,0.,0.));
#711=DIRECTION('center_axis',(-1.,0.,0.));
#712=DIRECTION('ref_axis',(0.,0.,1.));
#713=DIRECTION('center_axis',(-1.,0.,0.));
#714=DIRECTION('ref_axis',(0.,0.,1.));
#715=DIRECTION('',(-1.,0.,0.));
#716=DIRECTION('center_axis',(0.,1.,1.59613998946978E-16));
#717=DIRECTION('ref_axis',(0.,-1.59613998946978E-16,1.));
#718=DIRECTION('',(-1.,0.,0.));
#719=DIRECTION('center_axis',(-1.,0.,0.));
#720=DIRECTION('ref_axis',(0.,0.57599020353007,-0.817456595445525));
#721=DIRECTION('',(-1.,0.,0.));
#722=DIRECTION('center_axis',(-1.,0.,0.));
#723=DIRECTION('ref_axis',(0.,0.,1.));
#724=DIRECTION('',(-1.,0.,0.));
#725=DIRECTION('center_axis',(-1.,0.,0.));
#726=DIRECTION('ref_axis',(0.,0.,1.));
#727=DIRECTION('',(-1.,0.,0.));
#728=DIRECTION('center_axis',(0.,-0.258819045102521,0.965925826289068));
#729=DIRECTION('ref_axis',(0.,-0.965925826289068,-0.258819045102521));
#730=DIRECTION('',(-1.,0.,0.));
#731=DIRECTION('center_axis',(-1.,0.,0.));
#732=DIRECTION('ref_axis',(0.,0.,1.));
#733=DIRECTION('center_axis',(-1.,0.,0.));
#734=DIRECTION('ref_axis',(0.,0.,1.));
#735=DIRECTION('',(-1.,0.,0.));
#736=DIRECTION('center_axis',(0.,-0.258819045102521,-0.965925826289068));
#737=DIRECTION('ref_axis',(0.,0.965925826289068,-0.258819045102521));
#738=DIRECTION('',(-1.,0.,0.));
#739=DIRECTION('center_axis',(-1.,0.,0.));
#740=DIRECTION('ref_axis',(0.,0.,1.));
#741=DIRECTION('',(-1.,0.,0.));
#742=DIRECTION('center_axis',(-1.,0.,0.));
#743=DIRECTION('ref_axis',(0.,0.,1.));
#744=DIRECTION('',(-1.,0.,0.));
#745=DIRECTION('center_axis',(-1.,0.,0.));
#746=DIRECTION('ref_axis',(0.,0.,1.));
#747=DIRECTION('',(-1.,0.,0.));
#748=DIRECTION('center_axis',(0.,1.,1.59613998946978E-16));
#749=DIRECTION('ref_axis',(0.,-1.59613998946978E-16,1.));
#750=DIRECTION('',(-1.,0.,0.));
#751=DIRECTION('center_axis',(-1.,0.,0.));
#752=DIRECTION('ref_axis',(0.,-0.624959746836376,-0.780656976420638));
#753=DIRECTION('center_axis',(-1.,0.,0.));
#754=DIRECTION('ref_axis',(0.,0.,1.));
#755=DIRECTION('',(-1.,0.,0.));
#756=DIRECTION('center_axis',(0.,-0.258819045102521,0.965925826289068));
#757=DIRECTION('ref_axis',(0.,-0.965925826289068,-0.258819045102521));
#758=DIRECTION('',(-1.,0.,0.));
#759=DIRECTION('center_axis',(-1.,0.,0.));
#760=DIRECTION('ref_axis',(0.,-0.179396162351494,-0.983776914210512));
#761=CARTESIAN_POINT('',(0.,0.,0.));
#762=CARTESIAN_POINT('Origin',(0.07,0.,0.));
#763=CARTESIAN_POINT('',(0.07,0.116620859486099,0.162479460648796));
#764=CARTESIAN_POINT('',(0.,0.116620859486099,0.162479460648796));
#765=CARTESIAN_POINT('',(0.07,0.116620859486099,0.162479460648796));
#766=CARTESIAN_POINT('',(0.07,-0.0437701139808026,0.195151677220842));
#767=CARTESIAN_POINT('Origin',(0.07,0.,0.));
#768=CARTESIAN_POINT('',(0.,-0.0437701139808026,0.195151677220842));
#769=CARTESIAN_POINT('',(0.07,-0.0437701139808026,0.195151677220842));
#770=CARTESIAN_POINT('Origin',(0.,0.,0.));
#771=CARTESIAN_POINT('Origin',(0.07,0.,0.));
#772=CARTESIAN_POINT('',(0.07,-0.198740038222928,0.0224142188610084));
#773=CARTESIAN_POINT('',(0.,-0.198740038222928,0.0224142188610084));
#774=CARTESIAN_POINT('',(0.07,-0.198740038222928,0.0224142188610084));
#775=CARTESIAN_POINT('',(0.07,-0.198740038222928,-0.0224142188610083));
#776=CARTESIAN_POINT('Origin',(0.07,0.,0.));
#777=CARTESIAN_POINT('',(0.,-0.198740038222928,-0.0224142188610083));
#778=CARTESIAN_POINT('',(0.07,-0.198740038222928,-0.0224142188610083));
#779=CARTESIAN_POINT('Origin',(0.,0.,0.));
#780=CARTESIAN_POINT('Origin',(0.07,0.,0.));
#781=CARTESIAN_POINT('',(0.07,-0.0437701108300147,-0.195151677927524));
#782=CARTESIAN_POINT('',(0.,-0.0437701108300147,-0.195151677927524));
#783=CARTESIAN_POINT('',(0.07,-0.0437701108300147,-0.195151677927524));
#784=CARTESIAN_POINT('',(0.07,0.116620858685385,-0.162479461223515));
#785=CARTESIAN_POINT('Origin',(0.07,0.,0.));
#786=CARTESIAN_POINT('',(0.,0.116620858685385,-0.162479461223515));
#787=CARTESIAN_POINT('',(0.07,0.116620858685385,-0.162479461223515));
#788=CARTESIAN_POINT('Origin',(0.,0.,0.));
#789=CARTESIAN_POINT('Origin',(0.07,0.,0.));
#790=CARTESIAN_POINT('',(0.07,0.37533769899796,0.27449337279963));
#791=CARTESIAN_POINT('',(0.07,0.375337694022033,-0.274493379603631));
#792=CARTESIAN_POINT('Origin',(0.07,0.,0.));
#793=CARTESIAN_POINT('',(0.,0.37533769899796,0.27449337279963));
#794=CARTESIAN_POINT('',(0.07,0.37533769899796,0.27449337279963));
#795=CARTESIAN_POINT('',(0.,0.375337694022033,-0.274493379603631));
#796=CARTESIAN_POINT('Origin',(0.,0.,0.));
#797=CARTESIAN_POINT('',(0.07,0.375337694022033,-0.274493379603631));
#798=CARTESIAN_POINT('Origin',(0.07,0.,0.));
#799=CARTESIAN_POINT('',(0.07,0.356145140920788,0.220025177378466));
#800=CARTESIAN_POINT('Origin',(0.07,0.3470864743422,0.253832581298583));
#801=CARTESIAN_POINT('',(0.07,0.356145140920788,-0.220025177378465));
#802=CARTESIAN_POINT('Origin',(0.07,0.347086474342201,-0.253832581298583));
#803=CARTESIAN_POINT('',(0.07,0.131354517980427,-0.159792711495507));
#804=CARTESIAN_POINT('',(0.07,0.356145140920788,-0.220025177378465));
#805=CARTESIAN_POINT('Origin',(0.07,0.126825184691133,-0.176696413455565));
#806=CARTESIAN_POINT('',(0.07,-0.0651,-0.212227448743088));
#807=CARTESIAN_POINT('Origin',(0.07,-0.0476,-0.212227448743087));
#808=CARTESIAN_POINT('',(0.07,-0.0651,-0.280153957673277));
#809=CARTESIAN_POINT('',(0.07,-0.0651,-0.212227448743088));
#810=CARTESIAN_POINT('',(0.07,-0.111876469980617,-0.313113247028413));
#811=CARTESIAN_POINT('Origin',(0.07,-0.1001,-0.280153957673277));
#812=CARTESIAN_POINT('',(0.07,-0.308815568634348,-0.12324445045942));
#813=CARTESIAN_POINT('Origin',(0.07,-7.37257477290143E-16,-7.80625564189563E-16));
#814=CARTESIAN_POINT('',(0.07,-0.285367333251426,-0.0764639464909426));
#815=CARTESIAN_POINT('Origin',(0.07,-0.276308666672837,-0.11027135041106));
#816=CARTESIAN_POINT('',(0.07,-0.224460878333352,-0.0601441110818022));
#817=CARTESIAN_POINT('',(0.07,-0.285367333251426,-0.0764639464909426));
#818=CARTESIAN_POINT('Origin',(0.07,-0.23351954491194,-0.0263367071616848));
#819=CARTESIAN_POINT('',(0.07,-0.224460878333352,0.0601441110818021));
#820=CARTESIAN_POINT('Origin',(0.07,-0.23351954491194,0.0263367071616848));
#821=CARTESIAN_POINT('',(0.07,-0.285367333251426,0.0764639464909425));
#822=CARTESIAN_POINT('',(0.07,-0.224460878333352,0.0601441110818021));
#823=CARTESIAN_POINT('',(0.07,-0.308815568634348,0.12324445045942));
#824=CARTESIAN_POINT('Origin',(0.07,-0.276308666672837,0.11027135041106));
#825=CARTESIAN_POINT('',(0.07,-0.111876470588235,0.313113246811309));
#826=CARTESIAN_POINT('Origin',(0.07,8.67361737988404E-17,-2.16840434497101E-17));
#827=CARTESIAN_POINT('',(0.07,-0.0651,0.280153957673276));
#828=CARTESIAN_POINT('Origin',(0.07,-0.1001,0.280153957673277));
#829=CARTESIAN_POINT('',(0.07,-0.0651,0.212227448743088));
#830=CARTESIAN_POINT('',(0.07,-0.0651,0.280153957673276));
#831=CARTESIAN_POINT('Origin',(0.07,-0.0476,0.212227448743088));
#832=CARTESIAN_POINT('',(0.07,0.131354517980427,0.159792711495507));
#833=CARTESIAN_POINT('Origin',(0.07,0.126825184691132,0.176696413455565));
#834=CARTESIAN_POINT('',(0.07,0.131354517980427,0.159792711495507));
#835=CARTESIAN_POINT('Origin',(0.,0.,0.));
#836=CARTESIAN_POINT('',(0.,0.356145140920788,0.220025177378466));
#837=CARTESIAN_POINT('Origin',(0.,0.3470864743422,0.253832581298583));
#838=CARTESIAN_POINT('',(0.,0.131354517980427,0.159792711495507));
#839=CARTESIAN_POINT('',(0.,0.131354517980427,0.159792711495507));
#840=CARTESIAN_POINT('Origin',(0.,0.126825184691132,0.176696413455565));
#841=CARTESIAN_POINT('',(0.,-0.0651,0.212227448743088));
#842=CARTESIAN_POINT('Origin',(0.,-0.0476,0.212227448743088));
#843=CARTESIAN_POINT('',(0.,-0.0651,0.280153957673276));
#844=CARTESIAN_POINT('',(0.,-0.0651,0.280153957673276));
#845=CARTESIAN_POINT('',(0.,-0.111876470588235,0.313113246811309));
#846=CARTESIAN_POINT('Origin',(0.,-0.1001,0.280153957673277));
#847=CARTESIAN_POINT('',(0.,-0.308815568634348,0.12324445045942));
#848=CARTESIAN_POINT('Origin',(0.,8.67361737988404E-17,-2.16840434497101E-17));
#849=CARTESIAN_POINT('',(0.,-0.285367333251426,0.0764639464909425));
#850=CARTESIAN_POINT('Origin',(0.,-0.276308666672837,0.11027135041106));
#851=CARTESIAN_POINT('',(0.,-0.224460878333352,0.0601441110818021));
#852=CARTESIAN_POINT('',(0.,-0.224460878333352,0.0601441110818021));
#853=CARTESIAN_POINT('Origin',(0.,-0.23351954491194,0.0263367071616848));
#854=CARTESIAN_POINT('',(0.,-0.224460878333352,-0.0601441110818022));
#855=CARTESIAN_POINT('Origin',(0.,-0.23351954491194,-0.0263367071616848));
#856=CARTESIAN_POINT('',(0.,-0.285367333251426,-0.0764639464909426));
#857=CARTESIAN_POINT('',(0.,-0.285367333251426,-0.0764639464909426));
#858=CARTESIAN_POINT('',(0.,-0.308815568634348,-0.12324445045942));
#859=CARTESIAN_POINT('Origin',(0.,-0.276308666672837,-0.11027135041106));
#860=CARTESIAN_POINT('',(0.,-0.111876469980617,-0.313113247028413));
#861=CARTESIAN_POINT('Origin',(0.,-7.37257477290143E-16,-7.80625564189563E-16));
#862=CARTESIAN_POINT('',(0.,-0.0651,-0.280153957673277));
#863=CARTESIAN_POINT('Origin',(0.,-0.1001,-0.280153957673277));
#864=CARTESIAN_POINT('',(0.,-0.0651,-0.212227448743088));
#865=CARTESIAN_POINT('',(0.,-0.0651,-0.212227448743088));
#866=CARTESIAN_POINT('Origin',(0.,-0.0476,-0.212227448743087));
#867=CARTESIAN_POINT('',(0.,0.131354517980427,-0.159792711495507));
#868=CARTESIAN_POINT('Origin',(0.,0.126825184691133,-0.176696413455565));
#869=CARTESIAN_POINT('',(0.,0.356145140920788,-0.220025177378465));
#870=CARTESIAN_POINT('',(0.,0.356145140920788,-0.220025177378465));
#871=CARTESIAN_POINT('Origin',(0.,0.347086474342201,-0.253832581298583));
#872=CARTESIAN_POINT('Origin',(0.07,0.347086474342201,-0.253832581298583));
#873=CARTESIAN_POINT('',(0.07,0.356145140920788,-0.220025177378465));
#874=CARTESIAN_POINT('Origin',(0.07,0.356145140920788,-0.220025177378465));
#875=CARTESIAN_POINT('',(0.07,0.131354517980427,-0.159792711495507));
#876=CARTESIAN_POINT('Origin',(0.07,0.126825184691133,-0.176696413455565));
#877=CARTESIAN_POINT('Origin',(0.07,-0.0476,-0.212227448743087));
#878=CARTESIAN_POINT('',(0.07,-0.0651,-0.212227448743088));
#879=CARTESIAN_POINT('Origin',(0.07,-0.0651,-0.212227448743088));
#880=CARTESIAN_POINT('',(0.07,-0.0651,-0.280153957673277));
#881=CARTESIAN_POINT('Origin',(0.07,-0.1001,-0.280153957673277));
#882=CARTESIAN_POINT('',(0.07,-0.111876469980617,-0.313113247028413));
#883=CARTESIAN_POINT('Origin',(0.07,-7.37257477290143E-16,-7.80625564189563E-16));
#884=CARTESIAN_POINT('',(0.07,-0.308815568634348,-0.12324445045942));
#885=CARTESIAN_POINT('Origin',(0.07,-0.276308666672837,-0.11027135041106));
#886=CARTESIAN_POINT('',(0.07,-0.285367333251426,-0.0764639464909426));
#887=CARTESIAN_POINT('Origin',(0.07,-0.285367333251426,-0.0764639464909426));
#888=CARTESIAN_POINT('',(0.07,-0.224460878333352,-0.0601441110818022));
#889=CARTESIAN_POINT('Origin',(0.07,-0.23351954491194,-0.0263367071616848));
#890=CARTESIAN_POINT('Origin',(0.07,-0.23351954491194,0.0263367071616848));
#891=CARTESIAN_POINT('',(0.07,-0.224460878333352,0.0601441110818021));
#892=CARTESIAN_POINT('Origin',(0.07,-0.224460878333352,0.0601441110818021));
#893=CARTESIAN_POINT('',(0.07,-0.285367333251426,0.0764639464909425));
#894=CARTESIAN_POINT('Origin',(0.07,-0.276308666672837,0.11027135041106));
#895=CARTESIAN_POINT('',(0.07,-0.308815568634348,0.12324445045942));
#896=CARTESIAN_POINT('Origin',(0.07,8.67361737988404E-17,-2.16840434497101E-17));
#897=CARTESIAN_POINT('',(0.07,-0.111876470588235,0.313113246811309));
#898=CARTESIAN_POINT('Origin',(0.07,-0.1001,0.280153957673277));
#899=CARTESIAN_POINT('',(0.07,-0.0651,0.280153957673276));
#900=CARTESIAN_POINT('Origin',(0.07,-0.0651,0.280153957673276));
#901=CARTESIAN_POINT('',(0.07,-0.0651,0.212227448743088));
#902=CARTESIAN_POINT('Origin',(0.07,-0.0476,0.212227448743088));
#903=CARTESIAN_POINT('Origin',(0.07,0.3470864743422,0.253832581298583));
#904=CARTESIAN_POINT('',(0.07,0.356145140920788,0.220025177378466));
#905=CARTESIAN_POINT('Origin',(0.07,0.131354517980427,0.159792711495507));
#906=CARTESIAN_POINT('',(0.07,0.131354517980427,0.159792711495507));
#907=CARTESIAN_POINT('Origin',(0.07,0.126825184691132,0.176696413455565));
#908=UNCERTAINTY_MEASURE_WITH_UNIT(LENGTH_MEASURE(0.001),#912,
'DISTANCE_ACCURACY_VALUE',
'Maximum model space distance between geometric entities at asserted c
onnectivities');
#909=UNCERTAINTY_MEASURE_WITH_UNIT(LENGTH_MEASURE(0.001),#912,
'DISTANCE_ACCURACY_VALUE',
'Maximum model space distance between geometric entities at asserted c
onnectivities');
#910=(
GEOMETRIC_REPRESENTATION_CONTEXT(3)
GLOBAL_UNCERTAINTY_ASSIGNED_CONTEXT((#908))
GLOBAL_UNIT_ASSIGNED_CONTEXT((#912,#913,#914))
REPRESENTATION_CONTEXT('','3D')
);
#911=(
GEOMETRIC_REPRESENTATION_CONTEXT(3)
GLOBAL_UNCERTAINTY_ASSIGNED_CONTEXT((#909))
GLOBAL_UNIT_ASSIGNED_CONTEXT((#912,#913,#914))
REPRESENTATION_CONTEXT('','3D')
);
#912=(
LENGTH_UNIT()
NAMED_UNIT(*)
SI_UNIT(.CENTI.,.METRE.)
);
#913=(
NAMED_UNIT(*)
PLANE_ANGLE_UNIT()
SI_UNIT($,.RADIAN.)
);
#914=(
NAMED_UNIT(*)
SI_UNIT($,.STERADIAN.)
SOLID_ANGLE_UNIT()
);
#915=SHAPE_DEFINITION_REPRESENTATION(#916,#917);
#916=PRODUCT_DEFINITION_SHAPE('',$,#919);
#917=SHAPE_REPRESENTATION('',(#536),#910);
#918=PRODUCT_DEFINITION_CONTEXT('part definition',#923,'design');
#919=PRODUCT_DEFINITION('4mm E Clip','4mm E Clip',#920,#918);
#920=PRODUCT_DEFINITION_FORMATION('',$,#925);
#921=PRODUCT_RELATED_PRODUCT_CATEGORY('4mm E Clip','4mm E Clip',(#925));
#922=APPLICATION_PROTOCOL_DEFINITION('international standard',
'automotive_design',2009,#923);
#923=APPLICATION_CONTEXT(
'Core Data for Automotive Mechanical Design Process');
#924=PRODUCT_CONTEXT('part definition',#923,'mechanical');
#925=PRODUCT('4mm E Clip','4mm E Clip',$,(#924));
#926=PRESENTATION_STYLE_ASSIGNMENT((#928));
#927=PRESENTATION_STYLE_ASSIGNMENT((#929));
#928=SURFACE_STYLE_USAGE(.BOTH.,#934);
#929=SURFACE_STYLE_USAGE(.BOTH.,#935);
#930=SURFACE_STYLE_RENDERING_WITH_PROPERTIES($,#942,(#932));
#931=SURFACE_STYLE_RENDERING_WITH_PROPERTIES($,#943,(#933));
#932=SURFACE_STYLE_TRANSPARENT(0.);
#933=SURFACE_STYLE_TRANSPARENT(0.);
#934=SURFACE_SIDE_STYLE('',(#936,#930));
#935=SURFACE_SIDE_STYLE('',(#937,#931));
#936=SURFACE_STYLE_FILL_AREA(#938);
#937=SURFACE_STYLE_FILL_AREA(#939);
#938=FILL_AREA_STYLE('',(#940));
#939=FILL_AREA_STYLE('',(#941));
#940=FILL_AREA_STYLE_COLOUR('',#942);
#941=FILL_AREA_STYLE_COLOUR('',#943);
#942=COLOUR_RGB('',0.745098039215686,0.737254901960784,0.729411764705882);
#943=COLOUR_RGB('',0.690196078431373,0.690196078431373,0.690196078431373);
ENDSEC;
END-ISO-10303-21;
