ISO-10303-21;
HEADER;
/* Generated by software containing ST-Developer
 * from STEP Tools, Inc. (www.steptools.com) 
 */

FILE_DESCRIPTION(
/* description */ (''),
/* implementation_level */ '2;1');

FILE_NAME(
/* name */ 
'S:\\Future Scope 1\\WIP\\Client Category\\Tom\\02 Progressive Work\\H
ardware\\61800 Bearing.stp',
/* time_stamp */ '2025-11-05T12:14:33+06:00',
/* author */ ('SD'),
/* organization */ (''),
/* preprocessor_version */ 'ST-DEVELOPER v18.1',
/* originating_system */ 'Autodesk Inventor 2021',
/* authorisation */ '');

FILE_SCHEMA (('AUTOMOTIVE_DESIGN { 1 0 10303 214 3 1 1 }'));
ENDSEC;

DATA;
#10=MECHANICAL_DESIGN_GEOMETRIC_PRESENTATION_REPRESENTATION('',(#13),#403);
#11=SHAPE_REPRESENTATION_RELATIONSHIP('SRR','None',#409,#12);
#12=ADVANCED_BREP_SHAPE_REPRESENTATION('',(#217),#402);
#13=STYLED_ITEM('',(#419),#217);
#14=ORIENTED_CLOSED_SHELL('',*,#215,.F.);
#15=LINE('',#355,#23);
#16=LINE('',#357,#24);
#17=LINE('',#369,#25);
#18=LINE('',#372,#26);
#19=LINE('',#385,#27);
#20=LINE('',#389,#28);
#21=LINE('',#394,#29);
#22=LINE('',#397,#30);
#23=VECTOR('',#285,0.55);
#24=VECTOR('',#288,0.9);
#25=VECTOR('',#303,0.95);
#26=VECTOR('',#306,0.9125);
#27=VECTOR('',#323,0.5);
#28=VECTOR('',#328,0.5375);
#29=VECTOR('',#335,0.9125);
#30=VECTOR('',#338,0.5375);
#31=CYLINDRICAL_SURFACE('',#243,0.55);
#32=CYLINDRICAL_SURFACE('',#244,0.9);
#33=CYLINDRICAL_SURFACE('',#251,0.95);
#34=CYLINDRICAL_SURFACE('',#252,0.9125);
#35=CYLINDRICAL_SURFACE('',#260,0.5);
#36=CYLINDRICAL_SURFACE('',#261,0.5375);
#37=CYLINDRICAL_SURFACE('',#264,0.9125);
#38=CYLINDRICAL_SURFACE('',#266,0.5375);
#39=FACE_BOUND('',#64,.T.);
#40=FACE_BOUND('',#66,.T.);
#41=FACE_BOUND('',#70,.T.);
#42=FACE_BOUND('',#72,.T.);
#43=FACE_BOUND('',#76,.T.);
#44=FACE_BOUND('',#78,.T.);
#45=FACE_BOUND('',#82,.T.);
#46=FACE_BOUND('',#86,.T.);
#47=FACE_OUTER_BOUND('',#63,.T.);
#48=FACE_OUTER_BOUND('',#65,.T.);
#49=FACE_OUTER_BOUND('',#67,.T.);
#50=FACE_OUTER_BOUND('',#68,.T.);
#51=FACE_OUTER_BOUND('',#69,.T.);
#52=FACE_OUTER_BOUND('',#71,.T.);
#53=FACE_OUTER_BOUND('',#73,.T.);
#54=FACE_OUTER_BOUND('',#74,.T.);
#55=FACE_OUTER_BOUND('',#75,.T.);
#56=FACE_OUTER_BOUND('',#77,.T.);
#57=FACE_OUTER_BOUND('',#79,.T.);
#58=FACE_OUTER_BOUND('',#80,.T.);
#59=FACE_OUTER_BOUND('',#81,.T.);
#60=FACE_OUTER_BOUND('',#83,.T.);
#61=FACE_OUTER_BOUND('',#84,.T.);
#62=FACE_OUTER_BOUND('',#85,.T.);
#63=EDGE_LOOP('',(#143));
#64=EDGE_LOOP('',(#144));
#65=EDGE_LOOP('',(#145));
#66=EDGE_LOOP('',(#146));
#67=EDGE_LOOP('',(#147,#148,#149,#150));
#68=EDGE_LOOP('',(#151,#152,#153,#154));
#69=EDGE_LOOP('',(#155));
#70=EDGE_LOOP('',(#156));
#71=EDGE_LOOP('',(#157));
#72=EDGE_LOOP('',(#158));
#73=EDGE_LOOP('',(#159,#160,#161,#162));
#74=EDGE_LOOP('',(#163,#164,#165,#166));
#75=EDGE_LOOP('',(#167));
#76=EDGE_LOOP('',(#168));
#77=EDGE_LOOP('',(#169));
#78=EDGE_LOOP('',(#170));
#79=EDGE_LOOP('',(#171,#172,#173,#174));
#80=EDGE_LOOP('',(#175,#176,#177,#178));
#81=EDGE_LOOP('',(#179));
#82=EDGE_LOOP('',(#180));
#83=EDGE_LOOP('',(#181,#182,#183,#184));
#84=EDGE_LOOP('',(#185,#186,#187,#188));
#85=EDGE_LOOP('',(#189));
#86=EDGE_LOOP('',(#190));
#87=CIRCLE('',#238,0.9);
#88=CIRCLE('',#239,0.55);
#89=CIRCLE('',#241,0.9);
#90=CIRCLE('',#242,0.55);
#91=CIRCLE('',#246,0.95);
#92=CIRCLE('',#247,0.9125);
#93=CIRCLE('',#249,0.95);
#94=CIRCLE('',#250,0.9125);
#95=CIRCLE('',#253,0.9125);
#96=CIRCLE('',#255,0.5375);
#97=CIRCLE('',#256,0.5);
#98=CIRCLE('',#258,0.5375);
#99=CIRCLE('',#259,0.5);
#100=CIRCLE('',#262,0.5375);
#101=CIRCLE('',#265,0.9125);
#102=CIRCLE('',#267,0.5375);
#103=VERTEX_POINT('',#345);
#104=VERTEX_POINT('',#347);
#105=VERTEX_POINT('',#350);
#106=VERTEX_POINT('',#352);
#107=VERTEX_POINT('',#359);
#108=VERTEX_POINT('',#361);
#109=VERTEX_POINT('',#364);
#110=VERTEX_POINT('',#366);
#111=VERTEX_POINT('',#371);
#112=VERTEX_POINT('',#375);
#113=VERTEX_POINT('',#377);
#114=VERTEX_POINT('',#380);
#115=VERTEX_POINT('',#382);
#116=VERTEX_POINT('',#387);
#117=VERTEX_POINT('',#392);
#118=VERTEX_POINT('',#396);
#119=EDGE_CURVE('',#103,#103,#87,.T.);
#120=EDGE_CURVE('',#104,#104,#88,.T.);
#121=EDGE_CURVE('',#105,#105,#89,.T.);
#122=EDGE_CURVE('',#106,#106,#90,.T.);
#123=EDGE_CURVE('',#106,#104,#15,.T.);
#124=EDGE_CURVE('',#103,#105,#16,.T.);
#125=EDGE_CURVE('',#107,#107,#91,.T.);
#126=EDGE_CURVE('',#108,#108,#92,.T.);
#127=EDGE_CURVE('',#109,#109,#93,.T.);
#128=EDGE_CURVE('',#110,#110,#94,.T.);
#129=EDGE_CURVE('',#109,#107,#17,.T.);
#130=EDGE_CURVE('',#110,#111,#18,.T.);
#131=EDGE_CURVE('',#111,#111,#95,.T.);
#132=EDGE_CURVE('',#112,#112,#96,.T.);
#133=EDGE_CURVE('',#113,#113,#97,.T.);
#134=EDGE_CURVE('',#114,#114,#98,.T.);
#135=EDGE_CURVE('',#115,#115,#99,.T.);
#136=EDGE_CURVE('',#113,#115,#19,.T.);
#137=EDGE_CURVE('',#116,#116,#100,.T.);
#138=EDGE_CURVE('',#116,#114,#20,.T.);
#139=EDGE_CURVE('',#117,#117,#101,.T.);
#140=EDGE_CURVE('',#117,#108,#21,.T.);
#141=EDGE_CURVE('',#112,#118,#22,.T.);
#142=EDGE_CURVE('',#118,#118,#102,.T.);
#143=ORIENTED_EDGE('',*,*,#119,.F.);
#144=ORIENTED_EDGE('',*,*,#120,.F.);
#145=ORIENTED_EDGE('',*,*,#121,.F.);
#146=ORIENTED_EDGE('',*,*,#122,.F.);
#147=ORIENTED_EDGE('',*,*,#122,.T.);
#148=ORIENTED_EDGE('',*,*,#123,.T.);
#149=ORIENTED_EDGE('',*,*,#120,.T.);
#150=ORIENTED_EDGE('',*,*,#123,.F.);
#151=ORIENTED_EDGE('',*,*,#119,.T.);
#152=ORIENTED_EDGE('',*,*,#124,.T.);
#153=ORIENTED_EDGE('',*,*,#121,.T.);
#154=ORIENTED_EDGE('',*,*,#124,.F.);
#155=ORIENTED_EDGE('',*,*,#125,.F.);
#156=ORIENTED_EDGE('',*,*,#126,.T.);
#157=ORIENTED_EDGE('',*,*,#127,.T.);
#158=ORIENTED_EDGE('',*,*,#128,.T.);
#159=ORIENTED_EDGE('',*,*,#127,.F.);
#160=ORIENTED_EDGE('',*,*,#129,.T.);
#161=ORIENTED_EDGE('',*,*,#125,.T.);
#162=ORIENTED_EDGE('',*,*,#129,.F.);
#163=ORIENTED_EDGE('',*,*,#128,.F.);
#164=ORIENTED_EDGE('',*,*,#130,.T.);
#165=ORIENTED_EDGE('',*,*,#131,.T.);
#166=ORIENTED_EDGE('',*,*,#130,.F.);
#167=ORIENTED_EDGE('',*,*,#132,.T.);
#168=ORIENTED_EDGE('',*,*,#133,.F.);
#169=ORIENTED_EDGE('',*,*,#134,.T.);
#170=ORIENTED_EDGE('',*,*,#135,.T.);
#171=ORIENTED_EDGE('',*,*,#133,.T.);
#172=ORIENTED_EDGE('',*,*,#136,.T.);
#173=ORIENTED_EDGE('',*,*,#135,.F.);
#174=ORIENTED_EDGE('',*,*,#136,.F.);
#175=ORIENTED_EDGE('',*,*,#137,.T.);
#176=ORIENTED_EDGE('',*,*,#138,.T.);
#177=ORIENTED_EDGE('',*,*,#134,.F.);
#178=ORIENTED_EDGE('',*,*,#138,.F.);
#179=ORIENTED_EDGE('',*,*,#131,.F.);
#180=ORIENTED_EDGE('',*,*,#137,.F.);
#181=ORIENTED_EDGE('',*,*,#139,.T.);
#182=ORIENTED_EDGE('',*,*,#140,.T.);
#183=ORIENTED_EDGE('',*,*,#126,.F.);
#184=ORIENTED_EDGE('',*,*,#140,.F.);
#185=ORIENTED_EDGE('',*,*,#132,.F.);
#186=ORIENTED_EDGE('',*,*,#141,.T.);
#187=ORIENTED_EDGE('',*,*,#142,.T.);
#188=ORIENTED_EDGE('',*,*,#141,.F.);
#189=ORIENTED_EDGE('',*,*,#139,.F.);
#190=ORIENTED_EDGE('',*,*,#142,.F.);
#191=PLANE('',#237);
#192=PLANE('',#240);
#193=PLANE('',#245);
#194=PLANE('',#248);
#195=PLANE('',#254);
#196=PLANE('',#257);
#197=PLANE('',#263);
#198=PLANE('',#268);
#199=ADVANCED_FACE('',(#47,#39),#191,.T.);
#200=ADVANCED_FACE('',(#48,#40),#192,.F.);
#201=ADVANCED_FACE('',(#49),#31,.T.);
#202=ADVANCED_FACE('',(#50),#32,.F.);
#203=ADVANCED_FACE('',(#51,#41),#193,.F.);
#204=ADVANCED_FACE('',(#52,#42),#194,.T.);
#205=ADVANCED_FACE('',(#53),#33,.T.);
#206=ADVANCED_FACE('',(#54),#34,.F.);
#207=ADVANCED_FACE('',(#55,#43),#195,.F.);
#208=ADVANCED_FACE('',(#56,#44),#196,.T.);
#209=ADVANCED_FACE('',(#57),#35,.F.);
#210=ADVANCED_FACE('',(#58),#36,.T.);
#211=ADVANCED_FACE('',(#59,#45),#197,.T.);
#212=ADVANCED_FACE('',(#60),#37,.F.);
#213=ADVANCED_FACE('',(#61),#38,.T.);
#214=ADVANCED_FACE('',(#62,#46),#198,.F.);
#215=CLOSED_SHELL('',(#199,#200,#201,#202));
#216=CLOSED_SHELL('',(#203,#204,#205,#206,#207,#208,#209,#210,#211,#212,
#213,#214));
#217=BREP_WITH_VOIDS('Solid1',#216,(#14));
#218=DERIVED_UNIT_ELEMENT(#220,1.);
#219=DERIVED_UNIT_ELEMENT(#404,3.);
#220=(
MASS_UNIT()
NAMED_UNIT(*)
SI_UNIT($,.GRAM.)
);
#221=DERIVED_UNIT((#218,#219));
#222=MEASURE_REPRESENTATION_ITEM('density measure',
POSITIVE_RATIO_MEASURE(8.),#221);
#223=PROPERTY_DEFINITION_REPRESENTATION(#228,#225);
#224=PROPERTY_DEFINITION_REPRESENTATION(#229,#226);
#225=REPRESENTATION('material name',(#227),#402);
#226=REPRESENTATION('density',(#222),#402);
#227=DESCRIPTIVE_REPRESENTATION_ITEM('Stainless Steel, Austenitic',
'Stainless Steel, Austenitic');
#228=PROPERTY_DEFINITION('material property','material name',#411);
#229=PROPERTY_DEFINITION('material property','density of part',#411);
#230=DATE_TIME_ROLE('creation_date');
#231=APPLIED_DATE_AND_TIME_ASSIGNMENT(#232,#230,(#411));
#232=DATE_AND_TIME(#233,#234);
#233=CALENDAR_DATE(2023,14,6);
#234=LOCAL_TIME(15,24,53.,#235);
#235=COORDINATED_UNIVERSAL_TIME_OFFSET(0,0,.BEHIND.);
#236=AXIS2_PLACEMENT_3D('placement',#343,#269,#270);
#237=AXIS2_PLACEMENT_3D('',#344,#271,#272);
#238=AXIS2_PLACEMENT_3D('',#346,#273,#274);
#239=AXIS2_PLACEMENT_3D('',#348,#275,#276);
#240=AXIS2_PLACEMENT_3D('',#349,#277,#278);
#241=AXIS2_PLACEMENT_3D('',#351,#279,#280);
#242=AXIS2_PLACEMENT_3D('',#353,#281,#282);
#243=AXIS2_PLACEMENT_3D('',#354,#283,#284);
#244=AXIS2_PLACEMENT_3D('',#356,#286,#287);
#245=AXIS2_PLACEMENT_3D('',#358,#289,#290);
#246=AXIS2_PLACEMENT_3D('',#360,#291,#292);
#247=AXIS2_PLACEMENT_3D('',#362,#293,#294);
#248=AXIS2_PLACEMENT_3D('',#363,#295,#296);
#249=AXIS2_PLACEMENT_3D('',#365,#297,#298);
#250=AXIS2_PLACEMENT_3D('',#367,#299,#300);
#251=AXIS2_PLACEMENT_3D('',#368,#301,#302);
#252=AXIS2_PLACEMENT_3D('',#370,#304,#305);
#253=AXIS2_PLACEMENT_3D('',#373,#307,#308);
#254=AXIS2_PLACEMENT_3D('',#374,#309,#310);
#255=AXIS2_PLACEMENT_3D('',#376,#311,#312);
#256=AXIS2_PLACEMENT_3D('',#378,#313,#314);
#257=AXIS2_PLACEMENT_3D('',#379,#315,#316);
#258=AXIS2_PLACEMENT_3D('',#381,#317,#318);
#259=AXIS2_PLACEMENT_3D('',#383,#319,#320);
#260=AXIS2_PLACEMENT_3D('',#384,#321,#322);
#261=AXIS2_PLACEMENT_3D('',#386,#324,#325);
#262=AXIS2_PLACEMENT_3D('',#388,#326,#327);
#263=AXIS2_PLACEMENT_3D('',#390,#329,#330);
#264=AXIS2_PLACEMENT_3D('',#391,#331,#332);
#265=AXIS2_PLACEMENT_3D('',#393,#333,#334);
#266=AXIS2_PLACEMENT_3D('',#395,#336,#337);
#267=AXIS2_PLACEMENT_3D('',#398,#339,#340);
#268=AXIS2_PLACEMENT_3D('',#399,#341,#342);
#269=DIRECTION('axis',(0.,0.,1.));
#270=DIRECTION('refdir',(1.,0.,0.));
#271=DIRECTION('center_axis',(0.,0.,1.));
#272=DIRECTION('ref_axis',(1.,0.,0.));
#273=DIRECTION('center_axis',(0.,0.,-1.));
#274=DIRECTION('ref_axis',(1.,0.,0.));
#275=DIRECTION('center_axis',(0.,0.,1.));
#276=DIRECTION('ref_axis',(1.,0.,0.));
#277=DIRECTION('center_axis',(0.,0.,1.));
#278=DIRECTION('ref_axis',(1.,0.,0.));
#279=DIRECTION('center_axis',(0.,0.,1.));
#280=DIRECTION('ref_axis',(1.,0.,0.));
#281=DIRECTION('center_axis',(0.,0.,-1.));
#282=DIRECTION('ref_axis',(1.,0.,0.));
#283=DIRECTION('center_axis',(0.,0.,1.));
#284=DIRECTION('ref_axis',(1.,0.,0.));
#285=DIRECTION('',(0.,0.,-1.));
#286=DIRECTION('center_axis',(0.,0.,1.));
#287=DIRECTION('ref_axis',(1.,0.,0.));
#288=DIRECTION('',(0.,0.,1.));
#289=DIRECTION('center_axis',(0.,0.,1.));
#290=DIRECTION('ref_axis',(1.,0.,0.));
#291=DIRECTION('center_axis',(0.,0.,1.));
#292=DIRECTION('ref_axis',(1.,0.,0.));
#293=DIRECTION('center_axis',(0.,0.,1.));
#294=DIRECTION('ref_axis',(1.,0.,0.));
#295=DIRECTION('center_axis',(0.,0.,1.));
#296=DIRECTION('ref_axis',(1.,0.,0.));
#297=DIRECTION('center_axis',(0.,0.,1.));
#298=DIRECTION('ref_axis',(1.,0.,0.));
#299=DIRECTION('center_axis',(0.,0.,-1.));
#300=DIRECTION('ref_axis',(1.,0.,0.));
#301=DIRECTION('center_axis',(0.,0.,1.));
#302=DIRECTION('ref_axis',(1.,0.,0.));
#303=DIRECTION('',(0.,0.,-1.));
#304=DIRECTION('center_axis',(0.,0.,-1.));
#305=DIRECTION('ref_axis',(1.,0.,0.));
#306=DIRECTION('',(0.,0.,-1.));
#307=DIRECTION('center_axis',(0.,0.,-1.));
#308=DIRECTION('ref_axis',(1.,0.,0.));
#309=DIRECTION('center_axis',(0.,0.,1.));
#310=DIRECTION('ref_axis',(1.,0.,0.));
#311=DIRECTION('center_axis',(0.,0.,-1.));
#312=DIRECTION('ref_axis',(1.,0.,0.));
#313=DIRECTION('center_axis',(0.,0.,-1.));
#314=DIRECTION('ref_axis',(1.,0.,0.));
#315=DIRECTION('center_axis',(0.,0.,1.));
#316=DIRECTION('ref_axis',(1.,0.,0.));
#317=DIRECTION('center_axis',(0.,0.,1.));
#318=DIRECTION('ref_axis',(1.,0.,0.));
#319=DIRECTION('center_axis',(0.,0.,-1.));
#320=DIRECTION('ref_axis',(1.,0.,0.));
#321=DIRECTION('center_axis',(0.,0.,1.));
#322=DIRECTION('ref_axis',(1.,0.,0.));
#323=DIRECTION('',(0.,0.,1.));
#324=DIRECTION('center_axis',(0.,0.,-1.));
#325=DIRECTION('ref_axis',(1.,0.,0.));
#326=DIRECTION('center_axis',(0.,0.,1.));
#327=DIRECTION('ref_axis',(1.,0.,0.));
#328=DIRECTION('',(0.,0.,1.));
#329=DIRECTION('center_axis',(0.,0.,1.));
#330=DIRECTION('ref_axis',(1.,0.,0.));
#331=DIRECTION('center_axis',(0.,0.,-1.));
#332=DIRECTION('ref_axis',(1.,0.,0.));
#333=DIRECTION('center_axis',(0.,0.,1.));
#334=DIRECTION('ref_axis',(1.,0.,0.));
#335=DIRECTION('',(0.,0.,-1.));
#336=DIRECTION('center_axis',(0.,0.,-1.));
#337=DIRECTION('ref_axis',(1.,0.,0.));
#338=DIRECTION('',(0.,0.,1.));
#339=DIRECTION('center_axis',(0.,0.,-1.));
#340=DIRECTION('ref_axis',(1.,0.,0.));
#341=DIRECTION('center_axis',(0.,0.,1.));
#342=DIRECTION('ref_axis',(1.,0.,0.));
#343=CARTESIAN_POINT('',(0.,0.,0.));
#344=CARTESIAN_POINT('Origin',(0.,0.,0.05));
#345=CARTESIAN_POINT('',(-0.9,1.10218211923262E-16,0.05));
#346=CARTESIAN_POINT('Origin',(0.,0.,0.05));
#347=CARTESIAN_POINT('',(-0.55,-6.73555739531044E-17,0.05));
#348=CARTESIAN_POINT('Origin',(0.,0.,0.05));
#349=CARTESIAN_POINT('Origin',(0.,0.,0.45));
#350=CARTESIAN_POINT('',(-0.9,-1.10218211923262E-16,0.45));
#351=CARTESIAN_POINT('Origin',(0.,0.,0.45));
#352=CARTESIAN_POINT('',(-0.55,6.73555739531044E-17,0.45));
#353=CARTESIAN_POINT('Origin',(0.,0.,0.45));
#354=CARTESIAN_POINT('Origin',(0.,0.,0.));
#355=CARTESIAN_POINT('',(-0.55,-6.73555739531044E-17,0.));
#356=CARTESIAN_POINT('Origin',(0.,0.,0.));
#357=CARTESIAN_POINT('',(-0.9,-1.10218211923262E-16,0.));
#358=CARTESIAN_POINT('Origin',(0.,0.,0.));
#359=CARTESIAN_POINT('',(-0.95,-1.16341445918999E-16,0.));
#360=CARTESIAN_POINT('Origin',(0.,0.,0.));
#361=CARTESIAN_POINT('',(-0.9125,-1.11749020422196E-16,0.));
#362=CARTESIAN_POINT('Origin',(0.,0.,0.));
#363=CARTESIAN_POINT('Origin',(0.,0.,0.5));
#364=CARTESIAN_POINT('',(-0.95,-1.16341445918999E-16,0.5));
#365=CARTESIAN_POINT('Origin',(0.,0.,0.5));
#366=CARTESIAN_POINT('',(-0.9125,-1.11749020422196E-16,0.5));
#367=CARTESIAN_POINT('Origin',(0.,0.,0.5));
#368=CARTESIAN_POINT('Origin',(0.,0.,0.));
#369=CARTESIAN_POINT('',(-0.95,-1.16341445918999E-16,0.));
#370=CARTESIAN_POINT('Origin',(0.,0.,0.5));
#371=CARTESIAN_POINT('',(-0.9125,-1.11749020422196E-16,0.495));
#372=CARTESIAN_POINT('',(-0.9125,1.11749020422196E-16,0.5));
#373=CARTESIAN_POINT('Origin',(0.,0.,0.495));
#374=CARTESIAN_POINT('Origin',(0.,0.,0.));
#375=CARTESIAN_POINT('',(-0.5375,-6.58247654541702E-17,0.));
#376=CARTESIAN_POINT('Origin',(0.,0.,0.));
#377=CARTESIAN_POINT('',(-0.5,-6.12323399573677E-17,0.));
#378=CARTESIAN_POINT('Origin',(0.,0.,0.));
#379=CARTESIAN_POINT('Origin',(0.,0.,0.5));
#380=CARTESIAN_POINT('',(-0.5375,-6.58247654541702E-17,0.5));
#381=CARTESIAN_POINT('Origin',(0.,0.,0.5));
#382=CARTESIAN_POINT('',(-0.5,-6.12323399573677E-17,0.5));
#383=CARTESIAN_POINT('Origin',(0.,0.,0.5));
#384=CARTESIAN_POINT('Origin',(0.,0.,0.));
#385=CARTESIAN_POINT('',(-0.5,-6.12323399573677E-17,0.));
#386=CARTESIAN_POINT('Origin',(0.,0.,0.5));
#387=CARTESIAN_POINT('',(-0.5375,-6.58247654541702E-17,0.495));
#388=CARTESIAN_POINT('Origin',(0.,0.,0.495));
#389=CARTESIAN_POINT('',(-0.5375,6.58247654541702E-17,0.5));
#390=CARTESIAN_POINT('Origin',(0.,0.,0.495));
#391=CARTESIAN_POINT('Origin',(0.,0.,0.));
#392=CARTESIAN_POINT('',(-0.9125,-1.11749020422196E-16,0.005));
#393=CARTESIAN_POINT('Origin',(0.,0.,0.005));
#394=CARTESIAN_POINT('',(-0.9125,1.11749020422196E-16,0.));
#395=CARTESIAN_POINT('Origin',(0.,0.,0.));
#396=CARTESIAN_POINT('',(-0.5375,-6.58247654541702E-17,0.005));
#397=CARTESIAN_POINT('',(-0.5375,6.58247654541702E-17,0.));
#398=CARTESIAN_POINT('Origin',(0.,0.,0.005));
#399=CARTESIAN_POINT('Origin',(0.,0.,0.005));
#400=UNCERTAINTY_MEASURE_WITH_UNIT(LENGTH_MEASURE(0.001),#404,
'DISTANCE_ACCURACY_VALUE',
'Maximum model space distance between geometric entities at asserted c
onnectivities');
#401=UNCERTAINTY_MEASURE_WITH_UNIT(LENGTH_MEASURE(0.001),#404,
'DISTANCE_ACCURACY_VALUE',
'Maximum model space distance between geometric entities at asserted c
onnectivities');
#402=(
GEOMETRIC_REPRESENTATION_CONTEXT(3)
GLOBAL_UNCERTAINTY_ASSIGNED_CONTEXT((#400))
GLOBAL_UNIT_ASSIGNED_CONTEXT((#404,#405,#406))
REPRESENTATION_CONTEXT('','3D')
);
#403=(
GEOMETRIC_REPRESENTATION_CONTEXT(3)
GLOBAL_UNCERTAINTY_ASSIGNED_CONTEXT((#401))
GLOBAL_UNIT_ASSIGNED_CONTEXT((#404,#405,#406))
REPRESENTATION_CONTEXT('','3D')
);
#404=(
LENGTH_UNIT()
NAMED_UNIT(*)
SI_UNIT(.CENTI.,.METRE.)
);
#405=(
NAMED_UNIT(*)
PLANE_ANGLE_UNIT()
SI_UNIT($,.RADIAN.)
);
#406=(
NAMED_UNIT(*)
SI_UNIT($,.STERADIAN.)
SOLID_ANGLE_UNIT()
);
#407=SHAPE_DEFINITION_REPRESENTATION(#408,#409);
#408=PRODUCT_DEFINITION_SHAPE('',$,#411);
#409=SHAPE_REPRESENTATION('',(#236),#402);
#410=PRODUCT_DEFINITION_CONTEXT('part definition',#415,'design');
#411=PRODUCT_DEFINITION('61800 Bearing','61800 Bearing',#412,#410);
#412=PRODUCT_DEFINITION_FORMATION('',$,#417);
#413=PRODUCT_RELATED_PRODUCT_CATEGORY('61800 Bearing','61800 Bearing',(#417));
#414=APPLICATION_PROTOCOL_DEFINITION('international standard',
'automotive_design',2009,#415);
#415=APPLICATION_CONTEXT(
'Core Data for Automotive Mechanical Design Process');
#416=PRODUCT_CONTEXT('part definition',#415,'mechanical');
#417=PRODUCT('61800 Bearing','61800 Bearing',$,(#416));
#418=PRESENTATION_STYLE_ASSIGNMENT((#420));
#419=PRESENTATION_STYLE_ASSIGNMENT((#421));
#420=SURFACE_STYLE_USAGE(.BOTH.,#426);
#421=SURFACE_STYLE_USAGE(.BOTH.,#427);
#422=SURFACE_STYLE_RENDERING_WITH_PROPERTIES($,#434,(#424));
#423=SURFACE_STYLE_RENDERING_WITH_PROPERTIES($,#435,(#425));
#424=SURFACE_STYLE_TRANSPARENT(0.);
#425=SURFACE_STYLE_TRANSPARENT(0.);
#426=SURFACE_SIDE_STYLE('',(#428,#422));
#427=SURFACE_SIDE_STYLE('',(#429,#423));
#428=SURFACE_STYLE_FILL_AREA(#430);
#429=SURFACE_STYLE_FILL_AREA(#431);
#430=FILL_AREA_STYLE('',(#432));
#431=FILL_AREA_STYLE('',(#433));
#432=FILL_AREA_STYLE_COLOUR('',#434);
#433=FILL_AREA_STYLE_COLOUR('',#435);
#434=COLOUR_RGB('',0.745098039215686,0.737254901960784,0.729411764705882);
#435=COLOUR_RGB('',0.627450980392157,0.627450980392157,0.627450980392157);
ENDSEC;
END-ISO-10303-21;
