ISO-10303-21;
HEADER;
/* Generated by software containing ST-Developer
 * from STEP Tools, Inc. (www.steptools.com) 
 */

FILE_DESCRIPTION(
/* description */ (''),
/* implementation_level */ '2;1');

FILE_NAME(
/* name */ 
'S:\\Future Scope 1\\WIP\\Client Category\\Tom\\02 Progressive Work\\6
mm Washer.stp',
/* time_stamp */ '2025-11-05T12:14:33+06:00',
/* author */ ('SD'),
/* organization */ (''),
/* preprocessor_version */ 'ST-DEVELOPER v18.1',
/* originating_system */ 'Autodesk Inventor 2021',
/* authorisation */ '');

FILE_SCHEMA (('AUTOMOTIVE_DESIGN { 1 0 10303 214 3 1 1 }'));
ENDSEC;

DATA;
#10=MECHANICAL_DESIGN_GEOMETRIC_PRESENTATION_REPRESENTATION('',(#13),#251);
#11=SHAPE_REPRESENTATION_RELATIONSHIP('SRR','None',#258,#12);
#12=ADVANCED_BREP_SHAPE_REPRESENTATION('',(#14),#250);
#13=STYLED_ITEM('',(#267),#14);
#14=MANIFOLD_SOLID_BREP('Solid1',#131);
#15=CYLINDRICAL_SURFACE('',#156,3.);
#16=CYLINDRICAL_SURFACE('',#161,6.);
#17=FACE_BOUND('',#31,.T.);
#18=FACE_BOUND('',#37,.T.);
#19=PLANE('',#154);
#20=PLANE('',#166);
#21=FACE_OUTER_BOUND('',#29,.T.);
#22=FACE_OUTER_BOUND('',#30,.T.);
#23=FACE_OUTER_BOUND('',#32,.T.);
#24=FACE_OUTER_BOUND('',#33,.T.);
#25=FACE_OUTER_BOUND('',#34,.T.);
#26=FACE_OUTER_BOUND('',#35,.T.);
#27=FACE_OUTER_BOUND('',#36,.T.);
#28=FACE_OUTER_BOUND('',#38,.T.);
#29=EDGE_LOOP('',(#87,#88,#89,#90));
#30=EDGE_LOOP('',(#91));
#31=EDGE_LOOP('',(#92));
#32=EDGE_LOOP('',(#93,#94,#95,#96));
#33=EDGE_LOOP('',(#97,#98,#99,#100,#101));
#34=EDGE_LOOP('',(#102,#103,#104,#105,#106,#107));
#35=EDGE_LOOP('',(#108,#109,#110,#111));
#36=EDGE_LOOP('',(#112));
#37=EDGE_LOOP('',(#113));
#38=EDGE_LOOP('',(#114,#115,#116,#117,#118));
#39=LINE('',#218,#45);
#40=LINE('',#226,#46);
#41=LINE('',#232,#47);
#42=LINE('',#238,#48);
#43=LINE('',#242,#49);
#44=LINE('',#247,#50);
#45=VECTOR('',#175,3.1);
#46=VECTOR('',#186,3.);
#47=VECTOR('',#193,5.9);
#48=VECTOR('',#200,6.);
#49=VECTOR('',#205,3.1);
#50=VECTOR('',#212,5.9);
#51=CIRCLE('',#152,3.);
#52=CIRCLE('',#153,3.2);
#53=CIRCLE('',#155,5.8);
#54=CIRCLE('',#157,3.);
#55=CIRCLE('',#159,6.);
#56=CIRCLE('',#160,6.);
#57=CIRCLE('',#162,6.);
#58=CIRCLE('',#163,6.);
#59=CIRCLE('',#165,3.2);
#60=CIRCLE('',#167,5.8);
#61=VERTEX_POINT('',#215);
#62=VERTEX_POINT('',#217);
#63=VERTEX_POINT('',#221);
#64=VERTEX_POINT('',#224);
#65=VERTEX_POINT('',#228);
#66=VERTEX_POINT('',#229);
#67=VERTEX_POINT('',#234);
#68=VERTEX_POINT('',#235);
#69=VERTEX_POINT('',#240);
#70=VERTEX_POINT('',#244);
#71=EDGE_CURVE('',#61,#61,#51,.T.);
#72=EDGE_CURVE('',#61,#62,#39,.T.);
#73=EDGE_CURVE('',#62,#62,#52,.T.);
#74=EDGE_CURVE('',#63,#63,#53,.T.);
#75=EDGE_CURVE('',#64,#64,#54,.T.);
#76=EDGE_CURVE('',#64,#61,#40,.T.);
#77=EDGE_CURVE('',#65,#66,#55,.T.);
#78=EDGE_CURVE('',#66,#65,#56,.T.);
#79=EDGE_CURVE('',#65,#63,#41,.T.);
#80=EDGE_CURVE('',#67,#68,#57,.T.);
#81=EDGE_CURVE('',#68,#67,#58,.T.);
#82=EDGE_CURVE('',#68,#66,#42,.T.);
#83=EDGE_CURVE('',#69,#69,#59,.T.);
#84=EDGE_CURVE('',#69,#64,#43,.T.);
#85=EDGE_CURVE('',#70,#70,#60,.T.);
#86=EDGE_CURVE('',#70,#67,#44,.T.);
#87=ORIENTED_EDGE('',*,*,#71,.T.);
#88=ORIENTED_EDGE('',*,*,#72,.T.);
#89=ORIENTED_EDGE('',*,*,#73,.T.);
#90=ORIENTED_EDGE('',*,*,#72,.F.);
#91=ORIENTED_EDGE('',*,*,#74,.F.);
#92=ORIENTED_EDGE('',*,*,#73,.F.);
#93=ORIENTED_EDGE('',*,*,#75,.F.);
#94=ORIENTED_EDGE('',*,*,#76,.T.);
#95=ORIENTED_EDGE('',*,*,#71,.F.);
#96=ORIENTED_EDGE('',*,*,#76,.F.);
#97=ORIENTED_EDGE('',*,*,#77,.T.);
#98=ORIENTED_EDGE('',*,*,#78,.T.);
#99=ORIENTED_EDGE('',*,*,#79,.T.);
#100=ORIENTED_EDGE('',*,*,#74,.T.);
#101=ORIENTED_EDGE('',*,*,#79,.F.);
#102=ORIENTED_EDGE('',*,*,#80,.F.);
#103=ORIENTED_EDGE('',*,*,#81,.F.);
#104=ORIENTED_EDGE('',*,*,#82,.T.);
#105=ORIENTED_EDGE('',*,*,#77,.F.);
#106=ORIENTED_EDGE('',*,*,#78,.F.);
#107=ORIENTED_EDGE('',*,*,#82,.F.);
#108=ORIENTED_EDGE('',*,*,#83,.T.);
#109=ORIENTED_EDGE('',*,*,#84,.T.);
#110=ORIENTED_EDGE('',*,*,#75,.T.);
#111=ORIENTED_EDGE('',*,*,#84,.F.);
#112=ORIENTED_EDGE('',*,*,#85,.F.);
#113=ORIENTED_EDGE('',*,*,#83,.F.);
#114=ORIENTED_EDGE('',*,*,#85,.T.);
#115=ORIENTED_EDGE('',*,*,#86,.T.);
#116=ORIENTED_EDGE('',*,*,#80,.T.);
#117=ORIENTED_EDGE('',*,*,#81,.T.);
#118=ORIENTED_EDGE('',*,*,#86,.F.);
#119=CONICAL_SURFACE('',#151,3.1,0.785398163397449);
#120=CONICAL_SURFACE('',#158,5.9,0.785398163397449);
#121=CONICAL_SURFACE('',#164,3.1,0.785398163397448);
#122=CONICAL_SURFACE('',#168,5.9,0.785398163397448);
#123=ADVANCED_FACE('',(#21),#119,.F.);
#124=ADVANCED_FACE('',(#22,#17),#19,.F.);
#125=ADVANCED_FACE('',(#23),#15,.F.);
#126=ADVANCED_FACE('',(#24),#120,.T.);
#127=ADVANCED_FACE('',(#25),#16,.T.);
#128=ADVANCED_FACE('',(#26),#121,.F.);
#129=ADVANCED_FACE('',(#27,#18),#20,.T.);
#130=ADVANCED_FACE('',(#28),#122,.T.);
#131=CLOSED_SHELL('',(#123,#124,#125,#126,#127,#128,#129,#130));
#132=DERIVED_UNIT_ELEMENT(#134,1.);
#133=DERIVED_UNIT_ELEMENT(#253,3.);
#134=(
MASS_UNIT()
NAMED_UNIT(*)
SI_UNIT($,.GRAM.)
);
#135=DERIVED_UNIT((#132,#133));
#136=MEASURE_REPRESENTATION_ITEM('density measure',
POSITIVE_RATIO_MEASURE(7.85),#135);
#137=PROPERTY_DEFINITION_REPRESENTATION(#142,#139);
#138=PROPERTY_DEFINITION_REPRESENTATION(#143,#140);
#139=REPRESENTATION('material name',(#141),#250);
#140=REPRESENTATION('density',(#136),#250);
#141=DESCRIPTIVE_REPRESENTATION_ITEM('Mild Steel S355 J2',
'Mild Steel S355 J2');
#142=PROPERTY_DEFINITION('material property','material name',#260);
#143=PROPERTY_DEFINITION('material property','density of part',#260);
#144=DATE_TIME_ROLE('creation_date');
#145=APPLIED_DATE_AND_TIME_ASSIGNMENT(#146,#144,(#260));
#146=DATE_AND_TIME(#147,#148);
#147=CALENDAR_DATE(2025,16,9);
#148=LOCAL_TIME(0,0,0.,#149);
#149=COORDINATED_UNIVERSAL_TIME_OFFSET(0,0,.BEHIND.);
#150=AXIS2_PLACEMENT_3D('placement',#213,#169,#170);
#151=AXIS2_PLACEMENT_3D('',#214,#171,#172);
#152=AXIS2_PLACEMENT_3D('',#216,#173,#174);
#153=AXIS2_PLACEMENT_3D('',#219,#176,#177);
#154=AXIS2_PLACEMENT_3D('',#220,#178,#179);
#155=AXIS2_PLACEMENT_3D('',#222,#180,#181);
#156=AXIS2_PLACEMENT_3D('',#223,#182,#183);
#157=AXIS2_PLACEMENT_3D('',#225,#184,#185);
#158=AXIS2_PLACEMENT_3D('',#227,#187,#188);
#159=AXIS2_PLACEMENT_3D('',#230,#189,#190);
#160=AXIS2_PLACEMENT_3D('',#231,#191,#192);
#161=AXIS2_PLACEMENT_3D('',#233,#194,#195);
#162=AXIS2_PLACEMENT_3D('',#236,#196,#197);
#163=AXIS2_PLACEMENT_3D('',#237,#198,#199);
#164=AXIS2_PLACEMENT_3D('',#239,#201,#202);
#165=AXIS2_PLACEMENT_3D('',#241,#203,#204);
#166=AXIS2_PLACEMENT_3D('',#243,#206,#207);
#167=AXIS2_PLACEMENT_3D('',#245,#208,#209);
#168=AXIS2_PLACEMENT_3D('',#246,#210,#211);
#169=DIRECTION('axis',(0.,0.,1.));
#170=DIRECTION('refdir',(1.,0.,0.));
#171=DIRECTION('center_axis',(0.,-1.,0.));
#172=DIRECTION('ref_axis',(1.,0.,0.));
#173=DIRECTION('center_axis',(0.,1.,0.));
#174=DIRECTION('ref_axis',(1.,0.,0.));
#175=DIRECTION('',(-0.707106781186548,-0.707106781186547,8.65956056235494E-17));
#176=DIRECTION('center_axis',(0.,-1.,0.));
#177=DIRECTION('ref_axis',(1.,0.,0.));
#178=DIRECTION('center_axis',(0.,1.,0.));
#179=DIRECTION('ref_axis',(0.,0.,1.));
#180=DIRECTION('center_axis',(0.,1.,0.));
#181=DIRECTION('ref_axis',(1.,0.,0.));
#182=DIRECTION('center_axis',(0.,1.,0.));
#183=DIRECTION('ref_axis',(1.,0.,0.));
#184=DIRECTION('center_axis',(0.,-1.,0.));
#185=DIRECTION('ref_axis',(1.,0.,0.));
#186=DIRECTION('',(0.,-1.,0.));
#187=DIRECTION('center_axis',(0.,1.,0.));
#188=DIRECTION('ref_axis',(1.,0.,0.));
#189=DIRECTION('center_axis',(0.,-1.,0.));
#190=DIRECTION('ref_axis',(1.,0.,0.));
#191=DIRECTION('center_axis',(0.,-1.,0.));
#192=DIRECTION('ref_axis',(1.,0.,0.));
#193=DIRECTION('',(0.707106781186548,-0.707106781186547,-8.65956056235494E-17));
#194=DIRECTION('center_axis',(0.,1.,0.));
#195=DIRECTION('ref_axis',(-1.,0.,0.));
#196=DIRECTION('center_axis',(0.,1.,0.));
#197=DIRECTION('ref_axis',(1.,0.,0.));
#198=DIRECTION('center_axis',(0.,1.,0.));
#199=DIRECTION('ref_axis',(1.,0.,0.));
#200=DIRECTION('',(0.,-1.,0.));
#201=DIRECTION('center_axis',(0.,1.,0.));
#202=DIRECTION('ref_axis',(1.,0.,0.));
#203=DIRECTION('center_axis',(0.,1.,0.));
#204=DIRECTION('ref_axis',(1.,0.,0.));
#205=DIRECTION('',(0.707106781186547,-0.707106781186547,-8.65956056235493E-17));
#206=DIRECTION('center_axis',(0.,1.,0.));
#207=DIRECTION('ref_axis',(0.,0.,1.));
#208=DIRECTION('center_axis',(0.,-1.,0.));
#209=DIRECTION('ref_axis',(1.,0.,0.));
#210=DIRECTION('center_axis',(0.,-1.,0.));
#211=DIRECTION('ref_axis',(1.,0.,0.));
#212=DIRECTION('',(-0.707106781186548,-0.707106781186548,8.65956056235493E-17));
#213=CARTESIAN_POINT('',(0.,0.,0.));
#214=CARTESIAN_POINT('Origin',(0.,0.1,0.));
#215=CARTESIAN_POINT('',(-3.,0.2,3.67394039744206E-16));
#216=CARTESIAN_POINT('Origin',(0.,0.2,0.));
#217=CARTESIAN_POINT('',(-3.2,0.,-3.91886975727153E-16));
#218=CARTESIAN_POINT('',(-3.1,0.1,3.7964050773568E-16));
#219=CARTESIAN_POINT('Origin',(0.,0.,0.));
#220=CARTESIAN_POINT('Origin',(0.,0.,0.));
#221=CARTESIAN_POINT('',(-5.8,0.,7.10295143505465E-16));
#222=CARTESIAN_POINT('Origin',(0.,0.,0.));
#223=CARTESIAN_POINT('Origin',(0.,0.,0.));
#224=CARTESIAN_POINT('',(-3.,1.8,-3.67394039744206E-16));
#225=CARTESIAN_POINT('Origin',(0.,1.8,0.));
#226=CARTESIAN_POINT('',(-3.,0.,3.67394039744206E-16));
#227=CARTESIAN_POINT('Origin',(0.,0.1,0.));
#228=CARTESIAN_POINT('',(-6.,0.2,-7.34788079488412E-16));
#229=CARTESIAN_POINT('',(6.,0.2,-7.34788079488412E-16));
#230=CARTESIAN_POINT('Origin',(0.,0.2,0.));
#231=CARTESIAN_POINT('Origin',(0.,0.2,0.));
#232=CARTESIAN_POINT('',(-5.9,0.1,7.22541611496939E-16));
#233=CARTESIAN_POINT('Origin',(0.,0.,0.));
#234=CARTESIAN_POINT('',(-6.,1.8,7.34788079488412E-16));
#235=CARTESIAN_POINT('',(6.,1.8,-7.34788079488412E-16));
#236=CARTESIAN_POINT('Origin',(0.,1.8,0.));
#237=CARTESIAN_POINT('Origin',(0.,1.8,0.));
#238=CARTESIAN_POINT('',(6.,0.,-7.34788079488412E-16));
#239=CARTESIAN_POINT('Origin',(0.,1.9,0.));
#240=CARTESIAN_POINT('',(-3.2,2.,3.91886975727153E-16));
#241=CARTESIAN_POINT('Origin',(0.,2.,0.));
#242=CARTESIAN_POINT('',(-3.1,1.9,3.7964050773568E-16));
#243=CARTESIAN_POINT('Origin',(0.,2.,0.));
#244=CARTESIAN_POINT('',(-5.8,2.,-7.10295143505465E-16));
#245=CARTESIAN_POINT('Origin',(0.,2.,0.));
#246=CARTESIAN_POINT('Origin',(0.,1.9,0.));
#247=CARTESIAN_POINT('',(-5.9,1.9,7.22541611496939E-16));
#248=UNCERTAINTY_MEASURE_WITH_UNIT(LENGTH_MEASURE(0.01),#252,
'DISTANCE_ACCURACY_VALUE',
'Maximum model space distance between geometric entities at asserted c
onnectivities');
#249=UNCERTAINTY_MEASURE_WITH_UNIT(LENGTH_MEASURE(0.01),#252,
'DISTANCE_ACCURACY_VALUE',
'Maximum model space distance between geometric entities at asserted c
onnectivities');
#250=(
GEOMETRIC_REPRESENTATION_CONTEXT(3)
GLOBAL_UNCERTAINTY_ASSIGNED_CONTEXT((#248))
GLOBAL_UNIT_ASSIGNED_CONTEXT((#252,#254,#255))
REPRESENTATION_CONTEXT('','3D')
);
#251=(
GEOMETRIC_REPRESENTATION_CONTEXT(3)
GLOBAL_UNCERTAINTY_ASSIGNED_CONTEXT((#249))
GLOBAL_UNIT_ASSIGNED_CONTEXT((#252,#254,#255))
REPRESENTATION_CONTEXT('','3D')
);
#252=(
LENGTH_UNIT()
NAMED_UNIT(*)
SI_UNIT(.MILLI.,.METRE.)
);
#253=(
LENGTH_UNIT()
NAMED_UNIT(*)
SI_UNIT(.CENTI.,.METRE.)
);
#254=(
NAMED_UNIT(*)
PLANE_ANGLE_UNIT()
SI_UNIT($,.RADIAN.)
);
#255=(
NAMED_UNIT(*)
SI_UNIT($,.STERADIAN.)
SOLID_ANGLE_UNIT()
);
#256=SHAPE_DEFINITION_REPRESENTATION(#257,#258);
#257=PRODUCT_DEFINITION_SHAPE('',$,#260);
#258=SHAPE_REPRESENTATION('',(#150),#250);
#259=PRODUCT_DEFINITION_CONTEXT('part definition',#264,'design');
#260=PRODUCT_DEFINITION('6mm Washer','6mm Washer',#261,#259);
#261=PRODUCT_DEFINITION_FORMATION('',$,#266);
#262=PRODUCT_RELATED_PRODUCT_CATEGORY('6mm Washer','6mm Washer',(#266));
#263=APPLICATION_PROTOCOL_DEFINITION('international standard',
'automotive_design',2009,#264);
#264=APPLICATION_CONTEXT(
'Core Data for Automotive Mechanical Design Process');
#265=PRODUCT_CONTEXT('part definition',#264,'mechanical');
#266=PRODUCT('6mm Washer','6mm Washer',$,(#265));
#267=PRESENTATION_STYLE_ASSIGNMENT((#268));
#268=SURFACE_STYLE_USAGE(.BOTH.,#271);
#269=SURFACE_STYLE_RENDERING_WITH_PROPERTIES($,#275,(#270));
#270=SURFACE_STYLE_TRANSPARENT(0.);
#271=SURFACE_SIDE_STYLE('',(#272,#269));
#272=SURFACE_STYLE_FILL_AREA(#273);
#273=FILL_AREA_STYLE('',(#274));
#274=FILL_AREA_STYLE_COLOUR('',#275);
#275=COLOUR_RGB('',0.745098039215686,0.737254901960784,0.729411764705882);
ENDSEC;
END-ISO-10303-21;
