ISO-10303-21;
HEADER;
/* Generated by software containing ST-Developer
 * from STEP Tools, Inc. (www.steptools.com) 
 */

FILE_DESCRIPTION(
/* description */ ('Exported via iLogic'),
/* implementation_level */ '2;1');

FILE_NAME(
/* name */ 
'S:\\Future Scope 1\\WIP\\Client Category\\Tom\\02 Progressive Work\\H
ardware\\Allen Key 4x25mm.stp',
/* time_stamp */ '2025-10-28T18:05:20+06:00',
/* author */ ('iLogic Export'),
/* organization */ (''),
/* preprocessor_version */ 'ST-DEVELOPER v18.1',
/* originating_system */ 'Autodesk Inventor 2021',
/* authorisation */ '');

FILE_SCHEMA (('CONFIG_CONTROL_DESIGN'));
ENDSEC;

DATA;
#10=MECHANICAL_DESIGN_GEOMETRIC_PRESENTATION_REPRESENTATION('',(#13),#470);
#11=SHAPE_REPRESENTATION_RELATIONSHIP('SRR','None',#477,#12);
#12=ADVANCED_BREP_SHAPE_REPRESENTATION('',(#14),#469);
#13=STYLED_ITEM('',(#486),#14);
#14=MANIFOLD_SOLID_BREP('Solid1',#259);
#15=(
BOUNDED_CURVE()
B_SPLINE_CURVE(2,(#427,#428,#429),.UNSPECIFIED.,.F.,.F.)
B_SPLINE_CURVE_WITH_KNOTS((3,3),(0.,0.175265420711688),.UNSPECIFIED.)
CURVE()
GEOMETRIC_REPRESENTATION_ITEM()
RATIONAL_B_SPLINE_CURVE((1.,1.15470053837925,1.))
REPRESENTATION_ITEM('')
);
#16=(
BOUNDED_CURVE()
B_SPLINE_CURVE(2,(#434,#435,#436),.UNSPECIFIED.,.F.,.F.)
B_SPLINE_CURVE_WITH_KNOTS((3,3),(0.,0.175265420711687),.UNSPECIFIED.)
CURVE()
GEOMETRIC_REPRESENTATION_ITEM()
RATIONAL_B_SPLINE_CURVE((1.,1.15470053837925,1.))
REPRESENTATION_ITEM('')
);
#17=(
BOUNDED_CURVE()
B_SPLINE_CURVE(2,(#440,#441,#442),.UNSPECIFIED.,.F.,.F.)
B_SPLINE_CURVE_WITH_KNOTS((3,3),(0.,0.175265420711687),.UNSPECIFIED.)
CURVE()
GEOMETRIC_REPRESENTATION_ITEM()
RATIONAL_B_SPLINE_CURVE((1.,1.15470053837925,1.))
REPRESENTATION_ITEM('')
);
#18=(
BOUNDED_CURVE()
B_SPLINE_CURVE(2,(#446,#447,#448),.UNSPECIFIED.,.F.,.F.)
B_SPLINE_CURVE_WITH_KNOTS((3,3),(0.,0.175265420711688),.UNSPECIFIED.)
CURVE()
GEOMETRIC_REPRESENTATION_ITEM()
RATIONAL_B_SPLINE_CURVE((1.,1.15470053837925,1.))
REPRESENTATION_ITEM('')
);
#19=(
BOUNDED_CURVE()
B_SPLINE_CURVE(2,(#452,#453,#454),.UNSPECIFIED.,.F.,.F.)
B_SPLINE_CURVE_WITH_KNOTS((3,3),(0.,0.0876327103558437),.UNSPECIFIED.)
CURVE()
GEOMETRIC_REPRESENTATION_ITEM()
RATIONAL_B_SPLINE_CURVE((1.,1.07735026918962,1.07735026918962))
REPRESENTATION_ITEM('')
);
#20=(
BOUNDED_CURVE()
B_SPLINE_CURVE(2,(#457,#458,#459),.UNSPECIFIED.,.F.,.F.)
B_SPLINE_CURVE_WITH_KNOTS((3,3),(0.0876327103558437,0.175265420711687),
 .UNSPECIFIED.)
CURVE()
GEOMETRIC_REPRESENTATION_ITEM()
RATIONAL_B_SPLINE_CURVE((1.07735026918962,1.07735026918962,1.))
REPRESENTATION_ITEM('')
);
#21=(
BOUNDED_CURVE()
B_SPLINE_CURVE(2,(#461,#462,#463),.UNSPECIFIED.,.F.,.F.)
B_SPLINE_CURVE_WITH_KNOTS((3,3),(0.,0.175265420711687),.UNSPECIFIED.)
CURVE()
GEOMETRIC_REPRESENTATION_ITEM()
RATIONAL_B_SPLINE_CURVE((1.,1.15470053837925,1.))
REPRESENTATION_ITEM('')
);
#22=CONICAL_SURFACE('',#289,1.7852925,0.785398163397447);
#23=CONICAL_SURFACE('',#305,0.866025403784439,1.0471975511966);
#24=FACE_BOUND('',#87,.T.);
#25=FACE_BOUND('',#92,.T.);
#26=PLANE('',#287);
#27=PLANE('',#291);
#28=PLANE('',#297);
#29=PLANE('',#299);
#30=PLANE('',#300);
#31=PLANE('',#301);
#32=PLANE('',#302);
#33=PLANE('',#303);
#34=PLANE('',#304);
#35=LINE('',#392,#51);
#36=LINE('',#399,#52);
#37=LINE('',#412,#53);
#38=LINE('',#414,#54);
#39=LINE('',#416,#55);
#40=LINE('',#418,#56);
#41=LINE('',#420,#57);
#42=LINE('',#421,#58);
#43=LINE('',#423,#59);
#44=LINE('',#430,#60);
#45=LINE('',#431,#61);
#46=LINE('',#437,#62);
#47=LINE('',#443,#63);
#48=LINE('',#449,#64);
#49=LINE('',#456,#65);
#50=LINE('',#466,#66);
#51=VECTOR('',#324,2.);
#52=VECTOR('',#333,1.7852925);
#53=VECTOR('',#348,10.);
#54=VECTOR('',#349,10.);
#55=VECTOR('',#350,10.);
#56=VECTOR('',#351,10.);
#57=VECTOR('',#352,10.);
#58=VECTOR('',#353,10.);
#59=VECTOR('',#356,3.5);
#60=VECTOR('',#359,10.);
#61=VECTOR('',#360,10.);
#62=VECTOR('',#363,10.);
#63=VECTOR('',#366,10.);
#64=VECTOR('',#369,10.);
#65=VECTOR('',#372,10.);
#66=VECTOR('',#377,0.866025403784439);
#67=CYLINDRICAL_SURFACE('',#284,2.);
#68=CYLINDRICAL_SURFACE('',#298,3.5);
#69=FACE_OUTER_BOUND('',#84,.T.);
#70=FACE_OUTER_BOUND('',#85,.T.);
#71=FACE_OUTER_BOUND('',#86,.T.);
#72=FACE_OUTER_BOUND('',#88,.T.);
#73=FACE_OUTER_BOUND('',#89,.T.);
#74=FACE_OUTER_BOUND('',#90,.T.);
#75=FACE_OUTER_BOUND('',#91,.T.);
#76=FACE_OUTER_BOUND('',#93,.T.);
#77=FACE_OUTER_BOUND('',#94,.T.);
#78=FACE_OUTER_BOUND('',#95,.T.);
#79=FACE_OUTER_BOUND('',#96,.T.);
#80=FACE_OUTER_BOUND('',#97,.T.);
#81=FACE_OUTER_BOUND('',#98,.T.);
#82=FACE_OUTER_BOUND('',#99,.T.);
#83=FACE_OUTER_BOUND('',#100,.T.);
#84=EDGE_LOOP('',(#172,#173,#174,#175,#176));
#85=EDGE_LOOP('',(#177,#178,#179,#180,#181,#182));
#86=EDGE_LOOP('',(#183));
#87=EDGE_LOOP('',(#184));
#88=EDGE_LOOP('',(#185,#186,#187,#188,#189));
#89=EDGE_LOOP('',(#190));
#90=EDGE_LOOP('',(#191,#192,#193,#194,#195));
#91=EDGE_LOOP('',(#196));
#92=EDGE_LOOP('',(#197,#198,#199,#200,#201,#202));
#93=EDGE_LOOP('',(#203,#204,#205,#206,#207));
#94=EDGE_LOOP('',(#208,#209,#210,#211));
#95=EDGE_LOOP('',(#212,#213,#214,#215));
#96=EDGE_LOOP('',(#216,#217,#218,#219));
#97=EDGE_LOOP('',(#220,#221,#222,#223));
#98=EDGE_LOOP('',(#224,#225,#226,#227,#228));
#99=EDGE_LOOP('',(#229,#230,#231,#232));
#100=EDGE_LOOP('',(#233,#234,#235,#236,#237,#238,#239,#240,#241));
#101=CIRCLE('',#280,2.1);
#102=CIRCLE('',#281,0.1);
#103=CIRCLE('',#282,2.);
#104=CIRCLE('',#283,2.);
#105=CIRCLE('',#285,2.);
#106=CIRCLE('',#286,2.);
#107=CIRCLE('',#288,3.5);
#108=CIRCLE('',#290,1.570585);
#109=CIRCLE('',#293,3.5);
#110=CIRCLE('',#294,3.5);
#111=CIRCLE('',#295,0.4);
#112=CIRCLE('',#296,3.1);
#113=VERTEX_POINT('',#380);
#114=VERTEX_POINT('',#382);
#115=VERTEX_POINT('',#384);
#116=VERTEX_POINT('',#388);
#117=VERTEX_POINT('',#389);
#118=VERTEX_POINT('',#394);
#119=VERTEX_POINT('',#397);
#120=VERTEX_POINT('',#402);
#121=VERTEX_POINT('',#403);
#122=VERTEX_POINT('',#406);
#123=VERTEX_POINT('',#410);
#124=VERTEX_POINT('',#411);
#125=VERTEX_POINT('',#413);
#126=VERTEX_POINT('',#415);
#127=VERTEX_POINT('',#417);
#128=VERTEX_POINT('',#419);
#129=VERTEX_POINT('',#425);
#130=VERTEX_POINT('',#426);
#131=VERTEX_POINT('',#433);
#132=VERTEX_POINT('',#439);
#133=VERTEX_POINT('',#445);
#134=VERTEX_POINT('',#451);
#135=VERTEX_POINT('',#455);
#136=VERTEX_POINT('',#465);
#137=EDGE_CURVE('',#113,#113,#101,.T.);
#138=EDGE_CURVE('',#113,#114,#102,.T.);
#139=EDGE_CURVE('',#114,#115,#103,.T.);
#140=EDGE_CURVE('',#115,#114,#104,.T.);
#141=EDGE_CURVE('',#116,#117,#105,.T.);
#142=EDGE_CURVE('',#117,#116,#106,.T.);
#143=EDGE_CURVE('',#117,#115,#35,.T.);
#144=EDGE_CURVE('',#118,#118,#107,.T.);
#145=EDGE_CURVE('',#119,#119,#108,.T.);
#146=EDGE_CURVE('',#119,#116,#36,.T.);
#147=EDGE_CURVE('',#120,#121,#109,.T.);
#148=EDGE_CURVE('',#121,#120,#110,.T.);
#149=EDGE_CURVE('',#120,#122,#111,.T.);
#150=EDGE_CURVE('',#122,#122,#112,.T.);
#151=EDGE_CURVE('',#123,#124,#37,.T.);
#152=EDGE_CURVE('',#124,#125,#38,.T.);
#153=EDGE_CURVE('',#125,#126,#39,.T.);
#154=EDGE_CURVE('',#126,#127,#40,.T.);
#155=EDGE_CURVE('',#127,#128,#41,.T.);
#156=EDGE_CURVE('',#128,#123,#42,.T.);
#157=EDGE_CURVE('',#118,#121,#43,.T.);
#158=EDGE_CURVE('',#129,#130,#15,.T.);
#159=EDGE_CURVE('',#129,#128,#44,.T.);
#160=EDGE_CURVE('',#130,#127,#45,.T.);
#161=EDGE_CURVE('',#131,#129,#16,.T.);
#162=EDGE_CURVE('',#131,#123,#46,.T.);
#163=EDGE_CURVE('',#132,#131,#17,.T.);
#164=EDGE_CURVE('',#132,#124,#47,.T.);
#165=EDGE_CURVE('',#133,#132,#18,.T.);
#166=EDGE_CURVE('',#125,#133,#48,.T.);
#167=EDGE_CURVE('',#130,#134,#19,.T.);
#168=EDGE_CURVE('',#135,#126,#49,.T.);
#169=EDGE_CURVE('',#134,#135,#20,.T.);
#170=EDGE_CURVE('',#135,#133,#21,.T.);
#171=EDGE_CURVE('',#136,#134,#50,.T.);
#172=ORIENTED_EDGE('',*,*,#137,.T.);
#173=ORIENTED_EDGE('',*,*,#138,.T.);
#174=ORIENTED_EDGE('',*,*,#139,.T.);
#175=ORIENTED_EDGE('',*,*,#140,.T.);
#176=ORIENTED_EDGE('',*,*,#138,.F.);
#177=ORIENTED_EDGE('',*,*,#141,.F.);
#178=ORIENTED_EDGE('',*,*,#142,.F.);
#179=ORIENTED_EDGE('',*,*,#143,.T.);
#180=ORIENTED_EDGE('',*,*,#139,.F.);
#181=ORIENTED_EDGE('',*,*,#140,.F.);
#182=ORIENTED_EDGE('',*,*,#143,.F.);
#183=ORIENTED_EDGE('',*,*,#144,.T.);
#184=ORIENTED_EDGE('',*,*,#137,.F.);
#185=ORIENTED_EDGE('',*,*,#145,.T.);
#186=ORIENTED_EDGE('',*,*,#146,.T.);
#187=ORIENTED_EDGE('',*,*,#141,.T.);
#188=ORIENTED_EDGE('',*,*,#142,.T.);
#189=ORIENTED_EDGE('',*,*,#146,.F.);
#190=ORIENTED_EDGE('',*,*,#145,.F.);
#191=ORIENTED_EDGE('',*,*,#147,.T.);
#192=ORIENTED_EDGE('',*,*,#148,.T.);
#193=ORIENTED_EDGE('',*,*,#149,.T.);
#194=ORIENTED_EDGE('',*,*,#150,.T.);
#195=ORIENTED_EDGE('',*,*,#149,.F.);
#196=ORIENTED_EDGE('',*,*,#150,.F.);
#197=ORIENTED_EDGE('',*,*,#151,.T.);
#198=ORIENTED_EDGE('',*,*,#152,.T.);
#199=ORIENTED_EDGE('',*,*,#153,.T.);
#200=ORIENTED_EDGE('',*,*,#154,.T.);
#201=ORIENTED_EDGE('',*,*,#155,.T.);
#202=ORIENTED_EDGE('',*,*,#156,.T.);
#203=ORIENTED_EDGE('',*,*,#144,.F.);
#204=ORIENTED_EDGE('',*,*,#157,.T.);
#205=ORIENTED_EDGE('',*,*,#147,.F.);
#206=ORIENTED_EDGE('',*,*,#148,.F.);
#207=ORIENTED_EDGE('',*,*,#157,.F.);
#208=ORIENTED_EDGE('',*,*,#158,.F.);
#209=ORIENTED_EDGE('',*,*,#159,.T.);
#210=ORIENTED_EDGE('',*,*,#155,.F.);
#211=ORIENTED_EDGE('',*,*,#160,.F.);
#212=ORIENTED_EDGE('',*,*,#161,.F.);
#213=ORIENTED_EDGE('',*,*,#162,.T.);
#214=ORIENTED_EDGE('',*,*,#156,.F.);
#215=ORIENTED_EDGE('',*,*,#159,.F.);
#216=ORIENTED_EDGE('',*,*,#163,.F.);
#217=ORIENTED_EDGE('',*,*,#164,.T.);
#218=ORIENTED_EDGE('',*,*,#151,.F.);
#219=ORIENTED_EDGE('',*,*,#162,.F.);
#220=ORIENTED_EDGE('',*,*,#165,.F.);
#221=ORIENTED_EDGE('',*,*,#166,.F.);
#222=ORIENTED_EDGE('',*,*,#152,.F.);
#223=ORIENTED_EDGE('',*,*,#164,.F.);
#224=ORIENTED_EDGE('',*,*,#167,.F.);
#225=ORIENTED_EDGE('',*,*,#160,.T.);
#226=ORIENTED_EDGE('',*,*,#154,.F.);
#227=ORIENTED_EDGE('',*,*,#168,.F.);
#228=ORIENTED_EDGE('',*,*,#169,.F.);
#229=ORIENTED_EDGE('',*,*,#170,.F.);
#230=ORIENTED_EDGE('',*,*,#168,.T.);
#231=ORIENTED_EDGE('',*,*,#153,.F.);
#232=ORIENTED_EDGE('',*,*,#166,.T.);
#233=ORIENTED_EDGE('',*,*,#171,.T.);
#234=ORIENTED_EDGE('',*,*,#169,.T.);
#235=ORIENTED_EDGE('',*,*,#170,.T.);
#236=ORIENTED_EDGE('',*,*,#165,.T.);
#237=ORIENTED_EDGE('',*,*,#163,.T.);
#238=ORIENTED_EDGE('',*,*,#161,.T.);
#239=ORIENTED_EDGE('',*,*,#158,.T.);
#240=ORIENTED_EDGE('',*,*,#167,.T.);
#241=ORIENTED_EDGE('',*,*,#171,.F.);
#242=TOROIDAL_SURFACE('',#279,2.1,0.1);
#243=TOROIDAL_SURFACE('',#292,3.1,0.4);
#244=ADVANCED_FACE('',(#69),#242,.F.);
#245=ADVANCED_FACE('',(#70),#67,.T.);
#246=ADVANCED_FACE('',(#71,#24),#26,.T.);
#247=ADVANCED_FACE('',(#72),#22,.T.);
#248=ADVANCED_FACE('',(#73),#27,.T.);
#249=ADVANCED_FACE('',(#74),#243,.T.);
#250=ADVANCED_FACE('',(#75,#25),#28,.T.);
#251=ADVANCED_FACE('',(#76),#68,.T.);
#252=ADVANCED_FACE('',(#77),#29,.F.);
#253=ADVANCED_FACE('',(#78),#30,.F.);
#254=ADVANCED_FACE('',(#79),#31,.F.);
#255=ADVANCED_FACE('',(#80),#32,.F.);
#256=ADVANCED_FACE('',(#81),#33,.F.);
#257=ADVANCED_FACE('',(#82),#34,.F.);
#258=ADVANCED_FACE('',(#83),#23,.F.);
#259=CLOSED_SHELL('',(#244,#245,#246,#247,#248,#249,#250,#251,#252,#253,
#254,#255,#256,#257,#258));
#260=DERIVED_UNIT_ELEMENT(#262,1.);
#261=DERIVED_UNIT_ELEMENT(#472,3.);
#262=(
MASS_UNIT()
NAMED_UNIT(*)
SI_UNIT($,.GRAM.)
);
#263=DERIVED_UNIT((#260,#261));
#264=MEASURE_REPRESENTATION_ITEM('density measure',
POSITIVE_RATIO_MEASURE(7.75),#263);
#265=PROPERTY_DEFINITION_REPRESENTATION(#270,#267);
#266=PROPERTY_DEFINITION_REPRESENTATION(#271,#268);
#267=REPRESENTATION('material name',(#269),#469);
#268=REPRESENTATION('density',(#264),#469);
#269=DESCRIPTIVE_REPRESENTATION_ITEM('Stainless Steel, 440C',
'Stainless Steel, 440C');
#270=PROPERTY_DEFINITION('material property','material name',#479);
#271=PROPERTY_DEFINITION('material property','density of part',#479);
#272=DATE_TIME_ROLE('creation_date');
#273=CC_DESIGN_DATE_AND_TIME_ASSIGNMENT(#274,#272,(#479));
#274=DATE_AND_TIME(#275,#276);
#275=CALENDAR_DATE(2020,21,1);
#276=LOCAL_TIME(0,0,0.,#277);
#277=COORDINATED_UNIVERSAL_TIME_OFFSET(0,0,.BEHIND.);
#278=AXIS2_PLACEMENT_3D('placement',#378,#306,#307);
#279=AXIS2_PLACEMENT_3D('',#379,#308,#309);
#280=AXIS2_PLACEMENT_3D('',#381,#310,#311);
#281=AXIS2_PLACEMENT_3D('',#383,#312,#313);
#282=AXIS2_PLACEMENT_3D('',#385,#314,#315);
#283=AXIS2_PLACEMENT_3D('',#386,#316,#317);
#284=AXIS2_PLACEMENT_3D('',#387,#318,#319);
#285=AXIS2_PLACEMENT_3D('',#390,#320,#321);
#286=AXIS2_PLACEMENT_3D('',#391,#322,#323);
#287=AXIS2_PLACEMENT_3D('',#393,#325,#326);
#288=AXIS2_PLACEMENT_3D('',#395,#327,#328);
#289=AXIS2_PLACEMENT_3D('',#396,#329,#330);
#290=AXIS2_PLACEMENT_3D('',#398,#331,#332);
#291=AXIS2_PLACEMENT_3D('',#400,#334,#335);
#292=AXIS2_PLACEMENT_3D('',#401,#336,#337);
#293=AXIS2_PLACEMENT_3D('',#404,#338,#339);
#294=AXIS2_PLACEMENT_3D('',#405,#340,#341);
#295=AXIS2_PLACEMENT_3D('',#407,#342,#343);
#296=AXIS2_PLACEMENT_3D('',#408,#344,#345);
#297=AXIS2_PLACEMENT_3D('',#409,#346,#347);
#298=AXIS2_PLACEMENT_3D('',#422,#354,#355);
#299=AXIS2_PLACEMENT_3D('',#424,#357,#358);
#300=AXIS2_PLACEMENT_3D('',#432,#361,#362);
#301=AXIS2_PLACEMENT_3D('',#438,#364,#365);
#302=AXIS2_PLACEMENT_3D('',#444,#367,#368);
#303=AXIS2_PLACEMENT_3D('',#450,#370,#371);
#304=AXIS2_PLACEMENT_3D('',#460,#373,#374);
#305=AXIS2_PLACEMENT_3D('',#464,#375,#376);
#306=DIRECTION('axis',(0.,0.,1.));
#307=DIRECTION('refdir',(1.,0.,0.));
#308=DIRECTION('center_axis',(1.,4.63333075610231E-18,0.));
#309=DIRECTION('ref_axis',(0.,0.,-1.));
#310=DIRECTION('center_axis',(1.,4.63333075610231E-18,0.));
#311=DIRECTION('ref_axis',(4.63333075610231E-18,-1.,1.22464679914735E-16));
#312=DIRECTION('center_axis',(4.63333075610231E-18,-1.,-1.22464679914735E-16));
#313=DIRECTION('ref_axis',(0.,-1.22464679914735E-16,1.));
#314=DIRECTION('center_axis',(-1.,-4.63333075610231E-18,0.));
#315=DIRECTION('ref_axis',(8.67361737988403E-18,-1.,1.22464679914735E-16));
#316=DIRECTION('center_axis',(-1.,-4.63333075610231E-18,0.));
#317=DIRECTION('ref_axis',(8.67361737988403E-18,-1.,1.22464679914735E-16));
#318=DIRECTION('center_axis',(1.,4.63333075610231E-18,0.));
#319=DIRECTION('ref_axis',(0.,1.,0.));
#320=DIRECTION('center_axis',(1.,4.63333075610231E-18,0.));
#321=DIRECTION('ref_axis',(0.,-1.,0.));
#322=DIRECTION('center_axis',(1.,4.63333075610231E-18,0.));
#323=DIRECTION('ref_axis',(0.,-1.,0.));
#324=DIRECTION('',(-1.,-4.63333075610231E-18,0.));
#325=DIRECTION('center_axis',(1.,4.63333075610231E-18,0.));
#326=DIRECTION('ref_axis',(0.,0.,-1.));
#327=DIRECTION('center_axis',(1.,4.63333075610231E-18,0.));
#328=DIRECTION('ref_axis',(0.,1.,0.));
#329=DIRECTION('center_axis',(-1.,-4.63333075610231E-18,0.));
#330=DIRECTION('ref_axis',(2.03805252796753E-18,-1.,0.));
#331=DIRECTION('center_axis',(-1.,-4.63333075610231E-18,0.));
#332=DIRECTION('ref_axis',(4.63333075610231E-18,-1.,0.));
#333=DIRECTION('',(-0.707106781186549,0.707106781186546,8.65956056235492E-17));
#334=DIRECTION('center_axis',(1.,4.63333075610231E-18,0.));
#335=DIRECTION('ref_axis',(0.,0.,-1.));
#336=DIRECTION('center_axis',(1.,4.63333075610231E-18,0.));
#337=DIRECTION('ref_axis',(0.,0.,-1.));
#338=DIRECTION('center_axis',(-1.,-4.63333075610231E-18,0.));
#339=DIRECTION('ref_axis',(0.,-1.,1.22464679914735E-16));
#340=DIRECTION('center_axis',(-1.,-4.63333075610231E-18,0.));
#341=DIRECTION('ref_axis',(0.,-1.,1.22464679914735E-16));
#342=DIRECTION('center_axis',(4.63333075610231E-18,-1.,-1.22464679914735E-16));
#343=DIRECTION('ref_axis',(0.,-1.22464679914735E-16,1.));
#344=DIRECTION('center_axis',(1.,4.63333075610231E-18,0.));
#345=DIRECTION('ref_axis',(4.63333075610231E-18,-1.,1.22464679914735E-16));
#346=DIRECTION('center_axis',(-1.,-4.63333075610231E-18,0.));
#347=DIRECTION('ref_axis',(0.,0.,1.));
#348=DIRECTION('',(-1.48495369294301E-33,3.20493781063927E-16,1.));
#349=DIRECTION('',(4.01258213892036E-18,-0.866025403784438,0.5));
#350=DIRECTION('',(4.01258213892036E-18,-0.866025403784439,-0.5));
#351=DIRECTION('',(7.42476846471507E-34,-1.60246890531964E-16,-1.));
#352=DIRECTION('',(-4.01258213892036E-18,0.866025403784438,-0.5));
#353=DIRECTION('',(-4.01258213892036E-18,0.866025403784439,0.5));
#354=DIRECTION('center_axis',(1.,4.63333075610231E-18,0.));
#355=DIRECTION('ref_axis',(0.,1.,0.));
#356=DIRECTION('',(-1.,-4.63333075610231E-18,0.));
#357=DIRECTION('center_axis',(2.31666537805115E-18,-0.5,-0.866025403784439));
#358=DIRECTION('ref_axis',(-1.,0.,-2.67505475928024E-18));
#359=DIRECTION('',(-1.,-4.63333075610231E-18,0.));
#360=DIRECTION('',(-1.,-4.63333075610231E-18,0.));
#361=DIRECTION('center_axis',(-2.31666537805115E-18,0.5,-0.866025403784439));
#362=DIRECTION('ref_axis',(-1.,0.,2.67505475928024E-18));
#363=DIRECTION('',(-1.,-4.63333075610231E-18,0.));
#364=DIRECTION('center_axis',(-4.63333075610231E-18,1.,-3.20493781063927E-16));
#365=DIRECTION('ref_axis',(0.,3.20493781063927E-16,1.));
#366=DIRECTION('',(-1.,-4.63333075610231E-18,0.));
#367=DIRECTION('center_axis',(-2.31666537805115E-18,0.5,0.866025403784438));
#368=DIRECTION('ref_axis',(1.,0.,2.67505475928024E-18));
#369=DIRECTION('',(1.,4.63333075610231E-18,0.));
#370=DIRECTION('center_axis',(4.63333075610231E-18,-1.,1.60246890531964E-16));
#371=DIRECTION('ref_axis',(0.,-1.60246890531964E-16,-1.));
#372=DIRECTION('',(-1.,-4.63333075610231E-18,0.));
#373=DIRECTION('center_axis',(2.31666537805115E-18,-0.5,0.866025403784439));
#374=DIRECTION('ref_axis',(1.,0.,-2.67505475928024E-18));
#375=DIRECTION('center_axis',(-1.,-4.63333075610231E-18,0.));
#376=DIRECTION('ref_axis',(0.,1.,0.));
#377=DIRECTION('',(-0.5,-0.866025403784438,-1.06057523872491E-16));
#378=CARTESIAN_POINT('',(0.,0.,0.));
#379=CARTESIAN_POINT('Origin',(0.100000000000002,-1.15369935826947E-16,
0.));
#380=CARTESIAN_POINT('',(2.23779328401008E-15,-3.73009096723502E-16,2.1));
#381=CARTESIAN_POINT('Origin',(2.23779328401008E-15,-1.15833268902558E-16,
0.));
#382=CARTESIAN_POINT('',(0.100000000000002,-3.60299295656418E-16,2.));
#383=CARTESIAN_POINT('Origin',(0.100000000000002,-3.72545763647891E-16,
2.1));
#384=CARTESIAN_POINT('',(0.100000000000002,-2.,-2.44929359829471E-16));
#385=CARTESIAN_POINT('Origin',(0.100000000000002,-1.15369935826947E-16,
0.));
#386=CARTESIAN_POINT('Origin',(0.100000000000002,-1.15369935826947E-16,
0.));
#387=CARTESIAN_POINT('Origin',(13.375,-5.38624700396893E-17,0.));
#388=CARTESIAN_POINT('',(24.570585,2.,2.44929359829471E-16));
#389=CARTESIAN_POINT('',(24.570585,-2.,-2.44929359829471E-16));
#390=CARTESIAN_POINT('Origin',(24.570585,-1.98962172663166E-18,0.));
#391=CARTESIAN_POINT('Origin',(24.570585,-1.98962172663166E-18,0.));
#392=CARTESIAN_POINT('',(13.375,-2.,-2.44929359829471E-16));
#393=CARTESIAN_POINT('Origin',(2.22044604925031E-15,2.75,0.));
#394=CARTESIAN_POINT('',(-2.77555756156289E-16,-3.5,-4.28626379701574E-16));
#395=CARTESIAN_POINT('Origin',(0.,-1.15833268902558E-16,0.));
#396=CARTESIAN_POINT('Origin',(24.7852925,-9.94810863315823E-19,0.));
#397=CARTESIAN_POINT('',(25.,1.570585,-1.92341189303885E-16));
#398=CARTESIAN_POINT('Origin',(25.,1.15555796663234E-32,0.));
#399=CARTESIAN_POINT('',(24.7852925,1.7852925,2.18635274566678E-16));
#400=CARTESIAN_POINT('Origin',(25.,1.,0.));
#401=CARTESIAN_POINT('Origin',(-3.59999999999999,-1.32513259624526E-16,
0.));
#402=CARTESIAN_POINT('',(-3.59999999999999,-5.611396393261E-16,3.5));
#403=CARTESIAN_POINT('',(-3.59999999999999,-3.5,-4.28626379701574E-16));
#404=CARTESIAN_POINT('Origin',(-3.59999999999999,-1.32513259624526E-16,
0.));
#405=CARTESIAN_POINT('Origin',(-3.59999999999999,-1.32513259624526E-16,
0.));
#406=CARTESIAN_POINT('',(-3.99999999999999,-5.14007099662646E-16,3.1));
#407=CARTESIAN_POINT('Origin',(-3.59999999999999,-5.12153767360206E-16,
3.1));
#408=CARTESIAN_POINT('Origin',(-3.99999999999999,-1.34366591926967E-16,
0.));
#409=CARTESIAN_POINT('Origin',(-3.99999999999999,2.61602540378444,0.));
#410=CARTESIAN_POINT('',(-3.99999999999999,1.5,-0.866025403784439));
#411=CARTESIAN_POINT('',(-3.99999999999999,1.5,0.866025403784438));
#412=CARTESIAN_POINT('',(-3.99999999999999,1.5,0.433012701892219));
#413=CARTESIAN_POINT('',(-3.99999999999999,7.77484558180146E-17,1.73205080756888));
#414=CARTESIAN_POINT('',(-3.99999999999999,0.375,1.51554445662277));
#415=CARTESIAN_POINT('',(-3.99999999999999,-1.5,0.866025403784439));
#416=CARTESIAN_POINT('',(-3.99999999999999,-1.125,1.08253175473055));
#417=CARTESIAN_POINT('',(-3.99999999999999,-1.5,-0.866025403784438));
#418=CARTESIAN_POINT('',(-3.99999999999999,-1.5,-0.433012701892219));
#419=CARTESIAN_POINT('',(-3.99999999999999,-3.4325350726739E-16,-1.73205080756888));
#420=CARTESIAN_POINT('',(-3.99999999999999,-0.375,-1.51554445662277));
#421=CARTESIAN_POINT('',(-3.99999999999999,1.125,-1.08253175473055));
#422=CARTESIAN_POINT('Origin',(-2.,-1.25099930414762E-16,0.));
#423=CARTESIAN_POINT('',(-2.,-3.5,-4.28626379701574E-16));
#424=CARTESIAN_POINT('Origin',(-3.99999999999999,-3.4325350726739E-16,-1.73205080756888));
#425=CARTESIAN_POINT('',(-2.,9.26666151220462E-18,-1.73205080756888));
#426=CARTESIAN_POINT('',(-2.,-1.5,-0.866025403784438));
#427=CARTESIAN_POINT('Ctrl Pts',(-1.99999999999999,-1.82242369343536E-15,
-1.73205080756888));
#428=CARTESIAN_POINT('Ctrl Pts',(-1.74999999999999,-0.750000000000001,-1.29903810567666));
#429=CARTESIAN_POINT('Ctrl Pts',(-1.99999999999999,-1.5,-0.866025403784439));
#430=CARTESIAN_POINT('',(-2.99999999999999,0.,-1.73205080756888));
#431=CARTESIAN_POINT('',(-2.99999999999999,-1.5,-0.866025403784438));
#432=CARTESIAN_POINT('Origin',(-3.99999999999999,1.5,-0.866025403784439));
#433=CARTESIAN_POINT('',(-2.,1.5,-0.866025403784439));
#434=CARTESIAN_POINT('Ctrl Pts',(-1.99999999999999,1.5,-0.86602540378444));
#435=CARTESIAN_POINT('Ctrl Pts',(-1.75,0.75,-1.29903810567666));
#436=CARTESIAN_POINT('Ctrl Pts',(-1.99999999999999,1.36946750236196E-15,
-1.73205080756888));
#437=CARTESIAN_POINT('',(-2.99999999999999,1.5,-0.866025403784439));
#438=CARTESIAN_POINT('Origin',(-3.99999999999999,1.5,0.866025403784438));
#439=CARTESIAN_POINT('',(-2.,1.5,0.866025403784438));
#440=CARTESIAN_POINT('Ctrl Pts',(-1.99999999999999,1.5,0.866025403784436));
#441=CARTESIAN_POINT('Ctrl Pts',(-1.75,1.5,-8.57012583197335E-16));
#442=CARTESIAN_POINT('Ctrl Pts',(-1.99999999999999,1.5,-0.866025403784437));
#443=CARTESIAN_POINT('',(-2.99999999999999,1.5,0.866025403784438));
#444=CARTESIAN_POINT('Origin',(-3.99999999999999,-1.85333230244092E-17,
1.73205080756888));
#445=CARTESIAN_POINT('',(-2.,4.25600295746638E-16,1.73205080756888));
#446=CARTESIAN_POINT('Ctrl Pts',(-1.99999999999999,1.09191174620567E-15,
1.73205080756888));
#447=CARTESIAN_POINT('Ctrl Pts',(-1.74999999999999,0.75,1.29903810567666));
#448=CARTESIAN_POINT('Ctrl Pts',(-1.99999999999999,1.5,0.866025403784438));
#449=CARTESIAN_POINT('',(-2.99999999999999,4.16333634234434E-16,1.73205080756888));
#450=CARTESIAN_POINT('Origin',(-3.99999999999999,-1.5,-0.866025403784438));
#451=CARTESIAN_POINT('',(-1.86602540378443,-1.5,-2.68967862680059E-16));
#452=CARTESIAN_POINT('Ctrl Pts',(-1.99999999999999,-1.5,-0.866025403784437));
#453=CARTESIAN_POINT('Ctrl Pts',(-1.86602540378443,-1.5,-0.401923788646684));
#454=CARTESIAN_POINT('Ctrl Pts',(-1.86602540378443,-1.5,-3.54238705488015E-16));
#455=CARTESIAN_POINT('',(-2.,-1.5,0.866025403784438));
#456=CARTESIAN_POINT('',(-2.99999999999999,-1.5,0.866025403784438));
#457=CARTESIAN_POINT('Ctrl Pts',(-1.86602540378443,-1.5,-3.54238705488015E-16));
#458=CARTESIAN_POINT('Ctrl Pts',(-1.86602540378443,-1.5,0.401923788646684));
#459=CARTESIAN_POINT('Ctrl Pts',(-1.99999999999999,-1.5,0.866025403784438));
#460=CARTESIAN_POINT('Origin',(-3.99999999999999,-1.5,0.866025403784439));
#461=CARTESIAN_POINT('Ctrl Pts',(-1.99999999999999,-1.5,0.86602540378444));
#462=CARTESIAN_POINT('Ctrl Pts',(-1.75,-0.75,1.29903810567666));
#463=CARTESIAN_POINT('Ctrl Pts',(-1.99999999999999,-1.54486793727907E-15,
1.73205080756888));
#464=CARTESIAN_POINT('Origin',(-1.49999999999999,-1.22783265036711E-16,
0.));
#465=CARTESIAN_POINT('',(-0.999999999999994,-1.2046659965866E-16,0.));
#466=CARTESIAN_POINT('',(-1.49999999999999,-0.866025403784439,-1.06057523872491E-16));
#467=UNCERTAINTY_MEASURE_WITH_UNIT(LENGTH_MEASURE(0.01),#471,
'DISTANCE_ACCURACY_VALUE',
'Maximum model space distance between geometric entities at asserted c
onnectivities');
#468=UNCERTAINTY_MEASURE_WITH_UNIT(LENGTH_MEASURE(0.01),#471,
'DISTANCE_ACCURACY_VALUE',
'Maximum model space distance between geometric entities at asserted c
onnectivities');
#469=(
GEOMETRIC_REPRESENTATION_CONTEXT(3)
GLOBAL_UNCERTAINTY_ASSIGNED_CONTEXT((#467))
GLOBAL_UNIT_ASSIGNED_CONTEXT((#471,#473,#474))
REPRESENTATION_CONTEXT('','3D')
);
#470=(
GEOMETRIC_REPRESENTATION_CONTEXT(3)
GLOBAL_UNCERTAINTY_ASSIGNED_CONTEXT((#468))
GLOBAL_UNIT_ASSIGNED_CONTEXT((#471,#473,#474))
REPRESENTATION_CONTEXT('','3D')
);
#471=(
LENGTH_UNIT()
NAMED_UNIT(*)
SI_UNIT(.MILLI.,.METRE.)
);
#472=(
LENGTH_UNIT()
NAMED_UNIT(*)
SI_UNIT(.CENTI.,.METRE.)
);
#473=(
NAMED_UNIT(*)
PLANE_ANGLE_UNIT()
SI_UNIT($,.RADIAN.)
);
#474=(
NAMED_UNIT(*)
SI_UNIT($,.STERADIAN.)
SOLID_ANGLE_UNIT()
);
#475=SHAPE_DEFINITION_REPRESENTATION(#476,#477);
#476=PRODUCT_DEFINITION_SHAPE('',$,#479);
#477=SHAPE_REPRESENTATION('',(#278),#469);
#478=DESIGN_CONTEXT('part definition',#483,'design');
#479=PRODUCT_DEFINITION('ISO 4762 - M4 x 25','Allen Key 4x25mm',#480,#478);
#480=PRODUCT_DEFINITION_FORMATION('',$,#485);
#481=PRODUCT_RELATED_PRODUCT_CATEGORY('Allen Key 4x25mm',
'Allen Key 4x25mm',(#485));
#482=APPLICATION_PROTOCOL_DEFINITION('international standard',
'ap203_configuration_controlled_3d_design_of_mechanical_parts_and_asse
mblies_mim_lf',2004,#483);
#483=APPLICATION_CONTEXT(
'Configuration Controlled 3D Design of Mechanical Parts and Assemblies');
#484=MECHANICAL_CONTEXT('part definition',#483,'mechanical');
#485=PRODUCT('ISO 4762 - M4 x 25','Allen Key 4x25mm',
'Hexagon Socket Head Cap Screw',(#484));
#486=PRESENTATION_STYLE_ASSIGNMENT((#487));
#487=SURFACE_STYLE_USAGE(.BOTH.,#490);
#488=SURFACE_STYLE_RENDERING_WITH_PROPERTIES($,#494,(#489));
#489=SURFACE_STYLE_TRANSPARENT(0.);
#490=SURFACE_SIDE_STYLE('',(#491,#488));
#491=SURFACE_STYLE_FILL_AREA(#492);
#492=FILL_AREA_STYLE('',(#493));
#493=FILL_AREA_STYLE_COLOUR('',#494);
#494=COLOUR_RGB('',0.745098039215686,0.737254901960784,0.729411764705882);
ENDSEC;
END-ISO-10303-21;
