ISO-10303-21;
HEADER;
/* Generated by software containing ST-Developer
 * from STEP Tools, Inc. (www.steptools.com) 
 */

FILE_DESCRIPTION(
/* description */ (''),
/* implementation_level */ '2;1');

FILE_NAME(
/* name */ 
'S:\\Future Scope 1\\WIP\\Client Category\\Tom\\02 Progressive Work\\B
all Track Mounting Plate.stp',
/* time_stamp */ '2025-11-05T12:14:34+06:00',
/* author */ ('SD'),
/* organization */ (''),
/* preprocessor_version */ 'ST-DEVELOPER v18.1',
/* originating_system */ 'Autodesk Inventor 2021',
/* authorisation */ '');

FILE_SCHEMA (('AUTOMOTIVE_DESIGN { 1 0 10303 214 3 1 1 }'));
ENDSEC;

DATA;
#10=MECHANICAL_DESIGN_GEOMETRIC_PRESENTATION_REPRESENTATION('',(#13),#1006);
#11=SHAPE_REPRESENTATION_RELATIONSHIP('SRR','None',#1013,#12);
#12=ADVANCED_BREP_SHAPE_REPRESENTATION('',(#14),#1005);
#13=STYLED_ITEM('',(#1022),#14);
#14=MANIFOLD_SOLID_BREP('Solid1',#580);
#15=FACE_BOUND('',#112,.T.);
#16=FACE_BOUND('',#114,.T.);
#17=FACE_BOUND('',#116,.T.);
#18=FACE_BOUND('',#120,.T.);
#19=FACE_BOUND('',#123,.T.);
#20=FACE_BOUND('',#125,.T.);
#21=CONICAL_SURFACE('',#620,6.15,0.785398163397454);
#22=CONICAL_SURFACE('',#623,4.85,0.785398163397446);
#23=CONICAL_SURFACE('',#626,6.15,0.785398163397451);
#24=CONICAL_SURFACE('',#630,6.15,0.785398163397451);
#25=CONICAL_SURFACE('',#633,4.85,0.78539816339745);
#26=CONICAL_SURFACE('',#636,6.15,0.785398163397447);
#27=B_SPLINE_CURVE_WITH_KNOTS('',3,(#878,#879,#880,#881),.UNSPECIFIED.,
 .F.,.F.,(4,4),(0.,0.0500542695670361),.UNSPECIFIED.);
#28=B_SPLINE_CURVE_WITH_KNOTS('',3,(#900,#901,#902,#903),.UNSPECIFIED.,
 .F.,.F.,(4,4),(0.,0.0500542881577531),.UNSPECIFIED.);
#29=B_SPLINE_CURVE_WITH_KNOTS('',3,(#909,#910,#911,#912),.UNSPECIFIED.,
 .F.,.F.,(4,4),(0.,0.0500542695670343),.UNSPECIFIED.);
#30=B_SPLINE_CURVE_WITH_KNOTS('',3,(#936,#937,#938,#939),.UNSPECIFIED.,
 .F.,.F.,(4,4),(0.,0.0500542881577612),.UNSPECIFIED.);
#31=PLANE('',#609);
#32=PLANE('',#610);
#33=PLANE('',#611);
#34=PLANE('',#612);
#35=PLANE('',#613);
#36=PLANE('',#614);
#37=PLANE('',#615);
#38=PLANE('',#616);
#39=PLANE('',#617);
#40=PLANE('',#618);
#41=PLANE('',#619);
#42=PLANE('',#629);
#43=PLANE('',#645);
#44=PLANE('',#646);
#45=PLANE('',#647);
#46=PLANE('',#648);
#47=PLANE('',#653);
#48=PLANE('',#654);
#49=PLANE('',#655);
#50=PLANE('',#656);
#51=FACE_OUTER_BOUND('',#86,.T.);
#52=FACE_OUTER_BOUND('',#87,.T.);
#53=FACE_OUTER_BOUND('',#88,.T.);
#54=FACE_OUTER_BOUND('',#89,.T.);
#55=FACE_OUTER_BOUND('',#90,.T.);
#56=FACE_OUTER_BOUND('',#91,.T.);
#57=FACE_OUTER_BOUND('',#92,.T.);
#58=FACE_OUTER_BOUND('',#93,.T.);
#59=FACE_OUTER_BOUND('',#94,.T.);
#60=FACE_OUTER_BOUND('',#95,.T.);
#61=FACE_OUTER_BOUND('',#96,.T.);
#62=FACE_OUTER_BOUND('',#97,.T.);
#63=FACE_OUTER_BOUND('',#98,.T.);
#64=FACE_OUTER_BOUND('',#99,.T.);
#65=FACE_OUTER_BOUND('',#100,.T.);
#66=FACE_OUTER_BOUND('',#101,.T.);
#67=FACE_OUTER_BOUND('',#102,.T.);
#68=FACE_OUTER_BOUND('',#103,.T.);
#69=FACE_OUTER_BOUND('',#104,.T.);
#70=FACE_OUTER_BOUND('',#105,.T.);
#71=FACE_OUTER_BOUND('',#106,.T.);
#72=FACE_OUTER_BOUND('',#107,.T.);
#73=FACE_OUTER_BOUND('',#108,.T.);
#74=FACE_OUTER_BOUND('',#109,.T.);
#75=FACE_OUTER_BOUND('',#110,.T.);
#76=FACE_OUTER_BOUND('',#111,.T.);
#77=FACE_OUTER_BOUND('',#113,.T.);
#78=FACE_OUTER_BOUND('',#115,.T.);
#79=FACE_OUTER_BOUND('',#117,.T.);
#80=FACE_OUTER_BOUND('',#118,.T.);
#81=FACE_OUTER_BOUND('',#119,.T.);
#82=FACE_OUTER_BOUND('',#121,.T.);
#83=FACE_OUTER_BOUND('',#122,.T.);
#84=FACE_OUTER_BOUND('',#124,.T.);
#85=FACE_OUTER_BOUND('',#126,.T.);
#86=EDGE_LOOP('',(#378,#379,#380,#381));
#87=EDGE_LOOP('',(#382,#383,#384,#385));
#88=EDGE_LOOP('',(#386,#387,#388,#389));
#89=EDGE_LOOP('',(#390,#391,#392));
#90=EDGE_LOOP('',(#393,#394,#395));
#91=EDGE_LOOP('',(#396,#397,#398));
#92=EDGE_LOOP('',(#399,#400,#401,#402));
#93=EDGE_LOOP('',(#403,#404,#405,#406));
#94=EDGE_LOOP('',(#407,#408,#409));
#95=EDGE_LOOP('',(#410,#411,#412,#413));
#96=EDGE_LOOP('',(#414,#415,#416,#417));
#97=EDGE_LOOP('',(#418,#419,#420,#421));
#98=EDGE_LOOP('',(#422,#423,#424,#425));
#99=EDGE_LOOP('',(#426,#427,#428,#429));
#100=EDGE_LOOP('',(#430,#431,#432,#433));
#101=EDGE_LOOP('',(#434,#435,#436,#437));
#102=EDGE_LOOP('',(#438,#439,#440,#441));
#103=EDGE_LOOP('',(#442,#443,#444,#445));
#104=EDGE_LOOP('',(#446,#447,#448,#449));
#105=EDGE_LOOP('',(#450,#451,#452,#453));
#106=EDGE_LOOP('',(#454,#455,#456,#457));
#107=EDGE_LOOP('',(#458,#459,#460,#461));
#108=EDGE_LOOP('',(#462,#463,#464,#465));
#109=EDGE_LOOP('',(#466,#467,#468,#469));
#110=EDGE_LOOP('',(#470,#471,#472,#473,#474,#475,#476,#477));
#111=EDGE_LOOP('',(#478,#479,#480,#481,#482,#483));
#112=EDGE_LOOP('',(#484));
#113=EDGE_LOOP('',(#485,#486,#487,#488,#489,#490));
#114=EDGE_LOOP('',(#491));
#115=EDGE_LOOP('',(#492,#493,#494,#495));
#116=EDGE_LOOP('',(#496));
#117=EDGE_LOOP('',(#497,#498,#499,#500));
#118=EDGE_LOOP('',(#501,#502,#503,#504));
#119=EDGE_LOOP('',(#505,#506,#507,#508,#509,#510));
#120=EDGE_LOOP('',(#511));
#121=EDGE_LOOP('',(#512,#513,#514,#515,#516,#517,#518,#519));
#122=EDGE_LOOP('',(#520,#521,#522,#523));
#123=EDGE_LOOP('',(#524));
#124=EDGE_LOOP('',(#525,#526,#527,#528,#529,#530));
#125=EDGE_LOOP('',(#531));
#126=EDGE_LOOP('',(#532,#533,#534,#535));
#127=LINE('',#835,#178);
#128=LINE('',#841,#179);
#129=LINE('',#847,#180);
#130=LINE('',#852,#181);
#131=LINE('',#854,#182);
#132=LINE('',#855,#183);
#133=LINE('',#859,#184);
#134=LINE('',#861,#185);
#135=LINE('',#862,#186);
#136=LINE('',#866,#187);
#137=LINE('',#868,#188);
#138=LINE('',#869,#189);
#139=LINE('',#871,#190);
#140=LINE('',#872,#191);
#141=LINE('',#875,#192);
#142=LINE('',#877,#193);
#143=LINE('',#885,#194);
#144=LINE('',#887,#195);
#145=LINE('',#888,#196);
#146=LINE('',#890,#197);
#147=LINE('',#891,#198);
#148=LINE('',#893,#199);
#149=LINE('',#894,#200);
#150=LINE('',#897,#201);
#151=LINE('',#899,#202);
#152=LINE('',#906,#203);
#153=LINE('',#908,#204);
#154=LINE('',#914,#205);
#155=LINE('',#915,#206);
#156=LINE('',#920,#207);
#157=LINE('',#925,#208);
#158=LINE('',#933,#209);
#159=LINE('',#935,#210);
#160=LINE('',#944,#211);
#161=LINE('',#949,#212);
#162=LINE('',#957,#213);
#163=LINE('',#960,#214);
#164=LINE('',#963,#215);
#165=LINE('',#967,#216);
#166=LINE('',#971,#217);
#167=LINE('',#973,#218);
#168=LINE('',#975,#219);
#169=LINE('',#976,#220);
#170=LINE('',#982,#221);
#171=LINE('',#986,#222);
#172=LINE('',#989,#223);
#173=LINE('',#992,#224);
#174=LINE('',#993,#225);
#175=LINE('',#996,#226);
#176=LINE('',#997,#227);
#177=LINE('',#999,#228);
#178=VECTOR('',#665,1.75);
#179=VECTOR('',#672,1.5);
#180=VECTOR('',#679,1.5);
#181=VECTOR('',#684,10.);
#182=VECTOR('',#685,10.);
#183=VECTOR('',#686,10.);
#184=VECTOR('',#689,10.);
#185=VECTOR('',#690,10.);
#186=VECTOR('',#691,10.);
#187=VECTOR('',#694,10.);
#188=VECTOR('',#695,10.);
#189=VECTOR('',#696,10.);
#190=VECTOR('',#699,10.);
#191=VECTOR('',#700,10.);
#192=VECTOR('',#703,10.);
#193=VECTOR('',#704,10.);
#194=VECTOR('',#707,10.);
#195=VECTOR('',#708,10.);
#196=VECTOR('',#709,10.);
#197=VECTOR('',#712,10.);
#198=VECTOR('',#713,10.);
#199=VECTOR('',#716,10.);
#200=VECTOR('',#717,10.);
#201=VECTOR('',#720,10.);
#202=VECTOR('',#721,10.);
#203=VECTOR('',#724,10.);
#204=VECTOR('',#725,10.);
#205=VECTOR('',#728,10.);
#206=VECTOR('',#729,10.);
#207=VECTOR('',#734,10.);
#208=VECTOR('',#739,10.);
#209=VECTOR('',#752,10.);
#210=VECTOR('',#753,10.);
#211=VECTOR('',#758,10.);
#212=VECTOR('',#763,10.);
#213=VECTOR('',#776,6.);
#214=VECTOR('',#779,10.);
#215=VECTOR('',#782,6.);
#216=VECTOR('',#787,10.);
#217=VECTOR('',#792,10.);
#218=VECTOR('',#793,10.);
#219=VECTOR('',#794,10.);
#220=VECTOR('',#795,10.);
#221=VECTOR('',#804,6.);
#222=VECTOR('',#809,10.);
#223=VECTOR('',#812,6.);
#224=VECTOR('',#815,10.);
#225=VECTOR('',#816,10.);
#226=VECTOR('',#819,10.);
#227=VECTOR('',#820,10.);
#228=VECTOR('',#823,10.);
#229=CIRCLE('',#601,1.75);
#230=CIRCLE('',#602,1.75);
#231=CIRCLE('',#604,1.5);
#232=CIRCLE('',#605,1.5);
#233=CIRCLE('',#607,1.5);
#234=CIRCLE('',#608,1.5);
#235=CIRCLE('',#621,6.);
#236=CIRCLE('',#622,6.30000000000001);
#237=CIRCLE('',#624,4.7);
#238=CIRCLE('',#625,5.);
#239=CIRCLE('',#627,6.3);
#240=CIRCLE('',#628,6.);
#241=CIRCLE('',#631,6.3);
#242=CIRCLE('',#632,6.);
#243=CIRCLE('',#634,5.);
#244=CIRCLE('',#635,4.7);
#245=CIRCLE('',#637,6.);
#246=CIRCLE('',#638,6.3);
#247=CIRCLE('',#640,6.);
#248=CIRCLE('',#642,5.);
#249=CIRCLE('',#644,6.);
#250=CIRCLE('',#650,6.);
#251=CIRCLE('',#652,6.);
#252=CIRCLE('',#657,5.);
#253=VERTEX_POINT('',#832);
#254=VERTEX_POINT('',#834);
#255=VERTEX_POINT('',#838);
#256=VERTEX_POINT('',#840);
#257=VERTEX_POINT('',#844);
#258=VERTEX_POINT('',#846);
#259=VERTEX_POINT('',#850);
#260=VERTEX_POINT('',#851);
#261=VERTEX_POINT('',#853);
#262=VERTEX_POINT('',#857);
#263=VERTEX_POINT('',#858);
#264=VERTEX_POINT('',#860);
#265=VERTEX_POINT('',#864);
#266=VERTEX_POINT('',#865);
#267=VERTEX_POINT('',#867);
#268=VERTEX_POINT('',#874);
#269=VERTEX_POINT('',#876);
#270=VERTEX_POINT('',#883);
#271=VERTEX_POINT('',#884);
#272=VERTEX_POINT('',#886);
#273=VERTEX_POINT('',#896);
#274=VERTEX_POINT('',#898);
#275=VERTEX_POINT('',#905);
#276=VERTEX_POINT('',#907);
#277=VERTEX_POINT('',#917);
#278=VERTEX_POINT('',#919);
#279=VERTEX_POINT('',#923);
#280=VERTEX_POINT('',#924);
#281=VERTEX_POINT('',#932);
#282=VERTEX_POINT('',#934);
#283=VERTEX_POINT('',#941);
#284=VERTEX_POINT('',#943);
#285=VERTEX_POINT('',#947);
#286=VERTEX_POINT('',#948);
#287=VERTEX_POINT('',#956);
#288=VERTEX_POINT('',#958);
#289=VERTEX_POINT('',#962);
#290=VERTEX_POINT('',#966);
#291=VERTEX_POINT('',#970);
#292=VERTEX_POINT('',#972);
#293=VERTEX_POINT('',#974);
#294=VERTEX_POINT('',#981);
#295=VERTEX_POINT('',#985);
#296=VERTEX_POINT('',#987);
#297=VERTEX_POINT('',#991);
#298=VERTEX_POINT('',#995);
#299=EDGE_CURVE('',#253,#253,#229,.T.);
#300=EDGE_CURVE('',#253,#254,#127,.T.);
#301=EDGE_CURVE('',#254,#254,#230,.T.);
#302=EDGE_CURVE('',#255,#255,#231,.T.);
#303=EDGE_CURVE('',#255,#256,#128,.T.);
#304=EDGE_CURVE('',#256,#256,#232,.T.);
#305=EDGE_CURVE('',#257,#257,#233,.T.);
#306=EDGE_CURVE('',#257,#258,#129,.T.);
#307=EDGE_CURVE('',#258,#258,#234,.T.);
#308=EDGE_CURVE('',#259,#260,#130,.T.);
#309=EDGE_CURVE('',#261,#259,#131,.T.);
#310=EDGE_CURVE('',#260,#261,#132,.T.);
#311=EDGE_CURVE('',#262,#263,#133,.T.);
#312=EDGE_CURVE('',#264,#262,#134,.T.);
#313=EDGE_CURVE('',#263,#264,#135,.T.);
#314=EDGE_CURVE('',#265,#266,#136,.T.);
#315=EDGE_CURVE('',#267,#265,#137,.T.);
#316=EDGE_CURVE('',#266,#267,#138,.T.);
#317=EDGE_CURVE('',#265,#261,#139,.T.);
#318=EDGE_CURVE('',#259,#267,#140,.T.);
#319=EDGE_CURVE('',#268,#266,#141,.T.);
#320=EDGE_CURVE('',#267,#269,#142,.T.);
#321=EDGE_CURVE('',#269,#268,#27,.T.);
#322=EDGE_CURVE('',#270,#271,#143,.T.);
#323=EDGE_CURVE('',#272,#270,#144,.T.);
#324=EDGE_CURVE('',#271,#272,#145,.T.);
#325=EDGE_CURVE('',#270,#264,#146,.T.);
#326=EDGE_CURVE('',#262,#272,#147,.T.);
#327=EDGE_CURVE('',#266,#271,#148,.T.);
#328=EDGE_CURVE('',#272,#265,#149,.T.);
#329=EDGE_CURVE('',#273,#270,#150,.T.);
#330=EDGE_CURVE('',#271,#274,#151,.T.);
#331=EDGE_CURVE('',#274,#273,#28,.T.);
#332=EDGE_CURVE('',#275,#263,#152,.T.);
#333=EDGE_CURVE('',#264,#276,#153,.T.);
#334=EDGE_CURVE('',#276,#275,#29,.T.);
#335=EDGE_CURVE('',#263,#260,#154,.T.);
#336=EDGE_CURVE('',#261,#262,#155,.T.);
#337=EDGE_CURVE('',#274,#277,#235,.T.);
#338=EDGE_CURVE('',#277,#278,#156,.T.);
#339=EDGE_CURVE('',#278,#273,#236,.T.);
#340=EDGE_CURVE('',#279,#280,#157,.T.);
#341=EDGE_CURVE('',#280,#278,#237,.T.);
#342=EDGE_CURVE('',#277,#279,#238,.T.);
#343=EDGE_CURVE('',#276,#280,#239,.T.);
#344=EDGE_CURVE('',#279,#275,#240,.T.);
#345=EDGE_CURVE('',#281,#259,#158,.T.);
#346=EDGE_CURVE('',#260,#282,#159,.T.);
#347=EDGE_CURVE('',#282,#281,#30,.T.);
#348=EDGE_CURVE('',#269,#283,#241,.T.);
#349=EDGE_CURVE('',#283,#284,#160,.T.);
#350=EDGE_CURVE('',#284,#268,#242,.T.);
#351=EDGE_CURVE('',#285,#286,#161,.T.);
#352=EDGE_CURVE('',#286,#284,#243,.T.);
#353=EDGE_CURVE('',#283,#285,#244,.T.);
#354=EDGE_CURVE('',#282,#286,#245,.T.);
#355=EDGE_CURVE('',#285,#281,#246,.T.);
#356=EDGE_CURVE('',#284,#287,#162,.T.);
#357=EDGE_CURVE('',#288,#287,#247,.F.);
#358=EDGE_CURVE('',#268,#288,#163,.T.);
#359=EDGE_CURVE('',#289,#286,#164,.T.);
#360=EDGE_CURVE('',#289,#287,#248,.T.);
#361=EDGE_CURVE('',#290,#282,#165,.T.);
#362=EDGE_CURVE('',#289,#290,#249,.F.);
#363=EDGE_CURVE('',#275,#291,#166,.T.);
#364=EDGE_CURVE('',#291,#292,#167,.T.);
#365=EDGE_CURVE('',#292,#293,#168,.T.);
#366=EDGE_CURVE('',#293,#290,#169,.T.);
#367=EDGE_CURVE('',#279,#294,#170,.T.);
#368=EDGE_CURVE('',#294,#291,#250,.T.);
#369=EDGE_CURVE('',#295,#274,#171,.T.);
#370=EDGE_CURVE('',#295,#296,#251,.T.);
#371=EDGE_CURVE('',#296,#277,#172,.T.);
#372=EDGE_CURVE('',#297,#293,#173,.T.);
#373=EDGE_CURVE('',#288,#297,#174,.T.);
#374=EDGE_CURVE('',#297,#298,#175,.T.);
#375=EDGE_CURVE('',#298,#295,#176,.T.);
#376=EDGE_CURVE('',#298,#292,#177,.T.);
#377=EDGE_CURVE('',#296,#294,#252,.T.);
#378=ORIENTED_EDGE('',*,*,#299,.F.);
#379=ORIENTED_EDGE('',*,*,#300,.T.);
#380=ORIENTED_EDGE('',*,*,#301,.F.);
#381=ORIENTED_EDGE('',*,*,#300,.F.);
#382=ORIENTED_EDGE('',*,*,#302,.F.);
#383=ORIENTED_EDGE('',*,*,#303,.T.);
#384=ORIENTED_EDGE('',*,*,#304,.F.);
#385=ORIENTED_EDGE('',*,*,#303,.F.);
#386=ORIENTED_EDGE('',*,*,#305,.F.);
#387=ORIENTED_EDGE('',*,*,#306,.T.);
#388=ORIENTED_EDGE('',*,*,#307,.F.);
#389=ORIENTED_EDGE('',*,*,#306,.F.);
#390=ORIENTED_EDGE('',*,*,#308,.F.);
#391=ORIENTED_EDGE('',*,*,#309,.F.);
#392=ORIENTED_EDGE('',*,*,#310,.F.);
#393=ORIENTED_EDGE('',*,*,#311,.F.);
#394=ORIENTED_EDGE('',*,*,#312,.F.);
#395=ORIENTED_EDGE('',*,*,#313,.F.);
#396=ORIENTED_EDGE('',*,*,#314,.F.);
#397=ORIENTED_EDGE('',*,*,#315,.F.);
#398=ORIENTED_EDGE('',*,*,#316,.F.);
#399=ORIENTED_EDGE('',*,*,#315,.T.);
#400=ORIENTED_EDGE('',*,*,#317,.T.);
#401=ORIENTED_EDGE('',*,*,#309,.T.);
#402=ORIENTED_EDGE('',*,*,#318,.T.);
#403=ORIENTED_EDGE('',*,*,#319,.T.);
#404=ORIENTED_EDGE('',*,*,#316,.T.);
#405=ORIENTED_EDGE('',*,*,#320,.T.);
#406=ORIENTED_EDGE('',*,*,#321,.T.);
#407=ORIENTED_EDGE('',*,*,#322,.F.);
#408=ORIENTED_EDGE('',*,*,#323,.F.);
#409=ORIENTED_EDGE('',*,*,#324,.F.);
#410=ORIENTED_EDGE('',*,*,#323,.T.);
#411=ORIENTED_EDGE('',*,*,#325,.T.);
#412=ORIENTED_EDGE('',*,*,#312,.T.);
#413=ORIENTED_EDGE('',*,*,#326,.T.);
#414=ORIENTED_EDGE('',*,*,#314,.T.);
#415=ORIENTED_EDGE('',*,*,#327,.T.);
#416=ORIENTED_EDGE('',*,*,#324,.T.);
#417=ORIENTED_EDGE('',*,*,#328,.T.);
#418=ORIENTED_EDGE('',*,*,#329,.T.);
#419=ORIENTED_EDGE('',*,*,#322,.T.);
#420=ORIENTED_EDGE('',*,*,#330,.T.);
#421=ORIENTED_EDGE('',*,*,#331,.T.);
#422=ORIENTED_EDGE('',*,*,#332,.T.);
#423=ORIENTED_EDGE('',*,*,#313,.T.);
#424=ORIENTED_EDGE('',*,*,#333,.T.);
#425=ORIENTED_EDGE('',*,*,#334,.T.);
#426=ORIENTED_EDGE('',*,*,#311,.T.);
#427=ORIENTED_EDGE('',*,*,#335,.T.);
#428=ORIENTED_EDGE('',*,*,#310,.T.);
#429=ORIENTED_EDGE('',*,*,#336,.T.);
#430=ORIENTED_EDGE('',*,*,#337,.T.);
#431=ORIENTED_EDGE('',*,*,#338,.T.);
#432=ORIENTED_EDGE('',*,*,#339,.T.);
#433=ORIENTED_EDGE('',*,*,#331,.F.);
#434=ORIENTED_EDGE('',*,*,#340,.T.);
#435=ORIENTED_EDGE('',*,*,#341,.T.);
#436=ORIENTED_EDGE('',*,*,#338,.F.);
#437=ORIENTED_EDGE('',*,*,#342,.T.);
#438=ORIENTED_EDGE('',*,*,#343,.T.);
#439=ORIENTED_EDGE('',*,*,#340,.F.);
#440=ORIENTED_EDGE('',*,*,#344,.T.);
#441=ORIENTED_EDGE('',*,*,#334,.F.);
#442=ORIENTED_EDGE('',*,*,#345,.T.);
#443=ORIENTED_EDGE('',*,*,#308,.T.);
#444=ORIENTED_EDGE('',*,*,#346,.T.);
#445=ORIENTED_EDGE('',*,*,#347,.T.);
#446=ORIENTED_EDGE('',*,*,#348,.T.);
#447=ORIENTED_EDGE('',*,*,#349,.T.);
#448=ORIENTED_EDGE('',*,*,#350,.T.);
#449=ORIENTED_EDGE('',*,*,#321,.F.);
#450=ORIENTED_EDGE('',*,*,#351,.T.);
#451=ORIENTED_EDGE('',*,*,#352,.T.);
#452=ORIENTED_EDGE('',*,*,#349,.F.);
#453=ORIENTED_EDGE('',*,*,#353,.T.);
#454=ORIENTED_EDGE('',*,*,#354,.T.);
#455=ORIENTED_EDGE('',*,*,#351,.F.);
#456=ORIENTED_EDGE('',*,*,#355,.T.);
#457=ORIENTED_EDGE('',*,*,#347,.F.);
#458=ORIENTED_EDGE('',*,*,#350,.F.);
#459=ORIENTED_EDGE('',*,*,#356,.T.);
#460=ORIENTED_EDGE('',*,*,#357,.F.);
#461=ORIENTED_EDGE('',*,*,#358,.F.);
#462=ORIENTED_EDGE('',*,*,#352,.F.);
#463=ORIENTED_EDGE('',*,*,#359,.F.);
#464=ORIENTED_EDGE('',*,*,#360,.T.);
#465=ORIENTED_EDGE('',*,*,#356,.F.);
#466=ORIENTED_EDGE('',*,*,#354,.F.);
#467=ORIENTED_EDGE('',*,*,#361,.F.);
#468=ORIENTED_EDGE('',*,*,#362,.F.);
#469=ORIENTED_EDGE('',*,*,#359,.T.);
#470=ORIENTED_EDGE('',*,*,#346,.F.);
#471=ORIENTED_EDGE('',*,*,#335,.F.);
#472=ORIENTED_EDGE('',*,*,#332,.F.);
#473=ORIENTED_EDGE('',*,*,#363,.T.);
#474=ORIENTED_EDGE('',*,*,#364,.T.);
#475=ORIENTED_EDGE('',*,*,#365,.T.);
#476=ORIENTED_EDGE('',*,*,#366,.T.);
#477=ORIENTED_EDGE('',*,*,#361,.T.);
#478=ORIENTED_EDGE('',*,*,#318,.F.);
#479=ORIENTED_EDGE('',*,*,#345,.F.);
#480=ORIENTED_EDGE('',*,*,#355,.F.);
#481=ORIENTED_EDGE('',*,*,#353,.F.);
#482=ORIENTED_EDGE('',*,*,#348,.F.);
#483=ORIENTED_EDGE('',*,*,#320,.F.);
#484=ORIENTED_EDGE('',*,*,#305,.T.);
#485=ORIENTED_EDGE('',*,*,#325,.F.);
#486=ORIENTED_EDGE('',*,*,#329,.F.);
#487=ORIENTED_EDGE('',*,*,#339,.F.);
#488=ORIENTED_EDGE('',*,*,#341,.F.);
#489=ORIENTED_EDGE('',*,*,#343,.F.);
#490=ORIENTED_EDGE('',*,*,#333,.F.);
#491=ORIENTED_EDGE('',*,*,#304,.T.);
#492=ORIENTED_EDGE('',*,*,#326,.F.);
#493=ORIENTED_EDGE('',*,*,#336,.F.);
#494=ORIENTED_EDGE('',*,*,#317,.F.);
#495=ORIENTED_EDGE('',*,*,#328,.F.);
#496=ORIENTED_EDGE('',*,*,#301,.T.);
#497=ORIENTED_EDGE('',*,*,#344,.F.);
#498=ORIENTED_EDGE('',*,*,#367,.T.);
#499=ORIENTED_EDGE('',*,*,#368,.T.);
#500=ORIENTED_EDGE('',*,*,#363,.F.);
#501=ORIENTED_EDGE('',*,*,#337,.F.);
#502=ORIENTED_EDGE('',*,*,#369,.F.);
#503=ORIENTED_EDGE('',*,*,#370,.T.);
#504=ORIENTED_EDGE('',*,*,#371,.T.);
#505=ORIENTED_EDGE('',*,*,#362,.T.);
#506=ORIENTED_EDGE('',*,*,#366,.F.);
#507=ORIENTED_EDGE('',*,*,#372,.F.);
#508=ORIENTED_EDGE('',*,*,#373,.F.);
#509=ORIENTED_EDGE('',*,*,#357,.T.);
#510=ORIENTED_EDGE('',*,*,#360,.F.);
#511=ORIENTED_EDGE('',*,*,#307,.T.);
#512=ORIENTED_EDGE('',*,*,#319,.F.);
#513=ORIENTED_EDGE('',*,*,#358,.T.);
#514=ORIENTED_EDGE('',*,*,#373,.T.);
#515=ORIENTED_EDGE('',*,*,#374,.T.);
#516=ORIENTED_EDGE('',*,*,#375,.T.);
#517=ORIENTED_EDGE('',*,*,#369,.T.);
#518=ORIENTED_EDGE('',*,*,#330,.F.);
#519=ORIENTED_EDGE('',*,*,#327,.F.);
#520=ORIENTED_EDGE('',*,*,#365,.F.);
#521=ORIENTED_EDGE('',*,*,#376,.F.);
#522=ORIENTED_EDGE('',*,*,#374,.F.);
#523=ORIENTED_EDGE('',*,*,#372,.T.);
#524=ORIENTED_EDGE('',*,*,#299,.T.);
#525=ORIENTED_EDGE('',*,*,#370,.F.);
#526=ORIENTED_EDGE('',*,*,#375,.F.);
#527=ORIENTED_EDGE('',*,*,#376,.T.);
#528=ORIENTED_EDGE('',*,*,#364,.F.);
#529=ORIENTED_EDGE('',*,*,#368,.F.);
#530=ORIENTED_EDGE('',*,*,#377,.F.);
#531=ORIENTED_EDGE('',*,*,#302,.T.);
#532=ORIENTED_EDGE('',*,*,#342,.F.);
#533=ORIENTED_EDGE('',*,*,#371,.F.);
#534=ORIENTED_EDGE('',*,*,#377,.T.);
#535=ORIENTED_EDGE('',*,*,#367,.F.);
#536=CYLINDRICAL_SURFACE('',#600,1.75);
#537=CYLINDRICAL_SURFACE('',#603,1.5);
#538=CYLINDRICAL_SURFACE('',#606,1.5);
#539=CYLINDRICAL_SURFACE('',#639,6.);
#540=CYLINDRICAL_SURFACE('',#641,5.);
#541=CYLINDRICAL_SURFACE('',#643,6.);
#542=CYLINDRICAL_SURFACE('',#649,6.);
#543=CYLINDRICAL_SURFACE('',#651,6.);
#544=CYLINDRICAL_SURFACE('',#658,5.);
#545=ADVANCED_FACE('',(#51),#536,.F.);
#546=ADVANCED_FACE('',(#52),#537,.F.);
#547=ADVANCED_FACE('',(#53),#538,.F.);
#548=ADVANCED_FACE('',(#54),#31,.T.);
#549=ADVANCED_FACE('',(#55),#32,.T.);
#550=ADVANCED_FACE('',(#56),#33,.T.);
#551=ADVANCED_FACE('',(#57),#34,.T.);
#552=ADVANCED_FACE('',(#58),#35,.T.);
#553=ADVANCED_FACE('',(#59),#36,.T.);
#554=ADVANCED_FACE('',(#60),#37,.T.);
#555=ADVANCED_FACE('',(#61),#38,.T.);
#556=ADVANCED_FACE('',(#62),#39,.T.);
#557=ADVANCED_FACE('',(#63),#40,.T.);
#558=ADVANCED_FACE('',(#64),#41,.T.);
#559=ADVANCED_FACE('',(#65),#21,.F.);
#560=ADVANCED_FACE('',(#66),#22,.T.);
#561=ADVANCED_FACE('',(#67),#23,.F.);
#562=ADVANCED_FACE('',(#68),#42,.T.);
#563=ADVANCED_FACE('',(#69),#24,.F.);
#564=ADVANCED_FACE('',(#70),#25,.T.);
#565=ADVANCED_FACE('',(#71),#26,.F.);
#566=ADVANCED_FACE('',(#72),#539,.F.);
#567=ADVANCED_FACE('',(#73),#540,.T.);
#568=ADVANCED_FACE('',(#74),#541,.F.);
#569=ADVANCED_FACE('',(#75),#43,.T.);
#570=ADVANCED_FACE('',(#76,#15),#44,.T.);
#571=ADVANCED_FACE('',(#77,#16),#45,.T.);
#572=ADVANCED_FACE('',(#78,#17),#46,.T.);
#573=ADVANCED_FACE('',(#79),#542,.F.);
#574=ADVANCED_FACE('',(#80),#543,.F.);
#575=ADVANCED_FACE('',(#81,#18),#47,.F.);
#576=ADVANCED_FACE('',(#82),#48,.T.);
#577=ADVANCED_FACE('',(#83,#19),#49,.F.);
#578=ADVANCED_FACE('',(#84,#20),#50,.F.);
#579=ADVANCED_FACE('',(#85),#544,.T.);
#580=CLOSED_SHELL('',(#545,#546,#547,#548,#549,#550,#551,#552,#553,#554,
#555,#556,#557,#558,#559,#560,#561,#562,#563,#564,#565,#566,#567,#568,#569,
#570,#571,#572,#573,#574,#575,#576,#577,#578,#579));
#581=DERIVED_UNIT_ELEMENT(#583,1.);
#582=DERIVED_UNIT_ELEMENT(#1008,3.);
#583=(
MASS_UNIT()
NAMED_UNIT(*)
SI_UNIT($,.GRAM.)
);
#584=DERIVED_UNIT((#581,#582));
#585=MEASURE_REPRESENTATION_ITEM('density measure',
POSITIVE_RATIO_MEASURE(8.47),#584);
#586=PROPERTY_DEFINITION_REPRESENTATION(#591,#588);
#587=PROPERTY_DEFINITION_REPRESENTATION(#592,#589);
#588=REPRESENTATION('material name',(#590),#1005);
#589=REPRESENTATION('density',(#585),#1005);
#590=DESCRIPTIVE_REPRESENTATION_ITEM('Brass, Soft Yellow',
'Brass, Soft Yellow');
#591=PROPERTY_DEFINITION('material property','material name',#1015);
#592=PROPERTY_DEFINITION('material property','density of part',#1015);
#593=DATE_TIME_ROLE('creation_date');
#594=APPLIED_DATE_AND_TIME_ASSIGNMENT(#595,#593,(#1015));
#595=DATE_AND_TIME(#596,#597);
#596=CALENDAR_DATE(2025,16,9);
#597=LOCAL_TIME(0,0,0.,#598);
#598=COORDINATED_UNIVERSAL_TIME_OFFSET(0,0,.BEHIND.);
#599=AXIS2_PLACEMENT_3D('placement',#830,#659,#660);
#600=AXIS2_PLACEMENT_3D('',#831,#661,#662);
#601=AXIS2_PLACEMENT_3D('',#833,#663,#664);
#602=AXIS2_PLACEMENT_3D('',#836,#666,#667);
#603=AXIS2_PLACEMENT_3D('',#837,#668,#669);
#604=AXIS2_PLACEMENT_3D('',#839,#670,#671);
#605=AXIS2_PLACEMENT_3D('',#842,#673,#674);
#606=AXIS2_PLACEMENT_3D('',#843,#675,#676);
#607=AXIS2_PLACEMENT_3D('',#845,#677,#678);
#608=AXIS2_PLACEMENT_3D('',#848,#680,#681);
#609=AXIS2_PLACEMENT_3D('',#849,#682,#683);
#610=AXIS2_PLACEMENT_3D('',#856,#687,#688);
#611=AXIS2_PLACEMENT_3D('',#863,#692,#693);
#612=AXIS2_PLACEMENT_3D('',#870,#697,#698);
#613=AXIS2_PLACEMENT_3D('',#873,#701,#702);
#614=AXIS2_PLACEMENT_3D('',#882,#705,#706);
#615=AXIS2_PLACEMENT_3D('',#889,#710,#711);
#616=AXIS2_PLACEMENT_3D('',#892,#714,#715);
#617=AXIS2_PLACEMENT_3D('',#895,#718,#719);
#618=AXIS2_PLACEMENT_3D('',#904,#722,#723);
#619=AXIS2_PLACEMENT_3D('',#913,#726,#727);
#620=AXIS2_PLACEMENT_3D('',#916,#730,#731);
#621=AXIS2_PLACEMENT_3D('',#918,#732,#733);
#622=AXIS2_PLACEMENT_3D('',#921,#735,#736);
#623=AXIS2_PLACEMENT_3D('',#922,#737,#738);
#624=AXIS2_PLACEMENT_3D('',#926,#740,#741);
#625=AXIS2_PLACEMENT_3D('',#927,#742,#743);
#626=AXIS2_PLACEMENT_3D('',#928,#744,#745);
#627=AXIS2_PLACEMENT_3D('',#929,#746,#747);
#628=AXIS2_PLACEMENT_3D('',#930,#748,#749);
#629=AXIS2_PLACEMENT_3D('',#931,#750,#751);
#630=AXIS2_PLACEMENT_3D('',#940,#754,#755);
#631=AXIS2_PLACEMENT_3D('',#942,#756,#757);
#632=AXIS2_PLACEMENT_3D('',#945,#759,#760);
#633=AXIS2_PLACEMENT_3D('',#946,#761,#762);
#634=AXIS2_PLACEMENT_3D('',#950,#764,#765);
#635=AXIS2_PLACEMENT_3D('',#951,#766,#767);
#636=AXIS2_PLACEMENT_3D('',#952,#768,#769);
#637=AXIS2_PLACEMENT_3D('',#953,#770,#771);
#638=AXIS2_PLACEMENT_3D('',#954,#772,#773);
#639=AXIS2_PLACEMENT_3D('',#955,#774,#775);
#640=AXIS2_PLACEMENT_3D('',#959,#777,#778);
#641=AXIS2_PLACEMENT_3D('',#961,#780,#781);
#642=AXIS2_PLACEMENT_3D('',#964,#783,#784);
#643=AXIS2_PLACEMENT_3D('',#965,#785,#786);
#644=AXIS2_PLACEMENT_3D('',#968,#788,#789);
#645=AXIS2_PLACEMENT_3D('',#969,#790,#791);
#646=AXIS2_PLACEMENT_3D('',#977,#796,#797);
#647=AXIS2_PLACEMENT_3D('',#978,#798,#799);
#648=AXIS2_PLACEMENT_3D('',#979,#800,#801);
#649=AXIS2_PLACEMENT_3D('',#980,#802,#803);
#650=AXIS2_PLACEMENT_3D('',#983,#805,#806);
#651=AXIS2_PLACEMENT_3D('',#984,#807,#808);
#652=AXIS2_PLACEMENT_3D('',#988,#810,#811);
#653=AXIS2_PLACEMENT_3D('',#990,#813,#814);
#654=AXIS2_PLACEMENT_3D('',#994,#817,#818);
#655=AXIS2_PLACEMENT_3D('',#998,#821,#822);
#656=AXIS2_PLACEMENT_3D('',#1000,#824,#825);
#657=AXIS2_PLACEMENT_3D('',#1001,#826,#827);
#658=AXIS2_PLACEMENT_3D('',#1002,#828,#829);
#659=DIRECTION('axis',(0.,0.,1.));
#660=DIRECTION('refdir',(1.,0.,0.));
#661=DIRECTION('center_axis',(1.38777878078145E-16,-1.,0.));
#662=DIRECTION('ref_axis',(1.,1.38777878078145E-16,0.));
#663=DIRECTION('center_axis',(-1.38777878078145E-16,1.,0.));
#664=DIRECTION('ref_axis',(1.,1.38777878078145E-16,0.));
#665=DIRECTION('',(-1.38777878078145E-16,1.,0.));
#666=DIRECTION('center_axis',(5.55111512312578E-17,-1.,0.));
#667=DIRECTION('ref_axis',(1.,1.38777878078145E-16,0.));
#668=DIRECTION('center_axis',(1.,-2.22044604925031E-16,0.));
#669=DIRECTION('ref_axis',(0.,0.,1.));
#670=DIRECTION('center_axis',(1.,5.70469119804549E-17,0.));
#671=DIRECTION('ref_axis',(0.,0.,1.));
#672=DIRECTION('',(1.,-2.22044604925031E-16,0.));
#673=DIRECTION('center_axis',(-1.,2.22044604925031E-16,0.));
#674=DIRECTION('ref_axis',(0.,0.,1.));
#675=DIRECTION('center_axis',(1.,-2.22044604925031E-16,0.));
#676=DIRECTION('ref_axis',(0.,0.,1.));
#677=DIRECTION('center_axis',(1.,-2.22044604925031E-16,0.));
#678=DIRECTION('ref_axis',(0.,0.,1.));
#679=DIRECTION('',(1.,-2.22044604925031E-16,0.));
#680=DIRECTION('center_axis',(-1.,-5.70469119804549E-17,0.));
#681=DIRECTION('ref_axis',(0.,0.,1.));
#682=DIRECTION('center_axis',(-0.577350269189626,0.577350269189626,-0.577350269189625));
#683=DIRECTION('ref_axis',(-0.707106781186547,0.,0.707106781186548));
#684=DIRECTION('',(0.707106781186548,1.30841038223648E-15,-0.707106781186548));
#685=DIRECTION('',(-0.707106781186548,-0.707106781186548,0.));
#686=DIRECTION('',(0.,0.707106781186547,0.707106781186548));
#687=DIRECTION('center_axis',(0.577350269189625,0.577350269189625,-0.577350269189627));
#688=DIRECTION('ref_axis',(-0.707106781186549,0.,-0.707106781186546));
#689=DIRECTION('',(-2.61682076447296E-15,-0.707106781186548,-0.707106781186548));
#690=DIRECTION('',(-0.707106781186548,0.707106781186548,0.));
#691=DIRECTION('',(0.707106781186549,0.,0.707106781186546));
#692=DIRECTION('center_axis',(-0.577350269189626,0.577350269189626,0.577350269189626));
#693=DIRECTION('ref_axis',(0.707106781186547,0.,0.707106781186547));
#694=DIRECTION('',(0.,-0.707106781186547,0.707106781186548));
#695=DIRECTION('',(0.707106781186548,0.707106781186548,0.));
#696=DIRECTION('',(-0.707106781186548,0.,-0.707106781186548));
#697=DIRECTION('center_axis',(-0.707106781186548,0.707106781186548,0.));
#698=DIRECTION('ref_axis',(0.,0.,1.));
#699=DIRECTION('',(0.,0.,-1.));
#700=DIRECTION('',(0.,0.,1.));
#701=DIRECTION('center_axis',(-0.707106781186548,1.57009245868378E-16,0.707106781186548));
#702=DIRECTION('ref_axis',(0.707106781186548,0.,0.707106781186548));
#703=DIRECTION('',(2.22044604925031E-16,1.,0.));
#704=DIRECTION('',(-2.22044604925031E-16,-1.,0.));
#705=DIRECTION('center_axis',(0.577350269189626,0.577350269189626,0.577350269189626));
#706=DIRECTION('ref_axis',(0.707106781186547,0.,-0.707106781186547));
#707=DIRECTION('',(-0.707106781186549,0.,0.707106781186546));
#708=DIRECTION('',(0.707106781186548,-0.707106781186548,0.));
#709=DIRECTION('',(0.,0.707106781186548,-0.707106781186548));
#710=DIRECTION('center_axis',(0.707106781186548,0.707106781186548,0.));
#711=DIRECTION('ref_axis',(0.,0.,-1.));
#712=DIRECTION('',(0.,0.,-1.));
#713=DIRECTION('',(0.,0.,1.));
#714=DIRECTION('center_axis',(-3.92523114670944E-17,0.707106781186548,0.707106781186548));
#715=DIRECTION('ref_axis',(1.,0.,5.55111512312578E-17));
#716=DIRECTION('',(1.,5.55111512312578E-17,0.));
#717=DIRECTION('',(-1.,-5.55111512312578E-17,0.));
#718=DIRECTION('center_axis',(0.707106781186548,-1.57009245868378E-16,0.707106781186548));
#719=DIRECTION('ref_axis',(0.707106781186548,0.,-0.707106781186548));
#720=DIRECTION('',(2.22044604925031E-16,1.,0.));
#721=DIRECTION('',(-2.22044604925031E-16,-1.,0.));
#722=DIRECTION('center_axis',(0.707106781186548,-1.57009245868378E-16,-0.707106781186548));
#723=DIRECTION('ref_axis',(-0.707106781186548,0.,-0.707106781186548));
#724=DIRECTION('',(2.22044604925031E-16,1.,0.));
#725=DIRECTION('',(-2.22044604925031E-16,-1.,0.));
#726=DIRECTION('center_axis',(-3.92523114670944E-17,0.707106781186548,-0.707106781186548));
#727=DIRECTION('ref_axis',(-1.,0.,5.55111512312578E-17));
#728=DIRECTION('',(-1.,-5.55111512312578E-17,0.));
#729=DIRECTION('',(1.,5.55111512312578E-17,0.));
#730=DIRECTION('center_axis',(1.,0.,0.));
#731=DIRECTION('ref_axis',(3.071540078358E-17,0.270072598498196,-0.962839961541082));
#732=DIRECTION('center_axis',(-1.,2.22044604925031E-16,0.));
#733=DIRECTION('ref_axis',(0.,0.270072598498196,-0.962839961541082));
#734=DIRECTION('',(0.707106781186543,0.19097016581075,-0.680830666003097));
#735=DIRECTION('center_axis',(1.,-2.22044604925031E-16,0.));
#736=DIRECTION('ref_axis',(5.99681634346085E-17,0.270072598498196,-0.962839961541082));
#737=DIRECTION('center_axis',(-1.,0.,0.));
#738=DIRECTION('ref_axis',(-4.37905770101505E-47,-1.97215226305253E-31,
1.));
#739=DIRECTION('',(0.70710678118655,0.190970165810744,0.680830666003091));
#740=DIRECTION('center_axis',(-1.,2.22044604925031E-16,0.));
#741=DIRECTION('ref_axis',(-4.37905770101505E-47,-1.97215226305253E-31,
1.));
#742=DIRECTION('center_axis',(1.,-2.22044604925031E-16,0.));
#743=DIRECTION('ref_axis',(-4.37905770101505E-47,-1.97215226305253E-31,
1.));
#744=DIRECTION('center_axis',(1.,0.,0.));
#745=DIRECTION('ref_axis',(3.07154007835799E-17,0.270072598498196,0.962839961541082));
#746=DIRECTION('center_axis',(1.,-2.22044604925031E-16,0.));
#747=DIRECTION('ref_axis',(5.99681634346085E-17,0.270072598498196,0.962839961541082));
#748=DIRECTION('center_axis',(-1.,2.22044604925031E-16,0.));
#749=DIRECTION('ref_axis',(0.,0.270072598498196,0.962839961541082));
#750=DIRECTION('center_axis',(-0.707106781186548,1.57009245868378E-16,-0.707106781186548));
#751=DIRECTION('ref_axis',(-0.707106781186548,0.,0.707106781186548));
#752=DIRECTION('',(2.22044604925031E-16,1.,0.));
#753=DIRECTION('',(-2.22044604925031E-16,-1.,0.));
#754=DIRECTION('center_axis',(-1.,0.,0.));
#755=DIRECTION('ref_axis',(7.58464180447651E-17,0.270072598498196,-0.962839961541082));
#756=DIRECTION('center_axis',(-1.,2.22044604925031E-16,0.));
#757=DIRECTION('ref_axis',(5.99681634346085E-17,0.270072598498196,-0.962839961541082));
#758=DIRECTION('',(0.707106781186546,-0.190970165810745,0.680830666003095));
#759=DIRECTION('center_axis',(1.,-2.22044604925031E-16,0.));
#760=DIRECTION('ref_axis',(9.25185853854297E-17,0.270072598498196,-0.962839961541082));
#761=DIRECTION('center_axis',(1.,0.,0.));
#762=DIRECTION('ref_axis',(-4.37905770101505E-47,-1.97215226305253E-31,
1.));
#763=DIRECTION('',(0.707106781186546,-0.190970165810748,-0.680830666003095));
#764=DIRECTION('center_axis',(-1.,2.22044604925031E-16,0.));
#765=DIRECTION('ref_axis',(-4.37905770101505E-47,-1.97215226305253E-31,
1.));
#766=DIRECTION('center_axis',(1.,-2.22044604925031E-16,0.));
#767=DIRECTION('ref_axis',(-4.37905770101505E-47,-1.97215226305253E-31,
1.));
#768=DIRECTION('center_axis',(-1.,0.,0.));
#769=DIRECTION('ref_axis',(7.58464180447652E-17,0.270072598498196,0.962839961541082));
#770=DIRECTION('center_axis',(1.,-2.22044604925031E-16,0.));
#771=DIRECTION('ref_axis',(9.25185853854297E-17,0.270072598498196,0.962839961541082));
#772=DIRECTION('center_axis',(-1.,2.22044604925031E-16,0.));
#773=DIRECTION('ref_axis',(5.99681634346085E-17,0.270072598498196,0.962839961541082));
#774=DIRECTION('center_axis',(-1.,2.22044604925031E-16,0.));
#775=DIRECTION('ref_axis',(9.25185853854297E-17,0.270072598498196,-0.962839961541082));
#776=DIRECTION('',(1.,-2.22044604925031E-16,0.));
#777=DIRECTION('center_axis',(1.,5.70469119804549E-17,0.));
#778=DIRECTION('ref_axis',(9.25185853854297E-17,0.270072598498196,-0.962839961541082));
#779=DIRECTION('',(1.,-2.22044604925031E-16,0.));
#780=DIRECTION('center_axis',(-1.,2.22044604925031E-16,0.));
#781=DIRECTION('ref_axis',(-4.37905770101505E-47,-1.97215226305253E-31,
1.));
#782=DIRECTION('',(-1.,2.22044604925031E-16,0.));
#783=DIRECTION('center_axis',(-1.,-5.70469119804549E-17,0.));
#784=DIRECTION('ref_axis',(-4.37905770101505E-47,-1.97215226305253E-31,
1.));
#785=DIRECTION('center_axis',(1.,-2.22044604925031E-16,0.));
#786=DIRECTION('ref_axis',(9.25185853854297E-17,0.270072598498196,0.962839961541082));
#787=DIRECTION('',(-1.,2.22044604925031E-16,0.));
#788=DIRECTION('center_axis',(1.,5.70469119804549E-17,0.));
#789=DIRECTION('ref_axis',(9.25185853854297E-17,0.270072598498196,0.962839961541082));
#790=DIRECTION('center_axis',(0.,0.,-1.));
#791=DIRECTION('ref_axis',(-1.,0.,0.));
#792=DIRECTION('',(-1.,2.22044604925031E-16,0.));
#793=DIRECTION('',(-5.70469119804549E-17,1.,0.));
#794=DIRECTION('',(-1.,-1.38777878078145E-16,0.));
#795=DIRECTION('',(5.70469119804549E-17,-1.,0.));
#796=DIRECTION('center_axis',(-1.,2.22044604925031E-16,0.));
#797=DIRECTION('ref_axis',(-2.22044604925031E-16,-1.,0.));
#798=DIRECTION('center_axis',(1.,-2.22044604925031E-16,0.));
#799=DIRECTION('ref_axis',(2.22044604925031E-16,1.,0.));
#800=DIRECTION('center_axis',(-5.55111512312578E-17,1.,0.));
#801=DIRECTION('ref_axis',(-1.,-5.55111512312578E-17,0.));
#802=DIRECTION('center_axis',(1.,-2.22044604925031E-16,0.));
#803=DIRECTION('ref_axis',(0.,0.270072598498196,0.962839961541082));
#804=DIRECTION('',(-1.,2.22044604925031E-16,0.));
#805=DIRECTION('center_axis',(-1.,-5.70469119804549E-17,0.));
#806=DIRECTION('ref_axis',(0.,0.270072598498196,0.962839961541082));
#807=DIRECTION('center_axis',(-1.,2.22044604925031E-16,0.));
#808=DIRECTION('ref_axis',(0.,0.270072598498196,-0.962839961541082));
#809=DIRECTION('',(1.,-2.22044604925031E-16,0.));
#810=DIRECTION('center_axis',(-1.,-5.70469119804549E-17,0.));
#811=DIRECTION('ref_axis',(0.,0.270072598498196,-0.962839961541082));
#812=DIRECTION('',(1.,-2.22044604925031E-16,0.));
#813=DIRECTION('center_axis',(-1.,-5.70469119804549E-17,0.));
#814=DIRECTION('ref_axis',(-5.70469119804549E-17,1.,0.));
#815=DIRECTION('',(0.,0.,-1.));
#816=DIRECTION('',(-5.70469119804549E-17,1.,0.));
#817=DIRECTION('center_axis',(0.,0.,1.));
#818=DIRECTION('ref_axis',(1.,0.,0.));
#819=DIRECTION('',(1.,1.38777878078145E-16,0.));
#820=DIRECTION('',(5.70469119804549E-17,-1.,0.));
#821=DIRECTION('center_axis',(-1.38777878078145E-16,1.,0.));
#822=DIRECTION('ref_axis',(1.,1.38777878078145E-16,0.));
#823=DIRECTION('',(0.,0.,-1.));
#824=DIRECTION('center_axis',(1.,5.70469119804549E-17,0.));
#825=DIRECTION('ref_axis',(5.70469119804549E-17,-1.,0.));
#826=DIRECTION('center_axis',(1.,5.70469119804549E-17,0.));
#827=DIRECTION('ref_axis',(-4.37905770101505E-47,-1.97215226305253E-31,
1.));
#828=DIRECTION('center_axis',(-1.,2.22044604925031E-16,0.));
#829=DIRECTION('ref_axis',(-4.37905770101505E-47,-1.97215226305253E-31,
1.));
#830=CARTESIAN_POINT('',(0.,0.,0.));
#831=CARTESIAN_POINT('Origin',(-8.18789480661053E-16,8.9,0.));
#832=CARTESIAN_POINT('',(-1.75,3.,-2.14313189850787E-16));
#833=CARTESIAN_POINT('Origin',(1.23259516440783E-31,3.,0.));
#834=CARTESIAN_POINT('',(-1.75,5.,-2.14313189850787E-16));
#835=CARTESIAN_POINT('',(-1.75,8.9,-2.14313189850787E-16));
#836=CARTESIAN_POINT('Origin',(-2.77555756156289E-16,5.,0.));
#837=CARTESIAN_POINT('Origin',(-10.,-5.,0.));
#838=CARTESIAN_POINT('',(8.,-5.,-1.5));
#839=CARTESIAN_POINT('Origin',(8.,-5.,0.));
#840=CARTESIAN_POINT('',(10.,-5.,-1.5));
#841=CARTESIAN_POINT('',(-10.,-5.,-1.5));
#842=CARTESIAN_POINT('Origin',(10.,-5.,0.));
#843=CARTESIAN_POINT('Origin',(-10.,-5.,0.));
#844=CARTESIAN_POINT('',(-10.,-5.,-1.5));
#845=CARTESIAN_POINT('Origin',(-10.,-5.,0.));
#846=CARTESIAN_POINT('',(-7.99999999999999,-5.,-1.5));
#847=CARTESIAN_POINT('',(-10.,-5.,-1.5));
#848=CARTESIAN_POINT('Origin',(-7.99999999999999,-5.,0.));
#849=CARTESIAN_POINT('Origin',(-9.7,5.,-9.7));
#850=CARTESIAN_POINT('',(-10.,4.7,-9.7));
#851=CARTESIAN_POINT('',(-9.7,4.7,-10.));
#852=CARTESIAN_POINT('',(-10.,4.7,-9.7));
#853=CARTESIAN_POINT('',(-9.7,5.,-9.7));
#854=CARTESIAN_POINT('',(-9.7,5.,-9.7));
#855=CARTESIAN_POINT('',(-9.7,4.7,-10.));
#856=CARTESIAN_POINT('Origin',(10.,4.7,-9.7));
#857=CARTESIAN_POINT('',(9.7,5.,-9.7));
#858=CARTESIAN_POINT('',(9.7,4.7,-10.));
#859=CARTESIAN_POINT('',(9.7,5.,-9.7));
#860=CARTESIAN_POINT('',(10.,4.7,-9.7));
#861=CARTESIAN_POINT('',(10.,4.7,-9.7));
#862=CARTESIAN_POINT('',(9.7,4.7,-10.));
#863=CARTESIAN_POINT('Origin',(-10.,4.7,9.7));
#864=CARTESIAN_POINT('',(-9.7,5.,9.7));
#865=CARTESIAN_POINT('',(-9.7,4.7,10.));
#866=CARTESIAN_POINT('',(-9.7,5.,9.7));
#867=CARTESIAN_POINT('',(-10.,4.7,9.7));
#868=CARTESIAN_POINT('',(-10.,4.7,9.7));
#869=CARTESIAN_POINT('',(-9.7,4.7,10.));
#870=CARTESIAN_POINT('Origin',(-9.85,4.85,0.));
#871=CARTESIAN_POINT('',(-9.7,5.,0.));
#872=CARTESIAN_POINT('',(-10.,4.7,0.));
#873=CARTESIAN_POINT('Origin',(-9.85,2.5,9.85));
#874=CARTESIAN_POINT('',(-9.7,-2.,10.));
#875=CARTESIAN_POINT('',(-9.7,2.5,10.));
#876=CARTESIAN_POINT('',(-10.,-1.73415749901212,9.7));
#877=CARTESIAN_POINT('',(-10.,2.5,9.7));
#878=CARTESIAN_POINT('Ctrl Pts',(-10.,-1.73415749901212,9.7));
#879=CARTESIAN_POINT('Ctrl Pts',(-9.89942610858693,-1.8213807456443,9.80057389141307));
#880=CARTESIAN_POINT('Ctrl Pts',(-9.79934577574158,-1.91000575360398,9.90065422425842));
#881=CARTESIAN_POINT('Ctrl Pts',(-9.69999999897379,-1.9999999977343,10.0000000010262));
#882=CARTESIAN_POINT('Origin',(9.7,5.,9.7));
#883=CARTESIAN_POINT('',(10.,4.7,9.7));
#884=CARTESIAN_POINT('',(9.7,4.7,10.));
#885=CARTESIAN_POINT('',(10.,4.7,9.7));
#886=CARTESIAN_POINT('',(9.7,5.,9.7));
#887=CARTESIAN_POINT('',(9.7,5.,9.7));
#888=CARTESIAN_POINT('',(9.7,4.7,10.));
#889=CARTESIAN_POINT('Origin',(9.85,4.85,0.));
#890=CARTESIAN_POINT('',(10.,4.7,0.));
#891=CARTESIAN_POINT('',(9.7,5.,0.));
#892=CARTESIAN_POINT('Origin',(5.,4.85,9.85));
#893=CARTESIAN_POINT('',(5.,4.7,10.));
#894=CARTESIAN_POINT('',(5.,5.,9.7));
#895=CARTESIAN_POINT('Origin',(9.85,-2.5,9.85));
#896=CARTESIAN_POINT('',(10.,-1.73415749901212,9.7));
#897=CARTESIAN_POINT('',(10.,-2.5,9.7));
#898=CARTESIAN_POINT('',(9.7,-2.,10.));
#899=CARTESIAN_POINT('',(9.7,-2.5,10.));
#900=CARTESIAN_POINT('Ctrl Pts',(9.69999999897379,-1.99999999773431,10.0000000010262));
#901=CARTESIAN_POINT('Ctrl Pts',(9.79934577574156,-1.910005753604,9.90065422425844));
#902=CARTESIAN_POINT('Ctrl Pts',(9.89942610858688,-1.82138074564434,9.80057389141312));
#903=CARTESIAN_POINT('Ctrl Pts',(10.,-1.73415749901212,9.7));
#904=CARTESIAN_POINT('Origin',(9.85,-2.5,-9.85));
#905=CARTESIAN_POINT('',(9.7,-2.,-10.));
#906=CARTESIAN_POINT('',(9.7,-2.5,-10.));
#907=CARTESIAN_POINT('',(10.,-1.73415749901212,-9.7));
#908=CARTESIAN_POINT('',(10.,-2.5,-9.7));
#909=CARTESIAN_POINT('Ctrl Pts',(10.,-1.73415749901212,-9.7));
#910=CARTESIAN_POINT('Ctrl Pts',(9.89942610858693,-1.8213807456443,-9.80057389141307));
#911=CARTESIAN_POINT('Ctrl Pts',(9.79934577574158,-1.91000575360398,-9.90065422425842));
#912=CARTESIAN_POINT('Ctrl Pts',(9.69999999897379,-1.9999999977343,-10.0000000010262));
#913=CARTESIAN_POINT('Origin',(5.,4.85,-9.85));
#914=CARTESIAN_POINT('',(5.,4.7,-10.));
#915=CARTESIAN_POINT('',(5.,5.,-9.7));
#916=CARTESIAN_POINT('Origin',(9.85,-7.97079858348016,10.5912395769519));
#917=CARTESIAN_POINT('',(9.7,-6.35036299249098,4.81419980770541));
#918=CARTESIAN_POINT('Origin',(9.7,-7.97079858348016,10.5912395769519));
#919=CARTESIAN_POINT('',(10.,-6.26934121294152,4.52534781924308));
#920=CARTESIAN_POINT('',(9.7,-6.35036299249098,4.81419980770541));
#921=CARTESIAN_POINT('Origin',(10.,-7.97079858348016,10.5912395769519));
#922=CARTESIAN_POINT('Origin',(9.85,-5.,0.));
#923=CARTESIAN_POINT('',(9.7,-6.35036299249098,-4.81419980770541));
#924=CARTESIAN_POINT('',(10.,-6.26934121294152,-4.52534781924309));
#925=CARTESIAN_POINT('',(9.7,-6.35036299249098,-4.81419980770541));
#926=CARTESIAN_POINT('Origin',(10.,-5.,0.));
#927=CARTESIAN_POINT('Origin',(9.7,-5.,0.));
#928=CARTESIAN_POINT('Origin',(9.85,-7.97079858348016,-10.5912395769519));
#929=CARTESIAN_POINT('Origin',(10.,-7.97079858348016,-10.5912395769519));
#930=CARTESIAN_POINT('Origin',(9.7,-7.97079858348016,-10.5912395769519));
#931=CARTESIAN_POINT('Origin',(-9.85,2.5,-9.85));
#932=CARTESIAN_POINT('',(-10.,-1.73415749901212,-9.7));
#933=CARTESIAN_POINT('',(-10.,2.5,-9.7));
#934=CARTESIAN_POINT('',(-9.69999999999999,-1.99999999999999,-10.));
#935=CARTESIAN_POINT('',(-9.7,2.5,-10.));
#936=CARTESIAN_POINT('Ctrl Pts',(-9.69999999897379,-1.9999999977343,-10.0000000010262));
#937=CARTESIAN_POINT('Ctrl Pts',(-9.79934577574158,-1.91000575360398,-9.90065422425842));
#938=CARTESIAN_POINT('Ctrl Pts',(-9.89942610858692,-1.82138074564431,-9.80057389141308));
#939=CARTESIAN_POINT('Ctrl Pts',(-10.,-1.73415749901212,-9.7));
#940=CARTESIAN_POINT('Origin',(-9.85,-7.97079858348016,10.5912395769519));
#941=CARTESIAN_POINT('',(-10.,-6.26934121294152,4.52534781924308));
#942=CARTESIAN_POINT('Origin',(-10.,-7.97079858348016,10.5912395769519));
#943=CARTESIAN_POINT('',(-9.7,-6.35036299249098,4.81419980770541));
#944=CARTESIAN_POINT('',(-10.,-6.26934121294152,4.52534781924308));
#945=CARTESIAN_POINT('Origin',(-9.7,-7.97079858348016,10.5912395769519));
#946=CARTESIAN_POINT('Origin',(-9.85,-5.,0.));
#947=CARTESIAN_POINT('',(-10.,-6.26934121294152,-4.52534781924309));
#948=CARTESIAN_POINT('',(-9.7,-6.35036299249098,-4.81419980770541));
#949=CARTESIAN_POINT('',(-10.,-6.26934121294152,-4.52534781924309));
#950=CARTESIAN_POINT('Origin',(-9.7,-5.,0.));
#951=CARTESIAN_POINT('Origin',(-10.,-5.,0.));
#952=CARTESIAN_POINT('Origin',(-9.85,-7.97079858348015,-10.5912395769519));
#953=CARTESIAN_POINT('Origin',(-9.7,-7.97079858348015,-10.5912395769519));
#954=CARTESIAN_POINT('Origin',(-10.,-7.97079858348015,-10.5912395769519));
#955=CARTESIAN_POINT('Origin',(5.,-7.97079858348016,10.5912395769519));
#956=CARTESIAN_POINT('',(-7.99999999999999,-6.35036299249098,4.81419980770541));
#957=CARTESIAN_POINT('',(5.,-6.35036299249098,4.81419980770541));
#958=CARTESIAN_POINT('',(-8.,-2.,10.));
#959=CARTESIAN_POINT('Origin',(-8.,-7.97079858348016,10.5912395769519));
#960=CARTESIAN_POINT('',(5.,-2.,10.));
#961=CARTESIAN_POINT('Origin',(10.,-5.,0.));
#962=CARTESIAN_POINT('',(-7.99999999999999,-6.35036299249098,-4.81419980770541));
#963=CARTESIAN_POINT('',(5.,-6.35036299249098,-4.81419980770541));
#964=CARTESIAN_POINT('Origin',(-7.99999999999999,-5.,0.));
#965=CARTESIAN_POINT('Origin',(5.,-7.97079858348016,-10.5912395769519));
#966=CARTESIAN_POINT('',(-8.,-1.99999999999999,-10.));
#967=CARTESIAN_POINT('',(5.,-2.,-10.));
#968=CARTESIAN_POINT('Origin',(-8.,-7.97079858348015,-10.5912395769519));
#969=CARTESIAN_POINT('Origin',(2.22044604925031E-15,0.,-10.));
#970=CARTESIAN_POINT('',(8.,-2.,-10.));
#971=CARTESIAN_POINT('',(5.,-2.,-10.));
#972=CARTESIAN_POINT('',(8.,3.,-10.));
#973=CARTESIAN_POINT('',(8.,1.5,-10.));
#974=CARTESIAN_POINT('',(-8.,3.,-10.));
#975=CARTESIAN_POINT('',(-4.,3.,-10.));
#976=CARTESIAN_POINT('',(-8.,-8.23078985419523,-10.));
#977=CARTESIAN_POINT('Origin',(-10.,5.,0.));
#978=CARTESIAN_POINT('Origin',(10.,-5.,0.));
#979=CARTESIAN_POINT('Origin',(10.,5.,0.));
#980=CARTESIAN_POINT('Origin',(5.,-7.97079858348016,-10.5912395769519));
#981=CARTESIAN_POINT('',(8.,-6.35036299249098,-4.81419980770541));
#982=CARTESIAN_POINT('',(5.,-6.35036299249098,-4.81419980770541));
#983=CARTESIAN_POINT('Origin',(8.,-7.97079858348016,-10.5912395769519));
#984=CARTESIAN_POINT('Origin',(5.,-7.97079858348016,10.5912395769519));
#985=CARTESIAN_POINT('',(8.,-2.,10.));
#986=CARTESIAN_POINT('',(5.,-2.,10.));
#987=CARTESIAN_POINT('',(8.,-6.35036299249098,4.81419980770541));
#988=CARTESIAN_POINT('Origin',(8.,-7.97079858348016,10.5912395769519));
#989=CARTESIAN_POINT('',(5.,-6.35036299249098,4.81419980770541));
#990=CARTESIAN_POINT('Origin',(-8.,-16.4615797083905,10.));
#991=CARTESIAN_POINT('',(-8.,3.,10.));
#992=CARTESIAN_POINT('',(-8.,3.,10.));
#993=CARTESIAN_POINT('',(-8.,-8.23078985419523,10.));
#994=CARTESIAN_POINT('Origin',(2.22044604925031E-15,0.,10.));
#995=CARTESIAN_POINT('',(8.,3.,10.));
#996=CARTESIAN_POINT('',(-4.,3.,10.));
#997=CARTESIAN_POINT('',(8.,1.5,10.));
#998=CARTESIAN_POINT('Origin',(-8.,3.,10.));
#999=CARTESIAN_POINT('',(8.,3.,10.));
#1000=CARTESIAN_POINT('Origin',(8.,3.,10.));
#1001=CARTESIAN_POINT('Origin',(8.,-5.,0.));
#1002=CARTESIAN_POINT('Origin',(10.,-5.,0.));
#1003=UNCERTAINTY_MEASURE_WITH_UNIT(LENGTH_MEASURE(0.01),#1007,
'DISTANCE_ACCURACY_VALUE',
'Maximum model space distance between geometric entities at asserted c
onnectivities');
#1004=UNCERTAINTY_MEASURE_WITH_UNIT(LENGTH_MEASURE(0.01),#1007,
'DISTANCE_ACCURACY_VALUE',
'Maximum model space distance between geometric entities at asserted c
onnectivities');
#1005=(
GEOMETRIC_REPRESENTATION_CONTEXT(3)
GLOBAL_UNCERTAINTY_ASSIGNED_CONTEXT((#1003))
GLOBAL_UNIT_ASSIGNED_CONTEXT((#1007,#1009,#1010))
REPRESENTATION_CONTEXT('','3D')
);
#1006=(
GEOMETRIC_REPRESENTATION_CONTEXT(3)
GLOBAL_UNCERTAINTY_ASSIGNED_CONTEXT((#1004))
GLOBAL_UNIT_ASSIGNED_CONTEXT((#1007,#1009,#1010))
REPRESENTATION_CONTEXT('','3D')
);
#1007=(
LENGTH_UNIT()
NAMED_UNIT(*)
SI_UNIT(.MILLI.,.METRE.)
);
#1008=(
LENGTH_UNIT()
NAMED_UNIT(*)
SI_UNIT(.CENTI.,.METRE.)
);
#1009=(
NAMED_UNIT(*)
PLANE_ANGLE_UNIT()
SI_UNIT($,.RADIAN.)
);
#1010=(
NAMED_UNIT(*)
SI_UNIT($,.STERADIAN.)
SOLID_ANGLE_UNIT()
);
#1011=SHAPE_DEFINITION_REPRESENTATION(#1012,#1013);
#1012=PRODUCT_DEFINITION_SHAPE('',$,#1015);
#1013=SHAPE_REPRESENTATION('',(#599),#1005);
#1014=PRODUCT_DEFINITION_CONTEXT('part definition',#1019,'design');
#1015=PRODUCT_DEFINITION('Ball Track Mounting Plate',
'Ball Track Mounting Plate',#1016,#1014);
#1016=PRODUCT_DEFINITION_FORMATION('',$,#1021);
#1017=PRODUCT_RELATED_PRODUCT_CATEGORY('Ball Track Mounting Plate',
'Ball Track Mounting Plate',(#1021));
#1018=APPLICATION_PROTOCOL_DEFINITION('international standard',
'automotive_design',2009,#1019);
#1019=APPLICATION_CONTEXT(
'Core Data for Automotive Mechanical Design Process');
#1020=PRODUCT_CONTEXT('part definition',#1019,'mechanical');
#1021=PRODUCT('Ball Track Mounting Plate','Ball Track Mounting Plate',$,
(#1020));
#1022=PRESENTATION_STYLE_ASSIGNMENT((#1023));
#1023=SURFACE_STYLE_USAGE(.BOTH.,#1026);
#1024=SURFACE_STYLE_RENDERING_WITH_PROPERTIES($,#1030,(#1025));
#1025=SURFACE_STYLE_TRANSPARENT(0.);
#1026=SURFACE_SIDE_STYLE('',(#1027,#1024));
#1027=SURFACE_STYLE_FILL_AREA(#1028);
#1028=FILL_AREA_STYLE('',(#1029));
#1029=FILL_AREA_STYLE_COLOUR('',#1030);
#1030=COLOUR_RGB('',0.796078431372549,0.603921568627451,0.231372549019608);
ENDSEC;
END-ISO-10303-21;
