ISO-10303-21;
HEADER;
/* Generated by software containing ST-Developer
 * from STEP Tools, Inc. (www.steptools.com) 
 */

FILE_DESCRIPTION(
/* description */ (''),
/* implementation_level */ '2;1');

FILE_NAME(
/* name */ 
'S:\\Future Scope 1\\WIP\\Client Category\\Tom\\02 Progressive Work\\B
ell.stp',
/* time_stamp */ '2025-11-05T12:14:40+06:00',
/* author */ ('SD'),
/* organization */ (''),
/* preprocessor_version */ 'ST-DEVELOPER v18.1',
/* originating_system */ 'Autodesk Inventor 2021',
/* authorisation */ '');

FILE_SCHEMA (('AUTOMOTIVE_DESIGN { 1 0 10303 214 3 1 1 }'));
ENDSEC;

DATA;
#10=MECHANICAL_DESIGN_GEOMETRIC_PRESENTATION_REPRESENTATION('',(#13),#391);
#11=SHAPE_REPRESENTATION_RELATIONSHIP('SRR','None',#398,#12);
#12=ADVANCED_BREP_SHAPE_REPRESENTATION('',(#14),#390);
#13=STYLED_ITEM('',(#407),#14);
#14=MANIFOLD_SOLID_BREP('Solid1',#208);
#15=FACE_BOUND('',#40,.T.);
#16=FACE_BOUND('',#43,.T.);
#17=FACE_BOUND('',#48,.T.);
#18=PLANE('',#234);
#19=PLANE('',#238);
#20=PLANE('',#249);
#21=CYLINDRICAL_SURFACE('',#231,1.75);
#22=CYLINDRICAL_SURFACE('',#243,6.);
#23=CYLINDRICAL_SURFACE('',#257,4.96044118693145);
#24=FACE_OUTER_BOUND('',#37,.T.);
#25=FACE_OUTER_BOUND('',#38,.T.);
#26=FACE_OUTER_BOUND('',#39,.T.);
#27=FACE_OUTER_BOUND('',#41,.T.);
#28=FACE_OUTER_BOUND('',#42,.T.);
#29=FACE_OUTER_BOUND('',#44,.T.);
#30=FACE_OUTER_BOUND('',#45,.T.);
#31=FACE_OUTER_BOUND('',#46,.T.);
#32=FACE_OUTER_BOUND('',#47,.T.);
#33=FACE_OUTER_BOUND('',#49,.T.);
#34=FACE_OUTER_BOUND('',#50,.T.);
#35=FACE_OUTER_BOUND('',#51,.T.);
#36=FACE_OUTER_BOUND('',#52,.T.);
#37=EDGE_LOOP('',(#134,#135,#136,#137));
#38=EDGE_LOOP('',(#138,#139,#140,#141,#142));
#39=EDGE_LOOP('',(#143));
#40=EDGE_LOOP('',(#144));
#41=EDGE_LOOP('',(#145,#146,#147,#148,#149));
#42=EDGE_LOOP('',(#150));
#43=EDGE_LOOP('',(#151));
#44=EDGE_LOOP('',(#152,#153,#154,#155,#156));
#45=EDGE_LOOP('',(#157,#158,#159,#160,#161));
#46=EDGE_LOOP('',(#162,#163,#164,#165,#166));
#47=EDGE_LOOP('',(#167));
#48=EDGE_LOOP('',(#168));
#49=EDGE_LOOP('',(#169,#170,#171,#172,#173));
#50=EDGE_LOOP('',(#174,#175,#176,#177,#178));
#51=EDGE_LOOP('',(#179,#180,#181,#182,#183));
#52=EDGE_LOOP('',(#184,#185,#186,#187));
#53=LINE('',#335,#63);
#54=LINE('',#342,#64);
#55=LINE('',#349,#65);
#56=LINE('',#358,#66);
#57=LINE('',#362,#67);
#58=LINE('',#369,#68);
#59=LINE('',#376,#69);
#60=LINE('',#380,#70);
#61=LINE('',#385,#71);
#62=LINE('',#387,#72);
#63=VECTOR('',#264,1.8);
#64=VECTOR('',#273,1.75);
#65=VECTOR('',#282,1.8);
#66=VECTOR('',#293,5.95);
#67=VECTOR('',#298,6.);
#68=VECTOR('',#305,13.5521828438198);
#69=VECTOR('',#314,9.24187747191912);
#70=VECTOR('',#319,14.5555607627804);
#71=VECTOR('',#326,10.3133458379337);
#72=VECTOR('',#329,4.96044118693145);
#73=CIRCLE('',#229,1.85);
#74=CIRCLE('',#230,1.75);
#75=CIRCLE('',#232,1.75);
#76=CIRCLE('',#233,1.75);
#77=CIRCLE('',#235,4.96044118693146);
#78=CIRCLE('',#237,1.85);
#79=CIRCLE('',#239,5.9);
#80=CIRCLE('',#241,6.);
#81=CIRCLE('',#242,6.);
#82=CIRCLE('',#244,6.);
#83=CIRCLE('',#246,13.4810519307327);
#84=CIRCLE('',#247,13.4810519307327);
#85=CIRCLE('',#248,13.6233137569068);
#86=CIRCLE('',#250,14.5266916758675);
#87=CIRCLE('',#252,4.96044118693145);
#88=CIRCLE('',#254,14.5844298496934);
#89=CIRCLE('',#255,14.5844298496934);
#90=VERTEX_POINT('',#332);
#91=VERTEX_POINT('',#334);
#92=VERTEX_POINT('',#338);
#93=VERTEX_POINT('',#339);
#94=VERTEX_POINT('',#344);
#95=VERTEX_POINT('',#347);
#96=VERTEX_POINT('',#351);
#97=VERTEX_POINT('',#354);
#98=VERTEX_POINT('',#355);
#99=VERTEX_POINT('',#360);
#100=VERTEX_POINT('',#364);
#101=VERTEX_POINT('',#365);
#102=VERTEX_POINT('',#368);
#103=VERTEX_POINT('',#372);
#104=VERTEX_POINT('',#375);
#105=VERTEX_POINT('',#379);
#106=VERTEX_POINT('',#381);
#107=EDGE_CURVE('',#90,#90,#73,.T.);
#108=EDGE_CURVE('',#90,#91,#53,.T.);
#109=EDGE_CURVE('',#91,#91,#74,.T.);
#110=EDGE_CURVE('',#92,#93,#75,.T.);
#111=EDGE_CURVE('',#93,#92,#76,.T.);
#112=EDGE_CURVE('',#93,#91,#54,.T.);
#113=EDGE_CURVE('',#94,#94,#77,.T.);
#114=EDGE_CURVE('',#95,#95,#78,.T.);
#115=EDGE_CURVE('',#95,#92,#55,.T.);
#116=EDGE_CURVE('',#96,#96,#79,.T.);
#117=EDGE_CURVE('',#97,#98,#80,.T.);
#118=EDGE_CURVE('',#98,#97,#81,.T.);
#119=EDGE_CURVE('',#97,#96,#56,.T.);
#120=EDGE_CURVE('',#99,#99,#82,.T.);
#121=EDGE_CURVE('',#99,#98,#57,.T.);
#122=EDGE_CURVE('',#100,#101,#83,.T.);
#123=EDGE_CURVE('',#101,#100,#84,.T.);
#124=EDGE_CURVE('',#100,#102,#58,.T.);
#125=EDGE_CURVE('',#102,#102,#85,.T.);
#126=EDGE_CURVE('',#103,#103,#86,.T.);
#127=EDGE_CURVE('',#101,#104,#59,.T.);
#128=EDGE_CURVE('',#104,#104,#87,.T.);
#129=EDGE_CURVE('',#103,#105,#60,.T.);
#130=EDGE_CURVE('',#105,#106,#88,.T.);
#131=EDGE_CURVE('',#106,#105,#89,.T.);
#132=EDGE_CURVE('',#106,#99,#61,.T.);
#133=EDGE_CURVE('',#104,#94,#62,.T.);
#134=ORIENTED_EDGE('',*,*,#107,.T.);
#135=ORIENTED_EDGE('',*,*,#108,.T.);
#136=ORIENTED_EDGE('',*,*,#109,.T.);
#137=ORIENTED_EDGE('',*,*,#108,.F.);
#138=ORIENTED_EDGE('',*,*,#110,.F.);
#139=ORIENTED_EDGE('',*,*,#111,.F.);
#140=ORIENTED_EDGE('',*,*,#112,.T.);
#141=ORIENTED_EDGE('',*,*,#109,.F.);
#142=ORIENTED_EDGE('',*,*,#112,.F.);
#143=ORIENTED_EDGE('',*,*,#113,.T.);
#144=ORIENTED_EDGE('',*,*,#107,.F.);
#145=ORIENTED_EDGE('',*,*,#114,.T.);
#146=ORIENTED_EDGE('',*,*,#115,.T.);
#147=ORIENTED_EDGE('',*,*,#110,.T.);
#148=ORIENTED_EDGE('',*,*,#111,.T.);
#149=ORIENTED_EDGE('',*,*,#115,.F.);
#150=ORIENTED_EDGE('',*,*,#116,.F.);
#151=ORIENTED_EDGE('',*,*,#114,.F.);
#152=ORIENTED_EDGE('',*,*,#117,.T.);
#153=ORIENTED_EDGE('',*,*,#118,.T.);
#154=ORIENTED_EDGE('',*,*,#119,.T.);
#155=ORIENTED_EDGE('',*,*,#116,.T.);
#156=ORIENTED_EDGE('',*,*,#119,.F.);
#157=ORIENTED_EDGE('',*,*,#120,.F.);
#158=ORIENTED_EDGE('',*,*,#121,.T.);
#159=ORIENTED_EDGE('',*,*,#117,.F.);
#160=ORIENTED_EDGE('',*,*,#118,.F.);
#161=ORIENTED_EDGE('',*,*,#121,.F.);
#162=ORIENTED_EDGE('',*,*,#122,.T.);
#163=ORIENTED_EDGE('',*,*,#123,.T.);
#164=ORIENTED_EDGE('',*,*,#124,.T.);
#165=ORIENTED_EDGE('',*,*,#125,.T.);
#166=ORIENTED_EDGE('',*,*,#124,.F.);
#167=ORIENTED_EDGE('',*,*,#126,.F.);
#168=ORIENTED_EDGE('',*,*,#125,.F.);
#169=ORIENTED_EDGE('',*,*,#122,.F.);
#170=ORIENTED_EDGE('',*,*,#123,.F.);
#171=ORIENTED_EDGE('',*,*,#127,.T.);
#172=ORIENTED_EDGE('',*,*,#128,.F.);
#173=ORIENTED_EDGE('',*,*,#127,.F.);
#174=ORIENTED_EDGE('',*,*,#126,.T.);
#175=ORIENTED_EDGE('',*,*,#129,.T.);
#176=ORIENTED_EDGE('',*,*,#130,.T.);
#177=ORIENTED_EDGE('',*,*,#131,.T.);
#178=ORIENTED_EDGE('',*,*,#129,.F.);
#179=ORIENTED_EDGE('',*,*,#130,.F.);
#180=ORIENTED_EDGE('',*,*,#131,.F.);
#181=ORIENTED_EDGE('',*,*,#132,.T.);
#182=ORIENTED_EDGE('',*,*,#120,.T.);
#183=ORIENTED_EDGE('',*,*,#132,.F.);
#184=ORIENTED_EDGE('',*,*,#128,.T.);
#185=ORIENTED_EDGE('',*,*,#133,.T.);
#186=ORIENTED_EDGE('',*,*,#113,.F.);
#187=ORIENTED_EDGE('',*,*,#133,.F.);
#188=CONICAL_SURFACE('',#228,1.8,0.785398163397429);
#189=CONICAL_SURFACE('',#236,1.8,0.785398163397459);
#190=CONICAL_SURFACE('',#240,5.95,0.785398163397448);
#191=CONICAL_SURFACE('',#245,13.5521828438198,1.00356431989676);
#192=CONICAL_SURFACE('',#251,9.24187747191912,0.436332312998582);
#193=CONICAL_SURFACE('',#253,14.5555607627804,0.567232006898147);
#194=CONICAL_SURFACE('',#256,10.3133458379337,0.436332312998582);
#195=ADVANCED_FACE('',(#24),#188,.F.);
#196=ADVANCED_FACE('',(#25),#21,.F.);
#197=ADVANCED_FACE('',(#26,#15),#18,.T.);
#198=ADVANCED_FACE('',(#27),#189,.F.);
#199=ADVANCED_FACE('',(#28,#16),#19,.T.);
#200=ADVANCED_FACE('',(#29),#190,.T.);
#201=ADVANCED_FACE('',(#30),#22,.T.);
#202=ADVANCED_FACE('',(#31),#191,.F.);
#203=ADVANCED_FACE('',(#32,#17),#20,.T.);
#204=ADVANCED_FACE('',(#33),#192,.F.);
#205=ADVANCED_FACE('',(#34),#193,.T.);
#206=ADVANCED_FACE('',(#35),#194,.T.);
#207=ADVANCED_FACE('',(#36),#23,.F.);
#208=CLOSED_SHELL('',(#195,#196,#197,#198,#199,#200,#201,#202,#203,#204,
#205,#206,#207));
#209=DERIVED_UNIT_ELEMENT(#211,1.);
#210=DERIVED_UNIT_ELEMENT(#393,3.);
#211=(
MASS_UNIT()
NAMED_UNIT(*)
SI_UNIT($,.GRAM.)
);
#212=DERIVED_UNIT((#209,#210));
#213=MEASURE_REPRESENTATION_ITEM('density measure',
POSITIVE_RATIO_MEASURE(8.47),#212);
#214=PROPERTY_DEFINITION_REPRESENTATION(#219,#216);
#215=PROPERTY_DEFINITION_REPRESENTATION(#220,#217);
#216=REPRESENTATION('material name',(#218),#390);
#217=REPRESENTATION('density',(#213),#390);
#218=DESCRIPTIVE_REPRESENTATION_ITEM('Brass, Soft Yellow',
'Brass, Soft Yellow');
#219=PROPERTY_DEFINITION('material property','material name',#400);
#220=PROPERTY_DEFINITION('material property','density of part',#400);
#221=DATE_TIME_ROLE('creation_date');
#222=APPLIED_DATE_AND_TIME_ASSIGNMENT(#223,#221,(#400));
#223=DATE_AND_TIME(#224,#225);
#224=CALENDAR_DATE(2025,17,9);
#225=LOCAL_TIME(0,0,0.,#226);
#226=COORDINATED_UNIVERSAL_TIME_OFFSET(0,0,.BEHIND.);
#227=AXIS2_PLACEMENT_3D('placement',#330,#258,#259);
#228=AXIS2_PLACEMENT_3D('',#331,#260,#261);
#229=AXIS2_PLACEMENT_3D('',#333,#262,#263);
#230=AXIS2_PLACEMENT_3D('',#336,#265,#266);
#231=AXIS2_PLACEMENT_3D('',#337,#267,#268);
#232=AXIS2_PLACEMENT_3D('',#340,#269,#270);
#233=AXIS2_PLACEMENT_3D('',#341,#271,#272);
#234=AXIS2_PLACEMENT_3D('',#343,#274,#275);
#235=AXIS2_PLACEMENT_3D('',#345,#276,#277);
#236=AXIS2_PLACEMENT_3D('',#346,#278,#279);
#237=AXIS2_PLACEMENT_3D('',#348,#280,#281);
#238=AXIS2_PLACEMENT_3D('',#350,#283,#284);
#239=AXIS2_PLACEMENT_3D('',#352,#285,#286);
#240=AXIS2_PLACEMENT_3D('',#353,#287,#288);
#241=AXIS2_PLACEMENT_3D('',#356,#289,#290);
#242=AXIS2_PLACEMENT_3D('',#357,#291,#292);
#243=AXIS2_PLACEMENT_3D('',#359,#294,#295);
#244=AXIS2_PLACEMENT_3D('',#361,#296,#297);
#245=AXIS2_PLACEMENT_3D('',#363,#299,#300);
#246=AXIS2_PLACEMENT_3D('',#366,#301,#302);
#247=AXIS2_PLACEMENT_3D('',#367,#303,#304);
#248=AXIS2_PLACEMENT_3D('',#370,#306,#307);
#249=AXIS2_PLACEMENT_3D('',#371,#308,#309);
#250=AXIS2_PLACEMENT_3D('',#373,#310,#311);
#251=AXIS2_PLACEMENT_3D('',#374,#312,#313);
#252=AXIS2_PLACEMENT_3D('',#377,#315,#316);
#253=AXIS2_PLACEMENT_3D('',#378,#317,#318);
#254=AXIS2_PLACEMENT_3D('',#382,#320,#321);
#255=AXIS2_PLACEMENT_3D('',#383,#322,#323);
#256=AXIS2_PLACEMENT_3D('',#384,#324,#325);
#257=AXIS2_PLACEMENT_3D('',#386,#327,#328);
#258=DIRECTION('axis',(0.,0.,1.));
#259=DIRECTION('refdir',(1.,0.,0.));
#260=DIRECTION('center_axis',(0.,-1.,0.));
#261=DIRECTION('ref_axis',(1.,0.,0.));
#262=DIRECTION('center_axis',(0.,-1.,0.));
#263=DIRECTION('ref_axis',(1.,0.,0.));
#264=DIRECTION('',(0.707106781186534,0.707106781186561,8.65956056235476E-17));
#265=DIRECTION('center_axis',(0.,1.,0.));
#266=DIRECTION('ref_axis',(1.,0.,0.));
#267=DIRECTION('center_axis',(0.,1.,0.));
#268=DIRECTION('ref_axis',(1.,0.,0.));
#269=DIRECTION('center_axis',(0.,-1.,0.));
#270=DIRECTION('ref_axis',(-1.,0.,0.));
#271=DIRECTION('center_axis',(0.,-1.,0.));
#272=DIRECTION('ref_axis',(-1.,0.,0.));
#273=DIRECTION('',(0.,-1.,0.));
#274=DIRECTION('center_axis',(0.,-1.,0.));
#275=DIRECTION('ref_axis',(0.,0.,-1.));
#276=DIRECTION('center_axis',(0.,-1.,0.));
#277=DIRECTION('ref_axis',(1.,0.,0.));
#278=DIRECTION('center_axis',(0.,1.,0.));
#279=DIRECTION('ref_axis',(-1.,0.,0.));
#280=DIRECTION('center_axis',(0.,1.,0.));
#281=DIRECTION('ref_axis',(-1.,0.,0.));
#282=DIRECTION('',(-0.707106781186555,-0.70710678118654,8.65956056235503E-17));
#283=DIRECTION('center_axis',(0.,1.,0.));
#284=DIRECTION('ref_axis',(0.,0.,1.));
#285=DIRECTION('center_axis',(0.,-1.,0.));
#286=DIRECTION('ref_axis',(-1.,0.,0.));
#287=DIRECTION('center_axis',(0.,-1.,0.));
#288=DIRECTION('ref_axis',(-1.,0.,0.));
#289=DIRECTION('center_axis',(0.,1.,0.));
#290=DIRECTION('ref_axis',(-1.,0.,0.));
#291=DIRECTION('center_axis',(0.,1.,0.));
#292=DIRECTION('ref_axis',(-1.,0.,0.));
#293=DIRECTION('',(-0.707106781186547,0.707106781186547,-8.65956056235493E-17));
#294=DIRECTION('center_axis',(0.,-1.,0.));
#295=DIRECTION('ref_axis',(1.,0.,0.));
#296=DIRECTION('center_axis',(0.,-1.,0.));
#297=DIRECTION('ref_axis',(1.,0.,0.));
#298=DIRECTION('',(0.,1.,0.));
#299=DIRECTION('center_axis',(0.,-1.,9.10812382518126E-15));
#300=DIRECTION('ref_axis',(-1.,0.,-3.04554758564964E-17));
#301=DIRECTION('center_axis',(0.,1.,0.));
#302=DIRECTION('ref_axis',(-1.,0.,-6.12323399573677E-17));
#303=DIRECTION('center_axis',(0.,1.,0.));
#304=DIRECTION('ref_axis',(-1.,0.,-6.12323399573677E-17));
#305=DIRECTION('',(0.843391445812895,-0.53729960834681,4.81619158840537E-15));
#306=DIRECTION('center_axis',(0.,-1.,0.));
#307=DIRECTION('ref_axis',(-1.,0.,0.));
#308=DIRECTION('center_axis',(0.,-1.,0.));
#309=DIRECTION('ref_axis',(0.,0.,-1.));
#310=DIRECTION('center_axis',(0.,1.,0.));
#311=DIRECTION('ref_axis',(-1.,0.,0.));
#312=DIRECTION('center_axis',(0.,-1.,0.));
#313=DIRECTION('ref_axis',(1.,0.,0.));
#314=DIRECTION('',(0.4226182617407,0.90630778703665,5.17558101501966E-17));
#315=DIRECTION('center_axis',(0.,-1.,0.));
#316=DIRECTION('ref_axis',(1.,0.,0.));
#317=DIRECTION('center_axis',(0.,1.,-9.85359255888948E-15));
#318=DIRECTION('ref_axis',(-1.,0.,-3.06768932229794E-17));
#319=DIRECTION('',(0.537299608346816,0.843391445812891,-8.22815276742444E-15));
#320=DIRECTION('center_axis',(0.,-1.,0.));
#321=DIRECTION('ref_axis',(-1.,0.,-6.12323399573677E-17));
#322=DIRECTION('center_axis',(0.,-1.,0.));
#323=DIRECTION('ref_axis',(-1.,0.,-6.12323399573677E-17));
#324=DIRECTION('center_axis',(0.,-1.,0.));
#325=DIRECTION('ref_axis',(1.,0.,0.));
#326=DIRECTION('',(0.422618261740699,0.90630778703665,5.17558101501966E-17));
#327=DIRECTION('center_axis',(0.,-1.,0.));
#328=DIRECTION('ref_axis',(1.,0.,0.));
#329=DIRECTION('',(0.,1.,0.));
#330=CARTESIAN_POINT('',(0.,0.,0.));
#331=CARTESIAN_POINT('Origin',(0.,-0.950000000029111,0.));
#332=CARTESIAN_POINT('',(-1.85,-1.00000000002911,-2.2655965784226E-16));
#333=CARTESIAN_POINT('Origin',(0.,-1.00000000002911,0.));
#334=CARTESIAN_POINT('',(-1.75,-0.900000000029109,2.14313189850787E-16));
#335=CARTESIAN_POINT('',(-1.8,-0.950000000029111,-2.20436423846524E-16));
#336=CARTESIAN_POINT('Origin',(0.,-0.900000000029109,0.));
#337=CARTESIAN_POINT('Origin',(0.,-26.8,0.));
#338=CARTESIAN_POINT('',(1.75,-0.0999999999999979,2.14313189850787E-16));
#339=CARTESIAN_POINT('',(-1.75,-0.0999999999999979,2.14313189850787E-16));
#340=CARTESIAN_POINT('Origin',(0.,-0.0999999999999979,0.));
#341=CARTESIAN_POINT('Origin',(0.,-0.0999999999999979,0.));
#342=CARTESIAN_POINT('',(-1.75,-26.8,2.14313189850787E-16));
#343=CARTESIAN_POINT('Origin',(0.,-1.00000000002911,0.));
#344=CARTESIAN_POINT('',(-4.96044118693145,-1.00000000002911,-6.0747884219343E-16));
#345=CARTESIAN_POINT('Origin',(0.,-1.00000000002911,0.));
#346=CARTESIAN_POINT('Origin',(0.,-0.0499999999999989,0.));
#347=CARTESIAN_POINT('',(1.85,0.,-2.2655965784226E-16));
#348=CARTESIAN_POINT('Origin',(0.,0.,0.));
#349=CARTESIAN_POINT('',(1.8,-0.0499999999999989,-2.20436423846524E-16));
#350=CARTESIAN_POINT('Origin',(6.,0.,0.));
#351=CARTESIAN_POINT('',(5.9,0.,7.22541611496939E-16));
#352=CARTESIAN_POINT('Origin',(0.,0.,0.));
#353=CARTESIAN_POINT('Origin',(0.,-0.05,0.));
#354=CARTESIAN_POINT('',(6.,-0.1,-7.34788079488412E-16));
#355=CARTESIAN_POINT('',(-6.,-0.1,-7.34788079488412E-16));
#356=CARTESIAN_POINT('Origin',(0.,-0.1,0.));
#357=CARTESIAN_POINT('Origin',(0.,-0.1,0.));
#358=CARTESIAN_POINT('',(5.95,-0.05,7.28664845492675E-16));
#359=CARTESIAN_POINT('Origin',(0.,-0.75,0.));
#360=CARTESIAN_POINT('',(-6.,-1.5,-7.34788079488412E-16));
#361=CARTESIAN_POINT('Origin',(0.,-1.5,0.));
#362=CARTESIAN_POINT('',(-6.,-0.75,-7.34788079488412E-16));
#363=CARTESIAN_POINT('Origin',(0.,-19.9546846106482,-4.12738177402777E-16));
#364=CARTESIAN_POINT('',(13.4810519307327,-19.9093692212963,-1.65095270961111E-15));
#365=CARTESIAN_POINT('',(-13.4810519307327,-19.9093692212963,-1.65095270961111E-15));
#366=CARTESIAN_POINT('Origin',(0.,-19.9093692212963,-8.25476354805554E-16));
#367=CARTESIAN_POINT('Origin',(0.,-19.9093692212963,-8.25476354805554E-16));
#368=CARTESIAN_POINT('',(13.6233137569068,-20.,1.6683747586176E-15));
#369=CARTESIAN_POINT('',(13.5521828438198,-19.9546846106482,-1.65966373411435E-15));
#370=CARTESIAN_POINT('Origin',(0.,-20.,0.));
#371=CARTESIAN_POINT('Origin',(13.5233137569068,-20.,0.));
#372=CARTESIAN_POINT('',(14.5266916758675,-20.,-1.77900664630516E-15));
#373=CARTESIAN_POINT('Origin',(0.,-20.,0.));
#374=CARTESIAN_POINT('Origin',(0.,-10.8184302571232,0.));
#375=CARTESIAN_POINT('',(-4.96044118693145,-1.63686051424641,-6.0747884219343E-16));
#376=CARTESIAN_POINT('',(-9.24187747191912,-10.8184302571232,-1.13180356640978E-15));
#377=CARTESIAN_POINT('Origin',(0.,-1.63686051424641,0.));
#378=CARTESIAN_POINT('Origin',(0.,-19.9546846106482,-4.46519383320403E-16));
#379=CARTESIAN_POINT('',(14.5844298496934,-19.9093692212963,1.78607753328161E-15));
#380=CARTESIAN_POINT('',(14.5555607627804,-19.9546846106482,1.78254208979339E-15));
#381=CARTESIAN_POINT('',(-14.5844298496934,-19.9093692212963,-1.78607753328161E-15));
#382=CARTESIAN_POINT('Origin',(0.,-19.9093692212963,-8.93038766640807E-16));
#383=CARTESIAN_POINT('Origin',(0.,-19.9093692212963,-8.93038766640807E-16));
#384=CARTESIAN_POINT('Origin',(0.,-10.75,0.));
#385=CARTESIAN_POINT('',(-10.3133458379337,-10.75,-1.26302059689252E-15));
#386=CARTESIAN_POINT('Origin',(0.,-1.31843025713776,0.));
#387=CARTESIAN_POINT('',(-4.96044118693145,-1.31843025713776,-6.0747884219343E-16));
#388=UNCERTAINTY_MEASURE_WITH_UNIT(LENGTH_MEASURE(0.01),#392,
'DISTANCE_ACCURACY_VALUE',
'Maximum model space distance between geometric entities at asserted c
onnectivities');
#389=UNCERTAINTY_MEASURE_WITH_UNIT(LENGTH_MEASURE(0.01),#392,
'DISTANCE_ACCURACY_VALUE',
'Maximum model space distance between geometric entities at asserted c
onnectivities');
#390=(
GEOMETRIC_REPRESENTATION_CONTEXT(3)
GLOBAL_UNCERTAINTY_ASSIGNED_CONTEXT((#388))
GLOBAL_UNIT_ASSIGNED_CONTEXT((#392,#394,#395))
REPRESENTATION_CONTEXT('','3D')
);
#391=(
GEOMETRIC_REPRESENTATION_CONTEXT(3)
GLOBAL_UNCERTAINTY_ASSIGNED_CONTEXT((#389))
GLOBAL_UNIT_ASSIGNED_CONTEXT((#392,#394,#395))
REPRESENTATION_CONTEXT('','3D')
);
#392=(
LENGTH_UNIT()
NAMED_UNIT(*)
SI_UNIT(.MILLI.,.METRE.)
);
#393=(
LENGTH_UNIT()
NAMED_UNIT(*)
SI_UNIT(.CENTI.,.METRE.)
);
#394=(
NAMED_UNIT(*)
PLANE_ANGLE_UNIT()
SI_UNIT($,.RADIAN.)
);
#395=(
NAMED_UNIT(*)
SI_UNIT($,.STERADIAN.)
SOLID_ANGLE_UNIT()
);
#396=SHAPE_DEFINITION_REPRESENTATION(#397,#398);
#397=PRODUCT_DEFINITION_SHAPE('',$,#400);
#398=SHAPE_REPRESENTATION('',(#227),#390);
#399=PRODUCT_DEFINITION_CONTEXT('part definition',#404,'design');
#400=PRODUCT_DEFINITION('Bell','Bell',#401,#399);
#401=PRODUCT_DEFINITION_FORMATION('',$,#406);
#402=PRODUCT_RELATED_PRODUCT_CATEGORY('Bell','Bell',(#406));
#403=APPLICATION_PROTOCOL_DEFINITION('international standard',
'automotive_design',2009,#404);
#404=APPLICATION_CONTEXT(
'Core Data for Automotive Mechanical Design Process');
#405=PRODUCT_CONTEXT('part definition',#404,'mechanical');
#406=PRODUCT('Bell','Bell',$,(#405));
#407=PRESENTATION_STYLE_ASSIGNMENT((#408));
#408=SURFACE_STYLE_USAGE(.BOTH.,#411);
#409=SURFACE_STYLE_RENDERING_WITH_PROPERTIES($,#415,(#410));
#410=SURFACE_STYLE_TRANSPARENT(0.);
#411=SURFACE_SIDE_STYLE('',(#412,#409));
#412=SURFACE_STYLE_FILL_AREA(#413);
#413=FILL_AREA_STYLE('',(#414));
#414=FILL_AREA_STYLE_COLOUR('',#415);
#415=COLOUR_RGB('',0.796078431372549,0.603921568627451,0.231372549019608);
ENDSEC;
END-ISO-10303-21;
