ISO-10303-21;
HEADER;
/* Generated by software containing ST-Developer
 * from STEP Tools, Inc. (www.steptools.com) 
 */

FILE_DESCRIPTION(
/* description */ (''),
/* implementation_level */ '2;1');

FILE_NAME(
/* name */ 
'S:\\Future Scope 1\\WIP\\Client Category\\Tom\\02 Progressive Work\\B
ell Support Beam.stp',
/* time_stamp */ '2025-11-05T12:14:40+06:00',
/* author */ ('SD'),
/* organization */ (''),
/* preprocessor_version */ 'ST-DEVELOPER v18.1',
/* originating_system */ 'Autodesk Inventor 2021',
/* authorisation */ '');

FILE_SCHEMA (('AUTOMOTIVE_DESIGN { 1 0 10303 214 3 1 1 }'));
ENDSEC;

DATA;
#10=MECHANICAL_DESIGN_GEOMETRIC_PRESENTATION_REPRESENTATION('',(#13),#759);
#11=SHAPE_REPRESENTATION_RELATIONSHIP('SRR','None',#766,#12);
#12=ADVANCED_BREP_SHAPE_REPRESENTATION('',(#14),#758);
#13=STYLED_ITEM('',(#775),#14);
#14=MANIFOLD_SOLID_BREP('Solid1',#438);
#15=FACE_BOUND('',#87,.T.);
#16=FACE_BOUND('',#88,.T.);
#17=FACE_BOUND('',#98,.T.);
#18=FACE_BOUND('',#99,.T.);
#19=CYLINDRICAL_SURFACE('',#471,5.);
#20=CYLINDRICAL_SURFACE('',#490,10.);
#21=CYLINDRICAL_SURFACE('',#495,5.);
#22=CYLINDRICAL_SURFACE('',#497,1.75);
#23=CYLINDRICAL_SURFACE('',#499,1.75);
#24=CYLINDRICAL_SURFACE('',#502,2.25);
#25=CIRCLE('',#460,10.);
#26=CIRCLE('',#461,9.5);
#27=CIRCLE('',#464,5.);
#28=CIRCLE('',#465,4.5);
#29=CIRCLE('',#468,5.);
#30=CIRCLE('',#469,4.5);
#31=CIRCLE('',#472,5.);
#32=CIRCLE('',#475,2.25);
#33=CIRCLE('',#476,1.75);
#34=CIRCLE('',#477,1.75);
#35=CIRCLE('',#480,10.);
#36=CIRCLE('',#481,9.5);
#37=CIRCLE('',#484,5.);
#38=CIRCLE('',#485,4.5);
#39=CIRCLE('',#488,4.5);
#40=CIRCLE('',#492,4.75);
#41=CIRCLE('',#493,1.75);
#42=CIRCLE('',#494,1.75);
#43=CIRCLE('',#501,2.25);
#44=CONICAL_SURFACE('',#459,9.75,0.785398163397436);
#45=CONICAL_SURFACE('',#463,4.75,0.785398163397436);
#46=CONICAL_SURFACE('',#467,4.75,0.785398163397445);
#47=CONICAL_SURFACE('',#479,9.75,0.785398163397439);
#48=CONICAL_SURFACE('',#483,4.75,0.785398163397443);
#49=CONICAL_SURFACE('',#487,4.75,0.785398163397437);
#50=CONICAL_SURFACE('',#500,3.5,0.785398163397448);
#51=FACE_OUTER_BOUND('',#77,.T.);
#52=FACE_OUTER_BOUND('',#78,.T.);
#53=FACE_OUTER_BOUND('',#79,.T.);
#54=FACE_OUTER_BOUND('',#80,.T.);
#55=FACE_OUTER_BOUND('',#81,.T.);
#56=FACE_OUTER_BOUND('',#82,.T.);
#57=FACE_OUTER_BOUND('',#83,.T.);
#58=FACE_OUTER_BOUND('',#84,.T.);
#59=FACE_OUTER_BOUND('',#85,.T.);
#60=FACE_OUTER_BOUND('',#86,.T.);
#61=FACE_OUTER_BOUND('',#89,.T.);
#62=FACE_OUTER_BOUND('',#90,.T.);
#63=FACE_OUTER_BOUND('',#91,.T.);
#64=FACE_OUTER_BOUND('',#92,.T.);
#65=FACE_OUTER_BOUND('',#93,.T.);
#66=FACE_OUTER_BOUND('',#94,.T.);
#67=FACE_OUTER_BOUND('',#95,.T.);
#68=FACE_OUTER_BOUND('',#96,.T.);
#69=FACE_OUTER_BOUND('',#97,.T.);
#70=FACE_OUTER_BOUND('',#100,.T.);
#71=FACE_OUTER_BOUND('',#101,.T.);
#72=FACE_OUTER_BOUND('',#102,.T.);
#73=FACE_OUTER_BOUND('',#103,.T.);
#74=FACE_OUTER_BOUND('',#104,.T.);
#75=FACE_OUTER_BOUND('',#105,.T.);
#76=FACE_OUTER_BOUND('',#106,.T.);
#77=EDGE_LOOP('',(#281,#282,#283,#284));
#78=EDGE_LOOP('',(#285,#286,#287,#288));
#79=EDGE_LOOP('',(#289,#290,#291,#292));
#80=EDGE_LOOP('',(#293,#294,#295,#296));
#81=EDGE_LOOP('',(#297,#298,#299,#300));
#82=EDGE_LOOP('',(#301,#302,#303,#304));
#83=EDGE_LOOP('',(#305,#306,#307,#308));
#84=EDGE_LOOP('',(#309,#310,#311,#312));
#85=EDGE_LOOP('',(#313,#314,#315,#316));
#86=EDGE_LOOP('',(#317,#318,#319,#320,#321,#322));
#87=EDGE_LOOP('',(#323));
#88=EDGE_LOOP('',(#324,#325,#326,#327));
#89=EDGE_LOOP('',(#328,#329,#330,#331));
#90=EDGE_LOOP('',(#332,#333,#334,#335));
#91=EDGE_LOOP('',(#336,#337,#338,#339));
#92=EDGE_LOOP('',(#340,#341,#342,#343));
#93=EDGE_LOOP('',(#344,#345,#346,#347));
#94=EDGE_LOOP('',(#348,#349,#350,#351));
#95=EDGE_LOOP('',(#352,#353,#354,#355));
#96=EDGE_LOOP('',(#356,#357,#358,#359));
#97=EDGE_LOOP('',(#360,#361,#362,#363,#364,#365));
#98=EDGE_LOOP('',(#366));
#99=EDGE_LOOP('',(#367,#368,#369,#370));
#100=EDGE_LOOP('',(#371,#372,#373,#374));
#101=EDGE_LOOP('',(#375,#376,#377,#378));
#102=EDGE_LOOP('',(#379,#380,#381,#382));
#103=EDGE_LOOP('',(#383,#384,#385,#386));
#104=EDGE_LOOP('',(#387,#388,#389,#390));
#105=EDGE_LOOP('',(#391,#392,#393,#394));
#106=EDGE_LOOP('',(#395,#396,#397,#398));
#107=LINE('',#639,#147);
#108=LINE('',#641,#148);
#109=LINE('',#643,#149);
#110=LINE('',#644,#150);
#111=LINE('',#648,#151);
#112=LINE('',#653,#152);
#113=LINE('',#655,#153);
#114=LINE('',#656,#154);
#115=LINE('',#660,#155);
#116=LINE('',#666,#156);
#117=LINE('',#667,#157);
#118=LINE('',#668,#158);
#119=LINE('',#674,#159);
#120=LINE('',#676,#160);
#121=LINE('',#677,#161);
#122=LINE('',#680,#162);
#123=LINE('',#684,#163);
#124=LINE('',#685,#164);
#125=LINE('',#691,#165);
#126=LINE('',#695,#166);
#127=LINE('',#699,#167);
#128=LINE('',#701,#168);
#129=LINE('',#702,#169);
#130=LINE('',#707,#170);
#131=LINE('',#712,#171);
#132=LINE('',#713,#172);
#133=LINE('',#714,#173);
#134=LINE('',#718,#174);
#135=LINE('',#722,#175);
#136=LINE('',#723,#176);
#137=LINE('',#727,#177);
#138=LINE('',#728,#178);
#139=LINE('',#735,#179);
#140=LINE('',#739,#180);
#141=LINE('',#743,#181);
#142=LINE('',#744,#182);
#143=LINE('',#746,#183);
#144=LINE('',#748,#184);
#145=LINE('',#752,#185);
#146=LINE('',#755,#186);
#147=VECTOR('',#507,10.);
#148=VECTOR('',#508,10.);
#149=VECTOR('',#509,10.);
#150=VECTOR('',#510,10.);
#151=VECTOR('',#513,10.);
#152=VECTOR('',#520,10.);
#153=VECTOR('',#521,10.);
#154=VECTOR('',#522,10.);
#155=VECTOR('',#525,10.);
#156=VECTOR('',#532,10.);
#157=VECTOR('',#533,10.);
#158=VECTOR('',#534,10.);
#159=VECTOR('',#543,10.);
#160=VECTOR('',#544,10.);
#161=VECTOR('',#545,10.);
#162=VECTOR('',#548,10.);
#163=VECTOR('',#553,10.);
#164=VECTOR('',#554,10.);
#165=VECTOR('',#559,10.);
#166=VECTOR('',#562,10.);
#167=VECTOR('',#567,10.);
#168=VECTOR('',#568,10.);
#169=VECTOR('',#569,10.);
#170=VECTOR('',#574,10.);
#171=VECTOR('',#579,10.);
#172=VECTOR('',#580,10.);
#173=VECTOR('',#581,10.);
#174=VECTOR('',#586,10.);
#175=VECTOR('',#591,10.);
#176=VECTOR('',#592,10.);
#177=VECTOR('',#599,10.);
#178=VECTOR('',#600,10.);
#179=VECTOR('',#607,10.);
#180=VECTOR('',#610,10.);
#181=VECTOR('',#617,10.);
#182=VECTOR('',#618,10.);
#183=VECTOR('',#621,10.);
#184=VECTOR('',#624,10.);
#185=VECTOR('',#629,3.5);
#186=VECTOR('',#634,2.25);
#187=VERTEX_POINT('',#637);
#188=VERTEX_POINT('',#638);
#189=VERTEX_POINT('',#640);
#190=VERTEX_POINT('',#642);
#191=VERTEX_POINT('',#646);
#192=VERTEX_POINT('',#647);
#193=VERTEX_POINT('',#652);
#194=VERTEX_POINT('',#654);
#195=VERTEX_POINT('',#658);
#196=VERTEX_POINT('',#659);
#197=VERTEX_POINT('',#664);
#198=VERTEX_POINT('',#665);
#199=VERTEX_POINT('',#673);
#200=VERTEX_POINT('',#675);
#201=VERTEX_POINT('',#679);
#202=VERTEX_POINT('',#683);
#203=VERTEX_POINT('',#687);
#204=VERTEX_POINT('',#689);
#205=VERTEX_POINT('',#690);
#206=VERTEX_POINT('',#692);
#207=VERTEX_POINT('',#694);
#208=VERTEX_POINT('',#698);
#209=VERTEX_POINT('',#700);
#210=VERTEX_POINT('',#704);
#211=VERTEX_POINT('',#706);
#212=VERTEX_POINT('',#710);
#213=VERTEX_POINT('',#711);
#214=VERTEX_POINT('',#717);
#215=VERTEX_POINT('',#721);
#216=VERTEX_POINT('',#731);
#217=VERTEX_POINT('',#733);
#218=VERTEX_POINT('',#734);
#219=VERTEX_POINT('',#736);
#220=VERTEX_POINT('',#738);
#221=VERTEX_POINT('',#751);
#222=EDGE_CURVE('',#187,#188,#107,.T.);
#223=EDGE_CURVE('',#188,#189,#108,.T.);
#224=EDGE_CURVE('',#189,#190,#109,.T.);
#225=EDGE_CURVE('',#190,#187,#110,.T.);
#226=EDGE_CURVE('',#191,#192,#111,.T.);
#227=EDGE_CURVE('',#192,#188,#25,.T.);
#228=EDGE_CURVE('',#187,#191,#26,.T.);
#229=EDGE_CURVE('',#191,#193,#112,.T.);
#230=EDGE_CURVE('',#193,#194,#113,.T.);
#231=EDGE_CURVE('',#194,#192,#114,.T.);
#232=EDGE_CURVE('',#195,#196,#115,.T.);
#233=EDGE_CURVE('',#196,#194,#27,.T.);
#234=EDGE_CURVE('',#193,#195,#28,.T.);
#235=EDGE_CURVE('',#197,#198,#116,.T.);
#236=EDGE_CURVE('',#198,#196,#117,.T.);
#237=EDGE_CURVE('',#195,#197,#118,.T.);
#238=EDGE_CURVE('',#189,#198,#29,.T.);
#239=EDGE_CURVE('',#197,#190,#30,.T.);
#240=EDGE_CURVE('',#199,#198,#119,.T.);
#241=EDGE_CURVE('',#200,#199,#120,.T.);
#242=EDGE_CURVE('',#196,#200,#121,.T.);
#243=EDGE_CURVE('',#189,#201,#122,.T.);
#244=EDGE_CURVE('',#199,#201,#31,.T.);
#245=EDGE_CURVE('',#202,#188,#123,.T.);
#246=EDGE_CURVE('',#201,#202,#124,.T.);
#247=EDGE_CURVE('',#203,#203,#32,.T.);
#248=EDGE_CURVE('',#204,#205,#125,.T.);
#249=EDGE_CURVE('',#205,#206,#33,.T.);
#250=EDGE_CURVE('',#206,#207,#126,.T.);
#251=EDGE_CURVE('',#207,#204,#34,.T.);
#252=EDGE_CURVE('',#202,#208,#127,.T.);
#253=EDGE_CURVE('',#208,#209,#128,.T.);
#254=EDGE_CURVE('',#209,#201,#129,.T.);
#255=EDGE_CURVE('',#202,#210,#35,.T.);
#256=EDGE_CURVE('',#210,#211,#130,.T.);
#257=EDGE_CURVE('',#211,#208,#36,.T.);
#258=EDGE_CURVE('',#212,#213,#131,.T.);
#259=EDGE_CURVE('',#213,#211,#132,.T.);
#260=EDGE_CURVE('',#210,#212,#133,.T.);
#261=EDGE_CURVE('',#212,#200,#37,.T.);
#262=EDGE_CURVE('',#200,#214,#134,.T.);
#263=EDGE_CURVE('',#214,#213,#38,.T.);
#264=EDGE_CURVE('',#199,#215,#135,.T.);
#265=EDGE_CURVE('',#215,#214,#136,.T.);
#266=EDGE_CURVE('',#209,#215,#39,.T.);
#267=EDGE_CURVE('',#212,#194,#137,.T.);
#268=EDGE_CURVE('',#192,#210,#138,.T.);
#269=EDGE_CURVE('',#216,#216,#40,.T.);
#270=EDGE_CURVE('',#217,#218,#139,.T.);
#271=EDGE_CURVE('',#218,#219,#41,.T.);
#272=EDGE_CURVE('',#219,#220,#140,.T.);
#273=EDGE_CURVE('',#220,#217,#42,.T.);
#274=EDGE_CURVE('',#217,#205,#141,.T.);
#275=EDGE_CURVE('',#218,#204,#142,.T.);
#276=EDGE_CURVE('',#220,#206,#143,.T.);
#277=EDGE_CURVE('',#219,#207,#144,.T.);
#278=EDGE_CURVE('',#216,#221,#145,.T.);
#279=EDGE_CURVE('',#221,#221,#43,.T.);
#280=EDGE_CURVE('',#221,#203,#146,.T.);
#281=ORIENTED_EDGE('',*,*,#222,.T.);
#282=ORIENTED_EDGE('',*,*,#223,.T.);
#283=ORIENTED_EDGE('',*,*,#224,.T.);
#284=ORIENTED_EDGE('',*,*,#225,.T.);
#285=ORIENTED_EDGE('',*,*,#226,.T.);
#286=ORIENTED_EDGE('',*,*,#227,.T.);
#287=ORIENTED_EDGE('',*,*,#222,.F.);
#288=ORIENTED_EDGE('',*,*,#228,.T.);
#289=ORIENTED_EDGE('',*,*,#226,.F.);
#290=ORIENTED_EDGE('',*,*,#229,.T.);
#291=ORIENTED_EDGE('',*,*,#230,.T.);
#292=ORIENTED_EDGE('',*,*,#231,.T.);
#293=ORIENTED_EDGE('',*,*,#232,.T.);
#294=ORIENTED_EDGE('',*,*,#233,.T.);
#295=ORIENTED_EDGE('',*,*,#230,.F.);
#296=ORIENTED_EDGE('',*,*,#234,.T.);
#297=ORIENTED_EDGE('',*,*,#235,.T.);
#298=ORIENTED_EDGE('',*,*,#236,.T.);
#299=ORIENTED_EDGE('',*,*,#232,.F.);
#300=ORIENTED_EDGE('',*,*,#237,.T.);
#301=ORIENTED_EDGE('',*,*,#224,.F.);
#302=ORIENTED_EDGE('',*,*,#238,.T.);
#303=ORIENTED_EDGE('',*,*,#235,.F.);
#304=ORIENTED_EDGE('',*,*,#239,.T.);
#305=ORIENTED_EDGE('',*,*,#236,.F.);
#306=ORIENTED_EDGE('',*,*,#240,.F.);
#307=ORIENTED_EDGE('',*,*,#241,.F.);
#308=ORIENTED_EDGE('',*,*,#242,.F.);
#309=ORIENTED_EDGE('',*,*,#238,.F.);
#310=ORIENTED_EDGE('',*,*,#243,.T.);
#311=ORIENTED_EDGE('',*,*,#244,.F.);
#312=ORIENTED_EDGE('',*,*,#240,.T.);
#313=ORIENTED_EDGE('',*,*,#223,.F.);
#314=ORIENTED_EDGE('',*,*,#245,.F.);
#315=ORIENTED_EDGE('',*,*,#246,.F.);
#316=ORIENTED_EDGE('',*,*,#243,.F.);
#317=ORIENTED_EDGE('',*,*,#225,.F.);
#318=ORIENTED_EDGE('',*,*,#239,.F.);
#319=ORIENTED_EDGE('',*,*,#237,.F.);
#320=ORIENTED_EDGE('',*,*,#234,.F.);
#321=ORIENTED_EDGE('',*,*,#229,.F.);
#322=ORIENTED_EDGE('',*,*,#228,.F.);
#323=ORIENTED_EDGE('',*,*,#247,.T.);
#324=ORIENTED_EDGE('',*,*,#248,.T.);
#325=ORIENTED_EDGE('',*,*,#249,.T.);
#326=ORIENTED_EDGE('',*,*,#250,.T.);
#327=ORIENTED_EDGE('',*,*,#251,.T.);
#328=ORIENTED_EDGE('',*,*,#252,.T.);
#329=ORIENTED_EDGE('',*,*,#253,.T.);
#330=ORIENTED_EDGE('',*,*,#254,.T.);
#331=ORIENTED_EDGE('',*,*,#246,.T.);
#332=ORIENTED_EDGE('',*,*,#252,.F.);
#333=ORIENTED_EDGE('',*,*,#255,.T.);
#334=ORIENTED_EDGE('',*,*,#256,.T.);
#335=ORIENTED_EDGE('',*,*,#257,.T.);
#336=ORIENTED_EDGE('',*,*,#258,.T.);
#337=ORIENTED_EDGE('',*,*,#259,.T.);
#338=ORIENTED_EDGE('',*,*,#256,.F.);
#339=ORIENTED_EDGE('',*,*,#260,.T.);
#340=ORIENTED_EDGE('',*,*,#258,.F.);
#341=ORIENTED_EDGE('',*,*,#261,.T.);
#342=ORIENTED_EDGE('',*,*,#262,.T.);
#343=ORIENTED_EDGE('',*,*,#263,.T.);
#344=ORIENTED_EDGE('',*,*,#262,.F.);
#345=ORIENTED_EDGE('',*,*,#241,.T.);
#346=ORIENTED_EDGE('',*,*,#264,.T.);
#347=ORIENTED_EDGE('',*,*,#265,.T.);
#348=ORIENTED_EDGE('',*,*,#264,.F.);
#349=ORIENTED_EDGE('',*,*,#244,.T.);
#350=ORIENTED_EDGE('',*,*,#254,.F.);
#351=ORIENTED_EDGE('',*,*,#266,.T.);
#352=ORIENTED_EDGE('',*,*,#231,.F.);
#353=ORIENTED_EDGE('',*,*,#267,.F.);
#354=ORIENTED_EDGE('',*,*,#260,.F.);
#355=ORIENTED_EDGE('',*,*,#268,.F.);
#356=ORIENTED_EDGE('',*,*,#227,.F.);
#357=ORIENTED_EDGE('',*,*,#268,.T.);
#358=ORIENTED_EDGE('',*,*,#255,.F.);
#359=ORIENTED_EDGE('',*,*,#245,.T.);
#360=ORIENTED_EDGE('',*,*,#253,.F.);
#361=ORIENTED_EDGE('',*,*,#257,.F.);
#362=ORIENTED_EDGE('',*,*,#259,.F.);
#363=ORIENTED_EDGE('',*,*,#263,.F.);
#364=ORIENTED_EDGE('',*,*,#265,.F.);
#365=ORIENTED_EDGE('',*,*,#266,.F.);
#366=ORIENTED_EDGE('',*,*,#269,.T.);
#367=ORIENTED_EDGE('',*,*,#270,.T.);
#368=ORIENTED_EDGE('',*,*,#271,.T.);
#369=ORIENTED_EDGE('',*,*,#272,.T.);
#370=ORIENTED_EDGE('',*,*,#273,.T.);
#371=ORIENTED_EDGE('',*,*,#233,.F.);
#372=ORIENTED_EDGE('',*,*,#242,.T.);
#373=ORIENTED_EDGE('',*,*,#261,.F.);
#374=ORIENTED_EDGE('',*,*,#267,.T.);
#375=ORIENTED_EDGE('',*,*,#270,.F.);
#376=ORIENTED_EDGE('',*,*,#274,.T.);
#377=ORIENTED_EDGE('',*,*,#248,.F.);
#378=ORIENTED_EDGE('',*,*,#275,.F.);
#379=ORIENTED_EDGE('',*,*,#273,.F.);
#380=ORIENTED_EDGE('',*,*,#276,.T.);
#381=ORIENTED_EDGE('',*,*,#249,.F.);
#382=ORIENTED_EDGE('',*,*,#274,.F.);
#383=ORIENTED_EDGE('',*,*,#272,.F.);
#384=ORIENTED_EDGE('',*,*,#277,.T.);
#385=ORIENTED_EDGE('',*,*,#250,.F.);
#386=ORIENTED_EDGE('',*,*,#276,.F.);
#387=ORIENTED_EDGE('',*,*,#271,.F.);
#388=ORIENTED_EDGE('',*,*,#275,.T.);
#389=ORIENTED_EDGE('',*,*,#251,.F.);
#390=ORIENTED_EDGE('',*,*,#277,.F.);
#391=ORIENTED_EDGE('',*,*,#269,.F.);
#392=ORIENTED_EDGE('',*,*,#278,.T.);
#393=ORIENTED_EDGE('',*,*,#279,.F.);
#394=ORIENTED_EDGE('',*,*,#278,.F.);
#395=ORIENTED_EDGE('',*,*,#279,.T.);
#396=ORIENTED_EDGE('',*,*,#280,.T.);
#397=ORIENTED_EDGE('',*,*,#247,.F.);
#398=ORIENTED_EDGE('',*,*,#280,.F.);
#399=PLANE('',#458);
#400=PLANE('',#462);
#401=PLANE('',#466);
#402=PLANE('',#470);
#403=PLANE('',#473);
#404=PLANE('',#474);
#405=PLANE('',#478);
#406=PLANE('',#482);
#407=PLANE('',#486);
#408=PLANE('',#489);
#409=PLANE('',#491);
#410=PLANE('',#496);
#411=PLANE('',#498);
#412=ADVANCED_FACE('',(#51),#399,.T.);
#413=ADVANCED_FACE('',(#52),#44,.T.);
#414=ADVANCED_FACE('',(#53),#400,.T.);
#415=ADVANCED_FACE('',(#54),#45,.T.);
#416=ADVANCED_FACE('',(#55),#401,.T.);
#417=ADVANCED_FACE('',(#56),#46,.T.);
#418=ADVANCED_FACE('',(#57),#402,.T.);
#419=ADVANCED_FACE('',(#58),#19,.T.);
#420=ADVANCED_FACE('',(#59),#403,.T.);
#421=ADVANCED_FACE('',(#60,#15,#16),#404,.T.);
#422=ADVANCED_FACE('',(#61),#405,.T.);
#423=ADVANCED_FACE('',(#62),#47,.T.);
#424=ADVANCED_FACE('',(#63),#406,.T.);
#425=ADVANCED_FACE('',(#64),#48,.T.);
#426=ADVANCED_FACE('',(#65),#407,.T.);
#427=ADVANCED_FACE('',(#66),#49,.T.);
#428=ADVANCED_FACE('',(#67),#408,.T.);
#429=ADVANCED_FACE('',(#68),#20,.T.);
#430=ADVANCED_FACE('',(#69,#17,#18),#409,.T.);
#431=ADVANCED_FACE('',(#70),#21,.T.);
#432=ADVANCED_FACE('',(#71),#410,.F.);
#433=ADVANCED_FACE('',(#72),#22,.F.);
#434=ADVANCED_FACE('',(#73),#411,.F.);
#435=ADVANCED_FACE('',(#74),#23,.F.);
#436=ADVANCED_FACE('',(#75),#50,.F.);
#437=ADVANCED_FACE('',(#76),#24,.F.);
#438=CLOSED_SHELL('',(#412,#413,#414,#415,#416,#417,#418,#419,#420,#421,
#422,#423,#424,#425,#426,#427,#428,#429,#430,#431,#432,#433,#434,#435,#436,
#437));
#439=DERIVED_UNIT_ELEMENT(#441,1.);
#440=DERIVED_UNIT_ELEMENT(#761,3.);
#441=(
MASS_UNIT()
NAMED_UNIT(*)
SI_UNIT($,.GRAM.)
);
#442=DERIVED_UNIT((#439,#440));
#443=MEASURE_REPRESENTATION_ITEM('density measure',
POSITIVE_RATIO_MEASURE(8.47),#442);
#444=PROPERTY_DEFINITION_REPRESENTATION(#449,#446);
#445=PROPERTY_DEFINITION_REPRESENTATION(#450,#447);
#446=REPRESENTATION('material name',(#448),#758);
#447=REPRESENTATION('density',(#443),#758);
#448=DESCRIPTIVE_REPRESENTATION_ITEM('Brass, Soft Yellow',
'Brass, Soft Yellow');
#449=PROPERTY_DEFINITION('material property','material name',#768);
#450=PROPERTY_DEFINITION('material property','density of part',#768);
#451=DATE_TIME_ROLE('creation_date');
#452=APPLIED_DATE_AND_TIME_ASSIGNMENT(#453,#451,(#768));
#453=DATE_AND_TIME(#454,#455);
#454=CALENDAR_DATE(2025,16,9);
#455=LOCAL_TIME(0,0,0.,#456);
#456=COORDINATED_UNIVERSAL_TIME_OFFSET(0,0,.BEHIND.);
#457=AXIS2_PLACEMENT_3D('placement',#635,#503,#504);
#458=AXIS2_PLACEMENT_3D('',#636,#505,#506);
#459=AXIS2_PLACEMENT_3D('',#645,#511,#512);
#460=AXIS2_PLACEMENT_3D('',#649,#514,#515);
#461=AXIS2_PLACEMENT_3D('',#650,#516,#517);
#462=AXIS2_PLACEMENT_3D('',#651,#518,#519);
#463=AXIS2_PLACEMENT_3D('',#657,#523,#524);
#464=AXIS2_PLACEMENT_3D('',#661,#526,#527);
#465=AXIS2_PLACEMENT_3D('',#662,#528,#529);
#466=AXIS2_PLACEMENT_3D('',#663,#530,#531);
#467=AXIS2_PLACEMENT_3D('',#669,#535,#536);
#468=AXIS2_PLACEMENT_3D('',#670,#537,#538);
#469=AXIS2_PLACEMENT_3D('',#671,#539,#540);
#470=AXIS2_PLACEMENT_3D('',#672,#541,#542);
#471=AXIS2_PLACEMENT_3D('',#678,#546,#547);
#472=AXIS2_PLACEMENT_3D('',#681,#549,#550);
#473=AXIS2_PLACEMENT_3D('',#682,#551,#552);
#474=AXIS2_PLACEMENT_3D('',#686,#555,#556);
#475=AXIS2_PLACEMENT_3D('',#688,#557,#558);
#476=AXIS2_PLACEMENT_3D('',#693,#560,#561);
#477=AXIS2_PLACEMENT_3D('',#696,#563,#564);
#478=AXIS2_PLACEMENT_3D('',#697,#565,#566);
#479=AXIS2_PLACEMENT_3D('',#703,#570,#571);
#480=AXIS2_PLACEMENT_3D('',#705,#572,#573);
#481=AXIS2_PLACEMENT_3D('',#708,#575,#576);
#482=AXIS2_PLACEMENT_3D('',#709,#577,#578);
#483=AXIS2_PLACEMENT_3D('',#715,#582,#583);
#484=AXIS2_PLACEMENT_3D('',#716,#584,#585);
#485=AXIS2_PLACEMENT_3D('',#719,#587,#588);
#486=AXIS2_PLACEMENT_3D('',#720,#589,#590);
#487=AXIS2_PLACEMENT_3D('',#724,#593,#594);
#488=AXIS2_PLACEMENT_3D('',#725,#595,#596);
#489=AXIS2_PLACEMENT_3D('',#726,#597,#598);
#490=AXIS2_PLACEMENT_3D('',#729,#601,#602);
#491=AXIS2_PLACEMENT_3D('',#730,#603,#604);
#492=AXIS2_PLACEMENT_3D('',#732,#605,#606);
#493=AXIS2_PLACEMENT_3D('',#737,#608,#609);
#494=AXIS2_PLACEMENT_3D('',#740,#611,#612);
#495=AXIS2_PLACEMENT_3D('',#741,#613,#614);
#496=AXIS2_PLACEMENT_3D('',#742,#615,#616);
#497=AXIS2_PLACEMENT_3D('',#745,#619,#620);
#498=AXIS2_PLACEMENT_3D('',#747,#622,#623);
#499=AXIS2_PLACEMENT_3D('',#749,#625,#626);
#500=AXIS2_PLACEMENT_3D('',#750,#627,#628);
#501=AXIS2_PLACEMENT_3D('',#753,#630,#631);
#502=AXIS2_PLACEMENT_3D('',#754,#632,#633);
#503=DIRECTION('axis',(0.,0.,1.));
#504=DIRECTION('refdir',(1.,0.,0.));
#505=DIRECTION('center_axis',(0.,0.707106781186547,0.707106781186548));
#506=DIRECTION('ref_axis',(1.,0.,0.));
#507=DIRECTION('',(0.,0.707106781186548,-0.707106781186547));
#508=DIRECTION('',(-1.,0.,0.));
#509=DIRECTION('',(0.,-0.707106781186548,0.707106781186547));
#510=DIRECTION('',(1.,0.,0.));
#511=DIRECTION('center_axis',(0.,0.,-1.));
#512=DIRECTION('ref_axis',(0.707106781186547,0.707106781186547,8.05175619837833E-17));
#513=DIRECTION('',(0.,-0.707106781186542,-0.707106781186553));
#514=DIRECTION('center_axis',(0.,0.,1.));
#515=DIRECTION('ref_axis',(0.707106781186547,0.707106781186547,1.57009245868377E-16));
#516=DIRECTION('center_axis',(0.,0.,-1.));
#517=DIRECTION('ref_axis',(0.707106781186547,0.707106781186547,0.));
#518=DIRECTION('center_axis',(0.,-0.707106781186548,0.707106781186548));
#519=DIRECTION('ref_axis',(1.,0.,0.));
#520=DIRECTION('',(-1.,0.,0.));
#521=DIRECTION('',(0.,-0.707106781186547,-0.707106781186547));
#522=DIRECTION('',(1.,0.,0.));
#523=DIRECTION('center_axis',(0.,0.,-1.));
#524=DIRECTION('ref_axis',(-0.707106781186547,-0.707106781186548,-1.65272890387766E-16));
#525=DIRECTION('',(-0.707106781186539,0.,-0.707106781186556));
#526=DIRECTION('center_axis',(0.,0.,1.));
#527=DIRECTION('ref_axis',(-0.707106781186547,-0.707106781186548,-3.14018491736755E-16));
#528=DIRECTION('center_axis',(0.,0.,-1.));
#529=DIRECTION('ref_axis',(-0.707106781186547,-0.707106781186548,0.));
#530=DIRECTION('center_axis',(-0.707106781186549,0.,0.707106781186546));
#531=DIRECTION('ref_axis',(0.707106781186546,0.,0.707106781186549));
#532=DIRECTION('',(-0.707106781186546,0.,-0.707106781186549));
#533=DIRECTION('',(0.,-1.,0.));
#534=DIRECTION('',(0.,1.,0.));
#535=DIRECTION('center_axis',(0.,0.,-1.));
#536=DIRECTION('ref_axis',(-0.707106781186548,0.707106781186547,8.26364451938829E-17));
#537=DIRECTION('center_axis',(0.,0.,1.));
#538=DIRECTION('ref_axis',(-0.707106781186548,0.707106781186547,1.57009245868378E-16));
#539=DIRECTION('center_axis',(0.,0.,-1.));
#540=DIRECTION('ref_axis',(-0.707106781186548,0.707106781186547,0.));
#541=DIRECTION('center_axis',(-1.,0.,0.));
#542=DIRECTION('ref_axis',(0.,0.,1.));
#543=DIRECTION('',(0.,-2.22044604925031E-16,1.));
#544=DIRECTION('',(0.,1.,-1.66533453693773E-16));
#545=DIRECTION('',(0.,4.44089209850063E-16,-1.));
#546=DIRECTION('center_axis',(0.,2.22044604925031E-16,-1.));
#547=DIRECTION('ref_axis',(-0.707106781186548,0.707106781186547,1.57009245868378E-16));
#548=DIRECTION('',(0.,2.22044604925031E-16,-1.));
#549=DIRECTION('center_axis',(0.,-1.66533453693773E-16,-1.));
#550=DIRECTION('ref_axis',(-0.707106781186548,0.707106781186547,1.57009245868378E-16));
#551=DIRECTION('center_axis',(0.,1.,2.22044604925031E-16));
#552=DIRECTION('ref_axis',(0.,-2.22044604925031E-16,1.));
#553=DIRECTION('',(0.,-2.22044604925031E-16,1.));
#554=DIRECTION('',(1.,0.,0.));
#555=DIRECTION('center_axis',(0.,0.,1.));
#556=DIRECTION('ref_axis',(0.,-1.,0.));
#557=DIRECTION('center_axis',(0.,0.,-1.));
#558=DIRECTION('ref_axis',(-1.,0.,0.));
#559=DIRECTION('',(-1.,-5.9211894646675E-16,0.));
#560=DIRECTION('center_axis',(0.,0.,-1.));
#561=DIRECTION('ref_axis',(0.,-1.,1.66533453693773E-16));
#562=DIRECTION('',(1.,5.9211894646675E-16,0.));
#563=DIRECTION('center_axis',(0.,0.,-1.));
#564=DIRECTION('ref_axis',(0.,1.,-1.66533453693774E-16));
#565=DIRECTION('center_axis',(0.,0.707106781186547,-0.707106781186548));
#566=DIRECTION('ref_axis',(-1.,0.,0.));
#567=DIRECTION('',(0.,-0.707106781186547,-0.707106781186548));
#568=DIRECTION('',(-1.,0.,0.));
#569=DIRECTION('',(0.,0.707106781186547,0.707106781186548));
#570=DIRECTION('center_axis',(0.,1.66533453693774E-16,1.));
#571=DIRECTION('ref_axis',(0.707106781186547,0.707106781186547,2.31487990703377E-17));
#572=DIRECTION('center_axis',(0.,-1.66533453693773E-16,-1.));
#573=DIRECTION('ref_axis',(0.707106781186547,0.707106781186547,1.57009245868377E-16));
#574=DIRECTION('',(0.,0.70710678118654,-0.707106781186555));
#575=DIRECTION('center_axis',(0.,1.66533453693773E-16,1.));
#576=DIRECTION('ref_axis',(0.707106781186547,0.707106781186547,-1.17756934401283E-16));
#577=DIRECTION('center_axis',(0.,-0.707106781186547,-0.707106781186548));
#578=DIRECTION('ref_axis',(-1.,0.,0.));
#579=DIRECTION('',(0.,0.70710678118655,-0.707106781186545));
#580=DIRECTION('',(1.,0.,0.));
#581=DIRECTION('',(-1.,0.,0.));
#582=DIRECTION('center_axis',(0.,0.,1.));
#583=DIRECTION('ref_axis',(-0.707106781186547,-0.707106781186548,-1.09493289881895E-16));
#584=DIRECTION('center_axis',(0.,-1.66533453693773E-16,-1.));
#585=DIRECTION('ref_axis',(-0.707106781186547,-0.707106781186548,-3.14018491736755E-16));
#586=DIRECTION('',(0.707106781186547,0.,-0.707106781186548));
#587=DIRECTION('center_axis',(0.,1.66533453693773E-16,1.));
#588=DIRECTION('ref_axis',(-0.707106781186547,-0.707106781186548,1.17756934401283E-16));
#589=DIRECTION('center_axis',(-0.707106781186549,-1.17756934401283E-16,
-0.707106781186546));
#590=DIRECTION('ref_axis',(-0.707106781186546,0.,0.707106781186549));
#591=DIRECTION('',(0.707106781186546,-1.57009245868378E-15,-0.707106781186549));
#592=DIRECTION('',(0.,-1.,1.66533453693773E-16));
#593=DIRECTION('center_axis',(0.,0.,1.));
#594=DIRECTION('ref_axis',(-0.707106781186548,0.707106781186547,2.68568446880119E-17));
#595=DIRECTION('center_axis',(0.,1.66533453693773E-16,1.));
#596=DIRECTION('ref_axis',(-0.707106781186548,0.707106781186547,-1.17756934401283E-16));
#597=DIRECTION('center_axis',(0.,-1.,-4.44089209850063E-16));
#598=DIRECTION('ref_axis',(0.,4.44089209850063E-16,-1.));
#599=DIRECTION('',(0.,-4.44089209850063E-16,1.));
#600=DIRECTION('',(0.,4.44089209850063E-16,-1.));
#601=DIRECTION('center_axis',(0.,-2.22044604925031E-16,1.));
#602=DIRECTION('ref_axis',(0.707106781186548,0.707106781186547,1.57009245868378E-16));
#603=DIRECTION('center_axis',(0.,-1.66533453693773E-16,-1.));
#604=DIRECTION('ref_axis',(0.,1.,-1.66533453693773E-16));
#605=DIRECTION('center_axis',(0.,1.66533453693773E-16,1.));
#606=DIRECTION('ref_axis',(-1.,0.,0.));
#607=DIRECTION('',(1.,5.9211894646675E-16,-9.86076131526265E-32));
#608=DIRECTION('center_axis',(0.,1.66533453693773E-16,1.));
#609=DIRECTION('ref_axis',(0.,1.,-1.66533453693774E-16));
#610=DIRECTION('',(-1.,-5.9211894646675E-16,9.86076131526265E-32));
#611=DIRECTION('center_axis',(0.,1.66533453693773E-16,1.));
#612=DIRECTION('ref_axis',(0.,-1.,1.66533453693773E-16));
#613=DIRECTION('center_axis',(0.,-4.44089209850063E-16,1.));
#614=DIRECTION('ref_axis',(-0.707106781186547,-0.707106781186548,-3.14018491736755E-16));
#615=DIRECTION('center_axis',(5.9211894646675E-16,-1.,1.66533453693773E-16));
#616=DIRECTION('ref_axis',(1.,5.9211894646675E-16,-9.86076131526265E-32));
#617=DIRECTION('',(0.,1.66533453693773E-16,1.));
#618=DIRECTION('',(0.,1.66533453693773E-16,1.));
#619=DIRECTION('center_axis',(0.,1.66533453693773E-16,1.));
#620=DIRECTION('ref_axis',(0.,-1.,1.66533453693773E-16));
#621=DIRECTION('',(0.,1.66533453693773E-16,1.));
#622=DIRECTION('center_axis',(-5.9211894646675E-16,1.,-1.66533453693773E-16));
#623=DIRECTION('ref_axis',(-1.,-5.9211894646675E-16,9.86076131526265E-32));
#624=DIRECTION('',(0.,1.66533453693773E-16,1.));
#625=DIRECTION('center_axis',(0.,1.66533453693773E-16,1.));
#626=DIRECTION('ref_axis',(0.,1.,-1.66533453693774E-16));
#627=DIRECTION('center_axis',(0.,-1.66533453693773E-16,-1.));
#628=DIRECTION('ref_axis',(-1.,0.,0.));
#629=DIRECTION('',(-0.707106781186547,2.04352540024832E-16,0.707106781186548));
#630=DIRECTION('center_axis',(0.,-1.66533453693773E-16,-1.));
#631=DIRECTION('ref_axis',(-1.,0.,0.));
#632=DIRECTION('center_axis',(0.,-1.66533453693773E-16,-1.));
#633=DIRECTION('ref_axis',(-1.,0.,0.));
#634=DIRECTION('',(0.,1.66533453693773E-16,1.));
#635=CARTESIAN_POINT('',(0.,0.,0.));
#636=CARTESIAN_POINT('Origin',(0.,9.75,4.75));
#637=CARTESIAN_POINT('',(15.,9.5,5.));
#638=CARTESIAN_POINT('',(15.,10.,4.5));
#639=CARTESIAN_POINT('',(15.,9.5,5.));
#640=CARTESIAN_POINT('',(-20.,10.,4.5));
#641=CARTESIAN_POINT('',(0.,10.,4.5));
#642=CARTESIAN_POINT('',(-20.,9.5,5.));
#643=CARTESIAN_POINT('',(-20.,10.,4.5));
#644=CARTESIAN_POINT('',(0.,9.5,5.));
#645=CARTESIAN_POINT('Origin',(15.,-2.1094237467878E-15,4.74999999999999));
#646=CARTESIAN_POINT('',(15.,-9.5,5.));
#647=CARTESIAN_POINT('',(15.,-10.,4.49999999999999));
#648=CARTESIAN_POINT('',(15.,-9.5,5.));
#649=CARTESIAN_POINT('Origin',(15.,-2.1094237467878E-15,4.49999999999999));
#650=CARTESIAN_POINT('Origin',(15.,-2.1094237467878E-15,5.));
#651=CARTESIAN_POINT('Origin',(0.,-9.75,4.75));
#652=CARTESIAN_POINT('',(-20.,-9.5,5.));
#653=CARTESIAN_POINT('',(0.,-9.5,5.));
#654=CARTESIAN_POINT('',(-20.,-10.,4.5));
#655=CARTESIAN_POINT('',(-20.,-9.5,5.));
#656=CARTESIAN_POINT('',(0.,-10.,4.5));
#657=CARTESIAN_POINT('Origin',(-20.,-5.,4.74999999999999));
#658=CARTESIAN_POINT('',(-24.5,-5.,5.));
#659=CARTESIAN_POINT('',(-25.,-5.,4.49999999999998));
#660=CARTESIAN_POINT('',(-24.5,-5.,5.));
#661=CARTESIAN_POINT('Origin',(-20.,-5.,4.49999999999998));
#662=CARTESIAN_POINT('Origin',(-20.,-5.,5.));
#663=CARTESIAN_POINT('Origin',(-24.75,5.,4.75));
#664=CARTESIAN_POINT('',(-24.5,5.,5.));
#665=CARTESIAN_POINT('',(-25.,5.,4.5));
#666=CARTESIAN_POINT('',(-24.5,5.,5.));
#667=CARTESIAN_POINT('',(-25.,5.,4.5));
#668=CARTESIAN_POINT('',(-24.5,5.,5.));
#669=CARTESIAN_POINT('Origin',(-20.,5.,4.75));
#670=CARTESIAN_POINT('Origin',(-20.,5.,4.5));
#671=CARTESIAN_POINT('Origin',(-20.,5.,5.));
#672=CARTESIAN_POINT('Origin',(-25.,-2.22044604925031E-15,-2.22044604925031E-15));
#673=CARTESIAN_POINT('',(-25.,5.,-4.5));
#674=CARTESIAN_POINT('',(-25.,5.,-2.5));
#675=CARTESIAN_POINT('',(-25.,-5.,-4.5));
#676=CARTESIAN_POINT('',(-25.,-5.,-4.5));
#677=CARTESIAN_POINT('',(-25.,-5.,2.5));
#678=CARTESIAN_POINT('Origin',(-20.,5.,-2.5));
#679=CARTESIAN_POINT('',(-20.,10.,-4.5));
#680=CARTESIAN_POINT('',(-20.,10.,-2.5));
#681=CARTESIAN_POINT('Origin',(-20.,5.,-4.49999999999999));
#682=CARTESIAN_POINT('Origin',(0.,10.,-5.));
#683=CARTESIAN_POINT('',(15.,10.,-4.5));
#684=CARTESIAN_POINT('',(15.,10.,-2.5));
#685=CARTESIAN_POINT('',(0.,10.,-4.5));
#686=CARTESIAN_POINT('Origin',(0.,10.,5.));
#687=CARTESIAN_POINT('',(-15.25,1.38978900712958E-15,5.));
#688=CARTESIAN_POINT('Origin',(-17.5,1.66533453693773E-15,5.));
#689=CARTESIAN_POINT('',(15.,-1.74999999999999,5.));
#690=CARTESIAN_POINT('',(0.,-1.75,5.));
#691=CARTESIAN_POINT('',(3.47869881049216E-15,-1.75,5.));
#692=CARTESIAN_POINT('',(0.,1.75,5.));
#693=CARTESIAN_POINT('Origin',(0.,5.55111512312578E-16,5.));
#694=CARTESIAN_POINT('',(15.,1.75000000000001,5.));
#695=CARTESIAN_POINT('',(7.5,1.75,5.));
#696=CARTESIAN_POINT('Origin',(15.,1.66533453693773E-15,5.));
#697=CARTESIAN_POINT('Origin',(0.,9.75,-4.75));
#698=CARTESIAN_POINT('',(15.,9.5,-5.));
#699=CARTESIAN_POINT('',(15.,10.,-4.5));
#700=CARTESIAN_POINT('',(-20.,9.5,-5.));
#701=CARTESIAN_POINT('',(0.,9.5,-5.));
#702=CARTESIAN_POINT('',(-20.,9.5,-5.));
#703=CARTESIAN_POINT('Origin',(15.,-1.52655665885963E-16,-4.75));
#704=CARTESIAN_POINT('',(15.,-10.,-4.49999999999999));
#705=CARTESIAN_POINT('Origin',(15.,-1.11022302462519E-16,-4.49999999999999));
#706=CARTESIAN_POINT('',(15.,-9.5,-5.));
#707=CARTESIAN_POINT('',(15.,-10.,-4.49999999999999));
#708=CARTESIAN_POINT('Origin',(15.,-1.94289029309407E-16,-5.));
#709=CARTESIAN_POINT('Origin',(0.,-9.75,-4.75));
#710=CARTESIAN_POINT('',(-20.,-10.,-4.5));
#711=CARTESIAN_POINT('',(-20.,-9.5,-5.));
#712=CARTESIAN_POINT('',(-20.,-10.,-4.5));
#713=CARTESIAN_POINT('',(0.,-9.5,-5.));
#714=CARTESIAN_POINT('',(0.,-10.,-4.5));
#715=CARTESIAN_POINT('Origin',(-20.,-5.,-4.75));
#716=CARTESIAN_POINT('Origin',(-20.,-5.,-4.5));
#717=CARTESIAN_POINT('',(-24.5,-5.,-5.));
#718=CARTESIAN_POINT('',(-25.,-5.,-4.5));
#719=CARTESIAN_POINT('Origin',(-20.,-5.,-5.));
#720=CARTESIAN_POINT('Origin',(-24.75,-5.,-4.75));
#721=CARTESIAN_POINT('',(-24.5,5.,-5.));
#722=CARTESIAN_POINT('',(-25.,5.,-4.5));
#723=CARTESIAN_POINT('',(-24.5,-5.,-5.));
#724=CARTESIAN_POINT('Origin',(-20.,5.,-4.75));
#725=CARTESIAN_POINT('Origin',(-20.,5.,-5.));
#726=CARTESIAN_POINT('Origin',(0.,-10.,5.));
#727=CARTESIAN_POINT('',(-20.,-10.,2.5));
#728=CARTESIAN_POINT('',(15.,-10.,2.5));
#729=CARTESIAN_POINT('Origin',(15.,-5.55111512312578E-16,-2.5));
#730=CARTESIAN_POINT('Origin',(0.,-10.,-5.));
#731=CARTESIAN_POINT('',(-12.75,-5.81707229594993E-16,-5.));
#732=CARTESIAN_POINT('Origin',(-17.5,-3.08148791101958E-32,-5.));
#733=CARTESIAN_POINT('',(0.,-1.75,-5.));
#734=CARTESIAN_POINT('',(15.,-1.74999999999999,-5.));
#735=CARTESIAN_POINT('',(-2.44249065417534E-15,-1.75,-5.));
#736=CARTESIAN_POINT('',(15.,1.75000000000001,-5.));
#737=CARTESIAN_POINT('Origin',(15.,-9.24446373305873E-32,-5.));
#738=CARTESIAN_POINT('',(0.,1.75,-5.));
#739=CARTESIAN_POINT('',(7.5,1.75,-5.));
#740=CARTESIAN_POINT('Origin',(0.,-1.11022302462516E-15,-5.));
#741=CARTESIAN_POINT('Origin',(-20.,-5.,2.5));
#742=CARTESIAN_POINT('Origin',(0.,-1.75,-5.));
#743=CARTESIAN_POINT('',(0.,-1.75,-5.));
#744=CARTESIAN_POINT('',(15.,-1.74999999999999,-5.));
#745=CARTESIAN_POINT('Origin',(0.,-1.11022302462516E-15,-5.));
#746=CARTESIAN_POINT('',(0.,1.75,-5.));
#747=CARTESIAN_POINT('Origin',(15.,1.75000000000001,-5.));
#748=CARTESIAN_POINT('',(15.,1.75000000000001,-5.));
#749=CARTESIAN_POINT('Origin',(15.,0.,-5.));
#750=CARTESIAN_POINT('Origin',(-17.5,2.08166817117217E-16,-3.75));
#751=CARTESIAN_POINT('',(-15.25,1.40788104426279E-16,-2.5));
#752=CARTESIAN_POINT('',(-14.,-2.20459562584357E-16,-3.75));
#753=CARTESIAN_POINT('Origin',(-17.5,4.16333634234434E-16,-2.5));
#754=CARTESIAN_POINT('Origin',(-17.5,8.86790640919344E-16,0.325000000000001));
#755=CARTESIAN_POINT('',(-15.25,6.11245111111189E-16,0.325000000000001));
#756=UNCERTAINTY_MEASURE_WITH_UNIT(LENGTH_MEASURE(0.01),#760,
'DISTANCE_ACCURACY_VALUE',
'Maximum model space distance between geometric entities at asserted c
onnectivities');
#757=UNCERTAINTY_MEASURE_WITH_UNIT(LENGTH_MEASURE(0.01),#760,
'DISTANCE_ACCURACY_VALUE',
'Maximum model space distance between geometric entities at asserted c
onnectivities');
#758=(
GEOMETRIC_REPRESENTATION_CONTEXT(3)
GLOBAL_UNCERTAINTY_ASSIGNED_CONTEXT((#756))
GLOBAL_UNIT_ASSIGNED_CONTEXT((#760,#762,#763))
REPRESENTATION_CONTEXT('','3D')
);
#759=(
GEOMETRIC_REPRESENTATION_CONTEXT(3)
GLOBAL_UNCERTAINTY_ASSIGNED_CONTEXT((#757))
GLOBAL_UNIT_ASSIGNED_CONTEXT((#760,#762,#763))
REPRESENTATION_CONTEXT('','3D')
);
#760=(
LENGTH_UNIT()
NAMED_UNIT(*)
SI_UNIT(.MILLI.,.METRE.)
);
#761=(
LENGTH_UNIT()
NAMED_UNIT(*)
SI_UNIT(.CENTI.,.METRE.)
);
#762=(
NAMED_UNIT(*)
PLANE_ANGLE_UNIT()
SI_UNIT($,.RADIAN.)
);
#763=(
NAMED_UNIT(*)
SI_UNIT($,.STERADIAN.)
SOLID_ANGLE_UNIT()
);
#764=SHAPE_DEFINITION_REPRESENTATION(#765,#766);
#765=PRODUCT_DEFINITION_SHAPE('',$,#768);
#766=SHAPE_REPRESENTATION('',(#457),#758);
#767=PRODUCT_DEFINITION_CONTEXT('part definition',#772,'design');
#768=PRODUCT_DEFINITION('Bell Support Beam','Bell Support Beam',#769,#767);
#769=PRODUCT_DEFINITION_FORMATION('',$,#774);
#770=PRODUCT_RELATED_PRODUCT_CATEGORY('Bell Support Beam',
'Bell Support Beam',(#774));
#771=APPLICATION_PROTOCOL_DEFINITION('international standard',
'automotive_design',2009,#772);
#772=APPLICATION_CONTEXT(
'Core Data for Automotive Mechanical Design Process');
#773=PRODUCT_CONTEXT('part definition',#772,'mechanical');
#774=PRODUCT('Bell Support Beam','Bell Support Beam',$,(#773));
#775=PRESENTATION_STYLE_ASSIGNMENT((#776));
#776=SURFACE_STYLE_USAGE(.BOTH.,#779);
#777=SURFACE_STYLE_RENDERING_WITH_PROPERTIES($,#783,(#778));
#778=SURFACE_STYLE_TRANSPARENT(0.);
#779=SURFACE_SIDE_STYLE('',(#780,#777));
#780=SURFACE_STYLE_FILL_AREA(#781);
#781=FILL_AREA_STYLE('',(#782));
#782=FILL_AREA_STYLE_COLOUR('',#783);
#783=COLOUR_RGB('',0.796078431372549,0.603921568627451,0.231372549019608);
ENDSEC;
END-ISO-10303-21;
