ISO-10303-21;
HEADER;
/* Generated by software containing ST-Developer
 * from STEP Tools, Inc. (www.steptools.com) 
 */

FILE_DESCRIPTION(
/* description */ (''),
/* implementation_level */ '2;1');

FILE_NAME(
/* name */ 
'S:\\Future Scope 1\\WIP\\Client Category\\Tom\\02 Progressive Work\\B
rass Plate.stp',
/* time_stamp */ '2025-11-05T12:14:34+06:00',
/* author */ ('SD'),
/* organization */ (''),
/* preprocessor_version */ 'ST-DEVELOPER v18.1',
/* originating_system */ 'Autodesk Inventor 2021',
/* authorisation */ '');

FILE_SCHEMA (('AUTOMOTIVE_DESIGN { 1 0 10303 214 3 1 1 }'));
ENDSEC;

DATA;
#10=MECHANICAL_DESIGN_GEOMETRIC_PRESENTATION_REPRESENTATION('',(#13),#634);
#11=SHAPE_REPRESENTATION_RELATIONSHIP('SRR','None',#641,#12);
#12=ADVANCED_BREP_SHAPE_REPRESENTATION('',(#14),#633);
#13=STYLED_ITEM('',(#650),#14);
#14=MANIFOLD_SOLID_BREP('Solid1',#362);
#15=FACE_BOUND('',#86,.T.);
#16=FACE_BOUND('',#87,.T.);
#17=FACE_BOUND('',#88,.T.);
#18=FACE_BOUND('',#89,.T.);
#19=FACE_BOUND('',#90,.T.);
#20=FACE_BOUND('',#97,.T.);
#21=FACE_BOUND('',#98,.T.);
#22=FACE_BOUND('',#99,.T.);
#23=FACE_BOUND('',#100,.T.);
#24=FACE_BOUND('',#101,.T.);
#25=CYLINDRICAL_SURFACE('',#390,12.5);
#26=CYLINDRICAL_SURFACE('',#406,12.5);
#27=CYLINDRICAL_SURFACE('',#413,1.0605569);
#28=CYLINDRICAL_SURFACE('',#414,1.0605569);
#29=CYLINDRICAL_SURFACE('',#417,3.25);
#30=CYLINDRICAL_SURFACE('',#420,3.25);
#31=CYLINDRICAL_SURFACE('',#421,3.5);
#32=CIRCLE('',#384,12.5);
#33=CIRCLE('',#385,12.);
#34=CIRCLE('',#388,12.5);
#35=CIRCLE('',#389,12.);
#36=CIRCLE('',#391,12.5);
#37=CIRCLE('',#394,1.0605569);
#38=CIRCLE('',#395,1.0605569);
#39=CIRCLE('',#396,3.25);
#40=CIRCLE('',#397,3.25);
#41=CIRCLE('',#398,3.5);
#42=CIRCLE('',#401,12.5);
#43=CIRCLE('',#402,12.);
#44=CIRCLE('',#405,12.);
#45=CIRCLE('',#408,1.0605569);
#46=CIRCLE('',#409,1.0605569);
#47=CIRCLE('',#410,6.3);
#48=CIRCLE('',#411,6.3);
#49=CIRCLE('',#412,3.5);
#50=CIRCLE('',#416,3.25);
#51=CIRCLE('',#419,3.25);
#52=CONICAL_SURFACE('',#383,12.25,0.785398163397455);
#53=CONICAL_SURFACE('',#387,12.25,0.785398163397455);
#54=CONICAL_SURFACE('',#400,12.25,0.785398163397455);
#55=CONICAL_SURFACE('',#404,12.25,0.785398163397455);
#56=CONICAL_SURFACE('',#415,4.775,0.785398163397448);
#57=CONICAL_SURFACE('',#418,4.775,0.785398163397448);
#58=FACE_OUTER_BOUND('',#79,.T.);
#59=FACE_OUTER_BOUND('',#80,.T.);
#60=FACE_OUTER_BOUND('',#81,.T.);
#61=FACE_OUTER_BOUND('',#82,.T.);
#62=FACE_OUTER_BOUND('',#83,.T.);
#63=FACE_OUTER_BOUND('',#84,.T.);
#64=FACE_OUTER_BOUND('',#85,.T.);
#65=FACE_OUTER_BOUND('',#91,.T.);
#66=FACE_OUTER_BOUND('',#92,.T.);
#67=FACE_OUTER_BOUND('',#93,.T.);
#68=FACE_OUTER_BOUND('',#94,.T.);
#69=FACE_OUTER_BOUND('',#95,.T.);
#70=FACE_OUTER_BOUND('',#96,.T.);
#71=FACE_OUTER_BOUND('',#102,.T.);
#72=FACE_OUTER_BOUND('',#103,.T.);
#73=FACE_OUTER_BOUND('',#104,.T.);
#74=FACE_OUTER_BOUND('',#105,.T.);
#75=FACE_OUTER_BOUND('',#106,.T.);
#76=FACE_OUTER_BOUND('',#107,.T.);
#77=FACE_OUTER_BOUND('',#108,.T.);
#78=FACE_OUTER_BOUND('',#109,.T.);
#79=EDGE_LOOP('',(#239,#240,#241,#242));
#80=EDGE_LOOP('',(#243,#244,#245,#246));
#81=EDGE_LOOP('',(#247,#248,#249,#250));
#82=EDGE_LOOP('',(#251,#252,#253,#254));
#83=EDGE_LOOP('',(#255,#256,#257,#258));
#84=EDGE_LOOP('',(#259,#260,#261,#262));
#85=EDGE_LOOP('',(#263,#264,#265,#266));
#86=EDGE_LOOP('',(#267));
#87=EDGE_LOOP('',(#268));
#88=EDGE_LOOP('',(#269));
#89=EDGE_LOOP('',(#270));
#90=EDGE_LOOP('',(#271));
#91=EDGE_LOOP('',(#272,#273,#274,#275));
#92=EDGE_LOOP('',(#276,#277,#278,#279));
#93=EDGE_LOOP('',(#280,#281,#282,#283));
#94=EDGE_LOOP('',(#284,#285,#286,#287));
#95=EDGE_LOOP('',(#288,#289,#290,#291));
#96=EDGE_LOOP('',(#292,#293,#294,#295));
#97=EDGE_LOOP('',(#296));
#98=EDGE_LOOP('',(#297));
#99=EDGE_LOOP('',(#298));
#100=EDGE_LOOP('',(#299));
#101=EDGE_LOOP('',(#300));
#102=EDGE_LOOP('',(#301,#302,#303,#304));
#103=EDGE_LOOP('',(#305,#306,#307,#308));
#104=EDGE_LOOP('',(#309,#310,#311,#312));
#105=EDGE_LOOP('',(#313,#314,#315,#316));
#106=EDGE_LOOP('',(#317,#318,#319,#320));
#107=EDGE_LOOP('',(#321,#322,#323,#324));
#108=EDGE_LOOP('',(#325,#326,#327,#328));
#109=EDGE_LOOP('',(#329,#330,#331,#332));
#110=LINE('',#538,#137);
#111=LINE('',#540,#138);
#112=LINE('',#542,#139);
#113=LINE('',#543,#140);
#114=LINE('',#548,#141);
#115=LINE('',#553,#142);
#116=LINE('',#554,#143);
#117=LINE('',#555,#144);
#118=LINE('',#561,#145);
#119=LINE('',#564,#146);
#120=LINE('',#567,#147);
#121=LINE('',#568,#148);
#122=LINE('',#582,#149);
#123=LINE('',#584,#150);
#124=LINE('',#585,#151);
#125=LINE('',#590,#152);
#126=LINE('',#594,#153);
#127=LINE('',#595,#154);
#128=LINE('',#596,#155);
#129=LINE('',#600,#156);
#130=LINE('',#613,#157);
#131=LINE('',#615,#158);
#132=LINE('',#618,#159);
#133=LINE('',#621,#160);
#134=LINE('',#624,#161);
#135=LINE('',#627,#162);
#136=LINE('',#629,#163);
#137=VECTOR('',#427,10.);
#138=VECTOR('',#428,10.);
#139=VECTOR('',#429,10.);
#140=VECTOR('',#430,10.);
#141=VECTOR('',#435,10.);
#142=VECTOR('',#440,10.);
#143=VECTOR('',#441,10.);
#144=VECTOR('',#442,10.);
#145=VECTOR('',#451,10.);
#146=VECTOR('',#454,10.);
#147=VECTOR('',#457,10.);
#148=VECTOR('',#458,10.);
#149=VECTOR('',#473,10.);
#150=VECTOR('',#474,10.);
#151=VECTOR('',#475,10.);
#152=VECTOR('',#480,10.);
#153=VECTOR('',#485,10.);
#154=VECTOR('',#486,10.);
#155=VECTOR('',#487,10.);
#156=VECTOR('',#494,10.);
#157=VECTOR('',#509,1.0605569);
#158=VECTOR('',#512,1.0605569);
#159=VECTOR('',#515,4.775);
#160=VECTOR('',#520,3.25);
#161=VECTOR('',#523,4.775);
#162=VECTOR('',#528,3.25);
#163=VECTOR('',#531,3.5);
#164=VERTEX_POINT('',#536);
#165=VERTEX_POINT('',#537);
#166=VERTEX_POINT('',#539);
#167=VERTEX_POINT('',#541);
#168=VERTEX_POINT('',#545);
#169=VERTEX_POINT('',#547);
#170=VERTEX_POINT('',#551);
#171=VERTEX_POINT('',#552);
#172=VERTEX_POINT('',#560);
#173=VERTEX_POINT('',#562);
#174=VERTEX_POINT('',#566);
#175=VERTEX_POINT('',#570);
#176=VERTEX_POINT('',#572);
#177=VERTEX_POINT('',#574);
#178=VERTEX_POINT('',#576);
#179=VERTEX_POINT('',#578);
#180=VERTEX_POINT('',#581);
#181=VERTEX_POINT('',#583);
#182=VERTEX_POINT('',#587);
#183=VERTEX_POINT('',#589);
#184=VERTEX_POINT('',#593);
#185=VERTEX_POINT('',#602);
#186=VERTEX_POINT('',#604);
#187=VERTEX_POINT('',#606);
#188=VERTEX_POINT('',#608);
#189=VERTEX_POINT('',#610);
#190=VERTEX_POINT('',#617);
#191=VERTEX_POINT('',#623);
#192=EDGE_CURVE('',#164,#165,#110,.T.);
#193=EDGE_CURVE('',#165,#166,#111,.T.);
#194=EDGE_CURVE('',#166,#167,#112,.T.);
#195=EDGE_CURVE('',#167,#164,#113,.T.);
#196=EDGE_CURVE('',#164,#168,#32,.T.);
#197=EDGE_CURVE('',#168,#169,#114,.T.);
#198=EDGE_CURVE('',#169,#165,#33,.T.);
#199=EDGE_CURVE('',#170,#171,#115,.T.);
#200=EDGE_CURVE('',#171,#169,#116,.T.);
#201=EDGE_CURVE('',#168,#170,#117,.T.);
#202=EDGE_CURVE('',#170,#167,#34,.T.);
#203=EDGE_CURVE('',#166,#171,#35,.T.);
#204=EDGE_CURVE('',#164,#172,#118,.T.);
#205=EDGE_CURVE('',#173,#172,#36,.T.);
#206=EDGE_CURVE('',#173,#168,#119,.T.);
#207=EDGE_CURVE('',#174,#167,#120,.T.);
#208=EDGE_CURVE('',#172,#174,#121,.T.);
#209=EDGE_CURVE('',#175,#175,#37,.T.);
#210=EDGE_CURVE('',#176,#176,#38,.T.);
#211=EDGE_CURVE('',#177,#177,#39,.T.);
#212=EDGE_CURVE('',#178,#178,#40,.T.);
#213=EDGE_CURVE('',#179,#179,#41,.T.);
#214=EDGE_CURVE('',#174,#180,#122,.T.);
#215=EDGE_CURVE('',#180,#181,#123,.T.);
#216=EDGE_CURVE('',#181,#172,#124,.T.);
#217=EDGE_CURVE('',#174,#182,#42,.T.);
#218=EDGE_CURVE('',#182,#183,#125,.T.);
#219=EDGE_CURVE('',#183,#180,#43,.T.);
#220=EDGE_CURVE('',#173,#184,#126,.T.);
#221=EDGE_CURVE('',#184,#183,#127,.T.);
#222=EDGE_CURVE('',#182,#173,#128,.T.);
#223=EDGE_CURVE('',#181,#184,#44,.T.);
#224=EDGE_CURVE('',#170,#182,#129,.T.);
#225=EDGE_CURVE('',#185,#185,#45,.T.);
#226=EDGE_CURVE('',#186,#186,#46,.T.);
#227=EDGE_CURVE('',#187,#187,#47,.T.);
#228=EDGE_CURVE('',#188,#188,#48,.T.);
#229=EDGE_CURVE('',#189,#189,#49,.T.);
#230=EDGE_CURVE('',#185,#175,#130,.T.);
#231=EDGE_CURVE('',#186,#176,#131,.T.);
#232=EDGE_CURVE('',#187,#190,#132,.T.);
#233=EDGE_CURVE('',#190,#190,#50,.T.);
#234=EDGE_CURVE('',#190,#177,#133,.T.);
#235=EDGE_CURVE('',#188,#191,#134,.T.);
#236=EDGE_CURVE('',#191,#191,#51,.T.);
#237=EDGE_CURVE('',#191,#178,#135,.T.);
#238=EDGE_CURVE('',#189,#179,#136,.T.);
#239=ORIENTED_EDGE('',*,*,#192,.T.);
#240=ORIENTED_EDGE('',*,*,#193,.T.);
#241=ORIENTED_EDGE('',*,*,#194,.T.);
#242=ORIENTED_EDGE('',*,*,#195,.T.);
#243=ORIENTED_EDGE('',*,*,#192,.F.);
#244=ORIENTED_EDGE('',*,*,#196,.T.);
#245=ORIENTED_EDGE('',*,*,#197,.T.);
#246=ORIENTED_EDGE('',*,*,#198,.T.);
#247=ORIENTED_EDGE('',*,*,#199,.T.);
#248=ORIENTED_EDGE('',*,*,#200,.T.);
#249=ORIENTED_EDGE('',*,*,#197,.F.);
#250=ORIENTED_EDGE('',*,*,#201,.T.);
#251=ORIENTED_EDGE('',*,*,#199,.F.);
#252=ORIENTED_EDGE('',*,*,#202,.T.);
#253=ORIENTED_EDGE('',*,*,#194,.F.);
#254=ORIENTED_EDGE('',*,*,#203,.T.);
#255=ORIENTED_EDGE('',*,*,#196,.F.);
#256=ORIENTED_EDGE('',*,*,#204,.T.);
#257=ORIENTED_EDGE('',*,*,#205,.F.);
#258=ORIENTED_EDGE('',*,*,#206,.T.);
#259=ORIENTED_EDGE('',*,*,#195,.F.);
#260=ORIENTED_EDGE('',*,*,#207,.F.);
#261=ORIENTED_EDGE('',*,*,#208,.F.);
#262=ORIENTED_EDGE('',*,*,#204,.F.);
#263=ORIENTED_EDGE('',*,*,#193,.F.);
#264=ORIENTED_EDGE('',*,*,#198,.F.);
#265=ORIENTED_EDGE('',*,*,#200,.F.);
#266=ORIENTED_EDGE('',*,*,#203,.F.);
#267=ORIENTED_EDGE('',*,*,#209,.T.);
#268=ORIENTED_EDGE('',*,*,#210,.T.);
#269=ORIENTED_EDGE('',*,*,#211,.T.);
#270=ORIENTED_EDGE('',*,*,#212,.T.);
#271=ORIENTED_EDGE('',*,*,#213,.T.);
#272=ORIENTED_EDGE('',*,*,#214,.T.);
#273=ORIENTED_EDGE('',*,*,#215,.T.);
#274=ORIENTED_EDGE('',*,*,#216,.T.);
#275=ORIENTED_EDGE('',*,*,#208,.T.);
#276=ORIENTED_EDGE('',*,*,#214,.F.);
#277=ORIENTED_EDGE('',*,*,#217,.T.);
#278=ORIENTED_EDGE('',*,*,#218,.T.);
#279=ORIENTED_EDGE('',*,*,#219,.T.);
#280=ORIENTED_EDGE('',*,*,#220,.T.);
#281=ORIENTED_EDGE('',*,*,#221,.T.);
#282=ORIENTED_EDGE('',*,*,#218,.F.);
#283=ORIENTED_EDGE('',*,*,#222,.T.);
#284=ORIENTED_EDGE('',*,*,#220,.F.);
#285=ORIENTED_EDGE('',*,*,#205,.T.);
#286=ORIENTED_EDGE('',*,*,#216,.F.);
#287=ORIENTED_EDGE('',*,*,#223,.T.);
#288=ORIENTED_EDGE('',*,*,#202,.F.);
#289=ORIENTED_EDGE('',*,*,#224,.T.);
#290=ORIENTED_EDGE('',*,*,#217,.F.);
#291=ORIENTED_EDGE('',*,*,#207,.T.);
#292=ORIENTED_EDGE('',*,*,#215,.F.);
#293=ORIENTED_EDGE('',*,*,#219,.F.);
#294=ORIENTED_EDGE('',*,*,#221,.F.);
#295=ORIENTED_EDGE('',*,*,#223,.F.);
#296=ORIENTED_EDGE('',*,*,#225,.T.);
#297=ORIENTED_EDGE('',*,*,#226,.T.);
#298=ORIENTED_EDGE('',*,*,#227,.T.);
#299=ORIENTED_EDGE('',*,*,#228,.T.);
#300=ORIENTED_EDGE('',*,*,#229,.T.);
#301=ORIENTED_EDGE('',*,*,#225,.F.);
#302=ORIENTED_EDGE('',*,*,#230,.T.);
#303=ORIENTED_EDGE('',*,*,#209,.F.);
#304=ORIENTED_EDGE('',*,*,#230,.F.);
#305=ORIENTED_EDGE('',*,*,#226,.F.);
#306=ORIENTED_EDGE('',*,*,#231,.T.);
#307=ORIENTED_EDGE('',*,*,#210,.F.);
#308=ORIENTED_EDGE('',*,*,#231,.F.);
#309=ORIENTED_EDGE('',*,*,#227,.F.);
#310=ORIENTED_EDGE('',*,*,#232,.T.);
#311=ORIENTED_EDGE('',*,*,#233,.F.);
#312=ORIENTED_EDGE('',*,*,#232,.F.);
#313=ORIENTED_EDGE('',*,*,#233,.T.);
#314=ORIENTED_EDGE('',*,*,#234,.T.);
#315=ORIENTED_EDGE('',*,*,#211,.F.);
#316=ORIENTED_EDGE('',*,*,#234,.F.);
#317=ORIENTED_EDGE('',*,*,#228,.F.);
#318=ORIENTED_EDGE('',*,*,#235,.T.);
#319=ORIENTED_EDGE('',*,*,#236,.F.);
#320=ORIENTED_EDGE('',*,*,#235,.F.);
#321=ORIENTED_EDGE('',*,*,#236,.T.);
#322=ORIENTED_EDGE('',*,*,#237,.T.);
#323=ORIENTED_EDGE('',*,*,#212,.F.);
#324=ORIENTED_EDGE('',*,*,#237,.F.);
#325=ORIENTED_EDGE('',*,*,#229,.F.);
#326=ORIENTED_EDGE('',*,*,#238,.T.);
#327=ORIENTED_EDGE('',*,*,#213,.F.);
#328=ORIENTED_EDGE('',*,*,#238,.F.);
#329=ORIENTED_EDGE('',*,*,#201,.F.);
#330=ORIENTED_EDGE('',*,*,#206,.F.);
#331=ORIENTED_EDGE('',*,*,#222,.F.);
#332=ORIENTED_EDGE('',*,*,#224,.F.);
#333=PLANE('',#382);
#334=PLANE('',#386);
#335=PLANE('',#392);
#336=PLANE('',#393);
#337=PLANE('',#399);
#338=PLANE('',#403);
#339=PLANE('',#407);
#340=PLANE('',#422);
#341=ADVANCED_FACE('',(#58),#333,.T.);
#342=ADVANCED_FACE('',(#59),#52,.T.);
#343=ADVANCED_FACE('',(#60),#334,.T.);
#344=ADVANCED_FACE('',(#61),#53,.T.);
#345=ADVANCED_FACE('',(#62),#25,.T.);
#346=ADVANCED_FACE('',(#63),#335,.T.);
#347=ADVANCED_FACE('',(#64,#15,#16,#17,#18,#19),#336,.T.);
#348=ADVANCED_FACE('',(#65),#337,.T.);
#349=ADVANCED_FACE('',(#66),#54,.T.);
#350=ADVANCED_FACE('',(#67),#338,.T.);
#351=ADVANCED_FACE('',(#68),#55,.T.);
#352=ADVANCED_FACE('',(#69),#26,.T.);
#353=ADVANCED_FACE('',(#70,#20,#21,#22,#23,#24),#339,.T.);
#354=ADVANCED_FACE('',(#71),#27,.F.);
#355=ADVANCED_FACE('',(#72),#28,.F.);
#356=ADVANCED_FACE('',(#73),#56,.F.);
#357=ADVANCED_FACE('',(#74),#29,.F.);
#358=ADVANCED_FACE('',(#75),#57,.F.);
#359=ADVANCED_FACE('',(#76),#30,.F.);
#360=ADVANCED_FACE('',(#77),#31,.F.);
#361=ADVANCED_FACE('',(#78),#340,.T.);
#362=CLOSED_SHELL('',(#341,#342,#343,#344,#345,#346,#347,#348,#349,#350,
#351,#352,#353,#354,#355,#356,#357,#358,#359,#360,#361));
#363=DERIVED_UNIT_ELEMENT(#365,1.);
#364=DERIVED_UNIT_ELEMENT(#636,3.);
#365=(
MASS_UNIT()
NAMED_UNIT(*)
SI_UNIT($,.GRAM.)
);
#366=DERIVED_UNIT((#363,#364));
#367=MEASURE_REPRESENTATION_ITEM('density measure',
POSITIVE_RATIO_MEASURE(8.47),#366);
#368=PROPERTY_DEFINITION_REPRESENTATION(#373,#370);
#369=PROPERTY_DEFINITION_REPRESENTATION(#374,#371);
#370=REPRESENTATION('material name',(#372),#633);
#371=REPRESENTATION('density',(#367),#633);
#372=DESCRIPTIVE_REPRESENTATION_ITEM('Brass, Soft Yellow',
'Brass, Soft Yellow');
#373=PROPERTY_DEFINITION('material property','material name',#643);
#374=PROPERTY_DEFINITION('material property','density of part',#643);
#375=DATE_TIME_ROLE('creation_date');
#376=APPLIED_DATE_AND_TIME_ASSIGNMENT(#377,#375,(#643));
#377=DATE_AND_TIME(#378,#379);
#378=CALENDAR_DATE(2025,16,9);
#379=LOCAL_TIME(0,0,0.,#380);
#380=COORDINATED_UNIVERSAL_TIME_OFFSET(0,0,.BEHIND.);
#381=AXIS2_PLACEMENT_3D('placement',#534,#423,#424);
#382=AXIS2_PLACEMENT_3D('',#535,#425,#426);
#383=AXIS2_PLACEMENT_3D('',#544,#431,#432);
#384=AXIS2_PLACEMENT_3D('',#546,#433,#434);
#385=AXIS2_PLACEMENT_3D('',#549,#436,#437);
#386=AXIS2_PLACEMENT_3D('',#550,#438,#439);
#387=AXIS2_PLACEMENT_3D('',#556,#443,#444);
#388=AXIS2_PLACEMENT_3D('',#557,#445,#446);
#389=AXIS2_PLACEMENT_3D('',#558,#447,#448);
#390=AXIS2_PLACEMENT_3D('',#559,#449,#450);
#391=AXIS2_PLACEMENT_3D('',#563,#452,#453);
#392=AXIS2_PLACEMENT_3D('',#565,#455,#456);
#393=AXIS2_PLACEMENT_3D('',#569,#459,#460);
#394=AXIS2_PLACEMENT_3D('',#571,#461,#462);
#395=AXIS2_PLACEMENT_3D('',#573,#463,#464);
#396=AXIS2_PLACEMENT_3D('',#575,#465,#466);
#397=AXIS2_PLACEMENT_3D('',#577,#467,#468);
#398=AXIS2_PLACEMENT_3D('',#579,#469,#470);
#399=AXIS2_PLACEMENT_3D('',#580,#471,#472);
#400=AXIS2_PLACEMENT_3D('',#586,#476,#477);
#401=AXIS2_PLACEMENT_3D('',#588,#478,#479);
#402=AXIS2_PLACEMENT_3D('',#591,#481,#482);
#403=AXIS2_PLACEMENT_3D('',#592,#483,#484);
#404=AXIS2_PLACEMENT_3D('',#597,#488,#489);
#405=AXIS2_PLACEMENT_3D('',#598,#490,#491);
#406=AXIS2_PLACEMENT_3D('',#599,#492,#493);
#407=AXIS2_PLACEMENT_3D('',#601,#495,#496);
#408=AXIS2_PLACEMENT_3D('',#603,#497,#498);
#409=AXIS2_PLACEMENT_3D('',#605,#499,#500);
#410=AXIS2_PLACEMENT_3D('',#607,#501,#502);
#411=AXIS2_PLACEMENT_3D('',#609,#503,#504);
#412=AXIS2_PLACEMENT_3D('',#611,#505,#506);
#413=AXIS2_PLACEMENT_3D('',#612,#507,#508);
#414=AXIS2_PLACEMENT_3D('',#614,#510,#511);
#415=AXIS2_PLACEMENT_3D('',#616,#513,#514);
#416=AXIS2_PLACEMENT_3D('',#619,#516,#517);
#417=AXIS2_PLACEMENT_3D('',#620,#518,#519);
#418=AXIS2_PLACEMENT_3D('',#622,#521,#522);
#419=AXIS2_PLACEMENT_3D('',#625,#524,#525);
#420=AXIS2_PLACEMENT_3D('',#626,#526,#527);
#421=AXIS2_PLACEMENT_3D('',#628,#529,#530);
#422=AXIS2_PLACEMENT_3D('',#630,#532,#533);
#423=DIRECTION('axis',(0.,0.,1.));
#424=DIRECTION('refdir',(1.,0.,0.));
#425=DIRECTION('center_axis',(0.,-0.707106781186548,0.707106781186547));
#426=DIRECTION('ref_axis',(1.,0.,0.));
#427=DIRECTION('',(0.,-0.707106781186547,-0.707106781186548));
#428=DIRECTION('',(1.,0.,0.));
#429=DIRECTION('',(0.,0.707106781186547,0.707106781186548));
#430=DIRECTION('',(-1.,0.,0.));
#431=DIRECTION('center_axis',(0.,1.,0.));
#432=DIRECTION('ref_axis',(-0.707106781186548,0.,0.707106781186548));
#433=DIRECTION('center_axis',(0.,-1.,0.));
#434=DIRECTION('ref_axis',(-0.707106781186547,0.,0.707106781186547));
#435=DIRECTION('',(0.,-0.707106781186544,0.707106781186551));
#436=DIRECTION('center_axis',(0.,1.,0.));
#437=DIRECTION('ref_axis',(-0.707106781186548,0.,0.707106781186548));
#438=DIRECTION('center_axis',(8.37382644631346E-17,-0.707106781186548,-0.707106781186547));
#439=DIRECTION('ref_axis',(-1.,0.,-1.1842378929335E-16));
#440=DIRECTION('',(0.,-0.707106781186547,0.707106781186548));
#441=DIRECTION('',(-1.,0.,-1.1842378929335E-16));
#442=DIRECTION('',(1.,0.,1.1842378929335E-16));
#443=DIRECTION('center_axis',(0.,1.,0.));
#444=DIRECTION('ref_axis',(0.707106781186548,0.,0.707106781186548));
#445=DIRECTION('center_axis',(0.,-1.,0.));
#446=DIRECTION('ref_axis',(0.707106781186547,0.,0.707106781186547));
#447=DIRECTION('center_axis',(0.,1.,0.));
#448=DIRECTION('ref_axis',(0.707106781186548,0.,0.707106781186548));
#449=DIRECTION('center_axis',(0.,1.,0.));
#450=DIRECTION('ref_axis',(-0.707106781186547,0.,0.707106781186547));
#451=DIRECTION('',(0.,1.,0.));
#452=DIRECTION('center_axis',(0.,1.,0.));
#453=DIRECTION('ref_axis',(-0.707106781186547,0.,0.707106781186547));
#454=DIRECTION('',(0.,-1.,0.));
#455=DIRECTION('center_axis',(0.,0.,1.));
#456=DIRECTION('ref_axis',(1.,0.,0.));
#457=DIRECTION('',(0.,-1.,0.));
#458=DIRECTION('',(1.,0.,0.));
#459=DIRECTION('center_axis',(0.,-1.,0.));
#460=DIRECTION('ref_axis',(0.,0.,-1.));
#461=DIRECTION('center_axis',(0.,1.,0.));
#462=DIRECTION('ref_axis',(1.,0.,0.));
#463=DIRECTION('center_axis',(0.,1.,0.));
#464=DIRECTION('ref_axis',(1.,0.,0.));
#465=DIRECTION('center_axis',(0.,1.,0.));
#466=DIRECTION('ref_axis',(1.,0.,0.));
#467=DIRECTION('center_axis',(0.,1.,0.));
#468=DIRECTION('ref_axis',(1.,0.,0.));
#469=DIRECTION('center_axis',(0.,1.,0.));
#470=DIRECTION('ref_axis',(1.,0.,0.));
#471=DIRECTION('center_axis',(0.,0.707106781186548,0.707106781186547));
#472=DIRECTION('ref_axis',(1.,0.,0.));
#473=DIRECTION('',(0.,0.707106781186547,-0.707106781186548));
#474=DIRECTION('',(-1.,0.,0.));
#475=DIRECTION('',(0.,-0.707106781186547,0.707106781186548));
#476=DIRECTION('center_axis',(0.,-1.,0.));
#477=DIRECTION('ref_axis',(0.707106781186548,0.,0.707106781186548));
#478=DIRECTION('center_axis',(0.,1.,0.));
#479=DIRECTION('ref_axis',(0.707106781186547,0.,0.707106781186547));
#480=DIRECTION('',(0.,0.70710678118656,0.707106781186535));
#481=DIRECTION('center_axis',(0.,-1.,0.));
#482=DIRECTION('ref_axis',(0.707106781186548,0.,0.707106781186548));
#483=DIRECTION('center_axis',(8.37382644631346E-17,0.707106781186548,-0.707106781186547));
#484=DIRECTION('ref_axis',(-1.,0.,-1.1842378929335E-16));
#485=DIRECTION('',(0.,0.707106781186547,0.707106781186548));
#486=DIRECTION('',(1.,0.,1.1842378929335E-16));
#487=DIRECTION('',(-1.,0.,-1.1842378929335E-16));
#488=DIRECTION('center_axis',(0.,-1.,0.));
#489=DIRECTION('ref_axis',(-0.707106781186548,0.,0.707106781186548));
#490=DIRECTION('center_axis',(0.,-1.,0.));
#491=DIRECTION('ref_axis',(-0.707106781186548,0.,0.707106781186548));
#492=DIRECTION('center_axis',(0.,1.,0.));
#493=DIRECTION('ref_axis',(0.707106781186547,0.,0.707106781186547));
#494=DIRECTION('',(0.,1.,0.));
#495=DIRECTION('center_axis',(0.,1.,0.));
#496=DIRECTION('ref_axis',(0.,0.,1.));
#497=DIRECTION('center_axis',(0.,-1.,0.));
#498=DIRECTION('ref_axis',(1.,0.,0.));
#499=DIRECTION('center_axis',(0.,-1.,0.));
#500=DIRECTION('ref_axis',(1.,0.,0.));
#501=DIRECTION('center_axis',(0.,-1.,0.));
#502=DIRECTION('ref_axis',(1.,0.,0.));
#503=DIRECTION('center_axis',(0.,-1.,0.));
#504=DIRECTION('ref_axis',(1.,0.,0.));
#505=DIRECTION('center_axis',(0.,-1.,0.));
#506=DIRECTION('ref_axis',(1.,0.,0.));
#507=DIRECTION('center_axis',(0.,1.,0.));
#508=DIRECTION('ref_axis',(1.,0.,0.));
#509=DIRECTION('',(0.,-1.,0.));
#510=DIRECTION('center_axis',(0.,1.,0.));
#511=DIRECTION('ref_axis',(1.,0.,0.));
#512=DIRECTION('',(0.,-1.,0.));
#513=DIRECTION('center_axis',(0.,1.,0.));
#514=DIRECTION('ref_axis',(1.,0.,0.));
#515=DIRECTION('',(0.707106781186547,-0.707106781186548,-8.65956056235493E-17));
#516=DIRECTION('center_axis',(0.,1.,0.));
#517=DIRECTION('ref_axis',(1.,0.,0.));
#518=DIRECTION('center_axis',(0.,1.,0.));
#519=DIRECTION('ref_axis',(1.,0.,0.));
#520=DIRECTION('',(0.,-1.,0.));
#521=DIRECTION('center_axis',(0.,1.,0.));
#522=DIRECTION('ref_axis',(1.,0.,0.));
#523=DIRECTION('',(0.707106781186547,-0.707106781186548,-8.65956056235493E-17));
#524=DIRECTION('center_axis',(0.,1.,0.));
#525=DIRECTION('ref_axis',(1.,0.,0.));
#526=DIRECTION('center_axis',(0.,1.,0.));
#527=DIRECTION('ref_axis',(1.,0.,0.));
#528=DIRECTION('',(0.,-1.,0.));
#529=DIRECTION('center_axis',(0.,-1.,0.));
#530=DIRECTION('ref_axis',(1.,0.,0.));
#531=DIRECTION('',(0.,-1.,0.));
#532=DIRECTION('center_axis',(1.1842378929335E-16,0.,-1.));
#533=DIRECTION('ref_axis',(-1.,0.,-1.1842378929335E-16));
#534=CARTESIAN_POINT('',(0.,0.,0.));
#535=CARTESIAN_POINT('Origin',(-56.2500000000001,-4.75,12.25));
#536=CARTESIAN_POINT('',(-100.,-4.5,12.5));
#537=CARTESIAN_POINT('',(-100.,-5.,12.));
#538=CARTESIAN_POINT('',(-100.,-4.5,12.5));
#539=CARTESIAN_POINT('',(99.9999999999999,-5.,12.));
#540=CARTESIAN_POINT('',(-56.2500000000001,-5.,12.));
#541=CARTESIAN_POINT('',(99.9999999999999,-4.5,12.5));
#542=CARTESIAN_POINT('',(99.9999999999999,-5.,12.));
#543=CARTESIAN_POINT('',(-56.2500000000001,-4.5,12.5));
#544=CARTESIAN_POINT('Origin',(-100.,-4.75,-4.44089209850063E-15));
#545=CARTESIAN_POINT('',(-100.,-4.5,-12.5));
#546=CARTESIAN_POINT('Origin',(-100.,-4.5,-4.44089209850063E-15));
#547=CARTESIAN_POINT('',(-100.,-5.,-12.));
#548=CARTESIAN_POINT('',(-100.,-4.5,-12.5));
#549=CARTESIAN_POINT('Origin',(-100.,-5.,-4.44089209850063E-15));
#550=CARTESIAN_POINT('Origin',(56.2499999999999,-4.75,-12.25));
#551=CARTESIAN_POINT('',(99.9999999999999,-4.5,-12.5));
#552=CARTESIAN_POINT('',(99.9999999999999,-5.,-12.));
#553=CARTESIAN_POINT('',(99.9999999999999,-4.5,-12.5));
#554=CARTESIAN_POINT('',(56.2499999999999,-5.,-12.));
#555=CARTESIAN_POINT('',(56.2499999999999,-4.5,-12.5));
#556=CARTESIAN_POINT('Origin',(99.9999999999999,-4.75,-4.44089209850063E-15));
#557=CARTESIAN_POINT('Origin',(99.9999999999999,-4.5,-4.44089209850063E-15));
#558=CARTESIAN_POINT('Origin',(99.9999999999999,-5.,-4.44089209850063E-15));
#559=CARTESIAN_POINT('Origin',(-100.,0.,-4.44089209850063E-15));
#560=CARTESIAN_POINT('',(-100.,4.5,12.5));
#561=CARTESIAN_POINT('',(-100.,0.,12.5));
#562=CARTESIAN_POINT('',(-100.,4.5,-12.5));
#563=CARTESIAN_POINT('Origin',(-100.,4.5,-4.44089209850063E-15));
#564=CARTESIAN_POINT('',(-100.,0.,-12.5));
#565=CARTESIAN_POINT('Origin',(-112.5,0.,12.5));
#566=CARTESIAN_POINT('',(99.9999999999999,4.5,12.5));
#567=CARTESIAN_POINT('',(99.9999999999999,0.,12.5));
#568=CARTESIAN_POINT('',(-56.2500000000001,4.5,12.5));
#569=CARTESIAN_POINT('Origin',(-5.32907051820075E-14,-5.,-4.44089209850063E-15));
#570=CARTESIAN_POINT('',(-101.0605569,-5.,1.29880761289864E-16));
#571=CARTESIAN_POINT('Origin',(-100.,-5.,0.));
#572=CARTESIAN_POINT('',(98.9394431,-5.,1.29880761289864E-16));
#573=CARTESIAN_POINT('Origin',(100.,-5.,0.));
#574=CARTESIAN_POINT('',(-18.25,-5.,3.9801020972289E-16));
#575=CARTESIAN_POINT('Origin',(-15.,-5.,0.));
#576=CARTESIAN_POINT('',(11.75,-5.,3.9801020972289E-16));
#577=CARTESIAN_POINT('Origin',(15.,-5.,0.));
#578=CARTESIAN_POINT('',(-3.5,-5.,4.28626379701574E-16));
#579=CARTESIAN_POINT('Origin',(0.,-5.,0.));
#580=CARTESIAN_POINT('Origin',(-56.2500000000001,4.75,12.25));
#581=CARTESIAN_POINT('',(99.9999999999999,5.,12.));
#582=CARTESIAN_POINT('',(99.9999999999999,4.5,12.5));
#583=CARTESIAN_POINT('',(-100.,5.,12.));
#584=CARTESIAN_POINT('',(-56.2500000000001,5.,12.));
#585=CARTESIAN_POINT('',(-100.,5.,12.));
#586=CARTESIAN_POINT('Origin',(99.9999999999999,4.75,-4.44089209850063E-15));
#587=CARTESIAN_POINT('',(99.9999999999999,4.5,-12.5));
#588=CARTESIAN_POINT('Origin',(99.9999999999999,4.5,-4.44089209850063E-15));
#589=CARTESIAN_POINT('',(99.9999999999999,5.,-12.));
#590=CARTESIAN_POINT('',(99.9999999999999,4.5,-12.5));
#591=CARTESIAN_POINT('Origin',(99.9999999999999,5.,-4.44089209850063E-15));
#592=CARTESIAN_POINT('Origin',(56.2499999999999,4.75,-12.25));
#593=CARTESIAN_POINT('',(-100.,5.,-12.));
#594=CARTESIAN_POINT('',(-100.,4.5,-12.5));
#595=CARTESIAN_POINT('',(56.2499999999999,5.,-12.));
#596=CARTESIAN_POINT('',(56.2499999999999,4.5,-12.5));
#597=CARTESIAN_POINT('Origin',(-100.,4.75,-4.44089209850063E-15));
#598=CARTESIAN_POINT('Origin',(-100.,5.,-4.44089209850063E-15));
#599=CARTESIAN_POINT('Origin',(99.9999999999999,0.,-4.44089209850063E-15));
#600=CARTESIAN_POINT('',(99.9999999999999,0.,-12.5));
#601=CARTESIAN_POINT('Origin',(-5.32907051820075E-14,5.,-4.44089209850063E-15));
#602=CARTESIAN_POINT('',(-101.0605569,5.,1.29880761289864E-16));
#603=CARTESIAN_POINT('Origin',(-100.,5.,0.));
#604=CARTESIAN_POINT('',(98.9394431,5.,1.29880761289864E-16));
#605=CARTESIAN_POINT('Origin',(100.,5.,0.));
#606=CARTESIAN_POINT('',(-21.3,5.,7.71527483462833E-16));
#607=CARTESIAN_POINT('Origin',(-15.,5.,0.));
#608=CARTESIAN_POINT('',(8.7,5.,7.71527483462833E-16));
#609=CARTESIAN_POINT('Origin',(15.,5.,0.));
#610=CARTESIAN_POINT('',(-3.5,5.,-4.28626379701574E-16));
#611=CARTESIAN_POINT('Origin',(0.,5.,0.));
#612=CARTESIAN_POINT('Origin',(-100.,-221.605383872493,0.));
#613=CARTESIAN_POINT('',(-101.0605569,-221.605383872493,1.29880761289864E-16));
#614=CARTESIAN_POINT('Origin',(100.,-221.605383872493,0.));
#615=CARTESIAN_POINT('',(98.9394431,-221.605383872493,1.29880761289864E-16));
#616=CARTESIAN_POINT('Origin',(-15.,3.475,0.));
#617=CARTESIAN_POINT('',(-18.25,1.95,3.9801020972289E-16));
#618=CARTESIAN_POINT('',(-19.775,3.475,5.84768846592861E-16));
#619=CARTESIAN_POINT('Origin',(-15.,1.95,0.));
#620=CARTESIAN_POINT('Origin',(-15.,-221.605383872493,0.));
#621=CARTESIAN_POINT('',(-18.25,-221.605383872493,3.9801020972289E-16));
#622=CARTESIAN_POINT('Origin',(15.,3.475,0.));
#623=CARTESIAN_POINT('',(11.75,1.95,3.9801020972289E-16));
#624=CARTESIAN_POINT('',(10.225,3.475,5.84768846592861E-16));
#625=CARTESIAN_POINT('Origin',(15.,1.95,0.));
#626=CARTESIAN_POINT('Origin',(15.,-221.605383872493,0.));
#627=CARTESIAN_POINT('',(11.75,-221.605383872493,3.9801020972289E-16));
#628=CARTESIAN_POINT('Origin',(0.,5.,0.));
#629=CARTESIAN_POINT('',(-3.5,5.,-4.28626379701574E-16));
#630=CARTESIAN_POINT('Origin',(112.5,0.,-12.5));
#631=UNCERTAINTY_MEASURE_WITH_UNIT(LENGTH_MEASURE(0.01),#635,
'DISTANCE_ACCURACY_VALUE',
'Maximum model space distance between geometric entities at asserted c
onnectivities');
#632=UNCERTAINTY_MEASURE_WITH_UNIT(LENGTH_MEASURE(0.01),#635,
'DISTANCE_ACCURACY_VALUE',
'Maximum model space distance between geometric entities at asserted c
onnectivities');
#633=(
GEOMETRIC_REPRESENTATION_CONTEXT(3)
GLOBAL_UNCERTAINTY_ASSIGNED_CONTEXT((#631))
GLOBAL_UNIT_ASSIGNED_CONTEXT((#635,#637,#638))
REPRESENTATION_CONTEXT('','3D')
);
#634=(
GEOMETRIC_REPRESENTATION_CONTEXT(3)
GLOBAL_UNCERTAINTY_ASSIGNED_CONTEXT((#632))
GLOBAL_UNIT_ASSIGNED_CONTEXT((#635,#637,#638))
REPRESENTATION_CONTEXT('','3D')
);
#635=(
LENGTH_UNIT()
NAMED_UNIT(*)
SI_UNIT(.MILLI.,.METRE.)
);
#636=(
LENGTH_UNIT()
NAMED_UNIT(*)
SI_UNIT(.CENTI.,.METRE.)
);
#637=(
NAMED_UNIT(*)
PLANE_ANGLE_UNIT()
SI_UNIT($,.RADIAN.)
);
#638=(
NAMED_UNIT(*)
SI_UNIT($,.STERADIAN.)
SOLID_ANGLE_UNIT()
);
#639=SHAPE_DEFINITION_REPRESENTATION(#640,#641);
#640=PRODUCT_DEFINITION_SHAPE('',$,#643);
#641=SHAPE_REPRESENTATION('',(#381),#633);
#642=PRODUCT_DEFINITION_CONTEXT('part definition',#647,'design');
#643=PRODUCT_DEFINITION('Brass Plate','Brass Plate',#644,#642);
#644=PRODUCT_DEFINITION_FORMATION('',$,#649);
#645=PRODUCT_RELATED_PRODUCT_CATEGORY('Brass Plate','Brass Plate',(#649));
#646=APPLICATION_PROTOCOL_DEFINITION('international standard',
'automotive_design',2009,#647);
#647=APPLICATION_CONTEXT(
'Core Data for Automotive Mechanical Design Process');
#648=PRODUCT_CONTEXT('part definition',#647,'mechanical');
#649=PRODUCT('Brass Plate','Brass Plate',$,(#648));
#650=PRESENTATION_STYLE_ASSIGNMENT((#651));
#651=SURFACE_STYLE_USAGE(.BOTH.,#654);
#652=SURFACE_STYLE_RENDERING_WITH_PROPERTIES($,#658,(#653));
#653=SURFACE_STYLE_TRANSPARENT(0.);
#654=SURFACE_SIDE_STYLE('',(#655,#652));
#655=SURFACE_STYLE_FILL_AREA(#656);
#656=FILL_AREA_STYLE('',(#657));
#657=FILL_AREA_STYLE_COLOUR('',#658);
#658=COLOUR_RGB('',0.796078431372549,0.603921568627451,0.231372549019608);
ENDSEC;
END-ISO-10303-21;
