ISO-10303-21;
HEADER;
/* Generated by software containing ST-Developer
 * from STEP Tools, Inc. (www.steptools.com) 
 */

FILE_DESCRIPTION(
/* description */ ('Exported via iLogic'),
/* implementation_level */ '2;1');

FILE_NAME(
/* name */ 
'S:\\Future Scope 1\\WIP\\Client Category\\Tom\\02 Progressive Work\\H
ardware\\CSK Allen Key 6x20mm.stp',
/* time_stamp */ '2025-10-28T18:05:30+06:00',
/* author */ ('iLogic Export'),
/* organization */ (''),
/* preprocessor_version */ 'ST-DEVELOPER v18.1',
/* originating_system */ 'Autodesk Inventor 2021',
/* authorisation */ '');

FILE_SCHEMA (('CONFIG_CONTROL_DESIGN'));
ENDSEC;

DATA;
#10=MECHANICAL_DESIGN_GEOMETRIC_PRESENTATION_REPRESENTATION('',(#13),#431);
#11=SHAPE_REPRESENTATION_RELATIONSHIP('SRR','None',#438,#12);
#12=ADVANCED_BREP_SHAPE_REPRESENTATION('',(#14),#430);
#13=STYLED_ITEM('',(#447),#14);
#14=MANIFOLD_SOLID_BREP('Solid1',#244);
#15=FACE_BOUND('',#55,.T.);
#16=TOROIDAL_SURFACE('',#272,3.3,0.3);
#17=PLANE('',#271);
#18=PLANE('',#278);
#19=PLANE('',#279);
#20=PLANE('',#280);
#21=PLANE('',#281);
#22=PLANE('',#282);
#23=PLANE('',#283);
#24=PLANE('',#284);
#25=PLANE('',#285);
#26=CYLINDRICAL_SURFACE('',#268,3.);
#27=CYLINDRICAL_SURFACE('',#287,6.);
#28=FACE_OUTER_BOUND('',#42,.T.);
#29=FACE_OUTER_BOUND('',#43,.T.);
#30=FACE_OUTER_BOUND('',#44,.T.);
#31=FACE_OUTER_BOUND('',#45,.T.);
#32=FACE_OUTER_BOUND('',#46,.T.);
#33=FACE_OUTER_BOUND('',#47,.T.);
#34=FACE_OUTER_BOUND('',#48,.T.);
#35=FACE_OUTER_BOUND('',#49,.T.);
#36=FACE_OUTER_BOUND('',#50,.T.);
#37=FACE_OUTER_BOUND('',#51,.T.);
#38=FACE_OUTER_BOUND('',#52,.T.);
#39=FACE_OUTER_BOUND('',#53,.T.);
#40=FACE_OUTER_BOUND('',#54,.T.);
#41=FACE_OUTER_BOUND('',#56,.T.);
#42=EDGE_LOOP('',(#164,#165,#166,#167,#168));
#43=EDGE_LOOP('',(#169,#170,#171,#172,#173,#174));
#44=EDGE_LOOP('',(#175));
#45=EDGE_LOOP('',(#176,#177,#178,#179,#180,#181));
#46=EDGE_LOOP('',(#182,#183,#184,#185,#186));
#47=EDGE_LOOP('',(#187,#188,#189,#190));
#48=EDGE_LOOP('',(#191,#192,#193,#194));
#49=EDGE_LOOP('',(#195,#196,#197,#198));
#50=EDGE_LOOP('',(#199,#200,#201,#202));
#51=EDGE_LOOP('',(#203,#204,#205,#206));
#52=EDGE_LOOP('',(#207,#208,#209,#210));
#53=EDGE_LOOP('',(#211,#212,#213,#214,#215,#216));
#54=EDGE_LOOP('',(#217));
#55=EDGE_LOOP('',(#218,#219,#220,#221,#222,#223));
#56=EDGE_LOOP('',(#224,#225,#226,#227));
#57=LINE('',#365,#79);
#58=LINE('',#371,#80);
#59=LINE('',#384,#81);
#60=LINE('',#389,#82);
#61=LINE('',#391,#83);
#62=LINE('',#393,#84);
#63=LINE('',#394,#85);
#64=LINE('',#397,#86);
#65=LINE('',#399,#87);
#66=LINE('',#400,#88);
#67=LINE('',#403,#89);
#68=LINE('',#405,#90);
#69=LINE('',#406,#91);
#70=LINE('',#409,#92);
#71=LINE('',#411,#93);
#72=LINE('',#412,#94);
#73=LINE('',#415,#95);
#74=LINE('',#417,#96);
#75=LINE('',#418,#97);
#76=LINE('',#420,#98);
#77=LINE('',#421,#99);
#78=LINE('',#427,#100);
#79=VECTOR('',#294,2.75);
#80=VECTOR('',#301,3.);
#81=VECTOR('',#318,4.5);
#82=VECTOR('',#323,10.);
#83=VECTOR('',#324,10.);
#84=VECTOR('',#325,10.);
#85=VECTOR('',#326,10.);
#86=VECTOR('',#329,10.);
#87=VECTOR('',#330,10.);
#88=VECTOR('',#331,10.);
#89=VECTOR('',#334,10.);
#90=VECTOR('',#335,10.);
#91=VECTOR('',#336,10.);
#92=VECTOR('',#339,10.);
#93=VECTOR('',#340,10.);
#94=VECTOR('',#341,10.);
#95=VECTOR('',#344,10.);
#96=VECTOR('',#345,10.);
#97=VECTOR('',#346,10.);
#98=VECTOR('',#349,10.);
#99=VECTOR('',#350,10.);
#100=VECTOR('',#359,6.);
#101=CIRCLE('',#265,2.5);
#102=CIRCLE('',#266,3.);
#103=CIRCLE('',#267,3.);
#104=CIRCLE('',#269,3.);
#105=CIRCLE('',#270,3.);
#106=CIRCLE('',#273,3.08786796564404);
#107=CIRCLE('',#274,3.08786796564404);
#108=CIRCLE('',#275,0.3);
#109=CIRCLE('',#277,6.);
#110=CIRCLE('',#286,6.);
#111=VERTEX_POINT('',#362);
#112=VERTEX_POINT('',#364);
#113=VERTEX_POINT('',#366);
#114=VERTEX_POINT('',#370);
#115=VERTEX_POINT('',#372);
#116=VERTEX_POINT('',#377);
#117=VERTEX_POINT('',#378);
#118=VERTEX_POINT('',#383);
#119=VERTEX_POINT('',#387);
#120=VERTEX_POINT('',#388);
#121=VERTEX_POINT('',#390);
#122=VERTEX_POINT('',#392);
#123=VERTEX_POINT('',#396);
#124=VERTEX_POINT('',#398);
#125=VERTEX_POINT('',#402);
#126=VERTEX_POINT('',#404);
#127=VERTEX_POINT('',#408);
#128=VERTEX_POINT('',#410);
#129=VERTEX_POINT('',#414);
#130=VERTEX_POINT('',#416);
#131=VERTEX_POINT('',#424);
#132=EDGE_CURVE('',#111,#111,#101,.T.);
#133=EDGE_CURVE('',#111,#112,#57,.T.);
#134=EDGE_CURVE('',#112,#113,#102,.T.);
#135=EDGE_CURVE('',#113,#112,#103,.T.);
#136=EDGE_CURVE('',#113,#114,#58,.T.);
#137=EDGE_CURVE('',#115,#114,#104,.T.);
#138=EDGE_CURVE('',#114,#115,#105,.T.);
#139=EDGE_CURVE('',#116,#117,#106,.T.);
#140=EDGE_CURVE('',#117,#116,#107,.T.);
#141=EDGE_CURVE('',#116,#115,#108,.T.);
#142=EDGE_CURVE('',#117,#118,#59,.T.);
#143=EDGE_CURVE('',#118,#118,#109,.T.);
#144=EDGE_CURVE('',#119,#120,#60,.T.);
#145=EDGE_CURVE('',#121,#119,#61,.T.);
#146=EDGE_CURVE('',#122,#121,#62,.T.);
#147=EDGE_CURVE('',#122,#120,#63,.T.);
#148=EDGE_CURVE('',#120,#123,#64,.T.);
#149=EDGE_CURVE('',#124,#122,#65,.T.);
#150=EDGE_CURVE('',#124,#123,#66,.T.);
#151=EDGE_CURVE('',#123,#125,#67,.T.);
#152=EDGE_CURVE('',#126,#124,#68,.T.);
#153=EDGE_CURVE('',#126,#125,#69,.T.);
#154=EDGE_CURVE('',#125,#127,#70,.T.);
#155=EDGE_CURVE('',#128,#126,#71,.T.);
#156=EDGE_CURVE('',#128,#127,#72,.T.);
#157=EDGE_CURVE('',#127,#129,#73,.T.);
#158=EDGE_CURVE('',#130,#128,#74,.T.);
#159=EDGE_CURVE('',#130,#129,#75,.T.);
#160=EDGE_CURVE('',#129,#119,#76,.T.);
#161=EDGE_CURVE('',#121,#130,#77,.T.);
#162=EDGE_CURVE('',#131,#131,#110,.T.);
#163=EDGE_CURVE('',#118,#131,#78,.T.);
#164=ORIENTED_EDGE('',*,*,#132,.T.);
#165=ORIENTED_EDGE('',*,*,#133,.T.);
#166=ORIENTED_EDGE('',*,*,#134,.T.);
#167=ORIENTED_EDGE('',*,*,#135,.T.);
#168=ORIENTED_EDGE('',*,*,#133,.F.);
#169=ORIENTED_EDGE('',*,*,#134,.F.);
#170=ORIENTED_EDGE('',*,*,#135,.F.);
#171=ORIENTED_EDGE('',*,*,#136,.T.);
#172=ORIENTED_EDGE('',*,*,#137,.F.);
#173=ORIENTED_EDGE('',*,*,#138,.F.);
#174=ORIENTED_EDGE('',*,*,#136,.F.);
#175=ORIENTED_EDGE('',*,*,#132,.F.);
#176=ORIENTED_EDGE('',*,*,#139,.T.);
#177=ORIENTED_EDGE('',*,*,#140,.T.);
#178=ORIENTED_EDGE('',*,*,#141,.T.);
#179=ORIENTED_EDGE('',*,*,#137,.T.);
#180=ORIENTED_EDGE('',*,*,#138,.T.);
#181=ORIENTED_EDGE('',*,*,#141,.F.);
#182=ORIENTED_EDGE('',*,*,#139,.F.);
#183=ORIENTED_EDGE('',*,*,#140,.F.);
#184=ORIENTED_EDGE('',*,*,#142,.T.);
#185=ORIENTED_EDGE('',*,*,#143,.T.);
#186=ORIENTED_EDGE('',*,*,#142,.F.);
#187=ORIENTED_EDGE('',*,*,#144,.F.);
#188=ORIENTED_EDGE('',*,*,#145,.F.);
#189=ORIENTED_EDGE('',*,*,#146,.F.);
#190=ORIENTED_EDGE('',*,*,#147,.T.);
#191=ORIENTED_EDGE('',*,*,#148,.F.);
#192=ORIENTED_EDGE('',*,*,#147,.F.);
#193=ORIENTED_EDGE('',*,*,#149,.F.);
#194=ORIENTED_EDGE('',*,*,#150,.T.);
#195=ORIENTED_EDGE('',*,*,#151,.F.);
#196=ORIENTED_EDGE('',*,*,#150,.F.);
#197=ORIENTED_EDGE('',*,*,#152,.F.);
#198=ORIENTED_EDGE('',*,*,#153,.T.);
#199=ORIENTED_EDGE('',*,*,#154,.F.);
#200=ORIENTED_EDGE('',*,*,#153,.F.);
#201=ORIENTED_EDGE('',*,*,#155,.F.);
#202=ORIENTED_EDGE('',*,*,#156,.T.);
#203=ORIENTED_EDGE('',*,*,#157,.F.);
#204=ORIENTED_EDGE('',*,*,#156,.F.);
#205=ORIENTED_EDGE('',*,*,#158,.F.);
#206=ORIENTED_EDGE('',*,*,#159,.T.);
#207=ORIENTED_EDGE('',*,*,#160,.F.);
#208=ORIENTED_EDGE('',*,*,#159,.F.);
#209=ORIENTED_EDGE('',*,*,#161,.F.);
#210=ORIENTED_EDGE('',*,*,#145,.T.);
#211=ORIENTED_EDGE('',*,*,#144,.T.);
#212=ORIENTED_EDGE('',*,*,#148,.T.);
#213=ORIENTED_EDGE('',*,*,#151,.T.);
#214=ORIENTED_EDGE('',*,*,#154,.T.);
#215=ORIENTED_EDGE('',*,*,#157,.T.);
#216=ORIENTED_EDGE('',*,*,#160,.T.);
#217=ORIENTED_EDGE('',*,*,#162,.F.);
#218=ORIENTED_EDGE('',*,*,#146,.T.);
#219=ORIENTED_EDGE('',*,*,#161,.T.);
#220=ORIENTED_EDGE('',*,*,#158,.T.);
#221=ORIENTED_EDGE('',*,*,#155,.T.);
#222=ORIENTED_EDGE('',*,*,#152,.T.);
#223=ORIENTED_EDGE('',*,*,#149,.T.);
#224=ORIENTED_EDGE('',*,*,#143,.F.);
#225=ORIENTED_EDGE('',*,*,#163,.T.);
#226=ORIENTED_EDGE('',*,*,#162,.T.);
#227=ORIENTED_EDGE('',*,*,#163,.F.);
#228=CONICAL_SURFACE('',#264,2.75,0.785398163397448);
#229=CONICAL_SURFACE('',#276,4.5,0.785398163397448);
#230=ADVANCED_FACE('',(#28),#228,.T.);
#231=ADVANCED_FACE('',(#29),#26,.T.);
#232=ADVANCED_FACE('',(#30),#17,.T.);
#233=ADVANCED_FACE('',(#31),#16,.F.);
#234=ADVANCED_FACE('',(#32),#229,.T.);
#235=ADVANCED_FACE('',(#33),#18,.F.);
#236=ADVANCED_FACE('',(#34),#19,.F.);
#237=ADVANCED_FACE('',(#35),#20,.F.);
#238=ADVANCED_FACE('',(#36),#21,.F.);
#239=ADVANCED_FACE('',(#37),#22,.F.);
#240=ADVANCED_FACE('',(#38),#23,.F.);
#241=ADVANCED_FACE('',(#39),#24,.T.);
#242=ADVANCED_FACE('',(#40,#15),#25,.T.);
#243=ADVANCED_FACE('',(#41),#27,.T.);
#244=CLOSED_SHELL('',(#230,#231,#232,#233,#234,#235,#236,#237,#238,#239,
#240,#241,#242,#243));
#245=DERIVED_UNIT_ELEMENT(#247,1.);
#246=DERIVED_UNIT_ELEMENT(#433,3.);
#247=(
MASS_UNIT()
NAMED_UNIT(*)
SI_UNIT($,.GRAM.)
);
#248=DERIVED_UNIT((#245,#246));
#249=MEASURE_REPRESENTATION_ITEM('density measure',
POSITIVE_RATIO_MEASURE(7.85),#248);
#250=PROPERTY_DEFINITION_REPRESENTATION(#255,#252);
#251=PROPERTY_DEFINITION_REPRESENTATION(#256,#253);
#252=REPRESENTATION('material name',(#254),#430);
#253=REPRESENTATION('density',(#249),#430);
#254=DESCRIPTIVE_REPRESENTATION_ITEM('Steel, Mild','Steel, Mild');
#255=PROPERTY_DEFINITION('material property','material name',#440);
#256=PROPERTY_DEFINITION('material property','density of part',#440);
#257=DATE_TIME_ROLE('creation_date');
#258=CC_DESIGN_DATE_AND_TIME_ASSIGNMENT(#259,#257,(#440));
#259=DATE_AND_TIME(#260,#261);
#260=CALENDAR_DATE(2020,21,1);
#261=LOCAL_TIME(0,0,0.,#262);
#262=COORDINATED_UNIVERSAL_TIME_OFFSET(0,0,.BEHIND.);
#263=AXIS2_PLACEMENT_3D('placement',#360,#288,#289);
#264=AXIS2_PLACEMENT_3D('',#361,#290,#291);
#265=AXIS2_PLACEMENT_3D('',#363,#292,#293);
#266=AXIS2_PLACEMENT_3D('',#367,#295,#296);
#267=AXIS2_PLACEMENT_3D('',#368,#297,#298);
#268=AXIS2_PLACEMENT_3D('',#369,#299,#300);
#269=AXIS2_PLACEMENT_3D('',#373,#302,#303);
#270=AXIS2_PLACEMENT_3D('',#374,#304,#305);
#271=AXIS2_PLACEMENT_3D('',#375,#306,#307);
#272=AXIS2_PLACEMENT_3D('',#376,#308,#309);
#273=AXIS2_PLACEMENT_3D('',#379,#310,#311);
#274=AXIS2_PLACEMENT_3D('',#380,#312,#313);
#275=AXIS2_PLACEMENT_3D('',#381,#314,#315);
#276=AXIS2_PLACEMENT_3D('',#382,#316,#317);
#277=AXIS2_PLACEMENT_3D('',#385,#319,#320);
#278=AXIS2_PLACEMENT_3D('',#386,#321,#322);
#279=AXIS2_PLACEMENT_3D('',#395,#327,#328);
#280=AXIS2_PLACEMENT_3D('',#401,#332,#333);
#281=AXIS2_PLACEMENT_3D('',#407,#337,#338);
#282=AXIS2_PLACEMENT_3D('',#413,#342,#343);
#283=AXIS2_PLACEMENT_3D('',#419,#347,#348);
#284=AXIS2_PLACEMENT_3D('',#422,#351,#352);
#285=AXIS2_PLACEMENT_3D('',#423,#353,#354);
#286=AXIS2_PLACEMENT_3D('',#425,#355,#356);
#287=AXIS2_PLACEMENT_3D('',#426,#357,#358);
#288=DIRECTION('axis',(0.,0.,1.));
#289=DIRECTION('refdir',(1.,0.,0.));
#290=DIRECTION('center_axis',(0.,0.,1.));
#291=DIRECTION('ref_axis',(-1.,0.,0.));
#292=DIRECTION('center_axis',(0.,0.,1.));
#293=DIRECTION('ref_axis',(-1.,0.,0.));
#294=DIRECTION('',(0.707106781186547,-8.65956056235493E-17,0.707106781186547));
#295=DIRECTION('center_axis',(0.,0.,-1.));
#296=DIRECTION('ref_axis',(-1.,0.,0.));
#297=DIRECTION('center_axis',(0.,0.,-1.));
#298=DIRECTION('ref_axis',(-1.,0.,0.));
#299=DIRECTION('center_axis',(0.,0.,-1.));
#300=DIRECTION('ref_axis',(1.,0.,0.));
#301=DIRECTION('',(0.,0.,1.));
#302=DIRECTION('center_axis',(0.,0.,1.));
#303=DIRECTION('ref_axis',(-1.,-1.22464679914735E-16,0.));
#304=DIRECTION('center_axis',(0.,0.,1.));
#305=DIRECTION('ref_axis',(-1.,-1.22464679914735E-16,0.));
#306=DIRECTION('center_axis',(0.,0.,-1.));
#307=DIRECTION('ref_axis',(-1.,0.,0.));
#308=DIRECTION('center_axis',(0.,0.,-1.));
#309=DIRECTION('ref_axis',(-1.,0.,0.));
#310=DIRECTION('center_axis',(0.,0.,-1.));
#311=DIRECTION('ref_axis',(-1.,0.,0.));
#312=DIRECTION('center_axis',(0.,0.,-1.));
#313=DIRECTION('ref_axis',(-1.,0.,0.));
#314=DIRECTION('center_axis',(-1.22464679914735E-16,-1.,0.));
#315=DIRECTION('ref_axis',(1.,-1.22464679914735E-16,0.));
#316=DIRECTION('center_axis',(0.,0.,1.));
#317=DIRECTION('ref_axis',(1.,0.,0.));
#318=DIRECTION('',(-0.707106781186548,8.65956056235493E-17,0.707106781186548));
#319=DIRECTION('center_axis',(0.,0.,-1.));
#320=DIRECTION('ref_axis',(1.,0.,0.));
#321=DIRECTION('center_axis',(-0.499999999999999,-0.866025403784439,0.));
#322=DIRECTION('ref_axis',(0.,0.,-1.));
#323=DIRECTION('',(0.866025403784439,-0.499999999999999,0.));
#324=DIRECTION('',(0.,0.,-1.));
#325=DIRECTION('',(-0.866025403784439,0.499999999999999,0.));
#326=DIRECTION('',(0.,0.,-1.));
#327=DIRECTION('center_axis',(0.5,-0.866025403784439,0.));
#328=DIRECTION('ref_axis',(0.,0.,-1.));
#329=DIRECTION('',(0.866025403784439,0.5,0.));
#330=DIRECTION('',(-0.866025403784439,-0.5,0.));
#331=DIRECTION('',(0.,0.,-1.));
#332=DIRECTION('center_axis',(1.,0.,0.));
#333=DIRECTION('ref_axis',(0.,0.,-1.));
#334=DIRECTION('',(0.,1.,0.));
#335=DIRECTION('',(0.,-1.,0.));
#336=DIRECTION('',(0.,0.,-1.));
#337=DIRECTION('center_axis',(0.499999999999999,0.866025403784439,0.));
#338=DIRECTION('ref_axis',(0.,0.,1.));
#339=DIRECTION('',(-0.866025403784439,0.499999999999999,0.));
#340=DIRECTION('',(0.866025403784439,-0.499999999999999,0.));
#341=DIRECTION('',(0.,0.,-1.));
#342=DIRECTION('center_axis',(-0.5,0.866025403784439,0.));
#343=DIRECTION('ref_axis',(0.,0.,1.));
#344=DIRECTION('',(-0.866025403784439,-0.5,0.));
#345=DIRECTION('',(0.866025403784439,0.5,0.));
#346=DIRECTION('',(0.,0.,-1.));
#347=DIRECTION('center_axis',(-1.,0.,0.));
#348=DIRECTION('ref_axis',(0.,0.,1.));
#349=DIRECTION('',(0.,-1.,0.));
#350=DIRECTION('',(0.,1.,0.));
#351=DIRECTION('center_axis',(0.,0.,1.));
#352=DIRECTION('ref_axis',(1.,0.,0.));
#353=DIRECTION('center_axis',(0.,0.,1.));
#354=DIRECTION('ref_axis',(1.,0.,0.));
#355=DIRECTION('center_axis',(0.,0.,-1.));
#356=DIRECTION('ref_axis',(1.,0.,0.));
#357=DIRECTION('center_axis',(0.,0.,-1.));
#358=DIRECTION('ref_axis',(1.,0.,0.));
#359=DIRECTION('',(0.,0.,1.));
#360=CARTESIAN_POINT('',(0.,0.,0.));
#361=CARTESIAN_POINT('Origin',(0.,0.,-19.75));
#362=CARTESIAN_POINT('',(2.5,3.06161699786838E-16,-20.));
#363=CARTESIAN_POINT('Origin',(0.,0.,-20.));
#364=CARTESIAN_POINT('',(3.,-3.67394039744206E-16,-19.5));
#365=CARTESIAN_POINT('',(2.75,-3.36777869765522E-16,-19.75));
#366=CARTESIAN_POINT('',(-3.,3.67394039744206E-16,-19.5));
#367=CARTESIAN_POINT('Origin',(0.,0.,-19.5));
#368=CARTESIAN_POINT('Origin',(0.,0.,-19.5));
#369=CARTESIAN_POINT('Origin',(0.,0.,-11.65));
#370=CARTESIAN_POINT('',(-3.,3.67394039744206E-16,-3.42426406871193));
#371=CARTESIAN_POINT('',(-3.,3.67394039744206E-16,-11.65));
#372=CARTESIAN_POINT('',(3.,7.34788079488412E-16,-3.42426406871193));
#373=CARTESIAN_POINT('Origin',(0.,0.,-3.42426406871193));
#374=CARTESIAN_POINT('Origin',(0.,0.,-3.42426406871193));
#375=CARTESIAN_POINT('Origin',(1.5,0.,-20.));
#376=CARTESIAN_POINT('Origin',(0.,0.,-3.42426406871193));
#377=CARTESIAN_POINT('',(3.08786796564404,0.,-3.21213203435597));
#378=CARTESIAN_POINT('',(-3.08786796564404,3.78154762031562E-16,-3.21213203435597));
#379=CARTESIAN_POINT('Origin',(0.,3.78154762031562E-16,-3.21213203435597));
#380=CARTESIAN_POINT('Origin',(0.,3.78154762031562E-16,-3.21213203435597));
#381=CARTESIAN_POINT('Origin',(3.3,-4.04133443718627E-16,-3.42426406871193));
#382=CARTESIAN_POINT('Origin',(0.,0.,-1.8));
#383=CARTESIAN_POINT('',(-6.,7.34788079488412E-16,-0.300000000000001));
#384=CARTESIAN_POINT('',(-4.5,5.51091059616309E-16,-1.8));
#385=CARTESIAN_POINT('Origin',(0.,0.,-0.3));
#386=CARTESIAN_POINT('Origin',(-2.,-1.15470053837925,-1.38777878078145E-16));
#387=CARTESIAN_POINT('',(-2.,-1.15470053837925,-2.5));
#388=CARTESIAN_POINT('',(8.32667268468867E-16,-2.3094010767585,-2.5));
#389=CARTESIAN_POINT('',(-2.,-1.15470053837925,-2.5));
#390=CARTESIAN_POINT('',(-2.,-1.15470053837925,-1.38777878078145E-16));
#391=CARTESIAN_POINT('',(-2.,-1.15470053837925,-1.38777878078145E-16));
#392=CARTESIAN_POINT('',(8.32667268468867E-16,-2.3094010767585,-1.38777878078145E-16));
#393=CARTESIAN_POINT('',(-0.374999999999998,-2.09289472581239,-1.38777878078145E-16));
#394=CARTESIAN_POINT('',(8.32667268468867E-16,-2.3094010767585,-1.38777878078145E-16));
#395=CARTESIAN_POINT('Origin',(8.32667268468867E-16,-2.3094010767585,-1.38777878078145E-16));
#396=CARTESIAN_POINT('',(2.,-1.15470053837925,-2.5));
#397=CARTESIAN_POINT('',(8.32667268468867E-16,-2.3094010767585,-2.5));
#398=CARTESIAN_POINT('',(2.,-1.15470053837925,-1.38777878078145E-16));
#399=CARTESIAN_POINT('',(1.625,-1.37120688932536,-1.38777878078145E-16));
#400=CARTESIAN_POINT('',(2.,-1.15470053837925,-1.38777878078145E-16));
#401=CARTESIAN_POINT('Origin',(2.,-1.15470053837925,-1.38777878078145E-16));
#402=CARTESIAN_POINT('',(2.,1.15470053837925,-2.5));
#403=CARTESIAN_POINT('',(2.,-1.15470053837925,-2.5));
#404=CARTESIAN_POINT('',(2.,1.15470053837925,-1.38777878078145E-16));
#405=CARTESIAN_POINT('',(2.,-0.577350269189626,-1.38777878078145E-16));
#406=CARTESIAN_POINT('',(2.,1.15470053837925,-1.38777878078145E-16));
#407=CARTESIAN_POINT('Origin',(2.,1.15470053837925,-1.38777878078145E-16));
#408=CARTESIAN_POINT('',(-6.93889390390723E-16,2.3094010767585,-2.5));
#409=CARTESIAN_POINT('',(2.,1.15470053837925,-2.5));
#410=CARTESIAN_POINT('',(-6.93889390390723E-16,2.3094010767585,-1.38777878078145E-16));
#411=CARTESIAN_POINT('',(2.625,0.793856620135737,-1.38777878078145E-16));
#412=CARTESIAN_POINT('',(-6.93889390390723E-16,2.3094010767585,-1.38777878078145E-16));
#413=CARTESIAN_POINT('Origin',(-6.93889390390723E-16,2.3094010767585,-1.38777878078145E-16));
#414=CARTESIAN_POINT('',(-2.,1.15470053837925,-2.5));
#415=CARTESIAN_POINT('',(-6.93889390390723E-16,2.3094010767585,-2.5));
#416=CARTESIAN_POINT('',(-2.,1.15470053837925,-1.38777878078145E-16));
#417=CARTESIAN_POINT('',(0.625000000000001,2.67024499500202,-1.38777878078145E-16));
#418=CARTESIAN_POINT('',(-2.,1.15470053837925,-1.38777878078145E-16));
#419=CARTESIAN_POINT('Origin',(-2.,1.15470053837925,-1.38777878078145E-16));
#420=CARTESIAN_POINT('',(-2.,1.15470053837925,-2.5));
#421=CARTESIAN_POINT('',(-2.,0.577350269189626,-1.38777878078145E-16));
#422=CARTESIAN_POINT('Origin',(0.,6.93889390390723E-17,-2.5));
#423=CARTESIAN_POINT('Origin',(3.,0.,-1.38777878078145E-16));
#424=CARTESIAN_POINT('',(-6.,7.34788079488412E-16,0.));
#425=CARTESIAN_POINT('Origin',(0.,0.,0.));
#426=CARTESIAN_POINT('Origin',(0.,0.,-0.150000000000001));
#427=CARTESIAN_POINT('',(-6.,7.34788079488412E-16,-0.150000000000001));
#428=UNCERTAINTY_MEASURE_WITH_UNIT(LENGTH_MEASURE(0.01),#432,
'DISTANCE_ACCURACY_VALUE',
'Maximum model space distance between geometric entities at asserted c
onnectivities');
#429=UNCERTAINTY_MEASURE_WITH_UNIT(LENGTH_MEASURE(0.01),#432,
'DISTANCE_ACCURACY_VALUE',
'Maximum model space distance between geometric entities at asserted c
onnectivities');
#430=(
GEOMETRIC_REPRESENTATION_CONTEXT(3)
GLOBAL_UNCERTAINTY_ASSIGNED_CONTEXT((#428))
GLOBAL_UNIT_ASSIGNED_CONTEXT((#432,#434,#435))
REPRESENTATION_CONTEXT('','3D')
);
#431=(
GEOMETRIC_REPRESENTATION_CONTEXT(3)
GLOBAL_UNCERTAINTY_ASSIGNED_CONTEXT((#429))
GLOBAL_UNIT_ASSIGNED_CONTEXT((#432,#434,#435))
REPRESENTATION_CONTEXT('','3D')
);
#432=(
LENGTH_UNIT()
NAMED_UNIT(*)
SI_UNIT(.MILLI.,.METRE.)
);
#433=(
LENGTH_UNIT()
NAMED_UNIT(*)
SI_UNIT(.CENTI.,.METRE.)
);
#434=(
NAMED_UNIT(*)
PLANE_ANGLE_UNIT()
SI_UNIT($,.RADIAN.)
);
#435=(
NAMED_UNIT(*)
SI_UNIT($,.STERADIAN.)
SOLID_ANGLE_UNIT()
);
#436=SHAPE_DEFINITION_REPRESENTATION(#437,#438);
#437=PRODUCT_DEFINITION_SHAPE('',$,#440);
#438=SHAPE_REPRESENTATION('',(#263),#430);
#439=DESIGN_CONTEXT('part definition',#444,'design');
#440=PRODUCT_DEFINITION('CSK Allen Key 6x20mm','CSK Allen Key 6x20mm',#441,
#439);
#441=PRODUCT_DEFINITION_FORMATION('',$,#446);
#442=PRODUCT_RELATED_PRODUCT_CATEGORY('CSK Allen Key 6x20mm',
'CSK Allen Key 6x20mm',(#446));
#443=APPLICATION_PROTOCOL_DEFINITION('international standard',
'ap203_configuration_controlled_3d_design_of_mechanical_parts_and_asse
mblies_mim_lf',2004,#444);
#444=APPLICATION_CONTEXT(
'Configuration Controlled 3D Design of Mechanical Parts and Assemblies');
#445=MECHANICAL_CONTEXT('part definition',#444,'mechanical');
#446=PRODUCT('CSK Allen Key 6x20mm','CSK Allen Key 6x20mm',
'Hexagon socket countersunk head cap screws',(#445));
#447=PRESENTATION_STYLE_ASSIGNMENT((#448));
#448=SURFACE_STYLE_USAGE(.BOTH.,#451);
#449=SURFACE_STYLE_RENDERING_WITH_PROPERTIES($,#455,(#450));
#450=SURFACE_STYLE_TRANSPARENT(0.);
#451=SURFACE_SIDE_STYLE('',(#452,#449));
#452=SURFACE_STYLE_FILL_AREA(#453);
#453=FILL_AREA_STYLE('',(#454));
#454=FILL_AREA_STYLE_COLOUR('',#455);
#455=COLOUR_RGB('',0.745098039215686,0.737254901960784,0.729411764705882);
ENDSEC;
END-ISO-10303-21;
