ISO-10303-21;
HEADER;
/* Generated by software containing ST-Developer
 * from STEP Tools, Inc. (www.steptools.com) 
 */

FILE_DESCRIPTION(
/* description */ (''),
/* implementation_level */ '2;1');

FILE_NAME(
/* name */ 
'S:\\Future Scope 1\\WIP\\Client Category\\Tom\\02 Progressive Work\\D
omed End Rod 40mm.stp',
/* time_stamp */ '2025-11-05T12:14:34+06:00',
/* author */ ('SD'),
/* organization */ (''),
/* preprocessor_version */ 'ST-DEVELOPER v18.1',
/* originating_system */ 'Autodesk Inventor 2021',
/* authorisation */ '');

FILE_SCHEMA (('AUTOMOTIVE_DESIGN { 1 0 10303 214 3 1 1 }'));
ENDSEC;

DATA;
#10=MECHANICAL_DESIGN_GEOMETRIC_PRESENTATION_REPRESENTATION('',(#13),#141);
#11=SHAPE_REPRESENTATION_RELATIONSHIP('SRR','None',#148,#12);
#12=ADVANCED_BREP_SHAPE_REPRESENTATION('',(#14),#140);
#13=STYLED_ITEM('',(#157),#14);
#14=MANIFOLD_SOLID_BREP('Solid1',#55);
#15=PLANE('',#80);
#16=PLANE('',#81);
#17=LINE('',#134,#18);
#18=VECTOR('',#92,1.5);
#19=CYLINDRICAL_SURFACE('',#78,1.5);
#20=FACE_OUTER_BOUND('',#24,.T.);
#21=FACE_OUTER_BOUND('',#25,.T.);
#22=FACE_OUTER_BOUND('',#26,.T.);
#23=FACE_OUTER_BOUND('',#27,.T.);
#24=EDGE_LOOP('',(#40,#41,#42,#43));
#25=EDGE_LOOP('',(#44,#45,#46,#47));
#26=EDGE_LOOP('',(#48));
#27=EDGE_LOOP('',(#49));
#28=CIRCLE('',#75,0.5);
#29=CIRCLE('',#76,1.);
#30=CIRCLE('',#77,1.5);
#31=CIRCLE('',#79,1.5);
#32=VERTEX_POINT('',#127);
#33=VERTEX_POINT('',#129);
#34=VERTEX_POINT('',#133);
#35=EDGE_CURVE('',#32,#32,#28,.T.);
#36=EDGE_CURVE('',#32,#33,#29,.T.);
#37=EDGE_CURVE('',#33,#33,#30,.T.);
#38=EDGE_CURVE('',#33,#34,#17,.T.);
#39=EDGE_CURVE('',#34,#34,#31,.T.);
#40=ORIENTED_EDGE('',*,*,#35,.T.);
#41=ORIENTED_EDGE('',*,*,#36,.T.);
#42=ORIENTED_EDGE('',*,*,#37,.T.);
#43=ORIENTED_EDGE('',*,*,#36,.F.);
#44=ORIENTED_EDGE('',*,*,#37,.F.);
#45=ORIENTED_EDGE('',*,*,#38,.T.);
#46=ORIENTED_EDGE('',*,*,#39,.F.);
#47=ORIENTED_EDGE('',*,*,#38,.F.);
#48=ORIENTED_EDGE('',*,*,#35,.F.);
#49=ORIENTED_EDGE('',*,*,#39,.T.);
#50=(
BOUNDED_SURFACE()
B_SPLINE_SURFACE(2,2,((#100,#101,#102,#103,#104,#105,#106,#107,#108),(#109,
#110,#111,#112,#113,#114,#115,#116,#117),(#118,#119,#120,#121,#122,#123,
#124,#125,#126)),.UNSPECIFIED.,.F.,.T.,.F.)
B_SPLINE_SURFACE_WITH_KNOTS((3,3),(3,2,2,2,3),(0.,1.5707963267949),(-3.14159265358979,
-1.5707963267949,0.,1.5707963267949,3.14159265358979),.UNSPECIFIED.)
GEOMETRIC_REPRESENTATION_ITEM()
RATIONAL_B_SPLINE_SURFACE(((1.,0.707106781186548,1.,0.707106781186548,1.,
0.707106781186548,1.,0.707106781186548,1.),(0.707106781186542,0.499999999999996,
0.707106781186542,0.499999999999996,0.707106781186542,0.499999999999996,
0.707106781186542,0.499999999999996,0.707106781186542),(1.,0.707106781186548,
1.,0.707106781186548,1.,0.707106781186548,1.,0.707106781186548,1.)))
REPRESENTATION_ITEM('')
SURFACE()
);
#51=ADVANCED_FACE('',(#20),#50,.F.);
#52=ADVANCED_FACE('',(#21),#19,.T.);
#53=ADVANCED_FACE('',(#22),#15,.T.);
#54=ADVANCED_FACE('',(#23),#16,.F.);
#55=CLOSED_SHELL('',(#51,#52,#53,#54));
#56=DERIVED_UNIT_ELEMENT(#58,1.);
#57=DERIVED_UNIT_ELEMENT(#143,3.);
#58=(
MASS_UNIT()
NAMED_UNIT(*)
SI_UNIT($,.GRAM.)
);
#59=DERIVED_UNIT((#56,#57));
#60=MEASURE_REPRESENTATION_ITEM('density measure',
POSITIVE_RATIO_MEASURE(8.874),#59);
#61=PROPERTY_DEFINITION_REPRESENTATION(#66,#63);
#62=PROPERTY_DEFINITION_REPRESENTATION(#67,#64);
#63=REPRESENTATION('material name',(#65),#140);
#64=REPRESENTATION('density',(#60),#140);
#65=DESCRIPTIVE_REPRESENTATION_ITEM('Bronze, Soft Tin',
'Bronze, Soft Tin');
#66=PROPERTY_DEFINITION('material property','material name',#150);
#67=PROPERTY_DEFINITION('material property','density of part',#150);
#68=DATE_TIME_ROLE('creation_date');
#69=APPLIED_DATE_AND_TIME_ASSIGNMENT(#70,#68,(#150));
#70=DATE_AND_TIME(#71,#72);
#71=CALENDAR_DATE(2025,16,9);
#72=LOCAL_TIME(0,0,0.,#73);
#73=COORDINATED_UNIVERSAL_TIME_OFFSET(0,0,.BEHIND.);
#74=AXIS2_PLACEMENT_3D('placement',#99,#82,#83);
#75=AXIS2_PLACEMENT_3D('',#128,#84,#85);
#76=AXIS2_PLACEMENT_3D('',#130,#86,#87);
#77=AXIS2_PLACEMENT_3D('',#131,#88,#89);
#78=AXIS2_PLACEMENT_3D('',#132,#90,#91);
#79=AXIS2_PLACEMENT_3D('',#135,#93,#94);
#80=AXIS2_PLACEMENT_3D('',#136,#95,#96);
#81=AXIS2_PLACEMENT_3D('',#137,#97,#98);
#82=DIRECTION('axis',(0.,0.,1.));
#83=DIRECTION('refdir',(1.,0.,0.));
#84=DIRECTION('center_axis',(0.,0.,-1.));
#85=DIRECTION('ref_axis',(-1.,1.22464679914735E-16,0.));
#86=DIRECTION('center_axis',(1.22464679914735E-16,-1.,0.));
#87=DIRECTION('ref_axis',(-1.,-1.22464679914735E-16,0.));
#88=DIRECTION('center_axis',(0.,0.,1.));
#89=DIRECTION('ref_axis',(-1.,1.22464679914735E-16,0.));
#90=DIRECTION('center_axis',(0.,0.,1.));
#91=DIRECTION('ref_axis',(1.,0.,0.));
#92=DIRECTION('',(0.,0.,-1.));
#93=DIRECTION('center_axis',(0.,0.,-1.));
#94=DIRECTION('ref_axis',(1.,0.,0.));
#95=DIRECTION('center_axis',(0.,0.,1.));
#96=DIRECTION('ref_axis',(1.,0.,0.));
#97=DIRECTION('center_axis',(0.,0.,1.));
#98=DIRECTION('ref_axis',(1.,0.,0.));
#99=CARTESIAN_POINT('',(0.,0.,0.));
#100=CARTESIAN_POINT('Ctrl Pts',(-1.5,0.,24.));
#101=CARTESIAN_POINT('Ctrl Pts',(-1.5,-1.5,24.));
#102=CARTESIAN_POINT('Ctrl Pts',(0.,-1.5,24.));
#103=CARTESIAN_POINT('Ctrl Pts',(1.5,-1.5,24.));
#104=CARTESIAN_POINT('Ctrl Pts',(1.5,0.,24.));
#105=CARTESIAN_POINT('Ctrl Pts',(1.5,1.5,24.));
#106=CARTESIAN_POINT('Ctrl Pts',(0.,1.5,24.));
#107=CARTESIAN_POINT('Ctrl Pts',(-1.5,1.5,24.));
#108=CARTESIAN_POINT('Ctrl Pts',(-1.5,0.,24.));
#109=CARTESIAN_POINT('Ctrl Pts',(-1.5,0.,25.));
#110=CARTESIAN_POINT('Ctrl Pts',(-1.5,-1.5,25.));
#111=CARTESIAN_POINT('Ctrl Pts',(0.,-1.5,25.));
#112=CARTESIAN_POINT('Ctrl Pts',(1.5,-1.5,25.));
#113=CARTESIAN_POINT('Ctrl Pts',(1.5,0.,25.));
#114=CARTESIAN_POINT('Ctrl Pts',(1.5,1.5,25.));
#115=CARTESIAN_POINT('Ctrl Pts',(0.,1.5,25.));
#116=CARTESIAN_POINT('Ctrl Pts',(-1.5,1.5,25.));
#117=CARTESIAN_POINT('Ctrl Pts',(-1.5,0.,25.));
#118=CARTESIAN_POINT('Ctrl Pts',(-0.5,0.,25.));
#119=CARTESIAN_POINT('Ctrl Pts',(-0.5,-0.5,25.));
#120=CARTESIAN_POINT('Ctrl Pts',(0.,-0.5,25.));
#121=CARTESIAN_POINT('Ctrl Pts',(0.5,-0.5,25.));
#122=CARTESIAN_POINT('Ctrl Pts',(0.5,0.,25.));
#123=CARTESIAN_POINT('Ctrl Pts',(0.5,0.5,25.));
#124=CARTESIAN_POINT('Ctrl Pts',(0.,0.5,25.));
#125=CARTESIAN_POINT('Ctrl Pts',(-0.5,0.5,25.));
#126=CARTESIAN_POINT('Ctrl Pts',(-0.5,0.,25.));
#127=CARTESIAN_POINT('',(-0.5,-6.12323399573677E-17,25.));
#128=CARTESIAN_POINT('Origin',(0.,0.,25.));
#129=CARTESIAN_POINT('',(-1.5,-1.83697019872103E-16,24.));
#130=CARTESIAN_POINT('Origin',(-0.5,-6.12323399573677E-17,24.));
#131=CARTESIAN_POINT('Origin',(0.,0.,24.));
#132=CARTESIAN_POINT('Origin',(0.,0.,0.));
#133=CARTESIAN_POINT('',(-1.5,-1.83697019872103E-16,-25.));
#134=CARTESIAN_POINT('',(-1.5,-1.83697019872103E-16,0.));
#135=CARTESIAN_POINT('Origin',(0.,0.,-25.));
#136=CARTESIAN_POINT('Origin',(0.,0.,25.));
#137=CARTESIAN_POINT('Origin',(0.,0.,-25.));
#138=UNCERTAINTY_MEASURE_WITH_UNIT(LENGTH_MEASURE(0.01),#142,
'DISTANCE_ACCURACY_VALUE',
'Maximum model space distance between geometric entities at asserted c
onnectivities');
#139=UNCERTAINTY_MEASURE_WITH_UNIT(LENGTH_MEASURE(0.01),#142,
'DISTANCE_ACCURACY_VALUE',
'Maximum model space distance between geometric entities at asserted c
onnectivities');
#140=(
GEOMETRIC_REPRESENTATION_CONTEXT(3)
GLOBAL_UNCERTAINTY_ASSIGNED_CONTEXT((#138))
GLOBAL_UNIT_ASSIGNED_CONTEXT((#142,#144,#145))
REPRESENTATION_CONTEXT('','3D')
);
#141=(
GEOMETRIC_REPRESENTATION_CONTEXT(3)
GLOBAL_UNCERTAINTY_ASSIGNED_CONTEXT((#139))
GLOBAL_UNIT_ASSIGNED_CONTEXT((#142,#144,#145))
REPRESENTATION_CONTEXT('','3D')
);
#142=(
LENGTH_UNIT()
NAMED_UNIT(*)
SI_UNIT(.MILLI.,.METRE.)
);
#143=(
LENGTH_UNIT()
NAMED_UNIT(*)
SI_UNIT(.CENTI.,.METRE.)
);
#144=(
NAMED_UNIT(*)
PLANE_ANGLE_UNIT()
SI_UNIT($,.RADIAN.)
);
#145=(
NAMED_UNIT(*)
SI_UNIT($,.STERADIAN.)
SOLID_ANGLE_UNIT()
);
#146=SHAPE_DEFINITION_REPRESENTATION(#147,#148);
#147=PRODUCT_DEFINITION_SHAPE('',$,#150);
#148=SHAPE_REPRESENTATION('',(#74),#140);
#149=PRODUCT_DEFINITION_CONTEXT('part definition',#154,'design');
#150=PRODUCT_DEFINITION('Domed End Rod 40mm','Domed End Rod 40mm',#151,
#149);
#151=PRODUCT_DEFINITION_FORMATION('',$,#156);
#152=PRODUCT_RELATED_PRODUCT_CATEGORY('Domed End Rod 40mm',
'Domed End Rod 40mm',(#156));
#153=APPLICATION_PROTOCOL_DEFINITION('international standard',
'automotive_design',2009,#154);
#154=APPLICATION_CONTEXT(
'Core Data for Automotive Mechanical Design Process');
#155=PRODUCT_CONTEXT('part definition',#154,'mechanical');
#156=PRODUCT('Domed End Rod 40mm','Domed End Rod 40mm',$,(#155));
#157=PRESENTATION_STYLE_ASSIGNMENT((#158));
#158=SURFACE_STYLE_USAGE(.BOTH.,#161);
#159=SURFACE_STYLE_RENDERING_WITH_PROPERTIES($,#165,(#160));
#160=SURFACE_STYLE_TRANSPARENT(0.);
#161=SURFACE_SIDE_STYLE('',(#162,#159));
#162=SURFACE_STYLE_FILL_AREA(#163);
#163=FILL_AREA_STYLE('',(#164));
#164=FILL_AREA_STYLE_COLOUR('',#165);
#165=COLOUR_RGB('',0.643137254901961,0.52156862745098,0.384313725490196);
ENDSEC;
END-ISO-10303-21;
