ISO-10303-21;
HEADER;
/* Generated by software containing ST-Developer
 * from STEP Tools, Inc. (www.steptools.com) 
 */

FILE_DESCRIPTION(
/* description */ ('Exported via iLogic'),
/* implementation_level */ '2;1');

FILE_NAME(
/* name */ 
'S:\\Future Scope 1\\WIP\\Client Category\\Tom\\02 Progressive Work\\H
ardware\\Grub Screw 5x12mm.stp',
/* time_stamp */ '2025-10-28T18:05:24+06:00',
/* author */ ('iLogic Export'),
/* organization */ (''),
/* preprocessor_version */ 'ST-DEVELOPER v18.1',
/* originating_system */ 'Autodesk Inventor 2021',
/* authorisation */ '');

FILE_SCHEMA (('CONFIG_CONTROL_DESIGN'));
ENDSEC;

DATA;
#10=MECHANICAL_DESIGN_GEOMETRIC_PRESENTATION_REPRESENTATION('',(#13),#388);
#11=SHAPE_REPRESENTATION_RELATIONSHIP('SRR','None',#395,#12);
#12=ADVANCED_BREP_SHAPE_REPRESENTATION('',(#14),#387);
#13=STYLED_ITEM('',(#404),#14);
#14=MANIFOLD_SOLID_BREP('Solid1',#217);
#15=FACE_BOUND('',#54,.T.);
#16=(
BOUNDED_CURVE()
B_SPLINE_CURVE(2,(#328,#329,#330),.UNSPECIFIED.,.F.,.F.)
B_SPLINE_CURVE_WITH_KNOTS((3,3),(0.,0.188822248183373),.UNSPECIFIED.)
CURVE()
GEOMETRIC_REPRESENTATION_ITEM()
RATIONAL_B_SPLINE_CURVE((1.,1.15470053837917,1.))
REPRESENTATION_ITEM('')
);
#17=(
BOUNDED_CURVE()
B_SPLINE_CURVE(2,(#338,#339,#340),.UNSPECIFIED.,.F.,.F.)
B_SPLINE_CURVE_WITH_KNOTS((3,3),(0.,0.0944111240916847),.UNSPECIFIED.)
CURVE()
GEOMETRIC_REPRESENTATION_ITEM()
RATIONAL_B_SPLINE_CURVE((1.,1.07735026918963,1.07735026918963))
REPRESENTATION_ITEM('')
);
#18=(
BOUNDED_CURVE()
B_SPLINE_CURVE(2,(#345,#346,#347),.UNSPECIFIED.,.F.,.F.)
B_SPLINE_CURVE_WITH_KNOTS((3,3),(0.0944111240916847,0.18882224818337),
 .UNSPECIFIED.)
CURVE()
GEOMETRIC_REPRESENTATION_ITEM()
RATIONAL_B_SPLINE_CURVE((1.07735026918963,1.07735026918963,1.))
REPRESENTATION_ITEM('')
);
#19=(
BOUNDED_CURVE()
B_SPLINE_CURVE(2,(#350,#351,#352),.UNSPECIFIED.,.F.,.F.)
B_SPLINE_CURVE_WITH_KNOTS((3,3),(0.,0.188822248183373),.UNSPECIFIED.)
CURVE()
GEOMETRIC_REPRESENTATION_ITEM()
RATIONAL_B_SPLINE_CURVE((1.,1.15470053837924,1.))
REPRESENTATION_ITEM('')
);
#20=(
BOUNDED_CURVE()
B_SPLINE_CURVE(2,(#358,#359,#360),.UNSPECIFIED.,.F.,.F.)
B_SPLINE_CURVE_WITH_KNOTS((3,3),(0.,0.18882224818337),.UNSPECIFIED.)
CURVE()
GEOMETRIC_REPRESENTATION_ITEM()
RATIONAL_B_SPLINE_CURVE((1.,1.15470053837923,1.))
REPRESENTATION_ITEM('')
);
#21=(
BOUNDED_CURVE()
B_SPLINE_CURVE(2,(#366,#367,#368),.UNSPECIFIED.,.F.,.F.)
B_SPLINE_CURVE_WITH_KNOTS((3,3),(0.,0.188822248183373),.UNSPECIFIED.)
CURVE()
GEOMETRIC_REPRESENTATION_ITEM()
RATIONAL_B_SPLINE_CURVE((1.,1.15470053837924,1.))
REPRESENTATION_ITEM('')
);
#22=(
BOUNDED_CURVE()
B_SPLINE_CURVE(2,(#373,#374,#375),.UNSPECIFIED.,.F.,.F.)
B_SPLINE_CURVE_WITH_KNOTS((3,3),(0.,0.188822248183373),.UNSPECIFIED.)
CURVE()
GEOMETRIC_REPRESENTATION_ITEM()
RATIONAL_B_SPLINE_CURVE((1.,1.15470053837924,1.))
REPRESENTATION_ITEM('')
);
#23=PLANE('',#244);
#24=PLANE('',#245);
#25=PLANE('',#246);
#26=PLANE('',#247);
#27=PLANE('',#248);
#28=PLANE('',#249);
#29=PLANE('',#250);
#30=PLANE('',#251);
#31=CYLINDRICAL_SURFACE('',#241,2.5);
#32=FACE_OUTER_BOUND('',#44,.T.);
#33=FACE_OUTER_BOUND('',#45,.T.);
#34=FACE_OUTER_BOUND('',#46,.T.);
#35=FACE_OUTER_BOUND('',#47,.T.);
#36=FACE_OUTER_BOUND('',#48,.T.);
#37=FACE_OUTER_BOUND('',#49,.T.);
#38=FACE_OUTER_BOUND('',#50,.T.);
#39=FACE_OUTER_BOUND('',#51,.T.);
#40=FACE_OUTER_BOUND('',#52,.T.);
#41=FACE_OUTER_BOUND('',#53,.T.);
#42=FACE_OUTER_BOUND('',#55,.T.);
#43=FACE_OUTER_BOUND('',#56,.T.);
#44=EDGE_LOOP('',(#144,#145,#146,#147,#148));
#45=EDGE_LOOP('',(#149,#150,#151,#152,#153,#154));
#46=EDGE_LOOP('',(#155));
#47=EDGE_LOOP('',(#156,#157,#158,#159));
#48=EDGE_LOOP('',(#160,#161,#162,#163,#164));
#49=EDGE_LOOP('',(#165,#166,#167,#168));
#50=EDGE_LOOP('',(#169,#170,#171,#172));
#51=EDGE_LOOP('',(#173,#174,#175,#176));
#52=EDGE_LOOP('',(#177,#178,#179,#180));
#53=EDGE_LOOP('',(#181));
#54=EDGE_LOOP('',(#182,#183,#184,#185,#186,#187));
#55=EDGE_LOOP('',(#188,#189,#190,#191,#192));
#56=EDGE_LOOP('',(#193,#194,#195,#196,#197,#198,#199,#200,#201));
#57=LINE('',#316,#73);
#58=LINE('',#323,#74);
#59=LINE('',#332,#75);
#60=LINE('',#334,#76);
#61=LINE('',#335,#77);
#62=LINE('',#342,#78);
#63=LINE('',#344,#79);
#64=LINE('',#354,#80);
#65=LINE('',#355,#81);
#66=LINE('',#362,#82);
#67=LINE('',#363,#83);
#68=LINE('',#370,#84);
#69=LINE('',#371,#85);
#70=LINE('',#376,#86);
#71=LINE('',#381,#87);
#72=LINE('',#384,#88);
#73=VECTOR('',#263,2.23436835802422);
#74=VECTOR('',#272,2.5);
#75=VECTOR('',#277,10.);
#76=VECTOR('',#278,10.);
#77=VECTOR('',#279,10.);
#78=VECTOR('',#282,10.);
#79=VECTOR('',#283,10.);
#80=VECTOR('',#286,10.);
#81=VECTOR('',#287,10.);
#82=VECTOR('',#290,10.);
#83=VECTOR('',#291,10.);
#84=VECTOR('',#294,10.);
#85=VECTOR('',#295,10.);
#86=VECTOR('',#298,10.);
#87=VECTOR('',#305,2.3466375);
#88=VECTOR('',#308,0.933012701892217);
#89=CIRCLE('',#238,2.5);
#90=CIRCLE('',#239,2.5);
#91=CIRCLE('',#240,1.96873671604844);
#92=CIRCLE('',#242,2.5);
#93=CIRCLE('',#243,2.5);
#94=CIRCLE('',#252,2.193275);
#95=VERTEX_POINT('',#311);
#96=VERTEX_POINT('',#312);
#97=VERTEX_POINT('',#315);
#98=VERTEX_POINT('',#319);
#99=VERTEX_POINT('',#320);
#100=VERTEX_POINT('',#326);
#101=VERTEX_POINT('',#327);
#102=VERTEX_POINT('',#331);
#103=VERTEX_POINT('',#333);
#104=VERTEX_POINT('',#337);
#105=VERTEX_POINT('',#341);
#106=VERTEX_POINT('',#343);
#107=VERTEX_POINT('',#349);
#108=VERTEX_POINT('',#353);
#109=VERTEX_POINT('',#357);
#110=VERTEX_POINT('',#361);
#111=VERTEX_POINT('',#365);
#112=VERTEX_POINT('',#369);
#113=VERTEX_POINT('',#378);
#114=VERTEX_POINT('',#383);
#115=EDGE_CURVE('',#95,#96,#89,.T.);
#116=EDGE_CURVE('',#96,#95,#90,.T.);
#117=EDGE_CURVE('',#95,#97,#57,.T.);
#118=EDGE_CURVE('',#97,#97,#91,.T.);
#119=EDGE_CURVE('',#98,#99,#92,.T.);
#120=EDGE_CURVE('',#99,#98,#93,.T.);
#121=EDGE_CURVE('',#99,#96,#58,.T.);
#122=EDGE_CURVE('',#100,#101,#16,.T.);
#123=EDGE_CURVE('',#100,#102,#59,.T.);
#124=EDGE_CURVE('',#103,#102,#60,.T.);
#125=EDGE_CURVE('',#101,#103,#61,.T.);
#126=EDGE_CURVE('',#101,#104,#17,.T.);
#127=EDGE_CURVE('',#105,#103,#62,.T.);
#128=EDGE_CURVE('',#106,#105,#63,.T.);
#129=EDGE_CURVE('',#104,#106,#18,.T.);
#130=EDGE_CURVE('',#107,#100,#19,.T.);
#131=EDGE_CURVE('',#108,#107,#64,.T.);
#132=EDGE_CURVE('',#102,#108,#65,.T.);
#133=EDGE_CURVE('',#106,#109,#20,.T.);
#134=EDGE_CURVE('',#110,#105,#66,.T.);
#135=EDGE_CURVE('',#109,#110,#67,.T.);
#136=EDGE_CURVE('',#111,#107,#21,.T.);
#137=EDGE_CURVE('',#111,#112,#68,.T.);
#138=EDGE_CURVE('',#108,#112,#69,.T.);
#139=EDGE_CURVE('',#109,#111,#22,.T.);
#140=EDGE_CURVE('',#112,#110,#70,.T.);
#141=EDGE_CURVE('',#113,#113,#94,.T.);
#142=EDGE_CURVE('',#113,#98,#71,.T.);
#143=EDGE_CURVE('',#104,#114,#72,.T.);
#144=ORIENTED_EDGE('',*,*,#115,.T.);
#145=ORIENTED_EDGE('',*,*,#116,.T.);
#146=ORIENTED_EDGE('',*,*,#117,.T.);
#147=ORIENTED_EDGE('',*,*,#118,.T.);
#148=ORIENTED_EDGE('',*,*,#117,.F.);
#149=ORIENTED_EDGE('',*,*,#119,.F.);
#150=ORIENTED_EDGE('',*,*,#120,.F.);
#151=ORIENTED_EDGE('',*,*,#121,.T.);
#152=ORIENTED_EDGE('',*,*,#115,.F.);
#153=ORIENTED_EDGE('',*,*,#116,.F.);
#154=ORIENTED_EDGE('',*,*,#121,.F.);
#155=ORIENTED_EDGE('',*,*,#118,.F.);
#156=ORIENTED_EDGE('',*,*,#122,.F.);
#157=ORIENTED_EDGE('',*,*,#123,.T.);
#158=ORIENTED_EDGE('',*,*,#124,.F.);
#159=ORIENTED_EDGE('',*,*,#125,.F.);
#160=ORIENTED_EDGE('',*,*,#126,.F.);
#161=ORIENTED_EDGE('',*,*,#125,.T.);
#162=ORIENTED_EDGE('',*,*,#127,.F.);
#163=ORIENTED_EDGE('',*,*,#128,.F.);
#164=ORIENTED_EDGE('',*,*,#129,.F.);
#165=ORIENTED_EDGE('',*,*,#130,.F.);
#166=ORIENTED_EDGE('',*,*,#131,.F.);
#167=ORIENTED_EDGE('',*,*,#132,.F.);
#168=ORIENTED_EDGE('',*,*,#123,.F.);
#169=ORIENTED_EDGE('',*,*,#133,.F.);
#170=ORIENTED_EDGE('',*,*,#128,.T.);
#171=ORIENTED_EDGE('',*,*,#134,.F.);
#172=ORIENTED_EDGE('',*,*,#135,.F.);
#173=ORIENTED_EDGE('',*,*,#136,.F.);
#174=ORIENTED_EDGE('',*,*,#137,.T.);
#175=ORIENTED_EDGE('',*,*,#138,.F.);
#176=ORIENTED_EDGE('',*,*,#131,.T.);
#177=ORIENTED_EDGE('',*,*,#139,.F.);
#178=ORIENTED_EDGE('',*,*,#135,.T.);
#179=ORIENTED_EDGE('',*,*,#140,.F.);
#180=ORIENTED_EDGE('',*,*,#137,.F.);
#181=ORIENTED_EDGE('',*,*,#141,.F.);
#182=ORIENTED_EDGE('',*,*,#138,.T.);
#183=ORIENTED_EDGE('',*,*,#140,.T.);
#184=ORIENTED_EDGE('',*,*,#134,.T.);
#185=ORIENTED_EDGE('',*,*,#127,.T.);
#186=ORIENTED_EDGE('',*,*,#124,.T.);
#187=ORIENTED_EDGE('',*,*,#132,.T.);
#188=ORIENTED_EDGE('',*,*,#141,.T.);
#189=ORIENTED_EDGE('',*,*,#142,.T.);
#190=ORIENTED_EDGE('',*,*,#119,.T.);
#191=ORIENTED_EDGE('',*,*,#120,.T.);
#192=ORIENTED_EDGE('',*,*,#142,.F.);
#193=ORIENTED_EDGE('',*,*,#136,.T.);
#194=ORIENTED_EDGE('',*,*,#130,.T.);
#195=ORIENTED_EDGE('',*,*,#122,.T.);
#196=ORIENTED_EDGE('',*,*,#126,.T.);
#197=ORIENTED_EDGE('',*,*,#143,.T.);
#198=ORIENTED_EDGE('',*,*,#143,.F.);
#199=ORIENTED_EDGE('',*,*,#129,.T.);
#200=ORIENTED_EDGE('',*,*,#133,.T.);
#201=ORIENTED_EDGE('',*,*,#139,.T.);
#202=CONICAL_SURFACE('',#237,2.23436835802422,1.0471975511966);
#203=CONICAL_SURFACE('',#253,2.3466375,0.523598775598299);
#204=CONICAL_SURFACE('',#254,0.933012701892217,1.0471975511966);
#205=ADVANCED_FACE('',(#32),#202,.T.);
#206=ADVANCED_FACE('',(#33),#31,.T.);
#207=ADVANCED_FACE('',(#34),#23,.T.);
#208=ADVANCED_FACE('',(#35),#24,.F.);
#209=ADVANCED_FACE('',(#36),#25,.F.);
#210=ADVANCED_FACE('',(#37),#26,.F.);
#211=ADVANCED_FACE('',(#38),#27,.F.);
#212=ADVANCED_FACE('',(#39),#28,.F.);
#213=ADVANCED_FACE('',(#40),#29,.F.);
#214=ADVANCED_FACE('',(#41,#15),#30,.F.);
#215=ADVANCED_FACE('',(#42),#203,.T.);
#216=ADVANCED_FACE('',(#43),#204,.F.);
#217=CLOSED_SHELL('',(#205,#206,#207,#208,#209,#210,#211,#212,#213,#214,
#215,#216));
#218=DERIVED_UNIT_ELEMENT(#220,1.);
#219=DERIVED_UNIT_ELEMENT(#390,3.);
#220=(
MASS_UNIT()
NAMED_UNIT(*)
SI_UNIT($,.GRAM.)
);
#221=DERIVED_UNIT((#218,#219));
#222=MEASURE_REPRESENTATION_ITEM('density measure',
POSITIVE_RATIO_MEASURE(7.75),#221);
#223=PROPERTY_DEFINITION_REPRESENTATION(#228,#225);
#224=PROPERTY_DEFINITION_REPRESENTATION(#229,#226);
#225=REPRESENTATION('material name',(#227),#387);
#226=REPRESENTATION('density',(#222),#387);
#227=DESCRIPTIVE_REPRESENTATION_ITEM('Stainless Steel, 440C',
'Stainless Steel, 440C');
#228=PROPERTY_DEFINITION('material property','material name',#397);
#229=PROPERTY_DEFINITION('material property','density of part',#397);
#230=DATE_TIME_ROLE('creation_date');
#231=CC_DESIGN_DATE_AND_TIME_ASSIGNMENT(#232,#230,(#397));
#232=DATE_AND_TIME(#233,#234);
#233=CALENDAR_DATE(2020,21,1);
#234=LOCAL_TIME(0,0,0.,#235);
#235=COORDINATED_UNIVERSAL_TIME_OFFSET(0,0,.BEHIND.);
#236=AXIS2_PLACEMENT_3D('placement',#309,#255,#256);
#237=AXIS2_PLACEMENT_3D('',#310,#257,#258);
#238=AXIS2_PLACEMENT_3D('',#313,#259,#260);
#239=AXIS2_PLACEMENT_3D('',#314,#261,#262);
#240=AXIS2_PLACEMENT_3D('',#317,#264,#265);
#241=AXIS2_PLACEMENT_3D('',#318,#266,#267);
#242=AXIS2_PLACEMENT_3D('',#321,#268,#269);
#243=AXIS2_PLACEMENT_3D('',#322,#270,#271);
#244=AXIS2_PLACEMENT_3D('',#324,#273,#274);
#245=AXIS2_PLACEMENT_3D('',#325,#275,#276);
#246=AXIS2_PLACEMENT_3D('',#336,#280,#281);
#247=AXIS2_PLACEMENT_3D('',#348,#284,#285);
#248=AXIS2_PLACEMENT_3D('',#356,#288,#289);
#249=AXIS2_PLACEMENT_3D('',#364,#292,#293);
#250=AXIS2_PLACEMENT_3D('',#372,#296,#297);
#251=AXIS2_PLACEMENT_3D('',#377,#299,#300);
#252=AXIS2_PLACEMENT_3D('',#379,#301,#302);
#253=AXIS2_PLACEMENT_3D('',#380,#303,#304);
#254=AXIS2_PLACEMENT_3D('',#382,#306,#307);
#255=DIRECTION('axis',(0.,0.,1.));
#256=DIRECTION('refdir',(1.,0.,0.));
#257=DIRECTION('center_axis',(1.,5.8807513744949E-17,0.));
#258=DIRECTION('ref_axis',(5.89043444877632E-17,-1.,0.));
#259=DIRECTION('center_axis',(-1.,-5.8807513744949E-17,0.));
#260=DIRECTION('ref_axis',(5.89805981832115E-17,-1.,0.));
#261=DIRECTION('center_axis',(-1.,-5.8807513744949E-17,0.));
#262=DIRECTION('ref_axis',(5.89805981832115E-17,-1.,0.));
#263=DIRECTION('',(-0.5,-0.866025403784439,-1.06057523872491E-16));
#264=DIRECTION('center_axis',(1.,5.8807513744949E-17,0.));
#265=DIRECTION('ref_axis',(5.8807513744949E-17,-1.,0.));
#266=DIRECTION('center_axis',(1.,5.8807513744949E-17,0.));
#267=DIRECTION('ref_axis',(-5.89805981832115E-17,1.,0.));
#268=DIRECTION('center_axis',(1.,5.8807513744949E-17,0.));
#269=DIRECTION('ref_axis',(5.89805981832115E-17,-1.,0.));
#270=DIRECTION('center_axis',(1.,5.8807513744949E-17,0.));
#271=DIRECTION('ref_axis',(5.89805981832115E-17,-1.,0.));
#272=DIRECTION('',(-1.,-5.8807513744949E-17,0.));
#273=DIRECTION('center_axis',(-1.,-5.8807513744949E-17,0.));
#274=DIRECTION('ref_axis',(0.,0.,1.));
#275=DIRECTION('center_axis',(3.083952846181E-17,-0.500000000000002,0.866025403784438));
#276=DIRECTION('ref_axis',(1.,0.,-3.56104201182143E-17));
#277=DIRECTION('',(1.,5.8807513744949E-17,0.));
#278=DIRECTION('',(-5.09288008365283E-17,0.866025403784438,0.500000000000002));
#279=DIRECTION('',(1.,5.8807513744949E-17,0.));
#280=DIRECTION('center_axis',(6.16790569236198E-17,-1.,-1.48741681433375E-15));
#281=DIRECTION('ref_axis',(0.,1.48741681433375E-15,-1.));
#282=DIRECTION('',(8.74712847534002E-32,-1.48741681433375E-15,1.));
#283=DIRECTION('',(1.,5.8807513744949E-17,0.));
#284=DIRECTION('center_axis',(-3.08395284618098E-17,0.499999999999999,0.866025403784439));
#285=DIRECTION('ref_axis',(1.,0.,3.5610420118214E-17));
#286=DIRECTION('',(-1.,-5.8807513744949E-17,0.));
#287=DIRECTION('',(-5.09288008365284E-17,0.866025403784439,-0.499999999999999));
#288=DIRECTION('center_axis',(3.08395284618098E-17,-0.499999999999999,-0.866025403784439));
#289=DIRECTION('ref_axis',(-1.,0.,-3.5610420118214E-17));
#290=DIRECTION('',(5.09288008365284E-17,-0.866025403784439,0.499999999999999));
#291=DIRECTION('',(1.,5.8807513744949E-17,0.));
#292=DIRECTION('center_axis',(-6.16790569236198E-17,1.,1.33867513290038E-15));
#293=DIRECTION('ref_axis',(0.,-1.33867513290038E-15,1.));
#294=DIRECTION('',(1.,5.8807513744949E-17,0.));
#295=DIRECTION('',(-7.87241562780602E-32,1.33867513290038E-15,-1.));
#296=DIRECTION('center_axis',(-3.083952846181E-17,0.500000000000001,-0.866025403784438));
#297=DIRECTION('ref_axis',(-1.,0.,3.56104201182143E-17));
#298=DIRECTION('',(5.09288008365283E-17,-0.866025403784438,-0.500000000000001));
#299=DIRECTION('center_axis',(-1.,-5.8807513744949E-17,0.));
#300=DIRECTION('ref_axis',(0.,0.,1.));
#301=DIRECTION('center_axis',(-1.,-5.8807513744949E-17,0.));
#302=DIRECTION('ref_axis',(5.8807513744949E-17,-1.,0.));
#303=DIRECTION('center_axis',(-1.,-5.8807513744949E-17,0.));
#304=DIRECTION('ref_axis',(5.88997118572813E-17,-1.,0.));
#305=DIRECTION('',(-0.866025403784438,0.5,6.12323399573677E-17));
#306=DIRECTION('center_axis',(1.,5.8807513744949E-17,0.));
#307=DIRECTION('ref_axis',(-5.89805981832115E-17,1.,0.));
#308=DIRECTION('',(-0.5,0.866025403784438,1.06057523872491E-16));
#309=CARTESIAN_POINT('',(0.,0.,0.));
#310=CARTESIAN_POINT('Origin',(0.1533625,9.01886732670971E-18,0.));
#311=CARTESIAN_POINT('',(0.306725,2.5,-3.06161699786838E-16));
#312=CARTESIAN_POINT('',(0.306725,-2.5,-3.06161699786838E-16));
#313=CARTESIAN_POINT('Origin',(0.306725,1.80377346534194E-17,0.));
#314=CARTESIAN_POINT('Origin',(0.306725,1.80377346534194E-17,0.));
#315=CARTESIAN_POINT('',(-4.63875724501318E-17,1.96873671604844,2.41100711767259E-16));
#316=CARTESIAN_POINT('',(0.1533625,2.23436835802422,2.73631205777049E-16));
#317=CARTESIAN_POINT('Origin',(6.93889390390723E-17,-2.69630192214213E-32,
0.));
#318=CARTESIAN_POINT('Origin',(6.,3.52845082469694E-16,0.));
#319=CARTESIAN_POINT('',(11.4687367160484,2.5,3.06161699786838E-16));
#320=CARTESIAN_POINT('',(11.4687367160484,-2.5,-3.06161699786838E-16));
#321=CARTESIAN_POINT('Origin',(11.4687367160484,6.7444789206622E-16,0.));
#322=CARTESIAN_POINT('Origin',(11.4687367160484,6.7444789206622E-16,0.));
#323=CARTESIAN_POINT('',(6.,-2.5,-3.06161699786838E-16));
#324=CARTESIAN_POINT('Origin',(0.,1.25,0.));
#325=CARTESIAN_POINT('Origin',(12.,-2.55558996989701E-15,1.86602540378443));
#326=CARTESIAN_POINT('',(10.8,-2.22044604925031E-15,1.86602540378443));
#327=CARTESIAN_POINT('',(10.8,-1.61602540378444,0.933012701892214));
#328=CARTESIAN_POINT('Ctrl Pts',(10.8,1.23345778035855E-14,1.86602540378444));
#329=CARTESIAN_POINT('Ctrl Pts',(10.5306624327026,-0.80801270189222,1.39951905283832));
#330=CARTESIAN_POINT('Ctrl Pts',(10.8,-1.61602540378445,0.933012701892205));
#331=CARTESIAN_POINT('',(12.,-2.55558996989701E-15,1.86602540378443));
#332=CARTESIAN_POINT('',(11.4,-2.22044604925031E-15,1.86602540378443));
#333=CARTESIAN_POINT('',(12.,-1.61602540378443,0.933012701892214));
#334=CARTESIAN_POINT('',(12.,-0.404006350946111,1.63277222831138));
#335=CARTESIAN_POINT('',(11.4,-1.61602540378444,0.933012701892214));
#336=CARTESIAN_POINT('Origin',(12.,-1.61602540378443,0.933012701892214));
#337=CARTESIAN_POINT('',(10.6556624327026,-1.61602540378443,-1.79461813606092E-16));
#338=CARTESIAN_POINT('Ctrl Pts',(10.8,-1.61602540378443,0.933012701892217));
#339=CARTESIAN_POINT('Ctrl Pts',(10.6556624327026,-1.61602540378443,0.433012701892215));
#340=CARTESIAN_POINT('Ctrl Pts',(10.6556624327026,-1.61602540378443,-1.61017593403642E-16));
#341=CARTESIAN_POINT('',(12.,-1.61602540378443,-0.933012701892219));
#342=CARTESIAN_POINT('',(12.,-1.61602540378443,0.466506350946106));
#343=CARTESIAN_POINT('',(10.8,-1.61602540378443,-0.933012701892219));
#344=CARTESIAN_POINT('',(11.4,-1.61602540378443,-0.93301270189222));
#345=CARTESIAN_POINT('Ctrl Pts',(10.6556624327026,-1.61602540378443,-1.61017593403642E-16));
#346=CARTESIAN_POINT('Ctrl Pts',(10.6556624327026,-1.61602540378443,-0.433012701892217));
#347=CARTESIAN_POINT('Ctrl Pts',(10.8,-1.61602540378443,-0.933012701892222));
#348=CARTESIAN_POINT('Origin',(12.,1.61602540378443,0.933012701892219));
#349=CARTESIAN_POINT('',(10.8,1.61602540378443,0.933012701892219));
#350=CARTESIAN_POINT('Ctrl Pts',(10.8,1.61602540378445,0.93301270189221));
#351=CARTESIAN_POINT('Ctrl Pts',(10.5306624327026,0.808012701892216,1.39951905283833));
#352=CARTESIAN_POINT('Ctrl Pts',(10.8,-1.72251102270594E-14,1.86602540378444));
#353=CARTESIAN_POINT('',(12.,1.61602540378443,0.933012701892219));
#354=CARTESIAN_POINT('',(11.4,1.61602540378443,0.933012701892219));
#355=CARTESIAN_POINT('',(12.,1.21201905283832,1.16626587736527));
#356=CARTESIAN_POINT('Origin',(12.,-1.61602540378443,-0.933012701892219));
#357=CARTESIAN_POINT('',(10.8,2.91433543964104E-15,-1.86602540378443));
#358=CARTESIAN_POINT('Ctrl Pts',(10.8,-1.61602540378443,-0.933012701892219));
#359=CARTESIAN_POINT('Ctrl Pts',(10.5306624327026,-0.808012701892214,-1.39951905283833));
#360=CARTESIAN_POINT('Ctrl Pts',(10.8,5.25690602160012E-15,-1.86602540378443));
#361=CARTESIAN_POINT('',(12.,9.34212368726613E-16,-1.86602540378443));
#362=CARTESIAN_POINT('',(12.,-1.21201905283832,-1.16626587736527));
#363=CARTESIAN_POINT('',(11.4,2.91433543964104E-15,-1.86602540378443));
#364=CARTESIAN_POINT('Origin',(12.,1.61602540378444,-0.933012701892215));
#365=CARTESIAN_POINT('',(10.8,1.61602540378444,-0.933012701892215));
#366=CARTESIAN_POINT('Ctrl Pts',(10.8,1.61602540378444,-0.933012701892231));
#367=CARTESIAN_POINT('Ctrl Pts',(10.5306624327026,1.61602540378444,2.35922392732846E-15));
#368=CARTESIAN_POINT('Ctrl Pts',(10.8,1.61602540378443,0.933012701892236));
#369=CARTESIAN_POINT('',(12.,1.61602540378444,-0.933012701892215));
#370=CARTESIAN_POINT('',(11.4,1.61602540378444,-0.933012701892215));
#371=CARTESIAN_POINT('',(12.,1.61602540378444,-0.466506350946106));
#372=CARTESIAN_POINT('Origin',(12.,3.27308090938506E-15,-1.86602540378443));
#373=CARTESIAN_POINT('Ctrl Pts',(10.8,-1.1118883591621E-14,-1.86602540378444));
#374=CARTESIAN_POINT('Ctrl Pts',(10.5306624327026,0.80801270189222,-1.39951905283832));
#375=CARTESIAN_POINT('Ctrl Pts',(10.8,1.61602540378445,-0.933012701892206));
#376=CARTESIAN_POINT('',(12.,0.404006350946112,-1.63277222831138));
#377=CARTESIAN_POINT('Origin',(12.,7.05690164939388E-16,0.));
#378=CARTESIAN_POINT('',(12.,2.193275,-2.68598720839991E-16));
#379=CARTESIAN_POINT('Origin',(12.,7.05690164939388E-16,0.));
#380=CARTESIAN_POINT('Origin',(11.7343683580242,6.90069028502804E-16,0.));
#381=CARTESIAN_POINT('',(11.7343683580242,2.3466375,2.87380210313415E-16));
#382=CARTESIAN_POINT('Origin',(10.2613248654052,6.03443003063702E-16,0.));
#383=CARTESIAN_POINT('',(9.72264973081038,5.71764857681956E-16,0.));
#384=CARTESIAN_POINT('',(10.2613248654052,-0.933012701892216,-1.14261101893613E-16));
#385=UNCERTAINTY_MEASURE_WITH_UNIT(LENGTH_MEASURE(0.01),#389,
'DISTANCE_ACCURACY_VALUE',
'Maximum model space distance between geometric entities at asserted c
onnectivities');
#386=UNCERTAINTY_MEASURE_WITH_UNIT(LENGTH_MEASURE(0.01),#389,
'DISTANCE_ACCURACY_VALUE',
'Maximum model space distance between geometric entities at asserted c
onnectivities');
#387=(
GEOMETRIC_REPRESENTATION_CONTEXT(3)
GLOBAL_UNCERTAINTY_ASSIGNED_CONTEXT((#385))
GLOBAL_UNIT_ASSIGNED_CONTEXT((#389,#391,#392))
REPRESENTATION_CONTEXT('','3D')
);
#388=(
GEOMETRIC_REPRESENTATION_CONTEXT(3)
GLOBAL_UNCERTAINTY_ASSIGNED_CONTEXT((#386))
GLOBAL_UNIT_ASSIGNED_CONTEXT((#389,#391,#392))
REPRESENTATION_CONTEXT('','3D')
);
#389=(
LENGTH_UNIT()
NAMED_UNIT(*)
SI_UNIT(.MILLI.,.METRE.)
);
#390=(
LENGTH_UNIT()
NAMED_UNIT(*)
SI_UNIT(.CENTI.,.METRE.)
);
#391=(
NAMED_UNIT(*)
PLANE_ANGLE_UNIT()
SI_UNIT($,.RADIAN.)
);
#392=(
NAMED_UNIT(*)
SI_UNIT($,.STERADIAN.)
SOLID_ANGLE_UNIT()
);
#393=SHAPE_DEFINITION_REPRESENTATION(#394,#395);
#394=PRODUCT_DEFINITION_SHAPE('',$,#397);
#395=SHAPE_REPRESENTATION('',(#236),#387);
#396=DESIGN_CONTEXT('part definition',#401,'design');
#397=PRODUCT_DEFINITION('Grub Screw 5x12mm','Grub Screw 5x12mm',#398,#396);
#398=PRODUCT_DEFINITION_FORMATION('',$,#403);
#399=PRODUCT_RELATED_PRODUCT_CATEGORY('Grub Screw 5x12mm',
'Grub Screw 5x12mm',(#403));
#400=APPLICATION_PROTOCOL_DEFINITION('international standard',
'ap203_configuration_controlled_3d_design_of_mechanical_parts_and_asse
mblies_mim_lf',2004,#401);
#401=APPLICATION_CONTEXT(
'Configuration Controlled 3D Design of Mechanical Parts and Assemblies');
#402=MECHANICAL_CONTEXT('part definition',#401,'mechanical');
#403=PRODUCT('Grub Screw 5x12mm','Grub Screw 5x12mm',$,(#402));
#404=PRESENTATION_STYLE_ASSIGNMENT((#405));
#405=SURFACE_STYLE_USAGE(.BOTH.,#408);
#406=SURFACE_STYLE_RENDERING_WITH_PROPERTIES($,#412,(#407));
#407=SURFACE_STYLE_TRANSPARENT(0.);
#408=SURFACE_SIDE_STYLE('',(#409,#406));
#409=SURFACE_STYLE_FILL_AREA(#410);
#410=FILL_AREA_STYLE('',(#411));
#411=FILL_AREA_STYLE_COLOUR('',#412);
#412=COLOUR_RGB('',0.745098039215686,0.737254901960784,0.729411764705882);
ENDSEC;
END-ISO-10303-21;
