ISO-10303-21;
HEADER;
/* Generated by software containing ST-Developer
 * from STEP Tools, Inc. (www.steptools.com) 
 */

FILE_DESCRIPTION(
/* description */ (''),
/* implementation_level */ '2;1');

FILE_NAME(
/* name */ 
'S:\\Future Scope 1\\WIP\\Client Category\\Tom\\02 Progressive Work\\L
ower Arm Brass Plate.stp',
/* time_stamp */ '2025-11-05T12:14:34+06:00',
/* author */ ('SD'),
/* organization */ (''),
/* preprocessor_version */ 'ST-DEVELOPER v18.1',
/* originating_system */ 'Autodesk Inventor 2021',
/* authorisation */ '');

FILE_SCHEMA (('AUTOMOTIVE_DESIGN { 1 0 10303 214 3 1 1 }'));
ENDSEC;

DATA;
#10=MECHANICAL_DESIGN_GEOMETRIC_PRESENTATION_REPRESENTATION('',(#13),#687);
#11=SHAPE_REPRESENTATION_RELATIONSHIP('SRR','None',#694,#12);
#12=ADVANCED_BREP_SHAPE_REPRESENTATION('',(#14),#686);
#13=STYLED_ITEM('',(#703),#14);
#14=MANIFOLD_SOLID_BREP('Solid1',#393);
#15=FACE_BOUND('',#90,.T.);
#16=FACE_BOUND('',#91,.T.);
#17=FACE_BOUND('',#92,.T.);
#18=FACE_BOUND('',#94,.T.);
#19=FACE_BOUND('',#95,.T.);
#20=FACE_BOUND('',#96,.T.);
#21=FACE_BOUND('',#102,.T.);
#22=CYLINDRICAL_SURFACE('',#429,5.);
#23=CYLINDRICAL_SURFACE('',#432,5.);
#24=CYLINDRICAL_SURFACE('',#445,5.);
#25=CYLINDRICAL_SURFACE('',#447,5.);
#26=CYLINDRICAL_SURFACE('',#448,3.5);
#27=CYLINDRICAL_SURFACE('',#452,4.5);
#28=CYLINDRICAL_SURFACE('',#453,4.5);
#29=CYLINDRICAL_SURFACE('',#454,2.);
#30=CIRCLE('',#415,5.);
#31=CIRCLE('',#416,4.5);
#32=CIRCLE('',#419,5.);
#33=CIRCLE('',#420,4.5);
#34=CIRCLE('',#423,5.);
#35=CIRCLE('',#424,4.5);
#36=CIRCLE('',#427,5.);
#37=CIRCLE('',#428,4.5);
#38=CIRCLE('',#430,5.);
#39=CIRCLE('',#433,5.);
#40=CIRCLE('',#436,4.5);
#41=CIRCLE('',#437,4.5);
#42=CIRCLE('',#438,3.5);
#43=CIRCLE('',#440,5.);
#44=CIRCLE('',#441,5.);
#45=CIRCLE('',#442,4.5);
#46=CIRCLE('',#443,4.5);
#47=CIRCLE('',#444,2.);
#48=CIRCLE('',#449,3.5);
#49=CIRCLE('',#451,2.);
#50=CONICAL_SURFACE('',#414,4.75,0.78539816339745);
#51=CONICAL_SURFACE('',#418,4.75,0.78539816339745);
#52=CONICAL_SURFACE('',#422,4.75,0.78539816339745);
#53=CONICAL_SURFACE('',#426,4.75,0.785398163397448);
#54=FACE_OUTER_BOUND('',#77,.T.);
#55=FACE_OUTER_BOUND('',#78,.T.);
#56=FACE_OUTER_BOUND('',#79,.T.);
#57=FACE_OUTER_BOUND('',#80,.T.);
#58=FACE_OUTER_BOUND('',#81,.T.);
#59=FACE_OUTER_BOUND('',#82,.T.);
#60=FACE_OUTER_BOUND('',#83,.T.);
#61=FACE_OUTER_BOUND('',#84,.T.);
#62=FACE_OUTER_BOUND('',#85,.T.);
#63=FACE_OUTER_BOUND('',#86,.T.);
#64=FACE_OUTER_BOUND('',#87,.T.);
#65=FACE_OUTER_BOUND('',#88,.T.);
#66=FACE_OUTER_BOUND('',#89,.T.);
#67=FACE_OUTER_BOUND('',#93,.T.);
#68=FACE_OUTER_BOUND('',#97,.T.);
#69=FACE_OUTER_BOUND('',#98,.T.);
#70=FACE_OUTER_BOUND('',#99,.T.);
#71=FACE_OUTER_BOUND('',#100,.T.);
#72=FACE_OUTER_BOUND('',#101,.T.);
#73=FACE_OUTER_BOUND('',#103,.T.);
#74=FACE_OUTER_BOUND('',#104,.T.);
#75=FACE_OUTER_BOUND('',#105,.T.);
#76=FACE_OUTER_BOUND('',#106,.T.);
#77=EDGE_LOOP('',(#255,#256,#257,#258));
#78=EDGE_LOOP('',(#259,#260,#261,#262));
#79=EDGE_LOOP('',(#263,#264,#265,#266));
#80=EDGE_LOOP('',(#267,#268,#269,#270));
#81=EDGE_LOOP('',(#271,#272,#273,#274));
#82=EDGE_LOOP('',(#275,#276,#277,#278));
#83=EDGE_LOOP('',(#279,#280,#281,#282));
#84=EDGE_LOOP('',(#283,#284,#285,#286));
#85=EDGE_LOOP('',(#287,#288,#289,#290));
#86=EDGE_LOOP('',(#291,#292,#293,#294));
#87=EDGE_LOOP('',(#295,#296,#297,#298));
#88=EDGE_LOOP('',(#299,#300,#301,#302));
#89=EDGE_LOOP('',(#303,#304,#305,#306,#307,#308,#309,#310));
#90=EDGE_LOOP('',(#311));
#91=EDGE_LOOP('',(#312));
#92=EDGE_LOOP('',(#313));
#93=EDGE_LOOP('',(#314,#315,#316,#317,#318,#319,#320,#321));
#94=EDGE_LOOP('',(#322));
#95=EDGE_LOOP('',(#323));
#96=EDGE_LOOP('',(#324));
#97=EDGE_LOOP('',(#325,#326,#327,#328));
#98=EDGE_LOOP('',(#329,#330,#331,#332));
#99=EDGE_LOOP('',(#333,#334,#335,#336));
#100=EDGE_LOOP('',(#337,#338,#339,#340));
#101=EDGE_LOOP('',(#341));
#102=EDGE_LOOP('',(#342));
#103=EDGE_LOOP('',(#343,#344,#345,#346));
#104=EDGE_LOOP('',(#347,#348,#349,#350));
#105=EDGE_LOOP('',(#351,#352,#353,#354));
#106=EDGE_LOOP('',(#355,#356,#357,#358));
#107=LINE('',#580,#139);
#108=LINE('',#582,#140);
#109=LINE('',#584,#141);
#110=LINE('',#585,#142);
#111=LINE('',#590,#143);
#112=LINE('',#595,#144);
#113=LINE('',#596,#145);
#114=LINE('',#597,#146);
#115=LINE('',#602,#147);
#116=LINE('',#607,#148);
#117=LINE('',#608,#149);
#118=LINE('',#609,#150);
#119=LINE('',#614,#151);
#120=LINE('',#619,#152);
#121=LINE('',#620,#153);
#122=LINE('',#621,#154);
#123=LINE('',#627,#155);
#124=LINE('',#630,#156);
#125=LINE('',#633,#157);
#126=LINE('',#634,#158);
#127=LINE('',#637,#159);
#128=LINE('',#641,#160);
#129=LINE('',#642,#161);
#130=LINE('',#654,#162);
#131=LINE('',#657,#163);
#132=LINE('',#665,#164);
#133=LINE('',#666,#165);
#134=LINE('',#668,#166);
#135=LINE('',#672,#167);
#136=LINE('',#678,#168);
#137=LINE('',#680,#169);
#138=LINE('',#682,#170);
#139=VECTOR('',#460,10.);
#140=VECTOR('',#461,10.);
#141=VECTOR('',#462,10.);
#142=VECTOR('',#463,10.);
#143=VECTOR('',#468,10.);
#144=VECTOR('',#473,10.);
#145=VECTOR('',#474,10.);
#146=VECTOR('',#475,10.);
#147=VECTOR('',#480,10.);
#148=VECTOR('',#485,10.);
#149=VECTOR('',#486,10.);
#150=VECTOR('',#487,10.);
#151=VECTOR('',#492,10.);
#152=VECTOR('',#497,10.);
#153=VECTOR('',#498,10.);
#154=VECTOR('',#499,10.);
#155=VECTOR('',#508,10.);
#156=VECTOR('',#511,10.);
#157=VECTOR('',#514,10.);
#158=VECTOR('',#515,10.);
#159=VECTOR('',#518,10.);
#160=VECTOR('',#523,10.);
#161=VECTOR('',#524,10.);
#162=VECTOR('',#537,10.);
#163=VECTOR('',#540,10.);
#164=VECTOR('',#549,10.);
#165=VECTOR('',#550,10.);
#166=VECTOR('',#553,10.);
#167=VECTOR('',#558,3.5);
#168=VECTOR('',#567,4.5);
#169=VECTOR('',#570,4.5);
#170=VECTOR('',#573,2.);
#171=VERTEX_POINT('',#578);
#172=VERTEX_POINT('',#579);
#173=VERTEX_POINT('',#581);
#174=VERTEX_POINT('',#583);
#175=VERTEX_POINT('',#587);
#176=VERTEX_POINT('',#589);
#177=VERTEX_POINT('',#593);
#178=VERTEX_POINT('',#594);
#179=VERTEX_POINT('',#599);
#180=VERTEX_POINT('',#601);
#181=VERTEX_POINT('',#605);
#182=VERTEX_POINT('',#606);
#183=VERTEX_POINT('',#611);
#184=VERTEX_POINT('',#613);
#185=VERTEX_POINT('',#617);
#186=VERTEX_POINT('',#618);
#187=VERTEX_POINT('',#626);
#188=VERTEX_POINT('',#628);
#189=VERTEX_POINT('',#632);
#190=VERTEX_POINT('',#636);
#191=VERTEX_POINT('',#640);
#192=VERTEX_POINT('',#644);
#193=VERTEX_POINT('',#646);
#194=VERTEX_POINT('',#648);
#195=VERTEX_POINT('',#651);
#196=VERTEX_POINT('',#653);
#197=VERTEX_POINT('',#655);
#198=VERTEX_POINT('',#658);
#199=VERTEX_POINT('',#660);
#200=VERTEX_POINT('',#662);
#201=VERTEX_POINT('',#671);
#202=VERTEX_POINT('',#675);
#203=EDGE_CURVE('',#171,#172,#107,.T.);
#204=EDGE_CURVE('',#172,#173,#108,.T.);
#205=EDGE_CURVE('',#173,#174,#109,.T.);
#206=EDGE_CURVE('',#174,#171,#110,.T.);
#207=EDGE_CURVE('',#171,#175,#30,.T.);
#208=EDGE_CURVE('',#175,#176,#111,.T.);
#209=EDGE_CURVE('',#176,#172,#31,.T.);
#210=EDGE_CURVE('',#177,#178,#112,.T.);
#211=EDGE_CURVE('',#178,#176,#113,.T.);
#212=EDGE_CURVE('',#175,#177,#114,.T.);
#213=EDGE_CURVE('',#177,#179,#32,.T.);
#214=EDGE_CURVE('',#179,#180,#115,.T.);
#215=EDGE_CURVE('',#180,#178,#33,.T.);
#216=EDGE_CURVE('',#181,#182,#116,.T.);
#217=EDGE_CURVE('',#182,#180,#117,.T.);
#218=EDGE_CURVE('',#179,#181,#118,.T.);
#219=EDGE_CURVE('',#181,#183,#34,.T.);
#220=EDGE_CURVE('',#183,#184,#119,.T.);
#221=EDGE_CURVE('',#184,#182,#35,.T.);
#222=EDGE_CURVE('',#185,#186,#120,.T.);
#223=EDGE_CURVE('',#186,#184,#121,.T.);
#224=EDGE_CURVE('',#183,#185,#122,.T.);
#225=EDGE_CURVE('',#185,#174,#36,.T.);
#226=EDGE_CURVE('',#173,#186,#37,.T.);
#227=EDGE_CURVE('',#177,#187,#123,.T.);
#228=EDGE_CURVE('',#187,#188,#38,.T.);
#229=EDGE_CURVE('',#188,#179,#124,.T.);
#230=EDGE_CURVE('',#189,#175,#125,.T.);
#231=EDGE_CURVE('',#187,#189,#126,.T.);
#232=EDGE_CURVE('',#171,#190,#127,.T.);
#233=EDGE_CURVE('',#190,#189,#39,.T.);
#234=EDGE_CURVE('',#191,#174,#128,.T.);
#235=EDGE_CURVE('',#190,#191,#129,.T.);
#236=EDGE_CURVE('',#192,#192,#40,.T.);
#237=EDGE_CURVE('',#193,#193,#41,.T.);
#238=EDGE_CURVE('',#194,#194,#42,.T.);
#239=EDGE_CURVE('',#195,#191,#43,.T.);
#240=EDGE_CURVE('',#195,#196,#130,.T.);
#241=EDGE_CURVE('',#197,#196,#44,.T.);
#242=EDGE_CURVE('',#197,#188,#131,.T.);
#243=EDGE_CURVE('',#198,#198,#45,.T.);
#244=EDGE_CURVE('',#199,#199,#46,.T.);
#245=EDGE_CURVE('',#200,#200,#47,.T.);
#246=EDGE_CURVE('',#181,#197,#132,.T.);
#247=EDGE_CURVE('',#196,#183,#133,.T.);
#248=EDGE_CURVE('',#185,#195,#134,.T.);
#249=EDGE_CURVE('',#194,#201,#135,.T.);
#250=EDGE_CURVE('',#201,#201,#48,.T.);
#251=EDGE_CURVE('',#202,#202,#49,.T.);
#252=EDGE_CURVE('',#193,#198,#136,.T.);
#253=EDGE_CURVE('',#192,#199,#137,.T.);
#254=EDGE_CURVE('',#202,#200,#138,.T.);
#255=ORIENTED_EDGE('',*,*,#203,.T.);
#256=ORIENTED_EDGE('',*,*,#204,.T.);
#257=ORIENTED_EDGE('',*,*,#205,.T.);
#258=ORIENTED_EDGE('',*,*,#206,.T.);
#259=ORIENTED_EDGE('',*,*,#203,.F.);
#260=ORIENTED_EDGE('',*,*,#207,.T.);
#261=ORIENTED_EDGE('',*,*,#208,.T.);
#262=ORIENTED_EDGE('',*,*,#209,.T.);
#263=ORIENTED_EDGE('',*,*,#210,.T.);
#264=ORIENTED_EDGE('',*,*,#211,.T.);
#265=ORIENTED_EDGE('',*,*,#208,.F.);
#266=ORIENTED_EDGE('',*,*,#212,.T.);
#267=ORIENTED_EDGE('',*,*,#210,.F.);
#268=ORIENTED_EDGE('',*,*,#213,.T.);
#269=ORIENTED_EDGE('',*,*,#214,.T.);
#270=ORIENTED_EDGE('',*,*,#215,.T.);
#271=ORIENTED_EDGE('',*,*,#216,.T.);
#272=ORIENTED_EDGE('',*,*,#217,.T.);
#273=ORIENTED_EDGE('',*,*,#214,.F.);
#274=ORIENTED_EDGE('',*,*,#218,.T.);
#275=ORIENTED_EDGE('',*,*,#216,.F.);
#276=ORIENTED_EDGE('',*,*,#219,.T.);
#277=ORIENTED_EDGE('',*,*,#220,.T.);
#278=ORIENTED_EDGE('',*,*,#221,.T.);
#279=ORIENTED_EDGE('',*,*,#222,.T.);
#280=ORIENTED_EDGE('',*,*,#223,.T.);
#281=ORIENTED_EDGE('',*,*,#220,.F.);
#282=ORIENTED_EDGE('',*,*,#224,.T.);
#283=ORIENTED_EDGE('',*,*,#222,.F.);
#284=ORIENTED_EDGE('',*,*,#225,.T.);
#285=ORIENTED_EDGE('',*,*,#205,.F.);
#286=ORIENTED_EDGE('',*,*,#226,.T.);
#287=ORIENTED_EDGE('',*,*,#213,.F.);
#288=ORIENTED_EDGE('',*,*,#227,.T.);
#289=ORIENTED_EDGE('',*,*,#228,.T.);
#290=ORIENTED_EDGE('',*,*,#229,.T.);
#291=ORIENTED_EDGE('',*,*,#212,.F.);
#292=ORIENTED_EDGE('',*,*,#230,.F.);
#293=ORIENTED_EDGE('',*,*,#231,.F.);
#294=ORIENTED_EDGE('',*,*,#227,.F.);
#295=ORIENTED_EDGE('',*,*,#207,.F.);
#296=ORIENTED_EDGE('',*,*,#232,.T.);
#297=ORIENTED_EDGE('',*,*,#233,.T.);
#298=ORIENTED_EDGE('',*,*,#230,.T.);
#299=ORIENTED_EDGE('',*,*,#206,.F.);
#300=ORIENTED_EDGE('',*,*,#234,.F.);
#301=ORIENTED_EDGE('',*,*,#235,.F.);
#302=ORIENTED_EDGE('',*,*,#232,.F.);
#303=ORIENTED_EDGE('',*,*,#204,.F.);
#304=ORIENTED_EDGE('',*,*,#209,.F.);
#305=ORIENTED_EDGE('',*,*,#211,.F.);
#306=ORIENTED_EDGE('',*,*,#215,.F.);
#307=ORIENTED_EDGE('',*,*,#217,.F.);
#308=ORIENTED_EDGE('',*,*,#221,.F.);
#309=ORIENTED_EDGE('',*,*,#223,.F.);
#310=ORIENTED_EDGE('',*,*,#226,.F.);
#311=ORIENTED_EDGE('',*,*,#236,.T.);
#312=ORIENTED_EDGE('',*,*,#237,.T.);
#313=ORIENTED_EDGE('',*,*,#238,.T.);
#314=ORIENTED_EDGE('',*,*,#228,.F.);
#315=ORIENTED_EDGE('',*,*,#231,.T.);
#316=ORIENTED_EDGE('',*,*,#233,.F.);
#317=ORIENTED_EDGE('',*,*,#235,.T.);
#318=ORIENTED_EDGE('',*,*,#239,.F.);
#319=ORIENTED_EDGE('',*,*,#240,.T.);
#320=ORIENTED_EDGE('',*,*,#241,.F.);
#321=ORIENTED_EDGE('',*,*,#242,.T.);
#322=ORIENTED_EDGE('',*,*,#243,.T.);
#323=ORIENTED_EDGE('',*,*,#244,.T.);
#324=ORIENTED_EDGE('',*,*,#245,.T.);
#325=ORIENTED_EDGE('',*,*,#219,.F.);
#326=ORIENTED_EDGE('',*,*,#246,.T.);
#327=ORIENTED_EDGE('',*,*,#241,.T.);
#328=ORIENTED_EDGE('',*,*,#247,.T.);
#329=ORIENTED_EDGE('',*,*,#224,.F.);
#330=ORIENTED_EDGE('',*,*,#247,.F.);
#331=ORIENTED_EDGE('',*,*,#240,.F.);
#332=ORIENTED_EDGE('',*,*,#248,.F.);
#333=ORIENTED_EDGE('',*,*,#225,.F.);
#334=ORIENTED_EDGE('',*,*,#248,.T.);
#335=ORIENTED_EDGE('',*,*,#239,.T.);
#336=ORIENTED_EDGE('',*,*,#234,.T.);
#337=ORIENTED_EDGE('',*,*,#238,.F.);
#338=ORIENTED_EDGE('',*,*,#249,.T.);
#339=ORIENTED_EDGE('',*,*,#250,.T.);
#340=ORIENTED_EDGE('',*,*,#249,.F.);
#341=ORIENTED_EDGE('',*,*,#250,.F.);
#342=ORIENTED_EDGE('',*,*,#251,.F.);
#343=ORIENTED_EDGE('',*,*,#237,.F.);
#344=ORIENTED_EDGE('',*,*,#252,.T.);
#345=ORIENTED_EDGE('',*,*,#243,.F.);
#346=ORIENTED_EDGE('',*,*,#252,.F.);
#347=ORIENTED_EDGE('',*,*,#236,.F.);
#348=ORIENTED_EDGE('',*,*,#253,.T.);
#349=ORIENTED_EDGE('',*,*,#244,.F.);
#350=ORIENTED_EDGE('',*,*,#253,.F.);
#351=ORIENTED_EDGE('',*,*,#251,.T.);
#352=ORIENTED_EDGE('',*,*,#254,.T.);
#353=ORIENTED_EDGE('',*,*,#245,.F.);
#354=ORIENTED_EDGE('',*,*,#254,.F.);
#355=ORIENTED_EDGE('',*,*,#218,.F.);
#356=ORIENTED_EDGE('',*,*,#229,.F.);
#357=ORIENTED_EDGE('',*,*,#242,.F.);
#358=ORIENTED_EDGE('',*,*,#246,.F.);
#359=PLANE('',#413);
#360=PLANE('',#417);
#361=PLANE('',#421);
#362=PLANE('',#425);
#363=PLANE('',#431);
#364=PLANE('',#434);
#365=PLANE('',#435);
#366=PLANE('',#439);
#367=PLANE('',#446);
#368=PLANE('',#450);
#369=PLANE('',#455);
#370=ADVANCED_FACE('',(#54),#359,.T.);
#371=ADVANCED_FACE('',(#55),#50,.T.);
#372=ADVANCED_FACE('',(#56),#360,.T.);
#373=ADVANCED_FACE('',(#57),#51,.T.);
#374=ADVANCED_FACE('',(#58),#361,.T.);
#375=ADVANCED_FACE('',(#59),#52,.T.);
#376=ADVANCED_FACE('',(#60),#362,.T.);
#377=ADVANCED_FACE('',(#61),#53,.T.);
#378=ADVANCED_FACE('',(#62),#22,.T.);
#379=ADVANCED_FACE('',(#63),#363,.T.);
#380=ADVANCED_FACE('',(#64),#23,.T.);
#381=ADVANCED_FACE('',(#65),#364,.T.);
#382=ADVANCED_FACE('',(#66,#15,#16,#17),#365,.T.);
#383=ADVANCED_FACE('',(#67,#18,#19,#20),#366,.T.);
#384=ADVANCED_FACE('',(#68),#24,.T.);
#385=ADVANCED_FACE('',(#69),#367,.T.);
#386=ADVANCED_FACE('',(#70),#25,.T.);
#387=ADVANCED_FACE('',(#71),#26,.F.);
#388=ADVANCED_FACE('',(#72,#21),#368,.T.);
#389=ADVANCED_FACE('',(#73),#27,.F.);
#390=ADVANCED_FACE('',(#74),#28,.F.);
#391=ADVANCED_FACE('',(#75),#29,.F.);
#392=ADVANCED_FACE('',(#76),#369,.T.);
#393=CLOSED_SHELL('',(#370,#371,#372,#373,#374,#375,#376,#377,#378,#379,
#380,#381,#382,#383,#384,#385,#386,#387,#388,#389,#390,#391,#392));
#394=DERIVED_UNIT_ELEMENT(#396,1.);
#395=DERIVED_UNIT_ELEMENT(#689,3.);
#396=(
MASS_UNIT()
NAMED_UNIT(*)
SI_UNIT($,.GRAM.)
);
#397=DERIVED_UNIT((#394,#395));
#398=MEASURE_REPRESENTATION_ITEM('density measure',
POSITIVE_RATIO_MEASURE(8.47),#397);
#399=PROPERTY_DEFINITION_REPRESENTATION(#404,#401);
#400=PROPERTY_DEFINITION_REPRESENTATION(#405,#402);
#401=REPRESENTATION('material name',(#403),#686);
#402=REPRESENTATION('density',(#398),#686);
#403=DESCRIPTIVE_REPRESENTATION_ITEM('Brass, Soft Yellow',
'Brass, Soft Yellow');
#404=PROPERTY_DEFINITION('material property','material name',#696);
#405=PROPERTY_DEFINITION('material property','density of part',#696);
#406=DATE_TIME_ROLE('creation_date');
#407=APPLIED_DATE_AND_TIME_ASSIGNMENT(#408,#406,(#696));
#408=DATE_AND_TIME(#409,#410);
#409=CALENDAR_DATE(2025,16,9);
#410=LOCAL_TIME(0,0,0.,#411);
#411=COORDINATED_UNIVERSAL_TIME_OFFSET(0,0,.BEHIND.);
#412=AXIS2_PLACEMENT_3D('placement',#576,#456,#457);
#413=AXIS2_PLACEMENT_3D('',#577,#458,#459);
#414=AXIS2_PLACEMENT_3D('',#586,#464,#465);
#415=AXIS2_PLACEMENT_3D('',#588,#466,#467);
#416=AXIS2_PLACEMENT_3D('',#591,#469,#470);
#417=AXIS2_PLACEMENT_3D('',#592,#471,#472);
#418=AXIS2_PLACEMENT_3D('',#598,#476,#477);
#419=AXIS2_PLACEMENT_3D('',#600,#478,#479);
#420=AXIS2_PLACEMENT_3D('',#603,#481,#482);
#421=AXIS2_PLACEMENT_3D('',#604,#483,#484);
#422=AXIS2_PLACEMENT_3D('',#610,#488,#489);
#423=AXIS2_PLACEMENT_3D('',#612,#490,#491);
#424=AXIS2_PLACEMENT_3D('',#615,#493,#494);
#425=AXIS2_PLACEMENT_3D('',#616,#495,#496);
#426=AXIS2_PLACEMENT_3D('',#622,#500,#501);
#427=AXIS2_PLACEMENT_3D('',#623,#502,#503);
#428=AXIS2_PLACEMENT_3D('',#624,#504,#505);
#429=AXIS2_PLACEMENT_3D('',#625,#506,#507);
#430=AXIS2_PLACEMENT_3D('',#629,#509,#510);
#431=AXIS2_PLACEMENT_3D('',#631,#512,#513);
#432=AXIS2_PLACEMENT_3D('',#635,#516,#517);
#433=AXIS2_PLACEMENT_3D('',#638,#519,#520);
#434=AXIS2_PLACEMENT_3D('',#639,#521,#522);
#435=AXIS2_PLACEMENT_3D('',#643,#525,#526);
#436=AXIS2_PLACEMENT_3D('',#645,#527,#528);
#437=AXIS2_PLACEMENT_3D('',#647,#529,#530);
#438=AXIS2_PLACEMENT_3D('',#649,#531,#532);
#439=AXIS2_PLACEMENT_3D('',#650,#533,#534);
#440=AXIS2_PLACEMENT_3D('',#652,#535,#536);
#441=AXIS2_PLACEMENT_3D('',#656,#538,#539);
#442=AXIS2_PLACEMENT_3D('',#659,#541,#542);
#443=AXIS2_PLACEMENT_3D('',#661,#543,#544);
#444=AXIS2_PLACEMENT_3D('',#663,#545,#546);
#445=AXIS2_PLACEMENT_3D('',#664,#547,#548);
#446=AXIS2_PLACEMENT_3D('',#667,#551,#552);
#447=AXIS2_PLACEMENT_3D('',#669,#554,#555);
#448=AXIS2_PLACEMENT_3D('',#670,#556,#557);
#449=AXIS2_PLACEMENT_3D('',#673,#559,#560);
#450=AXIS2_PLACEMENT_3D('',#674,#561,#562);
#451=AXIS2_PLACEMENT_3D('',#676,#563,#564);
#452=AXIS2_PLACEMENT_3D('',#677,#565,#566);
#453=AXIS2_PLACEMENT_3D('',#679,#568,#569);
#454=AXIS2_PLACEMENT_3D('',#681,#571,#572);
#455=AXIS2_PLACEMENT_3D('',#683,#574,#575);
#456=DIRECTION('axis',(0.,0.,1.));
#457=DIRECTION('refdir',(1.,0.,0.));
#458=DIRECTION('center_axis',(0.,0.707106781186548,0.707106781186547));
#459=DIRECTION('ref_axis',(1.,0.,0.));
#460=DIRECTION('',(0.,0.707106781186547,-0.707106781186548));
#461=DIRECTION('',(-1.,0.,0.));
#462=DIRECTION('',(0.,-0.707106781186547,0.707106781186548));
#463=DIRECTION('',(1.,0.,0.));
#464=DIRECTION('center_axis',(0.,-1.,0.));
#465=DIRECTION('ref_axis',(0.707106781186548,0.,0.707106781186547));
#466=DIRECTION('center_axis',(0.,1.,0.));
#467=DIRECTION('ref_axis',(0.707106781186548,0.,0.707106781186547));
#468=DIRECTION('',(-0.707106781186565,0.70710678118653,-7.85046229341868E-16));
#469=DIRECTION('center_axis',(0.,-1.,0.));
#470=DIRECTION('ref_axis',(0.707106781186548,0.,0.707106781186547));
#471=DIRECTION('center_axis',(0.70710678118653,0.707106781186565,-6.28036983473495E-16));
#472=DIRECTION('ref_axis',(-8.88178419700126E-16,0.,-1.));
#473=DIRECTION('',(-0.707106781186553,0.707106781186542,7.85046229341882E-16));
#474=DIRECTION('',(8.88178419700126E-16,0.,1.));
#475=DIRECTION('',(-8.88178419700126E-16,0.,-1.));
#476=DIRECTION('center_axis',(0.,-1.,0.));
#477=DIRECTION('ref_axis',(0.707106781186547,0.,-0.707106781186548));
#478=DIRECTION('center_axis',(0.,1.,0.));
#479=DIRECTION('ref_axis',(0.707106781186547,0.,-0.707106781186548));
#480=DIRECTION('',(0.,0.707106781186546,0.707106781186549));
#481=DIRECTION('center_axis',(0.,-1.,0.));
#482=DIRECTION('ref_axis',(0.707106781186547,0.,-0.707106781186548));
#483=DIRECTION('center_axis',(9.0280316374317E-17,0.707106781186548,-0.707106781186547));
#484=DIRECTION('ref_axis',(-1.,0.,-1.27675647831893E-16));
#485=DIRECTION('',(0.,0.707106781186547,0.707106781186548));
#486=DIRECTION('',(1.,0.,1.27675647831893E-16));
#487=DIRECTION('',(-1.,0.,-1.27675647831893E-16));
#488=DIRECTION('center_axis',(0.,-1.,0.));
#489=DIRECTION('ref_axis',(-0.707106781186547,0.,-0.707106781186548));
#490=DIRECTION('center_axis',(0.,1.,0.));
#491=DIRECTION('ref_axis',(-0.707106781186547,0.,-0.707106781186548));
#492=DIRECTION('',(0.707106781186553,0.707106781186542,-1.57009245868376E-15));
#493=DIRECTION('center_axis',(0.,-1.,0.));
#494=DIRECTION('ref_axis',(-0.707106781186547,0.,-0.707106781186548));
#495=DIRECTION('center_axis',(-0.707106781186542,0.707106781186553,0.));
#496=DIRECTION('ref_axis',(0.,0.,1.));
#497=DIRECTION('',(0.707106781186553,0.707106781186542,0.));
#498=DIRECTION('',(0.,0.,-1.));
#499=DIRECTION('',(0.,0.,1.));
#500=DIRECTION('center_axis',(0.,-1.,0.));
#501=DIRECTION('ref_axis',(-0.707106781186548,0.,0.707106781186548));
#502=DIRECTION('center_axis',(0.,1.,0.));
#503=DIRECTION('ref_axis',(-0.707106781186547,0.,0.707106781186547));
#504=DIRECTION('center_axis',(0.,-1.,0.));
#505=DIRECTION('ref_axis',(-0.707106781186547,0.,0.707106781186547));
#506=DIRECTION('center_axis',(0.,-1.,0.));
#507=DIRECTION('ref_axis',(0.707106781186547,0.,-0.707106781186548));
#508=DIRECTION('',(0.,-1.,0.));
#509=DIRECTION('center_axis',(0.,1.,0.));
#510=DIRECTION('ref_axis',(0.707106781186547,0.,-0.707106781186548));
#511=DIRECTION('',(0.,1.,0.));
#512=DIRECTION('center_axis',(1.,0.,-8.88178419700126E-16));
#513=DIRECTION('ref_axis',(-8.88178419700126E-16,0.,-1.));
#514=DIRECTION('',(0.,1.,0.));
#515=DIRECTION('',(8.88178419700126E-16,0.,1.));
#516=DIRECTION('center_axis',(0.,1.,0.));
#517=DIRECTION('ref_axis',(0.707106781186548,0.,0.707106781186547));
#518=DIRECTION('',(0.,-1.,0.));
#519=DIRECTION('center_axis',(0.,1.,0.));
#520=DIRECTION('ref_axis',(0.707106781186548,0.,0.707106781186547));
#521=DIRECTION('center_axis',(0.,0.,1.));
#522=DIRECTION('ref_axis',(1.,0.,0.));
#523=DIRECTION('',(0.,1.,0.));
#524=DIRECTION('',(-1.,0.,0.));
#525=DIRECTION('center_axis',(0.,1.,0.));
#526=DIRECTION('ref_axis',(0.,0.,1.));
#527=DIRECTION('center_axis',(0.,-1.,0.));
#528=DIRECTION('ref_axis',(1.,0.,0.));
#529=DIRECTION('center_axis',(0.,-1.,0.));
#530=DIRECTION('ref_axis',(1.,0.,0.));
#531=DIRECTION('center_axis',(0.,-1.,0.));
#532=DIRECTION('ref_axis',(1.,0.,0.));
#533=DIRECTION('center_axis',(0.,-1.,0.));
#534=DIRECTION('ref_axis',(0.,0.,-1.));
#535=DIRECTION('center_axis',(0.,1.,0.));
#536=DIRECTION('ref_axis',(-0.707106781186547,0.,0.707106781186547));
#537=DIRECTION('',(0.,0.,-1.));
#538=DIRECTION('center_axis',(0.,1.,0.));
#539=DIRECTION('ref_axis',(-0.707106781186547,0.,-0.707106781186548));
#540=DIRECTION('',(1.,0.,1.27675647831893E-16));
#541=DIRECTION('center_axis',(0.,1.,0.));
#542=DIRECTION('ref_axis',(1.,0.,0.));
#543=DIRECTION('center_axis',(0.,1.,0.));
#544=DIRECTION('ref_axis',(1.,0.,0.));
#545=DIRECTION('center_axis',(0.,1.,0.));
#546=DIRECTION('ref_axis',(1.,0.,0.));
#547=DIRECTION('center_axis',(0.,1.,0.));
#548=DIRECTION('ref_axis',(-0.707106781186547,0.,-0.707106781186548));
#549=DIRECTION('',(0.,-1.,0.));
#550=DIRECTION('',(0.,1.,0.));
#551=DIRECTION('center_axis',(-1.,0.,0.));
#552=DIRECTION('ref_axis',(0.,0.,1.));
#553=DIRECTION('',(0.,-1.,0.));
#554=DIRECTION('center_axis',(0.,1.,0.));
#555=DIRECTION('ref_axis',(-0.707106781186547,0.,0.707106781186547));
#556=DIRECTION('center_axis',(0.,-1.,0.));
#557=DIRECTION('ref_axis',(1.,0.,0.));
#558=DIRECTION('',(0.,-1.,0.));
#559=DIRECTION('center_axis',(0.,-1.,0.));
#560=DIRECTION('ref_axis',(1.,0.,0.));
#561=DIRECTION('center_axis',(0.,1.,0.));
#562=DIRECTION('ref_axis',(0.,0.,1.));
#563=DIRECTION('center_axis',(0.,1.,0.));
#564=DIRECTION('ref_axis',(1.,0.,0.));
#565=DIRECTION('center_axis',(0.,1.,0.));
#566=DIRECTION('ref_axis',(1.,0.,0.));
#567=DIRECTION('',(0.,-1.,0.));
#568=DIRECTION('center_axis',(0.,1.,0.));
#569=DIRECTION('ref_axis',(1.,0.,0.));
#570=DIRECTION('',(0.,-1.,0.));
#571=DIRECTION('center_axis',(0.,-1.,0.));
#572=DIRECTION('ref_axis',(1.,0.,0.));
#573=DIRECTION('',(0.,-1.,0.));
#574=DIRECTION('center_axis',(1.27675647831893E-16,0.,-1.));
#575=DIRECTION('ref_axis',(-1.,0.,-1.27675647831893E-16));
#576=CARTESIAN_POINT('',(0.,0.,0.));
#577=CARTESIAN_POINT('Origin',(-50.0000000000001,4.75,9.74999999999999));
#578=CARTESIAN_POINT('',(94.9999999999999,4.5,9.99999999999999));
#579=CARTESIAN_POINT('',(94.9999999999999,5.,9.49999999999999));
#580=CARTESIAN_POINT('',(94.9999999999999,4.5,9.99999999999999));
#581=CARTESIAN_POINT('',(-95.0000000000001,5.,9.49999999999999));
#582=CARTESIAN_POINT('',(-50.0000000000001,5.,9.49999999999999));
#583=CARTESIAN_POINT('',(-95.0000000000001,4.5,9.99999999999999));
#584=CARTESIAN_POINT('',(-95.0000000000001,5.,9.49999999999999));
#585=CARTESIAN_POINT('',(-50.0000000000001,4.5,9.99999999999999));
#586=CARTESIAN_POINT('Origin',(94.9999999999999,4.75,4.99999999999999));
#587=CARTESIAN_POINT('',(99.9999999999999,4.5,4.99999999999999));
#588=CARTESIAN_POINT('Origin',(94.9999999999999,4.5,4.99999999999999));
#589=CARTESIAN_POINT('',(99.4999999999999,5.,4.99999999999999));
#590=CARTESIAN_POINT('',(99.9999999999999,4.5,4.99999999999999));
#591=CARTESIAN_POINT('Origin',(94.9999999999999,5.,4.99999999999999));
#592=CARTESIAN_POINT('Origin',(99.7499999999999,4.75,4.99999999999995));
#593=CARTESIAN_POINT('',(99.9999999999999,4.5,-4.99999999999998));
#594=CARTESIAN_POINT('',(99.4999999999999,5.,-4.99999999999998));
#595=CARTESIAN_POINT('',(99.9999999999999,4.5,-4.99999999999998));
#596=CARTESIAN_POINT('',(99.4999999999999,5.,4.99999999999995));
#597=CARTESIAN_POINT('',(99.9999999999999,4.5,4.99999999999995));
#598=CARTESIAN_POINT('Origin',(94.9999999999999,4.75,-4.99999999999998));
#599=CARTESIAN_POINT('',(94.9999999999999,4.5,-9.99999999999998));
#600=CARTESIAN_POINT('Origin',(94.9999999999999,4.5,-4.99999999999998));
#601=CARTESIAN_POINT('',(94.9999999999999,5.,-9.49999999999998));
#602=CARTESIAN_POINT('',(94.9999999999999,4.5,-9.99999999999998));
#603=CARTESIAN_POINT('Origin',(94.9999999999999,5.,-4.99999999999998));
#604=CARTESIAN_POINT('Origin',(49.9999999999999,4.75,-9.74999999999999));
#605=CARTESIAN_POINT('',(-95.0000000000001,4.5,-10.));
#606=CARTESIAN_POINT('',(-95.0000000000001,5.,-9.5));
#607=CARTESIAN_POINT('',(-95.0000000000001,4.5,-10.));
#608=CARTESIAN_POINT('',(49.9999999999999,5.,-9.49999999999999));
#609=CARTESIAN_POINT('',(49.9999999999999,4.5,-9.99999999999999));
#610=CARTESIAN_POINT('Origin',(-95.0000000000001,4.75,-5.));
#611=CARTESIAN_POINT('',(-100.,4.5,-5.));
#612=CARTESIAN_POINT('Origin',(-95.0000000000001,4.5,-5.));
#613=CARTESIAN_POINT('',(-99.5000000000001,5.,-5.));
#614=CARTESIAN_POINT('',(-100.,4.5,-5.));
#615=CARTESIAN_POINT('Origin',(-95.0000000000001,5.,-5.));
#616=CARTESIAN_POINT('Origin',(-99.7500000000001,4.75,-5.));
#617=CARTESIAN_POINT('',(-100.,4.5,4.99999999999999));
#618=CARTESIAN_POINT('',(-99.5000000000001,5.,4.99999999999999));
#619=CARTESIAN_POINT('',(-100.,4.5,4.99999999999999));
#620=CARTESIAN_POINT('',(-99.5000000000001,5.,-5.));
#621=CARTESIAN_POINT('',(-100.,4.5,-5.));
#622=CARTESIAN_POINT('Origin',(-95.0000000000001,4.75,4.99999999999999));
#623=CARTESIAN_POINT('Origin',(-95.0000000000001,4.5,4.99999999999999));
#624=CARTESIAN_POINT('Origin',(-95.0000000000001,5.,4.99999999999999));
#625=CARTESIAN_POINT('Origin',(94.9999999999999,0.,-4.99999999999998));
#626=CARTESIAN_POINT('',(99.9999999999999,-5.,-4.99999999999998));
#627=CARTESIAN_POINT('',(99.9999999999999,0.,-4.99999999999998));
#628=CARTESIAN_POINT('',(94.9999999999999,-5.,-9.99999999999998));
#629=CARTESIAN_POINT('Origin',(94.9999999999999,-5.,-4.99999999999998));
#630=CARTESIAN_POINT('',(94.9999999999999,0.,-9.99999999999998));
#631=CARTESIAN_POINT('Origin',(99.9999999999999,0.,9.99999999999999));
#632=CARTESIAN_POINT('',(99.9999999999999,-5.,4.99999999999999));
#633=CARTESIAN_POINT('',(99.9999999999999,0.,4.99999999999999));
#634=CARTESIAN_POINT('',(99.9999999999999,-5.,9.99999999999999));
#635=CARTESIAN_POINT('Origin',(94.9999999999999,0.,4.99999999999999));
#636=CARTESIAN_POINT('',(94.9999999999999,-5.,9.99999999999999));
#637=CARTESIAN_POINT('',(94.9999999999999,0.,9.99999999999999));
#638=CARTESIAN_POINT('Origin',(94.9999999999999,-5.,4.99999999999999));
#639=CARTESIAN_POINT('Origin',(-100.,0.,9.99999999999999));
#640=CARTESIAN_POINT('',(-95.0000000000001,-5.,9.99999999999999));
#641=CARTESIAN_POINT('',(-95.0000000000001,0.,9.99999999999999));
#642=CARTESIAN_POINT('',(-100.,-5.,9.99999999999999));
#643=CARTESIAN_POINT('Origin',(-7.105427357601E-14,5.,-5.55111512312578E-15));
#644=CARTESIAN_POINT('',(80.5,5.,5.51091059616309E-16));
#645=CARTESIAN_POINT('Origin',(85.,5.,0.));
#646=CARTESIAN_POINT('',(-89.5,5.,5.51091059616309E-16));
#647=CARTESIAN_POINT('Origin',(-85.,5.,0.));
#648=CARTESIAN_POINT('',(-3.5,5.,-4.28626379701574E-16));
#649=CARTESIAN_POINT('Origin',(0.,5.,0.));
#650=CARTESIAN_POINT('Origin',(-7.105427357601E-14,-5.,-5.55111512312578E-15));
#651=CARTESIAN_POINT('',(-100.,-5.,4.99999999999999));
#652=CARTESIAN_POINT('Origin',(-95.0000000000001,-5.,4.99999999999999));
#653=CARTESIAN_POINT('',(-100.,-5.,-5.));
#654=CARTESIAN_POINT('',(-100.,-5.,-10.));
#655=CARTESIAN_POINT('',(-95.0000000000001,-5.,-10.));
#656=CARTESIAN_POINT('Origin',(-95.0000000000001,-5.,-5.));
#657=CARTESIAN_POINT('',(99.9999999999999,-5.,-9.99999999999998));
#658=CARTESIAN_POINT('',(-89.5,-5.,5.51091059616309E-16));
#659=CARTESIAN_POINT('Origin',(-85.,-5.,0.));
#660=CARTESIAN_POINT('',(80.5,-5.,5.51091059616309E-16));
#661=CARTESIAN_POINT('Origin',(85.,-5.,0.));
#662=CARTESIAN_POINT('',(-2.,-5.,2.44929359829471E-16));
#663=CARTESIAN_POINT('Origin',(0.,-5.,0.));
#664=CARTESIAN_POINT('Origin',(-95.0000000000001,0.,-5.));
#665=CARTESIAN_POINT('',(-95.0000000000001,0.,-10.));
#666=CARTESIAN_POINT('',(-100.,0.,-5.));
#667=CARTESIAN_POINT('Origin',(-100.,0.,-10.));
#668=CARTESIAN_POINT('',(-100.,0.,4.99999999999999));
#669=CARTESIAN_POINT('Origin',(-95.0000000000001,0.,4.99999999999999));
#670=CARTESIAN_POINT('Origin',(0.,5.,0.));
#671=CARTESIAN_POINT('',(-3.5,3.,-4.28626379701574E-16));
#672=CARTESIAN_POINT('',(-3.5,5.,-4.28626379701574E-16));
#673=CARTESIAN_POINT('Origin',(0.,3.,0.));
#674=CARTESIAN_POINT('Origin',(0.,3.,0.));
#675=CARTESIAN_POINT('',(-2.,3.,-2.44929359829471E-16));
#676=CARTESIAN_POINT('Origin',(0.,3.,0.));
#677=CARTESIAN_POINT('Origin',(-85.,-196.246117974981,0.));
#678=CARTESIAN_POINT('',(-89.5,-196.246117974981,5.51091059616309E-16));
#679=CARTESIAN_POINT('Origin',(85.,-196.246117974981,0.));
#680=CARTESIAN_POINT('',(80.5,-196.246117974981,5.51091059616309E-16));
#681=CARTESIAN_POINT('Origin',(0.,5.,0.));
#682=CARTESIAN_POINT('',(-2.,5.,-2.44929359829471E-16));
#683=CARTESIAN_POINT('Origin',(99.9999999999999,0.,-9.99999999999998));
#684=UNCERTAINTY_MEASURE_WITH_UNIT(LENGTH_MEASURE(0.01),#688,
'DISTANCE_ACCURACY_VALUE',
'Maximum model space distance between geometric entities at asserted c
onnectivities');
#685=UNCERTAINTY_MEASURE_WITH_UNIT(LENGTH_MEASURE(0.01),#688,
'DISTANCE_ACCURACY_VALUE',
'Maximum model space distance between geometric entities at asserted c
onnectivities');
#686=(
GEOMETRIC_REPRESENTATION_CONTEXT(3)
GLOBAL_UNCERTAINTY_ASSIGNED_CONTEXT((#684))
GLOBAL_UNIT_ASSIGNED_CONTEXT((#688,#690,#691))
REPRESENTATION_CONTEXT('','3D')
);
#687=(
GEOMETRIC_REPRESENTATION_CONTEXT(3)
GLOBAL_UNCERTAINTY_ASSIGNED_CONTEXT((#685))
GLOBAL_UNIT_ASSIGNED_CONTEXT((#688,#690,#691))
REPRESENTATION_CONTEXT('','3D')
);
#688=(
LENGTH_UNIT()
NAMED_UNIT(*)
SI_UNIT(.MILLI.,.METRE.)
);
#689=(
LENGTH_UNIT()
NAMED_UNIT(*)
SI_UNIT(.CENTI.,.METRE.)
);
#690=(
NAMED_UNIT(*)
PLANE_ANGLE_UNIT()
SI_UNIT($,.RADIAN.)
);
#691=(
NAMED_UNIT(*)
SI_UNIT($,.STERADIAN.)
SOLID_ANGLE_UNIT()
);
#692=SHAPE_DEFINITION_REPRESENTATION(#693,#694);
#693=PRODUCT_DEFINITION_SHAPE('',$,#696);
#694=SHAPE_REPRESENTATION('',(#412),#686);
#695=PRODUCT_DEFINITION_CONTEXT('part definition',#700,'design');
#696=PRODUCT_DEFINITION('Lower Arm Brass Plate','Lower Arm Brass Plate',
#697,#695);
#697=PRODUCT_DEFINITION_FORMATION('',$,#702);
#698=PRODUCT_RELATED_PRODUCT_CATEGORY('Lower Arm Brass Plate',
'Lower Arm Brass Plate',(#702));
#699=APPLICATION_PROTOCOL_DEFINITION('international standard',
'automotive_design',2009,#700);
#700=APPLICATION_CONTEXT(
'Core Data for Automotive Mechanical Design Process');
#701=PRODUCT_CONTEXT('part definition',#700,'mechanical');
#702=PRODUCT('Lower Arm Brass Plate','Lower Arm Brass Plate',$,(#701));
#703=PRESENTATION_STYLE_ASSIGNMENT((#704));
#704=SURFACE_STYLE_USAGE(.BOTH.,#707);
#705=SURFACE_STYLE_RENDERING_WITH_PROPERTIES($,#711,(#706));
#706=SURFACE_STYLE_TRANSPARENT(0.);
#707=SURFACE_SIDE_STYLE('',(#708,#705));
#708=SURFACE_STYLE_FILL_AREA(#709);
#709=FILL_AREA_STYLE('',(#710));
#710=FILL_AREA_STYLE_COLOUR('',#711);
#711=COLOUR_RGB('',0.796078431372549,0.603921568627451,0.231372549019608);
ENDSEC;
END-ISO-10303-21;
