ISO-10303-21;
HEADER;
/* Generated by software containing ST-Developer
 * from STEP Tools, Inc. (www.steptools.com) 
 */

FILE_DESCRIPTION(
/* description */ ('Exported via iLogic'),
/* implementation_level */ '2;1');

FILE_NAME(
/* name */ 
'S:\\Future Scope 1\\WIP\\Client Category\\Tom\\02 Progressive Work\\H
ardware\\M10 Hex Nut.stp',
/* time_stamp */ '2025-10-28T18:05:32+06:00',
/* author */ ('iLogic Export'),
/* organization */ (''),
/* preprocessor_version */ 'ST-DEVELOPER v18.1',
/* originating_system */ 'Autodesk Inventor 2021',
/* authorisation */ '');

FILE_SCHEMA (('CONFIG_CONTROL_DESIGN'));
ENDSEC;

DATA;
#10=MECHANICAL_DESIGN_GEOMETRIC_PRESENTATION_REPRESENTATION('',(#13),#404);
#11=SHAPE_REPRESENTATION_RELATIONSHIP('SRR','None',#411,#12);
#12=ADVANCED_BREP_SHAPE_REPRESENTATION('',(#14),#403);
#13=STYLED_ITEM('',(#420),#14);
#14=MANIFOLD_SOLID_BREP('Solid1',#221);
#15=(
BOUNDED_CURVE()
B_SPLINE_CURVE(2,(#340,#341,#342),.UNSPECIFIED.,.F.,.F.)
B_SPLINE_CURVE_WITH_KNOTS((3,3),(0.,0.934748910462335),.UNSPECIFIED.)
CURVE()
GEOMETRIC_REPRESENTATION_ITEM()
RATIONAL_B_SPLINE_CURVE((1.,1.15470053837925,1.))
REPRESENTATION_ITEM('')
);
#16=(
BOUNDED_CURVE()
B_SPLINE_CURVE(2,(#344,#345,#346),.UNSPECIFIED.,.F.,.F.)
B_SPLINE_CURVE_WITH_KNOTS((3,3),(0.,0.934748910462335),.UNSPECIFIED.)
CURVE()
GEOMETRIC_REPRESENTATION_ITEM()
RATIONAL_B_SPLINE_CURVE((1.,1.15470053837925,1.))
REPRESENTATION_ITEM('')
);
#17=(
BOUNDED_CURVE()
B_SPLINE_CURVE(2,(#348,#349,#350),.UNSPECIFIED.,.F.,.F.)
B_SPLINE_CURVE_WITH_KNOTS((3,3),(0.,0.934748910462333),.UNSPECIFIED.)
CURVE()
GEOMETRIC_REPRESENTATION_ITEM()
RATIONAL_B_SPLINE_CURVE((1.,1.15470053837925,1.))
REPRESENTATION_ITEM('')
);
#18=(
BOUNDED_CURVE()
B_SPLINE_CURVE(2,(#352,#353,#354),.UNSPECIFIED.,.F.,.F.)
B_SPLINE_CURVE_WITH_KNOTS((3,3),(0.,0.93474891046233),.UNSPECIFIED.)
CURVE()
GEOMETRIC_REPRESENTATION_ITEM()
RATIONAL_B_SPLINE_CURVE((1.,1.15470053837925,1.))
REPRESENTATION_ITEM('')
);
#19=(
BOUNDED_CURVE()
B_SPLINE_CURVE(2,(#356,#357,#358),.UNSPECIFIED.,.F.,.F.)
B_SPLINE_CURVE_WITH_KNOTS((3,3),(0.,0.934748910462335),.UNSPECIFIED.)
CURVE()
GEOMETRIC_REPRESENTATION_ITEM()
RATIONAL_B_SPLINE_CURVE((1.,1.15470053837925,1.))
REPRESENTATION_ITEM('')
);
#20=(
BOUNDED_CURVE()
B_SPLINE_CURVE(2,(#360,#361,#362),.UNSPECIFIED.,.F.,.F.)
B_SPLINE_CURVE_WITH_KNOTS((3,3),(0.,0.934748910462334),.UNSPECIFIED.)
CURVE()
GEOMETRIC_REPRESENTATION_ITEM()
RATIONAL_B_SPLINE_CURVE((1.,1.15470053837925,1.))
REPRESENTATION_ITEM('')
);
#21=(
BOUNDED_CURVE()
B_SPLINE_CURVE(2,(#367,#368,#369),.UNSPECIFIED.,.F.,.F.)
B_SPLINE_CURVE_WITH_KNOTS((3,3),(0.,0.934748910462337),.UNSPECIFIED.)
CURVE()
GEOMETRIC_REPRESENTATION_ITEM()
RATIONAL_B_SPLINE_CURVE((1.,1.15470053837925,1.))
REPRESENTATION_ITEM('')
);
#22=(
BOUNDED_CURVE()
B_SPLINE_CURVE(2,(#371,#372,#373),.UNSPECIFIED.,.F.,.F.)
B_SPLINE_CURVE_WITH_KNOTS((3,3),(0.,0.934748910462331),.UNSPECIFIED.)
CURVE()
GEOMETRIC_REPRESENTATION_ITEM()
RATIONAL_B_SPLINE_CURVE((1.,1.15470053837925,1.))
REPRESENTATION_ITEM('')
);
#23=(
BOUNDED_CURVE()
B_SPLINE_CURVE(2,(#375,#376,#377),.UNSPECIFIED.,.F.,.F.)
B_SPLINE_CURVE_WITH_KNOTS((3,3),(0.,0.934748910462334),.UNSPECIFIED.)
CURVE()
GEOMETRIC_REPRESENTATION_ITEM()
RATIONAL_B_SPLINE_CURVE((1.,1.15470053837925,1.))
REPRESENTATION_ITEM('')
);
#24=(
BOUNDED_CURVE()
B_SPLINE_CURVE(2,(#379,#380,#381),.UNSPECIFIED.,.F.,.F.)
B_SPLINE_CURVE_WITH_KNOTS((3,3),(0.,0.934748910462335),.UNSPECIFIED.)
CURVE()
GEOMETRIC_REPRESENTATION_ITEM()
RATIONAL_B_SPLINE_CURVE((1.,1.15470053837925,1.))
REPRESENTATION_ITEM('')
);
#25=(
BOUNDED_CURVE()
B_SPLINE_CURVE(2,(#383,#384,#385),.UNSPECIFIED.,.F.,.F.)
B_SPLINE_CURVE_WITH_KNOTS((3,3),(0.,0.934748910462336),.UNSPECIFIED.)
CURVE()
GEOMETRIC_REPRESENTATION_ITEM()
RATIONAL_B_SPLINE_CURVE((1.,1.15470053837925,1.))
REPRESENTATION_ITEM('')
);
#26=(
BOUNDED_CURVE()
B_SPLINE_CURVE(2,(#386,#387,#388),.UNSPECIFIED.,.F.,.F.)
B_SPLINE_CURVE_WITH_KNOTS((3,3),(0.,0.934748910462335),.UNSPECIFIED.)
CURVE()
GEOMETRIC_REPRESENTATION_ITEM()
RATIONAL_B_SPLINE_CURVE((1.,1.15470053837925,1.))
REPRESENTATION_ITEM('')
);
#27=FACE_BOUND('',#54,.T.);
#28=FACE_BOUND('',#57,.T.);
#29=PLANE('',#247);
#30=PLANE('',#251);
#31=PLANE('',#255);
#32=PLANE('',#256);
#33=PLANE('',#257);
#34=PLANE('',#258);
#35=PLANE('',#259);
#36=PLANE('',#260);
#37=CYLINDRICAL_SURFACE('',#244,4.188);
#38=FACE_OUTER_BOUND('',#51,.T.);
#39=FACE_OUTER_BOUND('',#52,.T.);
#40=FACE_OUTER_BOUND('',#53,.T.);
#41=FACE_OUTER_BOUND('',#55,.T.);
#42=FACE_OUTER_BOUND('',#56,.T.);
#43=FACE_OUTER_BOUND('',#58,.T.);
#44=FACE_OUTER_BOUND('',#59,.T.);
#45=FACE_OUTER_BOUND('',#60,.T.);
#46=FACE_OUTER_BOUND('',#61,.T.);
#47=FACE_OUTER_BOUND('',#62,.T.);
#48=FACE_OUTER_BOUND('',#63,.T.);
#49=FACE_OUTER_BOUND('',#64,.T.);
#50=FACE_OUTER_BOUND('',#65,.T.);
#51=EDGE_LOOP('',(#144,#145,#146,#147));
#52=EDGE_LOOP('',(#148,#149,#150,#151,#152));
#53=EDGE_LOOP('',(#153));
#54=EDGE_LOOP('',(#154));
#55=EDGE_LOOP('',(#155,#156,#157,#158,#159));
#56=EDGE_LOOP('',(#160));
#57=EDGE_LOOP('',(#161));
#58=EDGE_LOOP('',(#162,#163,#164,#165,#166,#167,#168,#169,#170));
#59=EDGE_LOOP('',(#171,#172,#173,#174,#175,#176,#177,#178,#179));
#60=EDGE_LOOP('',(#180,#181,#182,#183));
#61=EDGE_LOOP('',(#184,#185,#186,#187));
#62=EDGE_LOOP('',(#188,#189,#190,#191));
#63=EDGE_LOOP('',(#192,#193,#194,#195));
#64=EDGE_LOOP('',(#196,#197,#198,#199));
#65=EDGE_LOOP('',(#200,#201,#202,#203));
#66=LINE('',#319,#77);
#67=LINE('',#326,#78);
#68=LINE('',#333,#79);
#69=LINE('',#359,#80);
#70=LINE('',#365,#81);
#71=LINE('',#390,#82);
#72=LINE('',#391,#83);
#73=LINE('',#393,#84);
#74=LINE('',#395,#85);
#75=LINE('',#397,#86);
#76=LINE('',#399,#87);
#77=VECTOR('',#267,4.59394940802396);
#78=VECTOR('',#276,4.188);
#79=VECTOR('',#285,4.59394940802396);
#80=VECTOR('',#292,8.26880215351701);
#81=VECTOR('',#295,8.26880215351701);
#82=VECTOR('',#298,10.);
#83=VECTOR('',#299,10.);
#84=VECTOR('',#302,10.);
#85=VECTOR('',#305,10.);
#86=VECTOR('',#308,10.);
#87=VECTOR('',#311,10.);
#88=CIRCLE('',#242,4.99989881604791);
#89=CIRCLE('',#243,4.188);
#90=CIRCLE('',#245,4.188);
#91=CIRCLE('',#246,4.188);
#92=CIRCLE('',#248,7.3);
#93=CIRCLE('',#250,4.99989881604791);
#94=CIRCLE('',#252,7.3);
#95=VERTEX_POINT('',#316);
#96=VERTEX_POINT('',#318);
#97=VERTEX_POINT('',#322);
#98=VERTEX_POINT('',#323);
#99=VERTEX_POINT('',#328);
#100=VERTEX_POINT('',#331);
#101=VERTEX_POINT('',#335);
#102=VERTEX_POINT('',#338);
#103=VERTEX_POINT('',#339);
#104=VERTEX_POINT('',#343);
#105=VERTEX_POINT('',#347);
#106=VERTEX_POINT('',#351);
#107=VERTEX_POINT('',#355);
#108=VERTEX_POINT('',#364);
#109=VERTEX_POINT('',#366);
#110=VERTEX_POINT('',#370);
#111=VERTEX_POINT('',#374);
#112=VERTEX_POINT('',#378);
#113=VERTEX_POINT('',#382);
#114=EDGE_CURVE('',#95,#95,#88,.T.);
#115=EDGE_CURVE('',#95,#96,#66,.T.);
#116=EDGE_CURVE('',#96,#96,#89,.T.);
#117=EDGE_CURVE('',#97,#98,#90,.T.);
#118=EDGE_CURVE('',#98,#97,#91,.T.);
#119=EDGE_CURVE('',#98,#96,#67,.T.);
#120=EDGE_CURVE('',#99,#99,#92,.T.);
#121=EDGE_CURVE('',#100,#100,#93,.T.);
#122=EDGE_CURVE('',#100,#97,#68,.T.);
#123=EDGE_CURVE('',#101,#101,#94,.T.);
#124=EDGE_CURVE('',#102,#103,#15,.T.);
#125=EDGE_CURVE('',#104,#102,#16,.T.);
#126=EDGE_CURVE('',#105,#104,#17,.T.);
#127=EDGE_CURVE('',#106,#105,#18,.T.);
#128=EDGE_CURVE('',#107,#106,#19,.T.);
#129=EDGE_CURVE('',#107,#99,#69,.T.);
#130=EDGE_CURVE('',#103,#107,#20,.T.);
#131=EDGE_CURVE('',#101,#108,#70,.T.);
#132=EDGE_CURVE('',#109,#108,#21,.T.);
#133=EDGE_CURVE('',#110,#109,#22,.T.);
#134=EDGE_CURVE('',#111,#110,#23,.T.);
#135=EDGE_CURVE('',#112,#111,#24,.T.);
#136=EDGE_CURVE('',#113,#112,#25,.T.);
#137=EDGE_CURVE('',#108,#113,#26,.T.);
#138=EDGE_CURVE('',#104,#111,#71,.T.);
#139=EDGE_CURVE('',#105,#110,#72,.T.);
#140=EDGE_CURVE('',#106,#109,#73,.T.);
#141=EDGE_CURVE('',#102,#112,#74,.T.);
#142=EDGE_CURVE('',#103,#113,#75,.T.);
#143=EDGE_CURVE('',#107,#108,#76,.T.);
#144=ORIENTED_EDGE('',*,*,#114,.T.);
#145=ORIENTED_EDGE('',*,*,#115,.T.);
#146=ORIENTED_EDGE('',*,*,#116,.T.);
#147=ORIENTED_EDGE('',*,*,#115,.F.);
#148=ORIENTED_EDGE('',*,*,#117,.F.);
#149=ORIENTED_EDGE('',*,*,#118,.F.);
#150=ORIENTED_EDGE('',*,*,#119,.T.);
#151=ORIENTED_EDGE('',*,*,#116,.F.);
#152=ORIENTED_EDGE('',*,*,#119,.F.);
#153=ORIENTED_EDGE('',*,*,#120,.T.);
#154=ORIENTED_EDGE('',*,*,#114,.F.);
#155=ORIENTED_EDGE('',*,*,#121,.T.);
#156=ORIENTED_EDGE('',*,*,#122,.T.);
#157=ORIENTED_EDGE('',*,*,#117,.T.);
#158=ORIENTED_EDGE('',*,*,#118,.T.);
#159=ORIENTED_EDGE('',*,*,#122,.F.);
#160=ORIENTED_EDGE('',*,*,#123,.T.);
#161=ORIENTED_EDGE('',*,*,#121,.F.);
#162=ORIENTED_EDGE('',*,*,#124,.F.);
#163=ORIENTED_EDGE('',*,*,#125,.F.);
#164=ORIENTED_EDGE('',*,*,#126,.F.);
#165=ORIENTED_EDGE('',*,*,#127,.F.);
#166=ORIENTED_EDGE('',*,*,#128,.F.);
#167=ORIENTED_EDGE('',*,*,#129,.T.);
#168=ORIENTED_EDGE('',*,*,#120,.F.);
#169=ORIENTED_EDGE('',*,*,#129,.F.);
#170=ORIENTED_EDGE('',*,*,#130,.F.);
#171=ORIENTED_EDGE('',*,*,#123,.F.);
#172=ORIENTED_EDGE('',*,*,#131,.T.);
#173=ORIENTED_EDGE('',*,*,#132,.F.);
#174=ORIENTED_EDGE('',*,*,#133,.F.);
#175=ORIENTED_EDGE('',*,*,#134,.F.);
#176=ORIENTED_EDGE('',*,*,#135,.F.);
#177=ORIENTED_EDGE('',*,*,#136,.F.);
#178=ORIENTED_EDGE('',*,*,#137,.F.);
#179=ORIENTED_EDGE('',*,*,#131,.F.);
#180=ORIENTED_EDGE('',*,*,#126,.T.);
#181=ORIENTED_EDGE('',*,*,#138,.T.);
#182=ORIENTED_EDGE('',*,*,#134,.T.);
#183=ORIENTED_EDGE('',*,*,#139,.F.);
#184=ORIENTED_EDGE('',*,*,#127,.T.);
#185=ORIENTED_EDGE('',*,*,#139,.T.);
#186=ORIENTED_EDGE('',*,*,#133,.T.);
#187=ORIENTED_EDGE('',*,*,#140,.F.);
#188=ORIENTED_EDGE('',*,*,#125,.T.);
#189=ORIENTED_EDGE('',*,*,#141,.T.);
#190=ORIENTED_EDGE('',*,*,#135,.T.);
#191=ORIENTED_EDGE('',*,*,#138,.F.);
#192=ORIENTED_EDGE('',*,*,#124,.T.);
#193=ORIENTED_EDGE('',*,*,#142,.T.);
#194=ORIENTED_EDGE('',*,*,#136,.T.);
#195=ORIENTED_EDGE('',*,*,#141,.F.);
#196=ORIENTED_EDGE('',*,*,#128,.T.);
#197=ORIENTED_EDGE('',*,*,#140,.T.);
#198=ORIENTED_EDGE('',*,*,#132,.T.);
#199=ORIENTED_EDGE('',*,*,#143,.F.);
#200=ORIENTED_EDGE('',*,*,#130,.T.);
#201=ORIENTED_EDGE('',*,*,#143,.T.);
#202=ORIENTED_EDGE('',*,*,#137,.T.);
#203=ORIENTED_EDGE('',*,*,#142,.F.);
#204=CONICAL_SURFACE('',#241,4.59394940802396,1.0471975511966);
#205=CONICAL_SURFACE('',#249,4.59394940802396,1.0471975511966);
#206=CONICAL_SURFACE('',#253,8.268802153517,1.0471975511966);
#207=CONICAL_SURFACE('',#254,8.268802153517,1.0471975511966);
#208=ADVANCED_FACE('',(#38),#204,.F.);
#209=ADVANCED_FACE('',(#39),#37,.F.);
#210=ADVANCED_FACE('',(#40,#27),#29,.F.);
#211=ADVANCED_FACE('',(#41),#205,.F.);
#212=ADVANCED_FACE('',(#42,#28),#30,.T.);
#213=ADVANCED_FACE('',(#43),#206,.T.);
#214=ADVANCED_FACE('',(#44),#207,.T.);
#215=ADVANCED_FACE('',(#45),#31,.T.);
#216=ADVANCED_FACE('',(#46),#32,.T.);
#217=ADVANCED_FACE('',(#47),#33,.T.);
#218=ADVANCED_FACE('',(#48),#34,.T.);
#219=ADVANCED_FACE('',(#49),#35,.T.);
#220=ADVANCED_FACE('',(#50),#36,.T.);
#221=CLOSED_SHELL('',(#208,#209,#210,#211,#212,#213,#214,#215,#216,#217,
#218,#219,#220));
#222=DERIVED_UNIT_ELEMENT(#224,1.);
#223=DERIVED_UNIT_ELEMENT(#406,3.);
#224=(
MASS_UNIT()
NAMED_UNIT(*)
SI_UNIT($,.GRAM.)
);
#225=DERIVED_UNIT((#222,#223));
#226=MEASURE_REPRESENTATION_ITEM('density measure',
POSITIVE_RATIO_MEASURE(7.75),#225);
#227=PROPERTY_DEFINITION_REPRESENTATION(#232,#229);
#228=PROPERTY_DEFINITION_REPRESENTATION(#233,#230);
#229=REPRESENTATION('material name',(#231),#403);
#230=REPRESENTATION('density',(#226),#403);
#231=DESCRIPTIVE_REPRESENTATION_ITEM('Stainless Steel, 440C',
'Stainless Steel, 440C');
#232=PROPERTY_DEFINITION('material property','material name',#413);
#233=PROPERTY_DEFINITION('material property','density of part',#413);
#234=DATE_TIME_ROLE('creation_date');
#235=CC_DESIGN_DATE_AND_TIME_ASSIGNMENT(#236,#234,(#413));
#236=DATE_AND_TIME(#237,#238);
#237=CALENDAR_DATE(2020,21,1);
#238=LOCAL_TIME(0,0,0.,#239);
#239=COORDINATED_UNIVERSAL_TIME_OFFSET(0,0,.BEHIND.);
#240=AXIS2_PLACEMENT_3D('placement',#314,#261,#262);
#241=AXIS2_PLACEMENT_3D('',#315,#263,#264);
#242=AXIS2_PLACEMENT_3D('',#317,#265,#266);
#243=AXIS2_PLACEMENT_3D('',#320,#268,#269);
#244=AXIS2_PLACEMENT_3D('',#321,#270,#271);
#245=AXIS2_PLACEMENT_3D('',#324,#272,#273);
#246=AXIS2_PLACEMENT_3D('',#325,#274,#275);
#247=AXIS2_PLACEMENT_3D('',#327,#277,#278);
#248=AXIS2_PLACEMENT_3D('',#329,#279,#280);
#249=AXIS2_PLACEMENT_3D('',#330,#281,#282);
#250=AXIS2_PLACEMENT_3D('',#332,#283,#284);
#251=AXIS2_PLACEMENT_3D('',#334,#286,#287);
#252=AXIS2_PLACEMENT_3D('',#336,#288,#289);
#253=AXIS2_PLACEMENT_3D('',#337,#290,#291);
#254=AXIS2_PLACEMENT_3D('',#363,#293,#294);
#255=AXIS2_PLACEMENT_3D('',#389,#296,#297);
#256=AXIS2_PLACEMENT_3D('',#392,#300,#301);
#257=AXIS2_PLACEMENT_3D('',#394,#303,#304);
#258=AXIS2_PLACEMENT_3D('',#396,#306,#307);
#259=AXIS2_PLACEMENT_3D('',#398,#309,#310);
#260=AXIS2_PLACEMENT_3D('',#400,#312,#313);
#261=DIRECTION('axis',(0.,0.,1.));
#262=DIRECTION('refdir',(1.,0.,0.));
#263=DIRECTION('center_axis',(-1.,0.,0.));
#264=DIRECTION('ref_axis',(0.,0.,-1.));
#265=DIRECTION('center_axis',(-1.,0.,0.));
#266=DIRECTION('ref_axis',(0.,0.,-1.));
#267=DIRECTION('',(0.5,-1.06057523872491E-16,-0.866025403784439));
#268=DIRECTION('center_axis',(1.,0.,0.));
#269=DIRECTION('ref_axis',(0.,0.,-1.));
#270=DIRECTION('center_axis',(1.,0.,0.));
#271=DIRECTION('ref_axis',(0.,0.,-1.));
#272=DIRECTION('center_axis',(-1.,0.,0.));
#273=DIRECTION('ref_axis',(0.,0.,1.));
#274=DIRECTION('center_axis',(-1.,0.,0.));
#275=DIRECTION('ref_axis',(0.,0.,1.));
#276=DIRECTION('',(-1.,0.,0.));
#277=DIRECTION('center_axis',(1.,0.,0.));
#278=DIRECTION('ref_axis',(0.,0.,-1.));
#279=DIRECTION('center_axis',(-1.,0.,0.));
#280=DIRECTION('ref_axis',(0.,1.,0.));
#281=DIRECTION('center_axis',(1.,0.,0.));
#282=DIRECTION('ref_axis',(0.,0.,1.));
#283=DIRECTION('center_axis',(1.,0.,0.));
#284=DIRECTION('ref_axis',(0.,0.,1.));
#285=DIRECTION('',(-0.5,-1.06057523872491E-16,0.866025403784439));
#286=DIRECTION('center_axis',(1.,0.,0.));
#287=DIRECTION('ref_axis',(0.,0.,-1.));
#288=DIRECTION('center_axis',(1.,0.,0.));
#289=DIRECTION('ref_axis',(0.,1.,0.));
#290=DIRECTION('center_axis',(1.,0.,0.));
#291=DIRECTION('ref_axis',(0.,1.,0.));
#292=DIRECTION('',(-0.5,0.866025403784439,-1.06057523872491E-16));
#293=DIRECTION('center_axis',(-1.,0.,0.));
#294=DIRECTION('ref_axis',(0.,1.,0.));
#295=DIRECTION('',(-0.5,-0.866025403784439,1.06057523872491E-16));
#296=DIRECTION('center_axis',(0.,0.866025403784439,-0.499999999999999));
#297=DIRECTION('ref_axis',(0.,0.499999999999999,0.866025403784439));
#298=DIRECTION('',(1.,0.,0.));
#299=DIRECTION('',(1.,0.,0.));
#300=DIRECTION('center_axis',(0.,1.80277751848459E-15,-1.));
#301=DIRECTION('ref_axis',(-1.,0.,0.));
#302=DIRECTION('',(1.,0.,0.));
#303=DIRECTION('center_axis',(0.,0.866025403784438,0.5));
#304=DIRECTION('ref_axis',(1.,0.,0.));
#305=DIRECTION('',(1.,0.,0.));
#306=DIRECTION('center_axis',(0.,0.,1.));
#307=DIRECTION('ref_axis',(1.,0.,0.));
#308=DIRECTION('',(1.,0.,0.));
#309=DIRECTION('center_axis',(0.,-0.866025403784438,-0.5));
#310=DIRECTION('ref_axis',(-1.,0.,0.));
#311=DIRECTION('',(1.,0.,0.));
#312=DIRECTION('center_axis',(0.,-0.866025403784439,0.5));
#313=DIRECTION('ref_axis',(0.,-0.5,-0.866025403784439));
#314=CARTESIAN_POINT('',(0.,0.,0.));
#315=CARTESIAN_POINT('Origin',(0.234375,0.,0.));
#316=CARTESIAN_POINT('',(0.,6.12311008113372E-16,4.99989881604791));
#317=CARTESIAN_POINT('Origin',(0.,0.,0.));
#318=CARTESIAN_POINT('',(0.46875,-5.12882079482912E-16,4.188));
#319=CARTESIAN_POINT('',(0.234375,5.62596543798141E-16,4.59394940802396));
#320=CARTESIAN_POINT('Origin',(0.46875,0.,0.));
#321=CARTESIAN_POINT('Origin',(-17.5863448336006,0.,0.));
#322=CARTESIAN_POINT('',(7.93125,-5.12882079482912E-16,-4.188));
#323=CARTESIAN_POINT('',(7.93125,-5.12882079482912E-16,4.188));
#324=CARTESIAN_POINT('Origin',(7.93125,0.,0.));
#325=CARTESIAN_POINT('Origin',(7.93125,0.,0.));
#326=CARTESIAN_POINT('',(-17.5863448336006,-5.12882079482912E-16,4.188));
#327=CARTESIAN_POINT('Origin',(0.,4.16333634234434E-16,-6.24500451351651E-15));
#328=CARTESIAN_POINT('',(1.38777878078145E-16,-7.3,8.93992163377568E-16));
#329=CARTESIAN_POINT('Origin',(0.,0.,0.));
#330=CARTESIAN_POINT('Origin',(8.165625,0.,0.));
#331=CARTESIAN_POINT('',(8.4,6.12311008113372E-16,-4.99989881604791));
#332=CARTESIAN_POINT('Origin',(8.4,0.,0.));
#333=CARTESIAN_POINT('',(8.165625,5.62596543798141E-16,-4.59394940802396));
#334=CARTESIAN_POINT('Origin',(8.4,6.22397756229255E-16,-6.38378239159465E-15));
#335=CARTESIAN_POINT('',(8.4,-7.3,8.93992163377568E-16));
#336=CARTESIAN_POINT('Origin',(8.4,0.,0.));
#337=CARTESIAN_POINT('Origin',(0.559338184124532,0.,0.));
#338=CARTESIAN_POINT('',(1.11867636824906,4.61880215351701,8.));
#339=CARTESIAN_POINT('',(1.11867636824906,-4.61880215351701,8.));
#340=CARTESIAN_POINT('Ctrl Pts',(1.11867636824906,4.61880215351701,8.));
#341=CARTESIAN_POINT('Ctrl Pts',(-0.214656965084268,0.,8.));
#342=CARTESIAN_POINT('Ctrl Pts',(1.11867636824906,-4.61880215351701,8.));
#343=CARTESIAN_POINT('',(1.11867636824906,9.23760430703401,0.));
#344=CARTESIAN_POINT('Ctrl Pts',(1.11867636824906,9.23760430703401,2.48060137457359E-15));
#345=CARTESIAN_POINT('Ctrl Pts',(-0.214656965084268,6.92820323027551,4.));
#346=CARTESIAN_POINT('Ctrl Pts',(1.11867636824907,4.618802153517,8.));
#347=CARTESIAN_POINT('',(1.11867636824906,4.61880215351703,-7.99999999999999));
#348=CARTESIAN_POINT('Ctrl Pts',(1.11867636824906,4.61880215351703,-7.99999999999999));
#349=CARTESIAN_POINT('Ctrl Pts',(-0.214656965084263,6.92820323027552,-3.99999999999999));
#350=CARTESIAN_POINT('Ctrl Pts',(1.11867636824907,9.23760430703401,3.72090206186039E-15));
#351=CARTESIAN_POINT('',(1.11867636824906,-4.61880215351697,-8.00000000000002));
#352=CARTESIAN_POINT('Ctrl Pts',(1.11867636824906,-4.61880215351697,-8.00000000000002));
#353=CARTESIAN_POINT('Ctrl Pts',(-0.214656965084256,1.37718808966827E-14,
-8.00000000000001));
#354=CARTESIAN_POINT('Ctrl Pts',(1.11867636824906,4.618802153517,-8.));
#355=CARTESIAN_POINT('',(1.11867636824906,-9.23760430703401,-1.11022302462516E-15));
#356=CARTESIAN_POINT('Ctrl Pts',(1.11867636824906,-9.23760430703401,-1.2403006872868E-15));
#357=CARTESIAN_POINT('Ctrl Pts',(-0.21465696508427,-6.92820323027551,-4.));
#358=CARTESIAN_POINT('Ctrl Pts',(1.11867636824906,-4.618802153517,-8.00000000000001));
#359=CARTESIAN_POINT('',(0.559338184124532,-8.268802153517,1.01263620900873E-15));
#360=CARTESIAN_POINT('Ctrl Pts',(1.11867636824906,-4.61880215351701,8.));
#361=CARTESIAN_POINT('Ctrl Pts',(-0.214656965084266,-6.92820323027551,4.));
#362=CARTESIAN_POINT('Ctrl Pts',(1.11867636824906,-9.23760430703401,3.72090206186038E-15));
#363=CARTESIAN_POINT('Origin',(7.84066181587547,0.,0.));
#364=CARTESIAN_POINT('',(7.28132363175094,-9.23760430703401,-1.11022302462516E-15));
#365=CARTESIAN_POINT('',(7.84066181587547,-8.268802153517,1.01263620900873E-15));
#366=CARTESIAN_POINT('',(7.28132363175094,-4.61880215351697,-8.00000000000002));
#367=CARTESIAN_POINT('Ctrl Pts',(7.28132363175094,-4.618802153517,-8.00000000000001));
#368=CARTESIAN_POINT('Ctrl Pts',(8.61465696508427,-6.92820323027551,-4.));
#369=CARTESIAN_POINT('Ctrl Pts',(7.28132363175094,-9.23760430703402,5.58135309279058E-15));
#370=CARTESIAN_POINT('',(7.28132363175094,4.61880215351703,-7.99999999999999));
#371=CARTESIAN_POINT('Ctrl Pts',(7.28132363175094,4.618802153517,-8.));
#372=CARTESIAN_POINT('Ctrl Pts',(8.61465696508426,1.4432899320127E-14,-8.00000000000001));
#373=CARTESIAN_POINT('Ctrl Pts',(7.28132363175094,-4.61880215351698,-8.00000000000002));
#374=CARTESIAN_POINT('',(7.28132363175094,9.23760430703401,0.));
#375=CARTESIAN_POINT('Ctrl Pts',(7.28132363175094,9.23760430703401,5.58135309279058E-15));
#376=CARTESIAN_POINT('Ctrl Pts',(8.61465696508427,6.92820323027552,-3.99999999999999));
#377=CARTESIAN_POINT('Ctrl Pts',(7.28132363175094,4.61880215351702,-7.99999999999999));
#378=CARTESIAN_POINT('',(7.28132363175094,4.61880215351701,8.));
#379=CARTESIAN_POINT('Ctrl Pts',(7.28132363175094,4.618802153517,8.));
#380=CARTESIAN_POINT('Ctrl Pts',(8.61465696508427,6.92820323027551,4.));
#381=CARTESIAN_POINT('Ctrl Pts',(7.28132363175094,9.23760430703401,1.2403006872868E-15));
#382=CARTESIAN_POINT('',(7.28132363175094,-4.61880215351701,8.));
#383=CARTESIAN_POINT('Ctrl Pts',(7.28132363175094,-4.61880215351701,8.));
#384=CARTESIAN_POINT('Ctrl Pts',(8.61465696508427,0.,8.));
#385=CARTESIAN_POINT('Ctrl Pts',(7.28132363175094,4.61880215351701,8.));
#386=CARTESIAN_POINT('Ctrl Pts',(7.28132363175094,-9.23760430703401,-6.20150343643398E-16));
#387=CARTESIAN_POINT('Ctrl Pts',(8.61465696508427,-6.92820323027551,4.));
#388=CARTESIAN_POINT('Ctrl Pts',(7.28132363175094,-4.61880215351701,8.));
#389=CARTESIAN_POINT('Origin',(0.,9.23760430703401,2.67335634010954E-15));
#390=CARTESIAN_POINT('',(0.,9.23760430703401,2.67335634010954E-15));
#391=CARTESIAN_POINT('',(0.,4.61880215351702,-8.));
#392=CARTESIAN_POINT('Origin',(0.,4.61880215351702,-8.));
#393=CARTESIAN_POINT('',(0.,-4.61880215351699,-8.00000000000002));
#394=CARTESIAN_POINT('Origin',(0.,4.618802153517,8.));
#395=CARTESIAN_POINT('',(0.,4.618802153517,8.));
#396=CARTESIAN_POINT('Origin',(0.,-4.61880215351701,8.));
#397=CARTESIAN_POINT('',(0.,-4.61880215351701,8.));
#398=CARTESIAN_POINT('Origin',(0.,-4.61880215351699,-8.00000000000002));
#399=CARTESIAN_POINT('',(0.,-9.23760430703401,6.22196141300402E-16));
#400=CARTESIAN_POINT('Origin',(0.,-9.23760430703401,6.22196141300402E-16));
#401=UNCERTAINTY_MEASURE_WITH_UNIT(LENGTH_MEASURE(0.01),#405,
'DISTANCE_ACCURACY_VALUE',
'Maximum model space distance between geometric entities at asserted c
onnectivities');
#402=UNCERTAINTY_MEASURE_WITH_UNIT(LENGTH_MEASURE(0.01),#405,
'DISTANCE_ACCURACY_VALUE',
'Maximum model space distance between geometric entities at asserted c
onnectivities');
#403=(
GEOMETRIC_REPRESENTATION_CONTEXT(3)
GLOBAL_UNCERTAINTY_ASSIGNED_CONTEXT((#401))
GLOBAL_UNIT_ASSIGNED_CONTEXT((#405,#407,#408))
REPRESENTATION_CONTEXT('','3D')
);
#404=(
GEOMETRIC_REPRESENTATION_CONTEXT(3)
GLOBAL_UNCERTAINTY_ASSIGNED_CONTEXT((#402))
GLOBAL_UNIT_ASSIGNED_CONTEXT((#405,#407,#408))
REPRESENTATION_CONTEXT('','3D')
);
#405=(
LENGTH_UNIT()
NAMED_UNIT(*)
SI_UNIT(.MILLI.,.METRE.)
);
#406=(
LENGTH_UNIT()
NAMED_UNIT(*)
SI_UNIT(.CENTI.,.METRE.)
);
#407=(
NAMED_UNIT(*)
PLANE_ANGLE_UNIT()
SI_UNIT($,.RADIAN.)
);
#408=(
NAMED_UNIT(*)
SI_UNIT($,.STERADIAN.)
SOLID_ANGLE_UNIT()
);
#409=SHAPE_DEFINITION_REPRESENTATION(#410,#411);
#410=PRODUCT_DEFINITION_SHAPE('',$,#413);
#411=SHAPE_REPRESENTATION('',(#240),#403);
#412=DESIGN_CONTEXT('part definition',#417,'design');
#413=PRODUCT_DEFINITION('M10 Hex Nut','M10 Hex Nut',#414,#412);
#414=PRODUCT_DEFINITION_FORMATION('',$,#419);
#415=PRODUCT_RELATED_PRODUCT_CATEGORY('M10 Hex Nut','M10 Hex Nut',(#419));
#416=APPLICATION_PROTOCOL_DEFINITION('international standard',
'ap203_configuration_controlled_3d_design_of_mechanical_parts_and_asse
mblies_mim_lf',2004,#417);
#417=APPLICATION_CONTEXT(
'Configuration Controlled 3D Design of Mechanical Parts and Assemblies');
#418=MECHANICAL_CONTEXT('part definition',#417,'mechanical');
#419=PRODUCT('M10 Hex Nut','M10 Hex Nut',
'Hexagon nuts, style 1 - Product grades A and B',(#418));
#420=PRESENTATION_STYLE_ASSIGNMENT((#421));
#421=SURFACE_STYLE_USAGE(.BOTH.,#424);
#422=SURFACE_STYLE_RENDERING_WITH_PROPERTIES($,#428,(#423));
#423=SURFACE_STYLE_TRANSPARENT(0.);
#424=SURFACE_SIDE_STYLE('',(#425,#422));
#425=SURFACE_STYLE_FILL_AREA(#426);
#426=FILL_AREA_STYLE('',(#427));
#427=FILL_AREA_STYLE_COLOUR('',#428);
#428=COLOUR_RGB('',0.745098039215686,0.737254901960784,0.729411764705882);
ENDSEC;
END-ISO-10303-21;
