ISO-10303-21;
HEADER;
/* Generated by software containing ST-Developer
 * from STEP Tools, Inc. (www.steptools.com) 
 */

FILE_DESCRIPTION(
/* description */ (''),
/* implementation_level */ '2;1');

FILE_NAME(
/* name */ 
'S:\\Future Scope 1\\WIP\\Client Category\\Tom\\02 Progressive Work\\P
endulum Arm Cap.stp',
/* time_stamp */ '2025-11-05T12:14:35+06:00',
/* author */ ('SD'),
/* organization */ (''),
/* preprocessor_version */ 'ST-DEVELOPER v18.1',
/* originating_system */ 'Autodesk Inventor 2021',
/* authorisation */ '');

FILE_SCHEMA (('AUTOMOTIVE_DESIGN { 1 0 10303 214 3 1 1 }'));
ENDSEC;

DATA;
#10=MECHANICAL_DESIGN_GEOMETRIC_PRESENTATION_REPRESENTATION('',(#13),#436);
#11=SHAPE_REPRESENTATION_RELATIONSHIP('SRR','None',#443,#12);
#12=ADVANCED_BREP_SHAPE_REPRESENTATION('',(#14),#435);
#13=STYLED_ITEM('',(#452),#14);
#14=MANIFOLD_SOLID_BREP('Solid1',#200);
#15=FACE_BOUND('',#45,.T.);
#16=FACE_BOUND('',#46,.T.);
#17=FACE_BOUND('',#49,.T.);
#18=FACE_BOUND('',#50,.T.);
#19=FACE_BOUND('',#53,.T.);
#20=PLANE('',#229);
#21=PLANE('',#233);
#22=B_SPLINE_CURVE_WITH_KNOTS('',3,(#321,#322,#323,#324,#325,#326,#327,
#328,#329,#330,#331,#332),.UNSPECIFIED.,.F.,.F.,(4,2,2,2,2,4),(0.612065263579493,
0.662012816761703,0.711960369943913,0.764023694024952,0.790055356065471,
0.81608701810599),.UNSPECIFIED.);
#23=B_SPLINE_CURVE_WITH_KNOTS('',3,(#334,#335,#336,#337,#338,#339,#340,
#341,#342,#343,#344,#345),.UNSPECIFIED.,.F.,.F.,(4,2,2,2,2,4),(0.,0.0260316620405193,
0.0520633240810386,0.104126648162077,0.154074201344287,0.204021754526498),
 .UNSPECIFIED.);
#24=B_SPLINE_CURVE_WITH_KNOTS('',3,(#347,#348,#349,#350,#351,#352,#353,
#354,#355,#356,#357,#358,#359,#360,#361,#362,#363,#364,#365,#366,#367,#368),
 .UNSPECIFIED.,.F.,.F.,(4,2,2,2,2,2,2,2,2,2,4),(0.204021754526498,0.253969307708708,
0.303916860890918,0.355980184971957,0.382011847012476,0.408043509052995,
0.434075171093514,0.460106833134034,0.512170157215072,0.562117710397283,
0.612065263579493),.UNSPECIFIED.);
#25=B_SPLINE_CURVE_WITH_KNOTS('',3,(#393,#394,#395,#396,#397,#398,#399,
#400,#401,#402),.UNSPECIFIED.,.F.,.F.,(4,2,2,2,4),(0.,0.0473060290043967,
0.0946120580087933,0.141911472787507,0.189210887566221),.UNSPECIFIED.);
#26=B_SPLINE_CURVE_WITH_KNOTS('',3,(#403,#404,#405,#406,#407,#408,#409,
#410,#411,#412,#413,#414,#415,#416,#417,#418,#419,#420,#421,#422,#423,#424,
#425,#426,#427,#428),.UNSPECIFIED.,.F.,.F.,(4,2,2,2,2,2,2,2,2,2,2,2,4),
(0.189210887566221,0.236510302344935,0.283809717123649,0.331115746128045,
0.378421775132442,0.425727804136839,0.473033833141235,0.520333247919949,
0.567632662698663,0.614932077477377,0.66223149225609,0.709537521260487,
0.756843550264884),.UNSPECIFIED.);
#27=CONICAL_SURFACE('',#223,1.6,0.785398163397448);
#28=CONICAL_SURFACE('',#231,1.6,0.785398163397448);
#29=CONICAL_SURFACE('',#235,4.75,0.785398163397448);
#30=CONICAL_SURFACE('',#241,4.75,0.785398163397448);
#31=FACE_OUTER_BOUND('',#41,.T.);
#32=FACE_OUTER_BOUND('',#42,.T.);
#33=FACE_OUTER_BOUND('',#43,.T.);
#34=FACE_OUTER_BOUND('',#44,.T.);
#35=FACE_OUTER_BOUND('',#47,.T.);
#36=FACE_OUTER_BOUND('',#48,.T.);
#37=FACE_OUTER_BOUND('',#51,.T.);
#38=FACE_OUTER_BOUND('',#52,.T.);
#39=FACE_OUTER_BOUND('',#54,.T.);
#40=FACE_OUTER_BOUND('',#55,.T.);
#41=EDGE_LOOP('',(#132,#133,#134,#135));
#42=EDGE_LOOP('',(#136,#137,#138,#139));
#43=EDGE_LOOP('',(#140,#141,#142,#143,#144,#145,#146,#147,#148,#149));
#44=EDGE_LOOP('',(#150));
#45=EDGE_LOOP('',(#151));
#46=EDGE_LOOP('',(#152));
#47=EDGE_LOOP('',(#153,#154,#155,#156,#157));
#48=EDGE_LOOP('',(#158));
#49=EDGE_LOOP('',(#159));
#50=EDGE_LOOP('',(#160));
#51=EDGE_LOOP('',(#161,#162,#163,#164,#165));
#52=EDGE_LOOP('',(#166,#167,#168,#169,#170,#171));
#53=EDGE_LOOP('',(#172,#173));
#54=EDGE_LOOP('',(#174,#175,#176,#177,#178));
#55=EDGE_LOOP('',(#179,#180,#181,#182,#183,#184,#185));
#56=LINE('',#305,#65);
#57=LINE('',#311,#66);
#58=LINE('',#319,#67);
#59=LINE('',#346,#68);
#60=LINE('',#375,#69);
#61=LINE('',#381,#70);
#62=LINE('',#390,#71);
#63=LINE('',#430,#72);
#64=LINE('',#432,#73);
#65=VECTOR('',#249,0.25);
#66=VECTOR('',#256,1.6);
#67=VECTOR('',#265,1.5);
#68=VECTOR('',#266,1.5);
#69=VECTOR('',#275,1.6);
#70=VECTOR('',#282,4.75);
#71=VECTOR('',#293,5.);
#72=VECTOR('',#296,4.75);
#73=VECTOR('',#299,1.25);
#74=CIRCLE('',#221,0.25);
#75=CIRCLE('',#222,0.25);
#76=CIRCLE('',#224,1.7);
#77=CIRCLE('',#225,1.5);
#78=CIRCLE('',#227,1.5);
#79=CIRCLE('',#228,1.5);
#80=CIRCLE('',#230,4.5);
#81=CIRCLE('',#232,1.7);
#82=CIRCLE('',#234,4.5);
#83=CIRCLE('',#236,5.);
#84=CIRCLE('',#237,5.);
#85=CIRCLE('',#239,5.);
#86=CIRCLE('',#240,5.);
#87=VERTEX_POINT('',#302);
#88=VERTEX_POINT('',#304);
#89=VERTEX_POINT('',#308);
#90=VERTEX_POINT('',#310);
#91=VERTEX_POINT('',#314);
#92=VERTEX_POINT('',#315);
#93=VERTEX_POINT('',#318);
#94=VERTEX_POINT('',#320);
#95=VERTEX_POINT('',#333);
#96=VERTEX_POINT('',#370);
#97=VERTEX_POINT('',#373);
#98=VERTEX_POINT('',#377);
#99=VERTEX_POINT('',#380);
#100=VERTEX_POINT('',#382);
#101=VERTEX_POINT('',#386);
#102=VERTEX_POINT('',#387);
#103=VERTEX_POINT('',#391);
#104=VERTEX_POINT('',#392);
#105=EDGE_CURVE('',#87,#87,#74,.T.);
#106=EDGE_CURVE('',#87,#88,#56,.T.);
#107=EDGE_CURVE('',#88,#88,#75,.T.);
#108=EDGE_CURVE('',#89,#89,#76,.T.);
#109=EDGE_CURVE('',#89,#90,#57,.T.);
#110=EDGE_CURVE('',#90,#90,#77,.T.);
#111=EDGE_CURVE('',#91,#92,#78,.T.);
#112=EDGE_CURVE('',#92,#91,#79,.T.);
#113=EDGE_CURVE('',#92,#93,#58,.T.);
#114=EDGE_CURVE('',#93,#94,#22,.T.);
#115=EDGE_CURVE('',#94,#95,#23,.T.);
#116=EDGE_CURVE('',#95,#90,#59,.T.);
#117=EDGE_CURVE('',#95,#93,#24,.T.);
#118=EDGE_CURVE('',#96,#96,#80,.T.);
#119=EDGE_CURVE('',#97,#97,#81,.T.);
#120=EDGE_CURVE('',#97,#91,#60,.T.);
#121=EDGE_CURVE('',#98,#98,#82,.T.);
#122=EDGE_CURVE('',#96,#99,#61,.T.);
#123=EDGE_CURVE('',#99,#100,#83,.T.);
#124=EDGE_CURVE('',#100,#99,#84,.T.);
#125=EDGE_CURVE('',#101,#102,#85,.T.);
#126=EDGE_CURVE('',#102,#101,#86,.T.);
#127=EDGE_CURVE('',#102,#100,#62,.T.);
#128=EDGE_CURVE('',#103,#104,#25,.T.);
#129=EDGE_CURVE('',#104,#103,#26,.T.);
#130=EDGE_CURVE('',#98,#101,#63,.T.);
#131=EDGE_CURVE('',#95,#104,#64,.T.);
#132=ORIENTED_EDGE('',*,*,#105,.F.);
#133=ORIENTED_EDGE('',*,*,#106,.T.);
#134=ORIENTED_EDGE('',*,*,#107,.F.);
#135=ORIENTED_EDGE('',*,*,#106,.F.);
#136=ORIENTED_EDGE('',*,*,#108,.T.);
#137=ORIENTED_EDGE('',*,*,#109,.T.);
#138=ORIENTED_EDGE('',*,*,#110,.T.);
#139=ORIENTED_EDGE('',*,*,#109,.F.);
#140=ORIENTED_EDGE('',*,*,#111,.F.);
#141=ORIENTED_EDGE('',*,*,#112,.F.);
#142=ORIENTED_EDGE('',*,*,#113,.T.);
#143=ORIENTED_EDGE('',*,*,#114,.T.);
#144=ORIENTED_EDGE('',*,*,#115,.T.);
#145=ORIENTED_EDGE('',*,*,#116,.T.);
#146=ORIENTED_EDGE('',*,*,#110,.F.);
#147=ORIENTED_EDGE('',*,*,#116,.F.);
#148=ORIENTED_EDGE('',*,*,#117,.T.);
#149=ORIENTED_EDGE('',*,*,#113,.F.);
#150=ORIENTED_EDGE('',*,*,#118,.F.);
#151=ORIENTED_EDGE('',*,*,#107,.T.);
#152=ORIENTED_EDGE('',*,*,#108,.F.);
#153=ORIENTED_EDGE('',*,*,#119,.T.);
#154=ORIENTED_EDGE('',*,*,#120,.T.);
#155=ORIENTED_EDGE('',*,*,#111,.T.);
#156=ORIENTED_EDGE('',*,*,#112,.T.);
#157=ORIENTED_EDGE('',*,*,#120,.F.);
#158=ORIENTED_EDGE('',*,*,#121,.F.);
#159=ORIENTED_EDGE('',*,*,#105,.T.);
#160=ORIENTED_EDGE('',*,*,#119,.F.);
#161=ORIENTED_EDGE('',*,*,#118,.T.);
#162=ORIENTED_EDGE('',*,*,#122,.T.);
#163=ORIENTED_EDGE('',*,*,#123,.T.);
#164=ORIENTED_EDGE('',*,*,#124,.T.);
#165=ORIENTED_EDGE('',*,*,#122,.F.);
#166=ORIENTED_EDGE('',*,*,#125,.F.);
#167=ORIENTED_EDGE('',*,*,#126,.F.);
#168=ORIENTED_EDGE('',*,*,#127,.T.);
#169=ORIENTED_EDGE('',*,*,#123,.F.);
#170=ORIENTED_EDGE('',*,*,#124,.F.);
#171=ORIENTED_EDGE('',*,*,#127,.F.);
#172=ORIENTED_EDGE('',*,*,#128,.T.);
#173=ORIENTED_EDGE('',*,*,#129,.T.);
#174=ORIENTED_EDGE('',*,*,#121,.T.);
#175=ORIENTED_EDGE('',*,*,#130,.T.);
#176=ORIENTED_EDGE('',*,*,#125,.T.);
#177=ORIENTED_EDGE('',*,*,#126,.T.);
#178=ORIENTED_EDGE('',*,*,#130,.F.);
#179=ORIENTED_EDGE('',*,*,#115,.F.);
#180=ORIENTED_EDGE('',*,*,#114,.F.);
#181=ORIENTED_EDGE('',*,*,#117,.F.);
#182=ORIENTED_EDGE('',*,*,#131,.T.);
#183=ORIENTED_EDGE('',*,*,#128,.F.);
#184=ORIENTED_EDGE('',*,*,#129,.F.);
#185=ORIENTED_EDGE('',*,*,#131,.F.);
#186=CYLINDRICAL_SURFACE('',#220,0.25);
#187=CYLINDRICAL_SURFACE('',#226,1.5);
#188=CYLINDRICAL_SURFACE('',#238,5.);
#189=CYLINDRICAL_SURFACE('',#242,1.25);
#190=ADVANCED_FACE('',(#31),#186,.F.);
#191=ADVANCED_FACE('',(#32),#27,.F.);
#192=ADVANCED_FACE('',(#33),#187,.F.);
#193=ADVANCED_FACE('',(#34,#15,#16),#20,.F.);
#194=ADVANCED_FACE('',(#35),#28,.F.);
#195=ADVANCED_FACE('',(#36,#17,#18),#21,.T.);
#196=ADVANCED_FACE('',(#37),#29,.T.);
#197=ADVANCED_FACE('',(#38,#19),#188,.T.);
#198=ADVANCED_FACE('',(#39),#30,.T.);
#199=ADVANCED_FACE('',(#40),#189,.F.);
#200=CLOSED_SHELL('',(#190,#191,#192,#193,#194,#195,#196,#197,#198,#199));
#201=DERIVED_UNIT_ELEMENT(#203,1.);
#202=DERIVED_UNIT_ELEMENT(#438,3.);
#203=(
MASS_UNIT()
NAMED_UNIT(*)
SI_UNIT($,.GRAM.)
);
#204=DERIVED_UNIT((#201,#202));
#205=MEASURE_REPRESENTATION_ITEM('density measure',
POSITIVE_RATIO_MEASURE(8.),#204);
#206=PROPERTY_DEFINITION_REPRESENTATION(#211,#208);
#207=PROPERTY_DEFINITION_REPRESENTATION(#212,#209);
#208=REPRESENTATION('material name',(#210),#435);
#209=REPRESENTATION('density',(#205),#435);
#210=DESCRIPTIVE_REPRESENTATION_ITEM('Stainless Steel',
'Stainless Steel');
#211=PROPERTY_DEFINITION('material property','material name',#445);
#212=PROPERTY_DEFINITION('material property','density of part',#445);
#213=DATE_TIME_ROLE('creation_date');
#214=APPLIED_DATE_AND_TIME_ASSIGNMENT(#215,#213,(#445));
#215=DATE_AND_TIME(#216,#217);
#216=CALENDAR_DATE(2025,16,9);
#217=LOCAL_TIME(0,0,0.,#218);
#218=COORDINATED_UNIVERSAL_TIME_OFFSET(0,0,.BEHIND.);
#219=AXIS2_PLACEMENT_3D('placement',#300,#243,#244);
#220=AXIS2_PLACEMENT_3D('',#301,#245,#246);
#221=AXIS2_PLACEMENT_3D('',#303,#247,#248);
#222=AXIS2_PLACEMENT_3D('',#306,#250,#251);
#223=AXIS2_PLACEMENT_3D('',#307,#252,#253);
#224=AXIS2_PLACEMENT_3D('',#309,#254,#255);
#225=AXIS2_PLACEMENT_3D('',#312,#257,#258);
#226=AXIS2_PLACEMENT_3D('',#313,#259,#260);
#227=AXIS2_PLACEMENT_3D('',#316,#261,#262);
#228=AXIS2_PLACEMENT_3D('',#317,#263,#264);
#229=AXIS2_PLACEMENT_3D('',#369,#267,#268);
#230=AXIS2_PLACEMENT_3D('',#371,#269,#270);
#231=AXIS2_PLACEMENT_3D('',#372,#271,#272);
#232=AXIS2_PLACEMENT_3D('',#374,#273,#274);
#233=AXIS2_PLACEMENT_3D('',#376,#276,#277);
#234=AXIS2_PLACEMENT_3D('',#378,#278,#279);
#235=AXIS2_PLACEMENT_3D('',#379,#280,#281);
#236=AXIS2_PLACEMENT_3D('',#383,#283,#284);
#237=AXIS2_PLACEMENT_3D('',#384,#285,#286);
#238=AXIS2_PLACEMENT_3D('',#385,#287,#288);
#239=AXIS2_PLACEMENT_3D('',#388,#289,#290);
#240=AXIS2_PLACEMENT_3D('',#389,#291,#292);
#241=AXIS2_PLACEMENT_3D('',#429,#294,#295);
#242=AXIS2_PLACEMENT_3D('',#431,#297,#298);
#243=DIRECTION('axis',(0.,0.,1.));
#244=DIRECTION('refdir',(1.,0.,0.));
#245=DIRECTION('center_axis',(0.,1.,0.));
#246=DIRECTION('ref_axis',(1.,0.,0.));
#247=DIRECTION('center_axis',(0.,-1.,0.));
#248=DIRECTION('ref_axis',(1.,0.,0.));
#249=DIRECTION('',(0.,-1.,0.));
#250=DIRECTION('center_axis',(0.,1.,0.));
#251=DIRECTION('ref_axis',(1.,0.,0.));
#252=DIRECTION('center_axis',(0.,-1.,0.));
#253=DIRECTION('ref_axis',(1.,0.,0.));
#254=DIRECTION('center_axis',(0.,-1.,0.));
#255=DIRECTION('ref_axis',(1.,0.,0.));
#256=DIRECTION('',(0.707106781186548,0.707106781186548,8.65956056235493E-17));
#257=DIRECTION('center_axis',(0.,1.,0.));
#258=DIRECTION('ref_axis',(1.,0.,0.));
#259=DIRECTION('center_axis',(0.,-1.,0.));
#260=DIRECTION('ref_axis',(1.,0.,0.));
#261=DIRECTION('center_axis',(0.,-1.,0.));
#262=DIRECTION('ref_axis',(-1.,0.,0.));
#263=DIRECTION('center_axis',(0.,-1.,0.));
#264=DIRECTION('ref_axis',(-1.,0.,0.));
#265=DIRECTION('',(0.,-1.,0.));
#266=DIRECTION('',(0.,-1.,0.));
#267=DIRECTION('center_axis',(0.,1.,0.));
#268=DIRECTION('ref_axis',(0.,0.,1.));
#269=DIRECTION('center_axis',(0.,1.,0.));
#270=DIRECTION('ref_axis',(1.,0.,0.));
#271=DIRECTION('center_axis',(0.,1.,0.));
#272=DIRECTION('ref_axis',(-1.,0.,0.));
#273=DIRECTION('center_axis',(0.,1.,0.));
#274=DIRECTION('ref_axis',(-1.,0.,0.));
#275=DIRECTION('',(-0.707106781186548,-0.707106781186548,8.65956056235493E-17));
#276=DIRECTION('center_axis',(0.,1.,0.));
#277=DIRECTION('ref_axis',(0.,0.,1.));
#278=DIRECTION('center_axis',(0.,-1.,0.));
#279=DIRECTION('ref_axis',(1.,0.,0.));
#280=DIRECTION('center_axis',(0.,1.,0.));
#281=DIRECTION('ref_axis',(1.,0.,0.));
#282=DIRECTION('',(-0.707106781186548,0.707106781186548,-8.65956056235493E-17));
#283=DIRECTION('center_axis',(0.,-1.,0.));
#284=DIRECTION('ref_axis',(1.,0.,0.));
#285=DIRECTION('center_axis',(0.,-1.,0.));
#286=DIRECTION('ref_axis',(1.,0.,0.));
#287=DIRECTION('center_axis',(0.,1.,0.));
#288=DIRECTION('ref_axis',(-1.,0.,0.));
#289=DIRECTION('center_axis',(0.,1.,0.));
#290=DIRECTION('ref_axis',(1.,0.,0.));
#291=DIRECTION('center_axis',(0.,1.,0.));
#292=DIRECTION('ref_axis',(1.,0.,0.));
#293=DIRECTION('',(0.,-1.,0.));
#294=DIRECTION('center_axis',(0.,-1.,0.));
#295=DIRECTION('ref_axis',(1.,0.,0.));
#296=DIRECTION('',(-0.707106781186548,-0.707106781186548,8.65956056235493E-17));
#297=DIRECTION('center_axis',(-1.,0.,0.));
#298=DIRECTION('ref_axis',(0.,1.,0.));
#299=DIRECTION('',(-1.,0.,0.));
#300=CARTESIAN_POINT('',(0.,0.,0.));
#301=CARTESIAN_POINT('Origin',(0.,-12.3631637646,3.));
#302=CARTESIAN_POINT('',(-0.25,3.,3.));
#303=CARTESIAN_POINT('Origin',(0.,3.,3.));
#304=CARTESIAN_POINT('',(-0.25,-3.,3.));
#305=CARTESIAN_POINT('',(-0.25,-12.3631637646,3.));
#306=CARTESIAN_POINT('Origin',(0.,-3.,3.));
#307=CARTESIAN_POINT('Origin',(0.,-2.9,0.));
#308=CARTESIAN_POINT('',(-1.7,-3.,-2.0818995585505E-16));
#309=CARTESIAN_POINT('Origin',(0.,-3.,0.));
#310=CARTESIAN_POINT('',(-1.5,-2.8,1.83697019872103E-16));
#311=CARTESIAN_POINT('',(-1.6,-2.9,-1.95943487863577E-16));
#312=CARTESIAN_POINT('Origin',(0.,-2.8,0.));
#313=CARTESIAN_POINT('Origin',(0.,3.,0.));
#314=CARTESIAN_POINT('',(1.5,2.8,1.83697019872103E-16));
#315=CARTESIAN_POINT('',(-1.5,2.8,-1.83697019872103E-16));
#316=CARTESIAN_POINT('Origin',(0.,2.8,0.));
#317=CARTESIAN_POINT('Origin',(0.,2.8,0.));
#318=CARTESIAN_POINT('',(-1.5,1.25,-6.58276577963994E-17));
#319=CARTESIAN_POINT('',(-1.5,3.,-1.83697019872103E-16));
#320=CARTESIAN_POINT('',(-0.82915619758885,0.,-1.25));
#321=CARTESIAN_POINT('Ctrl Pts',(-1.5,1.25,3.46944695195361E-17));
#322=CARTESIAN_POINT('Ctrl Pts',(-1.5,1.25,-0.166491843940701));
#323=CARTESIAN_POINT('Ctrl Pts',(-1.47030878941013,1.2148146452181,-0.33830543469847));
#324=CARTESIAN_POINT('Ctrl Pts',(-1.36413553461512,1.08389686908703,-0.644509590624832));
#325=CARTESIAN_POINT('Ctrl Pts',(-1.28823137590803,0.988516412419769,-0.7792505405466));
#326=CARTESIAN_POINT('Ctrl Pts',(-1.13237601279511,0.774818304995321,-0.992948647971048));
#327=CARTESIAN_POINT('Ctrl Pts',(-1.03937824653931,0.639940357040646,-1.08610098785052));
#328=CARTESIAN_POINT('Ctrl Pts',(-0.924819916802826,0.414693939870477,-1.18202736899835));
#329=CARTESIAN_POINT('Ctrl Pts',(-0.891082305756661,0.335711099972688,-1.20698832546715));
#330=CARTESIAN_POINT('Ctrl Pts',(-0.843145321188763,0.171778063137239,-1.24096077215459));
#331=CARTESIAN_POINT('Ctrl Pts',(-0.82915619758885,0.0867722068017311,-1.25));
#332=CARTESIAN_POINT('Ctrl Pts',(-0.82915619758885,0.,-1.25));
#333=CARTESIAN_POINT('',(-1.5,-1.25,2.0908516002441E-17));
#334=CARTESIAN_POINT('Ctrl Pts',(-0.82915619758885,0.,-1.25));
#335=CARTESIAN_POINT('Ctrl Pts',(-0.82915619758885,-0.086772206801731,-1.25));
#336=CARTESIAN_POINT('Ctrl Pts',(-0.843145321188762,-0.171778063137238,
-1.24096077215459));
#337=CARTESIAN_POINT('Ctrl Pts',(-0.89108230575666,-0.335711099972688,-1.20698832546715));
#338=CARTESIAN_POINT('Ctrl Pts',(-0.924819916802826,-0.414693939870477,
-1.18202736899835));
#339=CARTESIAN_POINT('Ctrl Pts',(-1.03937824653931,-0.639940357040646,-1.08610098785052));
#340=CARTESIAN_POINT('Ctrl Pts',(-1.13237601279511,-0.774818304995321,-0.992948647971048));
#341=CARTESIAN_POINT('Ctrl Pts',(-1.28823137590803,-0.988516412419769,-0.7792505405466));
#342=CARTESIAN_POINT('Ctrl Pts',(-1.36413553461512,-1.08389686908703,-0.644509590624832));
#343=CARTESIAN_POINT('Ctrl Pts',(-1.47030878941013,-1.2148146452181,-0.33830543469847));
#344=CARTESIAN_POINT('Ctrl Pts',(-1.5,-1.25,-0.166491843940701));
#345=CARTESIAN_POINT('Ctrl Pts',(-1.5,-1.25,3.46944695195361E-17));
#346=CARTESIAN_POINT('',(-1.5,3.,-1.83697019872103E-16));
#347=CARTESIAN_POINT('Ctrl Pts',(-1.5,-1.25,1.90819582357449E-16));
#348=CARTESIAN_POINT('Ctrl Pts',(-1.5,-1.25,0.166491843940701));
#349=CARTESIAN_POINT('Ctrl Pts',(-1.47030878941013,-1.2148146452181,0.33830543469847));
#350=CARTESIAN_POINT('Ctrl Pts',(-1.36413553461512,-1.08389686908703,0.644509590624832));
#351=CARTESIAN_POINT('Ctrl Pts',(-1.28823137590803,-0.988516412419769,0.7792505405466));
#352=CARTESIAN_POINT('Ctrl Pts',(-1.13237601279511,-0.774818304995321,0.992948647971048));
#353=CARTESIAN_POINT('Ctrl Pts',(-1.03937824653931,-0.639940357040646,1.08610098785052));
#354=CARTESIAN_POINT('Ctrl Pts',(-0.924819916802826,-0.414693939870477,
1.18202736899835));
#355=CARTESIAN_POINT('Ctrl Pts',(-0.89108230575666,-0.335711099972688,1.20698832546715));
#356=CARTESIAN_POINT('Ctrl Pts',(-0.843145321188763,-0.171778063137238,
1.24096077215459));
#357=CARTESIAN_POINT('Ctrl Pts',(-0.82915619758885,-0.0867722068017309,
1.25));
#358=CARTESIAN_POINT('Ctrl Pts',(-0.82915619758885,0.0867722068017309,1.25));
#359=CARTESIAN_POINT('Ctrl Pts',(-0.843145321188763,0.171778063137238,1.24096077215459));
#360=CARTESIAN_POINT('Ctrl Pts',(-0.89108230575666,0.335711099972688,1.20698832546715));
#361=CARTESIAN_POINT('Ctrl Pts',(-0.924819916802826,0.414693939870477,1.18202736899835));
#362=CARTESIAN_POINT('Ctrl Pts',(-1.03937824653931,0.639940357040646,1.08610098785052));
#363=CARTESIAN_POINT('Ctrl Pts',(-1.13237601279511,0.774818304995321,0.992948647971048));
#364=CARTESIAN_POINT('Ctrl Pts',(-1.28823137590803,0.988516412419769,0.7792505405466));
#365=CARTESIAN_POINT('Ctrl Pts',(-1.36413553461512,1.08389686908703,0.644509590624832));
#366=CARTESIAN_POINT('Ctrl Pts',(-1.47030878941013,1.2148146452181,0.33830543469847));
#367=CARTESIAN_POINT('Ctrl Pts',(-1.5,1.25,0.166491843940701));
#368=CARTESIAN_POINT('Ctrl Pts',(-1.5,1.25,3.46944695195361E-17));
#369=CARTESIAN_POINT('Origin',(0.,-3.,0.));
#370=CARTESIAN_POINT('',(-4.5,-3.,5.51091059616309E-16));
#371=CARTESIAN_POINT('Origin',(0.,-3.,0.));
#372=CARTESIAN_POINT('Origin',(0.,2.9,0.));
#373=CARTESIAN_POINT('',(1.7,3.,-2.0818995585505E-16));
#374=CARTESIAN_POINT('Origin',(0.,3.,0.));
#375=CARTESIAN_POINT('',(1.6,2.9,-1.95943487863577E-16));
#376=CARTESIAN_POINT('Origin',(0.,3.,0.));
#377=CARTESIAN_POINT('',(-4.5,3.,-5.51091059616309E-16));
#378=CARTESIAN_POINT('Origin',(0.,3.,0.));
#379=CARTESIAN_POINT('Origin',(0.,-2.75,0.));
#380=CARTESIAN_POINT('',(-5.,-2.5,-6.12323399573677E-16));
#381=CARTESIAN_POINT('',(-4.75,-2.75,-5.81707229594993E-16));
#382=CARTESIAN_POINT('',(5.,-2.5,-6.12323399573677E-16));
#383=CARTESIAN_POINT('Origin',(0.,-2.5,0.));
#384=CARTESIAN_POINT('Origin',(0.,-2.5,0.));
#385=CARTESIAN_POINT('Origin',(0.,0.,0.));
#386=CARTESIAN_POINT('',(-5.,2.5,6.12323399573677E-16));
#387=CARTESIAN_POINT('',(5.,2.5,-6.12323399573677E-16));
#388=CARTESIAN_POINT('Origin',(0.,2.5,0.));
#389=CARTESIAN_POINT('Origin',(0.,2.5,0.));
#390=CARTESIAN_POINT('',(5.,0.,-6.12323399573677E-16));
#391=CARTESIAN_POINT('',(-4.84122918275927,6.93889390390723E-17,1.25));
#392=CARTESIAN_POINT('',(-5.,-1.25,1.53080849893419E-16));
#393=CARTESIAN_POINT('Ctrl Pts',(-4.84122918275927,6.93889390390723E-17,
1.25));
#394=CARTESIAN_POINT('Ctrl Pts',(-4.84122918275927,-0.157686763347989,1.25));
#395=CARTESIAN_POINT('Ctrl Pts',(-4.84973579332106,-0.325402135013125,1.21834881761244));
#396=CARTESIAN_POINT('Ctrl Pts',(-4.88005597223663,-0.633163356288041,1.09057998139517));
#397=CARTESIAN_POINT('Ctrl Pts',(-4.90138825645426,-0.773270568184096,0.994496384782273));
#398=CARTESIAN_POINT('Ctrl Pts',(-4.94111880834681,-0.994480919126958,0.773286033839411));
#399=CARTESIAN_POINT('Ctrl Pts',(-4.96215629725421,-1.09057657413409,0.633172380752555));
#400=CARTESIAN_POINT('Ctrl Pts',(-4.99179575122445,-1.21835421378757,0.325388319770619));
#401=CARTESIAN_POINT('Ctrl Pts',(-5.,-1.25,0.157664715929046));
#402=CARTESIAN_POINT('Ctrl Pts',(-5.,-1.25,-1.38777878078145E-16));
#403=CARTESIAN_POINT('Ctrl Pts',(-5.,-1.25,-1.38777878078145E-16));
#404=CARTESIAN_POINT('Ctrl Pts',(-5.,-1.25,-0.157664715929046));
#405=CARTESIAN_POINT('Ctrl Pts',(-4.99179575122445,-1.21835421378757,-0.32538831977062));
#406=CARTESIAN_POINT('Ctrl Pts',(-4.96215629725421,-1.09057657413409,-0.633172380752555));
#407=CARTESIAN_POINT('Ctrl Pts',(-4.94111880834681,-0.994480919126958,-0.773286033839411));
#408=CARTESIAN_POINT('Ctrl Pts',(-4.90138825645426,-0.773270568184096,-0.994496384782273));
#409=CARTESIAN_POINT('Ctrl Pts',(-4.88005597223663,-0.633163356288041,-1.09057998139517));
#410=CARTESIAN_POINT('Ctrl Pts',(-4.84973579332106,-0.325402135013125,-1.21834881761244));
#411=CARTESIAN_POINT('Ctrl Pts',(-4.84122918275927,-0.157686763347989,-1.25));
#412=CARTESIAN_POINT('Ctrl Pts',(-4.84122918275927,0.157686763347989,-1.25));
#413=CARTESIAN_POINT('Ctrl Pts',(-4.84973579332106,0.325402135013125,-1.21834881761244));
#414=CARTESIAN_POINT('Ctrl Pts',(-4.88005597223663,0.633163356288041,-1.09057998139517));
#415=CARTESIAN_POINT('Ctrl Pts',(-4.90138825645426,0.773270568184096,-0.994496384782273));
#416=CARTESIAN_POINT('Ctrl Pts',(-4.94111880834681,0.994480919126958,-0.773286033839411));
#417=CARTESIAN_POINT('Ctrl Pts',(-4.96215629725421,1.09057657413409,-0.633172380752555));
#418=CARTESIAN_POINT('Ctrl Pts',(-4.99179575122445,1.21835421378757,-0.325388319770619));
#419=CARTESIAN_POINT('Ctrl Pts',(-5.,1.25,-0.157664715929046));
#420=CARTESIAN_POINT('Ctrl Pts',(-5.,1.25,0.157664715929046));
#421=CARTESIAN_POINT('Ctrl Pts',(-4.99179575122445,1.21835421378757,0.325388319770619));
#422=CARTESIAN_POINT('Ctrl Pts',(-4.96215629725421,1.09057657413409,0.633172380752555));
#423=CARTESIAN_POINT('Ctrl Pts',(-4.94111880834681,0.994480919126958,0.773286033839411));
#424=CARTESIAN_POINT('Ctrl Pts',(-4.90138825645426,0.773270568184096,0.994496384782273));
#425=CARTESIAN_POINT('Ctrl Pts',(-4.88005597223663,0.633163356288041,1.09057998139517));
#426=CARTESIAN_POINT('Ctrl Pts',(-4.84973579332106,0.325402135013126,1.21834881761244));
#427=CARTESIAN_POINT('Ctrl Pts',(-4.84122918275927,0.157686763347989,1.25));
#428=CARTESIAN_POINT('Ctrl Pts',(-4.84122918275927,0.,1.25));
#429=CARTESIAN_POINT('Origin',(0.,2.75,0.));
#430=CARTESIAN_POINT('',(-4.75,2.75,5.81707229594993E-16));
#431=CARTESIAN_POINT('Origin',(0.,0.,0.));
#432=CARTESIAN_POINT('',(0.,-1.25,1.53080849893419E-16));
#433=UNCERTAINTY_MEASURE_WITH_UNIT(LENGTH_MEASURE(0.01),#437,
'DISTANCE_ACCURACY_VALUE',
'Maximum model space distance between geometric entities at asserted c
onnectivities');
#434=UNCERTAINTY_MEASURE_WITH_UNIT(LENGTH_MEASURE(0.01),#437,
'DISTANCE_ACCURACY_VALUE',
'Maximum model space distance between geometric entities at asserted c
onnectivities');
#435=(
GEOMETRIC_REPRESENTATION_CONTEXT(3)
GLOBAL_UNCERTAINTY_ASSIGNED_CONTEXT((#433))
GLOBAL_UNIT_ASSIGNED_CONTEXT((#437,#439,#440))
REPRESENTATION_CONTEXT('','3D')
);
#436=(
GEOMETRIC_REPRESENTATION_CONTEXT(3)
GLOBAL_UNCERTAINTY_ASSIGNED_CONTEXT((#434))
GLOBAL_UNIT_ASSIGNED_CONTEXT((#437,#439,#440))
REPRESENTATION_CONTEXT('','3D')
);
#437=(
LENGTH_UNIT()
NAMED_UNIT(*)
SI_UNIT(.MILLI.,.METRE.)
);
#438=(
LENGTH_UNIT()
NAMED_UNIT(*)
SI_UNIT(.CENTI.,.METRE.)
);
#439=(
NAMED_UNIT(*)
PLANE_ANGLE_UNIT()
SI_UNIT($,.RADIAN.)
);
#440=(
NAMED_UNIT(*)
SI_UNIT($,.STERADIAN.)
SOLID_ANGLE_UNIT()
);
#441=SHAPE_DEFINITION_REPRESENTATION(#442,#443);
#442=PRODUCT_DEFINITION_SHAPE('',$,#445);
#443=SHAPE_REPRESENTATION('',(#219),#435);
#444=PRODUCT_DEFINITION_CONTEXT('part definition',#449,'design');
#445=PRODUCT_DEFINITION('Pendulum Arm Cap','Pendulum Arm Cap',#446,#444);
#446=PRODUCT_DEFINITION_FORMATION('',$,#451);
#447=PRODUCT_RELATED_PRODUCT_CATEGORY('Pendulum Arm Cap',
'Pendulum Arm Cap',(#451));
#448=APPLICATION_PROTOCOL_DEFINITION('international standard',
'automotive_design',2009,#449);
#449=APPLICATION_CONTEXT(
'Core Data for Automotive Mechanical Design Process');
#450=PRODUCT_CONTEXT('part definition',#449,'mechanical');
#451=PRODUCT('Pendulum Arm Cap','Pendulum Arm Cap',$,(#450));
#452=PRESENTATION_STYLE_ASSIGNMENT((#453));
#453=SURFACE_STYLE_USAGE(.BOTH.,#456);
#454=SURFACE_STYLE_RENDERING_WITH_PROPERTIES($,#460,(#455));
#455=SURFACE_STYLE_TRANSPARENT(0.);
#456=SURFACE_SIDE_STYLE('',(#457,#454));
#457=SURFACE_STYLE_FILL_AREA(#458);
#458=FILL_AREA_STYLE('',(#459));
#459=FILL_AREA_STYLE_COLOUR('',#460);
#460=COLOUR_RGB('',0.745098039215686,0.737254901960784,0.729411764705882);
ENDSEC;
END-ISO-10303-21;
