ISO-10303-21;
HEADER;
/* Generated by software containing ST-Developer
 * from STEP Tools, Inc. (www.steptools.com) 
 */

FILE_DESCRIPTION(
/* description */ (''),
/* implementation_level */ '2;1');

FILE_NAME(
/* name */ 
'S:\\Future Scope 1\\WIP\\Client Category\\Tom\\02 Progressive Work\\P
latform.stp',
/* time_stamp */ '2025-11-05T12:14:34+06:00',
/* author */ ('SD'),
/* organization */ (''),
/* preprocessor_version */ 'ST-DEVELOPER v18.1',
/* originating_system */ 'Autodesk Inventor 2021',
/* authorisation */ '');

FILE_SCHEMA (('AUTOMOTIVE_DESIGN { 1 0 10303 214 3 1 1 }'));
ENDSEC;

DATA;
#10=MECHANICAL_DESIGN_GEOMETRIC_PRESENTATION_REPRESENTATION('',(#13),#653);
#11=SHAPE_REPRESENTATION_RELATIONSHIP('SRR','None',#660,#12);
#12=ADVANCED_BREP_SHAPE_REPRESENTATION('',(#14),#652);
#13=STYLED_ITEM('',(#669),#14);
#14=MANIFOLD_SOLID_BREP('Solid1',#373);
#15=FACE_BOUND('',#72,.T.);
#16=FACE_BOUND('',#73,.T.);
#17=FACE_BOUND('',#85,.T.);
#18=FACE_BOUND('',#86,.T.);
#19=PLANE('',#406);
#20=PLANE('',#407);
#21=PLANE('',#411);
#22=PLANE('',#415);
#23=PLANE('',#417);
#24=PLANE('',#420);
#25=PLANE('',#424);
#26=PLANE('',#426);
#27=PLANE('',#427);
#28=PLANE('',#428);
#29=PLANE('',#429);
#30=PLANE('',#432);
#31=CYLINDRICAL_SURFACE('',#396,1.75);
#32=CYLINDRICAL_SURFACE('',#401,1.75);
#33=CYLINDRICAL_SURFACE('',#403,1.);
#34=CYLINDRICAL_SURFACE('',#409,1.);
#35=CYLINDRICAL_SURFACE('',#412,1.);
#36=CYLINDRICAL_SURFACE('',#418,1.);
#37=CYLINDRICAL_SURFACE('',#421,5.50000000000002);
#38=CYLINDRICAL_SURFACE('',#431,2.50000000000002);
#39=FACE_OUTER_BOUND('',#61,.T.);
#40=FACE_OUTER_BOUND('',#62,.T.);
#41=FACE_OUTER_BOUND('',#63,.T.);
#42=FACE_OUTER_BOUND('',#64,.T.);
#43=FACE_OUTER_BOUND('',#65,.T.);
#44=FACE_OUTER_BOUND('',#66,.T.);
#45=FACE_OUTER_BOUND('',#67,.T.);
#46=FACE_OUTER_BOUND('',#68,.T.);
#47=FACE_OUTER_BOUND('',#69,.T.);
#48=FACE_OUTER_BOUND('',#70,.T.);
#49=FACE_OUTER_BOUND('',#71,.T.);
#50=FACE_OUTER_BOUND('',#74,.T.);
#51=FACE_OUTER_BOUND('',#75,.T.);
#52=FACE_OUTER_BOUND('',#76,.T.);
#53=FACE_OUTER_BOUND('',#77,.T.);
#54=FACE_OUTER_BOUND('',#78,.T.);
#55=FACE_OUTER_BOUND('',#79,.T.);
#56=FACE_OUTER_BOUND('',#80,.T.);
#57=FACE_OUTER_BOUND('',#81,.T.);
#58=FACE_OUTER_BOUND('',#82,.T.);
#59=FACE_OUTER_BOUND('',#83,.T.);
#60=FACE_OUTER_BOUND('',#84,.T.);
#61=EDGE_LOOP('',(#249,#250,#251,#252));
#62=EDGE_LOOP('',(#253,#254,#255,#256));
#63=EDGE_LOOP('',(#257,#258,#259,#260));
#64=EDGE_LOOP('',(#261,#262,#263,#264));
#65=EDGE_LOOP('',(#265,#266,#267,#268));
#66=EDGE_LOOP('',(#269,#270,#271,#272));
#67=EDGE_LOOP('',(#273,#274,#275,#276,#277,#278));
#68=EDGE_LOOP('',(#279,#280,#281,#282));
#69=EDGE_LOOP('',(#283,#284,#285,#286));
#70=EDGE_LOOP('',(#287,#288,#289,#290));
#71=EDGE_LOOP('',(#291,#292,#293,#294,#295,#296));
#72=EDGE_LOOP('',(#297));
#73=EDGE_LOOP('',(#298));
#74=EDGE_LOOP('',(#299,#300,#301,#302));
#75=EDGE_LOOP('',(#303,#304,#305,#306));
#76=EDGE_LOOP('',(#307,#308,#309,#310));
#77=EDGE_LOOP('',(#311,#312,#313,#314));
#78=EDGE_LOOP('',(#315,#316,#317,#318));
#79=EDGE_LOOP('',(#319,#320,#321,#322,#323,#324));
#80=EDGE_LOOP('',(#325,#326,#327,#328));
#81=EDGE_LOOP('',(#329,#330,#331,#332));
#82=EDGE_LOOP('',(#333,#334,#335,#336));
#83=EDGE_LOOP('',(#337,#338,#339,#340));
#84=EDGE_LOOP('',(#341,#342,#343,#344,#345,#346));
#85=EDGE_LOOP('',(#347));
#86=EDGE_LOOP('',(#348));
#87=LINE('',#552,#119);
#88=LINE('',#556,#120);
#89=LINE('',#562,#121);
#90=LINE('',#566,#122);
#91=LINE('',#573,#123);
#92=LINE('',#576,#124);
#93=LINE('',#579,#125);
#94=LINE('',#581,#126);
#95=LINE('',#582,#127);
#96=LINE('',#585,#128);
#97=LINE('',#587,#129);
#98=LINE('',#589,#130);
#99=LINE('',#593,#131);
#100=LINE('',#597,#132);
#101=LINE('',#598,#133);
#102=LINE('',#604,#134);
#103=LINE('',#607,#135);
#104=LINE('',#610,#136);
#105=LINE('',#614,#137);
#106=LINE('',#616,#138);
#107=LINE('',#617,#139);
#108=LINE('',#620,#140);
#109=LINE('',#621,#141);
#110=LINE('',#625,#142);
#111=LINE('',#628,#143);
#112=LINE('',#629,#144);
#113=LINE('',#631,#145);
#114=LINE('',#635,#146);
#115=LINE('',#639,#147);
#116=LINE('',#642,#148);
#117=LINE('',#643,#149);
#118=LINE('',#645,#150);
#119=VECTOR('',#439,2.5);
#120=VECTOR('',#444,1.75);
#121=VECTOR('',#451,2.5);
#122=VECTOR('',#456,1.75);
#123=VECTOR('',#463,10.);
#124=VECTOR('',#466,10.);
#125=VECTOR('',#469,10.);
#126=VECTOR('',#470,10.);
#127=VECTOR('',#471,10.);
#128=VECTOR('',#474,10.);
#129=VECTOR('',#475,10.);
#130=VECTOR('',#476,10.);
#131=VECTOR('',#481,10.);
#132=VECTOR('',#486,10.);
#133=VECTOR('',#487,10.);
#134=VECTOR('',#492,10.);
#135=VECTOR('',#495,10.);
#136=VECTOR('',#498,10.);
#137=VECTOR('',#501,10.);
#138=VECTOR('',#502,10.);
#139=VECTOR('',#503,10.);
#140=VECTOR('',#506,10.);
#141=VECTOR('',#507,10.);
#142=VECTOR('',#512,10.);
#143=VECTOR('',#515,10.);
#144=VECTOR('',#516,10.);
#145=VECTOR('',#519,10.);
#146=VECTOR('',#522,10.);
#147=VECTOR('',#529,10.);
#148=VECTOR('',#534,10.);
#149=VECTOR('',#535,10.);
#150=VECTOR('',#538,10.);
#151=CIRCLE('',#394,3.25);
#152=CIRCLE('',#395,1.75);
#153=CIRCLE('',#397,1.75);
#154=CIRCLE('',#399,3.25);
#155=CIRCLE('',#400,1.75);
#156=CIRCLE('',#402,1.75);
#157=CIRCLE('',#404,1.);
#158=CIRCLE('',#405,1.);
#159=CIRCLE('',#408,1.);
#160=CIRCLE('',#410,1.);
#161=CIRCLE('',#413,1.);
#162=CIRCLE('',#414,1.);
#163=CIRCLE('',#416,1.);
#164=CIRCLE('',#419,1.);
#165=CIRCLE('',#422,5.50000000000002);
#166=CIRCLE('',#423,5.50000000000002);
#167=CIRCLE('',#425,2.50000000000002);
#168=CIRCLE('',#430,2.50000000000002);
#169=VERTEX_POINT('',#549);
#170=VERTEX_POINT('',#551);
#171=VERTEX_POINT('',#555);
#172=VERTEX_POINT('',#559);
#173=VERTEX_POINT('',#561);
#174=VERTEX_POINT('',#565);
#175=VERTEX_POINT('',#569);
#176=VERTEX_POINT('',#570);
#177=VERTEX_POINT('',#572);
#178=VERTEX_POINT('',#574);
#179=VERTEX_POINT('',#578);
#180=VERTEX_POINT('',#580);
#181=VERTEX_POINT('',#584);
#182=VERTEX_POINT('',#586);
#183=VERTEX_POINT('',#588);
#184=VERTEX_POINT('',#592);
#185=VERTEX_POINT('',#596);
#186=VERTEX_POINT('',#600);
#187=VERTEX_POINT('',#601);
#188=VERTEX_POINT('',#603);
#189=VERTEX_POINT('',#605);
#190=VERTEX_POINT('',#609);
#191=VERTEX_POINT('',#611);
#192=VERTEX_POINT('',#613);
#193=VERTEX_POINT('',#615);
#194=VERTEX_POINT('',#619);
#195=VERTEX_POINT('',#623);
#196=VERTEX_POINT('',#627);
#197=VERTEX_POINT('',#632);
#198=VERTEX_POINT('',#634);
#199=EDGE_CURVE('',#169,#169,#151,.T.);
#200=EDGE_CURVE('',#169,#170,#87,.T.);
#201=EDGE_CURVE('',#170,#170,#152,.T.);
#202=EDGE_CURVE('',#170,#171,#88,.T.);
#203=EDGE_CURVE('',#171,#171,#153,.T.);
#204=EDGE_CURVE('',#172,#172,#154,.T.);
#205=EDGE_CURVE('',#172,#173,#89,.T.);
#206=EDGE_CURVE('',#173,#173,#155,.T.);
#207=EDGE_CURVE('',#173,#174,#90,.T.);
#208=EDGE_CURVE('',#174,#174,#156,.T.);
#209=EDGE_CURVE('',#175,#176,#157,.T.);
#210=EDGE_CURVE('',#176,#177,#91,.T.);
#211=EDGE_CURVE('',#177,#178,#158,.T.);
#212=EDGE_CURVE('',#178,#175,#92,.T.);
#213=EDGE_CURVE('',#176,#179,#93,.T.);
#214=EDGE_CURVE('',#180,#179,#94,.T.);
#215=EDGE_CURVE('',#177,#180,#95,.T.);
#216=EDGE_CURVE('',#181,#175,#96,.T.);
#217=EDGE_CURVE('',#181,#182,#97,.T.);
#218=EDGE_CURVE('',#183,#182,#98,.T.);
#219=EDGE_CURVE('',#179,#183,#159,.T.);
#220=EDGE_CURVE('',#183,#184,#99,.T.);
#221=EDGE_CURVE('',#184,#180,#160,.T.);
#222=EDGE_CURVE('',#182,#185,#100,.T.);
#223=EDGE_CURVE('',#185,#184,#101,.T.);
#224=EDGE_CURVE('',#186,#187,#161,.T.);
#225=EDGE_CURVE('',#187,#188,#102,.T.);
#226=EDGE_CURVE('',#188,#189,#162,.T.);
#227=EDGE_CURVE('',#189,#186,#103,.T.);
#228=EDGE_CURVE('',#190,#186,#104,.T.);
#229=EDGE_CURVE('',#191,#190,#163,.T.);
#230=EDGE_CURVE('',#192,#191,#105,.T.);
#231=EDGE_CURVE('',#193,#192,#106,.T.);
#232=EDGE_CURVE('',#187,#193,#107,.T.);
#233=EDGE_CURVE('',#189,#194,#108,.T.);
#234=EDGE_CURVE('',#190,#194,#109,.T.);
#235=EDGE_CURVE('',#194,#195,#164,.T.);
#236=EDGE_CURVE('',#195,#191,#110,.T.);
#237=EDGE_CURVE('',#196,#178,#111,.T.);
#238=EDGE_CURVE('',#196,#181,#112,.T.);
#239=EDGE_CURVE('',#185,#196,#113,.T.);
#240=EDGE_CURVE('',#197,#185,#165,.T.);
#241=EDGE_CURVE('',#197,#198,#114,.T.);
#242=EDGE_CURVE('',#198,#196,#166,.T.);
#243=EDGE_CURVE('',#182,#192,#167,.T.);
#244=EDGE_CURVE('',#192,#197,#115,.T.);
#245=EDGE_CURVE('',#198,#193,#116,.T.);
#246=EDGE_CURVE('',#188,#198,#117,.T.);
#247=EDGE_CURVE('',#195,#197,#118,.T.);
#248=EDGE_CURVE('',#193,#181,#168,.T.);
#249=ORIENTED_EDGE('',*,*,#199,.F.);
#250=ORIENTED_EDGE('',*,*,#200,.T.);
#251=ORIENTED_EDGE('',*,*,#201,.T.);
#252=ORIENTED_EDGE('',*,*,#200,.F.);
#253=ORIENTED_EDGE('',*,*,#201,.F.);
#254=ORIENTED_EDGE('',*,*,#202,.T.);
#255=ORIENTED_EDGE('',*,*,#203,.F.);
#256=ORIENTED_EDGE('',*,*,#202,.F.);
#257=ORIENTED_EDGE('',*,*,#204,.F.);
#258=ORIENTED_EDGE('',*,*,#205,.T.);
#259=ORIENTED_EDGE('',*,*,#206,.T.);
#260=ORIENTED_EDGE('',*,*,#205,.F.);
#261=ORIENTED_EDGE('',*,*,#206,.F.);
#262=ORIENTED_EDGE('',*,*,#207,.T.);
#263=ORIENTED_EDGE('',*,*,#208,.F.);
#264=ORIENTED_EDGE('',*,*,#207,.F.);
#265=ORIENTED_EDGE('',*,*,#209,.T.);
#266=ORIENTED_EDGE('',*,*,#210,.T.);
#267=ORIENTED_EDGE('',*,*,#211,.T.);
#268=ORIENTED_EDGE('',*,*,#212,.T.);
#269=ORIENTED_EDGE('',*,*,#210,.F.);
#270=ORIENTED_EDGE('',*,*,#213,.T.);
#271=ORIENTED_EDGE('',*,*,#214,.F.);
#272=ORIENTED_EDGE('',*,*,#215,.F.);
#273=ORIENTED_EDGE('',*,*,#209,.F.);
#274=ORIENTED_EDGE('',*,*,#216,.F.);
#275=ORIENTED_EDGE('',*,*,#217,.T.);
#276=ORIENTED_EDGE('',*,*,#218,.F.);
#277=ORIENTED_EDGE('',*,*,#219,.F.);
#278=ORIENTED_EDGE('',*,*,#213,.F.);
#279=ORIENTED_EDGE('',*,*,#219,.T.);
#280=ORIENTED_EDGE('',*,*,#220,.T.);
#281=ORIENTED_EDGE('',*,*,#221,.T.);
#282=ORIENTED_EDGE('',*,*,#214,.T.);
#283=ORIENTED_EDGE('',*,*,#220,.F.);
#284=ORIENTED_EDGE('',*,*,#218,.T.);
#285=ORIENTED_EDGE('',*,*,#222,.T.);
#286=ORIENTED_EDGE('',*,*,#223,.T.);
#287=ORIENTED_EDGE('',*,*,#224,.T.);
#288=ORIENTED_EDGE('',*,*,#225,.T.);
#289=ORIENTED_EDGE('',*,*,#226,.T.);
#290=ORIENTED_EDGE('',*,*,#227,.T.);
#291=ORIENTED_EDGE('',*,*,#224,.F.);
#292=ORIENTED_EDGE('',*,*,#228,.F.);
#293=ORIENTED_EDGE('',*,*,#229,.F.);
#294=ORIENTED_EDGE('',*,*,#230,.F.);
#295=ORIENTED_EDGE('',*,*,#231,.F.);
#296=ORIENTED_EDGE('',*,*,#232,.F.);
#297=ORIENTED_EDGE('',*,*,#199,.T.);
#298=ORIENTED_EDGE('',*,*,#204,.T.);
#299=ORIENTED_EDGE('',*,*,#227,.F.);
#300=ORIENTED_EDGE('',*,*,#233,.T.);
#301=ORIENTED_EDGE('',*,*,#234,.F.);
#302=ORIENTED_EDGE('',*,*,#228,.T.);
#303=ORIENTED_EDGE('',*,*,#229,.T.);
#304=ORIENTED_EDGE('',*,*,#234,.T.);
#305=ORIENTED_EDGE('',*,*,#235,.T.);
#306=ORIENTED_EDGE('',*,*,#236,.T.);
#307=ORIENTED_EDGE('',*,*,#212,.F.);
#308=ORIENTED_EDGE('',*,*,#237,.F.);
#309=ORIENTED_EDGE('',*,*,#238,.T.);
#310=ORIENTED_EDGE('',*,*,#216,.T.);
#311=ORIENTED_EDGE('',*,*,#239,.F.);
#312=ORIENTED_EDGE('',*,*,#240,.F.);
#313=ORIENTED_EDGE('',*,*,#241,.T.);
#314=ORIENTED_EDGE('',*,*,#242,.T.);
#315=ORIENTED_EDGE('',*,*,#222,.F.);
#316=ORIENTED_EDGE('',*,*,#243,.T.);
#317=ORIENTED_EDGE('',*,*,#244,.T.);
#318=ORIENTED_EDGE('',*,*,#240,.T.);
#319=ORIENTED_EDGE('',*,*,#211,.F.);
#320=ORIENTED_EDGE('',*,*,#215,.T.);
#321=ORIENTED_EDGE('',*,*,#221,.F.);
#322=ORIENTED_EDGE('',*,*,#223,.F.);
#323=ORIENTED_EDGE('',*,*,#239,.T.);
#324=ORIENTED_EDGE('',*,*,#237,.T.);
#325=ORIENTED_EDGE('',*,*,#225,.F.);
#326=ORIENTED_EDGE('',*,*,#232,.T.);
#327=ORIENTED_EDGE('',*,*,#245,.F.);
#328=ORIENTED_EDGE('',*,*,#246,.F.);
#329=ORIENTED_EDGE('',*,*,#236,.F.);
#330=ORIENTED_EDGE('',*,*,#247,.T.);
#331=ORIENTED_EDGE('',*,*,#244,.F.);
#332=ORIENTED_EDGE('',*,*,#230,.T.);
#333=ORIENTED_EDGE('',*,*,#238,.F.);
#334=ORIENTED_EDGE('',*,*,#242,.F.);
#335=ORIENTED_EDGE('',*,*,#245,.T.);
#336=ORIENTED_EDGE('',*,*,#248,.T.);
#337=ORIENTED_EDGE('',*,*,#217,.F.);
#338=ORIENTED_EDGE('',*,*,#248,.F.);
#339=ORIENTED_EDGE('',*,*,#231,.T.);
#340=ORIENTED_EDGE('',*,*,#243,.F.);
#341=ORIENTED_EDGE('',*,*,#226,.F.);
#342=ORIENTED_EDGE('',*,*,#246,.T.);
#343=ORIENTED_EDGE('',*,*,#241,.F.);
#344=ORIENTED_EDGE('',*,*,#247,.F.);
#345=ORIENTED_EDGE('',*,*,#235,.F.);
#346=ORIENTED_EDGE('',*,*,#233,.F.);
#347=ORIENTED_EDGE('',*,*,#203,.T.);
#348=ORIENTED_EDGE('',*,*,#208,.T.);
#349=CONICAL_SURFACE('',#393,2.5,0.785398163397448);
#350=CONICAL_SURFACE('',#398,2.5,0.785398163397448);
#351=ADVANCED_FACE('',(#39),#349,.F.);
#352=ADVANCED_FACE('',(#40),#31,.F.);
#353=ADVANCED_FACE('',(#41),#350,.F.);
#354=ADVANCED_FACE('',(#42),#32,.F.);
#355=ADVANCED_FACE('',(#43),#33,.T.);
#356=ADVANCED_FACE('',(#44),#19,.T.);
#357=ADVANCED_FACE('',(#45),#20,.T.);
#358=ADVANCED_FACE('',(#46),#34,.T.);
#359=ADVANCED_FACE('',(#47),#21,.T.);
#360=ADVANCED_FACE('',(#48),#35,.T.);
#361=ADVANCED_FACE('',(#49,#15,#16),#22,.T.);
#362=ADVANCED_FACE('',(#50),#23,.T.);
#363=ADVANCED_FACE('',(#51),#36,.T.);
#364=ADVANCED_FACE('',(#52),#24,.T.);
#365=ADVANCED_FACE('',(#53),#37,.T.);
#366=ADVANCED_FACE('',(#54),#25,.T.);
#367=ADVANCED_FACE('',(#55),#26,.F.);
#368=ADVANCED_FACE('',(#56),#27,.T.);
#369=ADVANCED_FACE('',(#57),#28,.T.);
#370=ADVANCED_FACE('',(#58),#29,.T.);
#371=ADVANCED_FACE('',(#59),#38,.F.);
#372=ADVANCED_FACE('',(#60,#17,#18),#30,.F.);
#373=CLOSED_SHELL('',(#351,#352,#353,#354,#355,#356,#357,#358,#359,#360,
#361,#362,#363,#364,#365,#366,#367,#368,#369,#370,#371,#372));
#374=DERIVED_UNIT_ELEMENT(#376,1.);
#375=DERIVED_UNIT_ELEMENT(#655,3.);
#376=(
MASS_UNIT()
NAMED_UNIT(*)
SI_UNIT($,.GRAM.)
);
#377=DERIVED_UNIT((#374,#375));
#378=MEASURE_REPRESENTATION_ITEM('density measure',
POSITIVE_RATIO_MEASURE(8.47),#377);
#379=PROPERTY_DEFINITION_REPRESENTATION(#384,#381);
#380=PROPERTY_DEFINITION_REPRESENTATION(#385,#382);
#381=REPRESENTATION('material name',(#383),#652);
#382=REPRESENTATION('density',(#378),#652);
#383=DESCRIPTIVE_REPRESENTATION_ITEM('Brass, Soft Yellow',
'Brass, Soft Yellow');
#384=PROPERTY_DEFINITION('material property','material name',#662);
#385=PROPERTY_DEFINITION('material property','density of part',#662);
#386=DATE_TIME_ROLE('creation_date');
#387=APPLIED_DATE_AND_TIME_ASSIGNMENT(#388,#386,(#662));
#388=DATE_AND_TIME(#389,#390);
#389=CALENDAR_DATE(2025,16,9);
#390=LOCAL_TIME(0,0,0.,#391);
#391=COORDINATED_UNIVERSAL_TIME_OFFSET(0,0,.BEHIND.);
#392=AXIS2_PLACEMENT_3D('placement',#547,#433,#434);
#393=AXIS2_PLACEMENT_3D('',#548,#435,#436);
#394=AXIS2_PLACEMENT_3D('',#550,#437,#438);
#395=AXIS2_PLACEMENT_3D('',#553,#440,#441);
#396=AXIS2_PLACEMENT_3D('',#554,#442,#443);
#397=AXIS2_PLACEMENT_3D('',#557,#445,#446);
#398=AXIS2_PLACEMENT_3D('',#558,#447,#448);
#399=AXIS2_PLACEMENT_3D('',#560,#449,#450);
#400=AXIS2_PLACEMENT_3D('',#563,#452,#453);
#401=AXIS2_PLACEMENT_3D('',#564,#454,#455);
#402=AXIS2_PLACEMENT_3D('',#567,#457,#458);
#403=AXIS2_PLACEMENT_3D('',#568,#459,#460);
#404=AXIS2_PLACEMENT_3D('',#571,#461,#462);
#405=AXIS2_PLACEMENT_3D('',#575,#464,#465);
#406=AXIS2_PLACEMENT_3D('',#577,#467,#468);
#407=AXIS2_PLACEMENT_3D('',#583,#472,#473);
#408=AXIS2_PLACEMENT_3D('',#590,#477,#478);
#409=AXIS2_PLACEMENT_3D('',#591,#479,#480);
#410=AXIS2_PLACEMENT_3D('',#594,#482,#483);
#411=AXIS2_PLACEMENT_3D('',#595,#484,#485);
#412=AXIS2_PLACEMENT_3D('',#599,#488,#489);
#413=AXIS2_PLACEMENT_3D('',#602,#490,#491);
#414=AXIS2_PLACEMENT_3D('',#606,#493,#494);
#415=AXIS2_PLACEMENT_3D('',#608,#496,#497);
#416=AXIS2_PLACEMENT_3D('',#612,#499,#500);
#417=AXIS2_PLACEMENT_3D('',#618,#504,#505);
#418=AXIS2_PLACEMENT_3D('',#622,#508,#509);
#419=AXIS2_PLACEMENT_3D('',#624,#510,#511);
#420=AXIS2_PLACEMENT_3D('',#626,#513,#514);
#421=AXIS2_PLACEMENT_3D('',#630,#517,#518);
#422=AXIS2_PLACEMENT_3D('',#633,#520,#521);
#423=AXIS2_PLACEMENT_3D('',#636,#523,#524);
#424=AXIS2_PLACEMENT_3D('',#637,#525,#526);
#425=AXIS2_PLACEMENT_3D('',#638,#527,#528);
#426=AXIS2_PLACEMENT_3D('',#640,#530,#531);
#427=AXIS2_PLACEMENT_3D('',#641,#532,#533);
#428=AXIS2_PLACEMENT_3D('',#644,#536,#537);
#429=AXIS2_PLACEMENT_3D('',#646,#539,#540);
#430=AXIS2_PLACEMENT_3D('',#647,#541,#542);
#431=AXIS2_PLACEMENT_3D('',#648,#543,#544);
#432=AXIS2_PLACEMENT_3D('',#649,#545,#546);
#433=DIRECTION('axis',(0.,0.,1.));
#434=DIRECTION('refdir',(1.,0.,0.));
#435=DIRECTION('center_axis',(-6.23253943464722E-18,1.,1.46069640254335E-16));
#436=DIRECTION('ref_axis',(1.,6.23253943464722E-18,4.27271245420518E-33));
#437=DIRECTION('center_axis',(-6.23253943464722E-18,-1.,-1.46069640254335E-16));
#438=DIRECTION('ref_axis',(1.,6.23253943464722E-18,4.27271245420518E-33));
#439=DIRECTION('',(0.707106781186547,-0.707106781186548,-1.66912275257705E-17));
#440=DIRECTION('center_axis',(6.23253943464722E-18,-1.,-1.46069640254335E-16));
#441=DIRECTION('ref_axis',(1.,6.23253943464722E-18,4.27271245420518E-33));
#442=DIRECTION('center_axis',(6.23253943464722E-18,-1.,-1.46069640254335E-16));
#443=DIRECTION('ref_axis',(1.,6.23253943464722E-18,4.27271245420518E-33));
#444=DIRECTION('',(6.23253943464722E-18,-1.,-1.46069640254335E-16));
#445=DIRECTION('center_axis',(-6.23253943464725E-18,1.,1.46069640254335E-16));
#446=DIRECTION('ref_axis',(1.,6.23253943464722E-18,4.27271245420518E-33));
#447=DIRECTION('center_axis',(-6.23253943464722E-18,1.,1.46069640254335E-16));
#448=DIRECTION('ref_axis',(1.,6.23253943464722E-18,4.27271245420518E-33));
#449=DIRECTION('center_axis',(-6.23253943464722E-18,-1.,-1.46069640254335E-16));
#450=DIRECTION('ref_axis',(1.,6.23253943464722E-18,4.27271245420518E-33));
#451=DIRECTION('',(0.707106781186547,-0.707106781186548,-1.66912275257705E-17));
#452=DIRECTION('center_axis',(6.23253943464722E-18,-1.,-1.46069640254335E-16));
#453=DIRECTION('ref_axis',(1.,6.23253943464722E-18,4.27271245420518E-33));
#454=DIRECTION('center_axis',(6.23253943464722E-18,-1.,-1.46069640254335E-16));
#455=DIRECTION('ref_axis',(1.,6.23253943464722E-18,4.27271245420518E-33));
#456=DIRECTION('',(6.23253943464722E-18,-1.,-1.46069640254335E-16));
#457=DIRECTION('center_axis',(-6.23253943464725E-18,1.,1.46069640254335E-16));
#458=DIRECTION('ref_axis',(1.,6.23253943464722E-18,4.27271245420518E-33));
#459=DIRECTION('center_axis',(0.,-1.71512449944288E-15,1.));
#460=DIRECTION('ref_axis',(-0.707106781186545,0.70710678118655,0.));
#461=DIRECTION('center_axis',(-6.23253943464722E-18,1.86119413969722E-15,
-1.));
#462=DIRECTION('ref_axis',(-0.707106781186545,0.70710678118655,0.));
#463=DIRECTION('',(0.,1.71512449944288E-15,-1.));
#464=DIRECTION('center_axis',(-6.23253943464725E-18,-1.86119413969722E-15,
1.));
#465=DIRECTION('ref_axis',(-0.707106781186545,0.70710678118655,0.));
#466=DIRECTION('',(0.,-1.71512449944288E-15,1.));
#467=DIRECTION('center_axis',(0.,1.,1.71512449944288E-15));
#468=DIRECTION('ref_axis',(-1.,0.,0.));
#469=DIRECTION('',(1.,0.,0.));
#470=DIRECTION('',(0.,-1.71512449944288E-15,1.));
#471=DIRECTION('',(1.,0.,0.));
#472=DIRECTION('center_axis',(6.23253943464722E-18,-1.86119413969722E-15,
1.));
#473=DIRECTION('ref_axis',(0.,-1.,-1.86119413969722E-15));
#474=DIRECTION('',(0.,1.,1.83929417982859E-15));
#475=DIRECTION('',(1.,1.14634735076988E-32,-6.23253943464722E-18));
#476=DIRECTION('',(0.,-1.,-1.83929417982859E-15));
#477=DIRECTION('center_axis',(-6.23253943464722E-18,1.86119413969722E-15,
-1.));
#478=DIRECTION('ref_axis',(0.707106781186546,0.707106781186549,0.));
#479=DIRECTION('center_axis',(0.,-1.71512449944288E-15,1.));
#480=DIRECTION('ref_axis',(0.707106781186546,0.707106781186549,0.));
#481=DIRECTION('',(0.,1.71512449944288E-15,-1.));
#482=DIRECTION('center_axis',(-6.23253943464725E-18,-1.86119413969722E-15,
1.));
#483=DIRECTION('ref_axis',(0.707106781186546,0.707106781186549,0.));
#484=DIRECTION('center_axis',(1.,0.,0.));
#485=DIRECTION('ref_axis',(0.,1.,1.71512449944288E-15));
#486=DIRECTION('',(0.,1.83929417982859E-15,-1.));
#487=DIRECTION('',(0.,1.,1.83929417982859E-15));
#488=DIRECTION('center_axis',(0.,1.,0.));
#489=DIRECTION('ref_axis',(-0.707106781186549,0.,0.707106781186546));
#490=DIRECTION('center_axis',(-6.23253943464722E-18,-1.,-1.46069640254335E-16));
#491=DIRECTION('ref_axis',(-0.707106781186549,0.,0.707106781186546));
#492=DIRECTION('',(0.,-1.,0.));
#493=DIRECTION('center_axis',(-6.23253943464725E-18,1.,1.46069640254335E-16));
#494=DIRECTION('ref_axis',(-0.707106781186549,0.,0.707106781186546));
#495=DIRECTION('',(0.,1.,0.));
#496=DIRECTION('center_axis',(6.23253943464722E-18,1.,1.46069640254335E-16));
#497=DIRECTION('ref_axis',(0.,-1.46069640254335E-16,1.));
#498=DIRECTION('',(-1.,0.,0.));
#499=DIRECTION('center_axis',(-6.23253943464722E-18,-1.,-1.46069640254335E-16));
#500=DIRECTION('ref_axis',(0.707106781186548,0.,0.707106781186547));
#501=DIRECTION('',(0.,-1.24169680385708E-16,1.));
#502=DIRECTION('',(1.,-6.23253943464722E-18,-7.73892429591468E-34));
#503=DIRECTION('',(0.,1.24169680385708E-16,-1.));
#504=DIRECTION('center_axis',(0.,0.,1.));
#505=DIRECTION('ref_axis',(1.,0.,0.));
#506=DIRECTION('',(1.,0.,0.));
#507=DIRECTION('',(0.,-1.,0.));
#508=DIRECTION('center_axis',(0.,1.,0.));
#509=DIRECTION('ref_axis',(0.707106781186548,0.,0.707106781186547));
#510=DIRECTION('center_axis',(-6.23253943464725E-18,1.,1.46069640254335E-16));
#511=DIRECTION('ref_axis',(0.707106781186548,0.,0.707106781186547));
#512=DIRECTION('',(0.,1.,0.));
#513=DIRECTION('center_axis',(-1.,0.,0.));
#514=DIRECTION('ref_axis',(0.,-1.,-1.71512449944288E-15));
#515=DIRECTION('',(0.,1.,1.83929417982859E-15));
#516=DIRECTION('',(0.,-1.83929417982859E-15,1.));
#517=DIRECTION('center_axis',(1.,0.,0.));
#518=DIRECTION('ref_axis',(0.,-1.,-1.24169680385708E-16));
#519=DIRECTION('',(-1.,1.14634735076989E-32,-6.23253943464725E-18));
#520=DIRECTION('center_axis',(1.,0.,0.));
#521=DIRECTION('ref_axis',(0.,-1.,0.));
#522=DIRECTION('',(-1.,-6.23253943464725E-18,-7.73892429591472E-34));
#523=DIRECTION('center_axis',(1.,0.,0.));
#524=DIRECTION('ref_axis',(0.,-1.,0.));
#525=DIRECTION('center_axis',(1.,0.,0.));
#526=DIRECTION('ref_axis',(0.,0.,-1.));
#527=DIRECTION('center_axis',(-1.,0.,0.));
#528=DIRECTION('ref_axis',(0.,1.77635683940024E-15,-1.));
#529=DIRECTION('',(0.,-1.,-1.24169680385708E-16));
#530=DIRECTION('center_axis',(-6.23253943464725E-18,-1.86119413969722E-15,
1.));
#531=DIRECTION('ref_axis',(0.,-1.,-1.86119413969722E-15));
#532=DIRECTION('center_axis',(-1.,0.,0.));
#533=DIRECTION('ref_axis',(0.,0.,1.));
#534=DIRECTION('',(0.,1.,1.24169680385708E-16));
#535=DIRECTION('',(0.,1.24169680385708E-16,-1.));
#536=DIRECTION('center_axis',(1.,0.,0.));
#537=DIRECTION('ref_axis',(0.,0.,-1.));
#538=DIRECTION('',(0.,1.24169680385708E-16,-1.));
#539=DIRECTION('center_axis',(-1.,0.,0.));
#540=DIRECTION('ref_axis',(0.,0.,1.));
#541=DIRECTION('center_axis',(1.,0.,0.));
#542=DIRECTION('ref_axis',(0.,-1.,0.));
#543=DIRECTION('center_axis',(1.,0.,0.));
#544=DIRECTION('ref_axis',(0.,-1.,-1.24169680385708E-16));
#545=DIRECTION('center_axis',(-6.23253943464725E-18,1.,1.46069640254335E-16));
#546=DIRECTION('ref_axis',(0.,-1.46069640254335E-16,1.));
#547=CARTESIAN_POINT('',(0.,0.,0.));
#548=CARTESIAN_POINT('Origin',(-5.,0.750000000000001,-6.));
#549=CARTESIAN_POINT('',(-8.25,1.5,-6.));
#550=CARTESIAN_POINT('Origin',(-5.,1.5,-6.));
#551=CARTESIAN_POINT('',(-6.75,8.32667268468867E-16,-6.));
#552=CARTESIAN_POINT('',(-7.5,0.750000000000001,-6.));
#553=CARTESIAN_POINT('Origin',(-5.,8.32667268468867E-16,-6.));
#554=CARTESIAN_POINT('Origin',(-5.,5.55111512312578E-16,-6.));
#555=CARTESIAN_POINT('',(-6.75,-1.5,-6.));
#556=CARTESIAN_POINT('',(-6.75,5.44204568301946E-16,-6.));
#557=CARTESIAN_POINT('Origin',(-5.,-1.5,-6.));
#558=CARTESIAN_POINT('Origin',(5.,0.750000000000001,-6.));
#559=CARTESIAN_POINT('',(1.75,1.5,-6.));
#560=CARTESIAN_POINT('Origin',(5.,1.5,-6.));
#561=CARTESIAN_POINT('',(3.25,8.32667268468867E-16,-6.));
#562=CARTESIAN_POINT('',(2.5,0.750000000000001,-6.));
#563=CARTESIAN_POINT('Origin',(5.,8.32667268468867E-16,-6.));
#564=CARTESIAN_POINT('Origin',(5.,5.55111512312578E-16,-6.));
#565=CARTESIAN_POINT('',(3.25,-1.5,-6.));
#566=CARTESIAN_POINT('',(3.25,5.44204568301946E-16,-6.));
#567=CARTESIAN_POINT('Origin',(5.,-1.5,-6.));
#568=CARTESIAN_POINT('Origin',(-9.,34.,-81.5));
#569=CARTESIAN_POINT('',(-10.,34.,-78.5));
#570=CARTESIAN_POINT('',(-9.,35.,-78.5));
#571=CARTESIAN_POINT('Origin',(-9.,34.,-78.5));
#572=CARTESIAN_POINT('',(-9.,35.,-81.5));
#573=CARTESIAN_POINT('',(-9.,35.,-81.5));
#574=CARTESIAN_POINT('',(-10.,34.,-81.5));
#575=CARTESIAN_POINT('Origin',(-9.,34.,-81.5));
#576=CARTESIAN_POINT('',(-10.,34.,-81.5));
#577=CARTESIAN_POINT('Origin',(-10.,35.,-81.5));
#578=CARTESIAN_POINT('',(9.,35.,-78.5));
#579=CARTESIAN_POINT('',(-10.,35.,-78.5));
#580=CARTESIAN_POINT('',(9.,35.,-81.5));
#581=CARTESIAN_POINT('',(9.,35.,-81.5));
#582=CARTESIAN_POINT('',(-10.,35.,-81.5));
#583=CARTESIAN_POINT('Origin',(-2.77555756156289E-16,-21.5002209841782,
-78.5000000000001));
#584=CARTESIAN_POINT('',(-10.,4.00000000000004,-78.5));
#585=CARTESIAN_POINT('',(-10.,4.00000000000004,-78.5));
#586=CARTESIAN_POINT('',(10.,4.00000000000004,-78.5));
#587=CARTESIAN_POINT('',(-1.34664402051277E-16,4.00000000000004,-78.5));
#588=CARTESIAN_POINT('',(10.,34.,-78.5));
#589=CARTESIAN_POINT('',(10.,-78.0004419683565,-78.5000000000002));
#590=CARTESIAN_POINT('Origin',(9.,34.,-78.5));
#591=CARTESIAN_POINT('Origin',(9.,34.,-81.5));
#592=CARTESIAN_POINT('',(10.,34.,-81.5));
#593=CARTESIAN_POINT('',(10.,34.,-81.5));
#594=CARTESIAN_POINT('Origin',(9.,34.,-81.5));
#595=CARTESIAN_POINT('Origin',(10.,-2.0004419683565,-81.5));
#596=CARTESIAN_POINT('',(10.,4.00000000000004,-81.5));
#597=CARTESIAN_POINT('',(10.,4.00000000000004,-80.66));
#598=CARTESIAN_POINT('',(10.,-78.0004419683565,-81.5000000000002));
#599=CARTESIAN_POINT('Origin',(-9.,-1.5,-0.999999999999996));
#600=CARTESIAN_POINT('',(-9.,1.5,-1.86254520578562E-16));
#601=CARTESIAN_POINT('',(-10.,1.5,-0.999999999999996));
#602=CARTESIAN_POINT('Origin',(-9.,1.50000000000001,-0.999999999999996));
#603=CARTESIAN_POINT('',(-10.,-1.5,-0.999999999999996));
#604=CARTESIAN_POINT('',(-10.,-1.5,-0.999999999999996));
#605=CARTESIAN_POINT('',(-9.,-1.5,-1.86254520578562E-16));
#606=CARTESIAN_POINT('Origin',(-9.,-1.49999999999999,-0.999999999999996));
#607=CARTESIAN_POINT('',(-9.,-1.5,-1.38777878078145E-16));
#608=CARTESIAN_POINT('Origin',(-2.77555756156289E-16,1.50000000000001,-56.5002209841783));
#609=CARTESIAN_POINT('',(9.,1.5,-1.86254520578562E-16));
#610=CARTESIAN_POINT('',(-10.,1.5,-1.86254520578562E-16));
#611=CARTESIAN_POINT('',(10.,1.5,-0.999999999999996));
#612=CARTESIAN_POINT('Origin',(9.,1.50000000000001,-0.999999999999996));
#613=CARTESIAN_POINT('',(10.,1.50000000000001,-76.));
#614=CARTESIAN_POINT('',(10.,1.5,-1.86254520578562E-16));
#615=CARTESIAN_POINT('',(-10.,1.50000000000001,-76.));
#616=CARTESIAN_POINT('',(-1.34664402051277E-16,1.50000000000001,-76.));
#617=CARTESIAN_POINT('',(-10.,1.50000000000001,-82.0004419683565));
#618=CARTESIAN_POINT('Origin',(10.,-1.5,-1.86254520578562E-16));
#619=CARTESIAN_POINT('',(9.,-1.5,-1.86254520578562E-16));
#620=CARTESIAN_POINT('',(-10.,-1.5,-1.86254520578562E-16));
#621=CARTESIAN_POINT('',(9.,-1.5,-1.38777878078145E-16));
#622=CARTESIAN_POINT('Origin',(9.,-1.5,-0.999999999999996));
#623=CARTESIAN_POINT('',(10.,-1.5,-0.999999999999996));
#624=CARTESIAN_POINT('Origin',(9.,-1.49999999999999,-0.999999999999996));
#625=CARTESIAN_POINT('',(10.,-1.5,-0.999999999999996));
#626=CARTESIAN_POINT('Origin',(-10.,4.00000000000004,-81.5));
#627=CARTESIAN_POINT('',(-10.,4.00000000000004,-81.5));
#628=CARTESIAN_POINT('',(-10.,-78.0004419683565,-81.5000000000002));
#629=CARTESIAN_POINT('',(-10.,4.00000000000004,-80.66));
#630=CARTESIAN_POINT('Origin',(0.,4.00000000000003,-76.));
#631=CARTESIAN_POINT('',(1.44013211203248E-16,4.00000000000004,-81.5));
#632=CARTESIAN_POINT('',(10.,-1.49999999999999,-76.));
#633=CARTESIAN_POINT('Origin',(10.,4.00000000000003,-76.));
#634=CARTESIAN_POINT('',(-10.,-1.49999999999999,-76.));
#635=CARTESIAN_POINT('',(1.44013211203248E-16,-1.49999999999999,-76.));
#636=CARTESIAN_POINT('Origin',(-10.,4.00000000000003,-76.));
#637=CARTESIAN_POINT('Origin',(10.,4.00000000000004,-78.5));
#638=CARTESIAN_POINT('Origin',(10.,4.00000000000003,-76.));
#639=CARTESIAN_POINT('',(10.,-0.659999999999991,-76.));
#640=CARTESIAN_POINT('Origin',(2.77555756156289E-16,-21.5002209841782,-81.5000000000001));
#641=CARTESIAN_POINT('Origin',(-10.,-1.49999999999999,-82.0004419683565));
#642=CARTESIAN_POINT('',(-10.,-0.659999999999991,-76.));
#643=CARTESIAN_POINT('',(-10.,-1.5,-1.86254520578562E-16));
#644=CARTESIAN_POINT('Origin',(10.,-1.49999999999999,-76.));
#645=CARTESIAN_POINT('',(10.,-1.5,-1.86254520578562E-16));
#646=CARTESIAN_POINT('Origin',(-10.,4.00000000000004,-81.5));
#647=CARTESIAN_POINT('Origin',(-10.,4.00000000000003,-76.));
#648=CARTESIAN_POINT('Origin',(0.,4.00000000000003,-76.));
#649=CARTESIAN_POINT('Origin',(2.77555756156289E-16,-1.49999999999999,-56.5002209841783));
#650=UNCERTAINTY_MEASURE_WITH_UNIT(LENGTH_MEASURE(0.01),#654,
'DISTANCE_ACCURACY_VALUE',
'Maximum model space distance between geometric entities at asserted c
onnectivities');
#651=UNCERTAINTY_MEASURE_WITH_UNIT(LENGTH_MEASURE(0.01),#654,
'DISTANCE_ACCURACY_VALUE',
'Maximum model space distance between geometric entities at asserted c
onnectivities');
#652=(
GEOMETRIC_REPRESENTATION_CONTEXT(3)
GLOBAL_UNCERTAINTY_ASSIGNED_CONTEXT((#650))
GLOBAL_UNIT_ASSIGNED_CONTEXT((#654,#656,#657))
REPRESENTATION_CONTEXT('','3D')
);
#653=(
GEOMETRIC_REPRESENTATION_CONTEXT(3)
GLOBAL_UNCERTAINTY_ASSIGNED_CONTEXT((#651))
GLOBAL_UNIT_ASSIGNED_CONTEXT((#654,#656,#657))
REPRESENTATION_CONTEXT('','3D')
);
#654=(
LENGTH_UNIT()
NAMED_UNIT(*)
SI_UNIT(.MILLI.,.METRE.)
);
#655=(
LENGTH_UNIT()
NAMED_UNIT(*)
SI_UNIT(.CENTI.,.METRE.)
);
#656=(
NAMED_UNIT(*)
PLANE_ANGLE_UNIT()
SI_UNIT($,.RADIAN.)
);
#657=(
NAMED_UNIT(*)
SI_UNIT($,.STERADIAN.)
SOLID_ANGLE_UNIT()
);
#658=SHAPE_DEFINITION_REPRESENTATION(#659,#660);
#659=PRODUCT_DEFINITION_SHAPE('',$,#662);
#660=SHAPE_REPRESENTATION('',(#392),#652);
#661=PRODUCT_DEFINITION_CONTEXT('part definition',#666,'design');
#662=PRODUCT_DEFINITION('Platform','Platform',#663,#661);
#663=PRODUCT_DEFINITION_FORMATION('',$,#668);
#664=PRODUCT_RELATED_PRODUCT_CATEGORY('Platform','Platform',(#668));
#665=APPLICATION_PROTOCOL_DEFINITION('international standard',
'automotive_design',2009,#666);
#666=APPLICATION_CONTEXT(
'Core Data for Automotive Mechanical Design Process');
#667=PRODUCT_CONTEXT('part definition',#666,'mechanical');
#668=PRODUCT('Platform','Platform',$,(#667));
#669=PRESENTATION_STYLE_ASSIGNMENT((#670));
#670=SURFACE_STYLE_USAGE(.BOTH.,#673);
#671=SURFACE_STYLE_RENDERING_WITH_PROPERTIES($,#677,(#672));
#672=SURFACE_STYLE_TRANSPARENT(0.);
#673=SURFACE_SIDE_STYLE('',(#674,#671));
#674=SURFACE_STYLE_FILL_AREA(#675);
#675=FILL_AREA_STYLE('',(#676));
#676=FILL_AREA_STYLE_COLOUR('',#677);
#677=COLOUR_RGB('',0.796078431372549,0.603921568627451,0.231372549019608);
ENDSEC;
END-ISO-10303-21;
