ISO-10303-21;
HEADER;
/* Generated by software containing ST-Developer
 * from STEP Tools, Inc. (www.steptools.com) 
 */

FILE_DESCRIPTION(
/* description */ (''),
/* implementation_level */ '2;1');

FILE_NAME(
/* name */ 
'S:\\Future Scope 1\\WIP\\Client Category\\Tom\\02 Progressive Work\\P
ully Shaft.stp',
/* time_stamp */ '2025-11-05T12:14:33+06:00',
/* author */ ('SD'),
/* organization */ (''),
/* preprocessor_version */ 'ST-DEVELOPER v18.1',
/* originating_system */ 'Autodesk Inventor 2021',
/* authorisation */ '');

FILE_SCHEMA (('AUTOMOTIVE_DESIGN { 1 0 10303 214 3 1 1 }'));
ENDSEC;

DATA;
#10=MECHANICAL_DESIGN_GEOMETRIC_PRESENTATION_REPRESENTATION('',(#13),#346);
#11=SHAPE_REPRESENTATION_RELATIONSHIP('SRR','None',#353,#12);
#12=ADVANCED_BREP_SHAPE_REPRESENTATION('',(#14),#345);
#13=STYLED_ITEM('',(#362),#14);
#14=MANIFOLD_SOLID_BREP('Solid1',#184);
#15=FACE_BOUND('',#42,.T.);
#16=FACE_BOUND('',#45,.T.);
#17=FACE_BOUND('',#49,.T.);
#18=PLANE('',#210);
#19=PLANE('',#214);
#20=PLANE('',#220);
#21=PLANE('',#229);
#22=CYLINDRICAL_SURFACE('',#208,7.5);
#23=CYLINDRICAL_SURFACE('',#219,5.);
#24=CYLINDRICAL_SURFACE('',#224,2.4585);
#25=CYLINDRICAL_SURFACE('',#228,5.);
#26=FACE_OUTER_BOUND('',#39,.T.);
#27=FACE_OUTER_BOUND('',#40,.T.);
#28=FACE_OUTER_BOUND('',#41,.T.);
#29=FACE_OUTER_BOUND('',#43,.T.);
#30=FACE_OUTER_BOUND('',#44,.T.);
#31=FACE_OUTER_BOUND('',#46,.T.);
#32=FACE_OUTER_BOUND('',#47,.T.);
#33=FACE_OUTER_BOUND('',#48,.T.);
#34=FACE_OUTER_BOUND('',#50,.T.);
#35=FACE_OUTER_BOUND('',#51,.T.);
#36=FACE_OUTER_BOUND('',#52,.T.);
#37=FACE_OUTER_BOUND('',#53,.T.);
#38=FACE_OUTER_BOUND('',#54,.T.);
#39=EDGE_LOOP('',(#122,#123,#124,#125,#126));
#40=EDGE_LOOP('',(#127,#128,#129,#130,#131));
#41=EDGE_LOOP('',(#132));
#42=EDGE_LOOP('',(#133));
#43=EDGE_LOOP('',(#134,#135,#136,#137));
#44=EDGE_LOOP('',(#138));
#45=EDGE_LOOP('',(#139));
#46=EDGE_LOOP('',(#140,#141,#142,#143));
#47=EDGE_LOOP('',(#144,#145,#146,#147));
#48=EDGE_LOOP('',(#148));
#49=EDGE_LOOP('',(#149));
#50=EDGE_LOOP('',(#150,#151,#152));
#51=EDGE_LOOP('',(#153,#154,#155,#156));
#52=EDGE_LOOP('',(#157,#158,#159,#160));
#53=EDGE_LOOP('',(#161,#162,#163,#164));
#54=EDGE_LOOP('',(#165));
#55=LINE('',#300,#64);
#56=LINE('',#304,#65);
#57=LINE('',#311,#66);
#58=LINE('',#320,#67);
#59=LINE('',#323,#68);
#60=LINE('',#331,#69);
#61=LINE('',#333,#70);
#62=LINE('',#338,#71);
#63=LINE('',#341,#72);
#64=VECTOR('',#238,7.4);
#65=VECTOR('',#243,7.5);
#66=VECTOR('',#252,7.4);
#67=VECTOR('',#263,4.9);
#68=VECTOR('',#268,5.);
#69=VECTOR('',#277,1.22925);
#70=VECTOR('',#280,2.4585);
#71=VECTOR('',#285,4.95);
#72=VECTOR('',#290,5.);
#73=CIRCLE('',#205,7.5);
#74=CIRCLE('',#206,7.5);
#75=CIRCLE('',#207,7.3);
#76=CIRCLE('',#209,7.5);
#77=CIRCLE('',#211,5.);
#78=CIRCLE('',#213,7.3);
#79=CIRCLE('',#215,5.);
#80=CIRCLE('',#217,4.8);
#81=CIRCLE('',#218,5.);
#82=CIRCLE('',#221,2.4585);
#83=CIRCLE('',#223,2.4585);
#84=CIRCLE('',#226,4.9);
#85=CIRCLE('',#227,5.);
#86=VERTEX_POINT('',#295);
#87=VERTEX_POINT('',#296);
#88=VERTEX_POINT('',#299);
#89=VERTEX_POINT('',#303);
#90=VERTEX_POINT('',#307);
#91=VERTEX_POINT('',#310);
#92=VERTEX_POINT('',#314);
#93=VERTEX_POINT('',#317);
#94=VERTEX_POINT('',#319);
#95=VERTEX_POINT('',#325);
#96=VERTEX_POINT('',#328);
#97=VERTEX_POINT('',#330);
#98=VERTEX_POINT('',#335);
#99=VERTEX_POINT('',#337);
#100=EDGE_CURVE('',#86,#87,#73,.T.);
#101=EDGE_CURVE('',#87,#86,#74,.T.);
#102=EDGE_CURVE('',#86,#88,#55,.T.);
#103=EDGE_CURVE('',#88,#88,#75,.T.);
#104=EDGE_CURVE('',#87,#89,#56,.T.);
#105=EDGE_CURVE('',#89,#89,#76,.T.);
#106=EDGE_CURVE('',#90,#90,#77,.T.);
#107=EDGE_CURVE('',#89,#91,#57,.T.);
#108=EDGE_CURVE('',#91,#91,#78,.T.);
#109=EDGE_CURVE('',#92,#92,#79,.T.);
#110=EDGE_CURVE('',#93,#93,#80,.T.);
#111=EDGE_CURVE('',#93,#94,#58,.T.);
#112=EDGE_CURVE('',#94,#94,#81,.T.);
#113=EDGE_CURVE('',#94,#92,#59,.T.);
#114=EDGE_CURVE('',#95,#95,#82,.T.);
#115=EDGE_CURVE('',#96,#96,#83,.T.);
#116=EDGE_CURVE('',#96,#97,#60,.T.);
#117=EDGE_CURVE('',#95,#96,#61,.T.);
#118=EDGE_CURVE('',#98,#98,#84,.T.);
#119=EDGE_CURVE('',#98,#99,#62,.T.);
#120=EDGE_CURVE('',#99,#99,#85,.T.);
#121=EDGE_CURVE('',#99,#90,#63,.T.);
#122=ORIENTED_EDGE('',*,*,#100,.T.);
#123=ORIENTED_EDGE('',*,*,#101,.T.);
#124=ORIENTED_EDGE('',*,*,#102,.T.);
#125=ORIENTED_EDGE('',*,*,#103,.T.);
#126=ORIENTED_EDGE('',*,*,#102,.F.);
#127=ORIENTED_EDGE('',*,*,#100,.F.);
#128=ORIENTED_EDGE('',*,*,#101,.F.);
#129=ORIENTED_EDGE('',*,*,#104,.T.);
#130=ORIENTED_EDGE('',*,*,#105,.F.);
#131=ORIENTED_EDGE('',*,*,#104,.F.);
#132=ORIENTED_EDGE('',*,*,#103,.F.);
#133=ORIENTED_EDGE('',*,*,#106,.F.);
#134=ORIENTED_EDGE('',*,*,#105,.T.);
#135=ORIENTED_EDGE('',*,*,#107,.T.);
#136=ORIENTED_EDGE('',*,*,#108,.T.);
#137=ORIENTED_EDGE('',*,*,#107,.F.);
#138=ORIENTED_EDGE('',*,*,#108,.F.);
#139=ORIENTED_EDGE('',*,*,#109,.F.);
#140=ORIENTED_EDGE('',*,*,#110,.T.);
#141=ORIENTED_EDGE('',*,*,#111,.T.);
#142=ORIENTED_EDGE('',*,*,#112,.T.);
#143=ORIENTED_EDGE('',*,*,#111,.F.);
#144=ORIENTED_EDGE('',*,*,#112,.F.);
#145=ORIENTED_EDGE('',*,*,#113,.T.);
#146=ORIENTED_EDGE('',*,*,#109,.T.);
#147=ORIENTED_EDGE('',*,*,#113,.F.);
#148=ORIENTED_EDGE('',*,*,#110,.F.);
#149=ORIENTED_EDGE('',*,*,#114,.T.);
#150=ORIENTED_EDGE('',*,*,#115,.T.);
#151=ORIENTED_EDGE('',*,*,#116,.T.);
#152=ORIENTED_EDGE('',*,*,#116,.F.);
#153=ORIENTED_EDGE('',*,*,#114,.F.);
#154=ORIENTED_EDGE('',*,*,#117,.T.);
#155=ORIENTED_EDGE('',*,*,#115,.F.);
#156=ORIENTED_EDGE('',*,*,#117,.F.);
#157=ORIENTED_EDGE('',*,*,#118,.T.);
#158=ORIENTED_EDGE('',*,*,#119,.T.);
#159=ORIENTED_EDGE('',*,*,#120,.T.);
#160=ORIENTED_EDGE('',*,*,#119,.F.);
#161=ORIENTED_EDGE('',*,*,#120,.F.);
#162=ORIENTED_EDGE('',*,*,#121,.T.);
#163=ORIENTED_EDGE('',*,*,#106,.T.);
#164=ORIENTED_EDGE('',*,*,#121,.F.);
#165=ORIENTED_EDGE('',*,*,#118,.F.);
#166=CONICAL_SURFACE('',#204,7.4,0.785398163397448);
#167=CONICAL_SURFACE('',#212,7.4,0.785398163397448);
#168=CONICAL_SURFACE('',#216,4.9,0.785398163397449);
#169=CONICAL_SURFACE('',#222,1.22925,1.02974425867665);
#170=CONICAL_SURFACE('',#225,4.95,0.785398163397459);
#171=ADVANCED_FACE('',(#26),#166,.T.);
#172=ADVANCED_FACE('',(#27),#22,.T.);
#173=ADVANCED_FACE('',(#28,#15),#18,.T.);
#174=ADVANCED_FACE('',(#29),#167,.T.);
#175=ADVANCED_FACE('',(#30,#16),#19,.T.);
#176=ADVANCED_FACE('',(#31),#168,.T.);
#177=ADVANCED_FACE('',(#32),#23,.T.);
#178=ADVANCED_FACE('',(#33,#17),#20,.F.);
#179=ADVANCED_FACE('',(#34),#169,.F.);
#180=ADVANCED_FACE('',(#35),#24,.F.);
#181=ADVANCED_FACE('',(#36),#170,.T.);
#182=ADVANCED_FACE('',(#37),#25,.T.);
#183=ADVANCED_FACE('',(#38),#21,.T.);
#184=CLOSED_SHELL('',(#171,#172,#173,#174,#175,#176,#177,#178,#179,#180,
#181,#182,#183));
#185=DERIVED_UNIT_ELEMENT(#187,1.);
#186=DERIVED_UNIT_ELEMENT(#348,3.);
#187=(
MASS_UNIT()
NAMED_UNIT(*)
SI_UNIT($,.GRAM.)
);
#188=DERIVED_UNIT((#185,#186));
#189=MEASURE_REPRESENTATION_ITEM('density measure',
POSITIVE_RATIO_MEASURE(7.73),#188);
#190=PROPERTY_DEFINITION_REPRESENTATION(#195,#192);
#191=PROPERTY_DEFINITION_REPRESENTATION(#196,#193);
#192=REPRESENTATION('material name',(#194),#345);
#193=REPRESENTATION('density',(#189),#345);
#194=DESCRIPTIVE_REPRESENTATION_ITEM('Steel, Alloy','Steel, Alloy');
#195=PROPERTY_DEFINITION('material property','material name',#355);
#196=PROPERTY_DEFINITION('material property','density of part',#355);
#197=DATE_TIME_ROLE('creation_date');
#198=APPLIED_DATE_AND_TIME_ASSIGNMENT(#199,#197,(#355));
#199=DATE_AND_TIME(#200,#201);
#200=CALENDAR_DATE(2025,16,9);
#201=LOCAL_TIME(0,0,0.,#202);
#202=COORDINATED_UNIVERSAL_TIME_OFFSET(0,0,.BEHIND.);
#203=AXIS2_PLACEMENT_3D('placement',#293,#230,#231);
#204=AXIS2_PLACEMENT_3D('',#294,#232,#233);
#205=AXIS2_PLACEMENT_3D('',#297,#234,#235);
#206=AXIS2_PLACEMENT_3D('',#298,#236,#237);
#207=AXIS2_PLACEMENT_3D('',#301,#239,#240);
#208=AXIS2_PLACEMENT_3D('',#302,#241,#242);
#209=AXIS2_PLACEMENT_3D('',#305,#244,#245);
#210=AXIS2_PLACEMENT_3D('',#306,#246,#247);
#211=AXIS2_PLACEMENT_3D('',#308,#248,#249);
#212=AXIS2_PLACEMENT_3D('',#309,#250,#251);
#213=AXIS2_PLACEMENT_3D('',#312,#253,#254);
#214=AXIS2_PLACEMENT_3D('',#313,#255,#256);
#215=AXIS2_PLACEMENT_3D('',#315,#257,#258);
#216=AXIS2_PLACEMENT_3D('',#316,#259,#260);
#217=AXIS2_PLACEMENT_3D('',#318,#261,#262);
#218=AXIS2_PLACEMENT_3D('',#321,#264,#265);
#219=AXIS2_PLACEMENT_3D('',#322,#266,#267);
#220=AXIS2_PLACEMENT_3D('',#324,#269,#270);
#221=AXIS2_PLACEMENT_3D('',#326,#271,#272);
#222=AXIS2_PLACEMENT_3D('',#327,#273,#274);
#223=AXIS2_PLACEMENT_3D('',#329,#275,#276);
#224=AXIS2_PLACEMENT_3D('',#332,#278,#279);
#225=AXIS2_PLACEMENT_3D('',#334,#281,#282);
#226=AXIS2_PLACEMENT_3D('',#336,#283,#284);
#227=AXIS2_PLACEMENT_3D('',#339,#286,#287);
#228=AXIS2_PLACEMENT_3D('',#340,#288,#289);
#229=AXIS2_PLACEMENT_3D('',#342,#291,#292);
#230=DIRECTION('axis',(0.,0.,1.));
#231=DIRECTION('refdir',(1.,0.,0.));
#232=DIRECTION('center_axis',(0.,0.,-1.));
#233=DIRECTION('ref_axis',(-1.,0.,0.));
#234=DIRECTION('center_axis',(0.,0.,1.));
#235=DIRECTION('ref_axis',(-1.,0.,0.));
#236=DIRECTION('center_axis',(0.,0.,1.));
#237=DIRECTION('ref_axis',(-1.,0.,0.));
#238=DIRECTION('',(-0.707106781186547,8.65956056235493E-17,0.707106781186547));
#239=DIRECTION('center_axis',(0.,0.,-1.));
#240=DIRECTION('ref_axis',(-1.,0.,0.));
#241=DIRECTION('center_axis',(0.,0.,1.));
#242=DIRECTION('ref_axis',(1.,0.,0.));
#243=DIRECTION('',(0.,0.,-1.));
#244=DIRECTION('center_axis',(0.,0.,-1.));
#245=DIRECTION('ref_axis',(1.,0.,0.));
#246=DIRECTION('center_axis',(0.,0.,1.));
#247=DIRECTION('ref_axis',(1.,0.,0.));
#248=DIRECTION('center_axis',(0.,0.,1.));
#249=DIRECTION('ref_axis',(-1.,0.,0.));
#250=DIRECTION('center_axis',(0.,0.,1.));
#251=DIRECTION('ref_axis',(1.,0.,0.));
#252=DIRECTION('',(0.707106781186547,8.65956056235493E-17,-0.707106781186547));
#253=DIRECTION('center_axis',(0.,0.,1.));
#254=DIRECTION('ref_axis',(1.,0.,0.));
#255=DIRECTION('center_axis',(0.,0.,-1.));
#256=DIRECTION('ref_axis',(-1.,0.,0.));
#257=DIRECTION('center_axis',(0.,0.,-1.));
#258=DIRECTION('ref_axis',(1.,0.,0.));
#259=DIRECTION('center_axis',(0.,0.,1.));
#260=DIRECTION('ref_axis',(1.,0.,0.));
#261=DIRECTION('center_axis',(0.,0.,1.));
#262=DIRECTION('ref_axis',(1.,0.,0.));
#263=DIRECTION('',(-0.707106781186548,8.65956056235494E-17,0.707106781186547));
#264=DIRECTION('center_axis',(0.,0.,-1.));
#265=DIRECTION('ref_axis',(1.,0.,0.));
#266=DIRECTION('center_axis',(0.,0.,1.));
#267=DIRECTION('ref_axis',(1.,0.,0.));
#268=DIRECTION('',(0.,0.,1.));
#269=DIRECTION('center_axis',(0.,0.,1.));
#270=DIRECTION('ref_axis',(1.,0.,0.));
#271=DIRECTION('center_axis',(0.,0.,1.));
#272=DIRECTION('ref_axis',(-1.,0.,0.));
#273=DIRECTION('center_axis',(0.,0.,-1.));
#274=DIRECTION('ref_axis',(-1.,0.,0.));
#275=DIRECTION('center_axis',(0.,0.,-1.));
#276=DIRECTION('ref_axis',(-1.,0.,0.));
#277=DIRECTION('',(-0.857167300702112,1.04972719113862E-16,0.515038074910054));
#278=DIRECTION('center_axis',(0.,0.,-1.));
#279=DIRECTION('ref_axis',(-1.,0.,0.));
#280=DIRECTION('',(0.,0.,1.));
#281=DIRECTION('center_axis',(0.,0.,-1.));
#282=DIRECTION('ref_axis',(-1.,0.,0.));
#283=DIRECTION('center_axis',(0.,0.,-1.));
#284=DIRECTION('ref_axis',(-1.,0.,0.));
#285=DIRECTION('',(0.707106781186555,8.65956056235503E-17,-0.70710678118654));
#286=DIRECTION('center_axis',(0.,0.,1.));
#287=DIRECTION('ref_axis',(-1.,0.,0.));
#288=DIRECTION('center_axis',(0.,0.,-1.));
#289=DIRECTION('ref_axis',(-1.,0.,0.));
#290=DIRECTION('',(0.,0.,-1.));
#291=DIRECTION('center_axis',(0.,0.,1.));
#292=DIRECTION('ref_axis',(1.,0.,0.));
#293=CARTESIAN_POINT('',(0.,0.,0.));
#294=CARTESIAN_POINT('Origin',(0.,0.,12.45));
#295=CARTESIAN_POINT('',(7.5,9.18485099360515E-16,12.35));
#296=CARTESIAN_POINT('',(-7.5,-9.18485099360515E-16,12.35));
#297=CARTESIAN_POINT('Origin',(0.,0.,12.35));
#298=CARTESIAN_POINT('Origin',(0.,0.,12.35));
#299=CARTESIAN_POINT('',(7.3,-8.93992163377568E-16,12.55));
#300=CARTESIAN_POINT('',(7.4,-9.06238631369041E-16,12.45));
#301=CARTESIAN_POINT('Origin',(0.,0.,12.55));
#302=CARTESIAN_POINT('Origin',(0.,0.,0.));
#303=CARTESIAN_POINT('',(-7.5,9.18485099360515E-16,5.7));
#304=CARTESIAN_POINT('',(-7.5,-9.18485099360515E-16,0.));
#305=CARTESIAN_POINT('Origin',(0.,0.,5.7));
#306=CARTESIAN_POINT('Origin',(0.,0.,12.55));
#307=CARTESIAN_POINT('',(5.,6.12323399573677E-16,12.55));
#308=CARTESIAN_POINT('Origin',(0.,0.,12.55));
#309=CARTESIAN_POINT('Origin',(0.,0.,5.6));
#310=CARTESIAN_POINT('',(-7.3,-8.93992163377568E-16,5.5));
#311=CARTESIAN_POINT('',(-7.4,-9.06238631369041E-16,5.6));
#312=CARTESIAN_POINT('Origin',(0.,0.,5.5));
#313=CARTESIAN_POINT('Origin',(0.,0.,5.5));
#314=CARTESIAN_POINT('',(-5.,6.12323399573677E-16,5.5));
#315=CARTESIAN_POINT('Origin',(0.,0.,5.5));
#316=CARTESIAN_POINT('Origin',(0.,0.,0.1));
#317=CARTESIAN_POINT('',(-4.8,-5.87830463590729E-16,0.));
#318=CARTESIAN_POINT('Origin',(0.,0.,0.));
#319=CARTESIAN_POINT('',(-5.,6.12323399573677E-16,0.2));
#320=CARTESIAN_POINT('',(-4.9,6.00076931582203E-16,0.1));
#321=CARTESIAN_POINT('Origin',(0.,0.,0.2));
#322=CARTESIAN_POINT('Origin',(0.,0.,0.));
#323=CARTESIAN_POINT('',(-5.,-6.12323399573677E-16,0.));
#324=CARTESIAN_POINT('Origin',(0.,0.,0.));
#325=CARTESIAN_POINT('',(2.4585,-3.01079415570377E-16,0.));
#326=CARTESIAN_POINT('Origin',(0.,0.,0.));
#327=CARTESIAN_POINT('Origin',(0.,0.,12.7386079159396));
#328=CARTESIAN_POINT('',(2.4585,-3.01079415570377E-16,12.));
#329=CARTESIAN_POINT('Origin',(0.,0.,12.));
#330=CARTESIAN_POINT('',(0.,0.,13.4772158318793));
#331=CARTESIAN_POINT('',(1.22925,-1.50539707785188E-16,12.7386079159396));
#332=CARTESIAN_POINT('Origin',(0.,0.,6.));
#333=CARTESIAN_POINT('',(2.4585,-3.01079415570377E-16,6.));
#334=CARTESIAN_POINT('Origin',(0.,0.,37.5));
#335=CARTESIAN_POINT('',(4.9,-6.00076931582203E-16,37.55));
#336=CARTESIAN_POINT('Origin',(0.,0.,37.55));
#337=CARTESIAN_POINT('',(5.,6.12323399573677E-16,37.45));
#338=CARTESIAN_POINT('',(4.95,6.0620016557794E-16,37.5));
#339=CARTESIAN_POINT('Origin',(0.,0.,37.45));
#340=CARTESIAN_POINT('Origin',(0.,0.,37.55));
#341=CARTESIAN_POINT('',(5.,-6.12323399573677E-16,37.55));
#342=CARTESIAN_POINT('Origin',(0.,0.,37.55));
#343=UNCERTAINTY_MEASURE_WITH_UNIT(LENGTH_MEASURE(0.01),#347,
'DISTANCE_ACCURACY_VALUE',
'Maximum model space distance between geometric entities at asserted c
onnectivities');
#344=UNCERTAINTY_MEASURE_WITH_UNIT(LENGTH_MEASURE(0.01),#347,
'DISTANCE_ACCURACY_VALUE',
'Maximum model space distance between geometric entities at asserted c
onnectivities');
#345=(
GEOMETRIC_REPRESENTATION_CONTEXT(3)
GLOBAL_UNCERTAINTY_ASSIGNED_CONTEXT((#343))
GLOBAL_UNIT_ASSIGNED_CONTEXT((#347,#349,#350))
REPRESENTATION_CONTEXT('','3D')
);
#346=(
GEOMETRIC_REPRESENTATION_CONTEXT(3)
GLOBAL_UNCERTAINTY_ASSIGNED_CONTEXT((#344))
GLOBAL_UNIT_ASSIGNED_CONTEXT((#347,#349,#350))
REPRESENTATION_CONTEXT('','3D')
);
#347=(
LENGTH_UNIT()
NAMED_UNIT(*)
SI_UNIT(.MILLI.,.METRE.)
);
#348=(
LENGTH_UNIT()
NAMED_UNIT(*)
SI_UNIT(.CENTI.,.METRE.)
);
#349=(
NAMED_UNIT(*)
PLANE_ANGLE_UNIT()
SI_UNIT($,.RADIAN.)
);
#350=(
NAMED_UNIT(*)
SI_UNIT($,.STERADIAN.)
SOLID_ANGLE_UNIT()
);
#351=SHAPE_DEFINITION_REPRESENTATION(#352,#353);
#352=PRODUCT_DEFINITION_SHAPE('',$,#355);
#353=SHAPE_REPRESENTATION('',(#203),#345);
#354=PRODUCT_DEFINITION_CONTEXT('part definition',#359,'design');
#355=PRODUCT_DEFINITION('Pully Shaft','Pully Shaft',#356,#354);
#356=PRODUCT_DEFINITION_FORMATION('',$,#361);
#357=PRODUCT_RELATED_PRODUCT_CATEGORY('Pully Shaft','Pully Shaft',(#361));
#358=APPLICATION_PROTOCOL_DEFINITION('international standard',
'automotive_design',2009,#359);
#359=APPLICATION_CONTEXT(
'Core Data for Automotive Mechanical Design Process');
#360=PRODUCT_CONTEXT('part definition',#359,'mechanical');
#361=PRODUCT('Pully Shaft','Pully Shaft',$,(#360));
#362=PRESENTATION_STYLE_ASSIGNMENT((#363));
#363=SURFACE_STYLE_USAGE(.BOTH.,#366);
#364=SURFACE_STYLE_RENDERING_WITH_PROPERTIES($,#370,(#365));
#365=SURFACE_STYLE_TRANSPARENT(0.);
#366=SURFACE_SIDE_STYLE('',(#367,#364));
#367=SURFACE_STYLE_FILL_AREA(#368);
#368=FILL_AREA_STYLE('',(#369));
#369=FILL_AREA_STYLE_COLOUR('',#370);
#370=COLOUR_RGB('',0.745098039215686,0.737254901960784,0.729411764705882);
ENDSEC;
END-ISO-10303-21;
