ISO-10303-21;
HEADER;
/* Generated by software containing ST-Developer
 * from STEP Tools, Inc. (www.steptools.com) 
 */

FILE_DESCRIPTION(
/* description */ (''),
/* implementation_level */ '2;1');

FILE_NAME(
/* name */ 
'S:\\Future Scope 1\\WIP\\Client Category\\Tom\\02 Progressive Work\\P
ully.stp',
/* time_stamp */ '2025-11-05T12:14:33+06:00',
/* author */ ('SD'),
/* organization */ (''),
/* preprocessor_version */ 'ST-DEVELOPER v18.1',
/* originating_system */ 'Autodesk Inventor 2021',
/* authorisation */ '');

FILE_SCHEMA (('AUTOMOTIVE_DESIGN { 1 0 10303 214 3 1 1 }'));
ENDSEC;

DATA;
#10=MECHANICAL_DESIGN_GEOMETRIC_PRESENTATION_REPRESENTATION('',(#13),#620);
#11=SHAPE_REPRESENTATION_RELATIONSHIP('SRR','None',#627,#12);
#12=ADVANCED_BREP_SHAPE_REPRESENTATION('',(#14),#619);
#13=STYLED_ITEM('',(#636),#14);
#14=MANIFOLD_SOLID_BREP('Solid1',#326);
#15=TOROIDAL_SURFACE('',#364,19.5,0.5);
#16=TOROIDAL_SURFACE('',#371,19.5,0.5);
#17=TOROIDAL_SURFACE('',#378,15.84414402,0.5);
#18=TOROIDAL_SURFACE('',#385,15.84414402,0.5);
#19=FACE_BOUND('',#59,.T.);
#20=FACE_BOUND('',#63,.T.);
#21=FACE_BOUND('',#73,.T.);
#22=FACE_BOUND('',#76,.T.);
#23=FACE_BOUND('',#79,.T.);
#24=PLANE('',#353);
#25=PLANE('',#362);
#26=PLANE('',#389);
#27=PLANE('',#393);
#28=PLANE('',#397);
#29=CYLINDRICAL_SURFACE('',#350,20.);
#30=CYLINDRICAL_SURFACE('',#359,20.);
#31=CYLINDRICAL_SURFACE('',#382,15.34414402);
#32=CYLINDRICAL_SURFACE('',#387,8.25);
#33=CYLINDRICAL_SURFACE('',#391,9.5);
#34=CYLINDRICAL_SURFACE('',#395,9.8);
#35=CYLINDRICAL_SURFACE('',#399,9.5);
#36=FACE_OUTER_BOUND('',#56,.T.);
#37=FACE_OUTER_BOUND('',#57,.T.);
#38=FACE_OUTER_BOUND('',#58,.T.);
#39=FACE_OUTER_BOUND('',#60,.T.);
#40=FACE_OUTER_BOUND('',#61,.T.);
#41=FACE_OUTER_BOUND('',#62,.T.);
#42=FACE_OUTER_BOUND('',#64,.T.);
#43=FACE_OUTER_BOUND('',#65,.T.);
#44=FACE_OUTER_BOUND('',#66,.T.);
#45=FACE_OUTER_BOUND('',#67,.T.);
#46=FACE_OUTER_BOUND('',#68,.T.);
#47=FACE_OUTER_BOUND('',#69,.T.);
#48=FACE_OUTER_BOUND('',#70,.T.);
#49=FACE_OUTER_BOUND('',#71,.T.);
#50=FACE_OUTER_BOUND('',#72,.T.);
#51=FACE_OUTER_BOUND('',#74,.T.);
#52=FACE_OUTER_BOUND('',#75,.T.);
#53=FACE_OUTER_BOUND('',#77,.T.);
#54=FACE_OUTER_BOUND('',#78,.T.);
#55=FACE_OUTER_BOUND('',#80,.T.);
#56=EDGE_LOOP('',(#212,#213,#214,#215,#216));
#57=EDGE_LOOP('',(#217,#218,#219,#220,#221,#222));
#58=EDGE_LOOP('',(#223));
#59=EDGE_LOOP('',(#224));
#60=EDGE_LOOP('',(#225,#226,#227,#228,#229));
#61=EDGE_LOOP('',(#230,#231,#232,#233,#234,#235));
#62=EDGE_LOOP('',(#236));
#63=EDGE_LOOP('',(#237));
#64=EDGE_LOOP('',(#238,#239,#240,#241,#242,#243));
#65=EDGE_LOOP('',(#244,#245,#246,#247,#248,#249));
#66=EDGE_LOOP('',(#250,#251,#252,#253,#254,#255));
#67=EDGE_LOOP('',(#256,#257,#258,#259,#260,#261));
#68=EDGE_LOOP('',(#262,#263,#264,#265,#266,#267));
#69=EDGE_LOOP('',(#268,#269,#270,#271,#272,#273));
#70=EDGE_LOOP('',(#274,#275,#276,#277,#278,#279));
#71=EDGE_LOOP('',(#280,#281,#282,#283));
#72=EDGE_LOOP('',(#284));
#73=EDGE_LOOP('',(#285));
#74=EDGE_LOOP('',(#286,#287,#288,#289));
#75=EDGE_LOOP('',(#290));
#76=EDGE_LOOP('',(#291));
#77=EDGE_LOOP('',(#292,#293,#294,#295));
#78=EDGE_LOOP('',(#296));
#79=EDGE_LOOP('',(#297));
#80=EDGE_LOOP('',(#298,#299,#300,#301));
#81=LINE('',#526,#92);
#82=LINE('',#532,#93);
#83=LINE('',#545,#94);
#84=LINE('',#551,#95);
#85=LINE('',#566,#96);
#86=LINE('',#576,#97);
#87=LINE('',#590,#98);
#88=LINE('',#596,#99);
#89=LINE('',#603,#100);
#90=LINE('',#610,#101);
#91=LINE('',#616,#102);
#92=VECTOR('',#406,19.9);
#93=VECTOR('',#413,20.);
#94=VECTOR('',#428,19.9);
#95=VECTOR('',#435,20.);
#96=VECTOR('',#454,17.67207201);
#97=VECTOR('',#467,17.67207201);
#98=VECTOR('',#484,15.34414402);
#99=VECTOR('',#493,8.25);
#100=VECTOR('',#502,9.5);
#101=VECTOR('',#511,9.8);
#102=VECTOR('',#520,9.5);
#103=CIRCLE('',#347,19.8);
#104=CIRCLE('',#348,20.);
#105=CIRCLE('',#349,20.);
#106=CIRCLE('',#351,20.);
#107=CIRCLE('',#352,20.);
#108=CIRCLE('',#354,8.25);
#109=CIRCLE('',#356,20.);
#110=CIRCLE('',#357,20.);
#111=CIRCLE('',#358,19.8);
#112=CIRCLE('',#360,20.);
#113=CIRCLE('',#361,20.);
#114=CIRCLE('',#363,9.5);
#115=CIRCLE('',#365,19.6759189558768);
#116=CIRCLE('',#366,19.6759189558768);
#117=CIRCLE('',#367,0.5);
#118=CIRCLE('',#369,15.6682250641232);
#119=CIRCLE('',#370,15.6682250641232);
#120=CIRCLE('',#372,0.5);
#121=CIRCLE('',#373,19.6759189558768);
#122=CIRCLE('',#374,19.6759189558768);
#123=CIRCLE('',#376,15.6682250641232);
#124=CIRCLE('',#377,15.6682250641232);
#125=CIRCLE('',#379,0.5);
#126=CIRCLE('',#380,15.34414402);
#127=CIRCLE('',#381,15.34414402);
#128=CIRCLE('',#383,15.34414402);
#129=CIRCLE('',#384,15.34414402);
#130=CIRCLE('',#386,0.5);
#131=CIRCLE('',#388,8.25);
#132=CIRCLE('',#390,9.5);
#133=CIRCLE('',#392,9.5);
#134=CIRCLE('',#394,9.79999999999999);
#135=CIRCLE('',#396,9.8);
#136=CIRCLE('',#398,9.49999999999999);
#137=VERTEX_POINT('',#523);
#138=VERTEX_POINT('',#525);
#139=VERTEX_POINT('',#527);
#140=VERTEX_POINT('',#531);
#141=VERTEX_POINT('',#533);
#142=VERTEX_POINT('',#537);
#143=VERTEX_POINT('',#540);
#144=VERTEX_POINT('',#541);
#145=VERTEX_POINT('',#544);
#146=VERTEX_POINT('',#548);
#147=VERTEX_POINT('',#549);
#148=VERTEX_POINT('',#554);
#149=VERTEX_POINT('',#557);
#150=VERTEX_POINT('',#558);
#151=VERTEX_POINT('',#563);
#152=VERTEX_POINT('',#564);
#153=VERTEX_POINT('',#569);
#154=VERTEX_POINT('',#571);
#155=VERTEX_POINT('',#575);
#156=VERTEX_POINT('',#577);
#157=VERTEX_POINT('',#581);
#158=VERTEX_POINT('',#583);
#159=VERTEX_POINT('',#587);
#160=VERTEX_POINT('',#588);
#161=VERTEX_POINT('',#595);
#162=VERTEX_POINT('',#599);
#163=VERTEX_POINT('',#602);
#164=VERTEX_POINT('',#606);
#165=VERTEX_POINT('',#609);
#166=VERTEX_POINT('',#613);
#167=EDGE_CURVE('',#137,#137,#103,.T.);
#168=EDGE_CURVE('',#137,#138,#81,.T.);
#169=EDGE_CURVE('',#138,#139,#104,.T.);
#170=EDGE_CURVE('',#139,#138,#105,.T.);
#171=EDGE_CURVE('',#139,#140,#82,.T.);
#172=EDGE_CURVE('',#141,#140,#106,.T.);
#173=EDGE_CURVE('',#140,#141,#107,.T.);
#174=EDGE_CURVE('',#142,#142,#108,.T.);
#175=EDGE_CURVE('',#143,#144,#109,.T.);
#176=EDGE_CURVE('',#144,#143,#110,.T.);
#177=EDGE_CURVE('',#143,#145,#83,.T.);
#178=EDGE_CURVE('',#145,#145,#111,.T.);
#179=EDGE_CURVE('',#146,#147,#112,.T.);
#180=EDGE_CURVE('',#146,#144,#84,.T.);
#181=EDGE_CURVE('',#147,#146,#113,.T.);
#182=EDGE_CURVE('',#148,#148,#114,.T.);
#183=EDGE_CURVE('',#149,#150,#115,.T.);
#184=EDGE_CURVE('',#150,#149,#116,.T.);
#185=EDGE_CURVE('',#149,#147,#117,.T.);
#186=EDGE_CURVE('',#151,#152,#118,.T.);
#187=EDGE_CURVE('',#151,#150,#85,.T.);
#188=EDGE_CURVE('',#152,#151,#119,.T.);
#189=EDGE_CURVE('',#141,#153,#120,.T.);
#190=EDGE_CURVE('',#153,#154,#121,.T.);
#191=EDGE_CURVE('',#154,#153,#122,.T.);
#192=EDGE_CURVE('',#154,#155,#86,.T.);
#193=EDGE_CURVE('',#156,#155,#123,.T.);
#194=EDGE_CURVE('',#155,#156,#124,.T.);
#195=EDGE_CURVE('',#152,#157,#125,.T.);
#196=EDGE_CURVE('',#157,#158,#126,.T.);
#197=EDGE_CURVE('',#158,#157,#127,.T.);
#198=EDGE_CURVE('',#159,#160,#128,.T.);
#199=EDGE_CURVE('',#159,#158,#87,.T.);
#200=EDGE_CURVE('',#160,#159,#129,.T.);
#201=EDGE_CURVE('',#160,#156,#130,.T.);
#202=EDGE_CURVE('',#142,#161,#88,.T.);
#203=EDGE_CURVE('',#161,#161,#131,.T.);
#204=EDGE_CURVE('',#162,#162,#132,.T.);
#205=EDGE_CURVE('',#162,#163,#89,.T.);
#206=EDGE_CURVE('',#163,#163,#133,.T.);
#207=EDGE_CURVE('',#164,#164,#134,.T.);
#208=EDGE_CURVE('',#164,#165,#90,.T.);
#209=EDGE_CURVE('',#165,#165,#135,.T.);
#210=EDGE_CURVE('',#166,#166,#136,.T.);
#211=EDGE_CURVE('',#166,#148,#91,.T.);
#212=ORIENTED_EDGE('',*,*,#167,.T.);
#213=ORIENTED_EDGE('',*,*,#168,.T.);
#214=ORIENTED_EDGE('',*,*,#169,.T.);
#215=ORIENTED_EDGE('',*,*,#170,.T.);
#216=ORIENTED_EDGE('',*,*,#168,.F.);
#217=ORIENTED_EDGE('',*,*,#169,.F.);
#218=ORIENTED_EDGE('',*,*,#170,.F.);
#219=ORIENTED_EDGE('',*,*,#171,.T.);
#220=ORIENTED_EDGE('',*,*,#172,.F.);
#221=ORIENTED_EDGE('',*,*,#173,.F.);
#222=ORIENTED_EDGE('',*,*,#171,.F.);
#223=ORIENTED_EDGE('',*,*,#167,.F.);
#224=ORIENTED_EDGE('',*,*,#174,.F.);
#225=ORIENTED_EDGE('',*,*,#175,.T.);
#226=ORIENTED_EDGE('',*,*,#176,.T.);
#227=ORIENTED_EDGE('',*,*,#177,.T.);
#228=ORIENTED_EDGE('',*,*,#178,.T.);
#229=ORIENTED_EDGE('',*,*,#177,.F.);
#230=ORIENTED_EDGE('',*,*,#179,.F.);
#231=ORIENTED_EDGE('',*,*,#180,.T.);
#232=ORIENTED_EDGE('',*,*,#175,.F.);
#233=ORIENTED_EDGE('',*,*,#176,.F.);
#234=ORIENTED_EDGE('',*,*,#180,.F.);
#235=ORIENTED_EDGE('',*,*,#181,.F.);
#236=ORIENTED_EDGE('',*,*,#178,.F.);
#237=ORIENTED_EDGE('',*,*,#182,.T.);
#238=ORIENTED_EDGE('',*,*,#183,.T.);
#239=ORIENTED_EDGE('',*,*,#184,.T.);
#240=ORIENTED_EDGE('',*,*,#185,.T.);
#241=ORIENTED_EDGE('',*,*,#181,.T.);
#242=ORIENTED_EDGE('',*,*,#179,.T.);
#243=ORIENTED_EDGE('',*,*,#185,.F.);
#244=ORIENTED_EDGE('',*,*,#186,.F.);
#245=ORIENTED_EDGE('',*,*,#187,.T.);
#246=ORIENTED_EDGE('',*,*,#183,.F.);
#247=ORIENTED_EDGE('',*,*,#184,.F.);
#248=ORIENTED_EDGE('',*,*,#187,.F.);
#249=ORIENTED_EDGE('',*,*,#188,.F.);
#250=ORIENTED_EDGE('',*,*,#172,.T.);
#251=ORIENTED_EDGE('',*,*,#173,.T.);
#252=ORIENTED_EDGE('',*,*,#189,.T.);
#253=ORIENTED_EDGE('',*,*,#190,.T.);
#254=ORIENTED_EDGE('',*,*,#191,.T.);
#255=ORIENTED_EDGE('',*,*,#189,.F.);
#256=ORIENTED_EDGE('',*,*,#191,.F.);
#257=ORIENTED_EDGE('',*,*,#192,.T.);
#258=ORIENTED_EDGE('',*,*,#193,.F.);
#259=ORIENTED_EDGE('',*,*,#194,.F.);
#260=ORIENTED_EDGE('',*,*,#192,.F.);
#261=ORIENTED_EDGE('',*,*,#190,.F.);
#262=ORIENTED_EDGE('',*,*,#186,.T.);
#263=ORIENTED_EDGE('',*,*,#195,.T.);
#264=ORIENTED_EDGE('',*,*,#196,.T.);
#265=ORIENTED_EDGE('',*,*,#197,.T.);
#266=ORIENTED_EDGE('',*,*,#195,.F.);
#267=ORIENTED_EDGE('',*,*,#188,.T.);
#268=ORIENTED_EDGE('',*,*,#198,.F.);
#269=ORIENTED_EDGE('',*,*,#199,.T.);
#270=ORIENTED_EDGE('',*,*,#196,.F.);
#271=ORIENTED_EDGE('',*,*,#197,.F.);
#272=ORIENTED_EDGE('',*,*,#199,.F.);
#273=ORIENTED_EDGE('',*,*,#200,.F.);
#274=ORIENTED_EDGE('',*,*,#198,.T.);
#275=ORIENTED_EDGE('',*,*,#201,.T.);
#276=ORIENTED_EDGE('',*,*,#193,.T.);
#277=ORIENTED_EDGE('',*,*,#194,.T.);
#278=ORIENTED_EDGE('',*,*,#201,.F.);
#279=ORIENTED_EDGE('',*,*,#200,.T.);
#280=ORIENTED_EDGE('',*,*,#174,.T.);
#281=ORIENTED_EDGE('',*,*,#202,.T.);
#282=ORIENTED_EDGE('',*,*,#203,.F.);
#283=ORIENTED_EDGE('',*,*,#202,.F.);
#284=ORIENTED_EDGE('',*,*,#204,.F.);
#285=ORIENTED_EDGE('',*,*,#203,.T.);
#286=ORIENTED_EDGE('',*,*,#204,.T.);
#287=ORIENTED_EDGE('',*,*,#205,.T.);
#288=ORIENTED_EDGE('',*,*,#206,.F.);
#289=ORIENTED_EDGE('',*,*,#205,.F.);
#290=ORIENTED_EDGE('',*,*,#207,.F.);
#291=ORIENTED_EDGE('',*,*,#206,.T.);
#292=ORIENTED_EDGE('',*,*,#207,.T.);
#293=ORIENTED_EDGE('',*,*,#208,.T.);
#294=ORIENTED_EDGE('',*,*,#209,.F.);
#295=ORIENTED_EDGE('',*,*,#208,.F.);
#296=ORIENTED_EDGE('',*,*,#209,.T.);
#297=ORIENTED_EDGE('',*,*,#210,.F.);
#298=ORIENTED_EDGE('',*,*,#210,.T.);
#299=ORIENTED_EDGE('',*,*,#211,.T.);
#300=ORIENTED_EDGE('',*,*,#182,.F.);
#301=ORIENTED_EDGE('',*,*,#211,.F.);
#302=CONICAL_SURFACE('',#346,19.9,0.785398163397452);
#303=CONICAL_SURFACE('',#355,19.9,0.785398163397448);
#304=CONICAL_SURFACE('',#368,17.67207201,1.21126249277567);
#305=CONICAL_SURFACE('',#375,17.67207201,1.21126249277567);
#306=ADVANCED_FACE('',(#36),#302,.T.);
#307=ADVANCED_FACE('',(#37),#29,.T.);
#308=ADVANCED_FACE('',(#38,#19),#24,.T.);
#309=ADVANCED_FACE('',(#39),#303,.T.);
#310=ADVANCED_FACE('',(#40),#30,.T.);
#311=ADVANCED_FACE('',(#41,#20),#25,.T.);
#312=ADVANCED_FACE('',(#42),#15,.T.);
#313=ADVANCED_FACE('',(#43),#304,.T.);
#314=ADVANCED_FACE('',(#44),#16,.T.);
#315=ADVANCED_FACE('',(#45),#305,.T.);
#316=ADVANCED_FACE('',(#46),#17,.F.);
#317=ADVANCED_FACE('',(#47),#31,.T.);
#318=ADVANCED_FACE('',(#48),#18,.F.);
#319=ADVANCED_FACE('',(#49),#32,.F.);
#320=ADVANCED_FACE('',(#50,#21),#26,.T.);
#321=ADVANCED_FACE('',(#51),#33,.F.);
#322=ADVANCED_FACE('',(#52,#22),#27,.T.);
#323=ADVANCED_FACE('',(#53),#34,.F.);
#324=ADVANCED_FACE('',(#54,#23),#28,.T.);
#325=ADVANCED_FACE('',(#55),#35,.F.);
#326=CLOSED_SHELL('',(#306,#307,#308,#309,#310,#311,#312,#313,#314,#315,
#316,#317,#318,#319,#320,#321,#322,#323,#324,#325));
#327=DERIVED_UNIT_ELEMENT(#329,1.);
#328=DERIVED_UNIT_ELEMENT(#622,3.);
#329=(
MASS_UNIT()
NAMED_UNIT(*)
SI_UNIT($,.GRAM.)
);
#330=DERIVED_UNIT((#327,#328));
#331=MEASURE_REPRESENTATION_ITEM('density measure',
POSITIVE_RATIO_MEASURE(7.85),#330);
#332=PROPERTY_DEFINITION_REPRESENTATION(#337,#334);
#333=PROPERTY_DEFINITION_REPRESENTATION(#338,#335);
#334=REPRESENTATION('material name',(#336),#619);
#335=REPRESENTATION('density',(#331),#619);
#336=DESCRIPTIVE_REPRESENTATION_ITEM('Steel, Cast','Steel, Cast');
#337=PROPERTY_DEFINITION('material property','material name',#629);
#338=PROPERTY_DEFINITION('material property','density of part',#629);
#339=DATE_TIME_ROLE('creation_date');
#340=APPLIED_DATE_AND_TIME_ASSIGNMENT(#341,#339,(#629));
#341=DATE_AND_TIME(#342,#343);
#342=CALENDAR_DATE(2025,16,9);
#343=LOCAL_TIME(0,0,0.,#344);
#344=COORDINATED_UNIVERSAL_TIME_OFFSET(0,0,.BEHIND.);
#345=AXIS2_PLACEMENT_3D('placement',#521,#400,#401);
#346=AXIS2_PLACEMENT_3D('',#522,#402,#403);
#347=AXIS2_PLACEMENT_3D('',#524,#404,#405);
#348=AXIS2_PLACEMENT_3D('',#528,#407,#408);
#349=AXIS2_PLACEMENT_3D('',#529,#409,#410);
#350=AXIS2_PLACEMENT_3D('',#530,#411,#412);
#351=AXIS2_PLACEMENT_3D('',#534,#414,#415);
#352=AXIS2_PLACEMENT_3D('',#535,#416,#417);
#353=AXIS2_PLACEMENT_3D('',#536,#418,#419);
#354=AXIS2_PLACEMENT_3D('',#538,#420,#421);
#355=AXIS2_PLACEMENT_3D('',#539,#422,#423);
#356=AXIS2_PLACEMENT_3D('',#542,#424,#425);
#357=AXIS2_PLACEMENT_3D('',#543,#426,#427);
#358=AXIS2_PLACEMENT_3D('',#546,#429,#430);
#359=AXIS2_PLACEMENT_3D('',#547,#431,#432);
#360=AXIS2_PLACEMENT_3D('',#550,#433,#434);
#361=AXIS2_PLACEMENT_3D('',#552,#436,#437);
#362=AXIS2_PLACEMENT_3D('',#553,#438,#439);
#363=AXIS2_PLACEMENT_3D('',#555,#440,#441);
#364=AXIS2_PLACEMENT_3D('',#556,#442,#443);
#365=AXIS2_PLACEMENT_3D('',#559,#444,#445);
#366=AXIS2_PLACEMENT_3D('',#560,#446,#447);
#367=AXIS2_PLACEMENT_3D('',#561,#448,#449);
#368=AXIS2_PLACEMENT_3D('',#562,#450,#451);
#369=AXIS2_PLACEMENT_3D('',#565,#452,#453);
#370=AXIS2_PLACEMENT_3D('',#567,#455,#456);
#371=AXIS2_PLACEMENT_3D('',#568,#457,#458);
#372=AXIS2_PLACEMENT_3D('',#570,#459,#460);
#373=AXIS2_PLACEMENT_3D('',#572,#461,#462);
#374=AXIS2_PLACEMENT_3D('',#573,#463,#464);
#375=AXIS2_PLACEMENT_3D('',#574,#465,#466);
#376=AXIS2_PLACEMENT_3D('',#578,#468,#469);
#377=AXIS2_PLACEMENT_3D('',#579,#470,#471);
#378=AXIS2_PLACEMENT_3D('',#580,#472,#473);
#379=AXIS2_PLACEMENT_3D('',#582,#474,#475);
#380=AXIS2_PLACEMENT_3D('',#584,#476,#477);
#381=AXIS2_PLACEMENT_3D('',#585,#478,#479);
#382=AXIS2_PLACEMENT_3D('',#586,#480,#481);
#383=AXIS2_PLACEMENT_3D('',#589,#482,#483);
#384=AXIS2_PLACEMENT_3D('',#591,#485,#486);
#385=AXIS2_PLACEMENT_3D('',#592,#487,#488);
#386=AXIS2_PLACEMENT_3D('',#593,#489,#490);
#387=AXIS2_PLACEMENT_3D('',#594,#491,#492);
#388=AXIS2_PLACEMENT_3D('',#597,#494,#495);
#389=AXIS2_PLACEMENT_3D('',#598,#496,#497);
#390=AXIS2_PLACEMENT_3D('',#600,#498,#499);
#391=AXIS2_PLACEMENT_3D('',#601,#500,#501);
#392=AXIS2_PLACEMENT_3D('',#604,#503,#504);
#393=AXIS2_PLACEMENT_3D('',#605,#505,#506);
#394=AXIS2_PLACEMENT_3D('',#607,#507,#508);
#395=AXIS2_PLACEMENT_3D('',#608,#509,#510);
#396=AXIS2_PLACEMENT_3D('',#611,#512,#513);
#397=AXIS2_PLACEMENT_3D('',#612,#514,#515);
#398=AXIS2_PLACEMENT_3D('',#614,#516,#517);
#399=AXIS2_PLACEMENT_3D('',#615,#518,#519);
#400=DIRECTION('axis',(0.,0.,1.));
#401=DIRECTION('refdir',(1.,0.,0.));
#402=DIRECTION('center_axis',(-1.22464679914736E-16,1.,0.));
#403=DIRECTION('ref_axis',(-1.,-1.16714741496535E-16,0.));
#404=DIRECTION('center_axis',(-1.22464679914735E-16,1.,0.));
#405=DIRECTION('ref_axis',(-1.,-1.22464679914735E-16,0.));
#406=DIRECTION('',(0.707106781186549,0.707106781186546,8.65956056235496E-17));
#407=DIRECTION('center_axis',(1.22464679914735E-16,-1.,0.));
#408=DIRECTION('ref_axis',(-1.,-1.11022302462516E-16,0.));
#409=DIRECTION('center_axis',(1.22464679914735E-16,-1.,0.));
#410=DIRECTION('ref_axis',(-1.,-1.11022302462516E-16,0.));
#411=DIRECTION('center_axis',(1.22464679914735E-16,-1.,0.));
#412=DIRECTION('ref_axis',(1.,1.11022302462516E-16,0.));
#413=DIRECTION('',(-1.22464679914735E-16,1.,0.));
#414=DIRECTION('center_axis',(-1.22464679914735E-16,1.,0.));
#415=DIRECTION('ref_axis',(-1.,-1.21430643318376E-16,1.22464679914735E-16));
#416=DIRECTION('center_axis',(-1.22464679914735E-16,1.,0.));
#417=DIRECTION('ref_axis',(-1.,-1.21430643318376E-16,1.22464679914735E-16));
#418=DIRECTION('center_axis',(1.22464679914735E-16,-1.,0.));
#419=DIRECTION('ref_axis',(0.,0.,-1.));
#420=DIRECTION('center_axis',(1.22464679914735E-16,-1.,0.));
#421=DIRECTION('ref_axis',(1.,1.22464679914735E-16,0.));
#422=DIRECTION('center_axis',(1.22464679914735E-16,-1.,0.));
#423=DIRECTION('ref_axis',(-1.,-1.16714741496535E-16,0.));
#424=DIRECTION('center_axis',(-1.22464679914735E-16,1.,0.));
#425=DIRECTION('ref_axis',(-1.,-1.11022302462516E-16,0.));
#426=DIRECTION('center_axis',(-1.22464679914735E-16,1.,0.));
#427=DIRECTION('ref_axis',(-1.,-1.11022302462516E-16,0.));
#428=DIRECTION('',(-0.707106781186548,0.707106781186547,-8.65956056235493E-17));
#429=DIRECTION('center_axis',(1.22464679914735E-16,-1.,0.));
#430=DIRECTION('ref_axis',(-1.,-1.22464679914735E-16,0.));
#431=DIRECTION('center_axis',(1.22464679914735E-16,-1.,0.));
#432=DIRECTION('ref_axis',(1.,1.11022302462516E-16,0.));
#433=DIRECTION('center_axis',(1.22464679914735E-16,-1.,0.));
#434=DIRECTION('ref_axis',(-1.,-1.21430643318376E-16,1.22464679914735E-16));
#435=DIRECTION('',(-1.22464679914735E-16,1.,0.));
#436=DIRECTION('center_axis',(1.22464679914735E-16,-1.,0.));
#437=DIRECTION('ref_axis',(-1.,-1.21430643318376E-16,1.22464679914735E-16));
#438=DIRECTION('center_axis',(-1.22464679914735E-16,1.,0.));
#439=DIRECTION('ref_axis',(0.,0.,1.));
#440=DIRECTION('center_axis',(1.22464679914735E-16,-1.,0.));
#441=DIRECTION('ref_axis',(1.,1.22464679914735E-16,0.));
#442=DIRECTION('center_axis',(1.22464679914735E-16,-1.,0.));
#443=DIRECTION('ref_axis',(0.,0.,-1.));
#444=DIRECTION('center_axis',(-1.41063681334888E-16,1.,-2.82127362669776E-17));
#445=DIRECTION('ref_axis',(-1.,-1.41063681334888E-16,0.));
#446=DIRECTION('center_axis',(-1.41063681334888E-16,1.,-2.82127362669776E-17));
#447=DIRECTION('ref_axis',(-1.,-1.41063681334888E-16,0.));
#448=DIRECTION('center_axis',(-1.,-1.22464679914735E-16,-1.22464679914735E-16));
#449=DIRECTION('ref_axis',(-1.22464679914735E-16,0.,1.));
#450=DIRECTION('center_axis',(-1.22464679914735E-16,1.,0.));
#451=DIRECTION('ref_axis',(1.,1.11022302462516E-16,0.));
#452=DIRECTION('center_axis',(1.06287376529393E-16,-1.,-3.54291255097978E-17));
#453=DIRECTION('ref_axis',(-1.,-1.06287376529393E-16,0.));
#454=DIRECTION('',(-0.936060940245237,0.351837911753697,-1.14634403427819E-16));
#455=DIRECTION('center_axis',(1.06287376529393E-16,-1.,-3.54291255097978E-17));
#456=DIRECTION('ref_axis',(-1.,-1.06287376529393E-16,0.));
#457=DIRECTION('center_axis',(1.22464679914735E-16,-1.,0.));
#458=DIRECTION('ref_axis',(0.,0.,-1.));
#459=DIRECTION('center_axis',(-1.,-1.22464679914735E-16,-1.22464679914735E-16));
#460=DIRECTION('ref_axis',(-1.22464679914735E-16,0.,1.));
#461=DIRECTION('center_axis',(1.1285094506791E-16,-1.,-1.29654187127402E-32));
#462=DIRECTION('ref_axis',(-1.,-1.1285094506791E-16,-2.50579435130206E-32));
#463=DIRECTION('center_axis',(1.1285094506791E-16,-1.,-1.29654187127402E-32));
#464=DIRECTION('ref_axis',(-1.,-1.1285094506791E-16,-2.50579435130206E-32));
#465=DIRECTION('center_axis',(1.22464679914735E-16,-1.,0.));
#466=DIRECTION('ref_axis',(1.,1.11022302462516E-16,0.));
#467=DIRECTION('',(0.936060940245237,0.351837911753698,1.14634403427819E-16));
#468=DIRECTION('center_axis',(-1.41716502039191E-16,1.,1.62857048450279E-32));
#469=DIRECTION('ref_axis',(-1.,-1.41716502039191E-16,0.));
#470=DIRECTION('center_axis',(-1.41716502039191E-16,1.,1.62857048450279E-32));
#471=DIRECTION('ref_axis',(-1.,-1.41716502039191E-16,0.));
#472=DIRECTION('center_axis',(1.22464679914735E-16,-1.,0.));
#473=DIRECTION('ref_axis',(0.,0.,-1.));
#474=DIRECTION('center_axis',(-1.,-1.22464679914735E-16,-1.22464679914735E-16));
#475=DIRECTION('ref_axis',(-1.22464679914735E-16,0.,1.));
#476=DIRECTION('center_axis',(-1.22464679914735E-16,1.,0.));
#477=DIRECTION('ref_axis',(-1.,-1.22098785804733E-16,1.22464679914735E-16));
#478=DIRECTION('center_axis',(-1.22464679914735E-16,1.,0.));
#479=DIRECTION('ref_axis',(-1.,-1.22098785804733E-16,1.22464679914735E-16));
#480=DIRECTION('center_axis',(1.22464679914735E-16,-1.,0.));
#481=DIRECTION('ref_axis',(1.,1.11022302462516E-16,0.));
#482=DIRECTION('center_axis',(1.22464679914735E-16,-1.,0.));
#483=DIRECTION('ref_axis',(-1.,-1.22098785804733E-16,1.22464679914735E-16));
#484=DIRECTION('',(-1.22464679914735E-16,1.,0.));
#485=DIRECTION('center_axis',(1.22464679914735E-16,-1.,0.));
#486=DIRECTION('ref_axis',(-1.,-1.22098785804733E-16,1.22464679914735E-16));
#487=DIRECTION('center_axis',(1.22464679914735E-16,-1.,0.));
#488=DIRECTION('ref_axis',(0.,0.,-1.));
#489=DIRECTION('center_axis',(-1.,-1.22464679914735E-16,-1.22464679914735E-16));
#490=DIRECTION('ref_axis',(-1.22464679914735E-16,0.,1.));
#491=DIRECTION('center_axis',(1.22464679914735E-16,-1.,0.));
#492=DIRECTION('ref_axis',(1.,1.11022302462516E-16,0.));
#493=DIRECTION('',(-1.22464679914735E-16,1.,0.));
#494=DIRECTION('center_axis',(1.22464679914735E-16,-1.,0.));
#495=DIRECTION('ref_axis',(1.,1.22464679914735E-16,0.));
#496=DIRECTION('center_axis',(-1.22464679914735E-16,1.,0.));
#497=DIRECTION('ref_axis',(0.,0.,1.));
#498=DIRECTION('center_axis',(1.22464679914735E-16,-1.,0.));
#499=DIRECTION('ref_axis',(1.,1.22464679914735E-16,0.));
#500=DIRECTION('center_axis',(1.22464679914735E-16,-1.,0.));
#501=DIRECTION('ref_axis',(1.,1.11022302462516E-16,0.));
#502=DIRECTION('',(-1.22464679914735E-16,1.,0.));
#503=DIRECTION('center_axis',(1.22464679914735E-16,-1.,0.));
#504=DIRECTION('ref_axis',(1.,1.22464679914735E-16,0.));
#505=DIRECTION('center_axis',(-1.22464679914735E-16,1.,0.));
#506=DIRECTION('ref_axis',(0.,0.,1.));
#507=DIRECTION('center_axis',(1.22464679914735E-16,-1.,0.));
#508=DIRECTION('ref_axis',(1.,1.22464679914735E-16,0.));
#509=DIRECTION('center_axis',(1.22464679914735E-16,-1.,0.));
#510=DIRECTION('ref_axis',(1.,1.11022302462516E-16,0.));
#511=DIRECTION('',(-1.22464679914735E-16,1.,0.));
#512=DIRECTION('center_axis',(1.22464679914735E-16,-1.,0.));
#513=DIRECTION('ref_axis',(1.,1.22464679914735E-16,0.));
#514=DIRECTION('center_axis',(1.22464679914735E-16,-1.,0.));
#515=DIRECTION('ref_axis',(0.,0.,-1.));
#516=DIRECTION('center_axis',(1.22464679914735E-16,-1.,0.));
#517=DIRECTION('ref_axis',(1.,1.22464679914735E-16,0.));
#518=DIRECTION('center_axis',(1.22464679914735E-16,-1.,0.));
#519=DIRECTION('ref_axis',(1.,1.11022302462516E-16,0.));
#520=DIRECTION('',(-1.22464679914735E-16,1.,0.));
#521=CARTESIAN_POINT('',(0.,0.,0.));
#522=CARTESIAN_POINT('Origin',(1.21240033115588E-15,-9.9,0.));
#523=CARTESIAN_POINT('',(19.8,-10.,-2.42480066231176E-15));
#524=CARTESIAN_POINT('Origin',(1.22464679914735E-15,-10.,0.));
#525=CARTESIAN_POINT('',(20.,-9.8,2.44929359829471E-15));
#526=CARTESIAN_POINT('',(19.9,-9.9,2.43704713030323E-15));
#527=CARTESIAN_POINT('',(-20.,-9.8,-2.44929359829471E-15));
#528=CARTESIAN_POINT('Origin',(1.20015386316441E-15,-9.8,0.));
#529=CARTESIAN_POINT('Origin',(1.20015386316441E-15,-9.8,0.));
#530=CARTESIAN_POINT('Origin',(1.07156594925393E-15,-8.75,0.));
#531=CARTESIAN_POINT('',(-20.,-7.84621789051282,-2.44929359829471E-15));
#532=CARTESIAN_POINT('',(-20.,-8.75,-2.44929359829471E-15));
#533=CARTESIAN_POINT('',(-1.48840903579178E-15,-7.84621789051282,20.));
#534=CARTESIAN_POINT('Origin',(9.60884562502923E-16,-7.84621789051282,0.));
#535=CARTESIAN_POINT('Origin',(9.60884562502923E-16,-7.84621789051282,0.));
#536=CARTESIAN_POINT('Origin',(8.25,-10.,0.));
#537=CARTESIAN_POINT('',(-8.25,-10.,-1.01033360929657E-15));
#538=CARTESIAN_POINT('Origin',(1.22464679914735E-15,-10.,0.));
#539=CARTESIAN_POINT('Origin',(1.22464679914736E-17,-0.100000000000001,
0.));
#540=CARTESIAN_POINT('',(20.,-0.199999999999999,-2.44929359829471E-15));
#541=CARTESIAN_POINT('',(-20.,-0.200000000000003,-2.44929359829471E-15));
#542=CARTESIAN_POINT('Origin',(2.44929359829472E-17,-0.200000000000001,
0.));
#543=CARTESIAN_POINT('Origin',(2.44929359829472E-17,-0.200000000000001,
0.));
#544=CARTESIAN_POINT('',(19.8,1.34927210720614E-15,2.42480066231176E-15));
#545=CARTESIAN_POINT('',(19.9,-0.0999999999999989,2.43704713030323E-15));
#546=CARTESIAN_POINT('Origin',(1.00148357108136E-31,-1.07552855510562E-15,
0.));
#547=CARTESIAN_POINT('Origin',(1.53080849893419E-16,-1.25,0.));
#548=CARTESIAN_POINT('',(-20.,-2.15378210948719,-2.44929359829471E-15));
#549=CARTESIAN_POINT('',(-2.18553136165027E-15,-2.15378210948718,20.));
#550=CARTESIAN_POINT('Origin',(2.63762236644431E-16,-2.15378210948718,0.));
#551=CARTESIAN_POINT('',(-20.,-1.25,-2.44929359829471E-15));
#552=CARTESIAN_POINT('Origin',(2.63762236644431E-16,-2.15378210948718,0.));
#553=CARTESIAN_POINT('Origin',(20.,1.38777878078145E-15,0.));
#554=CARTESIAN_POINT('',(-9.5,-2.08166817117217E-15,-1.16341445918999E-15));
#555=CARTESIAN_POINT('Origin',(1.23259516440783E-31,-1.11022302462516E-15,
0.));
#556=CARTESIAN_POINT('Origin',(2.63762236644431E-16,-2.15378210948718,0.));
#557=CARTESIAN_POINT('',(-2.08852567860139E-15,-2.6218125796098,19.6759189558768));
#558=CARTESIAN_POINT('',(-19.6759189558769,-2.6218125796098,-2.40960511695973E-15));
#559=CARTESIAN_POINT('Origin',(0.,-2.6218125796098,-2.40960511695973E-15));
#560=CARTESIAN_POINT('Origin',(0.,-2.6218125796098,-2.40960511695973E-15));
#561=CARTESIAN_POINT('Origin',(-2.12429902169291E-15,-2.15378210948718,
19.5));
#562=CARTESIAN_POINT('Origin',(4.13318294712232E-16,-3.375,0.));
#563=CARTESIAN_POINT('',(-15.6682250641231,-4.1281874203902,-1.91880416730987E-15));
#564=CARTESIAN_POINT('',(-1.41324701624375E-15,-4.1281874203902,15.6682250641231));
#565=CARTESIAN_POINT('Origin',(0.,-4.1281874203902,-1.91880416730988E-15));
#566=CARTESIAN_POINT('',(-17.67207201,-3.375,-2.1642046421348E-15));
#567=CARTESIAN_POINT('Origin',(0.,-4.1281874203902,-1.91880416730988E-15));
#568=CARTESIAN_POINT('Origin',(9.60884562502923E-16,-7.84621789051282,0.));
#569=CARTESIAN_POINT('',(-1.50603775617072E-15,-7.3781874203902,19.6759189558768));
#570=CARTESIAN_POINT('Origin',(-1.42717669583442E-15,-7.84621789051282,
19.5));
#571=CARTESIAN_POINT('',(-19.6759189558769,-7.3781874203902,-2.40960511695973E-15));
#572=CARTESIAN_POINT('Origin',(0.,-7.3781874203902,-2.40960511695973E-15));
#573=CARTESIAN_POINT('Origin',(0.,-7.3781874203902,-2.40960511695973E-15));
#574=CARTESIAN_POINT('Origin',(8.11328504435122E-16,-6.625,0.));
#575=CARTESIAN_POINT('',(-15.6682250641231,-5.8718125796098,-1.91880416730987E-15));
#576=CARTESIAN_POINT('',(-17.67207201,-6.625,-2.1642046421348E-15));
#577=CARTESIAN_POINT('',(-1.19971451922864E-15,-5.8718125796098,15.6682250641231));
#578=CARTESIAN_POINT('Origin',(0.,-5.8718125796098,-1.91880416730988E-15));
#579=CARTESIAN_POINT('Origin',(0.,-5.8718125796098,-1.91880416730988E-15));
#580=CARTESIAN_POINT('Origin',(5.62874352780033E-16,-4.59621789051282,0.));
#581=CARTESIAN_POINT('',(-1.31624133319487E-15,-4.59621789051282,15.34414402));
#582=CARTESIAN_POINT('Origin',(-1.37747367315223E-15,-4.59621789051282,
15.84414402));
#583=CARTESIAN_POINT('',(-15.34414402,-4.59621789051282,-1.8791156859749E-15));
#584=CARTESIAN_POINT('Origin',(5.62874352780033E-16,-4.59621789051282,0.));
#585=CARTESIAN_POINT('Origin',(5.62874352780033E-16,-4.59621789051282,0.));
#586=CARTESIAN_POINT('Origin',(6.12323399573677E-16,-5.,0.));
#587=CARTESIAN_POINT('',(-15.34414402,-5.40378210948719,-1.8791156859749E-15));
#588=CARTESIAN_POINT('',(-1.21734323960758E-15,-5.40378210948718,15.34414402));
#589=CARTESIAN_POINT('Origin',(6.61772446367321E-16,-5.40378210948718,0.));
#590=CARTESIAN_POINT('',(-15.34414402,-5.,-1.8791156859749E-15));
#591=CARTESIAN_POINT('Origin',(6.61772446367321E-16,-5.40378210948718,0.));
#592=CARTESIAN_POINT('Origin',(6.61772446367321E-16,-5.40378210948718,0.));
#593=CARTESIAN_POINT('Origin',(-1.27857557956495E-15,-5.40378210948718,
15.84414402));
#594=CARTESIAN_POINT('Origin',(1.04094977927525E-15,-8.5,0.));
#595=CARTESIAN_POINT('',(-8.25,-7.,-1.01033360929657E-15));
#596=CARTESIAN_POINT('',(-8.25,-8.5,-1.01033360929657E-15));
#597=CARTESIAN_POINT('Origin',(8.57252759403148E-16,-7.,0.));
#598=CARTESIAN_POINT('Origin',(9.5,-7.,0.));
#599=CARTESIAN_POINT('',(-9.5,-7.,-1.16341445918999E-15));
#600=CARTESIAN_POINT('Origin',(8.57252759403148E-16,-7.,0.));
#601=CARTESIAN_POINT('Origin',(5.50478736216736E-16,-4.495,0.));
#602=CARTESIAN_POINT('',(-9.5,-1.99,-1.16341445918999E-15));
#603=CARTESIAN_POINT('',(-9.5,-4.495,-1.16341445918999E-15));
#604=CARTESIAN_POINT('Origin',(2.43704713030324E-16,-1.99,0.));
#605=CARTESIAN_POINT('Origin',(9.79999999999999,-1.99,0.));
#606=CARTESIAN_POINT('',(-9.8,-1.99,-1.20015386316441E-15));
#607=CARTESIAN_POINT('Origin',(2.43704713030324E-16,-1.99,0.));
#608=CARTESIAN_POINT('Origin',(1.82472373072956E-16,-1.49,0.));
#609=CARTESIAN_POINT('',(-9.8,-0.990000000000002,-1.20015386316441E-15));
#610=CARTESIAN_POINT('',(-9.8,-1.49,-1.20015386316441E-15));
#611=CARTESIAN_POINT('Origin',(1.21240033115588E-16,-0.990000000000001,
0.));
#612=CARTESIAN_POINT('Origin',(9.49999999999999,-0.99,0.));
#613=CARTESIAN_POINT('',(-9.5,-0.990000000000002,-1.16341445918999E-15));
#614=CARTESIAN_POINT('Origin',(1.21240033115588E-16,-0.990000000000001,
0.));
#615=CARTESIAN_POINT('Origin',(6.06200165577942E-17,-0.495000000000001,
0.));
#616=CARTESIAN_POINT('',(-9.5,-0.495000000000002,-1.16341445918999E-15));
#617=UNCERTAINTY_MEASURE_WITH_UNIT(LENGTH_MEASURE(0.01),#621,
'DISTANCE_ACCURACY_VALUE',
'Maximum model space distance between geometric entities at asserted c
onnectivities');
#618=UNCERTAINTY_MEASURE_WITH_UNIT(LENGTH_MEASURE(0.01),#621,
'DISTANCE_ACCURACY_VALUE',
'Maximum model space distance between geometric entities at asserted c
onnectivities');
#619=(
GEOMETRIC_REPRESENTATION_CONTEXT(3)
GLOBAL_UNCERTAINTY_ASSIGNED_CONTEXT((#617))
GLOBAL_UNIT_ASSIGNED_CONTEXT((#621,#623,#624))
REPRESENTATION_CONTEXT('','3D')
);
#620=(
GEOMETRIC_REPRESENTATION_CONTEXT(3)
GLOBAL_UNCERTAINTY_ASSIGNED_CONTEXT((#618))
GLOBAL_UNIT_ASSIGNED_CONTEXT((#621,#623,#624))
REPRESENTATION_CONTEXT('','3D')
);
#621=(
LENGTH_UNIT()
NAMED_UNIT(*)
SI_UNIT(.MILLI.,.METRE.)
);
#622=(
LENGTH_UNIT()
NAMED_UNIT(*)
SI_UNIT(.CENTI.,.METRE.)
);
#623=(
NAMED_UNIT(*)
PLANE_ANGLE_UNIT()
SI_UNIT($,.RADIAN.)
);
#624=(
NAMED_UNIT(*)
SI_UNIT($,.STERADIAN.)
SOLID_ANGLE_UNIT()
);
#625=SHAPE_DEFINITION_REPRESENTATION(#626,#627);
#626=PRODUCT_DEFINITION_SHAPE('',$,#629);
#627=SHAPE_REPRESENTATION('',(#345),#619);
#628=PRODUCT_DEFINITION_CONTEXT('part definition',#633,'design');
#629=PRODUCT_DEFINITION('Pully','Pully',#630,#628);
#630=PRODUCT_DEFINITION_FORMATION('',$,#635);
#631=PRODUCT_RELATED_PRODUCT_CATEGORY('Pully','Pully',(#635));
#632=APPLICATION_PROTOCOL_DEFINITION('international standard',
'automotive_design',2009,#633);
#633=APPLICATION_CONTEXT(
'Core Data for Automotive Mechanical Design Process');
#634=PRODUCT_CONTEXT('part definition',#633,'mechanical');
#635=PRODUCT('Pully','Pully',$,(#634));
#636=PRESENTATION_STYLE_ASSIGNMENT((#637));
#637=SURFACE_STYLE_USAGE(.BOTH.,#640);
#638=SURFACE_STYLE_RENDERING_WITH_PROPERTIES($,#644,(#639));
#639=SURFACE_STYLE_TRANSPARENT(0.);
#640=SURFACE_SIDE_STYLE('',(#641,#638));
#641=SURFACE_STYLE_FILL_AREA(#642);
#642=FILL_AREA_STYLE('',(#643));
#643=FILL_AREA_STYLE_COLOUR('',#644);
#644=COLOUR_RGB('',0.745098039215686,0.737254901960784,0.729411764705882);
ENDSEC;
END-ISO-10303-21;
