ISO-10303-21;
HEADER;
/* Generated by software containing ST-Developer
 * from STEP Tools, Inc. (www.steptools.com) 
 */

FILE_DESCRIPTION(
/* description */ (''),
/* implementation_level */ '2;1');

FILE_NAME(
/* name */ 
'S:\\Future Scope 1\\WIP\\Client Category\\Tom\\02 Progressive Work\\R
otating Rod 370mm.stp',
/* time_stamp */ '2025-11-05T12:14:35+06:00',
/* author */ ('SD'),
/* organization */ (''),
/* preprocessor_version */ 'ST-DEVELOPER v18.1',
/* originating_system */ 'Autodesk Inventor 2021',
/* authorisation */ '');

FILE_SCHEMA (('AUTOMOTIVE_DESIGN { 1 0 10303 214 3 1 1 }'));
ENDSEC;

DATA;
#10=MECHANICAL_DESIGN_GEOMETRIC_PRESENTATION_REPRESENTATION('',(#13),#316);
#11=SHAPE_REPRESENTATION_RELATIONSHIP('SRR','None',#323,#12);
#12=ADVANCED_BREP_SHAPE_REPRESENTATION('',(#14),#315);
#13=STYLED_ITEM('',(#332),#14);
#14=MANIFOLD_SOLID_BREP('Solid2',#174);
#15=FACE_BOUND('',#47,.T.);
#16=FACE_BOUND('',#48,.T.);
#17=CYLINDRICAL_SURFACE('',#210,1.5);
#18=CIRCLE('',#196,1.5);
#19=CIRCLE('',#198,1.5);
#20=CIRCLE('',#200,1.5);
#21=CIRCLE('',#203,1.5);
#22=CIRCLE('',#206,1.5);
#23=CIRCLE('',#208,1.5);
#24=CIRCLE('',#209,1.5);
#25=CIRCLE('',#211,1.5);
#26=FACE_OUTER_BOUND('',#37,.T.);
#27=FACE_OUTER_BOUND('',#38,.T.);
#28=FACE_OUTER_BOUND('',#39,.T.);
#29=FACE_OUTER_BOUND('',#40,.T.);
#30=FACE_OUTER_BOUND('',#41,.T.);
#31=FACE_OUTER_BOUND('',#42,.T.);
#32=FACE_OUTER_BOUND('',#43,.T.);
#33=FACE_OUTER_BOUND('',#44,.T.);
#34=FACE_OUTER_BOUND('',#45,.T.);
#35=FACE_OUTER_BOUND('',#46,.T.);
#36=FACE_OUTER_BOUND('',#49,.T.);
#37=EDGE_LOOP('',(#111,#112,#113,#114));
#38=EDGE_LOOP('',(#115,#116));
#39=EDGE_LOOP('',(#117,#118));
#40=EDGE_LOOP('',(#119,#120));
#41=EDGE_LOOP('',(#121,#122,#123,#124));
#42=EDGE_LOOP('',(#125,#126));
#43=EDGE_LOOP('',(#127,#128,#129,#130));
#44=EDGE_LOOP('',(#131,#132));
#45=EDGE_LOOP('',(#133,#134,#135));
#46=EDGE_LOOP('',(#136,#137,#138,#139,#140,#141,#142,#143));
#47=EDGE_LOOP('',(#144,#145,#146,#147));
#48=EDGE_LOOP('',(#148,#149,#150,#151));
#49=EDGE_LOOP('',(#152));
#50=LINE('',#270,#63);
#51=LINE('',#272,#64);
#52=LINE('',#274,#65);
#53=LINE('',#275,#66);
#54=LINE('',#284,#67);
#55=LINE('',#287,#68);
#56=LINE('',#289,#69);
#57=LINE('',#290,#70);
#58=LINE('',#295,#71);
#59=LINE('',#298,#72);
#60=LINE('',#300,#73);
#61=LINE('',#301,#74);
#62=LINE('',#310,#75);
#63=VECTOR('',#217,10.);
#64=VECTOR('',#218,10.);
#65=VECTOR('',#219,10.);
#66=VECTOR('',#220,10.);
#67=VECTOR('',#233,10.);
#68=VECTOR('',#236,10.);
#69=VECTOR('',#237,10.);
#70=VECTOR('',#238,10.);
#71=VECTOR('',#243,10.);
#72=VECTOR('',#246,10.);
#73=VECTOR('',#247,10.);
#74=VECTOR('',#248,10.);
#75=VECTOR('',#261,1.5);
#76=VERTEX_POINT('',#268);
#77=VERTEX_POINT('',#269);
#78=VERTEX_POINT('',#271);
#79=VERTEX_POINT('',#273);
#80=VERTEX_POINT('',#281);
#81=VERTEX_POINT('',#282);
#82=VERTEX_POINT('',#286);
#83=VERTEX_POINT('',#288);
#84=VERTEX_POINT('',#292);
#85=VERTEX_POINT('',#293);
#86=VERTEX_POINT('',#297);
#87=VERTEX_POINT('',#299);
#88=VERTEX_POINT('',#305);
#89=VERTEX_POINT('',#309);
#90=EDGE_CURVE('',#76,#77,#50,.T.);
#91=EDGE_CURVE('',#76,#78,#51,.T.);
#92=EDGE_CURVE('',#79,#78,#52,.T.);
#93=EDGE_CURVE('',#79,#77,#53,.T.);
#94=EDGE_CURVE('',#77,#79,#18,.T.);
#95=EDGE_CURVE('',#78,#76,#19,.T.);
#96=EDGE_CURVE('',#80,#81,#20,.T.);
#97=EDGE_CURVE('',#80,#81,#54,.T.);
#98=EDGE_CURVE('',#81,#82,#55,.T.);
#99=EDGE_CURVE('',#83,#80,#56,.T.);
#100=EDGE_CURVE('',#82,#83,#57,.T.);
#101=EDGE_CURVE('',#84,#85,#21,.T.);
#102=EDGE_CURVE('',#85,#84,#58,.T.);
#103=EDGE_CURVE('',#86,#84,#59,.T.);
#104=EDGE_CURVE('',#87,#86,#60,.T.);
#105=EDGE_CURVE('',#85,#87,#61,.T.);
#106=EDGE_CURVE('',#87,#86,#22,.T.);
#107=EDGE_CURVE('',#83,#88,#23,.T.);
#108=EDGE_CURVE('',#88,#82,#24,.T.);
#109=EDGE_CURVE('',#88,#89,#62,.T.);
#110=EDGE_CURVE('',#89,#89,#25,.T.);
#111=ORIENTED_EDGE('',*,*,#90,.F.);
#112=ORIENTED_EDGE('',*,*,#91,.T.);
#113=ORIENTED_EDGE('',*,*,#92,.F.);
#114=ORIENTED_EDGE('',*,*,#93,.T.);
#115=ORIENTED_EDGE('',*,*,#94,.F.);
#116=ORIENTED_EDGE('',*,*,#93,.F.);
#117=ORIENTED_EDGE('',*,*,#95,.F.);
#118=ORIENTED_EDGE('',*,*,#91,.F.);
#119=ORIENTED_EDGE('',*,*,#96,.F.);
#120=ORIENTED_EDGE('',*,*,#97,.T.);
#121=ORIENTED_EDGE('',*,*,#98,.F.);
#122=ORIENTED_EDGE('',*,*,#97,.F.);
#123=ORIENTED_EDGE('',*,*,#99,.F.);
#124=ORIENTED_EDGE('',*,*,#100,.F.);
#125=ORIENTED_EDGE('',*,*,#101,.F.);
#126=ORIENTED_EDGE('',*,*,#102,.F.);
#127=ORIENTED_EDGE('',*,*,#103,.F.);
#128=ORIENTED_EDGE('',*,*,#104,.F.);
#129=ORIENTED_EDGE('',*,*,#105,.F.);
#130=ORIENTED_EDGE('',*,*,#102,.T.);
#131=ORIENTED_EDGE('',*,*,#106,.F.);
#132=ORIENTED_EDGE('',*,*,#104,.T.);
#133=ORIENTED_EDGE('',*,*,#100,.T.);
#134=ORIENTED_EDGE('',*,*,#107,.T.);
#135=ORIENTED_EDGE('',*,*,#108,.T.);
#136=ORIENTED_EDGE('',*,*,#98,.T.);
#137=ORIENTED_EDGE('',*,*,#108,.F.);
#138=ORIENTED_EDGE('',*,*,#109,.T.);
#139=ORIENTED_EDGE('',*,*,#110,.F.);
#140=ORIENTED_EDGE('',*,*,#109,.F.);
#141=ORIENTED_EDGE('',*,*,#107,.F.);
#142=ORIENTED_EDGE('',*,*,#99,.T.);
#143=ORIENTED_EDGE('',*,*,#96,.T.);
#144=ORIENTED_EDGE('',*,*,#94,.T.);
#145=ORIENTED_EDGE('',*,*,#92,.T.);
#146=ORIENTED_EDGE('',*,*,#95,.T.);
#147=ORIENTED_EDGE('',*,*,#90,.T.);
#148=ORIENTED_EDGE('',*,*,#105,.T.);
#149=ORIENTED_EDGE('',*,*,#106,.T.);
#150=ORIENTED_EDGE('',*,*,#103,.T.);
#151=ORIENTED_EDGE('',*,*,#101,.T.);
#152=ORIENTED_EDGE('',*,*,#110,.T.);
#153=PLANE('',#194);
#154=PLANE('',#195);
#155=PLANE('',#197);
#156=PLANE('',#199);
#157=PLANE('',#201);
#158=PLANE('',#202);
#159=PLANE('',#204);
#160=PLANE('',#205);
#161=PLANE('',#207);
#162=PLANE('',#212);
#163=ADVANCED_FACE('',(#26),#153,.F.);
#164=ADVANCED_FACE('',(#27),#154,.F.);
#165=ADVANCED_FACE('',(#28),#155,.F.);
#166=ADVANCED_FACE('',(#29),#156,.F.);
#167=ADVANCED_FACE('',(#30),#157,.F.);
#168=ADVANCED_FACE('',(#31),#158,.F.);
#169=ADVANCED_FACE('',(#32),#159,.F.);
#170=ADVANCED_FACE('',(#33),#160,.F.);
#171=ADVANCED_FACE('',(#34),#161,.T.);
#172=ADVANCED_FACE('',(#35,#15,#16),#17,.T.);
#173=ADVANCED_FACE('',(#36),#162,.F.);
#174=CLOSED_SHELL('',(#163,#164,#165,#166,#167,#168,#169,#170,#171,#172,
#173));
#175=DERIVED_UNIT_ELEMENT(#177,1.);
#176=DERIVED_UNIT_ELEMENT(#318,3.);
#177=(
MASS_UNIT()
NAMED_UNIT(*)
SI_UNIT($,.GRAM.)
);
#178=DERIVED_UNIT((#175,#176));
#179=MEASURE_REPRESENTATION_ITEM('density measure',
POSITIVE_RATIO_MEASURE(8.874),#178);
#180=PROPERTY_DEFINITION_REPRESENTATION(#185,#182);
#181=PROPERTY_DEFINITION_REPRESENTATION(#186,#183);
#182=REPRESENTATION('material name',(#184),#315);
#183=REPRESENTATION('density',(#179),#315);
#184=DESCRIPTIVE_REPRESENTATION_ITEM('Bronze, Soft Tin',
'Bronze, Soft Tin');
#185=PROPERTY_DEFINITION('material property','material name',#325);
#186=PROPERTY_DEFINITION('material property','density of part',#325);
#187=DATE_TIME_ROLE('creation_date');
#188=APPLIED_DATE_AND_TIME_ASSIGNMENT(#189,#187,(#325));
#189=DATE_AND_TIME(#190,#191);
#190=CALENDAR_DATE(2025,16,9);
#191=LOCAL_TIME(0,0,0.,#192);
#192=COORDINATED_UNIVERSAL_TIME_OFFSET(0,0,.BEHIND.);
#193=AXIS2_PLACEMENT_3D('placement',#266,#213,#214);
#194=AXIS2_PLACEMENT_3D('',#267,#215,#216);
#195=AXIS2_PLACEMENT_3D('',#276,#221,#222);
#196=AXIS2_PLACEMENT_3D('',#277,#223,#224);
#197=AXIS2_PLACEMENT_3D('',#278,#225,#226);
#198=AXIS2_PLACEMENT_3D('',#279,#227,#228);
#199=AXIS2_PLACEMENT_3D('',#280,#229,#230);
#200=AXIS2_PLACEMENT_3D('',#283,#231,#232);
#201=AXIS2_PLACEMENT_3D('',#285,#234,#235);
#202=AXIS2_PLACEMENT_3D('',#291,#239,#240);
#203=AXIS2_PLACEMENT_3D('',#294,#241,#242);
#204=AXIS2_PLACEMENT_3D('',#296,#244,#245);
#205=AXIS2_PLACEMENT_3D('',#302,#249,#250);
#206=AXIS2_PLACEMENT_3D('',#303,#251,#252);
#207=AXIS2_PLACEMENT_3D('',#304,#253,#254);
#208=AXIS2_PLACEMENT_3D('',#306,#255,#256);
#209=AXIS2_PLACEMENT_3D('',#307,#257,#258);
#210=AXIS2_PLACEMENT_3D('',#308,#259,#260);
#211=AXIS2_PLACEMENT_3D('',#311,#262,#263);
#212=AXIS2_PLACEMENT_3D('',#312,#264,#265);
#213=DIRECTION('axis',(0.,0.,1.));
#214=DIRECTION('refdir',(1.,0.,0.));
#215=DIRECTION('center_axis',(0.,2.45174251271389E-16,-1.));
#216=DIRECTION('ref_axis',(0.,-1.,-2.45174251271389E-16));
#217=DIRECTION('',(0.,1.,0.));
#218=DIRECTION('',(1.,0.,0.));
#219=DIRECTION('',(0.,-1.,0.));
#220=DIRECTION('',(-1.,0.,0.));
#221=DIRECTION('center_axis',(0.,1.,0.));
#222=DIRECTION('ref_axis',(0.,0.,-1.));
#223=DIRECTION('center_axis',(0.,1.,0.));
#224=DIRECTION('ref_axis',(-1.,0.,0.));
#225=DIRECTION('center_axis',(0.,-1.,0.));
#226=DIRECTION('ref_axis',(0.,0.,1.));
#227=DIRECTION('center_axis',(0.,-1.,0.));
#228=DIRECTION('ref_axis',(-1.,0.,0.));
#229=DIRECTION('center_axis',(0.,-1.,0.));
#230=DIRECTION('ref_axis',(0.,0.,1.));
#231=DIRECTION('center_axis',(0.,-1.,0.));
#232=DIRECTION('ref_axis',(-1.,0.,0.));
#233=DIRECTION('',(1.,0.,0.));
#234=DIRECTION('center_axis',(0.,-5.34192228695453E-17,1.));
#235=DIRECTION('ref_axis',(0.,1.,5.34192228695453E-17));
#236=DIRECTION('',(0.,1.,0.));
#237=DIRECTION('',(0.,-1.,0.));
#238=DIRECTION('',(-1.,0.,0.));
#239=DIRECTION('center_axis',(0.,-1.,0.));
#240=DIRECTION('ref_axis',(0.,0.,1.));
#241=DIRECTION('center_axis',(0.,-1.,0.));
#242=DIRECTION('ref_axis',(-1.,0.,0.));
#243=DIRECTION('',(1.,0.,0.));
#244=DIRECTION('center_axis',(0.,2.37904933848248E-16,-1.));
#245=DIRECTION('ref_axis',(0.,-1.,-2.37904933848248E-16));
#246=DIRECTION('',(0.,-1.,0.));
#247=DIRECTION('',(1.,0.,0.));
#248=DIRECTION('',(0.,1.,0.));
#249=DIRECTION('center_axis',(0.,1.,0.));
#250=DIRECTION('ref_axis',(0.,0.,-1.));
#251=DIRECTION('center_axis',(0.,1.,0.));
#252=DIRECTION('ref_axis',(-1.,0.,0.));
#253=DIRECTION('center_axis',(0.,1.,0.));
#254=DIRECTION('ref_axis',(0.,0.,1.));
#255=DIRECTION('center_axis',(0.,1.,0.));
#256=DIRECTION('ref_axis',(-1.,0.,0.));
#257=DIRECTION('center_axis',(0.,1.,0.));
#258=DIRECTION('ref_axis',(-1.,0.,0.));
#259=DIRECTION('center_axis',(0.,1.,0.));
#260=DIRECTION('ref_axis',(-1.,0.,0.));
#261=DIRECTION('',(0.,-1.,0.));
#262=DIRECTION('center_axis',(0.,-1.,0.));
#263=DIRECTION('ref_axis',(-1.,0.,0.));
#264=DIRECTION('center_axis',(0.,1.,0.));
#265=DIRECTION('ref_axis',(0.,0.,1.));
#266=CARTESIAN_POINT('',(0.,0.,0.));
#267=CARTESIAN_POINT('Origin',(0.,151.,0.500000000000038));
#268=CARTESIAN_POINT('',(-1.41421356237308,136.,0.500000000000035));
#269=CARTESIAN_POINT('',(-1.41421356237308,151.,0.500000000000038));
#270=CARTESIAN_POINT('',(-1.41421356237309,0.,0.500000000000001));
#271=CARTESIAN_POINT('',(1.41421356237308,136.,0.500000000000035));
#272=CARTESIAN_POINT('',(0.,136.,0.500000000000035));
#273=CARTESIAN_POINT('',(1.41421356237308,151.,0.500000000000038));
#274=CARTESIAN_POINT('',(1.41421356237309,0.,0.500000000000001));
#275=CARTESIAN_POINT('',(0.,151.,0.500000000000038));
#276=CARTESIAN_POINT('Origin',(0.,151.,1.5));
#277=CARTESIAN_POINT('Origin',(0.,151.,0.));
#278=CARTESIAN_POINT('Origin',(0.,136.,0.500000000000035));
#279=CARTESIAN_POINT('Origin',(0.,136.,0.));
#280=CARTESIAN_POINT('Origin',(0.,178.,-1.5));
#281=CARTESIAN_POINT('',(-1.4142135623731,178.,-0.499999999999986));
#282=CARTESIAN_POINT('',(1.4142135623731,178.,-0.499999999999986));
#283=CARTESIAN_POINT('Origin',(0.,178.,0.));
#284=CARTESIAN_POINT('',(0.,178.,-0.499999999999986));
#285=CARTESIAN_POINT('Origin',(0.,178.,-0.499999999999986));
#286=CARTESIAN_POINT('',(1.4142135623731,185.,-0.499999999999986));
#287=CARTESIAN_POINT('',(1.4142135623731,0.,-0.499999999999996));
#288=CARTESIAN_POINT('',(-1.4142135623731,185.,-0.499999999999986));
#289=CARTESIAN_POINT('',(-1.4142135623731,0.,-0.499999999999996));
#290=CARTESIAN_POINT('',(0.,185.,-0.499999999999986));
#291=CARTESIAN_POINT('Origin',(0.,-3.99999999999999,0.499999999999973));
#292=CARTESIAN_POINT('',(1.4142135623731,-3.99999999999999,0.499999999999973));
#293=CARTESIAN_POINT('',(-1.4142135623731,-3.99999999999999,0.499999999999973));
#294=CARTESIAN_POINT('Origin',(0.,-3.99999999999999,0.));
#295=CARTESIAN_POINT('',(0.,-3.99999999999999,0.499999999999973));
#296=CARTESIAN_POINT('Origin',(0.,3.00000000000001,0.499999999999975));
#297=CARTESIAN_POINT('',(1.4142135623731,3.00000000000001,0.499999999999975));
#298=CARTESIAN_POINT('',(1.4142135623731,0.,0.499999999999974));
#299=CARTESIAN_POINT('',(-1.4142135623731,3.00000000000001,0.499999999999975));
#300=CARTESIAN_POINT('',(0.,3.00000000000001,0.499999999999975));
#301=CARTESIAN_POINT('',(-1.4142135623731,0.,0.499999999999974));
#302=CARTESIAN_POINT('Origin',(0.,3.00000000000001,4.5));
#303=CARTESIAN_POINT('Origin',(0.,3.00000000000001,0.));
#304=CARTESIAN_POINT('Origin',(0.,185.,0.));
#305=CARTESIAN_POINT('',(1.5,185.,-1.83697019872103E-16));
#306=CARTESIAN_POINT('Origin',(0.,185.,0.));
#307=CARTESIAN_POINT('Origin',(0.,185.,0.));
#308=CARTESIAN_POINT('Origin',(0.,0.,0.));
#309=CARTESIAN_POINT('',(1.5,-185.,-1.83697019872103E-16));
#310=CARTESIAN_POINT('',(1.5,0.,-1.83697019872103E-16));
#311=CARTESIAN_POINT('Origin',(0.,-185.,0.));
#312=CARTESIAN_POINT('Origin',(0.,-185.,0.));
#313=UNCERTAINTY_MEASURE_WITH_UNIT(LENGTH_MEASURE(0.01),#317,
'DISTANCE_ACCURACY_VALUE',
'Maximum model space distance between geometric entities at asserted c
onnectivities');
#314=UNCERTAINTY_MEASURE_WITH_UNIT(LENGTH_MEASURE(0.01),#317,
'DISTANCE_ACCURACY_VALUE',
'Maximum model space distance between geometric entities at asserted c
onnectivities');
#315=(
GEOMETRIC_REPRESENTATION_CONTEXT(3)
GLOBAL_UNCERTAINTY_ASSIGNED_CONTEXT((#313))
GLOBAL_UNIT_ASSIGNED_CONTEXT((#317,#319,#320))
REPRESENTATION_CONTEXT('','3D')
);
#316=(
GEOMETRIC_REPRESENTATION_CONTEXT(3)
GLOBAL_UNCERTAINTY_ASSIGNED_CONTEXT((#314))
GLOBAL_UNIT_ASSIGNED_CONTEXT((#317,#319,#320))
REPRESENTATION_CONTEXT('','3D')
);
#317=(
LENGTH_UNIT()
NAMED_UNIT(*)
SI_UNIT(.MILLI.,.METRE.)
);
#318=(
LENGTH_UNIT()
NAMED_UNIT(*)
SI_UNIT(.CENTI.,.METRE.)
);
#319=(
NAMED_UNIT(*)
PLANE_ANGLE_UNIT()
SI_UNIT($,.RADIAN.)
);
#320=(
NAMED_UNIT(*)
SI_UNIT($,.STERADIAN.)
SOLID_ANGLE_UNIT()
);
#321=SHAPE_DEFINITION_REPRESENTATION(#322,#323);
#322=PRODUCT_DEFINITION_SHAPE('',$,#325);
#323=SHAPE_REPRESENTATION('',(#193),#315);
#324=PRODUCT_DEFINITION_CONTEXT('part definition',#329,'design');
#325=PRODUCT_DEFINITION('Rotating Rod 370mm','Rotating Rod 370mm',#326,
#324);
#326=PRODUCT_DEFINITION_FORMATION('',$,#331);
#327=PRODUCT_RELATED_PRODUCT_CATEGORY('Rotating Rod 370mm',
'Rotating Rod 370mm',(#331));
#328=APPLICATION_PROTOCOL_DEFINITION('international standard',
'automotive_design',2009,#329);
#329=APPLICATION_CONTEXT(
'Core Data for Automotive Mechanical Design Process');
#330=PRODUCT_CONTEXT('part definition',#329,'mechanical');
#331=PRODUCT('Rotating Rod 370mm','Rotating Rod 370mm',$,(#330));
#332=PRESENTATION_STYLE_ASSIGNMENT((#333));
#333=SURFACE_STYLE_USAGE(.BOTH.,#336);
#334=SURFACE_STYLE_RENDERING_WITH_PROPERTIES($,#340,(#335));
#335=SURFACE_STYLE_TRANSPARENT(0.);
#336=SURFACE_SIDE_STYLE('',(#337,#334));
#337=SURFACE_STYLE_FILL_AREA(#338);
#338=FILL_AREA_STYLE('',(#339));
#339=FILL_AREA_STYLE_COLOUR('',#340);
#340=COLOUR_RGB('',0.643137254901961,0.52156862745098,0.384313725490196);
ENDSEC;
END-ISO-10303-21;
