ISO-10303-21;
HEADER;
/* Generated by software containing ST-Developer
 * from STEP Tools, Inc. (www.steptools.com) 
 */

FILE_DESCRIPTION(
/* description */ (''),
/* implementation_level */ '2;1');

FILE_NAME(
/* name */ 
'S:\\Future Scope 1\\WIP\\Client Category\\Tom\\02 Progressive Work\\S
hallow Dish.stp',
/* time_stamp */ '2025-11-05T12:14:40+06:00',
/* author */ ('SD'),
/* organization */ (''),
/* preprocessor_version */ 'ST-DEVELOPER v18.1',
/* originating_system */ 'Autodesk Inventor 2021',
/* authorisation */ '');

FILE_SCHEMA (('AUTOMOTIVE_DESIGN { 1 0 10303 214 3 1 1 }'));
ENDSEC;

DATA;
#10=MECHANICAL_DESIGN_GEOMETRIC_PRESENTATION_REPRESENTATION('',(#13),#242);
#11=SHAPE_REPRESENTATION_RELATIONSHIP('SRR','None',#249,#12);
#12=ADVANCED_BREP_SHAPE_REPRESENTATION('',(#14),#241);
#13=STYLED_ITEM('',(#258),#14);
#14=MANIFOLD_SOLID_BREP('Solid2',#124);
#15=FACE_BOUND('',#34,.T.);
#16=PLANE('',#151);
#17=PLANE('',#156);
#18=PLANE('',#161);
#19=CYLINDRICAL_SURFACE('',#148,17.5);
#20=CYLINDRICAL_SURFACE('',#158,16.5);
#21=FACE_OUTER_BOUND('',#29,.T.);
#22=FACE_OUTER_BOUND('',#30,.T.);
#23=FACE_OUTER_BOUND('',#31,.T.);
#24=FACE_OUTER_BOUND('',#32,.T.);
#25=FACE_OUTER_BOUND('',#33,.T.);
#26=FACE_OUTER_BOUND('',#35,.T.);
#27=FACE_OUTER_BOUND('',#36,.T.);
#28=FACE_OUTER_BOUND('',#37,.T.);
#29=EDGE_LOOP('',(#83,#84,#85,#86,#87));
#30=EDGE_LOOP('',(#88,#89,#90,#91,#92,#93));
#31=EDGE_LOOP('',(#94));
#32=EDGE_LOOP('',(#95,#96,#97,#98,#99));
#33=EDGE_LOOP('',(#100));
#34=EDGE_LOOP('',(#101));
#35=EDGE_LOOP('',(#102,#103,#104,#105,#106));
#36=EDGE_LOOP('',(#107,#108,#109,#110,#111));
#37=EDGE_LOOP('',(#112));
#38=LINE('',#210,#43);
#39=LINE('',#219,#44);
#40=LINE('',#225,#45);
#41=LINE('',#234,#46);
#42=LINE('',#237,#47);
#43=VECTOR('',#168,17.4);
#44=VECTOR('',#179,17.5);
#45=VECTOR('',#186,16.6);
#46=VECTOR('',#197,16.5);
#47=VECTOR('',#202,17.4);
#48=CIRCLE('',#145,17.3);
#49=CIRCLE('',#146,17.5);
#50=CIRCLE('',#147,17.5);
#51=CIRCLE('',#149,17.5);
#52=CIRCLE('',#150,17.5);
#53=CIRCLE('',#153,16.7);
#54=CIRCLE('',#154,16.5);
#55=CIRCLE('',#155,16.5);
#56=CIRCLE('',#157,17.3);
#57=CIRCLE('',#159,16.5);
#58=VERTEX_POINT('',#207);
#59=VERTEX_POINT('',#209);
#60=VERTEX_POINT('',#211);
#61=VERTEX_POINT('',#215);
#62=VERTEX_POINT('',#216);
#63=VERTEX_POINT('',#222);
#64=VERTEX_POINT('',#224);
#65=VERTEX_POINT('',#226);
#66=VERTEX_POINT('',#230);
#67=VERTEX_POINT('',#233);
#68=EDGE_CURVE('',#58,#58,#48,.T.);
#69=EDGE_CURVE('',#58,#59,#38,.T.);
#70=EDGE_CURVE('',#59,#60,#49,.T.);
#71=EDGE_CURVE('',#60,#59,#50,.T.);
#72=EDGE_CURVE('',#61,#62,#51,.T.);
#73=EDGE_CURVE('',#62,#61,#52,.T.);
#74=EDGE_CURVE('',#62,#60,#39,.T.);
#75=EDGE_CURVE('',#63,#63,#53,.T.);
#76=EDGE_CURVE('',#63,#64,#40,.T.);
#77=EDGE_CURVE('',#64,#65,#54,.T.);
#78=EDGE_CURVE('',#65,#64,#55,.T.);
#79=EDGE_CURVE('',#66,#66,#56,.T.);
#80=EDGE_CURVE('',#65,#67,#41,.T.);
#81=EDGE_CURVE('',#67,#67,#57,.T.);
#82=EDGE_CURVE('',#66,#61,#42,.T.);
#83=ORIENTED_EDGE('',*,*,#68,.T.);
#84=ORIENTED_EDGE('',*,*,#69,.T.);
#85=ORIENTED_EDGE('',*,*,#70,.T.);
#86=ORIENTED_EDGE('',*,*,#71,.T.);
#87=ORIENTED_EDGE('',*,*,#69,.F.);
#88=ORIENTED_EDGE('',*,*,#72,.F.);
#89=ORIENTED_EDGE('',*,*,#73,.F.);
#90=ORIENTED_EDGE('',*,*,#74,.T.);
#91=ORIENTED_EDGE('',*,*,#70,.F.);
#92=ORIENTED_EDGE('',*,*,#71,.F.);
#93=ORIENTED_EDGE('',*,*,#74,.F.);
#94=ORIENTED_EDGE('',*,*,#68,.F.);
#95=ORIENTED_EDGE('',*,*,#75,.T.);
#96=ORIENTED_EDGE('',*,*,#76,.T.);
#97=ORIENTED_EDGE('',*,*,#77,.T.);
#98=ORIENTED_EDGE('',*,*,#78,.T.);
#99=ORIENTED_EDGE('',*,*,#76,.F.);
#100=ORIENTED_EDGE('',*,*,#79,.F.);
#101=ORIENTED_EDGE('',*,*,#75,.F.);
#102=ORIENTED_EDGE('',*,*,#77,.F.);
#103=ORIENTED_EDGE('',*,*,#78,.F.);
#104=ORIENTED_EDGE('',*,*,#80,.T.);
#105=ORIENTED_EDGE('',*,*,#81,.T.);
#106=ORIENTED_EDGE('',*,*,#80,.F.);
#107=ORIENTED_EDGE('',*,*,#79,.T.);
#108=ORIENTED_EDGE('',*,*,#82,.T.);
#109=ORIENTED_EDGE('',*,*,#72,.T.);
#110=ORIENTED_EDGE('',*,*,#73,.T.);
#111=ORIENTED_EDGE('',*,*,#82,.F.);
#112=ORIENTED_EDGE('',*,*,#81,.F.);
#113=CONICAL_SURFACE('',#144,17.4,0.785398163397448);
#114=CONICAL_SURFACE('',#152,16.6,0.785398163397448);
#115=CONICAL_SURFACE('',#160,17.4,0.785398163397448);
#116=ADVANCED_FACE('',(#21),#113,.T.);
#117=ADVANCED_FACE('',(#22),#19,.T.);
#118=ADVANCED_FACE('',(#23),#16,.F.);
#119=ADVANCED_FACE('',(#24),#114,.F.);
#120=ADVANCED_FACE('',(#25,#15),#17,.T.);
#121=ADVANCED_FACE('',(#26),#20,.F.);
#122=ADVANCED_FACE('',(#27),#115,.T.);
#123=ADVANCED_FACE('',(#28),#18,.T.);
#124=CLOSED_SHELL('',(#116,#117,#118,#119,#120,#121,#122,#123));
#125=DERIVED_UNIT_ELEMENT(#127,1.);
#126=DERIVED_UNIT_ELEMENT(#244,3.);
#127=(
MASS_UNIT()
NAMED_UNIT(*)
SI_UNIT($,.GRAM.)
);
#128=DERIVED_UNIT((#125,#126));
#129=MEASURE_REPRESENTATION_ITEM('density measure',
POSITIVE_RATIO_MEASURE(8.47),#128);
#130=PROPERTY_DEFINITION_REPRESENTATION(#135,#132);
#131=PROPERTY_DEFINITION_REPRESENTATION(#136,#133);
#132=REPRESENTATION('material name',(#134),#241);
#133=REPRESENTATION('density',(#129),#241);
#134=DESCRIPTIVE_REPRESENTATION_ITEM('Brass, Soft Yellow',
'Brass, Soft Yellow');
#135=PROPERTY_DEFINITION('material property','material name',#251);
#136=PROPERTY_DEFINITION('material property','density of part',#251);
#137=DATE_TIME_ROLE('creation_date');
#138=APPLIED_DATE_AND_TIME_ASSIGNMENT(#139,#137,(#251));
#139=DATE_AND_TIME(#140,#141);
#140=CALENDAR_DATE(2025,16,9);
#141=LOCAL_TIME(0,0,0.,#142);
#142=COORDINATED_UNIVERSAL_TIME_OFFSET(0,0,.BEHIND.);
#143=AXIS2_PLACEMENT_3D('placement',#205,#162,#163);
#144=AXIS2_PLACEMENT_3D('',#206,#164,#165);
#145=AXIS2_PLACEMENT_3D('',#208,#166,#167);
#146=AXIS2_PLACEMENT_3D('',#212,#169,#170);
#147=AXIS2_PLACEMENT_3D('',#213,#171,#172);
#148=AXIS2_PLACEMENT_3D('',#214,#173,#174);
#149=AXIS2_PLACEMENT_3D('',#217,#175,#176);
#150=AXIS2_PLACEMENT_3D('',#218,#177,#178);
#151=AXIS2_PLACEMENT_3D('',#220,#180,#181);
#152=AXIS2_PLACEMENT_3D('',#221,#182,#183);
#153=AXIS2_PLACEMENT_3D('',#223,#184,#185);
#154=AXIS2_PLACEMENT_3D('',#227,#187,#188);
#155=AXIS2_PLACEMENT_3D('',#228,#189,#190);
#156=AXIS2_PLACEMENT_3D('',#229,#191,#192);
#157=AXIS2_PLACEMENT_3D('',#231,#193,#194);
#158=AXIS2_PLACEMENT_3D('',#232,#195,#196);
#159=AXIS2_PLACEMENT_3D('',#235,#198,#199);
#160=AXIS2_PLACEMENT_3D('',#236,#200,#201);
#161=AXIS2_PLACEMENT_3D('',#238,#203,#204);
#162=DIRECTION('axis',(0.,0.,1.));
#163=DIRECTION('refdir',(1.,0.,0.));
#164=DIRECTION('center_axis',(0.,1.,0.));
#165=DIRECTION('ref_axis',(1.,0.,0.));
#166=DIRECTION('center_axis',(0.,1.,0.));
#167=DIRECTION('ref_axis',(1.,0.,0.));
#168=DIRECTION('',(-0.707106781186547,0.707106781186547,-8.65956056235493E-17));
#169=DIRECTION('center_axis',(0.,-1.,0.));
#170=DIRECTION('ref_axis',(1.,0.,0.));
#171=DIRECTION('center_axis',(0.,-1.,0.));
#172=DIRECTION('ref_axis',(1.,0.,0.));
#173=DIRECTION('center_axis',(0.,1.,0.));
#174=DIRECTION('ref_axis',(-1.,0.,0.));
#175=DIRECTION('center_axis',(0.,1.,0.));
#176=DIRECTION('ref_axis',(1.,0.,0.));
#177=DIRECTION('center_axis',(0.,1.,0.));
#178=DIRECTION('ref_axis',(1.,0.,0.));
#179=DIRECTION('',(0.,-1.,0.));
#180=DIRECTION('center_axis',(0.,1.,0.));
#181=DIRECTION('ref_axis',(0.,0.,1.));
#182=DIRECTION('center_axis',(0.,1.,0.));
#183=DIRECTION('ref_axis',(-1.,0.,0.));
#184=DIRECTION('center_axis',(0.,1.,0.));
#185=DIRECTION('ref_axis',(-1.,0.,0.));
#186=DIRECTION('',(-0.707106781186548,-0.707106781186548,8.65956056235493E-17));
#187=DIRECTION('center_axis',(0.,-1.,0.));
#188=DIRECTION('ref_axis',(-1.,0.,0.));
#189=DIRECTION('center_axis',(0.,-1.,0.));
#190=DIRECTION('ref_axis',(-1.,0.,0.));
#191=DIRECTION('center_axis',(0.,1.,0.));
#192=DIRECTION('ref_axis',(0.,0.,1.));
#193=DIRECTION('center_axis',(0.,-1.,0.));
#194=DIRECTION('ref_axis',(1.,0.,0.));
#195=DIRECTION('center_axis',(0.,-1.,0.));
#196=DIRECTION('ref_axis',(1.,0.,0.));
#197=DIRECTION('',(0.,-1.,0.));
#198=DIRECTION('center_axis',(0.,-1.,0.));
#199=DIRECTION('ref_axis',(1.,0.,0.));
#200=DIRECTION('center_axis',(0.,-1.,0.));
#201=DIRECTION('ref_axis',(1.,0.,0.));
#202=DIRECTION('',(-0.707106781186547,-0.707106781186547,8.65956056235493E-17));
#203=DIRECTION('center_axis',(0.,1.,0.));
#204=DIRECTION('ref_axis',(0.,0.,1.));
#205=CARTESIAN_POINT('',(0.,0.,0.));
#206=CARTESIAN_POINT('Origin',(0.,-5.9,0.));
#207=CARTESIAN_POINT('',(-17.3,-6.,2.11863896252492E-15));
#208=CARTESIAN_POINT('Origin',(0.,-6.,0.));
#209=CARTESIAN_POINT('',(-17.5,-5.8,-2.14313189850787E-15));
#210=CARTESIAN_POINT('',(-17.4,-5.9,-2.1308854305164E-15));
#211=CARTESIAN_POINT('',(17.5,-5.8,-2.14313189850787E-15));
#212=CARTESIAN_POINT('Origin',(0.,-5.8,0.));
#213=CARTESIAN_POINT('Origin',(0.,-5.8,0.));
#214=CARTESIAN_POINT('Origin',(0.,0.,0.));
#215=CARTESIAN_POINT('',(-17.5,5.8,2.14313189850787E-15));
#216=CARTESIAN_POINT('',(17.5,5.8,-2.14313189850787E-15));
#217=CARTESIAN_POINT('Origin',(0.,5.8,0.));
#218=CARTESIAN_POINT('Origin',(0.,5.8,0.));
#219=CARTESIAN_POINT('',(17.5,0.,-2.14313189850787E-15));
#220=CARTESIAN_POINT('Origin',(0.,-6.,0.));
#221=CARTESIAN_POINT('Origin',(0.,5.9,0.));
#222=CARTESIAN_POINT('',(16.7,6.,-2.04516015457608E-15));
#223=CARTESIAN_POINT('Origin',(0.,6.,0.));
#224=CARTESIAN_POINT('',(16.5,5.8,2.02066721859313E-15));
#225=CARTESIAN_POINT('',(16.6,5.9,-2.03291368658461E-15));
#226=CARTESIAN_POINT('',(-16.5,5.8,-2.02066721859313E-15));
#227=CARTESIAN_POINT('Origin',(0.,5.8,0.));
#228=CARTESIAN_POINT('Origin',(0.,5.8,0.));
#229=CARTESIAN_POINT('Origin',(0.,6.,0.));
#230=CARTESIAN_POINT('',(-17.3,6.,-2.11863896252492E-15));
#231=CARTESIAN_POINT('Origin',(0.,6.,0.));
#232=CARTESIAN_POINT('Origin',(0.,6.,0.));
#233=CARTESIAN_POINT('',(-16.5,-4.,-2.02066721859313E-15));
#234=CARTESIAN_POINT('',(-16.5,6.,-2.02066721859313E-15));
#235=CARTESIAN_POINT('Origin',(0.,-4.,0.));
#236=CARTESIAN_POINT('Origin',(0.,5.9,0.));
#237=CARTESIAN_POINT('',(-17.4,5.9,2.1308854305164E-15));
#238=CARTESIAN_POINT('Origin',(0.,-4.,0.));
#239=UNCERTAINTY_MEASURE_WITH_UNIT(LENGTH_MEASURE(0.01),#243,
'DISTANCE_ACCURACY_VALUE',
'Maximum model space distance between geometric entities at asserted c
onnectivities');
#240=UNCERTAINTY_MEASURE_WITH_UNIT(LENGTH_MEASURE(0.01),#243,
'DISTANCE_ACCURACY_VALUE',
'Maximum model space distance between geometric entities at asserted c
onnectivities');
#241=(
GEOMETRIC_REPRESENTATION_CONTEXT(3)
GLOBAL_UNCERTAINTY_ASSIGNED_CONTEXT((#239))
GLOBAL_UNIT_ASSIGNED_CONTEXT((#243,#245,#246))
REPRESENTATION_CONTEXT('','3D')
);
#242=(
GEOMETRIC_REPRESENTATION_CONTEXT(3)
GLOBAL_UNCERTAINTY_ASSIGNED_CONTEXT((#240))
GLOBAL_UNIT_ASSIGNED_CONTEXT((#243,#245,#246))
REPRESENTATION_CONTEXT('','3D')
);
#243=(
LENGTH_UNIT()
NAMED_UNIT(*)
SI_UNIT(.MILLI.,.METRE.)
);
#244=(
LENGTH_UNIT()
NAMED_UNIT(*)
SI_UNIT(.CENTI.,.METRE.)
);
#245=(
NAMED_UNIT(*)
PLANE_ANGLE_UNIT()
SI_UNIT($,.RADIAN.)
);
#246=(
NAMED_UNIT(*)
SI_UNIT($,.STERADIAN.)
SOLID_ANGLE_UNIT()
);
#247=SHAPE_DEFINITION_REPRESENTATION(#248,#249);
#248=PRODUCT_DEFINITION_SHAPE('',$,#251);
#249=SHAPE_REPRESENTATION('',(#143),#241);
#250=PRODUCT_DEFINITION_CONTEXT('part definition',#255,'design');
#251=PRODUCT_DEFINITION('Shallow Dish','Shallow Dish',#252,#250);
#252=PRODUCT_DEFINITION_FORMATION('',$,#257);
#253=PRODUCT_RELATED_PRODUCT_CATEGORY('Shallow Dish','Shallow Dish',(#257));
#254=APPLICATION_PROTOCOL_DEFINITION('international standard',
'automotive_design',2009,#255);
#255=APPLICATION_CONTEXT(
'Core Data for Automotive Mechanical Design Process');
#256=PRODUCT_CONTEXT('part definition',#255,'mechanical');
#257=PRODUCT('Shallow Dish','Shallow Dish',$,(#256));
#258=PRESENTATION_STYLE_ASSIGNMENT((#259));
#259=SURFACE_STYLE_USAGE(.BOTH.,#262);
#260=SURFACE_STYLE_RENDERING_WITH_PROPERTIES($,#266,(#261));
#261=SURFACE_STYLE_TRANSPARENT(0.);
#262=SURFACE_SIDE_STYLE('',(#263,#260));
#263=SURFACE_STYLE_FILL_AREA(#264);
#264=FILL_AREA_STYLE('',(#265));
#265=FILL_AREA_STYLE_COLOUR('',#266);
#266=COLOUR_RGB('',0.796078431372549,0.603921568627451,0.231372549019608);
ENDSEC;
END-ISO-10303-21;
