ISO-10303-21;
HEADER;
/* Generated by software containing ST-Developer
 * from STEP Tools, Inc. (www.steptools.com) 
 */

FILE_DESCRIPTION(
/* description */ (''),
/* implementation_level */ '2;1');

FILE_NAME(
/* name */ 
'S:\\Future Scope 1\\WIP\\Client Category\\Tom\\02 Progressive Work\\S
upport Beam.stp',
/* time_stamp */ '2025-11-05T12:14:33+06:00',
/* author */ ('SD'),
/* organization */ (''),
/* preprocessor_version */ 'ST-DEVELOPER v18.1',
/* originating_system */ 'Autodesk Inventor 2021',
/* authorisation */ '');

FILE_SCHEMA (('AUTOMOTIVE_DESIGN { 1 0 10303 214 3 1 1 }'));
ENDSEC;

DATA;
#10=MECHANICAL_DESIGN_GEOMETRIC_PRESENTATION_REPRESENTATION('',(#13),#434);
#11=SHAPE_REPRESENTATION_RELATIONSHIP('SRR','None',#441,#12);
#12=ADVANCED_BREP_SHAPE_REPRESENTATION('',(#14),#433);
#13=STYLED_ITEM('',(#450),#14);
#14=MANIFOLD_SOLID_BREP('Solid1',#250);
#15=FACE_BOUND('',#56,.T.);
#16=FACE_BOUND('',#57,.T.);
#17=FACE_BOUND('',#58,.T.);
#18=FACE_BOUND('',#59,.T.);
#19=FACE_BOUND('',#60,.T.);
#20=FACE_BOUND('',#63,.T.);
#21=FACE_BOUND('',#64,.T.);
#22=FACE_BOUND('',#65,.T.);
#23=FACE_BOUND('',#66,.T.);
#24=FACE_BOUND('',#67,.T.);
#25=PLANE('',#289);
#26=PLANE('',#290);
#27=PLANE('',#291);
#28=PLANE('',#292);
#29=PLANE('',#293);
#30=PLANE('',#294);
#31=CONICAL_SURFACE('',#279,4.65,0.785398163397448);
#32=CONICAL_SURFACE('',#284,4.65,0.785398163397448);
#33=FACE_OUTER_BOUND('',#46,.T.);
#34=FACE_OUTER_BOUND('',#47,.T.);
#35=FACE_OUTER_BOUND('',#48,.T.);
#36=FACE_OUTER_BOUND('',#49,.T.);
#37=FACE_OUTER_BOUND('',#50,.T.);
#38=FACE_OUTER_BOUND('',#51,.T.);
#39=FACE_OUTER_BOUND('',#52,.T.);
#40=FACE_OUTER_BOUND('',#53,.T.);
#41=FACE_OUTER_BOUND('',#54,.T.);
#42=FACE_OUTER_BOUND('',#55,.T.);
#43=FACE_OUTER_BOUND('',#61,.T.);
#44=FACE_OUTER_BOUND('',#62,.T.);
#45=FACE_OUTER_BOUND('',#68,.T.);
#46=EDGE_LOOP('',(#170,#171,#172,#173));
#47=EDGE_LOOP('',(#174,#175,#176,#177));
#48=EDGE_LOOP('',(#178,#179,#180,#181));
#49=EDGE_LOOP('',(#182,#183,#184,#185));
#50=EDGE_LOOP('',(#186,#187,#188,#189));
#51=EDGE_LOOP('',(#190,#191,#192,#193));
#52=EDGE_LOOP('',(#194,#195,#196,#197));
#53=EDGE_LOOP('',(#198,#199,#200,#201));
#54=EDGE_LOOP('',(#202,#203,#204,#205));
#55=EDGE_LOOP('',(#206,#207,#208,#209));
#56=EDGE_LOOP('',(#210));
#57=EDGE_LOOP('',(#211));
#58=EDGE_LOOP('',(#212));
#59=EDGE_LOOP('',(#213));
#60=EDGE_LOOP('',(#214));
#61=EDGE_LOOP('',(#215,#216,#217,#218));
#62=EDGE_LOOP('',(#219,#220,#221,#222));
#63=EDGE_LOOP('',(#223));
#64=EDGE_LOOP('',(#224));
#65=EDGE_LOOP('',(#225));
#66=EDGE_LOOP('',(#226));
#67=EDGE_LOOP('',(#227));
#68=EDGE_LOOP('',(#228,#229,#230,#231));
#69=LINE('',#371,#88);
#70=LINE('',#377,#89);
#71=LINE('',#383,#90);
#72=LINE('',#389,#91);
#73=LINE('',#393,#92);
#74=LINE('',#399,#93);
#75=LINE('',#403,#94);
#76=LINE('',#408,#95);
#77=LINE('',#410,#96);
#78=LINE('',#412,#97);
#79=LINE('',#413,#98);
#80=LINE('',#416,#99);
#81=LINE('',#418,#100);
#82=LINE('',#419,#101);
#83=LINE('',#422,#102);
#84=LINE('',#423,#103);
#85=LINE('',#426,#104);
#86=LINE('',#427,#105);
#87=LINE('',#429,#106);
#88=VECTOR('',#301,2.4585);
#89=VECTOR('',#308,2.4585);
#90=VECTOR('',#315,1.5);
#91=VECTOR('',#322,4.65);
#92=VECTOR('',#327,3.);
#93=VECTOR('',#334,4.65);
#94=VECTOR('',#339,3.);
#95=VECTOR('',#344,10.);
#96=VECTOR('',#345,10.);
#97=VECTOR('',#346,10.);
#98=VECTOR('',#347,10.);
#99=VECTOR('',#350,10.);
#100=VECTOR('',#351,10.);
#101=VECTOR('',#352,10.);
#102=VECTOR('',#355,10.);
#103=VECTOR('',#356,10.);
#104=VECTOR('',#359,10.);
#105=VECTOR('',#360,10.);
#106=VECTOR('',#363,10.);
#107=CIRCLE('',#271,2.4585);
#108=CIRCLE('',#272,2.4585);
#109=CIRCLE('',#274,2.4585);
#110=CIRCLE('',#275,2.4585);
#111=CIRCLE('',#277,1.5);
#112=CIRCLE('',#278,1.5);
#113=CIRCLE('',#280,6.3);
#114=CIRCLE('',#281,3.);
#115=CIRCLE('',#283,3.);
#116=CIRCLE('',#285,6.3);
#117=CIRCLE('',#286,3.);
#118=CIRCLE('',#288,3.);
#119=VERTEX_POINT('',#368);
#120=VERTEX_POINT('',#370);
#121=VERTEX_POINT('',#374);
#122=VERTEX_POINT('',#376);
#123=VERTEX_POINT('',#380);
#124=VERTEX_POINT('',#382);
#125=VERTEX_POINT('',#386);
#126=VERTEX_POINT('',#388);
#127=VERTEX_POINT('',#392);
#128=VERTEX_POINT('',#396);
#129=VERTEX_POINT('',#398);
#130=VERTEX_POINT('',#402);
#131=VERTEX_POINT('',#406);
#132=VERTEX_POINT('',#407);
#133=VERTEX_POINT('',#409);
#134=VERTEX_POINT('',#411);
#135=VERTEX_POINT('',#415);
#136=VERTEX_POINT('',#417);
#137=VERTEX_POINT('',#421);
#138=VERTEX_POINT('',#425);
#139=EDGE_CURVE('',#119,#119,#107,.T.);
#140=EDGE_CURVE('',#119,#120,#69,.T.);
#141=EDGE_CURVE('',#120,#120,#108,.T.);
#142=EDGE_CURVE('',#121,#121,#109,.T.);
#143=EDGE_CURVE('',#121,#122,#70,.T.);
#144=EDGE_CURVE('',#122,#122,#110,.T.);
#145=EDGE_CURVE('',#123,#123,#111,.T.);
#146=EDGE_CURVE('',#123,#124,#71,.T.);
#147=EDGE_CURVE('',#124,#124,#112,.T.);
#148=EDGE_CURVE('',#125,#125,#113,.T.);
#149=EDGE_CURVE('',#125,#126,#72,.T.);
#150=EDGE_CURVE('',#126,#126,#114,.T.);
#151=EDGE_CURVE('',#126,#127,#73,.T.);
#152=EDGE_CURVE('',#127,#127,#115,.T.);
#153=EDGE_CURVE('',#128,#128,#116,.T.);
#154=EDGE_CURVE('',#128,#129,#74,.T.);
#155=EDGE_CURVE('',#129,#129,#117,.T.);
#156=EDGE_CURVE('',#129,#130,#75,.T.);
#157=EDGE_CURVE('',#130,#130,#118,.T.);
#158=EDGE_CURVE('',#131,#132,#76,.T.);
#159=EDGE_CURVE('',#132,#133,#77,.T.);
#160=EDGE_CURVE('',#133,#134,#78,.T.);
#161=EDGE_CURVE('',#134,#131,#79,.T.);
#162=EDGE_CURVE('',#135,#132,#80,.T.);
#163=EDGE_CURVE('',#136,#135,#81,.T.);
#164=EDGE_CURVE('',#133,#136,#82,.T.);
#165=EDGE_CURVE('',#137,#136,#83,.T.);
#166=EDGE_CURVE('',#134,#137,#84,.T.);
#167=EDGE_CURVE('',#138,#137,#85,.T.);
#168=EDGE_CURVE('',#131,#138,#86,.T.);
#169=EDGE_CURVE('',#135,#138,#87,.T.);
#170=ORIENTED_EDGE('',*,*,#139,.F.);
#171=ORIENTED_EDGE('',*,*,#140,.T.);
#172=ORIENTED_EDGE('',*,*,#141,.F.);
#173=ORIENTED_EDGE('',*,*,#140,.F.);
#174=ORIENTED_EDGE('',*,*,#142,.F.);
#175=ORIENTED_EDGE('',*,*,#143,.T.);
#176=ORIENTED_EDGE('',*,*,#144,.F.);
#177=ORIENTED_EDGE('',*,*,#143,.F.);
#178=ORIENTED_EDGE('',*,*,#145,.F.);
#179=ORIENTED_EDGE('',*,*,#146,.T.);
#180=ORIENTED_EDGE('',*,*,#147,.F.);
#181=ORIENTED_EDGE('',*,*,#146,.F.);
#182=ORIENTED_EDGE('',*,*,#148,.F.);
#183=ORIENTED_EDGE('',*,*,#149,.T.);
#184=ORIENTED_EDGE('',*,*,#150,.F.);
#185=ORIENTED_EDGE('',*,*,#149,.F.);
#186=ORIENTED_EDGE('',*,*,#150,.T.);
#187=ORIENTED_EDGE('',*,*,#151,.T.);
#188=ORIENTED_EDGE('',*,*,#152,.F.);
#189=ORIENTED_EDGE('',*,*,#151,.F.);
#190=ORIENTED_EDGE('',*,*,#153,.F.);
#191=ORIENTED_EDGE('',*,*,#154,.T.);
#192=ORIENTED_EDGE('',*,*,#155,.F.);
#193=ORIENTED_EDGE('',*,*,#154,.F.);
#194=ORIENTED_EDGE('',*,*,#155,.T.);
#195=ORIENTED_EDGE('',*,*,#156,.T.);
#196=ORIENTED_EDGE('',*,*,#157,.F.);
#197=ORIENTED_EDGE('',*,*,#156,.F.);
#198=ORIENTED_EDGE('',*,*,#158,.T.);
#199=ORIENTED_EDGE('',*,*,#159,.T.);
#200=ORIENTED_EDGE('',*,*,#160,.T.);
#201=ORIENTED_EDGE('',*,*,#161,.T.);
#202=ORIENTED_EDGE('',*,*,#162,.F.);
#203=ORIENTED_EDGE('',*,*,#163,.F.);
#204=ORIENTED_EDGE('',*,*,#164,.F.);
#205=ORIENTED_EDGE('',*,*,#159,.F.);
#206=ORIENTED_EDGE('',*,*,#164,.T.);
#207=ORIENTED_EDGE('',*,*,#165,.F.);
#208=ORIENTED_EDGE('',*,*,#166,.F.);
#209=ORIENTED_EDGE('',*,*,#160,.F.);
#210=ORIENTED_EDGE('',*,*,#139,.T.);
#211=ORIENTED_EDGE('',*,*,#142,.T.);
#212=ORIENTED_EDGE('',*,*,#145,.T.);
#213=ORIENTED_EDGE('',*,*,#148,.T.);
#214=ORIENTED_EDGE('',*,*,#153,.T.);
#215=ORIENTED_EDGE('',*,*,#166,.T.);
#216=ORIENTED_EDGE('',*,*,#167,.F.);
#217=ORIENTED_EDGE('',*,*,#168,.F.);
#218=ORIENTED_EDGE('',*,*,#161,.F.);
#219=ORIENTED_EDGE('',*,*,#168,.T.);
#220=ORIENTED_EDGE('',*,*,#169,.F.);
#221=ORIENTED_EDGE('',*,*,#162,.T.);
#222=ORIENTED_EDGE('',*,*,#158,.F.);
#223=ORIENTED_EDGE('',*,*,#141,.T.);
#224=ORIENTED_EDGE('',*,*,#144,.T.);
#225=ORIENTED_EDGE('',*,*,#147,.T.);
#226=ORIENTED_EDGE('',*,*,#152,.T.);
#227=ORIENTED_EDGE('',*,*,#157,.T.);
#228=ORIENTED_EDGE('',*,*,#169,.T.);
#229=ORIENTED_EDGE('',*,*,#167,.T.);
#230=ORIENTED_EDGE('',*,*,#165,.T.);
#231=ORIENTED_EDGE('',*,*,#163,.T.);
#232=CYLINDRICAL_SURFACE('',#270,2.4585);
#233=CYLINDRICAL_SURFACE('',#273,2.4585);
#234=CYLINDRICAL_SURFACE('',#276,1.5);
#235=CYLINDRICAL_SURFACE('',#282,3.);
#236=CYLINDRICAL_SURFACE('',#287,3.);
#237=ADVANCED_FACE('',(#33),#232,.F.);
#238=ADVANCED_FACE('',(#34),#233,.F.);
#239=ADVANCED_FACE('',(#35),#234,.F.);
#240=ADVANCED_FACE('',(#36),#31,.F.);
#241=ADVANCED_FACE('',(#37),#235,.F.);
#242=ADVANCED_FACE('',(#38),#32,.F.);
#243=ADVANCED_FACE('',(#39),#236,.F.);
#244=ADVANCED_FACE('',(#40),#25,.T.);
#245=ADVANCED_FACE('',(#41),#26,.T.);
#246=ADVANCED_FACE('',(#42,#15,#16,#17,#18,#19),#27,.T.);
#247=ADVANCED_FACE('',(#43),#28,.T.);
#248=ADVANCED_FACE('',(#44,#20,#21,#22,#23,#24),#29,.T.);
#249=ADVANCED_FACE('',(#45),#30,.T.);
#250=CLOSED_SHELL('',(#237,#238,#239,#240,#241,#242,#243,#244,#245,#246,
#247,#248,#249));
#251=DERIVED_UNIT_ELEMENT(#253,1.);
#252=DERIVED_UNIT_ELEMENT(#436,3.);
#253=(
MASS_UNIT()
NAMED_UNIT(*)
SI_UNIT($,.GRAM.)
);
#254=DERIVED_UNIT((#251,#252));
#255=MEASURE_REPRESENTATION_ITEM('density measure',
POSITIVE_RATIO_MEASURE(8.47),#254);
#256=PROPERTY_DEFINITION_REPRESENTATION(#261,#258);
#257=PROPERTY_DEFINITION_REPRESENTATION(#262,#259);
#258=REPRESENTATION('material name',(#260),#433);
#259=REPRESENTATION('density',(#255),#433);
#260=DESCRIPTIVE_REPRESENTATION_ITEM('Brass, Soft Yellow',
'Brass, Soft Yellow');
#261=PROPERTY_DEFINITION('material property','material name',#443);
#262=PROPERTY_DEFINITION('material property','density of part',#443);
#263=DATE_TIME_ROLE('creation_date');
#264=APPLIED_DATE_AND_TIME_ASSIGNMENT(#265,#263,(#443));
#265=DATE_AND_TIME(#266,#267);
#266=CALENDAR_DATE(2025,16,9);
#267=LOCAL_TIME(0,0,0.,#268);
#268=COORDINATED_UNIVERSAL_TIME_OFFSET(0,0,.BEHIND.);
#269=AXIS2_PLACEMENT_3D('placement',#366,#295,#296);
#270=AXIS2_PLACEMENT_3D('',#367,#297,#298);
#271=AXIS2_PLACEMENT_3D('',#369,#299,#300);
#272=AXIS2_PLACEMENT_3D('',#372,#302,#303);
#273=AXIS2_PLACEMENT_3D('',#373,#304,#305);
#274=AXIS2_PLACEMENT_3D('',#375,#306,#307);
#275=AXIS2_PLACEMENT_3D('',#378,#309,#310);
#276=AXIS2_PLACEMENT_3D('',#379,#311,#312);
#277=AXIS2_PLACEMENT_3D('',#381,#313,#314);
#278=AXIS2_PLACEMENT_3D('',#384,#316,#317);
#279=AXIS2_PLACEMENT_3D('',#385,#318,#319);
#280=AXIS2_PLACEMENT_3D('',#387,#320,#321);
#281=AXIS2_PLACEMENT_3D('',#390,#323,#324);
#282=AXIS2_PLACEMENT_3D('',#391,#325,#326);
#283=AXIS2_PLACEMENT_3D('',#394,#328,#329);
#284=AXIS2_PLACEMENT_3D('',#395,#330,#331);
#285=AXIS2_PLACEMENT_3D('',#397,#332,#333);
#286=AXIS2_PLACEMENT_3D('',#400,#335,#336);
#287=AXIS2_PLACEMENT_3D('',#401,#337,#338);
#288=AXIS2_PLACEMENT_3D('',#404,#340,#341);
#289=AXIS2_PLACEMENT_3D('',#405,#342,#343);
#290=AXIS2_PLACEMENT_3D('',#414,#348,#349);
#291=AXIS2_PLACEMENT_3D('',#420,#353,#354);
#292=AXIS2_PLACEMENT_3D('',#424,#357,#358);
#293=AXIS2_PLACEMENT_3D('',#428,#361,#362);
#294=AXIS2_PLACEMENT_3D('',#430,#364,#365);
#295=DIRECTION('axis',(0.,0.,1.));
#296=DIRECTION('refdir',(1.,0.,0.));
#297=DIRECTION('center_axis',(0.,1.,0.));
#298=DIRECTION('ref_axis',(1.,0.,0.));
#299=DIRECTION('center_axis',(0.,-1.,0.));
#300=DIRECTION('ref_axis',(1.,0.,0.));
#301=DIRECTION('',(0.,-1.,0.));
#302=DIRECTION('center_axis',(-1.11022302462516E-16,1.,0.));
#303=DIRECTION('ref_axis',(1.,0.,0.));
#304=DIRECTION('center_axis',(0.,1.,0.));
#305=DIRECTION('ref_axis',(1.,0.,0.));
#306=DIRECTION('center_axis',(0.,-1.,0.));
#307=DIRECTION('ref_axis',(1.,0.,0.));
#308=DIRECTION('',(0.,-1.,0.));
#309=DIRECTION('center_axis',(-1.11022302462516E-16,1.,0.));
#310=DIRECTION('ref_axis',(1.,0.,0.));
#311=DIRECTION('center_axis',(0.,1.,0.));
#312=DIRECTION('ref_axis',(1.,0.,0.));
#313=DIRECTION('center_axis',(0.,-1.,0.));
#314=DIRECTION('ref_axis',(1.,0.,0.));
#315=DIRECTION('',(0.,-1.,0.));
#316=DIRECTION('center_axis',(-1.11022302462516E-16,1.,0.));
#317=DIRECTION('ref_axis',(1.,0.,0.));
#318=DIRECTION('center_axis',(0.,1.,0.));
#319=DIRECTION('ref_axis',(1.,0.,0.));
#320=DIRECTION('center_axis',(0.,-1.,0.));
#321=DIRECTION('ref_axis',(1.,0.,0.));
#322=DIRECTION('',(0.707106781186548,-0.707106781186548,-8.65956056235493E-17));
#323=DIRECTION('center_axis',(0.,1.,0.));
#324=DIRECTION('ref_axis',(1.,0.,0.));
#325=DIRECTION('center_axis',(0.,1.,0.));
#326=DIRECTION('ref_axis',(1.,0.,0.));
#327=DIRECTION('',(0.,-1.,0.));
#328=DIRECTION('center_axis',(-1.11022302462516E-16,1.,0.));
#329=DIRECTION('ref_axis',(1.,0.,0.));
#330=DIRECTION('center_axis',(0.,1.,0.));
#331=DIRECTION('ref_axis',(1.,0.,0.));
#332=DIRECTION('center_axis',(0.,-1.,0.));
#333=DIRECTION('ref_axis',(1.,0.,0.));
#334=DIRECTION('',(0.707106781186548,-0.707106781186548,-8.65956056235493E-17));
#335=DIRECTION('center_axis',(0.,1.,0.));
#336=DIRECTION('ref_axis',(1.,0.,0.));
#337=DIRECTION('center_axis',(0.,1.,0.));
#338=DIRECTION('ref_axis',(1.,0.,0.));
#339=DIRECTION('',(0.,-1.,0.));
#340=DIRECTION('center_axis',(-1.11022302462516E-16,1.,0.));
#341=DIRECTION('ref_axis',(1.,0.,0.));
#342=DIRECTION('center_axis',(0.,0.,-1.));
#343=DIRECTION('ref_axis',(-1.,0.,0.));
#344=DIRECTION('',(-1.,-1.11022302462516E-16,0.));
#345=DIRECTION('',(0.,1.,0.));
#346=DIRECTION('',(1.,0.,0.));
#347=DIRECTION('',(0.,-1.,0.));
#348=DIRECTION('center_axis',(-1.,0.,0.));
#349=DIRECTION('ref_axis',(0.,-1.,0.));
#350=DIRECTION('',(0.,0.,-1.));
#351=DIRECTION('',(0.,-1.,0.));
#352=DIRECTION('',(0.,0.,1.));
#353=DIRECTION('center_axis',(0.,1.,0.));
#354=DIRECTION('ref_axis',(-1.,0.,0.));
#355=DIRECTION('',(-1.,0.,0.));
#356=DIRECTION('',(0.,0.,1.));
#357=DIRECTION('center_axis',(1.,0.,0.));
#358=DIRECTION('ref_axis',(0.,1.,0.));
#359=DIRECTION('',(0.,1.,0.));
#360=DIRECTION('',(0.,0.,1.));
#361=DIRECTION('center_axis',(1.11022302462516E-16,-1.,0.));
#362=DIRECTION('ref_axis',(1.,1.11022302462516E-16,0.));
#363=DIRECTION('',(1.,1.11022302462516E-16,0.));
#364=DIRECTION('center_axis',(0.,0.,1.));
#365=DIRECTION('ref_axis',(1.,0.,0.));
#366=CARTESIAN_POINT('',(0.,0.,0.));
#367=CARTESIAN_POINT('Origin',(-14.77,-3.55000000000001,61.145650494936));
#368=CARTESIAN_POINT('',(-17.2285,4.99999999999999,61.145650494936));
#369=CARTESIAN_POINT('Origin',(-14.77,4.99999999999999,61.145650494936));
#370=CARTESIAN_POINT('',(-17.2285,-5.00000000000001,61.145650494936));
#371=CARTESIAN_POINT('',(-17.2285,-3.55000000000001,61.145650494936));
#372=CARTESIAN_POINT('Origin',(-14.77,-5.00000000000001,61.145650494936));
#373=CARTESIAN_POINT('Origin',(14.77,-3.55000000000001,66.354349505064));
#374=CARTESIAN_POINT('',(12.3115,4.99999999999999,66.354349505064));
#375=CARTESIAN_POINT('Origin',(14.77,4.99999999999999,66.354349505064));
#376=CARTESIAN_POINT('',(12.3115,-5.00000000000001,66.354349505064));
#377=CARTESIAN_POINT('',(12.3115,-3.55000000000001,66.354349505064));
#378=CARTESIAN_POINT('Origin',(14.77,-5.00000000000001,66.354349505064));
#379=CARTESIAN_POINT('Origin',(0.,-0.200000000000011,63.75));
#380=CARTESIAN_POINT('',(-1.5,4.99999999999999,63.75));
#381=CARTESIAN_POINT('Origin',(0.,4.99999999999999,63.75));
#382=CARTESIAN_POINT('',(-1.5,-5.00000000000001,63.75));
#383=CARTESIAN_POINT('',(-1.5,-0.200000000000011,63.75));
#384=CARTESIAN_POINT('Origin',(0.,-5.00000000000001,63.75));
#385=CARTESIAN_POINT('Origin',(-10.,3.34999999999999,-68.75));
#386=CARTESIAN_POINT('',(-16.3,4.99999999999999,-68.75));
#387=CARTESIAN_POINT('Origin',(-10.,4.99999999999999,-68.75));
#388=CARTESIAN_POINT('',(-13.,1.69999999999999,-68.75));
#389=CARTESIAN_POINT('',(-14.65,3.34999999999999,-68.75));
#390=CARTESIAN_POINT('Origin',(-10.,1.69999999999999,-68.75));
#391=CARTESIAN_POINT('Origin',(-10.,-0.200000000000011,-68.75));
#392=CARTESIAN_POINT('',(-13.,-5.00000000000001,-68.75));
#393=CARTESIAN_POINT('',(-13.,-0.200000000000011,-68.75));
#394=CARTESIAN_POINT('Origin',(-10.,-5.00000000000001,-68.75));
#395=CARTESIAN_POINT('Origin',(10.,3.34999999999999,-68.75));
#396=CARTESIAN_POINT('',(3.7,4.99999999999999,-68.75));
#397=CARTESIAN_POINT('Origin',(10.,4.99999999999999,-68.75));
#398=CARTESIAN_POINT('',(7.,1.69999999999999,-68.75));
#399=CARTESIAN_POINT('',(5.35,3.34999999999999,-68.75));
#400=CARTESIAN_POINT('Origin',(10.,1.69999999999999,-68.75));
#401=CARTESIAN_POINT('Origin',(10.,-0.200000000000011,-68.75));
#402=CARTESIAN_POINT('',(7.,-5.00000000000001,-68.75));
#403=CARTESIAN_POINT('',(7.,-0.200000000000011,-68.75));
#404=CARTESIAN_POINT('Origin',(10.,-5.00000000000001,-68.75));
#405=CARTESIAN_POINT('Origin',(8.88178419700125E-15,-1.22124532708767E-14,
-81.25));
#406=CARTESIAN_POINT('',(20.,-5.00000000000001,-81.25));
#407=CARTESIAN_POINT('',(-20.,-5.00000000000001,-81.25));
#408=CARTESIAN_POINT('',(-20.,-5.00000000000001,-81.25));
#409=CARTESIAN_POINT('',(-20.,4.99999999999999,-81.25));
#410=CARTESIAN_POINT('',(-20.,4.99999999999999,-81.25));
#411=CARTESIAN_POINT('',(20.,4.99999999999999,-81.25));
#412=CARTESIAN_POINT('',(20.,4.99999999999999,-81.25));
#413=CARTESIAN_POINT('',(20.,-5.00000000000001,-81.25));
#414=CARTESIAN_POINT('Origin',(-20.,4.99999999999999,0.));
#415=CARTESIAN_POINT('',(-20.,-5.00000000000001,81.25));
#416=CARTESIAN_POINT('',(-20.,-5.00000000000001,0.));
#417=CARTESIAN_POINT('',(-20.,4.99999999999999,81.25));
#418=CARTESIAN_POINT('',(-20.,4.99999999999999,81.25));
#419=CARTESIAN_POINT('',(-20.,4.99999999999999,0.));
#420=CARTESIAN_POINT('Origin',(20.,4.99999999999999,0.));
#421=CARTESIAN_POINT('',(20.,4.99999999999999,81.25));
#422=CARTESIAN_POINT('',(20.,4.99999999999999,81.25));
#423=CARTESIAN_POINT('',(20.,4.99999999999999,0.));
#424=CARTESIAN_POINT('Origin',(20.,-5.00000000000001,0.));
#425=CARTESIAN_POINT('',(20.,-5.00000000000001,81.25));
#426=CARTESIAN_POINT('',(20.,-5.00000000000001,81.25));
#427=CARTESIAN_POINT('',(20.,-5.00000000000001,0.));
#428=CARTESIAN_POINT('Origin',(-20.,-5.00000000000001,0.));
#429=CARTESIAN_POINT('',(-20.,-5.00000000000001,81.25));
#430=CARTESIAN_POINT('Origin',(8.88178419700125E-15,-1.22124532708767E-14,
81.25));
#431=UNCERTAINTY_MEASURE_WITH_UNIT(LENGTH_MEASURE(0.01),#435,
'DISTANCE_ACCURACY_VALUE',
'Maximum model space distance between geometric entities at asserted c
onnectivities');
#432=UNCERTAINTY_MEASURE_WITH_UNIT(LENGTH_MEASURE(0.01),#435,
'DISTANCE_ACCURACY_VALUE',
'Maximum model space distance between geometric entities at asserted c
onnectivities');
#433=(
GEOMETRIC_REPRESENTATION_CONTEXT(3)
GLOBAL_UNCERTAINTY_ASSIGNED_CONTEXT((#431))
GLOBAL_UNIT_ASSIGNED_CONTEXT((#435,#437,#438))
REPRESENTATION_CONTEXT('','3D')
);
#434=(
GEOMETRIC_REPRESENTATION_CONTEXT(3)
GLOBAL_UNCERTAINTY_ASSIGNED_CONTEXT((#432))
GLOBAL_UNIT_ASSIGNED_CONTEXT((#435,#437,#438))
REPRESENTATION_CONTEXT('','3D')
);
#435=(
LENGTH_UNIT()
NAMED_UNIT(*)
SI_UNIT(.MILLI.,.METRE.)
);
#436=(
LENGTH_UNIT()
NAMED_UNIT(*)
SI_UNIT(.CENTI.,.METRE.)
);
#437=(
NAMED_UNIT(*)
PLANE_ANGLE_UNIT()
SI_UNIT($,.RADIAN.)
);
#438=(
NAMED_UNIT(*)
SI_UNIT($,.STERADIAN.)
SOLID_ANGLE_UNIT()
);
#439=SHAPE_DEFINITION_REPRESENTATION(#440,#441);
#440=PRODUCT_DEFINITION_SHAPE('',$,#443);
#441=SHAPE_REPRESENTATION('',(#269),#433);
#442=PRODUCT_DEFINITION_CONTEXT('part definition',#447,'design');
#443=PRODUCT_DEFINITION('Support Beam','Support Beam',#444,#442);
#444=PRODUCT_DEFINITION_FORMATION('',$,#449);
#445=PRODUCT_RELATED_PRODUCT_CATEGORY('Support Beam','Support Beam',(#449));
#446=APPLICATION_PROTOCOL_DEFINITION('international standard',
'automotive_design',2009,#447);
#447=APPLICATION_CONTEXT(
'Core Data for Automotive Mechanical Design Process');
#448=PRODUCT_CONTEXT('part definition',#447,'mechanical');
#449=PRODUCT('Support Beam','Support Beam',$,(#448));
#450=PRESENTATION_STYLE_ASSIGNMENT((#451));
#451=SURFACE_STYLE_USAGE(.BOTH.,#454);
#452=SURFACE_STYLE_RENDERING_WITH_PROPERTIES($,#458,(#453));
#453=SURFACE_STYLE_TRANSPARENT(0.);
#454=SURFACE_SIDE_STYLE('',(#455,#452));
#455=SURFACE_STYLE_FILL_AREA(#456);
#456=FILL_AREA_STYLE('',(#457));
#457=FILL_AREA_STYLE_COLOUR('',#458);
#458=COLOUR_RGB('',0.796078431372549,0.603921568627451,0.231372549019608);
ENDSEC;
END-ISO-10303-21;
