ISO-10303-21;
HEADER;
/* Generated by software containing ST-Developer
 * from STEP Tools, Inc. (www.steptools.com) 
 */

FILE_DESCRIPTION(
/* description */ (''),
/* implementation_level */ '2;1');

FILE_NAME(
/* name */ 
'S:\\Future Scope 1\\WIP\\Client Category\\Tom\\02 Progressive Work\\W
heel Shaft Pillar.stp',
/* time_stamp */ '2025-11-05T12:14:40+06:00',
/* author */ ('SD'),
/* organization */ (''),
/* preprocessor_version */ 'ST-DEVELOPER v18.1',
/* originating_system */ 'Autodesk Inventor 2021',
/* authorisation */ '');

FILE_SCHEMA (('AUTOMOTIVE_DESIGN { 1 0 10303 214 3 1 1 }'));
ENDSEC;

DATA;
#10=MECHANICAL_DESIGN_GEOMETRIC_PRESENTATION_REPRESENTATION('',(#13),#605);
#11=SHAPE_REPRESENTATION_RELATIONSHIP('SRR','None',#612,#12);
#12=ADVANCED_BREP_SHAPE_REPRESENTATION('',(#14),#604);
#13=STYLED_ITEM('',(#621),#14);
#14=MANIFOLD_SOLID_BREP('Solid1',#284);
#15=TOROIDAL_SURFACE('',#317,8.,1.5);
#16=TOROIDAL_SURFACE('',#325,45.0809924354783,40.);
#17=TOROIDAL_SURFACE('',#332,7.99999999999999,1.5);
#18=TOROIDAL_SURFACE('',#335,7.99999999999998,1.5);
#19=TOROIDAL_SURFACE('',#338,7.99999999999998,2.);
#20=TOROIDAL_SURFACE('',#344,8.,2.);
#21=TOROIDAL_SURFACE('',#347,8.,1.5);
#22=FACE_BOUND('',#62,.T.);
#23=FACE_BOUND('',#65,.T.);
#24=FACE_BOUND('',#69,.T.);
#25=FACE_BOUND('',#76,.T.);
#26=PLANE('',#310);
#27=PLANE('',#314);
#28=PLANE('',#341);
#29=PLANE('',#342);
#30=B_SPLINE_CURVE_WITH_KNOTS('',3,(#462,#463,#464,#465,#466,#467,#468,
#469,#470,#471,#472,#473,#474,#475,#476,#477,#478,#479),.UNSPECIFIED.,.F.,
 .F.,(4,2,2,2,2,2,2,2,4),(0.535336591546175,0.669070476597957,0.802804361649739,
0.936738772371044,1.07067318309235,1.20460759381365,1.33854200453496,1.47227588958674,
1.60600977463852),.UNSPECIFIED.);
#31=B_SPLINE_CURVE_WITH_KNOTS('',3,(#483,#484,#485,#486,#487,#488,#489,
#490,#491,#492,#493,#494,#495,#496,#497,#498,#499,#500,#501),
 .UNSPECIFIED.,.F.,.F.,(4,2,2,2,3,2,2,2,4),(1.60600977463852,1.73974365969031,
1.87347754474209,2.00741195546339,2.1413463661847,2.275280776906,2.40921518762731,
2.54294907267909,2.67668295773087),.UNSPECIFIED.);
#32=B_SPLINE_CURVE_WITH_KNOTS('',3,(#508,#509,#510,#511,#512,#513,#514,
#515,#516,#517,#518,#519,#520,#521,#522,#523,#524,#525),.UNSPECIFIED.,.F.,
 .F.,(4,2,2,2,2,2,2,2,4),(0.535336591546175,0.669070476597957,0.802804361649739,
0.936738772371044,1.07067318309235,1.20460759381365,1.33854200453496,1.47227588958674,
1.60600977463852),.UNSPECIFIED.);
#33=B_SPLINE_CURVE_WITH_KNOTS('',3,(#529,#530,#531,#532,#533,#534,#535,
#536,#537,#538,#539,#540,#541,#542,#543,#544,#545,#546,#547),
 .UNSPECIFIED.,.F.,.F.,(4,2,2,2,3,2,2,2,4),(1.60600977463852,1.73974365969031,
1.87347754474209,2.00741195546339,2.1413463661847,2.275280776906,2.40921518762731,
2.54294907267909,2.67668295773087),.UNSPECIFIED.);
#34=CYLINDRICAL_SURFACE('',#306,3.3235);
#35=CYLINDRICAL_SURFACE('',#308,3.5);
#36=CYLINDRICAL_SURFACE('',#312,3.5);
#37=CYLINDRICAL_SURFACE('',#316,2.5);
#38=CYLINDRICAL_SURFACE('',#322,8.);
#39=CYLINDRICAL_SURFACE('',#329,7.99999999999999);
#40=FACE_OUTER_BOUND('',#58,.T.);
#41=FACE_OUTER_BOUND('',#59,.T.);
#42=FACE_OUTER_BOUND('',#60,.T.);
#43=FACE_OUTER_BOUND('',#61,.T.);
#44=FACE_OUTER_BOUND('',#63,.T.);
#45=FACE_OUTER_BOUND('',#64,.T.);
#46=FACE_OUTER_BOUND('',#66,.T.);
#47=FACE_OUTER_BOUND('',#67,.T.);
#48=FACE_OUTER_BOUND('',#68,.T.);
#49=FACE_OUTER_BOUND('',#70,.T.);
#50=FACE_OUTER_BOUND('',#71,.T.);
#51=FACE_OUTER_BOUND('',#72,.T.);
#52=FACE_OUTER_BOUND('',#73,.T.);
#53=FACE_OUTER_BOUND('',#74,.T.);
#54=FACE_OUTER_BOUND('',#75,.T.);
#55=FACE_OUTER_BOUND('',#77,.T.);
#56=FACE_OUTER_BOUND('',#78,.T.);
#57=FACE_OUTER_BOUND('',#79,.T.);
#58=EDGE_LOOP('',(#187,#188,#189));
#59=EDGE_LOOP('',(#190,#191,#192,#193));
#60=EDGE_LOOP('',(#194,#195,#196,#197,#198));
#61=EDGE_LOOP('',(#199));
#62=EDGE_LOOP('',(#200));
#63=EDGE_LOOP('',(#201,#202,#203,#204,#205));
#64=EDGE_LOOP('',(#206));
#65=EDGE_LOOP('',(#207));
#66=EDGE_LOOP('',(#208,#209,#210,#211));
#67=EDGE_LOOP('',(#212,#213,#214,#215,#216));
#68=EDGE_LOOP('',(#217,#218,#219,#220,#221,#222,#223,#224,#225,#226));
#69=EDGE_LOOP('',(#227,#228));
#70=EDGE_LOOP('',(#229,#230,#231,#232,#233,#234));
#71=EDGE_LOOP('',(#235,#236,#237,#238,#239,#240));
#72=EDGE_LOOP('',(#241,#242,#243,#244,#245));
#73=EDGE_LOOP('',(#246,#247,#248,#249));
#74=EDGE_LOOP('',(#250,#251,#252,#253));
#75=EDGE_LOOP('',(#254));
#76=EDGE_LOOP('',(#255));
#77=EDGE_LOOP('',(#256));
#78=EDGE_LOOP('',(#257,#258,#259,#260));
#79=EDGE_LOOP('',(#261,#262,#263,#264));
#80=LINE('',#454,#88);
#81=LINE('',#458,#89);
#82=LINE('',#481,#90);
#83=LINE('',#527,#91);
#84=LINE('',#552,#92);
#85=LINE('',#565,#93);
#86=LINE('',#566,#94);
#87=LINE('',#578,#95);
#88=VECTOR('',#355,1.66175);
#89=VECTOR('',#360,3.3235);
#90=VECTOR('',#363,3.5);
#91=VECTOR('',#372,3.5);
#92=VECTOR('',#381,2.5);
#93=VECTOR('',#396,8.);
#94=VECTOR('',#397,8.);
#95=VECTOR('',#412,7.99999999999999);
#96=CIRCLE('',#305,3.3235);
#97=CIRCLE('',#307,3.3235);
#98=CIRCLE('',#309,3.5);
#99=CIRCLE('',#311,2.5);
#100=CIRCLE('',#313,3.5);
#101=CIRCLE('',#315,2.5);
#102=CIRCLE('',#318,8.);
#103=CIRCLE('',#319,8.);
#104=CIRCLE('',#320,1.5);
#105=CIRCLE('',#321,8.);
#106=CIRCLE('',#323,8.);
#107=CIRCLE('',#324,8.);
#108=CIRCLE('',#326,40.);
#109=CIRCLE('',#327,7.99999999999999);
#110=CIRCLE('',#328,7.99999999999999);
#111=CIRCLE('',#330,7.99999999999999);
#112=CIRCLE('',#331,7.99999999999999);
#113=CIRCLE('',#333,7.99999999999999);
#114=CIRCLE('',#334,1.5);
#115=CIRCLE('',#336,1.5);
#116=CIRCLE('',#337,7.99999999999998);
#117=CIRCLE('',#339,7.99999999999998);
#118=CIRCLE('',#340,2.);
#119=CIRCLE('',#343,8.);
#120=CIRCLE('',#345,8.);
#121=CIRCLE('',#346,2.);
#122=CIRCLE('',#348,1.5);
#123=VERTEX_POINT('',#451);
#124=VERTEX_POINT('',#453);
#125=VERTEX_POINT('',#456);
#126=VERTEX_POINT('',#460);
#127=VERTEX_POINT('',#461);
#128=VERTEX_POINT('',#480);
#129=VERTEX_POINT('',#503);
#130=VERTEX_POINT('',#506);
#131=VERTEX_POINT('',#507);
#132=VERTEX_POINT('',#526);
#133=VERTEX_POINT('',#549);
#134=VERTEX_POINT('',#554);
#135=VERTEX_POINT('',#555);
#136=VERTEX_POINT('',#558);
#137=VERTEX_POINT('',#562);
#138=VERTEX_POINT('',#563);
#139=VERTEX_POINT('',#569);
#140=VERTEX_POINT('',#571);
#141=VERTEX_POINT('',#575);
#142=VERTEX_POINT('',#576);
#143=VERTEX_POINT('',#581);
#144=VERTEX_POINT('',#585);
#145=VERTEX_POINT('',#589);
#146=VERTEX_POINT('',#594);
#147=VERTEX_POINT('',#597);
#148=EDGE_CURVE('',#123,#123,#96,.T.);
#149=EDGE_CURVE('',#123,#124,#80,.T.);
#150=EDGE_CURVE('',#125,#125,#97,.T.);
#151=EDGE_CURVE('',#125,#123,#81,.T.);
#152=EDGE_CURVE('',#126,#127,#30,.T.);
#153=EDGE_CURVE('',#126,#128,#82,.T.);
#154=EDGE_CURVE('',#128,#128,#98,.T.);
#155=EDGE_CURVE('',#127,#126,#31,.T.);
#156=EDGE_CURVE('',#129,#129,#99,.T.);
#157=EDGE_CURVE('',#130,#131,#32,.T.);
#158=EDGE_CURVE('',#130,#132,#83,.T.);
#159=EDGE_CURVE('',#132,#132,#100,.T.);
#160=EDGE_CURVE('',#131,#130,#33,.T.);
#161=EDGE_CURVE('',#133,#133,#101,.T.);
#162=EDGE_CURVE('',#133,#129,#84,.T.);
#163=EDGE_CURVE('',#134,#135,#102,.T.);
#164=EDGE_CURVE('',#135,#134,#103,.T.);
#165=EDGE_CURVE('',#135,#136,#104,.T.);
#166=EDGE_CURVE('',#136,#136,#105,.T.);
#167=EDGE_CURVE('',#137,#138,#106,.T.);
#168=EDGE_CURVE('',#137,#126,#85,.T.);
#169=EDGE_CURVE('',#127,#134,#86,.T.);
#170=EDGE_CURVE('',#138,#137,#107,.T.);
#171=EDGE_CURVE('',#138,#139,#108,.T.);
#172=EDGE_CURVE('',#140,#139,#109,.T.);
#173=EDGE_CURVE('',#139,#140,#110,.T.);
#174=EDGE_CURVE('',#141,#142,#111,.T.);
#175=EDGE_CURVE('',#141,#140,#87,.T.);
#176=EDGE_CURVE('',#142,#141,#112,.T.);
#177=EDGE_CURVE('',#143,#143,#113,.T.);
#178=EDGE_CURVE('',#143,#142,#114,.T.);
#179=EDGE_CURVE('',#143,#144,#115,.T.);
#180=EDGE_CURVE('',#144,#144,#116,.T.);
#181=EDGE_CURVE('',#145,#145,#117,.T.);
#182=EDGE_CURVE('',#145,#144,#118,.T.);
#183=EDGE_CURVE('',#146,#146,#119,.T.);
#184=EDGE_CURVE('',#147,#147,#120,.T.);
#185=EDGE_CURVE('',#147,#146,#121,.T.);
#186=EDGE_CURVE('',#147,#136,#122,.T.);
#187=ORIENTED_EDGE('',*,*,#148,.T.);
#188=ORIENTED_EDGE('',*,*,#149,.T.);
#189=ORIENTED_EDGE('',*,*,#149,.F.);
#190=ORIENTED_EDGE('',*,*,#150,.F.);
#191=ORIENTED_EDGE('',*,*,#151,.T.);
#192=ORIENTED_EDGE('',*,*,#148,.F.);
#193=ORIENTED_EDGE('',*,*,#151,.F.);
#194=ORIENTED_EDGE('',*,*,#152,.F.);
#195=ORIENTED_EDGE('',*,*,#153,.T.);
#196=ORIENTED_EDGE('',*,*,#154,.T.);
#197=ORIENTED_EDGE('',*,*,#153,.F.);
#198=ORIENTED_EDGE('',*,*,#155,.F.);
#199=ORIENTED_EDGE('',*,*,#154,.F.);
#200=ORIENTED_EDGE('',*,*,#156,.F.);
#201=ORIENTED_EDGE('',*,*,#157,.F.);
#202=ORIENTED_EDGE('',*,*,#158,.T.);
#203=ORIENTED_EDGE('',*,*,#159,.T.);
#204=ORIENTED_EDGE('',*,*,#158,.F.);
#205=ORIENTED_EDGE('',*,*,#160,.F.);
#206=ORIENTED_EDGE('',*,*,#159,.F.);
#207=ORIENTED_EDGE('',*,*,#161,.F.);
#208=ORIENTED_EDGE('',*,*,#161,.T.);
#209=ORIENTED_EDGE('',*,*,#162,.T.);
#210=ORIENTED_EDGE('',*,*,#156,.T.);
#211=ORIENTED_EDGE('',*,*,#162,.F.);
#212=ORIENTED_EDGE('',*,*,#163,.F.);
#213=ORIENTED_EDGE('',*,*,#164,.F.);
#214=ORIENTED_EDGE('',*,*,#165,.T.);
#215=ORIENTED_EDGE('',*,*,#166,.T.);
#216=ORIENTED_EDGE('',*,*,#165,.F.);
#217=ORIENTED_EDGE('',*,*,#167,.F.);
#218=ORIENTED_EDGE('',*,*,#168,.T.);
#219=ORIENTED_EDGE('',*,*,#152,.T.);
#220=ORIENTED_EDGE('',*,*,#169,.T.);
#221=ORIENTED_EDGE('',*,*,#163,.T.);
#222=ORIENTED_EDGE('',*,*,#164,.T.);
#223=ORIENTED_EDGE('',*,*,#169,.F.);
#224=ORIENTED_EDGE('',*,*,#155,.T.);
#225=ORIENTED_EDGE('',*,*,#168,.F.);
#226=ORIENTED_EDGE('',*,*,#170,.F.);
#227=ORIENTED_EDGE('',*,*,#160,.T.);
#228=ORIENTED_EDGE('',*,*,#157,.T.);
#229=ORIENTED_EDGE('',*,*,#167,.T.);
#230=ORIENTED_EDGE('',*,*,#171,.T.);
#231=ORIENTED_EDGE('',*,*,#172,.F.);
#232=ORIENTED_EDGE('',*,*,#173,.F.);
#233=ORIENTED_EDGE('',*,*,#171,.F.);
#234=ORIENTED_EDGE('',*,*,#170,.T.);
#235=ORIENTED_EDGE('',*,*,#174,.F.);
#236=ORIENTED_EDGE('',*,*,#175,.T.);
#237=ORIENTED_EDGE('',*,*,#172,.T.);
#238=ORIENTED_EDGE('',*,*,#173,.T.);
#239=ORIENTED_EDGE('',*,*,#175,.F.);
#240=ORIENTED_EDGE('',*,*,#176,.F.);
#241=ORIENTED_EDGE('',*,*,#177,.F.);
#242=ORIENTED_EDGE('',*,*,#178,.T.);
#243=ORIENTED_EDGE('',*,*,#176,.T.);
#244=ORIENTED_EDGE('',*,*,#174,.T.);
#245=ORIENTED_EDGE('',*,*,#178,.F.);
#246=ORIENTED_EDGE('',*,*,#177,.T.);
#247=ORIENTED_EDGE('',*,*,#179,.T.);
#248=ORIENTED_EDGE('',*,*,#180,.F.);
#249=ORIENTED_EDGE('',*,*,#179,.F.);
#250=ORIENTED_EDGE('',*,*,#181,.F.);
#251=ORIENTED_EDGE('',*,*,#182,.T.);
#252=ORIENTED_EDGE('',*,*,#180,.T.);
#253=ORIENTED_EDGE('',*,*,#182,.F.);
#254=ORIENTED_EDGE('',*,*,#181,.T.);
#255=ORIENTED_EDGE('',*,*,#150,.T.);
#256=ORIENTED_EDGE('',*,*,#183,.F.);
#257=ORIENTED_EDGE('',*,*,#184,.F.);
#258=ORIENTED_EDGE('',*,*,#185,.T.);
#259=ORIENTED_EDGE('',*,*,#183,.T.);
#260=ORIENTED_EDGE('',*,*,#185,.F.);
#261=ORIENTED_EDGE('',*,*,#184,.T.);
#262=ORIENTED_EDGE('',*,*,#186,.T.);
#263=ORIENTED_EDGE('',*,*,#166,.F.);
#264=ORIENTED_EDGE('',*,*,#186,.F.);
#265=CONICAL_SURFACE('',#304,1.66175,1.02974425867665);
#266=ADVANCED_FACE('',(#40),#265,.F.);
#267=ADVANCED_FACE('',(#41),#34,.F.);
#268=ADVANCED_FACE('',(#42),#35,.F.);
#269=ADVANCED_FACE('',(#43,#22),#26,.F.);
#270=ADVANCED_FACE('',(#44),#36,.F.);
#271=ADVANCED_FACE('',(#45,#23),#27,.T.);
#272=ADVANCED_FACE('',(#46),#37,.F.);
#273=ADVANCED_FACE('',(#47),#15,.T.);
#274=ADVANCED_FACE('',(#48,#24),#38,.T.);
#275=ADVANCED_FACE('',(#49),#16,.F.);
#276=ADVANCED_FACE('',(#50),#39,.T.);
#277=ADVANCED_FACE('',(#51),#17,.T.);
#278=ADVANCED_FACE('',(#52),#18,.F.);
#279=ADVANCED_FACE('',(#53),#19,.T.);
#280=ADVANCED_FACE('',(#54,#25),#28,.T.);
#281=ADVANCED_FACE('',(#55),#29,.T.);
#282=ADVANCED_FACE('',(#56),#20,.T.);
#283=ADVANCED_FACE('',(#57),#21,.F.);
#284=CLOSED_SHELL('',(#266,#267,#268,#269,#270,#271,#272,#273,#274,#275,
#276,#277,#278,#279,#280,#281,#282,#283));
#285=DERIVED_UNIT_ELEMENT(#287,1.);
#286=DERIVED_UNIT_ELEMENT(#607,3.);
#287=(
MASS_UNIT()
NAMED_UNIT(*)
SI_UNIT($,.GRAM.)
);
#288=DERIVED_UNIT((#285,#286));
#289=MEASURE_REPRESENTATION_ITEM('density measure',
POSITIVE_RATIO_MEASURE(8.),#288);
#290=PROPERTY_DEFINITION_REPRESENTATION(#295,#292);
#291=PROPERTY_DEFINITION_REPRESENTATION(#296,#293);
#292=REPRESENTATION('material name',(#294),#604);
#293=REPRESENTATION('density',(#289),#604);
#294=DESCRIPTIVE_REPRESENTATION_ITEM('Stainless Steel',
'Stainless Steel');
#295=PROPERTY_DEFINITION('material property','material name',#614);
#296=PROPERTY_DEFINITION('material property','density of part',#614);
#297=DATE_TIME_ROLE('creation_date');
#298=APPLIED_DATE_AND_TIME_ASSIGNMENT(#299,#297,(#614));
#299=DATE_AND_TIME(#300,#301);
#300=CALENDAR_DATE(2025,17,9);
#301=LOCAL_TIME(0,0,0.,#302);
#302=COORDINATED_UNIVERSAL_TIME_OFFSET(0,0,.BEHIND.);
#303=AXIS2_PLACEMENT_3D('placement',#449,#349,#350);
#304=AXIS2_PLACEMENT_3D('',#450,#351,#352);
#305=AXIS2_PLACEMENT_3D('',#452,#353,#354);
#306=AXIS2_PLACEMENT_3D('',#455,#356,#357);
#307=AXIS2_PLACEMENT_3D('',#457,#358,#359);
#308=AXIS2_PLACEMENT_3D('',#459,#361,#362);
#309=AXIS2_PLACEMENT_3D('',#482,#364,#365);
#310=AXIS2_PLACEMENT_3D('',#502,#366,#367);
#311=AXIS2_PLACEMENT_3D('',#504,#368,#369);
#312=AXIS2_PLACEMENT_3D('',#505,#370,#371);
#313=AXIS2_PLACEMENT_3D('',#528,#373,#374);
#314=AXIS2_PLACEMENT_3D('',#548,#375,#376);
#315=AXIS2_PLACEMENT_3D('',#550,#377,#378);
#316=AXIS2_PLACEMENT_3D('',#551,#379,#380);
#317=AXIS2_PLACEMENT_3D('',#553,#382,#383);
#318=AXIS2_PLACEMENT_3D('',#556,#384,#385);
#319=AXIS2_PLACEMENT_3D('',#557,#386,#387);
#320=AXIS2_PLACEMENT_3D('',#559,#388,#389);
#321=AXIS2_PLACEMENT_3D('',#560,#390,#391);
#322=AXIS2_PLACEMENT_3D('',#561,#392,#393);
#323=AXIS2_PLACEMENT_3D('',#564,#394,#395);
#324=AXIS2_PLACEMENT_3D('',#567,#398,#399);
#325=AXIS2_PLACEMENT_3D('',#568,#400,#401);
#326=AXIS2_PLACEMENT_3D('',#570,#402,#403);
#327=AXIS2_PLACEMENT_3D('',#572,#404,#405);
#328=AXIS2_PLACEMENT_3D('',#573,#406,#407);
#329=AXIS2_PLACEMENT_3D('',#574,#408,#409);
#330=AXIS2_PLACEMENT_3D('',#577,#410,#411);
#331=AXIS2_PLACEMENT_3D('',#579,#413,#414);
#332=AXIS2_PLACEMENT_3D('',#580,#415,#416);
#333=AXIS2_PLACEMENT_3D('',#582,#417,#418);
#334=AXIS2_PLACEMENT_3D('',#583,#419,#420);
#335=AXIS2_PLACEMENT_3D('',#584,#421,#422);
#336=AXIS2_PLACEMENT_3D('',#586,#423,#424);
#337=AXIS2_PLACEMENT_3D('',#587,#425,#426);
#338=AXIS2_PLACEMENT_3D('',#588,#427,#428);
#339=AXIS2_PLACEMENT_3D('',#590,#429,#430);
#340=AXIS2_PLACEMENT_3D('',#591,#431,#432);
#341=AXIS2_PLACEMENT_3D('',#592,#433,#434);
#342=AXIS2_PLACEMENT_3D('',#593,#435,#436);
#343=AXIS2_PLACEMENT_3D('',#595,#437,#438);
#344=AXIS2_PLACEMENT_3D('',#596,#439,#440);
#345=AXIS2_PLACEMENT_3D('',#598,#441,#442);
#346=AXIS2_PLACEMENT_3D('',#599,#443,#444);
#347=AXIS2_PLACEMENT_3D('',#600,#445,#446);
#348=AXIS2_PLACEMENT_3D('',#601,#447,#448);
#349=DIRECTION('axis',(0.,0.,1.));
#350=DIRECTION('refdir',(1.,0.,0.));
#351=DIRECTION('center_axis',(9.86609643940058E-17,-1.,0.));
#352=DIRECTION('ref_axis',(1.,9.86609643940058E-17,0.));
#353=DIRECTION('center_axis',(9.86609643940058E-17,-1.,0.));
#354=DIRECTION('ref_axis',(1.,9.86609643940058E-17,0.));
#355=DIRECTION('',(0.857167300702112,0.515038074910054,1.04972719113862E-16));
#356=DIRECTION('center_axis',(9.86609643940058E-17,-1.,0.));
#357=DIRECTION('ref_axis',(1.,9.86609643940058E-17,0.));
#358=DIRECTION('center_axis',(-9.86609643940058E-17,1.,0.));
#359=DIRECTION('ref_axis',(1.,9.86609643940058E-17,0.));
#360=DIRECTION('',(-9.86609643940058E-17,1.,0.));
#361=DIRECTION('center_axis',(1.,0.,0.));
#362=DIRECTION('ref_axis',(0.,1.,0.));
#363=DIRECTION('',(1.,0.,0.));
#364=DIRECTION('center_axis',(1.,0.,0.));
#365=DIRECTION('ref_axis',(0.,1.,0.));
#366=DIRECTION('center_axis',(1.,0.,0.));
#367=DIRECTION('ref_axis',(0.,0.,-1.));
#368=DIRECTION('center_axis',(-1.,0.,0.));
#369=DIRECTION('ref_axis',(0.,1.,0.));
#370=DIRECTION('center_axis',(-1.,0.,0.));
#371=DIRECTION('ref_axis',(0.,1.,0.));
#372=DIRECTION('',(-1.,0.,0.));
#373=DIRECTION('center_axis',(-1.,0.,0.));
#374=DIRECTION('ref_axis',(0.,1.,0.));
#375=DIRECTION('center_axis',(1.,0.,0.));
#376=DIRECTION('ref_axis',(0.,0.,-1.));
#377=DIRECTION('center_axis',(1.,0.,0.));
#378=DIRECTION('ref_axis',(0.,1.,0.));
#379=DIRECTION('center_axis',(-1.,0.,0.));
#380=DIRECTION('ref_axis',(0.,1.,0.));
#381=DIRECTION('',(-1.,0.,0.));
#382=DIRECTION('center_axis',(9.86609643940058E-17,-1.,0.));
#383=DIRECTION('ref_axis',(0.,0.,-1.));
#384=DIRECTION('center_axis',(9.86609643940058E-17,-1.,0.));
#385=DIRECTION('ref_axis',(1.,9.86609643940058E-17,0.));
#386=DIRECTION('center_axis',(9.86609643940058E-17,-1.,0.));
#387=DIRECTION('ref_axis',(1.,9.86609643940058E-17,0.));
#388=DIRECTION('center_axis',(-1.,-9.86609643940058E-17,-1.22464679914735E-16));
#389=DIRECTION('ref_axis',(-1.22464679914735E-16,0.,1.));
#390=DIRECTION('center_axis',(9.86609643940058E-17,-1.,0.));
#391=DIRECTION('ref_axis',(1.,9.86609643940058E-17,0.));
#392=DIRECTION('center_axis',(9.86609643940058E-17,-1.,0.));
#393=DIRECTION('ref_axis',(1.,1.69972071566089E-16,0.));
#394=DIRECTION('center_axis',(9.86609643940058E-17,-1.,0.));
#395=DIRECTION('ref_axis',(1.,9.86609643940058E-17,0.));
#396=DIRECTION('',(-9.86609643940058E-17,1.,0.));
#397=DIRECTION('',(-9.86609643940058E-17,1.,0.));
#398=DIRECTION('center_axis',(9.86609643940058E-17,-1.,0.));
#399=DIRECTION('ref_axis',(1.,9.86609643940058E-17,0.));
#400=DIRECTION('center_axis',(9.86609643940058E-17,-1.,0.));
#401=DIRECTION('ref_axis',(0.,0.,-1.));
#402=DIRECTION('center_axis',(-1.,-9.86609643940058E-17,-1.22464679914735E-16));
#403=DIRECTION('ref_axis',(-1.22464679914735E-16,0.,1.));
#404=DIRECTION('center_axis',(9.86609643940058E-17,-1.,0.));
#405=DIRECTION('ref_axis',(1.,9.86609643940058E-17,0.));
#406=DIRECTION('center_axis',(9.86609643940058E-17,-1.,0.));
#407=DIRECTION('ref_axis',(1.,9.86609643940058E-17,0.));
#408=DIRECTION('center_axis',(9.86609643940058E-17,-1.,0.));
#409=DIRECTION('ref_axis',(1.,1.69972071566089E-16,0.));
#410=DIRECTION('center_axis',(9.86609643940058E-17,-1.,0.));
#411=DIRECTION('ref_axis',(1.,9.86609643940058E-17,0.));
#412=DIRECTION('',(-9.86609643940058E-17,1.,0.));
#413=DIRECTION('center_axis',(9.86609643940058E-17,-1.,0.));
#414=DIRECTION('ref_axis',(1.,9.86609643940058E-17,0.));
#415=DIRECTION('center_axis',(9.86609643940058E-17,-1.,0.));
#416=DIRECTION('ref_axis',(0.,0.,-1.));
#417=DIRECTION('center_axis',(9.86609643940058E-17,-1.,0.));
#418=DIRECTION('ref_axis',(1.,9.86609643940058E-17,0.));
#419=DIRECTION('center_axis',(-1.,-9.86609643940058E-17,-1.22464679914735E-16));
#420=DIRECTION('ref_axis',(-1.22464679914735E-16,0.,1.));
#421=DIRECTION('center_axis',(9.86609643940058E-17,-1.,0.));
#422=DIRECTION('ref_axis',(0.,0.,-1.));
#423=DIRECTION('center_axis',(-1.,-9.86609643940058E-17,-1.22464679914735E-16));
#424=DIRECTION('ref_axis',(-1.22464679914735E-16,0.,1.));
#425=DIRECTION('center_axis',(9.86609643940058E-17,-1.,0.));
#426=DIRECTION('ref_axis',(1.,9.86609643940058E-17,0.));
#427=DIRECTION('center_axis',(9.86609643940058E-17,-1.,0.));
#428=DIRECTION('ref_axis',(0.,0.,-1.));
#429=DIRECTION('center_axis',(9.86609643940058E-17,-1.,0.));
#430=DIRECTION('ref_axis',(1.,9.86609643940058E-17,0.));
#431=DIRECTION('center_axis',(-1.,-9.86609643940058E-17,-1.22464679914735E-16));
#432=DIRECTION('ref_axis',(-1.22464679914735E-16,0.,1.));
#433=DIRECTION('center_axis',(9.86609643940058E-17,-1.,0.));
#434=DIRECTION('ref_axis',(0.,0.,-1.));
#435=DIRECTION('center_axis',(-9.86609643940058E-17,1.,0.));
#436=DIRECTION('ref_axis',(0.,0.,1.));
#437=DIRECTION('center_axis',(9.86609643940058E-17,-1.,0.));
#438=DIRECTION('ref_axis',(1.,9.86609643940058E-17,0.));
#439=DIRECTION('center_axis',(9.86609643940058E-17,-1.,0.));
#440=DIRECTION('ref_axis',(0.,0.,-1.));
#441=DIRECTION('center_axis',(9.86609643940058E-17,-1.,0.));
#442=DIRECTION('ref_axis',(1.,9.86609643940058E-17,0.));
#443=DIRECTION('center_axis',(-1.,-9.86609643940058E-17,-1.22464679914735E-16));
#444=DIRECTION('ref_axis',(-1.22464679914735E-16,0.,1.));
#445=DIRECTION('center_axis',(9.86609643940058E-17,-1.,0.));
#446=DIRECTION('ref_axis',(0.,0.,-1.));
#447=DIRECTION('center_axis',(-1.,-9.86609643940058E-17,-1.22464679914735E-16));
#448=DIRECTION('ref_axis',(-1.22464679914735E-16,0.,1.));
#449=CARTESIAN_POINT('',(0.,0.,0.));
#450=CARTESIAN_POINT('Origin',(4.61748308511743E-15,-46.801519866331,0.));
#451=CARTESIAN_POINT('',(-3.32349999999999,-47.8,-4.07011363696622E-16));
#452=CARTESIAN_POINT('Origin',(4.71599409803348E-15,-47.8,0.));
#453=CARTESIAN_POINT('',(4.51897207220139E-15,-45.8030397326619,0.));
#454=CARTESIAN_POINT('',(-1.66175,-46.801519866331,-2.03505681848311E-16));
#455=CARTESIAN_POINT('Origin',(5.81113080280694E-15,-58.9,0.));
#456=CARTESIAN_POINT('',(-3.32349999999999,-70.,-4.07011363696623E-16));
#457=CARTESIAN_POINT('Origin',(6.9062675075804E-15,-70.,0.));
#458=CARTESIAN_POINT('',(-3.32349999999999,-58.9,-4.07011363696623E-16));
#459=CARTESIAN_POINT('Origin',(-8.,-15.,2.22044604925031E-15));
#460=CARTESIAN_POINT('',(-8.,-18.5,1.84889274661175E-29));
#461=CARTESIAN_POINT('',(-8.,-11.5,2.22044604925031E-15));
#462=CARTESIAN_POINT('Ctrl Pts',(-7.99999999999999,-18.5,2.91433543964104E-15));
#463=CARTESIAN_POINT('Ctrl Pts',(-7.99999999999999,-18.5,-0.445779616839272));
#464=CARTESIAN_POINT('Ctrl Pts',(-7.95921864991192,-18.4096911881943,-0.917315434168486));
#465=CARTESIAN_POINT('Ctrl Pts',(-7.81211498767115,-18.0505692328692,-1.77805750701061));
#466=CARTESIAN_POINT('Ctrl Pts',(-7.70749664121924,-17.7820646680527,-2.16768280025311));
#467=CARTESIAN_POINT('Ctrl Pts',(-7.50747756772585,-17.1672221864927,-2.78252528181316));
#468=CARTESIAN_POINT('Ctrl Pts',(-7.39809357095282,-16.7777649418295,-3.0506842447805));
#469=CARTESIAN_POINT('Ctrl Pts',(-7.23971859211658,-15.9177025354839,-3.40953673276842));
#470=CARTESIAN_POINT('Ctrl Pts',(-7.19374728496908,-15.4464480357377,-3.5));
#471=CARTESIAN_POINT('Ctrl Pts',(-7.19374728496908,-14.5535519642623,-3.5));
#472=CARTESIAN_POINT('Ctrl Pts',(-7.23971859211658,-14.0822974645162,-3.40953673276842));
#473=CARTESIAN_POINT('Ctrl Pts',(-7.39809357095282,-13.2222350581705,-3.0506842447805));
#474=CARTESIAN_POINT('Ctrl Pts',(-7.50747756772585,-12.8327778135073,-2.78252528181315));
#475=CARTESIAN_POINT('Ctrl Pts',(-7.70749664121924,-12.2179353319473,-2.16768280025311));
#476=CARTESIAN_POINT('Ctrl Pts',(-7.81211498767115,-11.9494307671308,-1.77805750701061));
#477=CARTESIAN_POINT('Ctrl Pts',(-7.95921864991192,-11.5903088118057,-0.917315434168487));
#478=CARTESIAN_POINT('Ctrl Pts',(-8.,-11.5,-0.445779616839272));
#479=CARTESIAN_POINT('Ctrl Pts',(-8.,-11.5,1.52655665885959E-15));
#480=CARTESIAN_POINT('',(-5.,-18.5,1.79181966954874E-15));
#481=CARTESIAN_POINT('',(-8.,-18.5,1.79181966954874E-15));
#482=CARTESIAN_POINT('Origin',(-5.,-15.,2.22044604925031E-15));
#483=CARTESIAN_POINT('Ctrl Pts',(-8.,-11.5,1.52655665885959E-15));
#484=CARTESIAN_POINT('Ctrl Pts',(-8.,-11.5,0.445779616839277));
#485=CARTESIAN_POINT('Ctrl Pts',(-7.95921864991192,-11.5903088118057,0.917315434168492));
#486=CARTESIAN_POINT('Ctrl Pts',(-7.81211498767115,-11.9494307671308,1.77805750701061));
#487=CARTESIAN_POINT('Ctrl Pts',(-7.70749664121924,-12.2179353319473,2.16768280025311));
#488=CARTESIAN_POINT('Ctrl Pts',(-7.50747756772585,-12.8327778135073,2.78252528181316));
#489=CARTESIAN_POINT('Ctrl Pts',(-7.39809357095282,-13.2222350581705,3.0506842447805));
#490=CARTESIAN_POINT('Ctrl Pts',(-7.23971859211657,-14.0822974645162,3.40953673276842));
#491=CARTESIAN_POINT('Ctrl Pts',(-7.19374728496907,-14.5535519642623,3.5));
#492=CARTESIAN_POINT('Ctrl Pts',(-7.19374728496907,-15.,3.5));
#493=CARTESIAN_POINT('Ctrl Pts',(-7.19374728496907,-15.4464480357377,3.5));
#494=CARTESIAN_POINT('Ctrl Pts',(-7.23971859211657,-15.9177025354839,3.40953673276842));
#495=CARTESIAN_POINT('Ctrl Pts',(-7.39809357095282,-16.7777649418295,3.0506842447805));
#496=CARTESIAN_POINT('Ctrl Pts',(-7.50747756772585,-17.1672221864927,2.78252528181316));
#497=CARTESIAN_POINT('Ctrl Pts',(-7.70749664121924,-17.7820646680527,2.16768280025311));
#498=CARTESIAN_POINT('Ctrl Pts',(-7.81211498767115,-18.0505692328692,1.77805750701061));
#499=CARTESIAN_POINT('Ctrl Pts',(-7.95921864991192,-18.4096911881943,0.917315434168491));
#500=CARTESIAN_POINT('Ctrl Pts',(-7.99999999999999,-18.5,0.445779616839278));
#501=CARTESIAN_POINT('Ctrl Pts',(-7.99999999999999,-18.5,2.4980018054066E-15));
#502=CARTESIAN_POINT('Origin',(-5.,-15.,2.22044604925031E-15));
#503=CARTESIAN_POINT('',(-5.,-17.5,2.52660774903715E-15));
#504=CARTESIAN_POINT('Origin',(-5.,-15.,2.22044604925031E-15));
#505=CARTESIAN_POINT('Origin',(8.,-15.,0.));
#506=CARTESIAN_POINT('',(8.,-18.5,0.));
#507=CARTESIAN_POINT('',(8.,-11.5,0.));
#508=CARTESIAN_POINT('Ctrl Pts',(8.,-18.5,-2.77555756156289E-16));
#509=CARTESIAN_POINT('Ctrl Pts',(8.,-18.5,0.445779616839274));
#510=CARTESIAN_POINT('Ctrl Pts',(7.95921864991192,-18.4096911881943,0.917315434168489));
#511=CARTESIAN_POINT('Ctrl Pts',(7.81211498767115,-18.0505692328692,1.77805750701061));
#512=CARTESIAN_POINT('Ctrl Pts',(7.70749664121924,-17.7820646680527,2.16768280025311));
#513=CARTESIAN_POINT('Ctrl Pts',(7.50747756772585,-17.1672221864927,2.78252528181316));
#514=CARTESIAN_POINT('Ctrl Pts',(7.39809357095282,-16.7777649418295,3.0506842447805));
#515=CARTESIAN_POINT('Ctrl Pts',(7.23971859211658,-15.9177025354839,3.40953673276842));
#516=CARTESIAN_POINT('Ctrl Pts',(7.19374728496908,-15.4464480357377,3.5));
#517=CARTESIAN_POINT('Ctrl Pts',(7.19374728496908,-14.5535519642623,3.5));
#518=CARTESIAN_POINT('Ctrl Pts',(7.23971859211658,-14.0822974645161,3.40953673276842));
#519=CARTESIAN_POINT('Ctrl Pts',(7.39809357095282,-13.2222350581705,3.0506842447805));
#520=CARTESIAN_POINT('Ctrl Pts',(7.50747756772585,-12.8327778135073,2.78252528181316));
#521=CARTESIAN_POINT('Ctrl Pts',(7.70749664121925,-12.2179353319473,2.16768280025311));
#522=CARTESIAN_POINT('Ctrl Pts',(7.81211498767115,-11.9494307671308,1.77805750701061));
#523=CARTESIAN_POINT('Ctrl Pts',(7.95921864991192,-11.5903088118057,0.917315434168489));
#524=CARTESIAN_POINT('Ctrl Pts',(8.,-11.5,0.445779616839275));
#525=CARTESIAN_POINT('Ctrl Pts',(8.,-11.5,6.93889390390723E-16));
#526=CARTESIAN_POINT('',(5.,-18.5,4.28626379701574E-16));
#527=CARTESIAN_POINT('',(8.,-18.5,4.28626379701574E-16));
#528=CARTESIAN_POINT('Origin',(5.,-15.,0.));
#529=CARTESIAN_POINT('Ctrl Pts',(8.,-11.5,5.55111512312578E-16));
#530=CARTESIAN_POINT('Ctrl Pts',(8.,-11.5,-0.445779616839275));
#531=CARTESIAN_POINT('Ctrl Pts',(7.95921864991192,-11.5903088118057,-0.91731543416849));
#532=CARTESIAN_POINT('Ctrl Pts',(7.81211498767115,-11.9494307671308,-1.77805750701061));
#533=CARTESIAN_POINT('Ctrl Pts',(7.70749664121924,-12.2179353319473,-2.16768280025311));
#534=CARTESIAN_POINT('Ctrl Pts',(7.50747756772585,-12.8327778135073,-2.78252528181316));
#535=CARTESIAN_POINT('Ctrl Pts',(7.39809357095282,-13.2222350581705,-3.0506842447805));
#536=CARTESIAN_POINT('Ctrl Pts',(7.23971859211658,-14.0822974645161,-3.40953673276842));
#537=CARTESIAN_POINT('Ctrl Pts',(7.19374728496908,-14.5535519642623,-3.5));
#538=CARTESIAN_POINT('Ctrl Pts',(7.19374728496908,-15.,-3.5));
#539=CARTESIAN_POINT('Ctrl Pts',(7.19374728496908,-15.4464480357377,-3.5));
#540=CARTESIAN_POINT('Ctrl Pts',(7.23971859211658,-15.9177025354839,-3.40953673276842));
#541=CARTESIAN_POINT('Ctrl Pts',(7.39809357095282,-16.7777649418295,-3.0506842447805));
#542=CARTESIAN_POINT('Ctrl Pts',(7.50747756772585,-17.1672221864927,-2.78252528181316));
#543=CARTESIAN_POINT('Ctrl Pts',(7.70749664121924,-17.7820646680527,-2.16768280025311));
#544=CARTESIAN_POINT('Ctrl Pts',(7.81211498767115,-18.0505692328692,-1.77805750701061));
#545=CARTESIAN_POINT('Ctrl Pts',(7.95921864991192,-18.4096911881943,-0.917315434168489));
#546=CARTESIAN_POINT('Ctrl Pts',(8.,-18.5,-0.445779616839276));
#547=CARTESIAN_POINT('Ctrl Pts',(8.,-18.5,-4.16333634234434E-16));
#548=CARTESIAN_POINT('Origin',(5.,-15.,0.));
#549=CARTESIAN_POINT('',(5.,-17.5,2.52660774903715E-15));
#550=CARTESIAN_POINT('Origin',(5.,-15.,2.22044604925031E-15));
#551=CARTESIAN_POINT('Origin',(0.,-15.,2.22044604925031E-15));
#552=CARTESIAN_POINT('',(0.,-17.5,2.52660774903715E-15));
#553=CARTESIAN_POINT('Origin',(8.38618197349049E-16,-8.5,0.));
#554=CARTESIAN_POINT('',(-8.,-10.,-9.79717439317882E-16));
#555=CARTESIAN_POINT('',(6.89220462217551E-18,-10.,8.));
#556=CARTESIAN_POINT('Origin',(9.86609643940058E-16,-10.,0.));
#557=CARTESIAN_POINT('Origin',(9.86609643940058E-16,-10.,0.));
#558=CARTESIAN_POINT('',(-2.89090688559842E-16,-7.,8.));
#559=CARTESIAN_POINT('Origin',(-1.41099241968833E-16,-8.5,8.));
#560=CARTESIAN_POINT('Origin',(6.90626750758041E-16,-7.,0.));
#561=CARTESIAN_POINT('Origin',(1.47991446591009E-15,-15.,0.));
#562=CARTESIAN_POINT('',(-8.,-20.,-9.79717439317882E-16));
#563=CARTESIAN_POINT('',(9.93501848562234E-16,-20.,8.));
#564=CARTESIAN_POINT('Origin',(1.97321928788012E-15,-20.,0.));
#565=CARTESIAN_POINT('',(-8.,-15.,-9.79717439317882E-16));
#566=CARTESIAN_POINT('',(-8.,-15.,-9.79717439317882E-16));
#567=CARTESIAN_POINT('Origin',(1.97321928788012E-15,-20.,0.));
#568=CARTESIAN_POINT('Origin',(3.4531337537902E-15,-35.,0.));
#569=CARTESIAN_POINT('',(3.95333078038241E-15,-50.,7.99999999999999));
#570=CARTESIAN_POINT('Origin',(-2.06769555505925E-15,-35.,45.0809924354783));
#571=CARTESIAN_POINT('',(-7.99999999999998,-50.,-9.79717439317881E-16));
#572=CARTESIAN_POINT('Origin',(4.93304821970029E-15,-50.,0.));
#573=CARTESIAN_POINT('Origin',(4.93304821970029E-15,-50.,0.));
#574=CARTESIAN_POINT('Origin',(5.42635304167032E-15,-55.,0.));
#575=CARTESIAN_POINT('',(-7.99999999999998,-60.,-9.79717439317881E-16));
#576=CARTESIAN_POINT('',(4.93994042432247E-15,-60.,7.99999999999999));
#577=CARTESIAN_POINT('Origin',(5.91965786364035E-15,-60.,0.));
#578=CARTESIAN_POINT('',(-7.99999999999998,-55.,-9.79717439317881E-16));
#579=CARTESIAN_POINT('Origin',(5.91965786364035E-15,-60.,0.));
#580=CARTESIAN_POINT('Origin',(6.06764931023136E-15,-61.5,0.));
#581=CARTESIAN_POINT('',(5.23592331750448E-15,-63.,7.99999999999999));
#582=CARTESIAN_POINT('Origin',(6.21564075682236E-15,-63.,0.));
#583=CARTESIAN_POINT('Origin',(5.08793187091348E-15,-61.5,7.99999999999999));
#584=CARTESIAN_POINT('Origin',(6.36363220341337E-15,-64.5,0.));
#585=CARTESIAN_POINT('',(5.5319062106865E-15,-66.,7.99999999999998));
#586=CARTESIAN_POINT('Origin',(5.38391476409549E-15,-64.5,7.99999999999998));
#587=CARTESIAN_POINT('Origin',(6.51162365000438E-15,-66.,0.));
#588=CARTESIAN_POINT('Origin',(6.70894557879239E-15,-68.,0.));
#589=CARTESIAN_POINT('',(5.92655006826252E-15,-70.,7.99999999999998));
#590=CARTESIAN_POINT('Origin',(6.9062675075804E-15,-70.,0.));
#591=CARTESIAN_POINT('Origin',(5.72922813947451E-15,-68.,7.99999999999998));
#592=CARTESIAN_POINT('Origin',(6.9062675075804E-15,-70.,0.));
#593=CARTESIAN_POINT('Origin',(8.,-1.66533453693773E-15,0.));
#594=CARTESIAN_POINT('',(-9.79717439317882E-16,-2.22044604925031E-15,8.));
#595=CARTESIAN_POINT('Origin',(2.46519032881566E-31,-2.22044604925031E-15,
0.));
#596=CARTESIAN_POINT('Origin',(1.97321928788012E-16,-2.,0.));
#597=CARTESIAN_POINT('',(-5.85073581741859E-16,-4.,8.));
#598=CARTESIAN_POINT('Origin',(3.94643857576023E-16,-4.,0.));
#599=CARTESIAN_POINT('Origin',(-7.82395510529871E-16,-2.,8.));
#600=CARTESIAN_POINT('Origin',(5.42635304167032E-16,-5.5,0.));
#601=CARTESIAN_POINT('Origin',(-4.3708213515085E-16,-5.5,8.));
#602=UNCERTAINTY_MEASURE_WITH_UNIT(LENGTH_MEASURE(0.01),#606,
'DISTANCE_ACCURACY_VALUE',
'Maximum model space distance between geometric entities at asserted c
onnectivities');
#603=UNCERTAINTY_MEASURE_WITH_UNIT(LENGTH_MEASURE(0.01),#606,
'DISTANCE_ACCURACY_VALUE',
'Maximum model space distance between geometric entities at asserted c
onnectivities');
#604=(
GEOMETRIC_REPRESENTATION_CONTEXT(3)
GLOBAL_UNCERTAINTY_ASSIGNED_CONTEXT((#602))
GLOBAL_UNIT_ASSIGNED_CONTEXT((#606,#608,#609))
REPRESENTATION_CONTEXT('','3D')
);
#605=(
GEOMETRIC_REPRESENTATION_CONTEXT(3)
GLOBAL_UNCERTAINTY_ASSIGNED_CONTEXT((#603))
GLOBAL_UNIT_ASSIGNED_CONTEXT((#606,#608,#609))
REPRESENTATION_CONTEXT('','3D')
);
#606=(
LENGTH_UNIT()
NAMED_UNIT(*)
SI_UNIT(.MILLI.,.METRE.)
);
#607=(
LENGTH_UNIT()
NAMED_UNIT(*)
SI_UNIT(.CENTI.,.METRE.)
);
#608=(
NAMED_UNIT(*)
PLANE_ANGLE_UNIT()
SI_UNIT($,.RADIAN.)
);
#609=(
NAMED_UNIT(*)
SI_UNIT($,.STERADIAN.)
SOLID_ANGLE_UNIT()
);
#610=SHAPE_DEFINITION_REPRESENTATION(#611,#612);
#611=PRODUCT_DEFINITION_SHAPE('',$,#614);
#612=SHAPE_REPRESENTATION('',(#303),#604);
#613=PRODUCT_DEFINITION_CONTEXT('part definition',#618,'design');
#614=PRODUCT_DEFINITION('Wheel Shaft Pillar','Wheel Shaft Pillar',#615,
#613);
#615=PRODUCT_DEFINITION_FORMATION('',$,#620);
#616=PRODUCT_RELATED_PRODUCT_CATEGORY('Wheel Shaft Pillar',
'Wheel Shaft Pillar',(#620));
#617=APPLICATION_PROTOCOL_DEFINITION('international standard',
'automotive_design',2009,#618);
#618=APPLICATION_CONTEXT(
'Core Data for Automotive Mechanical Design Process');
#619=PRODUCT_CONTEXT('part definition',#618,'mechanical');
#620=PRODUCT('Wheel Shaft Pillar','Wheel Shaft Pillar',$,(#619));
#621=PRESENTATION_STYLE_ASSIGNMENT((#622));
#622=SURFACE_STYLE_USAGE(.BOTH.,#625);
#623=SURFACE_STYLE_RENDERING_WITH_PROPERTIES($,#629,(#624));
#624=SURFACE_STYLE_TRANSPARENT(0.);
#625=SURFACE_SIDE_STYLE('',(#626,#623));
#626=SURFACE_STYLE_FILL_AREA(#627);
#627=FILL_AREA_STYLE('',(#628));
#628=FILL_AREA_STYLE_COLOUR('',#629);
#629=COLOUR_RGB('',0.745098039215686,0.737254901960784,0.729411764705882);
ENDSEC;
END-ISO-10303-21;
