ISO-10303-21;
HEADER;
/* Generated by software containing ST-Developer
 * from STEP Tools, Inc. (www.steptools.com) 
 */

FILE_DESCRIPTION(
/* description */ (''),
/* implementation_level */ '2;1');

FILE_NAME(
/* name */ 
'S:\\Future Scope 1\\WIP\\Client Category\\Tom\\02 Progressive Work\\W
heel Shaft 125mm.stp',
/* time_stamp */ '2025-11-05T12:14:35+06:00',
/* author */ ('SD'),
/* organization */ (''),
/* preprocessor_version */ 'ST-DEVELOPER v18.1',
/* originating_system */ 'Autodesk Inventor 2021',
/* authorisation */ '');

FILE_SCHEMA (('AUTOMOTIVE_DESIGN { 1 0 10303 214 3 1 1 }'));
ENDSEC;

DATA;
#10=MECHANICAL_DESIGN_GEOMETRIC_PRESENTATION_REPRESENTATION('',(#13),#238);
#11=SHAPE_REPRESENTATION_RELATIONSHIP('SRR','None',#245,#12);
#12=ADVANCED_BREP_SHAPE_REPRESENTATION('',(#14),#237);
#13=STYLED_ITEM('',(#254),#14);
#14=MANIFOLD_SOLID_BREP('Solid2',#128);
#15=FACE_BOUND('',#38,.T.);
#16=CYLINDRICAL_SURFACE('',#159,1.5);
#17=CIRCLE('',#150,1.5);
#18=CIRCLE('',#152,1.5);
#19=CIRCLE('',#154,1.5);
#20=CIRCLE('',#157,1.5);
#21=CIRCLE('',#158,1.5);
#22=CIRCLE('',#160,1.5);
#23=FACE_OUTER_BOUND('',#31,.T.);
#24=FACE_OUTER_BOUND('',#32,.T.);
#25=FACE_OUTER_BOUND('',#33,.T.);
#26=FACE_OUTER_BOUND('',#34,.T.);
#27=FACE_OUTER_BOUND('',#35,.T.);
#28=FACE_OUTER_BOUND('',#36,.T.);
#29=FACE_OUTER_BOUND('',#37,.T.);
#30=FACE_OUTER_BOUND('',#39,.T.);
#31=EDGE_LOOP('',(#83,#84,#85,#86));
#32=EDGE_LOOP('',(#87,#88));
#33=EDGE_LOOP('',(#89,#90));
#34=EDGE_LOOP('',(#91,#92));
#35=EDGE_LOOP('',(#93,#94,#95,#96));
#36=EDGE_LOOP('',(#97,#98,#99));
#37=EDGE_LOOP('',(#100,#101,#102,#103,#104,#105,#106,#107));
#38=EDGE_LOOP('',(#108,#109,#110,#111));
#39=EDGE_LOOP('',(#112));
#40=LINE('',#205,#49);
#41=LINE('',#207,#50);
#42=LINE('',#209,#51);
#43=LINE('',#210,#52);
#44=LINE('',#219,#53);
#45=LINE('',#222,#54);
#46=LINE('',#224,#55);
#47=LINE('',#225,#56);
#48=LINE('',#232,#57);
#49=VECTOR('',#166,10.);
#50=VECTOR('',#167,10.);
#51=VECTOR('',#168,10.);
#52=VECTOR('',#169,10.);
#53=VECTOR('',#182,10.);
#54=VECTOR('',#185,10.);
#55=VECTOR('',#186,10.);
#56=VECTOR('',#187,10.);
#57=VECTOR('',#196,1.5);
#58=VERTEX_POINT('',#203);
#59=VERTEX_POINT('',#204);
#60=VERTEX_POINT('',#206);
#61=VERTEX_POINT('',#208);
#62=VERTEX_POINT('',#216);
#63=VERTEX_POINT('',#217);
#64=VERTEX_POINT('',#221);
#65=VERTEX_POINT('',#223);
#66=VERTEX_POINT('',#227);
#67=VERTEX_POINT('',#231);
#68=EDGE_CURVE('',#58,#59,#40,.T.);
#69=EDGE_CURVE('',#58,#60,#41,.T.);
#70=EDGE_CURVE('',#61,#60,#42,.T.);
#71=EDGE_CURVE('',#61,#59,#43,.T.);
#72=EDGE_CURVE('',#59,#61,#17,.T.);
#73=EDGE_CURVE('',#60,#58,#18,.T.);
#74=EDGE_CURVE('',#62,#63,#19,.T.);
#75=EDGE_CURVE('',#62,#63,#44,.T.);
#76=EDGE_CURVE('',#63,#64,#45,.T.);
#77=EDGE_CURVE('',#65,#62,#46,.T.);
#78=EDGE_CURVE('',#64,#65,#47,.T.);
#79=EDGE_CURVE('',#65,#66,#20,.T.);
#80=EDGE_CURVE('',#66,#64,#21,.T.);
#81=EDGE_CURVE('',#66,#67,#48,.T.);
#82=EDGE_CURVE('',#67,#67,#22,.T.);
#83=ORIENTED_EDGE('',*,*,#68,.F.);
#84=ORIENTED_EDGE('',*,*,#69,.T.);
#85=ORIENTED_EDGE('',*,*,#70,.F.);
#86=ORIENTED_EDGE('',*,*,#71,.T.);
#87=ORIENTED_EDGE('',*,*,#72,.F.);
#88=ORIENTED_EDGE('',*,*,#71,.F.);
#89=ORIENTED_EDGE('',*,*,#73,.F.);
#90=ORIENTED_EDGE('',*,*,#69,.F.);
#91=ORIENTED_EDGE('',*,*,#74,.F.);
#92=ORIENTED_EDGE('',*,*,#75,.T.);
#93=ORIENTED_EDGE('',*,*,#76,.F.);
#94=ORIENTED_EDGE('',*,*,#75,.F.);
#95=ORIENTED_EDGE('',*,*,#77,.F.);
#96=ORIENTED_EDGE('',*,*,#78,.F.);
#97=ORIENTED_EDGE('',*,*,#78,.T.);
#98=ORIENTED_EDGE('',*,*,#79,.T.);
#99=ORIENTED_EDGE('',*,*,#80,.T.);
#100=ORIENTED_EDGE('',*,*,#76,.T.);
#101=ORIENTED_EDGE('',*,*,#80,.F.);
#102=ORIENTED_EDGE('',*,*,#81,.T.);
#103=ORIENTED_EDGE('',*,*,#82,.F.);
#104=ORIENTED_EDGE('',*,*,#81,.F.);
#105=ORIENTED_EDGE('',*,*,#79,.F.);
#106=ORIENTED_EDGE('',*,*,#77,.T.);
#107=ORIENTED_EDGE('',*,*,#74,.T.);
#108=ORIENTED_EDGE('',*,*,#72,.T.);
#109=ORIENTED_EDGE('',*,*,#70,.T.);
#110=ORIENTED_EDGE('',*,*,#73,.T.);
#111=ORIENTED_EDGE('',*,*,#68,.T.);
#112=ORIENTED_EDGE('',*,*,#82,.T.);
#113=PLANE('',#148);
#114=PLANE('',#149);
#115=PLANE('',#151);
#116=PLANE('',#153);
#117=PLANE('',#155);
#118=PLANE('',#156);
#119=PLANE('',#161);
#120=ADVANCED_FACE('',(#23),#113,.F.);
#121=ADVANCED_FACE('',(#24),#114,.F.);
#122=ADVANCED_FACE('',(#25),#115,.F.);
#123=ADVANCED_FACE('',(#26),#116,.F.);
#124=ADVANCED_FACE('',(#27),#117,.F.);
#125=ADVANCED_FACE('',(#28),#118,.T.);
#126=ADVANCED_FACE('',(#29,#15),#16,.T.);
#127=ADVANCED_FACE('',(#30),#119,.F.);
#128=CLOSED_SHELL('',(#120,#121,#122,#123,#124,#125,#126,#127));
#129=DERIVED_UNIT_ELEMENT(#131,1.);
#130=DERIVED_UNIT_ELEMENT(#240,3.);
#131=(
MASS_UNIT()
NAMED_UNIT(*)
SI_UNIT($,.GRAM.)
);
#132=DERIVED_UNIT((#129,#130));
#133=MEASURE_REPRESENTATION_ITEM('density measure',
POSITIVE_RATIO_MEASURE(8.874),#132);
#134=PROPERTY_DEFINITION_REPRESENTATION(#139,#136);
#135=PROPERTY_DEFINITION_REPRESENTATION(#140,#137);
#136=REPRESENTATION('material name',(#138),#237);
#137=REPRESENTATION('density',(#133),#237);
#138=DESCRIPTIVE_REPRESENTATION_ITEM('Bronze, Soft Tin',
'Bronze, Soft Tin');
#139=PROPERTY_DEFINITION('material property','material name',#247);
#140=PROPERTY_DEFINITION('material property','density of part',#247);
#141=DATE_TIME_ROLE('creation_date');
#142=APPLIED_DATE_AND_TIME_ASSIGNMENT(#143,#141,(#247));
#143=DATE_AND_TIME(#144,#145);
#144=CALENDAR_DATE(2025,16,9);
#145=LOCAL_TIME(0,0,0.,#146);
#146=COORDINATED_UNIVERSAL_TIME_OFFSET(0,0,.BEHIND.);
#147=AXIS2_PLACEMENT_3D('placement',#201,#162,#163);
#148=AXIS2_PLACEMENT_3D('',#202,#164,#165);
#149=AXIS2_PLACEMENT_3D('',#211,#170,#171);
#150=AXIS2_PLACEMENT_3D('',#212,#172,#173);
#151=AXIS2_PLACEMENT_3D('',#213,#174,#175);
#152=AXIS2_PLACEMENT_3D('',#214,#176,#177);
#153=AXIS2_PLACEMENT_3D('',#215,#178,#179);
#154=AXIS2_PLACEMENT_3D('',#218,#180,#181);
#155=AXIS2_PLACEMENT_3D('',#220,#183,#184);
#156=AXIS2_PLACEMENT_3D('',#226,#188,#189);
#157=AXIS2_PLACEMENT_3D('',#228,#190,#191);
#158=AXIS2_PLACEMENT_3D('',#229,#192,#193);
#159=AXIS2_PLACEMENT_3D('',#230,#194,#195);
#160=AXIS2_PLACEMENT_3D('',#233,#197,#198);
#161=AXIS2_PLACEMENT_3D('',#234,#199,#200);
#162=DIRECTION('axis',(0.,0.,1.));
#163=DIRECTION('refdir',(1.,0.,0.));
#164=DIRECTION('center_axis',(0.,2.31296463463574E-16,-1.));
#165=DIRECTION('ref_axis',(0.,-1.,-2.31296463463574E-16));
#166=DIRECTION('',(0.,1.,0.));
#167=DIRECTION('',(1.,0.,0.));
#168=DIRECTION('',(0.,-1.,0.));
#169=DIRECTION('',(-1.,0.,0.));
#170=DIRECTION('center_axis',(0.,1.,-1.10879360820379E-15));
#171=DIRECTION('ref_axis',(0.,-1.10879360820379E-15,-1.));
#172=DIRECTION('center_axis',(0.,1.,-1.10879360820379E-15));
#173=DIRECTION('ref_axis',(-1.,0.,0.));
#174=DIRECTION('center_axis',(0.,-1.,0.));
#175=DIRECTION('ref_axis',(0.,0.,1.));
#176=DIRECTION('center_axis',(0.,-1.,0.));
#177=DIRECTION('ref_axis',(-1.,0.,0.));
#178=DIRECTION('center_axis',(0.,-1.,0.));
#179=DIRECTION('ref_axis',(0.,0.,1.));
#180=DIRECTION('center_axis',(0.,-1.,0.));
#181=DIRECTION('ref_axis',(-1.,0.,0.));
#182=DIRECTION('',(1.,0.,0.));
#183=DIRECTION('center_axis',(0.,-8.37850993729894E-17,1.));
#184=DIRECTION('ref_axis',(0.,1.,8.37850993729894E-17));
#185=DIRECTION('',(0.,1.,0.));
#186=DIRECTION('',(0.,-1.,0.));
#187=DIRECTION('',(-1.,0.,0.));
#188=DIRECTION('center_axis',(0.,1.,0.));
#189=DIRECTION('ref_axis',(0.,0.,1.));
#190=DIRECTION('center_axis',(0.,1.,0.));
#191=DIRECTION('ref_axis',(-1.,0.,0.));
#192=DIRECTION('center_axis',(0.,1.,0.));
#193=DIRECTION('ref_axis',(-1.,0.,0.));
#194=DIRECTION('center_axis',(0.,1.,0.));
#195=DIRECTION('ref_axis',(-1.,0.,0.));
#196=DIRECTION('',(0.,-1.,0.));
#197=DIRECTION('center_axis',(0.,-1.,0.));
#198=DIRECTION('ref_axis',(-1.,0.,0.));
#199=DIRECTION('center_axis',(0.,1.,0.));
#200=DIRECTION('ref_axis',(0.,0.,1.));
#201=CARTESIAN_POINT('',(0.,0.,0.));
#202=CARTESIAN_POINT('Origin',(0.,-0.350000000000001,0.500000000000001));
#203=CARTESIAN_POINT('',(-1.4142135623731,-30.35,0.499999999999994));
#204=CARTESIAN_POINT('',(-1.41421356237309,-0.350000000000004,0.500000000000001));
#205=CARTESIAN_POINT('',(-1.41421356237309,0.,0.500000000000001));
#206=CARTESIAN_POINT('',(1.4142135623731,-30.35,0.499999999999994));
#207=CARTESIAN_POINT('',(0.,-30.35,0.499999999999994));
#208=CARTESIAN_POINT('',(1.41421356237309,-0.350000000000004,0.500000000000001));
#209=CARTESIAN_POINT('',(1.41421356237309,0.,0.500000000000001));
#210=CARTESIAN_POINT('',(0.,-0.350000000000004,0.500000000000001));
#211=CARTESIAN_POINT('Origin',(0.,-0.350000000000003,1.5));
#212=CARTESIAN_POINT('Origin',(0.,-0.350000000000003,0.));
#213=CARTESIAN_POINT('Origin',(0.,-30.35,0.499999999999994));
#214=CARTESIAN_POINT('Origin',(0.,-30.35,0.));
#215=CARTESIAN_POINT('Origin',(0.,63.75,-1.5));
#216=CARTESIAN_POINT('',(-1.41421356237309,63.75,-0.5));
#217=CARTESIAN_POINT('',(1.41421356237309,63.75,-0.5));
#218=CARTESIAN_POINT('Origin',(0.,63.75,0.));
#219=CARTESIAN_POINT('',(0.,63.75,-0.5));
#220=CARTESIAN_POINT('Origin',(0.,63.75,-0.5));
#221=CARTESIAN_POINT('',(1.4142135623731,69.75,-0.5));
#222=CARTESIAN_POINT('',(1.41421356237309,0.,-0.500000000000006));
#223=CARTESIAN_POINT('',(-1.4142135623731,69.75,-0.5));
#224=CARTESIAN_POINT('',(-1.41421356237309,0.,-0.500000000000006));
#225=CARTESIAN_POINT('',(0.,69.75,-0.5));
#226=CARTESIAN_POINT('Origin',(0.,69.75,0.));
#227=CARTESIAN_POINT('',(1.5,69.75,-1.83697019872103E-16));
#228=CARTESIAN_POINT('Origin',(0.,69.75,0.));
#229=CARTESIAN_POINT('Origin',(0.,69.75,0.));
#230=CARTESIAN_POINT('Origin',(0.,0.,0.));
#231=CARTESIAN_POINT('',(1.5,-69.75,-1.83697019872103E-16));
#232=CARTESIAN_POINT('',(1.5,0.,-1.83697019872103E-16));
#233=CARTESIAN_POINT('Origin',(0.,-69.75,0.));
#234=CARTESIAN_POINT('Origin',(0.,-69.75,0.));
#235=UNCERTAINTY_MEASURE_WITH_UNIT(LENGTH_MEASURE(0.01),#239,
'DISTANCE_ACCURACY_VALUE',
'Maximum model space distance between geometric entities at asserted c
onnectivities');
#236=UNCERTAINTY_MEASURE_WITH_UNIT(LENGTH_MEASURE(0.01),#239,
'DISTANCE_ACCURACY_VALUE',
'Maximum model space distance between geometric entities at asserted c
onnectivities');
#237=(
GEOMETRIC_REPRESENTATION_CONTEXT(3)
GLOBAL_UNCERTAINTY_ASSIGNED_CONTEXT((#235))
GLOBAL_UNIT_ASSIGNED_CONTEXT((#239,#241,#242))
REPRESENTATION_CONTEXT('','3D')
);
#238=(
GEOMETRIC_REPRESENTATION_CONTEXT(3)
GLOBAL_UNCERTAINTY_ASSIGNED_CONTEXT((#236))
GLOBAL_UNIT_ASSIGNED_CONTEXT((#239,#241,#242))
REPRESENTATION_CONTEXT('','3D')
);
#239=(
LENGTH_UNIT()
NAMED_UNIT(*)
SI_UNIT(.MILLI.,.METRE.)
);
#240=(
LENGTH_UNIT()
NAMED_UNIT(*)
SI_UNIT(.CENTI.,.METRE.)
);
#241=(
NAMED_UNIT(*)
PLANE_ANGLE_UNIT()
SI_UNIT($,.RADIAN.)
);
#242=(
NAMED_UNIT(*)
SI_UNIT($,.STERADIAN.)
SOLID_ANGLE_UNIT()
);
#243=SHAPE_DEFINITION_REPRESENTATION(#244,#245);
#244=PRODUCT_DEFINITION_SHAPE('',$,#247);
#245=SHAPE_REPRESENTATION('',(#147),#237);
#246=PRODUCT_DEFINITION_CONTEXT('part definition',#251,'design');
#247=PRODUCT_DEFINITION('Wheel Shaft 125mm','Wheel Shaft 125mm',#248,#246);
#248=PRODUCT_DEFINITION_FORMATION('',$,#253);
#249=PRODUCT_RELATED_PRODUCT_CATEGORY('Wheel Shaft 125mm',
'Wheel Shaft 125mm',(#253));
#250=APPLICATION_PROTOCOL_DEFINITION('international standard',
'automotive_design',2009,#251);
#251=APPLICATION_CONTEXT(
'Core Data for Automotive Mechanical Design Process');
#252=PRODUCT_CONTEXT('part definition',#251,'mechanical');
#253=PRODUCT('Wheel Shaft 125mm','Wheel Shaft 125mm',$,(#252));
#254=PRESENTATION_STYLE_ASSIGNMENT((#255));
#255=SURFACE_STYLE_USAGE(.BOTH.,#258);
#256=SURFACE_STYLE_RENDERING_WITH_PROPERTIES($,#262,(#257));
#257=SURFACE_STYLE_TRANSPARENT(0.);
#258=SURFACE_SIDE_STYLE('',(#259,#256));
#259=SURFACE_STYLE_FILL_AREA(#260);
#260=FILL_AREA_STYLE('',(#261));
#261=FILL_AREA_STYLE_COLOUR('',#262);
#262=COLOUR_RGB('',0.643137254901961,0.52156862745098,0.384313725490196);
ENDSEC;
END-ISO-10303-21;
