ISO-10303-21;
HEADER;
/* Generated by software containing ST-Developer
 * from STEP Tools, Inc. (www.steptools.com) 
 */

FILE_DESCRIPTION(
/* description */ (''),
/* implementation_level */ '2;1');

FILE_NAME(
/* name */ 
'S:\\Future Scope 1\\WIP\\Client Category\\Tom\\02 Progressive Work\\W
ooden Base.stp',
/* time_stamp */ '2025-11-05T12:14:33+06:00',
/* author */ ('SD'),
/* organization */ (''),
/* preprocessor_version */ 'ST-DEVELOPER v18.1',
/* originating_system */ 'Autodesk Inventor 2021',
/* authorisation */ '');

FILE_SCHEMA (('AUTOMOTIVE_DESIGN { 1 0 10303 214 3 1 1 }'));
ENDSEC;

DATA;
#10=MECHANICAL_DESIGN_GEOMETRIC_PRESENTATION_REPRESENTATION('',(#13),#877);
#11=SHAPE_REPRESENTATION_RELATIONSHIP('SRR','None',#884,#12);
#12=ADVANCED_BREP_SHAPE_REPRESENTATION('',(#14),#876);
#13=STYLED_ITEM('',(#893),#14);
#14=MANIFOLD_SOLID_BREP('Solid1',#499);
#15=ELLIPSE('',#569,14.142135623731,10.);
#16=ELLIPSE('',#570,14.142135623731,10.);
#17=ELLIPSE('',#572,14.142135623731,10.);
#18=ELLIPSE('',#573,14.142135623731,10.);
#19=FACE_BOUND('',#86,.T.);
#20=FACE_BOUND('',#90,.T.);
#21=FACE_BOUND('',#93,.T.);
#22=FACE_BOUND('',#96,.T.);
#23=FACE_BOUND('',#99,.T.);
#24=FACE_BOUND('',#102,.T.);
#25=FACE_BOUND('',#105,.T.);
#26=FACE_BOUND('',#119,.T.);
#27=FACE_BOUND('',#120,.T.);
#28=FACE_BOUND('',#121,.T.);
#29=FACE_BOUND('',#122,.T.);
#30=FACE_BOUND('',#123,.T.);
#31=FACE_BOUND('',#124,.T.);
#32=FACE_BOUND('',#125,.T.);
#33=FACE_BOUND('',#128,.T.);
#34=FACE_BOUND('',#129,.T.);
#35=FACE_BOUND('',#130,.T.);
#36=FACE_BOUND('',#131,.T.);
#37=FACE_BOUND('',#132,.T.);
#38=FACE_BOUND('',#133,.T.);
#39=FACE_BOUND('',#134,.T.);
#40=PLANE('',#522);
#41=PLANE('',#529);
#42=PLANE('',#534);
#43=PLANE('',#539);
#44=PLANE('',#544);
#45=PLANE('',#549);
#46=PLANE('',#554);
#47=PLANE('',#576);
#48=PLANE('',#577);
#49=PLANE('',#578);
#50=PLANE('',#579);
#51=PLANE('',#580);
#52=PLANE('',#581);
#53=FACE_OUTER_BOUND('',#84,.T.);
#54=FACE_OUTER_BOUND('',#85,.T.);
#55=FACE_OUTER_BOUND('',#87,.T.);
#56=FACE_OUTER_BOUND('',#88,.T.);
#57=FACE_OUTER_BOUND('',#89,.T.);
#58=FACE_OUTER_BOUND('',#91,.T.);
#59=FACE_OUTER_BOUND('',#92,.T.);
#60=FACE_OUTER_BOUND('',#94,.T.);
#61=FACE_OUTER_BOUND('',#95,.T.);
#62=FACE_OUTER_BOUND('',#97,.T.);
#63=FACE_OUTER_BOUND('',#98,.T.);
#64=FACE_OUTER_BOUND('',#100,.T.);
#65=FACE_OUTER_BOUND('',#101,.T.);
#66=FACE_OUTER_BOUND('',#103,.T.);
#67=FACE_OUTER_BOUND('',#104,.T.);
#68=FACE_OUTER_BOUND('',#106,.T.);
#69=FACE_OUTER_BOUND('',#107,.T.);
#70=FACE_OUTER_BOUND('',#108,.T.);
#71=FACE_OUTER_BOUND('',#109,.T.);
#72=FACE_OUTER_BOUND('',#110,.T.);
#73=FACE_OUTER_BOUND('',#111,.T.);
#74=FACE_OUTER_BOUND('',#112,.T.);
#75=FACE_OUTER_BOUND('',#113,.T.);
#76=FACE_OUTER_BOUND('',#114,.T.);
#77=FACE_OUTER_BOUND('',#115,.T.);
#78=FACE_OUTER_BOUND('',#116,.T.);
#79=FACE_OUTER_BOUND('',#117,.T.);
#80=FACE_OUTER_BOUND('',#118,.T.);
#81=FACE_OUTER_BOUND('',#126,.T.);
#82=FACE_OUTER_BOUND('',#127,.T.);
#83=FACE_OUTER_BOUND('',#135,.T.);
#84=EDGE_LOOP('',(#326,#327,#328,#329));
#85=EDGE_LOOP('',(#330));
#86=EDGE_LOOP('',(#331));
#87=EDGE_LOOP('',(#332,#333,#334,#335));
#88=EDGE_LOOP('',(#336,#337,#338,#339));
#89=EDGE_LOOP('',(#340));
#90=EDGE_LOOP('',(#341));
#91=EDGE_LOOP('',(#342,#343,#344,#345));
#92=EDGE_LOOP('',(#346));
#93=EDGE_LOOP('',(#347));
#94=EDGE_LOOP('',(#348,#349,#350,#351));
#95=EDGE_LOOP('',(#352));
#96=EDGE_LOOP('',(#353));
#97=EDGE_LOOP('',(#354,#355,#356,#357));
#98=EDGE_LOOP('',(#358));
#99=EDGE_LOOP('',(#359));
#100=EDGE_LOOP('',(#360,#361,#362,#363));
#101=EDGE_LOOP('',(#364));
#102=EDGE_LOOP('',(#365));
#103=EDGE_LOOP('',(#366,#367,#368,#369));
#104=EDGE_LOOP('',(#370));
#105=EDGE_LOOP('',(#371));
#106=EDGE_LOOP('',(#372,#373,#374,#375));
#107=EDGE_LOOP('',(#376,#377,#378,#379));
#108=EDGE_LOOP('',(#380,#381,#382,#383));
#109=EDGE_LOOP('',(#384,#385,#386,#387));
#110=EDGE_LOOP('',(#388,#389,#390,#391));
#111=EDGE_LOOP('',(#392,#393,#394,#395));
#112=EDGE_LOOP('',(#396,#397,#398,#399));
#113=EDGE_LOOP('',(#400,#401,#402,#403));
#114=EDGE_LOOP('',(#404,#405,#406,#407));
#115=EDGE_LOOP('',(#408,#409,#410,#411));
#116=EDGE_LOOP('',(#412,#413,#414,#415));
#117=EDGE_LOOP('',(#416,#417,#418,#419));
#118=EDGE_LOOP('',(#420,#421,#422,#423));
#119=EDGE_LOOP('',(#424));
#120=EDGE_LOOP('',(#425));
#121=EDGE_LOOP('',(#426));
#122=EDGE_LOOP('',(#427));
#123=EDGE_LOOP('',(#428));
#124=EDGE_LOOP('',(#429));
#125=EDGE_LOOP('',(#430));
#126=EDGE_LOOP('',(#431,#432,#433,#434));
#127=EDGE_LOOP('',(#435,#436,#437,#438));
#128=EDGE_LOOP('',(#439));
#129=EDGE_LOOP('',(#440));
#130=EDGE_LOOP('',(#441));
#131=EDGE_LOOP('',(#442));
#132=EDGE_LOOP('',(#443));
#133=EDGE_LOOP('',(#444));
#134=EDGE_LOOP('',(#445));
#135=EDGE_LOOP('',(#446,#447,#448,#449));
#136=LINE('',#745,#166);
#137=LINE('',#753,#167);
#138=LINE('',#758,#168);
#139=LINE('',#767,#169);
#140=LINE('',#776,#170);
#141=LINE('',#785,#171);
#142=LINE('',#794,#172);
#143=LINE('',#803,#173);
#144=LINE('',#811,#174);
#145=LINE('',#815,#175);
#146=LINE('',#819,#176);
#147=LINE('',#823,#177);
#148=LINE('',#827,#178);
#149=LINE('',#831,#179);
#150=LINE('',#835,#180);
#151=LINE('',#839,#181);
#152=LINE('',#844,#182);
#153=LINE('',#848,#183);
#154=LINE('',#851,#184);
#155=LINE('',#852,#185);
#156=LINE('',#854,#186);
#157=LINE('',#855,#187);
#158=LINE('',#858,#188);
#159=LINE('',#860,#189);
#160=LINE('',#861,#190);
#161=LINE('',#864,#191);
#162=LINE('',#865,#192);
#163=LINE('',#869,#193);
#164=LINE('',#870,#194);
#165=LINE('',#872,#195);
#166=VECTOR('',#588,4.55);
#167=VECTOR('',#599,2.5);
#168=VECTOR('',#604,8.05);
#169=VECTOR('',#615,8.05);
#170=VECTOR('',#626,8.05);
#171=VECTOR('',#637,8.05);
#172=VECTOR('',#648,8.05);
#173=VECTOR('',#659,8.05);
#174=VECTOR('',#670,4.5);
#175=VECTOR('',#675,4.5);
#176=VECTOR('',#680,4.5);
#177=VECTOR('',#685,4.5);
#178=VECTOR('',#690,4.5);
#179=VECTOR('',#695,4.5);
#180=VECTOR('',#698,10.);
#181=VECTOR('',#701,10.);
#182=VECTOR('',#706,10.);
#183=VECTOR('',#709,10.);
#184=VECTOR('',#714,10.);
#185=VECTOR('',#715,10.);
#186=VECTOR('',#718,10.);
#187=VECTOR('',#719,10.);
#188=VECTOR('',#722,10.);
#189=VECTOR('',#723,10.);
#190=VECTOR('',#724,10.);
#191=VECTOR('',#727,10.);
#192=VECTOR('',#728,10.);
#193=VECTOR('',#733,10.);
#194=VECTOR('',#734,10.);
#195=VECTOR('',#737,10.);
#196=CIRCLE('',#520,4.55);
#197=CIRCLE('',#521,4.55);
#198=CIRCLE('',#523,2.5);
#199=CIRCLE('',#525,2.5);
#200=CIRCLE('',#527,8.05);
#201=CIRCLE('',#528,8.05);
#202=CIRCLE('',#530,4.5);
#203=CIRCLE('',#532,8.05);
#204=CIRCLE('',#533,8.05);
#205=CIRCLE('',#535,4.5);
#206=CIRCLE('',#537,8.05);
#207=CIRCLE('',#538,8.05);
#208=CIRCLE('',#540,4.5);
#209=CIRCLE('',#542,8.05);
#210=CIRCLE('',#543,8.05);
#211=CIRCLE('',#545,4.5);
#212=CIRCLE('',#547,8.05);
#213=CIRCLE('',#548,8.05);
#214=CIRCLE('',#550,4.5);
#215=CIRCLE('',#552,8.05);
#216=CIRCLE('',#553,8.05);
#217=CIRCLE('',#555,4.5);
#218=CIRCLE('',#557,4.5);
#219=CIRCLE('',#559,4.5);
#220=CIRCLE('',#561,4.5);
#221=CIRCLE('',#563,4.5);
#222=CIRCLE('',#565,4.5);
#223=CIRCLE('',#567,4.5);
#224=VERTEX_POINT('',#742);
#225=VERTEX_POINT('',#744);
#226=VERTEX_POINT('',#748);
#227=VERTEX_POINT('',#751);
#228=VERTEX_POINT('',#755);
#229=VERTEX_POINT('',#757);
#230=VERTEX_POINT('',#761);
#231=VERTEX_POINT('',#764);
#232=VERTEX_POINT('',#766);
#233=VERTEX_POINT('',#770);
#234=VERTEX_POINT('',#773);
#235=VERTEX_POINT('',#775);
#236=VERTEX_POINT('',#779);
#237=VERTEX_POINT('',#782);
#238=VERTEX_POINT('',#784);
#239=VERTEX_POINT('',#788);
#240=VERTEX_POINT('',#791);
#241=VERTEX_POINT('',#793);
#242=VERTEX_POINT('',#797);
#243=VERTEX_POINT('',#800);
#244=VERTEX_POINT('',#802);
#245=VERTEX_POINT('',#806);
#246=VERTEX_POINT('',#809);
#247=VERTEX_POINT('',#813);
#248=VERTEX_POINT('',#817);
#249=VERTEX_POINT('',#821);
#250=VERTEX_POINT('',#825);
#251=VERTEX_POINT('',#829);
#252=VERTEX_POINT('',#833);
#253=VERTEX_POINT('',#834);
#254=VERTEX_POINT('',#836);
#255=VERTEX_POINT('',#838);
#256=VERTEX_POINT('',#842);
#257=VERTEX_POINT('',#843);
#258=VERTEX_POINT('',#845);
#259=VERTEX_POINT('',#847);
#260=VERTEX_POINT('',#857);
#261=VERTEX_POINT('',#859);
#262=VERTEX_POINT('',#863);
#263=VERTEX_POINT('',#868);
#264=EDGE_CURVE('',#224,#224,#196,.T.);
#265=EDGE_CURVE('',#224,#225,#136,.T.);
#266=EDGE_CURVE('',#225,#225,#197,.T.);
#267=EDGE_CURVE('',#226,#226,#198,.T.);
#268=EDGE_CURVE('',#227,#227,#199,.T.);
#269=EDGE_CURVE('',#227,#226,#137,.T.);
#270=EDGE_CURVE('',#228,#228,#200,.T.);
#271=EDGE_CURVE('',#228,#229,#138,.T.);
#272=EDGE_CURVE('',#229,#229,#201,.T.);
#273=EDGE_CURVE('',#230,#230,#202,.T.);
#274=EDGE_CURVE('',#231,#231,#203,.T.);
#275=EDGE_CURVE('',#231,#232,#139,.T.);
#276=EDGE_CURVE('',#232,#232,#204,.T.);
#277=EDGE_CURVE('',#233,#233,#205,.T.);
#278=EDGE_CURVE('',#234,#234,#206,.T.);
#279=EDGE_CURVE('',#234,#235,#140,.T.);
#280=EDGE_CURVE('',#235,#235,#207,.T.);
#281=EDGE_CURVE('',#236,#236,#208,.T.);
#282=EDGE_CURVE('',#237,#237,#209,.T.);
#283=EDGE_CURVE('',#237,#238,#141,.T.);
#284=EDGE_CURVE('',#238,#238,#210,.T.);
#285=EDGE_CURVE('',#239,#239,#211,.T.);
#286=EDGE_CURVE('',#240,#240,#212,.T.);
#287=EDGE_CURVE('',#240,#241,#142,.T.);
#288=EDGE_CURVE('',#241,#241,#213,.T.);
#289=EDGE_CURVE('',#242,#242,#214,.T.);
#290=EDGE_CURVE('',#243,#243,#215,.T.);
#291=EDGE_CURVE('',#243,#244,#143,.T.);
#292=EDGE_CURVE('',#244,#244,#216,.T.);
#293=EDGE_CURVE('',#245,#245,#217,.T.);
#294=EDGE_CURVE('',#246,#246,#218,.T.);
#295=EDGE_CURVE('',#246,#236,#144,.T.);
#296=EDGE_CURVE('',#247,#247,#219,.T.);
#297=EDGE_CURVE('',#247,#239,#145,.T.);
#298=EDGE_CURVE('',#248,#248,#220,.T.);
#299=EDGE_CURVE('',#248,#245,#146,.T.);
#300=EDGE_CURVE('',#249,#249,#221,.T.);
#301=EDGE_CURVE('',#249,#230,#147,.T.);
#302=EDGE_CURVE('',#250,#250,#222,.T.);
#303=EDGE_CURVE('',#250,#242,#148,.T.);
#304=EDGE_CURVE('',#251,#251,#223,.T.);
#305=EDGE_CURVE('',#251,#233,#149,.T.);
#306=EDGE_CURVE('',#252,#253,#150,.T.);
#307=EDGE_CURVE('',#253,#254,#15,.T.);
#308=EDGE_CURVE('',#254,#255,#151,.T.);
#309=EDGE_CURVE('',#255,#252,#16,.T.);
#310=EDGE_CURVE('',#256,#257,#152,.T.);
#311=EDGE_CURVE('',#257,#258,#17,.T.);
#312=EDGE_CURVE('',#258,#259,#153,.T.);
#313=EDGE_CURVE('',#259,#256,#18,.T.);
#314=EDGE_CURVE('',#253,#258,#154,.T.);
#315=EDGE_CURVE('',#257,#254,#155,.T.);
#316=EDGE_CURVE('',#255,#256,#156,.T.);
#317=EDGE_CURVE('',#259,#252,#157,.T.);
#318=EDGE_CURVE('',#257,#260,#158,.T.);
#319=EDGE_CURVE('',#260,#261,#159,.T.);
#320=EDGE_CURVE('',#261,#254,#160,.T.);
#321=EDGE_CURVE('',#262,#256,#161,.T.);
#322=EDGE_CURVE('',#260,#262,#162,.T.);
#323=EDGE_CURVE('',#263,#261,#163,.T.);
#324=EDGE_CURVE('',#255,#263,#164,.T.);
#325=EDGE_CURVE('',#263,#262,#165,.T.);
#326=ORIENTED_EDGE('',*,*,#264,.F.);
#327=ORIENTED_EDGE('',*,*,#265,.T.);
#328=ORIENTED_EDGE('',*,*,#266,.F.);
#329=ORIENTED_EDGE('',*,*,#265,.F.);
#330=ORIENTED_EDGE('',*,*,#266,.T.);
#331=ORIENTED_EDGE('',*,*,#267,.F.);
#332=ORIENTED_EDGE('',*,*,#268,.F.);
#333=ORIENTED_EDGE('',*,*,#269,.T.);
#334=ORIENTED_EDGE('',*,*,#267,.T.);
#335=ORIENTED_EDGE('',*,*,#269,.F.);
#336=ORIENTED_EDGE('',*,*,#270,.F.);
#337=ORIENTED_EDGE('',*,*,#271,.T.);
#338=ORIENTED_EDGE('',*,*,#272,.F.);
#339=ORIENTED_EDGE('',*,*,#271,.F.);
#340=ORIENTED_EDGE('',*,*,#272,.T.);
#341=ORIENTED_EDGE('',*,*,#273,.F.);
#342=ORIENTED_EDGE('',*,*,#274,.F.);
#343=ORIENTED_EDGE('',*,*,#275,.T.);
#344=ORIENTED_EDGE('',*,*,#276,.F.);
#345=ORIENTED_EDGE('',*,*,#275,.F.);
#346=ORIENTED_EDGE('',*,*,#276,.T.);
#347=ORIENTED_EDGE('',*,*,#277,.F.);
#348=ORIENTED_EDGE('',*,*,#278,.F.);
#349=ORIENTED_EDGE('',*,*,#279,.T.);
#350=ORIENTED_EDGE('',*,*,#280,.F.);
#351=ORIENTED_EDGE('',*,*,#279,.F.);
#352=ORIENTED_EDGE('',*,*,#280,.T.);
#353=ORIENTED_EDGE('',*,*,#281,.F.);
#354=ORIENTED_EDGE('',*,*,#282,.F.);
#355=ORIENTED_EDGE('',*,*,#283,.T.);
#356=ORIENTED_EDGE('',*,*,#284,.F.);
#357=ORIENTED_EDGE('',*,*,#283,.F.);
#358=ORIENTED_EDGE('',*,*,#284,.T.);
#359=ORIENTED_EDGE('',*,*,#285,.F.);
#360=ORIENTED_EDGE('',*,*,#286,.F.);
#361=ORIENTED_EDGE('',*,*,#287,.T.);
#362=ORIENTED_EDGE('',*,*,#288,.F.);
#363=ORIENTED_EDGE('',*,*,#287,.F.);
#364=ORIENTED_EDGE('',*,*,#288,.T.);
#365=ORIENTED_EDGE('',*,*,#289,.F.);
#366=ORIENTED_EDGE('',*,*,#290,.F.);
#367=ORIENTED_EDGE('',*,*,#291,.T.);
#368=ORIENTED_EDGE('',*,*,#292,.F.);
#369=ORIENTED_EDGE('',*,*,#291,.F.);
#370=ORIENTED_EDGE('',*,*,#292,.T.);
#371=ORIENTED_EDGE('',*,*,#293,.F.);
#372=ORIENTED_EDGE('',*,*,#294,.F.);
#373=ORIENTED_EDGE('',*,*,#295,.T.);
#374=ORIENTED_EDGE('',*,*,#281,.T.);
#375=ORIENTED_EDGE('',*,*,#295,.F.);
#376=ORIENTED_EDGE('',*,*,#296,.F.);
#377=ORIENTED_EDGE('',*,*,#297,.T.);
#378=ORIENTED_EDGE('',*,*,#285,.T.);
#379=ORIENTED_EDGE('',*,*,#297,.F.);
#380=ORIENTED_EDGE('',*,*,#298,.F.);
#381=ORIENTED_EDGE('',*,*,#299,.T.);
#382=ORIENTED_EDGE('',*,*,#293,.T.);
#383=ORIENTED_EDGE('',*,*,#299,.F.);
#384=ORIENTED_EDGE('',*,*,#300,.F.);
#385=ORIENTED_EDGE('',*,*,#301,.T.);
#386=ORIENTED_EDGE('',*,*,#273,.T.);
#387=ORIENTED_EDGE('',*,*,#301,.F.);
#388=ORIENTED_EDGE('',*,*,#302,.F.);
#389=ORIENTED_EDGE('',*,*,#303,.T.);
#390=ORIENTED_EDGE('',*,*,#289,.T.);
#391=ORIENTED_EDGE('',*,*,#303,.F.);
#392=ORIENTED_EDGE('',*,*,#304,.F.);
#393=ORIENTED_EDGE('',*,*,#305,.T.);
#394=ORIENTED_EDGE('',*,*,#277,.T.);
#395=ORIENTED_EDGE('',*,*,#305,.F.);
#396=ORIENTED_EDGE('',*,*,#306,.T.);
#397=ORIENTED_EDGE('',*,*,#307,.T.);
#398=ORIENTED_EDGE('',*,*,#308,.T.);
#399=ORIENTED_EDGE('',*,*,#309,.T.);
#400=ORIENTED_EDGE('',*,*,#310,.T.);
#401=ORIENTED_EDGE('',*,*,#311,.T.);
#402=ORIENTED_EDGE('',*,*,#312,.T.);
#403=ORIENTED_EDGE('',*,*,#313,.T.);
#404=ORIENTED_EDGE('',*,*,#314,.T.);
#405=ORIENTED_EDGE('',*,*,#311,.F.);
#406=ORIENTED_EDGE('',*,*,#315,.T.);
#407=ORIENTED_EDGE('',*,*,#307,.F.);
#408=ORIENTED_EDGE('',*,*,#316,.T.);
#409=ORIENTED_EDGE('',*,*,#313,.F.);
#410=ORIENTED_EDGE('',*,*,#317,.T.);
#411=ORIENTED_EDGE('',*,*,#309,.F.);
#412=ORIENTED_EDGE('',*,*,#315,.F.);
#413=ORIENTED_EDGE('',*,*,#318,.T.);
#414=ORIENTED_EDGE('',*,*,#319,.T.);
#415=ORIENTED_EDGE('',*,*,#320,.T.);
#416=ORIENTED_EDGE('',*,*,#310,.F.);
#417=ORIENTED_EDGE('',*,*,#321,.F.);
#418=ORIENTED_EDGE('',*,*,#322,.F.);
#419=ORIENTED_EDGE('',*,*,#318,.F.);
#420=ORIENTED_EDGE('',*,*,#312,.F.);
#421=ORIENTED_EDGE('',*,*,#314,.F.);
#422=ORIENTED_EDGE('',*,*,#306,.F.);
#423=ORIENTED_EDGE('',*,*,#317,.F.);
#424=ORIENTED_EDGE('',*,*,#268,.T.);
#425=ORIENTED_EDGE('',*,*,#294,.T.);
#426=ORIENTED_EDGE('',*,*,#296,.T.);
#427=ORIENTED_EDGE('',*,*,#298,.T.);
#428=ORIENTED_EDGE('',*,*,#300,.T.);
#429=ORIENTED_EDGE('',*,*,#302,.T.);
#430=ORIENTED_EDGE('',*,*,#304,.T.);
#431=ORIENTED_EDGE('',*,*,#308,.F.);
#432=ORIENTED_EDGE('',*,*,#320,.F.);
#433=ORIENTED_EDGE('',*,*,#323,.F.);
#434=ORIENTED_EDGE('',*,*,#324,.F.);
#435=ORIENTED_EDGE('',*,*,#322,.T.);
#436=ORIENTED_EDGE('',*,*,#325,.F.);
#437=ORIENTED_EDGE('',*,*,#323,.T.);
#438=ORIENTED_EDGE('',*,*,#319,.F.);
#439=ORIENTED_EDGE('',*,*,#264,.T.);
#440=ORIENTED_EDGE('',*,*,#270,.T.);
#441=ORIENTED_EDGE('',*,*,#274,.T.);
#442=ORIENTED_EDGE('',*,*,#278,.T.);
#443=ORIENTED_EDGE('',*,*,#282,.T.);
#444=ORIENTED_EDGE('',*,*,#286,.T.);
#445=ORIENTED_EDGE('',*,*,#290,.T.);
#446=ORIENTED_EDGE('',*,*,#316,.F.);
#447=ORIENTED_EDGE('',*,*,#324,.T.);
#448=ORIENTED_EDGE('',*,*,#325,.T.);
#449=ORIENTED_EDGE('',*,*,#321,.T.);
#450=CYLINDRICAL_SURFACE('',#519,4.55);
#451=CYLINDRICAL_SURFACE('',#524,2.5);
#452=CYLINDRICAL_SURFACE('',#526,8.05);
#453=CYLINDRICAL_SURFACE('',#531,8.05);
#454=CYLINDRICAL_SURFACE('',#536,8.05);
#455=CYLINDRICAL_SURFACE('',#541,8.05);
#456=CYLINDRICAL_SURFACE('',#546,8.05);
#457=CYLINDRICAL_SURFACE('',#551,8.05);
#458=CYLINDRICAL_SURFACE('',#556,4.5);
#459=CYLINDRICAL_SURFACE('',#558,4.5);
#460=CYLINDRICAL_SURFACE('',#560,4.5);
#461=CYLINDRICAL_SURFACE('',#562,4.5);
#462=CYLINDRICAL_SURFACE('',#564,4.5);
#463=CYLINDRICAL_SURFACE('',#566,4.5);
#464=CYLINDRICAL_SURFACE('',#568,10.);
#465=CYLINDRICAL_SURFACE('',#571,10.);
#466=CYLINDRICAL_SURFACE('',#574,10.);
#467=CYLINDRICAL_SURFACE('',#575,10.);
#468=ADVANCED_FACE('',(#53),#450,.F.);
#469=ADVANCED_FACE('',(#54,#19),#40,.T.);
#470=ADVANCED_FACE('',(#55),#451,.F.);
#471=ADVANCED_FACE('',(#56),#452,.F.);
#472=ADVANCED_FACE('',(#57,#20),#41,.T.);
#473=ADVANCED_FACE('',(#58),#453,.F.);
#474=ADVANCED_FACE('',(#59,#21),#42,.T.);
#475=ADVANCED_FACE('',(#60),#454,.F.);
#476=ADVANCED_FACE('',(#61,#22),#43,.T.);
#477=ADVANCED_FACE('',(#62),#455,.F.);
#478=ADVANCED_FACE('',(#63,#23),#44,.T.);
#479=ADVANCED_FACE('',(#64),#456,.F.);
#480=ADVANCED_FACE('',(#65,#24),#45,.T.);
#481=ADVANCED_FACE('',(#66),#457,.F.);
#482=ADVANCED_FACE('',(#67,#25),#46,.T.);
#483=ADVANCED_FACE('',(#68),#458,.F.);
#484=ADVANCED_FACE('',(#69),#459,.F.);
#485=ADVANCED_FACE('',(#70),#460,.F.);
#486=ADVANCED_FACE('',(#71),#461,.F.);
#487=ADVANCED_FACE('',(#72),#462,.F.);
#488=ADVANCED_FACE('',(#73),#463,.F.);
#489=ADVANCED_FACE('',(#74),#464,.F.);
#490=ADVANCED_FACE('',(#75),#465,.F.);
#491=ADVANCED_FACE('',(#76),#466,.F.);
#492=ADVANCED_FACE('',(#77),#467,.F.);
#493=ADVANCED_FACE('',(#78),#47,.T.);
#494=ADVANCED_FACE('',(#79),#48,.T.);
#495=ADVANCED_FACE('',(#80,#26,#27,#28,#29,#30,#31,#32),#49,.T.);
#496=ADVANCED_FACE('',(#81),#50,.T.);
#497=ADVANCED_FACE('',(#82,#33,#34,#35,#36,#37,#38,#39),#51,.T.);
#498=ADVANCED_FACE('',(#83),#52,.T.);
#499=CLOSED_SHELL('',(#468,#469,#470,#471,#472,#473,#474,#475,#476,#477,
#478,#479,#480,#481,#482,#483,#484,#485,#486,#487,#488,#489,#490,#491,#492,
#493,#494,#495,#496,#497,#498));
#500=DERIVED_UNIT_ELEMENT(#502,1.);
#501=DERIVED_UNIT_ELEMENT(#879,3.);
#502=(
MASS_UNIT()
NAMED_UNIT(*)
SI_UNIT($,.GRAM.)
);
#503=DERIVED_UNIT((#500,#501));
#504=MEASURE_REPRESENTATION_ITEM('density measure',
POSITIVE_RATIO_MEASURE(0.76),#503);
#505=PROPERTY_DEFINITION_REPRESENTATION(#510,#507);
#506=PROPERTY_DEFINITION_REPRESENTATION(#511,#508);
#507=REPRESENTATION('material name',(#509),#876);
#508=REPRESENTATION('density',(#504),#876);
#509=DESCRIPTIVE_REPRESENTATION_ITEM('Wood (Oak)','Wood (Oak)');
#510=PROPERTY_DEFINITION('material property','material name',#886);
#511=PROPERTY_DEFINITION('material property','density of part',#886);
#512=DATE_TIME_ROLE('creation_date');
#513=APPLIED_DATE_AND_TIME_ASSIGNMENT(#514,#512,(#886));
#514=DATE_AND_TIME(#515,#516);
#515=CALENDAR_DATE(2025,16,9);
#516=LOCAL_TIME(0,0,0.,#517);
#517=COORDINATED_UNIVERSAL_TIME_OFFSET(0,0,.BEHIND.);
#518=AXIS2_PLACEMENT_3D('placement',#740,#582,#583);
#519=AXIS2_PLACEMENT_3D('',#741,#584,#585);
#520=AXIS2_PLACEMENT_3D('',#743,#586,#587);
#521=AXIS2_PLACEMENT_3D('',#746,#589,#590);
#522=AXIS2_PLACEMENT_3D('',#747,#591,#592);
#523=AXIS2_PLACEMENT_3D('',#749,#593,#594);
#524=AXIS2_PLACEMENT_3D('',#750,#595,#596);
#525=AXIS2_PLACEMENT_3D('',#752,#597,#598);
#526=AXIS2_PLACEMENT_3D('',#754,#600,#601);
#527=AXIS2_PLACEMENT_3D('',#756,#602,#603);
#528=AXIS2_PLACEMENT_3D('',#759,#605,#606);
#529=AXIS2_PLACEMENT_3D('',#760,#607,#608);
#530=AXIS2_PLACEMENT_3D('',#762,#609,#610);
#531=AXIS2_PLACEMENT_3D('',#763,#611,#612);
#532=AXIS2_PLACEMENT_3D('',#765,#613,#614);
#533=AXIS2_PLACEMENT_3D('',#768,#616,#617);
#534=AXIS2_PLACEMENT_3D('',#769,#618,#619);
#535=AXIS2_PLACEMENT_3D('',#771,#620,#621);
#536=AXIS2_PLACEMENT_3D('',#772,#622,#623);
#537=AXIS2_PLACEMENT_3D('',#774,#624,#625);
#538=AXIS2_PLACEMENT_3D('',#777,#627,#628);
#539=AXIS2_PLACEMENT_3D('',#778,#629,#630);
#540=AXIS2_PLACEMENT_3D('',#780,#631,#632);
#541=AXIS2_PLACEMENT_3D('',#781,#633,#634);
#542=AXIS2_PLACEMENT_3D('',#783,#635,#636);
#543=AXIS2_PLACEMENT_3D('',#786,#638,#639);
#544=AXIS2_PLACEMENT_3D('',#787,#640,#641);
#545=AXIS2_PLACEMENT_3D('',#789,#642,#643);
#546=AXIS2_PLACEMENT_3D('',#790,#644,#645);
#547=AXIS2_PLACEMENT_3D('',#792,#646,#647);
#548=AXIS2_PLACEMENT_3D('',#795,#649,#650);
#549=AXIS2_PLACEMENT_3D('',#796,#651,#652);
#550=AXIS2_PLACEMENT_3D('',#798,#653,#654);
#551=AXIS2_PLACEMENT_3D('',#799,#655,#656);
#552=AXIS2_PLACEMENT_3D('',#801,#657,#658);
#553=AXIS2_PLACEMENT_3D('',#804,#660,#661);
#554=AXIS2_PLACEMENT_3D('',#805,#662,#663);
#555=AXIS2_PLACEMENT_3D('',#807,#664,#665);
#556=AXIS2_PLACEMENT_3D('',#808,#666,#667);
#557=AXIS2_PLACEMENT_3D('',#810,#668,#669);
#558=AXIS2_PLACEMENT_3D('',#812,#671,#672);
#559=AXIS2_PLACEMENT_3D('',#814,#673,#674);
#560=AXIS2_PLACEMENT_3D('',#816,#676,#677);
#561=AXIS2_PLACEMENT_3D('',#818,#678,#679);
#562=AXIS2_PLACEMENT_3D('',#820,#681,#682);
#563=AXIS2_PLACEMENT_3D('',#822,#683,#684);
#564=AXIS2_PLACEMENT_3D('',#824,#686,#687);
#565=AXIS2_PLACEMENT_3D('',#826,#688,#689);
#566=AXIS2_PLACEMENT_3D('',#828,#691,#692);
#567=AXIS2_PLACEMENT_3D('',#830,#693,#694);
#568=AXIS2_PLACEMENT_3D('',#832,#696,#697);
#569=AXIS2_PLACEMENT_3D('',#837,#699,#700);
#570=AXIS2_PLACEMENT_3D('',#840,#702,#703);
#571=AXIS2_PLACEMENT_3D('',#841,#704,#705);
#572=AXIS2_PLACEMENT_3D('',#846,#707,#708);
#573=AXIS2_PLACEMENT_3D('',#849,#710,#711);
#574=AXIS2_PLACEMENT_3D('',#850,#712,#713);
#575=AXIS2_PLACEMENT_3D('',#853,#716,#717);
#576=AXIS2_PLACEMENT_3D('',#856,#720,#721);
#577=AXIS2_PLACEMENT_3D('',#862,#725,#726);
#578=AXIS2_PLACEMENT_3D('',#866,#729,#730);
#579=AXIS2_PLACEMENT_3D('',#867,#731,#732);
#580=AXIS2_PLACEMENT_3D('',#871,#735,#736);
#581=AXIS2_PLACEMENT_3D('',#873,#738,#739);
#582=DIRECTION('axis',(0.,0.,1.));
#583=DIRECTION('refdir',(1.,0.,0.));
#584=DIRECTION('center_axis',(1.4210854715202E-16,-1.,0.));
#585=DIRECTION('ref_axis',(1.,1.4210854715202E-16,0.));
#586=DIRECTION('center_axis',(-1.4210854715202E-16,1.,0.));
#587=DIRECTION('ref_axis',(1.,1.4210854715202E-16,0.));
#588=DIRECTION('',(-1.4210854715202E-16,1.,0.));
#589=DIRECTION('center_axis',(1.4210854715202E-16,-1.,0.));
#590=DIRECTION('ref_axis',(1.,1.4210854715202E-16,0.));
#591=DIRECTION('center_axis',(1.4210854715202E-16,-1.,0.));
#592=DIRECTION('ref_axis',(1.,1.4210854715202E-16,0.));
#593=DIRECTION('center_axis',(1.4210854715202E-16,-1.,0.));
#594=DIRECTION('ref_axis',(1.,0.,0.));
#595=DIRECTION('center_axis',(0.,1.,0.));
#596=DIRECTION('ref_axis',(1.,0.,0.));
#597=DIRECTION('center_axis',(0.,-1.,0.));
#598=DIRECTION('ref_axis',(1.,0.,0.));
#599=DIRECTION('',(0.,-1.,0.));
#600=DIRECTION('center_axis',(1.4210854715202E-16,-1.,0.));
#601=DIRECTION('ref_axis',(1.,1.4210854715202E-16,0.));
#602=DIRECTION('center_axis',(-1.4210854715202E-16,1.,0.));
#603=DIRECTION('ref_axis',(1.,1.4210854715202E-16,0.));
#604=DIRECTION('',(-1.4210854715202E-16,1.,0.));
#605=DIRECTION('center_axis',(1.4210854715202E-16,-1.,0.));
#606=DIRECTION('ref_axis',(1.,1.4210854715202E-16,0.));
#607=DIRECTION('center_axis',(1.4210854715202E-16,-1.,0.));
#608=DIRECTION('ref_axis',(1.,1.4210854715202E-16,0.));
#609=DIRECTION('center_axis',(1.4210854715202E-16,-1.,0.));
#610=DIRECTION('ref_axis',(1.,0.,0.));
#611=DIRECTION('center_axis',(1.4210854715202E-16,-1.,0.));
#612=DIRECTION('ref_axis',(1.,1.4210854715202E-16,0.));
#613=DIRECTION('center_axis',(-1.4210854715202E-16,1.,0.));
#614=DIRECTION('ref_axis',(1.,1.4210854715202E-16,0.));
#615=DIRECTION('',(-1.4210854715202E-16,1.,0.));
#616=DIRECTION('center_axis',(1.4210854715202E-16,-1.,0.));
#617=DIRECTION('ref_axis',(1.,1.4210854715202E-16,0.));
#618=DIRECTION('center_axis',(1.4210854715202E-16,-1.,0.));
#619=DIRECTION('ref_axis',(1.,1.4210854715202E-16,0.));
#620=DIRECTION('center_axis',(1.4210854715202E-16,-1.,0.));
#621=DIRECTION('ref_axis',(1.,0.,0.));
#622=DIRECTION('center_axis',(1.4210854715202E-16,-1.,0.));
#623=DIRECTION('ref_axis',(1.,1.4210854715202E-16,0.));
#624=DIRECTION('center_axis',(-1.4210854715202E-16,1.,0.));
#625=DIRECTION('ref_axis',(1.,1.4210854715202E-16,0.));
#626=DIRECTION('',(-1.4210854715202E-16,1.,0.));
#627=DIRECTION('center_axis',(1.4210854715202E-16,-1.,0.));
#628=DIRECTION('ref_axis',(1.,1.4210854715202E-16,0.));
#629=DIRECTION('center_axis',(1.4210854715202E-16,-1.,0.));
#630=DIRECTION('ref_axis',(1.,1.4210854715202E-16,0.));
#631=DIRECTION('center_axis',(1.4210854715202E-16,-1.,0.));
#632=DIRECTION('ref_axis',(1.,0.,0.));
#633=DIRECTION('center_axis',(1.4210854715202E-16,-1.,0.));
#634=DIRECTION('ref_axis',(1.,1.4210854715202E-16,0.));
#635=DIRECTION('center_axis',(-1.4210854715202E-16,1.,0.));
#636=DIRECTION('ref_axis',(1.,1.4210854715202E-16,0.));
#637=DIRECTION('',(-1.4210854715202E-16,1.,0.));
#638=DIRECTION('center_axis',(1.4210854715202E-16,-1.,0.));
#639=DIRECTION('ref_axis',(1.,1.4210854715202E-16,0.));
#640=DIRECTION('center_axis',(1.4210854715202E-16,-1.,0.));
#641=DIRECTION('ref_axis',(1.,1.4210854715202E-16,0.));
#642=DIRECTION('center_axis',(1.4210854715202E-16,-1.,0.));
#643=DIRECTION('ref_axis',(1.,0.,0.));
#644=DIRECTION('center_axis',(1.4210854715202E-16,-1.,0.));
#645=DIRECTION('ref_axis',(1.,1.4210854715202E-16,0.));
#646=DIRECTION('center_axis',(-1.4210854715202E-16,1.,0.));
#647=DIRECTION('ref_axis',(1.,1.4210854715202E-16,0.));
#648=DIRECTION('',(-1.4210854715202E-16,1.,0.));
#649=DIRECTION('center_axis',(1.4210854715202E-16,-1.,0.));
#650=DIRECTION('ref_axis',(1.,1.4210854715202E-16,0.));
#651=DIRECTION('center_axis',(1.4210854715202E-16,-1.,0.));
#652=DIRECTION('ref_axis',(1.,1.4210854715202E-16,0.));
#653=DIRECTION('center_axis',(1.4210854715202E-16,-1.,0.));
#654=DIRECTION('ref_axis',(1.,0.,0.));
#655=DIRECTION('center_axis',(1.4210854715202E-16,-1.,0.));
#656=DIRECTION('ref_axis',(1.,1.4210854715202E-16,0.));
#657=DIRECTION('center_axis',(-1.4210854715202E-16,1.,0.));
#658=DIRECTION('ref_axis',(1.,1.4210854715202E-16,0.));
#659=DIRECTION('',(-1.4210854715202E-16,1.,0.));
#660=DIRECTION('center_axis',(1.4210854715202E-16,-1.,0.));
#661=DIRECTION('ref_axis',(1.,1.4210854715202E-16,0.));
#662=DIRECTION('center_axis',(1.4210854715202E-16,-1.,0.));
#663=DIRECTION('ref_axis',(1.,1.4210854715202E-16,0.));
#664=DIRECTION('center_axis',(1.4210854715202E-16,-1.,0.));
#665=DIRECTION('ref_axis',(1.,0.,0.));
#666=DIRECTION('center_axis',(0.,1.,0.));
#667=DIRECTION('ref_axis',(1.,0.,0.));
#668=DIRECTION('center_axis',(0.,-1.,0.));
#669=DIRECTION('ref_axis',(1.,0.,0.));
#670=DIRECTION('',(0.,-1.,0.));
#671=DIRECTION('center_axis',(0.,1.,0.));
#672=DIRECTION('ref_axis',(1.,0.,0.));
#673=DIRECTION('center_axis',(0.,-1.,0.));
#674=DIRECTION('ref_axis',(1.,0.,0.));
#675=DIRECTION('',(0.,-1.,0.));
#676=DIRECTION('center_axis',(0.,1.,0.));
#677=DIRECTION('ref_axis',(1.,0.,0.));
#678=DIRECTION('center_axis',(0.,-1.,0.));
#679=DIRECTION('ref_axis',(1.,0.,0.));
#680=DIRECTION('',(0.,-1.,0.));
#681=DIRECTION('center_axis',(0.,1.,0.));
#682=DIRECTION('ref_axis',(1.,0.,0.));
#683=DIRECTION('center_axis',(0.,-1.,0.));
#684=DIRECTION('ref_axis',(1.,0.,0.));
#685=DIRECTION('',(0.,-1.,0.));
#686=DIRECTION('center_axis',(0.,1.,0.));
#687=DIRECTION('ref_axis',(1.,0.,0.));
#688=DIRECTION('center_axis',(0.,-1.,0.));
#689=DIRECTION('ref_axis',(1.,0.,0.));
#690=DIRECTION('',(0.,-1.,0.));
#691=DIRECTION('center_axis',(0.,1.,0.));
#692=DIRECTION('ref_axis',(1.,0.,0.));
#693=DIRECTION('center_axis',(0.,-1.,0.));
#694=DIRECTION('ref_axis',(1.,0.,0.));
#695=DIRECTION('',(0.,-1.,0.));
#696=DIRECTION('center_axis',(0.,0.,1.));
#697=DIRECTION('ref_axis',(1.,0.,0.));
#698=DIRECTION('',(0.,0.,-1.));
#699=DIRECTION('center_axis',(0.707106781186548,0.,-0.707106781186548));
#700=DIRECTION('ref_axis',(-0.707106781186548,0.,-0.707106781186548));
#701=DIRECTION('',(0.,0.,1.));
#702=DIRECTION('center_axis',(0.707106781186548,0.,0.707106781186548));
#703=DIRECTION('ref_axis',(0.707106781186548,0.,-0.707106781186548));
#704=DIRECTION('center_axis',(0.,0.,1.));
#705=DIRECTION('ref_axis',(0.,-1.,0.));
#706=DIRECTION('',(0.,0.,-1.));
#707=DIRECTION('center_axis',(-0.707106781186548,0.,-0.707106781186548));
#708=DIRECTION('ref_axis',(0.707106781186548,0.,-0.707106781186548));
#709=DIRECTION('',(0.,0.,1.));
#710=DIRECTION('center_axis',(-0.707106781186548,0.,0.707106781186548));
#711=DIRECTION('ref_axis',(-0.707106781186548,0.,-0.707106781186548));
#712=DIRECTION('center_axis',(1.,0.,0.));
#713=DIRECTION('ref_axis',(0.,-1.,0.));
#714=DIRECTION('',(1.,0.,0.));
#715=DIRECTION('',(-1.,0.,0.));
#716=DIRECTION('center_axis',(-1.,0.,0.));
#717=DIRECTION('ref_axis',(0.,-1.,0.));
#718=DIRECTION('',(1.,0.,0.));
#719=DIRECTION('',(-1.,0.,0.));
#720=DIRECTION('center_axis',(0.,0.,-1.));
#721=DIRECTION('ref_axis',(-1.,0.,0.));
#722=DIRECTION('',(0.,-1.,0.));
#723=DIRECTION('',(-1.,-1.4210854715202E-16,0.));
#724=DIRECTION('',(0.,1.,0.));
#725=DIRECTION('center_axis',(1.,0.,0.));
#726=DIRECTION('ref_axis',(0.,1.,0.));
#727=DIRECTION('',(0.,1.,0.));
#728=DIRECTION('',(0.,0.,1.));
#729=DIRECTION('center_axis',(0.,1.,0.));
#730=DIRECTION('ref_axis',(-1.,0.,0.));
#731=DIRECTION('center_axis',(-1.,0.,0.));
#732=DIRECTION('ref_axis',(0.,-1.,0.));
#733=DIRECTION('',(0.,0.,-1.));
#734=DIRECTION('',(0.,-1.,0.));
#735=DIRECTION('center_axis',(1.4210854715202E-16,-1.,0.));
#736=DIRECTION('ref_axis',(1.,1.4210854715202E-16,0.));
#737=DIRECTION('',(1.,1.4210854715202E-16,0.));
#738=DIRECTION('center_axis',(0.,0.,1.));
#739=DIRECTION('ref_axis',(1.,0.,0.));
#740=CARTESIAN_POINT('',(0.,0.,0.));
#741=CARTESIAN_POINT('Origin',(-76.0000000000001,-7.35000000000001,-65.));
#742=CARTESIAN_POINT('',(-80.5500000000001,-10.,-65.));
#743=CARTESIAN_POINT('Origin',(-76.0000000000001,-10.,-65.));
#744=CARTESIAN_POINT('',(-80.5500000000001,-4.70000000000001,-65.));
#745=CARTESIAN_POINT('',(-80.5500000000001,-7.35000000000001,-65.));
#746=CARTESIAN_POINT('Origin',(-76.0000000000001,-4.70000000000001,-65.));
#747=CARTESIAN_POINT('Origin',(-76.0000000000001,-4.70000000000001,-65.));
#748=CARTESIAN_POINT('',(-78.5000000000001,-4.70000000000001,-65.));
#749=CARTESIAN_POINT('Origin',(-76.0000000000001,-4.70000000000001,-65.));
#750=CARTESIAN_POINT('Origin',(-76.0000000000001,0.,-65.));
#751=CARTESIAN_POINT('',(-78.5000000000001,10.,-65.));
#752=CARTESIAN_POINT('Origin',(-76.0000000000001,10.,-65.));
#753=CARTESIAN_POINT('',(-78.5000000000001,0.,-65.));
#754=CARTESIAN_POINT('Origin',(9.99999999999987,-4.95,-64.5));
#755=CARTESIAN_POINT('',(1.94999999999987,-10.,-64.5));
#756=CARTESIAN_POINT('Origin',(9.99999999999988,-10.,-64.5));
#757=CARTESIAN_POINT('',(1.94999999999987,0.100000000000002,-64.5));
#758=CARTESIAN_POINT('',(1.94999999999987,-4.95,-64.5));
#759=CARTESIAN_POINT('Origin',(9.99999999999987,0.100000000000003,-64.5));
#760=CARTESIAN_POINT('Origin',(9.99999999999987,0.100000000000003,-64.5));
#761=CARTESIAN_POINT('',(5.49999999999988,0.100000000000003,-64.5));
#762=CARTESIAN_POINT('Origin',(9.99999999999988,0.100000000000003,-64.5));
#763=CARTESIAN_POINT('Origin',(84.9999999999999,-4.94999999999999,68.));
#764=CARTESIAN_POINT('',(76.9499999999999,-9.99999999999999,68.));
#765=CARTESIAN_POINT('Origin',(84.9999999999999,-9.99999999999999,68.));
#766=CARTESIAN_POINT('',(76.9499999999999,0.100000000000013,68.));
#767=CARTESIAN_POINT('',(76.9499999999999,-4.94999999999999,68.));
#768=CARTESIAN_POINT('Origin',(84.9999999999999,0.100000000000015,68.));
#769=CARTESIAN_POINT('Origin',(84.9999999999999,0.100000000000015,68.));
#770=CARTESIAN_POINT('',(80.4999999999999,0.100000000000015,68.));
#771=CARTESIAN_POINT('Origin',(84.9999999999999,0.100000000000015,68.));
#772=CARTESIAN_POINT('Origin',(-85.0000000000001,-4.95000000000001,68.));
#773=CARTESIAN_POINT('',(-93.0500000000001,-10.,68.));
#774=CARTESIAN_POINT('Origin',(-85.0000000000001,-10.,68.));
#775=CARTESIAN_POINT('',(-93.0500000000001,0.0999999999999901,68.));
#776=CARTESIAN_POINT('',(-93.0500000000001,-4.95000000000001,68.));
#777=CARTESIAN_POINT('Origin',(-85.0000000000001,0.0999999999999912,68.));
#778=CARTESIAN_POINT('Origin',(-85.0000000000001,0.0999999999999912,68.));
#779=CARTESIAN_POINT('',(-89.5000000000001,0.0999999999999912,68.));
#780=CARTESIAN_POINT('Origin',(-85.0000000000001,0.0999999999999912,68.));
#781=CARTESIAN_POINT('Origin',(-35.0000000000001,-4.95,5.));
#782=CARTESIAN_POINT('',(-43.0500000000001,-10.,5.));
#783=CARTESIAN_POINT('Origin',(-35.0000000000001,-10.,5.));
#784=CARTESIAN_POINT('',(-43.0500000000001,0.0999999999999968,5.));
#785=CARTESIAN_POINT('',(-43.0500000000001,-4.95,5.));
#786=CARTESIAN_POINT('Origin',(-35.0000000000001,0.0999999999999979,5.));
#787=CARTESIAN_POINT('Origin',(-35.0000000000001,0.0999999999999979,5.));
#788=CARTESIAN_POINT('',(-39.5000000000001,0.0999999999999979,5.));
#789=CARTESIAN_POINT('Origin',(-35.0000000000001,0.0999999999999979,5.));
#790=CARTESIAN_POINT('Origin',(84.9999999999999,-4.94999999999999,5.));
#791=CARTESIAN_POINT('',(76.9499999999999,-9.99999999999999,5.));
#792=CARTESIAN_POINT('Origin',(84.9999999999999,-9.99999999999999,5.));
#793=CARTESIAN_POINT('',(76.9499999999999,0.100000000000013,5.));
#794=CARTESIAN_POINT('',(76.9499999999999,-4.94999999999999,5.));
#795=CARTESIAN_POINT('Origin',(84.9999999999999,0.100000000000015,5.));
#796=CARTESIAN_POINT('Origin',(84.9999999999999,0.100000000000015,5.));
#797=CARTESIAN_POINT('',(80.4999999999999,0.100000000000015,5.));
#798=CARTESIAN_POINT('Origin',(84.9999999999999,0.100000000000015,5.));
#799=CARTESIAN_POINT('Origin',(-10.0000000000001,-4.95,-64.5));
#800=CARTESIAN_POINT('',(-18.0500000000001,-10.,-64.5));
#801=CARTESIAN_POINT('Origin',(-10.0000000000001,-10.,-64.5));
#802=CARTESIAN_POINT('',(-18.0500000000001,0.099999999999999,-64.5));
#803=CARTESIAN_POINT('',(-18.0500000000001,-4.95,-64.5));
#804=CARTESIAN_POINT('Origin',(-10.0000000000001,0.1,-64.5));
#805=CARTESIAN_POINT('Origin',(-10.0000000000001,0.1,-64.5));
#806=CARTESIAN_POINT('',(-14.5000000000001,0.1,-64.5));
#807=CARTESIAN_POINT('Origin',(-10.0000000000001,0.1,-64.5));
#808=CARTESIAN_POINT('Origin',(-85.0000000000001,0.,68.));
#809=CARTESIAN_POINT('',(-89.5000000000001,10.,68.));
#810=CARTESIAN_POINT('Origin',(-85.0000000000001,10.,68.));
#811=CARTESIAN_POINT('',(-89.5000000000001,0.,68.));
#812=CARTESIAN_POINT('Origin',(-35.0000000000001,0.,5.));
#813=CARTESIAN_POINT('',(-39.5000000000001,10.,5.));
#814=CARTESIAN_POINT('Origin',(-35.0000000000001,10.,5.));
#815=CARTESIAN_POINT('',(-39.5000000000001,0.,5.));
#816=CARTESIAN_POINT('Origin',(-10.0000000000001,0.,-64.5));
#817=CARTESIAN_POINT('',(-14.5000000000001,10.,-64.5));
#818=CARTESIAN_POINT('Origin',(-10.0000000000001,10.,-64.5));
#819=CARTESIAN_POINT('',(-14.5000000000001,0.,-64.5));
#820=CARTESIAN_POINT('Origin',(9.99999999999988,0.,-64.5));
#821=CARTESIAN_POINT('',(5.49999999999988,10.,-64.5));
#822=CARTESIAN_POINT('Origin',(9.99999999999988,10.,-64.5));
#823=CARTESIAN_POINT('',(5.49999999999988,0.,-64.5));
#824=CARTESIAN_POINT('Origin',(84.9999999999999,0.,5.));
#825=CARTESIAN_POINT('',(80.4999999999999,10.,5.));
#826=CARTESIAN_POINT('Origin',(84.9999999999999,10.,5.));
#827=CARTESIAN_POINT('',(80.4999999999999,0.,5.));
#828=CARTESIAN_POINT('Origin',(84.9999999999999,0.,68.));
#829=CARTESIAN_POINT('',(80.4999999999999,10.,68.));
#830=CARTESIAN_POINT('Origin',(84.9999999999999,10.,68.));
#831=CARTESIAN_POINT('',(80.4999999999999,0.,68.));
#832=CARTESIAN_POINT('Origin',(-125.,10.,-100.));
#833=CARTESIAN_POINT('',(-115.,10.,90.));
#834=CARTESIAN_POINT('',(-115.,10.,-90.));
#835=CARTESIAN_POINT('',(-115.,10.,0.));
#836=CARTESIAN_POINT('',(-125.,0.,-100.));
#837=CARTESIAN_POINT('Origin',(-125.,10.,-100.));
#838=CARTESIAN_POINT('',(-125.,0.,100.));
#839=CARTESIAN_POINT('',(-125.,0.,0.));
#840=CARTESIAN_POINT('Origin',(-125.,10.,100.));
#841=CARTESIAN_POINT('Origin',(125.,10.,-100.));
#842=CARTESIAN_POINT('',(125.,0.,100.));
#843=CARTESIAN_POINT('',(125.,0.,-100.));
#844=CARTESIAN_POINT('',(125.,0.,0.));
#845=CARTESIAN_POINT('',(115.,10.,-90.));
#846=CARTESIAN_POINT('Origin',(125.,10.,-100.));
#847=CARTESIAN_POINT('',(115.,10.,90.));
#848=CARTESIAN_POINT('',(115.,10.,0.));
#849=CARTESIAN_POINT('Origin',(125.,10.,100.));
#850=CARTESIAN_POINT('Origin',(-125.,10.,-100.));
#851=CARTESIAN_POINT('',(125.,10.,-90.));
#852=CARTESIAN_POINT('',(125.,0.,-100.));
#853=CARTESIAN_POINT('Origin',(125.,10.,100.));
#854=CARTESIAN_POINT('',(125.,0.,100.));
#855=CARTESIAN_POINT('',(125.,10.,90.));
#856=CARTESIAN_POINT('Origin',(-1.24344978758018E-13,-8.88178419700125E-15,
-100.));
#857=CARTESIAN_POINT('',(125.,-9.99999999999998,-100.));
#858=CARTESIAN_POINT('',(125.,-9.99999999999998,-100.));
#859=CARTESIAN_POINT('',(-125.,-10.,-100.));
#860=CARTESIAN_POINT('',(-125.,-10.,-100.));
#861=CARTESIAN_POINT('',(-125.,10.,-100.));
#862=CARTESIAN_POINT('Origin',(125.,-9.99999999999998,0.));
#863=CARTESIAN_POINT('',(125.,-9.99999999999998,100.));
#864=CARTESIAN_POINT('',(125.,-9.99999999999998,100.));
#865=CARTESIAN_POINT('',(125.,-9.99999999999998,0.));
#866=CARTESIAN_POINT('Origin',(125.,10.,0.));
#867=CARTESIAN_POINT('Origin',(-125.,10.,0.));
#868=CARTESIAN_POINT('',(-125.,-10.,100.));
#869=CARTESIAN_POINT('',(-125.,-10.,0.));
#870=CARTESIAN_POINT('',(-125.,10.,100.));
#871=CARTESIAN_POINT('Origin',(-125.,-10.,0.));
#872=CARTESIAN_POINT('',(-125.,-10.,100.));
#873=CARTESIAN_POINT('Origin',(-1.24344978758018E-13,-8.88178419700125E-15,
100.));
#874=UNCERTAINTY_MEASURE_WITH_UNIT(LENGTH_MEASURE(0.01),#878,
'DISTANCE_ACCURACY_VALUE',
'Maximum model space distance between geometric entities at asserted c
onnectivities');
#875=UNCERTAINTY_MEASURE_WITH_UNIT(LENGTH_MEASURE(0.01),#878,
'DISTANCE_ACCURACY_VALUE',
'Maximum model space distance between geometric entities at asserted c
onnectivities');
#876=(
GEOMETRIC_REPRESENTATION_CONTEXT(3)
GLOBAL_UNCERTAINTY_ASSIGNED_CONTEXT((#874))
GLOBAL_UNIT_ASSIGNED_CONTEXT((#878,#880,#881))
REPRESENTATION_CONTEXT('','3D')
);
#877=(
GEOMETRIC_REPRESENTATION_CONTEXT(3)
GLOBAL_UNCERTAINTY_ASSIGNED_CONTEXT((#875))
GLOBAL_UNIT_ASSIGNED_CONTEXT((#878,#880,#881))
REPRESENTATION_CONTEXT('','3D')
);
#878=(
LENGTH_UNIT()
NAMED_UNIT(*)
SI_UNIT(.MILLI.,.METRE.)
);
#879=(
LENGTH_UNIT()
NAMED_UNIT(*)
SI_UNIT(.CENTI.,.METRE.)
);
#880=(
NAMED_UNIT(*)
PLANE_ANGLE_UNIT()
SI_UNIT($,.RADIAN.)
);
#881=(
NAMED_UNIT(*)
SI_UNIT($,.STERADIAN.)
SOLID_ANGLE_UNIT()
);
#882=SHAPE_DEFINITION_REPRESENTATION(#883,#884);
#883=PRODUCT_DEFINITION_SHAPE('',$,#886);
#884=SHAPE_REPRESENTATION('',(#518),#876);
#885=PRODUCT_DEFINITION_CONTEXT('part definition',#890,'design');
#886=PRODUCT_DEFINITION('Wooden Base','Wooden Base',#887,#885);
#887=PRODUCT_DEFINITION_FORMATION('',$,#892);
#888=PRODUCT_RELATED_PRODUCT_CATEGORY('Wooden Base','Wooden Base',(#892));
#889=APPLICATION_PROTOCOL_DEFINITION('international standard',
'automotive_design',2009,#890);
#890=APPLICATION_CONTEXT(
'Core Data for Automotive Mechanical Design Process');
#891=PRODUCT_CONTEXT('part definition',#890,'mechanical');
#892=PRODUCT('Wooden Base','Wooden Base',$,(#891));
#893=PRESENTATION_STYLE_ASSIGNMENT((#894));
#894=SURFACE_STYLE_USAGE(.BOTH.,#895);
#895=SURFACE_SIDE_STYLE('',(#896));
#896=SURFACE_STYLE_FILL_AREA(#897);
#897=FILL_AREA_STYLE('',(#898));
#898=FILL_AREA_STYLE_COLOUR('',#899);
#899=COLOUR_RGB('',0.592156862745098,0.117647058823529,0.);
ENDSEC;
END-ISO-10303-21;
