ISO-10303-21;
HEADER;
/* Generated by software containing ST-Developer
 * from STEP Tools, Inc. (www.steptools.com) 
 */

FILE_DESCRIPTION(
/* description */ (''),
/* implementation_level */ '2;1');

FILE_NAME(
/* name */ 
'S:\\Future Scope 1\\WIP\\Client Category\\Tom\\02 Progressive Work\\B
all Track Rest Pin.stp',
/* time_stamp */ '2025-11-05T12:14:34+06:00',
/* author */ ('SD'),
/* organization */ (''),
/* preprocessor_version */ 'ST-DEVELOPER v18.1',
/* originating_system */ 'Autodesk Inventor 2021',
/* authorisation */ '');

FILE_SCHEMA (('AUTOMOTIVE_DESIGN { 1 0 10303 214 3 1 1 }'));
ENDSEC;

DATA;
#10=MECHANICAL_DESIGN_GEOMETRIC_PRESENTATION_REPRESENTATION('',(#13),#500);
#11=SHAPE_REPRESENTATION_RELATIONSHIP('SRR','None',#507,#12);
#12=ADVANCED_BREP_SHAPE_REPRESENTATION('',(#14),#499);
#13=STYLED_ITEM('',(#516),#14);
#14=MANIFOLD_SOLID_BREP('Solid2',#294);
#15=CONICAL_SURFACE('',#331,1.4,0.785398163397448);
#16=FACE_BOUND('',#59,.T.);
#17=FACE_BOUND('',#61,.T.);
#18=FACE_BOUND('',#72,.T.);
#19=PLANE('',#317);
#20=PLANE('',#318);
#21=PLANE('',#319);
#22=PLANE('',#320);
#23=PLANE('',#321);
#24=PLANE('',#322);
#25=PLANE('',#323);
#26=PLANE('',#325);
#27=PLANE('',#326);
#28=PLANE('',#327);
#29=PLANE('',#328);
#30=PLANE('',#329);
#31=PLANE('',#330);
#32=PLANE('',#336);
#33=PLANE('',#337);
#34=FACE_OUTER_BOUND('',#52,.T.);
#35=FACE_OUTER_BOUND('',#53,.T.);
#36=FACE_OUTER_BOUND('',#54,.T.);
#37=FACE_OUTER_BOUND('',#55,.T.);
#38=FACE_OUTER_BOUND('',#56,.T.);
#39=FACE_OUTER_BOUND('',#57,.T.);
#40=FACE_OUTER_BOUND('',#58,.T.);
#41=FACE_OUTER_BOUND('',#60,.T.);
#42=FACE_OUTER_BOUND('',#62,.T.);
#43=FACE_OUTER_BOUND('',#63,.T.);
#44=FACE_OUTER_BOUND('',#64,.T.);
#45=FACE_OUTER_BOUND('',#65,.T.);
#46=FACE_OUTER_BOUND('',#66,.T.);
#47=FACE_OUTER_BOUND('',#67,.T.);
#48=FACE_OUTER_BOUND('',#68,.T.);
#49=FACE_OUTER_BOUND('',#69,.T.);
#50=FACE_OUTER_BOUND('',#70,.T.);
#51=FACE_OUTER_BOUND('',#71,.T.);
#52=EDGE_LOOP('',(#200,#201,#202,#203));
#53=EDGE_LOOP('',(#204,#205,#206,#207));
#54=EDGE_LOOP('',(#208,#209,#210,#211));
#55=EDGE_LOOP('',(#212,#213,#214,#215));
#56=EDGE_LOOP('',(#216,#217,#218,#219));
#57=EDGE_LOOP('',(#220,#221,#222,#223));
#58=EDGE_LOOP('',(#224,#225,#226,#227));
#59=EDGE_LOOP('',(#228));
#60=EDGE_LOOP('',(#229,#230,#231,#232));
#61=EDGE_LOOP('',(#233));
#62=EDGE_LOOP('',(#234,#235,#236,#237));
#63=EDGE_LOOP('',(#238,#239,#240,#241));
#64=EDGE_LOOP('',(#242,#243,#244,#245));
#65=EDGE_LOOP('',(#246,#247,#248,#249));
#66=EDGE_LOOP('',(#250,#251,#252,#253));
#67=EDGE_LOOP('',(#254,#255,#256,#257));
#68=EDGE_LOOP('',(#258,#259,#260,#261,#262));
#69=EDGE_LOOP('',(#263,#264,#265,#266,#267));
#70=EDGE_LOOP('',(#268));
#71=EDGE_LOOP('',(#269,#270,#271,#272));
#72=EDGE_LOOP('',(#273));
#73=LINE('',#424,#104);
#74=LINE('',#429,#105);
#75=LINE('',#431,#106);
#76=LINE('',#433,#107);
#77=LINE('',#434,#108);
#78=LINE('',#438,#109);
#79=LINE('',#440,#110);
#80=LINE('',#442,#111);
#81=LINE('',#443,#112);
#82=LINE('',#445,#113);
#83=LINE('',#446,#114);
#84=LINE('',#448,#115);
#85=LINE('',#449,#116);
#86=LINE('',#452,#117);
#87=LINE('',#454,#118);
#88=LINE('',#455,#119);
#89=LINE('',#458,#120);
#90=LINE('',#459,#121);
#91=LINE('',#466,#122);
#92=LINE('',#467,#123);
#93=LINE('',#468,#124);
#94=LINE('',#471,#125);
#95=LINE('',#472,#126);
#96=LINE('',#475,#127);
#97=LINE('',#477,#128);
#98=LINE('',#478,#129);
#99=LINE('',#480,#130);
#100=LINE('',#481,#131);
#101=LINE('',#483,#132);
#102=LINE('',#489,#133);
#103=LINE('',#494,#134);
#104=VECTOR('',#344,1.2295);
#105=VECTOR('',#349,10.);
#106=VECTOR('',#350,10.);
#107=VECTOR('',#351,10.);
#108=VECTOR('',#352,10.);
#109=VECTOR('',#355,10.);
#110=VECTOR('',#356,10.);
#111=VECTOR('',#357,10.);
#112=VECTOR('',#358,10.);
#113=VECTOR('',#361,10.);
#114=VECTOR('',#362,10.);
#115=VECTOR('',#365,10.);
#116=VECTOR('',#366,10.);
#117=VECTOR('',#369,10.);
#118=VECTOR('',#370,10.);
#119=VECTOR('',#371,10.);
#120=VECTOR('',#374,10.);
#121=VECTOR('',#375,10.);
#122=VECTOR('',#382,10.);
#123=VECTOR('',#383,10.);
#124=VECTOR('',#384,10.);
#125=VECTOR('',#387,10.);
#126=VECTOR('',#388,10.);
#127=VECTOR('',#391,10.);
#128=VECTOR('',#392,10.);
#129=VECTOR('',#393,10.);
#130=VECTOR('',#396,10.);
#131=VECTOR('',#397,10.);
#132=VECTOR('',#400,10.);
#133=VECTOR('',#407,1.4);
#134=VECTOR('',#414,1.5);
#135=CIRCLE('',#315,1.2295);
#136=CIRCLE('',#316,1.2295);
#137=CIRCLE('',#324,1.5);
#138=CIRCLE('',#332,1.3);
#139=CIRCLE('',#333,1.5);
#140=CIRCLE('',#334,1.5);
#141=VERTEX_POINT('',#421);
#142=VERTEX_POINT('',#423);
#143=VERTEX_POINT('',#427);
#144=VERTEX_POINT('',#428);
#145=VERTEX_POINT('',#430);
#146=VERTEX_POINT('',#432);
#147=VERTEX_POINT('',#436);
#148=VERTEX_POINT('',#437);
#149=VERTEX_POINT('',#439);
#150=VERTEX_POINT('',#441);
#151=VERTEX_POINT('',#451);
#152=VERTEX_POINT('',#453);
#153=VERTEX_POINT('',#457);
#154=VERTEX_POINT('',#461);
#155=VERTEX_POINT('',#464);
#156=VERTEX_POINT('',#465);
#157=VERTEX_POINT('',#470);
#158=VERTEX_POINT('',#474);
#159=VERTEX_POINT('',#476);
#160=VERTEX_POINT('',#486);
#161=VERTEX_POINT('',#488);
#162=VERTEX_POINT('',#490);
#163=EDGE_CURVE('',#141,#141,#135,.T.);
#164=EDGE_CURVE('',#141,#142,#73,.T.);
#165=EDGE_CURVE('',#142,#142,#136,.T.);
#166=EDGE_CURVE('',#143,#144,#74,.T.);
#167=EDGE_CURVE('',#144,#145,#75,.T.);
#168=EDGE_CURVE('',#145,#146,#76,.T.);
#169=EDGE_CURVE('',#146,#143,#77,.T.);
#170=EDGE_CURVE('',#147,#148,#78,.T.);
#171=EDGE_CURVE('',#148,#149,#79,.T.);
#172=EDGE_CURVE('',#149,#150,#80,.T.);
#173=EDGE_CURVE('',#147,#150,#81,.T.);
#174=EDGE_CURVE('',#144,#149,#82,.T.);
#175=EDGE_CURVE('',#148,#145,#83,.T.);
#176=EDGE_CURVE('',#150,#143,#84,.T.);
#177=EDGE_CURVE('',#146,#147,#85,.T.);
#178=EDGE_CURVE('',#148,#151,#86,.T.);
#179=EDGE_CURVE('',#152,#151,#87,.T.);
#180=EDGE_CURVE('',#145,#152,#88,.T.);
#181=EDGE_CURVE('',#147,#153,#89,.T.);
#182=EDGE_CURVE('',#151,#153,#90,.T.);
#183=EDGE_CURVE('',#154,#154,#137,.T.);
#184=EDGE_CURVE('',#155,#156,#91,.T.);
#185=EDGE_CURVE('',#156,#151,#92,.T.);
#186=EDGE_CURVE('',#155,#153,#93,.T.);
#187=EDGE_CURVE('',#156,#157,#94,.T.);
#188=EDGE_CURVE('',#157,#152,#95,.T.);
#189=EDGE_CURVE('',#153,#158,#96,.T.);
#190=EDGE_CURVE('',#158,#159,#97,.T.);
#191=EDGE_CURVE('',#159,#155,#98,.T.);
#192=EDGE_CURVE('',#157,#159,#99,.T.);
#193=EDGE_CURVE('',#158,#152,#100,.T.);
#194=EDGE_CURVE('',#146,#158,#101,.T.);
#195=EDGE_CURVE('',#160,#160,#138,.T.);
#196=EDGE_CURVE('',#160,#161,#102,.T.);
#197=EDGE_CURVE('',#161,#162,#139,.T.);
#198=EDGE_CURVE('',#162,#161,#140,.T.);
#199=EDGE_CURVE('',#162,#154,#103,.T.);
#200=ORIENTED_EDGE('',*,*,#163,.F.);
#201=ORIENTED_EDGE('',*,*,#164,.T.);
#202=ORIENTED_EDGE('',*,*,#165,.F.);
#203=ORIENTED_EDGE('',*,*,#164,.F.);
#204=ORIENTED_EDGE('',*,*,#166,.T.);
#205=ORIENTED_EDGE('',*,*,#167,.T.);
#206=ORIENTED_EDGE('',*,*,#168,.T.);
#207=ORIENTED_EDGE('',*,*,#169,.T.);
#208=ORIENTED_EDGE('',*,*,#170,.T.);
#209=ORIENTED_EDGE('',*,*,#171,.T.);
#210=ORIENTED_EDGE('',*,*,#172,.T.);
#211=ORIENTED_EDGE('',*,*,#173,.F.);
#212=ORIENTED_EDGE('',*,*,#174,.T.);
#213=ORIENTED_EDGE('',*,*,#171,.F.);
#214=ORIENTED_EDGE('',*,*,#175,.T.);
#215=ORIENTED_EDGE('',*,*,#167,.F.);
#216=ORIENTED_EDGE('',*,*,#176,.T.);
#217=ORIENTED_EDGE('',*,*,#169,.F.);
#218=ORIENTED_EDGE('',*,*,#177,.T.);
#219=ORIENTED_EDGE('',*,*,#173,.T.);
#220=ORIENTED_EDGE('',*,*,#175,.F.);
#221=ORIENTED_EDGE('',*,*,#178,.T.);
#222=ORIENTED_EDGE('',*,*,#179,.F.);
#223=ORIENTED_EDGE('',*,*,#180,.F.);
#224=ORIENTED_EDGE('',*,*,#170,.F.);
#225=ORIENTED_EDGE('',*,*,#181,.T.);
#226=ORIENTED_EDGE('',*,*,#182,.F.);
#227=ORIENTED_EDGE('',*,*,#178,.F.);
#228=ORIENTED_EDGE('',*,*,#165,.T.);
#229=ORIENTED_EDGE('',*,*,#172,.F.);
#230=ORIENTED_EDGE('',*,*,#174,.F.);
#231=ORIENTED_EDGE('',*,*,#166,.F.);
#232=ORIENTED_EDGE('',*,*,#176,.F.);
#233=ORIENTED_EDGE('',*,*,#183,.F.);
#234=ORIENTED_EDGE('',*,*,#184,.T.);
#235=ORIENTED_EDGE('',*,*,#185,.T.);
#236=ORIENTED_EDGE('',*,*,#182,.T.);
#237=ORIENTED_EDGE('',*,*,#186,.F.);
#238=ORIENTED_EDGE('',*,*,#187,.T.);
#239=ORIENTED_EDGE('',*,*,#188,.T.);
#240=ORIENTED_EDGE('',*,*,#179,.T.);
#241=ORIENTED_EDGE('',*,*,#185,.F.);
#242=ORIENTED_EDGE('',*,*,#189,.T.);
#243=ORIENTED_EDGE('',*,*,#190,.T.);
#244=ORIENTED_EDGE('',*,*,#191,.T.);
#245=ORIENTED_EDGE('',*,*,#186,.T.);
#246=ORIENTED_EDGE('',*,*,#192,.T.);
#247=ORIENTED_EDGE('',*,*,#190,.F.);
#248=ORIENTED_EDGE('',*,*,#193,.T.);
#249=ORIENTED_EDGE('',*,*,#188,.F.);
#250=ORIENTED_EDGE('',*,*,#177,.F.);
#251=ORIENTED_EDGE('',*,*,#194,.T.);
#252=ORIENTED_EDGE('',*,*,#189,.F.);
#253=ORIENTED_EDGE('',*,*,#181,.F.);
#254=ORIENTED_EDGE('',*,*,#184,.F.);
#255=ORIENTED_EDGE('',*,*,#191,.F.);
#256=ORIENTED_EDGE('',*,*,#192,.F.);
#257=ORIENTED_EDGE('',*,*,#187,.F.);
#258=ORIENTED_EDGE('',*,*,#195,.T.);
#259=ORIENTED_EDGE('',*,*,#196,.T.);
#260=ORIENTED_EDGE('',*,*,#197,.T.);
#261=ORIENTED_EDGE('',*,*,#198,.T.);
#262=ORIENTED_EDGE('',*,*,#196,.F.);
#263=ORIENTED_EDGE('',*,*,#197,.F.);
#264=ORIENTED_EDGE('',*,*,#198,.F.);
#265=ORIENTED_EDGE('',*,*,#199,.T.);
#266=ORIENTED_EDGE('',*,*,#183,.T.);
#267=ORIENTED_EDGE('',*,*,#199,.F.);
#268=ORIENTED_EDGE('',*,*,#195,.F.);
#269=ORIENTED_EDGE('',*,*,#168,.F.);
#270=ORIENTED_EDGE('',*,*,#180,.T.);
#271=ORIENTED_EDGE('',*,*,#193,.F.);
#272=ORIENTED_EDGE('',*,*,#194,.F.);
#273=ORIENTED_EDGE('',*,*,#163,.T.);
#274=CYLINDRICAL_SURFACE('',#314,1.2295);
#275=CYLINDRICAL_SURFACE('',#335,1.5);
#276=ADVANCED_FACE('',(#34),#274,.F.);
#277=ADVANCED_FACE('',(#35),#19,.T.);
#278=ADVANCED_FACE('',(#36),#20,.T.);
#279=ADVANCED_FACE('',(#37),#21,.T.);
#280=ADVANCED_FACE('',(#38),#22,.T.);
#281=ADVANCED_FACE('',(#39),#23,.T.);
#282=ADVANCED_FACE('',(#40,#16),#24,.T.);
#283=ADVANCED_FACE('',(#41,#17),#25,.T.);
#284=ADVANCED_FACE('',(#42),#26,.T.);
#285=ADVANCED_FACE('',(#43),#27,.T.);
#286=ADVANCED_FACE('',(#44),#28,.T.);
#287=ADVANCED_FACE('',(#45),#29,.T.);
#288=ADVANCED_FACE('',(#46),#30,.T.);
#289=ADVANCED_FACE('',(#47),#31,.F.);
#290=ADVANCED_FACE('',(#48),#15,.T.);
#291=ADVANCED_FACE('',(#49),#275,.T.);
#292=ADVANCED_FACE('',(#50),#32,.T.);
#293=ADVANCED_FACE('',(#51,#18),#33,.T.);
#294=CLOSED_SHELL('',(#276,#277,#278,#279,#280,#281,#282,#283,#284,#285,
#286,#287,#288,#289,#290,#291,#292,#293));
#295=DERIVED_UNIT_ELEMENT(#297,1.);
#296=DERIVED_UNIT_ELEMENT(#502,3.);
#297=(
MASS_UNIT()
NAMED_UNIT(*)
SI_UNIT($,.GRAM.)
);
#298=DERIVED_UNIT((#295,#296));
#299=MEASURE_REPRESENTATION_ITEM('density measure',
POSITIVE_RATIO_MEASURE(8.874),#298);
#300=PROPERTY_DEFINITION_REPRESENTATION(#305,#302);
#301=PROPERTY_DEFINITION_REPRESENTATION(#306,#303);
#302=REPRESENTATION('material name',(#304),#499);
#303=REPRESENTATION('density',(#299),#499);
#304=DESCRIPTIVE_REPRESENTATION_ITEM('Bronze, Soft Tin',
'Bronze, Soft Tin');
#305=PROPERTY_DEFINITION('material property','material name',#509);
#306=PROPERTY_DEFINITION('material property','density of part',#509);
#307=DATE_TIME_ROLE('creation_date');
#308=APPLIED_DATE_AND_TIME_ASSIGNMENT(#309,#307,(#509));
#309=DATE_AND_TIME(#310,#311);
#310=CALENDAR_DATE(2025,16,9);
#311=LOCAL_TIME(0,0,0.,#312);
#312=COORDINATED_UNIVERSAL_TIME_OFFSET(0,0,.BEHIND.);
#313=AXIS2_PLACEMENT_3D('placement',#419,#338,#339);
#314=AXIS2_PLACEMENT_3D('',#420,#340,#341);
#315=AXIS2_PLACEMENT_3D('',#422,#342,#343);
#316=AXIS2_PLACEMENT_3D('',#425,#345,#346);
#317=AXIS2_PLACEMENT_3D('',#426,#347,#348);
#318=AXIS2_PLACEMENT_3D('',#435,#353,#354);
#319=AXIS2_PLACEMENT_3D('',#444,#359,#360);
#320=AXIS2_PLACEMENT_3D('',#447,#363,#364);
#321=AXIS2_PLACEMENT_3D('',#450,#367,#368);
#322=AXIS2_PLACEMENT_3D('',#456,#372,#373);
#323=AXIS2_PLACEMENT_3D('',#460,#376,#377);
#324=AXIS2_PLACEMENT_3D('',#462,#378,#379);
#325=AXIS2_PLACEMENT_3D('',#463,#380,#381);
#326=AXIS2_PLACEMENT_3D('',#469,#385,#386);
#327=AXIS2_PLACEMENT_3D('',#473,#389,#390);
#328=AXIS2_PLACEMENT_3D('',#479,#394,#395);
#329=AXIS2_PLACEMENT_3D('',#482,#398,#399);
#330=AXIS2_PLACEMENT_3D('',#484,#401,#402);
#331=AXIS2_PLACEMENT_3D('',#485,#403,#404);
#332=AXIS2_PLACEMENT_3D('',#487,#405,#406);
#333=AXIS2_PLACEMENT_3D('',#491,#408,#409);
#334=AXIS2_PLACEMENT_3D('',#492,#410,#411);
#335=AXIS2_PLACEMENT_3D('',#493,#412,#413);
#336=AXIS2_PLACEMENT_3D('',#495,#415,#416);
#337=AXIS2_PLACEMENT_3D('',#496,#417,#418);
#338=DIRECTION('axis',(0.,0.,1.));
#339=DIRECTION('refdir',(1.,0.,0.));
#340=DIRECTION('center_axis',(0.,0.,-1.));
#341=DIRECTION('ref_axis',(-1.,0.,0.));
#342=DIRECTION('center_axis',(0.,0.,1.));
#343=DIRECTION('ref_axis',(-1.,0.,0.));
#344=DIRECTION('',(0.,0.,1.));
#345=DIRECTION('center_axis',(0.,0.,-1.));
#346=DIRECTION('ref_axis',(-1.,0.,0.));
#347=DIRECTION('center_axis',(0.,0.707106781186548,-0.707106781186547));
#348=DIRECTION('ref_axis',(-1.,0.,0.));
#349=DIRECTION('',(1.,0.,0.));
#350=DIRECTION('',(0.577350269189626,-0.577350269189626,-0.577350269189626));
#351=DIRECTION('',(-1.,0.,0.));
#352=DIRECTION('',(0.577350269189626,0.577350269189626,0.577350269189625));
#353=DIRECTION('center_axis',(0.,0.707106781186548,0.707106781186547));
#354=DIRECTION('ref_axis',(1.,0.,0.));
#355=DIRECTION('',(1.,0.,0.));
#356=DIRECTION('',(-0.577350269189626,0.577350269189626,-0.577350269189625));
#357=DIRECTION('',(-1.,0.,0.));
#358=DIRECTION('',(0.577350269189625,0.577350269189626,-0.577350269189626));
#359=DIRECTION('center_axis',(0.707106781186547,0.707106781186548,0.));
#360=DIRECTION('ref_axis',(0.,0.,-1.));
#361=DIRECTION('',(0.,0.,1.));
#362=DIRECTION('',(0.,0.,-1.));
#363=DIRECTION('center_axis',(-0.707106781186547,0.707106781186548,0.));
#364=DIRECTION('ref_axis',(0.,0.,1.));
#365=DIRECTION('',(0.,0.,-1.));
#366=DIRECTION('',(0.,0.,1.));
#367=DIRECTION('center_axis',(1.,0.,0.));
#368=DIRECTION('ref_axis',(0.,0.,1.));
#369=DIRECTION('',(0.,-1.,0.));
#370=DIRECTION('',(0.,0.,1.));
#371=DIRECTION('',(0.,-1.,0.));
#372=DIRECTION('center_axis',(0.,0.,1.));
#373=DIRECTION('ref_axis',(-1.,0.,0.));
#374=DIRECTION('',(0.,-1.,0.));
#375=DIRECTION('',(-1.,0.,0.));
#376=DIRECTION('center_axis',(0.,1.,0.));
#377=DIRECTION('ref_axis',(0.,0.,1.));
#378=DIRECTION('center_axis',(0.,1.,0.));
#379=DIRECTION('ref_axis',(-1.,0.,0.));
#380=DIRECTION('center_axis',(0.,-0.707106781186548,0.707106781186548));
#381=DIRECTION('ref_axis',(1.,0.,0.));
#382=DIRECTION('',(1.,0.,0.));
#383=DIRECTION('',(0.577350269189626,0.577350269189626,0.577350269189625));
#384=DIRECTION('',(-0.577350269189625,0.577350269189626,0.577350269189626));
#385=DIRECTION('center_axis',(0.707106781186548,-0.707106781186548,0.));
#386=DIRECTION('ref_axis',(0.,0.,-1.));
#387=DIRECTION('',(0.,0.,-1.));
#388=DIRECTION('',(0.577350269189625,0.577350269189626,-0.577350269189626));
#389=DIRECTION('center_axis',(-0.707106781186548,-0.707106781186548,0.));
#390=DIRECTION('ref_axis',(0.,0.,1.));
#391=DIRECTION('',(0.,0.,-1.));
#392=DIRECTION('',(0.577350269189626,-0.577350269189626,0.577350269189626));
#393=DIRECTION('',(0.,0.,1.));
#394=DIRECTION('center_axis',(0.,-0.707106781186548,-0.707106781186548));
#395=DIRECTION('ref_axis',(-1.,0.,0.));
#396=DIRECTION('',(-1.,0.,0.));
#397=DIRECTION('',(1.,0.,0.));
#398=DIRECTION('center_axis',(-1.,0.,0.));
#399=DIRECTION('ref_axis',(0.,0.,-1.));
#400=DIRECTION('',(0.,-1.,0.));
#401=DIRECTION('center_axis',(0.,1.,0.));
#402=DIRECTION('ref_axis',(0.,0.,1.));
#403=DIRECTION('center_axis',(0.,-1.,0.));
#404=DIRECTION('ref_axis',(1.,0.,0.));
#405=DIRECTION('center_axis',(0.,-1.,0.));
#406=DIRECTION('ref_axis',(1.,0.,0.));
#407=DIRECTION('',(-0.707106781186548,-0.707106781186548,8.65956056235494E-17));
#408=DIRECTION('center_axis',(0.,1.,0.));
#409=DIRECTION('ref_axis',(1.,0.,0.));
#410=DIRECTION('center_axis',(0.,1.,0.));
#411=DIRECTION('ref_axis',(1.,0.,0.));
#412=DIRECTION('center_axis',(0.,1.,0.));
#413=DIRECTION('ref_axis',(-1.,0.,0.));
#414=DIRECTION('',(0.,-1.,0.));
#415=DIRECTION('center_axis',(0.,1.,0.));
#416=DIRECTION('ref_axis',(0.,0.,1.));
#417=DIRECTION('center_axis',(0.,0.,-1.));
#418=DIRECTION('ref_axis',(1.,0.,0.));
#419=CARTESIAN_POINT('',(0.,0.,0.));
#420=CARTESIAN_POINT('Origin',(0.,-10.5,40.3792402008342));
#421=CARTESIAN_POINT('',(1.2295,-10.5,-2.));
#422=CARTESIAN_POINT('Origin',(0.,-10.5,-2.));
#423=CARTESIAN_POINT('',(1.2295,-10.5,2.));
#424=CARTESIAN_POINT('',(1.2295,-10.5,40.3792402008342));
#425=CARTESIAN_POINT('Origin',(0.,-10.5,2.));
#426=CARTESIAN_POINT('Origin',(-1.,-0.1,-1.9));
#427=CARTESIAN_POINT('',(-1.8,0.,-1.8));
#428=CARTESIAN_POINT('',(1.8,0.,-1.8));
#429=CARTESIAN_POINT('',(-1.,0.,-1.8));
#430=CARTESIAN_POINT('',(2.,-0.2,-2.));
#431=CARTESIAN_POINT('',(1.8,0.,-1.8));
#432=CARTESIAN_POINT('',(-2.,-0.2,-2.));
#433=CARTESIAN_POINT('',(-1.,-0.2,-2.));
#434=CARTESIAN_POINT('',(-2.,-0.2,-2.));
#435=CARTESIAN_POINT('Origin',(1.,-0.1,1.9));
#436=CARTESIAN_POINT('',(-2.,-0.2,2.));
#437=CARTESIAN_POINT('',(2.,-0.2,2.));
#438=CARTESIAN_POINT('',(1.,-0.2,2.));
#439=CARTESIAN_POINT('',(1.8,0.,1.8));
#440=CARTESIAN_POINT('',(2.,-0.2,2.));
#441=CARTESIAN_POINT('',(-1.8,0.,1.8));
#442=CARTESIAN_POINT('',(1.,0.,1.8));
#443=CARTESIAN_POINT('',(-2.,-0.2,2.));
#444=CARTESIAN_POINT('Origin',(1.9,-0.1,-1.));
#445=CARTESIAN_POINT('',(1.8,0.,-1.));
#446=CARTESIAN_POINT('',(2.,-0.2,-1.));
#447=CARTESIAN_POINT('Origin',(-1.9,-0.1,1.));
#448=CARTESIAN_POINT('',(-1.8,0.,1.));
#449=CARTESIAN_POINT('',(-2.,-0.2,1.));
#450=CARTESIAN_POINT('Origin',(2.,0.,-2.));
#451=CARTESIAN_POINT('',(2.,-20.8,2.));
#452=CARTESIAN_POINT('',(2.,0.,2.));
#453=CARTESIAN_POINT('',(2.,-20.8,-2.));
#454=CARTESIAN_POINT('',(2.,-20.8,-1.));
#455=CARTESIAN_POINT('',(2.,0.,-2.));
#456=CARTESIAN_POINT('Origin',(2.,0.,2.));
#457=CARTESIAN_POINT('',(-2.,-20.8,2.));
#458=CARTESIAN_POINT('',(-2.,0.,2.));
#459=CARTESIAN_POINT('',(1.,-20.8,2.));
#460=CARTESIAN_POINT('Origin',(0.,0.,0.));
#461=CARTESIAN_POINT('',(1.5,0.,-1.83697019872103E-16));
#462=CARTESIAN_POINT('Origin',(0.,0.,0.));
#463=CARTESIAN_POINT('Origin',(1.,-20.9,1.9));
#464=CARTESIAN_POINT('',(-1.8,-21.,1.8));
#465=CARTESIAN_POINT('',(1.8,-21.,1.8));
#466=CARTESIAN_POINT('',(1.,-21.,1.8));
#467=CARTESIAN_POINT('',(1.8,-21.,1.8));
#468=CARTESIAN_POINT('',(-1.8,-21.,1.8));
#469=CARTESIAN_POINT('Origin',(1.9,-20.9,-1.));
#470=CARTESIAN_POINT('',(1.8,-21.,-1.8));
#471=CARTESIAN_POINT('',(1.8,-21.,-1.));
#472=CARTESIAN_POINT('',(1.8,-21.,-1.8));
#473=CARTESIAN_POINT('Origin',(-1.9,-20.9,1.));
#474=CARTESIAN_POINT('',(-2.,-20.8,-2.));
#475=CARTESIAN_POINT('',(-2.,-20.8,1.));
#476=CARTESIAN_POINT('',(-1.8,-21.,-1.8));
#477=CARTESIAN_POINT('',(-2.,-20.8,-2.));
#478=CARTESIAN_POINT('',(-1.8,-21.,1.));
#479=CARTESIAN_POINT('Origin',(-1.,-20.9,-1.9));
#480=CARTESIAN_POINT('',(-1.,-21.,-1.8));
#481=CARTESIAN_POINT('',(-1.,-20.8,-2.));
#482=CARTESIAN_POINT('Origin',(-2.,0.,2.));
#483=CARTESIAN_POINT('',(-2.,0.,-2.));
#484=CARTESIAN_POINT('Origin',(0.,-21.,0.));
#485=CARTESIAN_POINT('Origin',(0.,20.9,0.));
#486=CARTESIAN_POINT('',(-1.3,21.,-1.59204083889156E-16));
#487=CARTESIAN_POINT('Origin',(0.,21.,0.));
#488=CARTESIAN_POINT('',(-1.5,20.8,1.83697019872103E-16));
#489=CARTESIAN_POINT('',(-1.4,20.9,1.71450551880629E-16));
#490=CARTESIAN_POINT('',(1.5,20.8,-1.83697019872103E-16));
#491=CARTESIAN_POINT('Origin',(0.,20.8,0.));
#492=CARTESIAN_POINT('Origin',(0.,20.8,0.));
#493=CARTESIAN_POINT('Origin',(0.,0.,0.));
#494=CARTESIAN_POINT('',(1.5,0.,-1.83697019872103E-16));
#495=CARTESIAN_POINT('Origin',(0.,21.,0.));
#496=CARTESIAN_POINT('Origin',(-2.,0.,-2.));
#497=UNCERTAINTY_MEASURE_WITH_UNIT(LENGTH_MEASURE(0.01),#501,
'DISTANCE_ACCURACY_VALUE',
'Maximum model space distance between geometric entities at asserted c
onnectivities');
#498=UNCERTAINTY_MEASURE_WITH_UNIT(LENGTH_MEASURE(0.01),#501,
'DISTANCE_ACCURACY_VALUE',
'Maximum model space distance between geometric entities at asserted c
onnectivities');
#499=(
GEOMETRIC_REPRESENTATION_CONTEXT(3)
GLOBAL_UNCERTAINTY_ASSIGNED_CONTEXT((#497))
GLOBAL_UNIT_ASSIGNED_CONTEXT((#501,#503,#504))
REPRESENTATION_CONTEXT('','3D')
);
#500=(
GEOMETRIC_REPRESENTATION_CONTEXT(3)
GLOBAL_UNCERTAINTY_ASSIGNED_CONTEXT((#498))
GLOBAL_UNIT_ASSIGNED_CONTEXT((#501,#503,#504))
REPRESENTATION_CONTEXT('','3D')
);
#501=(
LENGTH_UNIT()
NAMED_UNIT(*)
SI_UNIT(.MILLI.,.METRE.)
);
#502=(
LENGTH_UNIT()
NAMED_UNIT(*)
SI_UNIT(.CENTI.,.METRE.)
);
#503=(
NAMED_UNIT(*)
PLANE_ANGLE_UNIT()
SI_UNIT($,.RADIAN.)
);
#504=(
NAMED_UNIT(*)
SI_UNIT($,.STERADIAN.)
SOLID_ANGLE_UNIT()
);
#505=SHAPE_DEFINITION_REPRESENTATION(#506,#507);
#506=PRODUCT_DEFINITION_SHAPE('',$,#509);
#507=SHAPE_REPRESENTATION('',(#313),#499);
#508=PRODUCT_DEFINITION_CONTEXT('part definition',#513,'design');
#509=PRODUCT_DEFINITION('Ball Track Rest Pin','Ball Track Rest Pin',#510,
#508);
#510=PRODUCT_DEFINITION_FORMATION('',$,#515);
#511=PRODUCT_RELATED_PRODUCT_CATEGORY('Ball Track Rest Pin',
'Ball Track Rest Pin',(#515));
#512=APPLICATION_PROTOCOL_DEFINITION('international standard',
'automotive_design',2009,#513);
#513=APPLICATION_CONTEXT(
'Core Data for Automotive Mechanical Design Process');
#514=PRODUCT_CONTEXT('part definition',#513,'mechanical');
#515=PRODUCT('Ball Track Rest Pin','Ball Track Rest Pin',$,(#514));
#516=PRESENTATION_STYLE_ASSIGNMENT((#517));
#517=SURFACE_STYLE_USAGE(.BOTH.,#520);
#518=SURFACE_STYLE_RENDERING_WITH_PROPERTIES($,#524,(#519));
#519=SURFACE_STYLE_TRANSPARENT(0.);
#520=SURFACE_SIDE_STYLE('',(#521,#518));
#521=SURFACE_STYLE_FILL_AREA(#522);
#522=FILL_AREA_STYLE('',(#523));
#523=FILL_AREA_STYLE_COLOUR('',#524);
#524=COLOUR_RGB('',0.643137254901961,0.52156862745098,0.384313725490196);
ENDSEC;
END-ISO-10303-21;
