ISO-10303-21;
HEADER;
/* Generated by software containing ST-Developer
 * from STEP Tools, Inc. (www.steptools.com) 
 */

FILE_DESCRIPTION(
/* description */ (''),
/* implementation_level */ '2;1');

FILE_NAME(
/* name */ 
'S:\\Future Scope 1\\WIP\\Client Category\\Tom\\02 Progressive Work\\B
all Track Support.stp',
/* time_stamp */ '2025-11-05T12:14:34+06:00',
/* author */ ('SD'),
/* organization */ (''),
/* preprocessor_version */ 'ST-DEVELOPER v18.1',
/* originating_system */ 'Autodesk Inventor 2021',
/* authorisation */ '');

FILE_SCHEMA (('AUTOMOTIVE_DESIGN { 1 0 10303 214 3 1 1 }'));
ENDSEC;

DATA;
#10=MECHANICAL_DESIGN_GEOMETRIC_PRESENTATION_REPRESENTATION('',(#13),#342);
#11=SHAPE_REPRESENTATION_RELATIONSHIP('SRR','None',#349,#12);
#12=ADVANCED_BREP_SHAPE_REPRESENTATION('',(#14),#341);
#13=STYLED_ITEM('',(#358),#14);
#14=MANIFOLD_SOLID_BREP('Solid2',#180);
#15=CONICAL_SURFACE('',#218,1.4,0.785398163397448);
#16=CONICAL_SURFACE('',#224,1.4,0.785398163397448);
#17=FACE_BOUND('',#42,.T.);
#18=FACE_BOUND('',#44,.T.);
#19=FACE_BOUND('',#47,.T.);
#20=FACE_BOUND('',#49,.T.);
#21=PLANE('',#203);
#22=PLANE('',#205);
#23=PLANE('',#210);
#24=PLANE('',#212);
#25=PLANE('',#223);
#26=PLANE('',#226);
#27=FACE_OUTER_BOUND('',#40,.T.);
#28=FACE_OUTER_BOUND('',#41,.T.);
#29=FACE_OUTER_BOUND('',#43,.T.);
#30=FACE_OUTER_BOUND('',#45,.T.);
#31=FACE_OUTER_BOUND('',#46,.T.);
#32=FACE_OUTER_BOUND('',#48,.T.);
#33=FACE_OUTER_BOUND('',#50,.T.);
#34=FACE_OUTER_BOUND('',#51,.T.);
#35=FACE_OUTER_BOUND('',#52,.T.);
#36=FACE_OUTER_BOUND('',#53,.T.);
#37=FACE_OUTER_BOUND('',#54,.T.);
#38=FACE_OUTER_BOUND('',#55,.T.);
#39=FACE_OUTER_BOUND('',#56,.T.);
#40=EDGE_LOOP('',(#120,#121,#122,#123));
#41=EDGE_LOOP('',(#124));
#42=EDGE_LOOP('',(#125));
#43=EDGE_LOOP('',(#126));
#44=EDGE_LOOP('',(#127));
#45=EDGE_LOOP('',(#128,#129,#130,#131));
#46=EDGE_LOOP('',(#132));
#47=EDGE_LOOP('',(#133));
#48=EDGE_LOOP('',(#134));
#49=EDGE_LOOP('',(#135));
#50=EDGE_LOOP('',(#136,#137,#138,#139,#140));
#51=EDGE_LOOP('',(#141,#142,#143,#144));
#52=EDGE_LOOP('',(#145,#146,#147,#148,#149));
#53=EDGE_LOOP('',(#150,#151,#152,#153,#154));
#54=EDGE_LOOP('',(#155));
#55=EDGE_LOOP('',(#156,#157,#158,#159,#160));
#56=EDGE_LOOP('',(#161));
#57=LINE('',#295,#64);
#58=LINE('',#307,#65);
#59=LINE('',#317,#66);
#60=LINE('',#322,#67);
#61=LINE('',#326,#68);
#62=LINE('',#332,#69);
#63=LINE('',#337,#70);
#64=VECTOR('',#233,1.15);
#65=VECTOR('',#248,1.15);
#66=VECTOR('',#261,1.5);
#67=VECTOR('',#268,1.5);
#68=VECTOR('',#273,1.4);
#69=VECTOR('',#280,1.5);
#70=VECTOR('',#287,1.4);
#71=CIRCLE('',#201,1.15);
#72=CIRCLE('',#202,1.15);
#73=CIRCLE('',#204,1.5);
#74=CIRCLE('',#206,1.5);
#75=CIRCLE('',#208,1.15);
#76=CIRCLE('',#209,1.15);
#77=CIRCLE('',#211,1.5);
#78=CIRCLE('',#213,1.5);
#79=CIRCLE('',#215,1.5);
#80=CIRCLE('',#216,1.5);
#81=CIRCLE('',#219,1.3);
#82=CIRCLE('',#221,1.5);
#83=CIRCLE('',#222,1.5);
#84=CIRCLE('',#225,1.3);
#85=VERTEX_POINT('',#292);
#86=VERTEX_POINT('',#294);
#87=VERTEX_POINT('',#298);
#88=VERTEX_POINT('',#301);
#89=VERTEX_POINT('',#304);
#90=VERTEX_POINT('',#306);
#91=VERTEX_POINT('',#310);
#92=VERTEX_POINT('',#313);
#93=VERTEX_POINT('',#316);
#94=VERTEX_POINT('',#318);
#95=VERTEX_POINT('',#324);
#96=VERTEX_POINT('',#328);
#97=VERTEX_POINT('',#329);
#98=VERTEX_POINT('',#335);
#99=EDGE_CURVE('',#85,#85,#71,.T.);
#100=EDGE_CURVE('',#85,#86,#57,.T.);
#101=EDGE_CURVE('',#86,#86,#72,.T.);
#102=EDGE_CURVE('',#87,#87,#73,.T.);
#103=EDGE_CURVE('',#88,#88,#74,.T.);
#104=EDGE_CURVE('',#89,#89,#75,.T.);
#105=EDGE_CURVE('',#89,#90,#58,.T.);
#106=EDGE_CURVE('',#90,#90,#76,.T.);
#107=EDGE_CURVE('',#91,#91,#77,.T.);
#108=EDGE_CURVE('',#92,#92,#78,.T.);
#109=EDGE_CURVE('',#92,#93,#59,.T.);
#110=EDGE_CURVE('',#94,#93,#79,.T.);
#111=EDGE_CURVE('',#93,#94,#80,.T.);
#112=EDGE_CURVE('',#88,#91,#60,.T.);
#113=EDGE_CURVE('',#95,#95,#81,.T.);
#114=EDGE_CURVE('',#95,#94,#61,.T.);
#115=EDGE_CURVE('',#96,#97,#82,.T.);
#116=EDGE_CURVE('',#97,#96,#83,.T.);
#117=EDGE_CURVE('',#97,#87,#62,.T.);
#118=EDGE_CURVE('',#98,#98,#84,.T.);
#119=EDGE_CURVE('',#98,#96,#63,.T.);
#120=ORIENTED_EDGE('',*,*,#99,.T.);
#121=ORIENTED_EDGE('',*,*,#100,.T.);
#122=ORIENTED_EDGE('',*,*,#101,.F.);
#123=ORIENTED_EDGE('',*,*,#100,.F.);
#124=ORIENTED_EDGE('',*,*,#102,.F.);
#125=ORIENTED_EDGE('',*,*,#99,.F.);
#126=ORIENTED_EDGE('',*,*,#103,.F.);
#127=ORIENTED_EDGE('',*,*,#101,.T.);
#128=ORIENTED_EDGE('',*,*,#104,.T.);
#129=ORIENTED_EDGE('',*,*,#105,.T.);
#130=ORIENTED_EDGE('',*,*,#106,.F.);
#131=ORIENTED_EDGE('',*,*,#105,.F.);
#132=ORIENTED_EDGE('',*,*,#107,.F.);
#133=ORIENTED_EDGE('',*,*,#104,.F.);
#134=ORIENTED_EDGE('',*,*,#108,.F.);
#135=ORIENTED_EDGE('',*,*,#106,.T.);
#136=ORIENTED_EDGE('',*,*,#108,.T.);
#137=ORIENTED_EDGE('',*,*,#109,.T.);
#138=ORIENTED_EDGE('',*,*,#110,.F.);
#139=ORIENTED_EDGE('',*,*,#111,.F.);
#140=ORIENTED_EDGE('',*,*,#109,.F.);
#141=ORIENTED_EDGE('',*,*,#103,.T.);
#142=ORIENTED_EDGE('',*,*,#112,.T.);
#143=ORIENTED_EDGE('',*,*,#107,.T.);
#144=ORIENTED_EDGE('',*,*,#112,.F.);
#145=ORIENTED_EDGE('',*,*,#113,.T.);
#146=ORIENTED_EDGE('',*,*,#114,.T.);
#147=ORIENTED_EDGE('',*,*,#110,.T.);
#148=ORIENTED_EDGE('',*,*,#111,.T.);
#149=ORIENTED_EDGE('',*,*,#114,.F.);
#150=ORIENTED_EDGE('',*,*,#115,.F.);
#151=ORIENTED_EDGE('',*,*,#116,.F.);
#152=ORIENTED_EDGE('',*,*,#117,.T.);
#153=ORIENTED_EDGE('',*,*,#102,.T.);
#154=ORIENTED_EDGE('',*,*,#117,.F.);
#155=ORIENTED_EDGE('',*,*,#113,.F.);
#156=ORIENTED_EDGE('',*,*,#118,.T.);
#157=ORIENTED_EDGE('',*,*,#119,.T.);
#158=ORIENTED_EDGE('',*,*,#115,.T.);
#159=ORIENTED_EDGE('',*,*,#116,.T.);
#160=ORIENTED_EDGE('',*,*,#119,.F.);
#161=ORIENTED_EDGE('',*,*,#118,.F.);
#162=CYLINDRICAL_SURFACE('',#200,1.15);
#163=CYLINDRICAL_SURFACE('',#207,1.15);
#164=CYLINDRICAL_SURFACE('',#214,1.5);
#165=CYLINDRICAL_SURFACE('',#217,1.5);
#166=CYLINDRICAL_SURFACE('',#220,1.5);
#167=ADVANCED_FACE('',(#27),#162,.T.);
#168=ADVANCED_FACE('',(#28,#17),#21,.F.);
#169=ADVANCED_FACE('',(#29,#18),#22,.F.);
#170=ADVANCED_FACE('',(#30),#163,.T.);
#171=ADVANCED_FACE('',(#31,#19),#23,.F.);
#172=ADVANCED_FACE('',(#32,#20),#24,.F.);
#173=ADVANCED_FACE('',(#33),#164,.T.);
#174=ADVANCED_FACE('',(#34),#165,.T.);
#175=ADVANCED_FACE('',(#35),#15,.T.);
#176=ADVANCED_FACE('',(#36),#166,.T.);
#177=ADVANCED_FACE('',(#37),#25,.F.);
#178=ADVANCED_FACE('',(#38),#16,.T.);
#179=ADVANCED_FACE('',(#39),#26,.T.);
#180=CLOSED_SHELL('',(#167,#168,#169,#170,#171,#172,#173,#174,#175,#176,
#177,#178,#179));
#181=DERIVED_UNIT_ELEMENT(#183,1.);
#182=DERIVED_UNIT_ELEMENT(#344,3.);
#183=(
MASS_UNIT()
NAMED_UNIT(*)
SI_UNIT($,.GRAM.)
);
#184=DERIVED_UNIT((#181,#182));
#185=MEASURE_REPRESENTATION_ITEM('density measure',
POSITIVE_RATIO_MEASURE(8.874),#184);
#186=PROPERTY_DEFINITION_REPRESENTATION(#191,#188);
#187=PROPERTY_DEFINITION_REPRESENTATION(#192,#189);
#188=REPRESENTATION('material name',(#190),#341);
#189=REPRESENTATION('density',(#185),#341);
#190=DESCRIPTIVE_REPRESENTATION_ITEM('Bronze, Soft Tin',
'Bronze, Soft Tin');
#191=PROPERTY_DEFINITION('material property','material name',#351);
#192=PROPERTY_DEFINITION('material property','density of part',#351);
#193=DATE_TIME_ROLE('creation_date');
#194=APPLIED_DATE_AND_TIME_ASSIGNMENT(#195,#193,(#351));
#195=DATE_AND_TIME(#196,#197);
#196=CALENDAR_DATE(2025,16,9);
#197=LOCAL_TIME(0,0,0.,#198);
#198=COORDINATED_UNIVERSAL_TIME_OFFSET(0,0,.BEHIND.);
#199=AXIS2_PLACEMENT_3D('placement',#290,#227,#228);
#200=AXIS2_PLACEMENT_3D('',#291,#229,#230);
#201=AXIS2_PLACEMENT_3D('',#293,#231,#232);
#202=AXIS2_PLACEMENT_3D('',#296,#234,#235);
#203=AXIS2_PLACEMENT_3D('',#297,#236,#237);
#204=AXIS2_PLACEMENT_3D('',#299,#238,#239);
#205=AXIS2_PLACEMENT_3D('',#300,#240,#241);
#206=AXIS2_PLACEMENT_3D('',#302,#242,#243);
#207=AXIS2_PLACEMENT_3D('',#303,#244,#245);
#208=AXIS2_PLACEMENT_3D('',#305,#246,#247);
#209=AXIS2_PLACEMENT_3D('',#308,#249,#250);
#210=AXIS2_PLACEMENT_3D('',#309,#251,#252);
#211=AXIS2_PLACEMENT_3D('',#311,#253,#254);
#212=AXIS2_PLACEMENT_3D('',#312,#255,#256);
#213=AXIS2_PLACEMENT_3D('',#314,#257,#258);
#214=AXIS2_PLACEMENT_3D('',#315,#259,#260);
#215=AXIS2_PLACEMENT_3D('',#319,#262,#263);
#216=AXIS2_PLACEMENT_3D('',#320,#264,#265);
#217=AXIS2_PLACEMENT_3D('',#321,#266,#267);
#218=AXIS2_PLACEMENT_3D('',#323,#269,#270);
#219=AXIS2_PLACEMENT_3D('',#325,#271,#272);
#220=AXIS2_PLACEMENT_3D('',#327,#274,#275);
#221=AXIS2_PLACEMENT_3D('',#330,#276,#277);
#222=AXIS2_PLACEMENT_3D('',#331,#278,#279);
#223=AXIS2_PLACEMENT_3D('',#333,#281,#282);
#224=AXIS2_PLACEMENT_3D('',#334,#283,#284);
#225=AXIS2_PLACEMENT_3D('',#336,#285,#286);
#226=AXIS2_PLACEMENT_3D('',#338,#288,#289);
#227=DIRECTION('axis',(0.,0.,1.));
#228=DIRECTION('refdir',(1.,0.,0.));
#229=DIRECTION('center_axis',(0.,-1.,0.));
#230=DIRECTION('ref_axis',(0.,0.,-1.));
#231=DIRECTION('center_axis',(0.,-1.,0.));
#232=DIRECTION('ref_axis',(1.,0.,0.));
#233=DIRECTION('',(0.,-1.,0.));
#234=DIRECTION('center_axis',(0.,-1.,0.));
#235=DIRECTION('ref_axis',(1.,0.,0.));
#236=DIRECTION('center_axis',(0.,1.,0.));
#237=DIRECTION('ref_axis',(0.,0.,1.));
#238=DIRECTION('center_axis',(0.,1.,0.));
#239=DIRECTION('ref_axis',(-1.,0.,0.));
#240=DIRECTION('center_axis',(0.,-1.,0.));
#241=DIRECTION('ref_axis',(0.,0.,-1.));
#242=DIRECTION('center_axis',(0.,-1.,0.));
#243=DIRECTION('ref_axis',(-1.,0.,0.));
#244=DIRECTION('center_axis',(0.,-1.,0.));
#245=DIRECTION('ref_axis',(0.,0.,-1.));
#246=DIRECTION('center_axis',(0.,-1.,0.));
#247=DIRECTION('ref_axis',(1.,0.,0.));
#248=DIRECTION('',(0.,-1.,0.));
#249=DIRECTION('center_axis',(0.,-1.,0.));
#250=DIRECTION('ref_axis',(1.,0.,0.));
#251=DIRECTION('center_axis',(0.,1.,0.));
#252=DIRECTION('ref_axis',(0.,0.,1.));
#253=DIRECTION('center_axis',(0.,1.,0.));
#254=DIRECTION('ref_axis',(-1.,0.,0.));
#255=DIRECTION('center_axis',(0.,-1.,0.));
#256=DIRECTION('ref_axis',(0.,0.,-1.));
#257=DIRECTION('center_axis',(0.,-1.,0.));
#258=DIRECTION('ref_axis',(-1.,0.,0.));
#259=DIRECTION('center_axis',(0.,1.,0.));
#260=DIRECTION('ref_axis',(-1.,0.,0.));
#261=DIRECTION('',(0.,-1.,0.));
#262=DIRECTION('center_axis',(0.,-1.,0.));
#263=DIRECTION('ref_axis',(1.,0.,0.));
#264=DIRECTION('center_axis',(0.,-1.,0.));
#265=DIRECTION('ref_axis',(1.,0.,0.));
#266=DIRECTION('center_axis',(0.,1.,0.));
#267=DIRECTION('ref_axis',(-1.,0.,0.));
#268=DIRECTION('',(0.,-1.,0.));
#269=DIRECTION('center_axis',(0.,1.,0.));
#270=DIRECTION('ref_axis',(1.,0.,0.));
#271=DIRECTION('center_axis',(0.,1.,0.));
#272=DIRECTION('ref_axis',(1.,0.,0.));
#273=DIRECTION('',(-0.707106781186548,0.707106781186548,-8.65956056235494E-17));
#274=DIRECTION('center_axis',(0.,1.,0.));
#275=DIRECTION('ref_axis',(-1.,0.,0.));
#276=DIRECTION('center_axis',(0.,1.,0.));
#277=DIRECTION('ref_axis',(1.,0.,0.));
#278=DIRECTION('center_axis',(0.,1.,0.));
#279=DIRECTION('ref_axis',(1.,0.,0.));
#280=DIRECTION('',(0.,-1.,0.));
#281=DIRECTION('center_axis',(0.,1.,0.));
#282=DIRECTION('ref_axis',(0.,0.,1.));
#283=DIRECTION('center_axis',(0.,-1.,0.));
#284=DIRECTION('ref_axis',(1.,0.,0.));
#285=DIRECTION('center_axis',(0.,-1.,0.));
#286=DIRECTION('ref_axis',(1.,0.,0.));
#287=DIRECTION('',(-0.707106781186548,-0.707106781186548,8.65956056235494E-17));
#288=DIRECTION('center_axis',(0.,1.,0.));
#289=DIRECTION('ref_axis',(0.,0.,1.));
#290=CARTESIAN_POINT('',(0.,0.,0.));
#291=CARTESIAN_POINT('Origin',(0.,2.825,0.));
#292=CARTESIAN_POINT('',(-1.40834381901945E-16,3.15,1.15));
#293=CARTESIAN_POINT('Origin',(0.,3.15,0.));
#294=CARTESIAN_POINT('',(-1.40834381901945E-16,2.5,1.15));
#295=CARTESIAN_POINT('',(-1.40834381901945E-16,2.825,1.15));
#296=CARTESIAN_POINT('Origin',(0.,2.5,0.));
#297=CARTESIAN_POINT('Origin',(0.,3.15,-1.5));
#298=CARTESIAN_POINT('',(1.5,3.15,-1.83697019872103E-16));
#299=CARTESIAN_POINT('Origin',(0.,3.15,0.));
#300=CARTESIAN_POINT('Origin',(0.,2.5,-1.15));
#301=CARTESIAN_POINT('',(1.5,2.5,-1.83697019872103E-16));
#302=CARTESIAN_POINT('Origin',(0.,2.5,0.));
#303=CARTESIAN_POINT('Origin',(0.,-18.825,0.));
#304=CARTESIAN_POINT('',(-1.40834381901946E-16,-18.5,1.15));
#305=CARTESIAN_POINT('Origin',(0.,-18.5,0.));
#306=CARTESIAN_POINT('',(-1.40834381901946E-16,-19.15,1.15));
#307=CARTESIAN_POINT('',(-1.40834381901946E-16,-18.825,1.15));
#308=CARTESIAN_POINT('Origin',(0.,-19.15,0.));
#309=CARTESIAN_POINT('Origin',(0.,-18.5,-1.5));
#310=CARTESIAN_POINT('',(1.5,-18.5,-1.83697019872103E-16));
#311=CARTESIAN_POINT('Origin',(0.,-18.5,0.));
#312=CARTESIAN_POINT('Origin',(0.,-19.15,-1.15));
#313=CARTESIAN_POINT('',(1.5,-19.15,-1.83697019872103E-16));
#314=CARTESIAN_POINT('Origin',(0.,-19.15,0.));
#315=CARTESIAN_POINT('Origin',(0.,0.,0.));
#316=CARTESIAN_POINT('',(1.5,-20.8,-1.83697019872103E-16));
#317=CARTESIAN_POINT('',(1.5,0.,-1.83697019872103E-16));
#318=CARTESIAN_POINT('',(-1.5,-20.8,-1.83697019872103E-16));
#319=CARTESIAN_POINT('Origin',(0.,-20.8,0.));
#320=CARTESIAN_POINT('Origin',(0.,-20.8,0.));
#321=CARTESIAN_POINT('Origin',(0.,0.,0.));
#322=CARTESIAN_POINT('',(1.5,0.,-1.83697019872103E-16));
#323=CARTESIAN_POINT('Origin',(0.,-20.9,0.));
#324=CARTESIAN_POINT('',(-1.3,-21.,1.59204083889156E-16));
#325=CARTESIAN_POINT('Origin',(0.,-21.,0.));
#326=CARTESIAN_POINT('',(-1.4,-20.9,-1.71450551880629E-16));
#327=CARTESIAN_POINT('Origin',(0.,0.,0.));
#328=CARTESIAN_POINT('',(-1.5,20.8,1.83697019872103E-16));
#329=CARTESIAN_POINT('',(1.5,20.8,-1.83697019872103E-16));
#330=CARTESIAN_POINT('Origin',(0.,20.8,0.));
#331=CARTESIAN_POINT('Origin',(0.,20.8,0.));
#332=CARTESIAN_POINT('',(1.5,0.,-1.83697019872103E-16));
#333=CARTESIAN_POINT('Origin',(0.,-21.,0.));
#334=CARTESIAN_POINT('Origin',(0.,20.9,0.));
#335=CARTESIAN_POINT('',(-1.3,21.,-1.59204083889156E-16));
#336=CARTESIAN_POINT('Origin',(0.,21.,0.));
#337=CARTESIAN_POINT('',(-1.4,20.9,1.71450551880629E-16));
#338=CARTESIAN_POINT('Origin',(0.,21.,0.));
#339=UNCERTAINTY_MEASURE_WITH_UNIT(LENGTH_MEASURE(0.01),#343,
'DISTANCE_ACCURACY_VALUE',
'Maximum model space distance between geometric entities at asserted c
onnectivities');
#340=UNCERTAINTY_MEASURE_WITH_UNIT(LENGTH_MEASURE(0.01),#343,
'DISTANCE_ACCURACY_VALUE',
'Maximum model space distance between geometric entities at asserted c
onnectivities');
#341=(
GEOMETRIC_REPRESENTATION_CONTEXT(3)
GLOBAL_UNCERTAINTY_ASSIGNED_CONTEXT((#339))
GLOBAL_UNIT_ASSIGNED_CONTEXT((#343,#345,#346))
REPRESENTATION_CONTEXT('','3D')
);
#342=(
GEOMETRIC_REPRESENTATION_CONTEXT(3)
GLOBAL_UNCERTAINTY_ASSIGNED_CONTEXT((#340))
GLOBAL_UNIT_ASSIGNED_CONTEXT((#343,#345,#346))
REPRESENTATION_CONTEXT('','3D')
);
#343=(
LENGTH_UNIT()
NAMED_UNIT(*)
SI_UNIT(.MILLI.,.METRE.)
);
#344=(
LENGTH_UNIT()
NAMED_UNIT(*)
SI_UNIT(.CENTI.,.METRE.)
);
#345=(
NAMED_UNIT(*)
PLANE_ANGLE_UNIT()
SI_UNIT($,.RADIAN.)
);
#346=(
NAMED_UNIT(*)
SI_UNIT($,.STERADIAN.)
SOLID_ANGLE_UNIT()
);
#347=SHAPE_DEFINITION_REPRESENTATION(#348,#349);
#348=PRODUCT_DEFINITION_SHAPE('',$,#351);
#349=SHAPE_REPRESENTATION('',(#199),#341);
#350=PRODUCT_DEFINITION_CONTEXT('part definition',#355,'design');
#351=PRODUCT_DEFINITION('Ball Track Support','Ball Track Support',#352,
#350);
#352=PRODUCT_DEFINITION_FORMATION('',$,#357);
#353=PRODUCT_RELATED_PRODUCT_CATEGORY('Ball Track Support',
'Ball Track Support',(#357));
#354=APPLICATION_PROTOCOL_DEFINITION('international standard',
'automotive_design',2009,#355);
#355=APPLICATION_CONTEXT(
'Core Data for Automotive Mechanical Design Process');
#356=PRODUCT_CONTEXT('part definition',#355,'mechanical');
#357=PRODUCT('Ball Track Support','Ball Track Support',$,(#356));
#358=PRESENTATION_STYLE_ASSIGNMENT((#359));
#359=SURFACE_STYLE_USAGE(.BOTH.,#362);
#360=SURFACE_STYLE_RENDERING_WITH_PROPERTIES($,#366,(#361));
#361=SURFACE_STYLE_TRANSPARENT(0.);
#362=SURFACE_SIDE_STYLE('',(#363,#360));
#363=SURFACE_STYLE_FILL_AREA(#364);
#364=FILL_AREA_STYLE('',(#365));
#365=FILL_AREA_STYLE_COLOUR('',#366);
#366=COLOUR_RGB('',0.643137254901961,0.52156862745098,0.384313725490196);
ENDSEC;
END-ISO-10303-21;
