ISO-10303-21;
HEADER;
/* Generated by software containing ST-Developer
 * from STEP Tools, Inc. (www.steptools.com) 
 */

FILE_DESCRIPTION(
/* description */ (''),
/* implementation_level */ '2;1');

FILE_NAME(
/* name */ 
'S:\\Future Scope 1\\WIP\\Client Category\\Tom\\02 Progressive Work\\B
all Track.stp',
/* time_stamp */ '2025-11-05T12:14:33+06:00',
/* author */ ('SD'),
/* organization */ (''),
/* preprocessor_version */ 'ST-DEVELOPER v18.1',
/* originating_system */ 'Autodesk Inventor 2021',
/* authorisation */ '');

FILE_SCHEMA (('AUTOMOTIVE_DESIGN { 1 0 10303 214 3 1 1 }'));
ENDSEC;

DATA;
#10=MECHANICAL_DESIGN_GEOMETRIC_PRESENTATION_REPRESENTATION('',(#13),#1143);
#11=SHAPE_REPRESENTATION_RELATIONSHIP('SRR','None',#1150,#12);
#12=ADVANCED_BREP_SHAPE_REPRESENTATION('',(#14),#1142);
#13=STYLED_ITEM('',(#1159),#14);
#14=MANIFOLD_SOLID_BREP('Solid1',#667);
#15=SPHERICAL_SURFACE('',#750,5.);
#16=FACE_BOUND('',#132,.T.);
#17=FACE_BOUND('',#133,.T.);
#18=FACE_BOUND('',#135,.T.);
#19=FACE_BOUND('',#140,.T.);
#20=(
BOUNDED_CURVE()
B_SPLINE_CURVE(2,(#994,#995,#996),.UNSPECIFIED.,.F.,.F.)
B_SPLINE_CURVE_WITH_KNOTS((3,3),(0.,0.00151722303066691),.UNSPECIFIED.)
CURVE()
GEOMETRIC_REPRESENTATION_ITEM()
RATIONAL_B_SPLINE_CURVE((1.,1.01970572348942,1.03936750746128))
REPRESENTATION_ITEM('')
);
#21=(
BOUNDED_CURVE()
B_SPLINE_CURVE(2,(#1009,#1010,#1011),.UNSPECIFIED.,.F.,.F.)
B_SPLINE_CURVE_WITH_KNOTS((3,3),(1.35935240761352,1.36086963064418),
 .UNSPECIFIED.)
CURVE()
GEOMETRIC_REPRESENTATION_ITEM()
RATIONAL_B_SPLINE_CURVE((1.03936750746128,1.01970572348942,1.))
REPRESENTATION_ITEM('')
);
#22=PLANE('',#703);
#23=PLANE('',#704);
#24=PLANE('',#705);
#25=PLANE('',#709);
#26=PLANE('',#710);
#27=PLANE('',#714);
#28=PLANE('',#718);
#29=PLANE('',#719);
#30=PLANE('',#720);
#31=PLANE('',#721);
#32=PLANE('',#725);
#33=PLANE('',#729);
#34=PLANE('',#730);
#35=PLANE('',#731);
#36=PLANE('',#732);
#37=PLANE('',#733);
#38=PLANE('',#734);
#39=PLANE('',#735);
#40=PLANE('',#740);
#41=PLANE('',#743);
#42=PLANE('',#744);
#43=PLANE('',#745);
#44=PLANE('',#746);
#45=PLANE('',#748);
#46=PLANE('',#752);
#47=CYLINDRICAL_SURFACE('',#689,1.2295);
#48=CYLINDRICAL_SURFACE('',#693,1.2295);
#49=CYLINDRICAL_SURFACE('',#697,1.2295);
#50=CYLINDRICAL_SURFACE('',#701,1.2295);
#51=CYLINDRICAL_SURFACE('',#741,5.);
#52=CYLINDRICAL_SURFACE('',#747,8.);
#53=CYLINDRICAL_SURFACE('',#749,8.);
#54=FACE_OUTER_BOUND('',#97,.T.);
#55=FACE_OUTER_BOUND('',#98,.T.);
#56=FACE_OUTER_BOUND('',#99,.T.);
#57=FACE_OUTER_BOUND('',#100,.T.);
#58=FACE_OUTER_BOUND('',#101,.T.);
#59=FACE_OUTER_BOUND('',#102,.T.);
#60=FACE_OUTER_BOUND('',#103,.T.);
#61=FACE_OUTER_BOUND('',#104,.T.);
#62=FACE_OUTER_BOUND('',#105,.T.);
#63=FACE_OUTER_BOUND('',#106,.T.);
#64=FACE_OUTER_BOUND('',#107,.T.);
#65=FACE_OUTER_BOUND('',#108,.T.);
#66=FACE_OUTER_BOUND('',#109,.T.);
#67=FACE_OUTER_BOUND('',#110,.T.);
#68=FACE_OUTER_BOUND('',#111,.T.);
#69=FACE_OUTER_BOUND('',#112,.T.);
#70=FACE_OUTER_BOUND('',#113,.T.);
#71=FACE_OUTER_BOUND('',#114,.T.);
#72=FACE_OUTER_BOUND('',#115,.T.);
#73=FACE_OUTER_BOUND('',#116,.T.);
#74=FACE_OUTER_BOUND('',#117,.T.);
#75=FACE_OUTER_BOUND('',#118,.T.);
#76=FACE_OUTER_BOUND('',#119,.T.);
#77=FACE_OUTER_BOUND('',#120,.T.);
#78=FACE_OUTER_BOUND('',#121,.T.);
#79=FACE_OUTER_BOUND('',#122,.T.);
#80=FACE_OUTER_BOUND('',#123,.T.);
#81=FACE_OUTER_BOUND('',#124,.T.);
#82=FACE_OUTER_BOUND('',#125,.T.);
#83=FACE_OUTER_BOUND('',#126,.T.);
#84=FACE_OUTER_BOUND('',#127,.T.);
#85=FACE_OUTER_BOUND('',#128,.T.);
#86=FACE_OUTER_BOUND('',#129,.T.);
#87=FACE_OUTER_BOUND('',#130,.T.);
#88=FACE_OUTER_BOUND('',#131,.T.);
#89=FACE_OUTER_BOUND('',#134,.T.);
#90=FACE_OUTER_BOUND('',#136,.T.);
#91=FACE_OUTER_BOUND('',#137,.T.);
#92=FACE_OUTER_BOUND('',#138,.T.);
#93=FACE_OUTER_BOUND('',#139,.T.);
#94=FACE_OUTER_BOUND('',#141,.T.);
#95=FACE_OUTER_BOUND('',#142,.T.);
#96=FACE_OUTER_BOUND('',#143,.T.);
#97=EDGE_LOOP('',(#436,#437,#438));
#98=EDGE_LOOP('',(#439,#440,#441,#442));
#99=EDGE_LOOP('',(#443,#444,#445));
#100=EDGE_LOOP('',(#446,#447,#448,#449));
#101=EDGE_LOOP('',(#450,#451,#452));
#102=EDGE_LOOP('',(#453,#454,#455,#456));
#103=EDGE_LOOP('',(#457,#458,#459));
#104=EDGE_LOOP('',(#460,#461,#462,#463));
#105=EDGE_LOOP('',(#464,#465,#466));
#106=EDGE_LOOP('',(#467,#468,#469));
#107=EDGE_LOOP('',(#470,#471,#472));
#108=EDGE_LOOP('',(#473,#474,#475,#476));
#109=EDGE_LOOP('',(#477,#478,#479));
#110=EDGE_LOOP('',(#480,#481,#482,#483));
#111=EDGE_LOOP('',(#484,#485,#486,#487));
#112=EDGE_LOOP('',(#488,#489,#490,#491));
#113=EDGE_LOOP('',(#492,#493,#494,#495));
#114=EDGE_LOOP('',(#496,#497,#498,#499));
#115=EDGE_LOOP('',(#500,#501,#502));
#116=EDGE_LOOP('',(#503,#504,#505));
#117=EDGE_LOOP('',(#506,#507,#508,#509));
#118=EDGE_LOOP('',(#510,#511,#512,#513));
#119=EDGE_LOOP('',(#514,#515,#516,#517));
#120=EDGE_LOOP('',(#518,#519,#520,#521));
#121=EDGE_LOOP('',(#522,#523,#524,#525));
#122=EDGE_LOOP('',(#526,#527,#528,#529));
#123=EDGE_LOOP('',(#530,#531,#532,#533));
#124=EDGE_LOOP('',(#534,#535,#536,#537));
#125=EDGE_LOOP('',(#538,#539,#540,#541));
#126=EDGE_LOOP('',(#542,#543,#544,#545));
#127=EDGE_LOOP('',(#546,#547,#548,#549));
#128=EDGE_LOOP('',(#550,#551,#552,#553,#554));
#129=EDGE_LOOP('',(#555,#556,#557,#558));
#130=EDGE_LOOP('',(#559,#560,#561,#562));
#131=EDGE_LOOP('',(#563,#564,#565,#566));
#132=EDGE_LOOP('',(#567));
#133=EDGE_LOOP('',(#568));
#134=EDGE_LOOP('',(#569,#570,#571,#572,#573,#574));
#135=EDGE_LOOP('',(#575));
#136=EDGE_LOOP('',(#576,#577,#578,#579,#580,#581,#582,#583,#584,#585));
#137=EDGE_LOOP('',(#586,#587,#588,#589,#590,#591));
#138=EDGE_LOOP('',(#592,#593,#594,#595));
#139=EDGE_LOOP('',(#596,#597,#598,#599));
#140=EDGE_LOOP('',(#600));
#141=EDGE_LOOP('',(#601,#602,#603,#604));
#142=EDGE_LOOP('',(#605,#606,#607,#608,#609));
#143=EDGE_LOOP('',(#610,#611,#612,#613));
#144=LINE('',#956,#208);
#145=LINE('',#960,#209);
#146=LINE('',#965,#210);
#147=LINE('',#969,#211);
#148=LINE('',#974,#212);
#149=LINE('',#978,#213);
#150=LINE('',#983,#214);
#151=LINE('',#987,#215);
#152=LINE('',#991,#216);
#153=LINE('',#993,#217);
#154=LINE('',#1000,#218);
#155=LINE('',#1002,#219);
#156=LINE('',#1003,#220);
#157=LINE('',#1007,#221);
#158=LINE('',#1012,#222);
#159=LINE('',#1019,#223);
#160=LINE('',#1021,#224);
#161=LINE('',#1022,#225);
#162=LINE('',#1026,#226);
#163=LINE('',#1027,#227);
#164=LINE('',#1028,#228);
#165=LINE('',#1033,#229);
#166=LINE('',#1037,#230);
#167=LINE('',#1039,#231);
#168=LINE('',#1040,#232);
#169=LINE('',#1045,#233);
#170=LINE('',#1048,#234);
#171=LINE('',#1049,#235);
#172=LINE('',#1053,#236);
#173=LINE('',#1055,#237);
#174=LINE('',#1056,#238);
#175=LINE('',#1060,#239);
#176=LINE('',#1062,#240);
#177=LINE('',#1063,#241);
#178=LINE('',#1067,#242);
#179=LINE('',#1068,#243);
#180=LINE('',#1069,#244);
#181=LINE('',#1074,#245);
#182=LINE('',#1078,#246);
#183=LINE('',#1080,#247);
#184=LINE('',#1081,#248);
#185=LINE('',#1086,#249);
#186=LINE('',#1089,#250);
#187=LINE('',#1090,#251);
#188=LINE('',#1092,#252);
#189=LINE('',#1093,#253);
#190=LINE('',#1095,#254);
#191=LINE('',#1096,#255);
#192=LINE('',#1098,#256);
#193=LINE('',#1099,#257);
#194=LINE('',#1101,#258);
#195=LINE('',#1102,#259);
#196=LINE('',#1104,#260);
#197=LINE('',#1105,#261);
#198=LINE('',#1109,#262);
#199=LINE('',#1110,#263);
#200=LINE('',#1111,#264);
#201=LINE('',#1115,#265);
#202=LINE('',#1121,#266);
#203=LINE('',#1122,#267);
#204=LINE('',#1126,#268);
#205=LINE('',#1131,#269);
#206=LINE('',#1133,#270);
#207=LINE('',#1135,#271);
#208=VECTOR('',#759,0.61475);
#209=VECTOR('',#764,1.2295);
#210=VECTOR('',#769,0.61475);
#211=VECTOR('',#774,1.2295);
#212=VECTOR('',#779,0.61475);
#213=VECTOR('',#784,1.2295);
#214=VECTOR('',#789,0.61475);
#215=VECTOR('',#794,1.2295);
#216=VECTOR('',#797,10.);
#217=VECTOR('',#798,10.);
#218=VECTOR('',#801,10.);
#219=VECTOR('',#802,10.);
#220=VECTOR('',#803,10.);
#221=VECTOR('',#806,10.);
#222=VECTOR('',#807,10.);
#223=VECTOR('',#816,10.);
#224=VECTOR('',#817,10.);
#225=VECTOR('',#818,10.);
#226=VECTOR('',#821,10.);
#227=VECTOR('',#822,10.);
#228=VECTOR('',#823,10.);
#229=VECTOR('',#828,10.);
#230=VECTOR('',#833,10.);
#231=VECTOR('',#834,10.);
#232=VECTOR('',#835,10.);
#233=VECTOR('',#840,10.);
#234=VECTOR('',#845,10.);
#235=VECTOR('',#846,10.);
#236=VECTOR('',#849,10.);
#237=VECTOR('',#850,10.);
#238=VECTOR('',#851,10.);
#239=VECTOR('',#854,10.);
#240=VECTOR('',#855,10.);
#241=VECTOR('',#856,10.);
#242=VECTOR('',#859,10.);
#243=VECTOR('',#860,10.);
#244=VECTOR('',#861,10.);
#245=VECTOR('',#866,10.);
#246=VECTOR('',#871,10.);
#247=VECTOR('',#872,10.);
#248=VECTOR('',#873,10.);
#249=VECTOR('',#878,10.);
#250=VECTOR('',#883,10.);
#251=VECTOR('',#884,10.);
#252=VECTOR('',#887,10.);
#253=VECTOR('',#888,10.);
#254=VECTOR('',#891,10.);
#255=VECTOR('',#892,10.);
#256=VECTOR('',#895,10.);
#257=VECTOR('',#896,10.);
#258=VECTOR('',#899,10.);
#259=VECTOR('',#900,10.);
#260=VECTOR('',#903,10.);
#261=VECTOR('',#904,10.);
#262=VECTOR('',#907,10.);
#263=VECTOR('',#908,10.);
#264=VECTOR('',#909,10.);
#265=VECTOR('',#912,10.);
#266=VECTOR('',#921,10.);
#267=VECTOR('',#922,10.);
#268=VECTOR('',#929,10.);
#269=VECTOR('',#938,10.);
#270=VECTOR('',#941,10.);
#271=VECTOR('',#944,10.);
#272=CIRCLE('',#688,1.2295);
#273=CIRCLE('',#690,1.2295);
#274=CIRCLE('',#692,1.2295);
#275=CIRCLE('',#694,1.2295);
#276=CIRCLE('',#696,1.2295);
#277=CIRCLE('',#698,1.2295);
#278=CIRCLE('',#700,1.2295);
#279=CIRCLE('',#702,1.2295);
#280=CIRCLE('',#707,5.);
#281=CIRCLE('',#708,5.2);
#282=CIRCLE('',#712,8.);
#283=CIRCLE('',#713,7.80000000000001);
#284=CIRCLE('',#716,8.);
#285=CIRCLE('',#717,7.80000000000001);
#286=CIRCLE('',#723,8.);
#287=CIRCLE('',#724,7.8);
#288=CIRCLE('',#727,8.);
#289=CIRCLE('',#728,7.80000000000001);
#290=CIRCLE('',#737,5.2);
#291=CIRCLE('',#738,4.996);
#292=CIRCLE('',#739,4.996);
#293=CIRCLE('',#742,5.);
#294=CIRCLE('',#751,5.);
#295=VERTEX_POINT('',#953);
#296=VERTEX_POINT('',#955);
#297=VERTEX_POINT('',#958);
#298=VERTEX_POINT('',#962);
#299=VERTEX_POINT('',#964);
#300=VERTEX_POINT('',#967);
#301=VERTEX_POINT('',#971);
#302=VERTEX_POINT('',#973);
#303=VERTEX_POINT('',#976);
#304=VERTEX_POINT('',#980);
#305=VERTEX_POINT('',#982);
#306=VERTEX_POINT('',#985);
#307=VERTEX_POINT('',#989);
#308=VERTEX_POINT('',#990);
#309=VERTEX_POINT('',#992);
#310=VERTEX_POINT('',#998);
#311=VERTEX_POINT('',#999);
#312=VERTEX_POINT('',#1001);
#313=VERTEX_POINT('',#1005);
#314=VERTEX_POINT('',#1006);
#315=VERTEX_POINT('',#1008);
#316=VERTEX_POINT('',#1017);
#317=VERTEX_POINT('',#1018);
#318=VERTEX_POINT('',#1020);
#319=VERTEX_POINT('',#1024);
#320=VERTEX_POINT('',#1025);
#321=VERTEX_POINT('',#1030);
#322=VERTEX_POINT('',#1032);
#323=VERTEX_POINT('',#1036);
#324=VERTEX_POINT('',#1038);
#325=VERTEX_POINT('',#1042);
#326=VERTEX_POINT('',#1044);
#327=VERTEX_POINT('',#1051);
#328=VERTEX_POINT('',#1052);
#329=VERTEX_POINT('',#1054);
#330=VERTEX_POINT('',#1058);
#331=VERTEX_POINT('',#1059);
#332=VERTEX_POINT('',#1061);
#333=VERTEX_POINT('',#1065);
#334=VERTEX_POINT('',#1066);
#335=VERTEX_POINT('',#1071);
#336=VERTEX_POINT('',#1073);
#337=VERTEX_POINT('',#1077);
#338=VERTEX_POINT('',#1079);
#339=VERTEX_POINT('',#1083);
#340=VERTEX_POINT('',#1085);
#341=VERTEX_POINT('',#1107);
#342=VERTEX_POINT('',#1108);
#343=VERTEX_POINT('',#1113);
#344=VERTEX_POINT('',#1114);
#345=VERTEX_POINT('',#1117);
#346=VERTEX_POINT('',#1137);
#347=EDGE_CURVE('',#295,#295,#272,.T.);
#348=EDGE_CURVE('',#295,#296,#144,.T.);
#349=EDGE_CURVE('',#297,#297,#273,.T.);
#350=EDGE_CURVE('',#297,#295,#145,.T.);
#351=EDGE_CURVE('',#298,#298,#274,.T.);
#352=EDGE_CURVE('',#298,#299,#146,.T.);
#353=EDGE_CURVE('',#300,#300,#275,.T.);
#354=EDGE_CURVE('',#300,#298,#147,.T.);
#355=EDGE_CURVE('',#301,#301,#276,.T.);
#356=EDGE_CURVE('',#301,#302,#148,.T.);
#357=EDGE_CURVE('',#303,#303,#277,.T.);
#358=EDGE_CURVE('',#303,#301,#149,.T.);
#359=EDGE_CURVE('',#304,#304,#278,.T.);
#360=EDGE_CURVE('',#304,#305,#150,.T.);
#361=EDGE_CURVE('',#306,#306,#279,.T.);
#362=EDGE_CURVE('',#306,#304,#151,.T.);
#363=EDGE_CURVE('',#307,#308,#152,.T.);
#364=EDGE_CURVE('',#309,#307,#153,.T.);
#365=EDGE_CURVE('',#308,#309,#20,.F.);
#366=EDGE_CURVE('',#310,#311,#154,.T.);
#367=EDGE_CURVE('',#312,#310,#155,.T.);
#368=EDGE_CURVE('',#311,#312,#156,.T.);
#369=EDGE_CURVE('',#313,#314,#157,.T.);
#370=EDGE_CURVE('',#315,#313,#21,.F.);
#371=EDGE_CURVE('',#314,#315,#158,.T.);
#372=EDGE_CURVE('',#313,#308,#280,.T.);
#373=EDGE_CURVE('',#309,#315,#281,.T.);
#374=EDGE_CURVE('',#316,#317,#159,.T.);
#375=EDGE_CURVE('',#318,#316,#160,.T.);
#376=EDGE_CURVE('',#317,#318,#161,.T.);
#377=EDGE_CURVE('',#319,#320,#162,.T.);
#378=EDGE_CURVE('',#320,#312,#163,.T.);
#379=EDGE_CURVE('',#310,#319,#164,.T.);
#380=EDGE_CURVE('',#319,#321,#282,.T.);
#381=EDGE_CURVE('',#321,#322,#165,.T.);
#382=EDGE_CURVE('',#322,#320,#283,.T.);
#383=EDGE_CURVE('',#321,#323,#166,.T.);
#384=EDGE_CURVE('',#323,#324,#167,.T.);
#385=EDGE_CURVE('',#324,#322,#168,.T.);
#386=EDGE_CURVE('',#323,#325,#284,.T.);
#387=EDGE_CURVE('',#325,#326,#169,.T.);
#388=EDGE_CURVE('',#326,#324,#285,.T.);
#389=EDGE_CURVE('',#325,#318,#170,.T.);
#390=EDGE_CURVE('',#316,#326,#171,.T.);
#391=EDGE_CURVE('',#327,#328,#172,.T.);
#392=EDGE_CURVE('',#329,#327,#173,.T.);
#393=EDGE_CURVE('',#328,#329,#174,.T.);
#394=EDGE_CURVE('',#330,#331,#175,.T.);
#395=EDGE_CURVE('',#332,#330,#176,.T.);
#396=EDGE_CURVE('',#331,#332,#177,.T.);
#397=EDGE_CURVE('',#333,#334,#178,.T.);
#398=EDGE_CURVE('',#334,#332,#179,.T.);
#399=EDGE_CURVE('',#330,#333,#180,.T.);
#400=EDGE_CURVE('',#333,#335,#286,.T.);
#401=EDGE_CURVE('',#335,#336,#181,.T.);
#402=EDGE_CURVE('',#336,#334,#287,.T.);
#403=EDGE_CURVE('',#335,#337,#182,.T.);
#404=EDGE_CURVE('',#337,#338,#183,.T.);
#405=EDGE_CURVE('',#338,#336,#184,.T.);
#406=EDGE_CURVE('',#337,#339,#288,.T.);
#407=EDGE_CURVE('',#339,#340,#185,.T.);
#408=EDGE_CURVE('',#340,#338,#289,.T.);
#409=EDGE_CURVE('',#339,#329,#186,.T.);
#410=EDGE_CURVE('',#327,#340,#187,.T.);
#411=EDGE_CURVE('',#315,#331,#188,.T.);
#412=EDGE_CURVE('',#332,#314,#189,.T.);
#413=EDGE_CURVE('',#331,#317,#190,.T.);
#414=EDGE_CURVE('',#318,#330,#191,.T.);
#415=EDGE_CURVE('',#311,#328,#192,.T.);
#416=EDGE_CURVE('',#329,#310,#193,.T.);
#417=EDGE_CURVE('',#328,#309,#194,.T.);
#418=EDGE_CURVE('',#307,#327,#195,.T.);
#419=EDGE_CURVE('',#317,#311,#196,.T.);
#420=EDGE_CURVE('',#312,#316,#197,.T.);
#421=EDGE_CURVE('',#341,#342,#198,.T.);
#422=EDGE_CURVE('',#342,#307,#199,.T.);
#423=EDGE_CURVE('',#308,#341,#200,.T.);
#424=EDGE_CURVE('',#343,#344,#201,.T.);
#425=EDGE_CURVE('',#344,#342,#290,.T.);
#426=EDGE_CURVE('',#341,#345,#291,.T.);
#427=EDGE_CURVE('',#345,#343,#292,.T.);
#428=EDGE_CURVE('',#343,#313,#202,.T.);
#429=EDGE_CURVE('',#314,#344,#203,.T.);
#430=EDGE_CURVE('',#343,#341,#293,.T.);
#431=EDGE_CURVE('',#319,#339,#204,.T.);
#432=EDGE_CURVE('',#337,#321,#205,.T.);
#433=EDGE_CURVE('',#323,#335,#206,.T.);
#434=EDGE_CURVE('',#333,#325,#207,.T.);
#435=EDGE_CURVE('',#345,#346,#294,.T.);
#436=ORIENTED_EDGE('',*,*,#347,.T.);
#437=ORIENTED_EDGE('',*,*,#348,.T.);
#438=ORIENTED_EDGE('',*,*,#348,.F.);
#439=ORIENTED_EDGE('',*,*,#349,.F.);
#440=ORIENTED_EDGE('',*,*,#350,.T.);
#441=ORIENTED_EDGE('',*,*,#347,.F.);
#442=ORIENTED_EDGE('',*,*,#350,.F.);
#443=ORIENTED_EDGE('',*,*,#351,.F.);
#444=ORIENTED_EDGE('',*,*,#352,.T.);
#445=ORIENTED_EDGE('',*,*,#352,.F.);
#446=ORIENTED_EDGE('',*,*,#353,.F.);
#447=ORIENTED_EDGE('',*,*,#354,.T.);
#448=ORIENTED_EDGE('',*,*,#351,.T.);
#449=ORIENTED_EDGE('',*,*,#354,.F.);
#450=ORIENTED_EDGE('',*,*,#355,.F.);
#451=ORIENTED_EDGE('',*,*,#356,.T.);
#452=ORIENTED_EDGE('',*,*,#356,.F.);
#453=ORIENTED_EDGE('',*,*,#357,.F.);
#454=ORIENTED_EDGE('',*,*,#358,.T.);
#455=ORIENTED_EDGE('',*,*,#355,.T.);
#456=ORIENTED_EDGE('',*,*,#358,.F.);
#457=ORIENTED_EDGE('',*,*,#359,.T.);
#458=ORIENTED_EDGE('',*,*,#360,.T.);
#459=ORIENTED_EDGE('',*,*,#360,.F.);
#460=ORIENTED_EDGE('',*,*,#361,.F.);
#461=ORIENTED_EDGE('',*,*,#362,.T.);
#462=ORIENTED_EDGE('',*,*,#359,.F.);
#463=ORIENTED_EDGE('',*,*,#362,.F.);
#464=ORIENTED_EDGE('',*,*,#363,.F.);
#465=ORIENTED_EDGE('',*,*,#364,.F.);
#466=ORIENTED_EDGE('',*,*,#365,.F.);
#467=ORIENTED_EDGE('',*,*,#366,.F.);
#468=ORIENTED_EDGE('',*,*,#367,.F.);
#469=ORIENTED_EDGE('',*,*,#368,.F.);
#470=ORIENTED_EDGE('',*,*,#369,.F.);
#471=ORIENTED_EDGE('',*,*,#370,.F.);
#472=ORIENTED_EDGE('',*,*,#371,.F.);
#473=ORIENTED_EDGE('',*,*,#370,.T.);
#474=ORIENTED_EDGE('',*,*,#372,.T.);
#475=ORIENTED_EDGE('',*,*,#365,.T.);
#476=ORIENTED_EDGE('',*,*,#373,.T.);
#477=ORIENTED_EDGE('',*,*,#374,.F.);
#478=ORIENTED_EDGE('',*,*,#375,.F.);
#479=ORIENTED_EDGE('',*,*,#376,.F.);
#480=ORIENTED_EDGE('',*,*,#377,.T.);
#481=ORIENTED_EDGE('',*,*,#378,.T.);
#482=ORIENTED_EDGE('',*,*,#367,.T.);
#483=ORIENTED_EDGE('',*,*,#379,.T.);
#484=ORIENTED_EDGE('',*,*,#377,.F.);
#485=ORIENTED_EDGE('',*,*,#380,.T.);
#486=ORIENTED_EDGE('',*,*,#381,.T.);
#487=ORIENTED_EDGE('',*,*,#382,.T.);
#488=ORIENTED_EDGE('',*,*,#381,.F.);
#489=ORIENTED_EDGE('',*,*,#383,.T.);
#490=ORIENTED_EDGE('',*,*,#384,.T.);
#491=ORIENTED_EDGE('',*,*,#385,.T.);
#492=ORIENTED_EDGE('',*,*,#384,.F.);
#493=ORIENTED_EDGE('',*,*,#386,.T.);
#494=ORIENTED_EDGE('',*,*,#387,.T.);
#495=ORIENTED_EDGE('',*,*,#388,.T.);
#496=ORIENTED_EDGE('',*,*,#387,.F.);
#497=ORIENTED_EDGE('',*,*,#389,.T.);
#498=ORIENTED_EDGE('',*,*,#375,.T.);
#499=ORIENTED_EDGE('',*,*,#390,.T.);
#500=ORIENTED_EDGE('',*,*,#391,.F.);
#501=ORIENTED_EDGE('',*,*,#392,.F.);
#502=ORIENTED_EDGE('',*,*,#393,.F.);
#503=ORIENTED_EDGE('',*,*,#394,.F.);
#504=ORIENTED_EDGE('',*,*,#395,.F.);
#505=ORIENTED_EDGE('',*,*,#396,.F.);
#506=ORIENTED_EDGE('',*,*,#397,.T.);
#507=ORIENTED_EDGE('',*,*,#398,.T.);
#508=ORIENTED_EDGE('',*,*,#395,.T.);
#509=ORIENTED_EDGE('',*,*,#399,.T.);
#510=ORIENTED_EDGE('',*,*,#397,.F.);
#511=ORIENTED_EDGE('',*,*,#400,.T.);
#512=ORIENTED_EDGE('',*,*,#401,.T.);
#513=ORIENTED_EDGE('',*,*,#402,.T.);
#514=ORIENTED_EDGE('',*,*,#401,.F.);
#515=ORIENTED_EDGE('',*,*,#403,.T.);
#516=ORIENTED_EDGE('',*,*,#404,.T.);
#517=ORIENTED_EDGE('',*,*,#405,.T.);
#518=ORIENTED_EDGE('',*,*,#404,.F.);
#519=ORIENTED_EDGE('',*,*,#406,.T.);
#520=ORIENTED_EDGE('',*,*,#407,.T.);
#521=ORIENTED_EDGE('',*,*,#408,.T.);
#522=ORIENTED_EDGE('',*,*,#407,.F.);
#523=ORIENTED_EDGE('',*,*,#409,.T.);
#524=ORIENTED_EDGE('',*,*,#392,.T.);
#525=ORIENTED_EDGE('',*,*,#410,.T.);
#526=ORIENTED_EDGE('',*,*,#371,.T.);
#527=ORIENTED_EDGE('',*,*,#411,.T.);
#528=ORIENTED_EDGE('',*,*,#396,.T.);
#529=ORIENTED_EDGE('',*,*,#412,.T.);
#530=ORIENTED_EDGE('',*,*,#394,.T.);
#531=ORIENTED_EDGE('',*,*,#413,.T.);
#532=ORIENTED_EDGE('',*,*,#376,.T.);
#533=ORIENTED_EDGE('',*,*,#414,.T.);
#534=ORIENTED_EDGE('',*,*,#366,.T.);
#535=ORIENTED_EDGE('',*,*,#415,.T.);
#536=ORIENTED_EDGE('',*,*,#393,.T.);
#537=ORIENTED_EDGE('',*,*,#416,.T.);
#538=ORIENTED_EDGE('',*,*,#391,.T.);
#539=ORIENTED_EDGE('',*,*,#417,.T.);
#540=ORIENTED_EDGE('',*,*,#364,.T.);
#541=ORIENTED_EDGE('',*,*,#418,.T.);
#542=ORIENTED_EDGE('',*,*,#374,.T.);
#543=ORIENTED_EDGE('',*,*,#419,.T.);
#544=ORIENTED_EDGE('',*,*,#368,.T.);
#545=ORIENTED_EDGE('',*,*,#420,.T.);
#546=ORIENTED_EDGE('',*,*,#421,.T.);
#547=ORIENTED_EDGE('',*,*,#422,.T.);
#548=ORIENTED_EDGE('',*,*,#363,.T.);
#549=ORIENTED_EDGE('',*,*,#423,.T.);
#550=ORIENTED_EDGE('',*,*,#424,.T.);
#551=ORIENTED_EDGE('',*,*,#425,.T.);
#552=ORIENTED_EDGE('',*,*,#421,.F.);
#553=ORIENTED_EDGE('',*,*,#426,.T.);
#554=ORIENTED_EDGE('',*,*,#427,.T.);
#555=ORIENTED_EDGE('',*,*,#424,.F.);
#556=ORIENTED_EDGE('',*,*,#428,.T.);
#557=ORIENTED_EDGE('',*,*,#369,.T.);
#558=ORIENTED_EDGE('',*,*,#429,.T.);
#559=ORIENTED_EDGE('',*,*,#423,.F.);
#560=ORIENTED_EDGE('',*,*,#372,.F.);
#561=ORIENTED_EDGE('',*,*,#428,.F.);
#562=ORIENTED_EDGE('',*,*,#430,.T.);
#563=ORIENTED_EDGE('',*,*,#379,.F.);
#564=ORIENTED_EDGE('',*,*,#416,.F.);
#565=ORIENTED_EDGE('',*,*,#409,.F.);
#566=ORIENTED_EDGE('',*,*,#431,.F.);
#567=ORIENTED_EDGE('',*,*,#353,.T.);
#568=ORIENTED_EDGE('',*,*,#357,.T.);
#569=ORIENTED_EDGE('',*,*,#378,.F.);
#570=ORIENTED_EDGE('',*,*,#382,.F.);
#571=ORIENTED_EDGE('',*,*,#385,.F.);
#572=ORIENTED_EDGE('',*,*,#388,.F.);
#573=ORIENTED_EDGE('',*,*,#390,.F.);
#574=ORIENTED_EDGE('',*,*,#420,.F.);
#575=ORIENTED_EDGE('',*,*,#361,.T.);
#576=ORIENTED_EDGE('',*,*,#398,.F.);
#577=ORIENTED_EDGE('',*,*,#402,.F.);
#578=ORIENTED_EDGE('',*,*,#405,.F.);
#579=ORIENTED_EDGE('',*,*,#408,.F.);
#580=ORIENTED_EDGE('',*,*,#410,.F.);
#581=ORIENTED_EDGE('',*,*,#418,.F.);
#582=ORIENTED_EDGE('',*,*,#422,.F.);
#583=ORIENTED_EDGE('',*,*,#425,.F.);
#584=ORIENTED_EDGE('',*,*,#429,.F.);
#585=ORIENTED_EDGE('',*,*,#412,.F.);
#586=ORIENTED_EDGE('',*,*,#415,.F.);
#587=ORIENTED_EDGE('',*,*,#419,.F.);
#588=ORIENTED_EDGE('',*,*,#413,.F.);
#589=ORIENTED_EDGE('',*,*,#411,.F.);
#590=ORIENTED_EDGE('',*,*,#373,.F.);
#591=ORIENTED_EDGE('',*,*,#417,.F.);
#592=ORIENTED_EDGE('',*,*,#380,.F.);
#593=ORIENTED_EDGE('',*,*,#431,.T.);
#594=ORIENTED_EDGE('',*,*,#406,.F.);
#595=ORIENTED_EDGE('',*,*,#432,.T.);
#596=ORIENTED_EDGE('',*,*,#383,.F.);
#597=ORIENTED_EDGE('',*,*,#432,.F.);
#598=ORIENTED_EDGE('',*,*,#403,.F.);
#599=ORIENTED_EDGE('',*,*,#433,.F.);
#600=ORIENTED_EDGE('',*,*,#349,.T.);
#601=ORIENTED_EDGE('',*,*,#386,.F.);
#602=ORIENTED_EDGE('',*,*,#433,.T.);
#603=ORIENTED_EDGE('',*,*,#400,.F.);
#604=ORIENTED_EDGE('',*,*,#434,.T.);
#605=ORIENTED_EDGE('',*,*,#426,.F.);
#606=ORIENTED_EDGE('',*,*,#430,.F.);
#607=ORIENTED_EDGE('',*,*,#427,.F.);
#608=ORIENTED_EDGE('',*,*,#435,.T.);
#609=ORIENTED_EDGE('',*,*,#435,.F.);
#610=ORIENTED_EDGE('',*,*,#389,.F.);
#611=ORIENTED_EDGE('',*,*,#434,.F.);
#612=ORIENTED_EDGE('',*,*,#399,.F.);
#613=ORIENTED_EDGE('',*,*,#414,.F.);
#614=CONICAL_SURFACE('',#687,0.61475,1.02974425867665);
#615=CONICAL_SURFACE('',#691,0.61475,1.02974425867665);
#616=CONICAL_SURFACE('',#695,0.61475,1.02974425867665);
#617=CONICAL_SURFACE('',#699,0.61475,1.02974425867665);
#618=CONICAL_SURFACE('',#706,5.1,0.785398163397459);
#619=CONICAL_SURFACE('',#711,7.90000000000001,0.785398163397445);
#620=CONICAL_SURFACE('',#715,7.9,0.785398163397468);
#621=CONICAL_SURFACE('',#722,7.9,0.785398163397459);
#622=CONICAL_SURFACE('',#726,7.90000000000001,0.785398163397455);
#623=CONICAL_SURFACE('',#736,5.098,0.795398830184136);
#624=ADVANCED_FACE('',(#54),#614,.F.);
#625=ADVANCED_FACE('',(#55),#47,.F.);
#626=ADVANCED_FACE('',(#56),#615,.F.);
#627=ADVANCED_FACE('',(#57),#48,.F.);
#628=ADVANCED_FACE('',(#58),#616,.F.);
#629=ADVANCED_FACE('',(#59),#49,.F.);
#630=ADVANCED_FACE('',(#60),#617,.F.);
#631=ADVANCED_FACE('',(#61),#50,.F.);
#632=ADVANCED_FACE('',(#62),#22,.T.);
#633=ADVANCED_FACE('',(#63),#23,.T.);
#634=ADVANCED_FACE('',(#64),#24,.T.);
#635=ADVANCED_FACE('',(#65),#618,.F.);
#636=ADVANCED_FACE('',(#66),#25,.T.);
#637=ADVANCED_FACE('',(#67),#26,.T.);
#638=ADVANCED_FACE('',(#68),#619,.T.);
#639=ADVANCED_FACE('',(#69),#27,.T.);
#640=ADVANCED_FACE('',(#70),#620,.T.);
#641=ADVANCED_FACE('',(#71),#28,.T.);
#642=ADVANCED_FACE('',(#72),#29,.T.);
#643=ADVANCED_FACE('',(#73),#30,.T.);
#644=ADVANCED_FACE('',(#74),#31,.T.);
#645=ADVANCED_FACE('',(#75),#621,.T.);
#646=ADVANCED_FACE('',(#76),#32,.T.);
#647=ADVANCED_FACE('',(#77),#622,.T.);
#648=ADVANCED_FACE('',(#78),#33,.T.);
#649=ADVANCED_FACE('',(#79),#34,.T.);
#650=ADVANCED_FACE('',(#80),#35,.T.);
#651=ADVANCED_FACE('',(#81),#36,.T.);
#652=ADVANCED_FACE('',(#82),#37,.T.);
#653=ADVANCED_FACE('',(#83),#38,.T.);
#654=ADVANCED_FACE('',(#84),#39,.T.);
#655=ADVANCED_FACE('',(#85),#623,.F.);
#656=ADVANCED_FACE('',(#86),#40,.T.);
#657=ADVANCED_FACE('',(#87),#51,.F.);
#658=ADVANCED_FACE('',(#88,#16,#17),#41,.T.);
#659=ADVANCED_FACE('',(#89,#18),#42,.T.);
#660=ADVANCED_FACE('',(#90),#43,.T.);
#661=ADVANCED_FACE('',(#91),#44,.T.);
#662=ADVANCED_FACE('',(#92),#52,.T.);
#663=ADVANCED_FACE('',(#93,#19),#45,.T.);
#664=ADVANCED_FACE('',(#94),#53,.T.);
#665=ADVANCED_FACE('',(#95),#15,.F.);
#666=ADVANCED_FACE('',(#96),#46,.T.);
#667=CLOSED_SHELL('',(#624,#625,#626,#627,#628,#629,#630,#631,#632,#633,
#634,#635,#636,#637,#638,#639,#640,#641,#642,#643,#644,#645,#646,#647,#648,
#649,#650,#651,#652,#653,#654,#655,#656,#657,#658,#659,#660,#661,#662,#663,
#664,#665,#666));
#668=DERIVED_UNIT_ELEMENT(#670,1.);
#669=DERIVED_UNIT_ELEMENT(#1145,3.);
#670=(
MASS_UNIT()
NAMED_UNIT(*)
SI_UNIT($,.GRAM.)
);
#671=DERIVED_UNIT((#668,#669));
#672=MEASURE_REPRESENTATION_ITEM('density measure',
POSITIVE_RATIO_MEASURE(8.47),#671);
#673=PROPERTY_DEFINITION_REPRESENTATION(#678,#675);
#674=PROPERTY_DEFINITION_REPRESENTATION(#679,#676);
#675=REPRESENTATION('material name',(#677),#1142);
#676=REPRESENTATION('density',(#672),#1142);
#677=DESCRIPTIVE_REPRESENTATION_ITEM('Brass, Soft Yellow',
'Brass, Soft Yellow');
#678=PROPERTY_DEFINITION('material property','material name',#1152);
#679=PROPERTY_DEFINITION('material property','density of part',#1152);
#680=DATE_TIME_ROLE('creation_date');
#681=APPLIED_DATE_AND_TIME_ASSIGNMENT(#682,#680,(#1152));
#682=DATE_AND_TIME(#683,#684);
#683=CALENDAR_DATE(2025,16,9);
#684=LOCAL_TIME(0,0,0.,#685);
#685=COORDINATED_UNIVERSAL_TIME_OFFSET(0,0,.BEHIND.);
#686=AXIS2_PLACEMENT_3D('placement',#951,#753,#754);
#687=AXIS2_PLACEMENT_3D('',#952,#755,#756);
#688=AXIS2_PLACEMENT_3D('',#954,#757,#758);
#689=AXIS2_PLACEMENT_3D('',#957,#760,#761);
#690=AXIS2_PLACEMENT_3D('',#959,#762,#763);
#691=AXIS2_PLACEMENT_3D('',#961,#765,#766);
#692=AXIS2_PLACEMENT_3D('',#963,#767,#768);
#693=AXIS2_PLACEMENT_3D('',#966,#770,#771);
#694=AXIS2_PLACEMENT_3D('',#968,#772,#773);
#695=AXIS2_PLACEMENT_3D('',#970,#775,#776);
#696=AXIS2_PLACEMENT_3D('',#972,#777,#778);
#697=AXIS2_PLACEMENT_3D('',#975,#780,#781);
#698=AXIS2_PLACEMENT_3D('',#977,#782,#783);
#699=AXIS2_PLACEMENT_3D('',#979,#785,#786);
#700=AXIS2_PLACEMENT_3D('',#981,#787,#788);
#701=AXIS2_PLACEMENT_3D('',#984,#790,#791);
#702=AXIS2_PLACEMENT_3D('',#986,#792,#793);
#703=AXIS2_PLACEMENT_3D('',#988,#795,#796);
#704=AXIS2_PLACEMENT_3D('',#997,#799,#800);
#705=AXIS2_PLACEMENT_3D('',#1004,#804,#805);
#706=AXIS2_PLACEMENT_3D('',#1013,#808,#809);
#707=AXIS2_PLACEMENT_3D('',#1014,#810,#811);
#708=AXIS2_PLACEMENT_3D('',#1015,#812,#813);
#709=AXIS2_PLACEMENT_3D('',#1016,#814,#815);
#710=AXIS2_PLACEMENT_3D('',#1023,#819,#820);
#711=AXIS2_PLACEMENT_3D('',#1029,#824,#825);
#712=AXIS2_PLACEMENT_3D('',#1031,#826,#827);
#713=AXIS2_PLACEMENT_3D('',#1034,#829,#830);
#714=AXIS2_PLACEMENT_3D('',#1035,#831,#832);
#715=AXIS2_PLACEMENT_3D('',#1041,#836,#837);
#716=AXIS2_PLACEMENT_3D('',#1043,#838,#839);
#717=AXIS2_PLACEMENT_3D('',#1046,#841,#842);
#718=AXIS2_PLACEMENT_3D('',#1047,#843,#844);
#719=AXIS2_PLACEMENT_3D('',#1050,#847,#848);
#720=AXIS2_PLACEMENT_3D('',#1057,#852,#853);
#721=AXIS2_PLACEMENT_3D('',#1064,#857,#858);
#722=AXIS2_PLACEMENT_3D('',#1070,#862,#863);
#723=AXIS2_PLACEMENT_3D('',#1072,#864,#865);
#724=AXIS2_PLACEMENT_3D('',#1075,#867,#868);
#725=AXIS2_PLACEMENT_3D('',#1076,#869,#870);
#726=AXIS2_PLACEMENT_3D('',#1082,#874,#875);
#727=AXIS2_PLACEMENT_3D('',#1084,#876,#877);
#728=AXIS2_PLACEMENT_3D('',#1087,#879,#880);
#729=AXIS2_PLACEMENT_3D('',#1088,#881,#882);
#730=AXIS2_PLACEMENT_3D('',#1091,#885,#886);
#731=AXIS2_PLACEMENT_3D('',#1094,#889,#890);
#732=AXIS2_PLACEMENT_3D('',#1097,#893,#894);
#733=AXIS2_PLACEMENT_3D('',#1100,#897,#898);
#734=AXIS2_PLACEMENT_3D('',#1103,#901,#902);
#735=AXIS2_PLACEMENT_3D('',#1106,#905,#906);
#736=AXIS2_PLACEMENT_3D('',#1112,#910,#911);
#737=AXIS2_PLACEMENT_3D('',#1116,#913,#914);
#738=AXIS2_PLACEMENT_3D('',#1118,#915,#916);
#739=AXIS2_PLACEMENT_3D('',#1119,#917,#918);
#740=AXIS2_PLACEMENT_3D('',#1120,#919,#920);
#741=AXIS2_PLACEMENT_3D('',#1123,#923,#924);
#742=AXIS2_PLACEMENT_3D('',#1124,#925,#926);
#743=AXIS2_PLACEMENT_3D('',#1125,#927,#928);
#744=AXIS2_PLACEMENT_3D('',#1127,#930,#931);
#745=AXIS2_PLACEMENT_3D('',#1128,#932,#933);
#746=AXIS2_PLACEMENT_3D('',#1129,#934,#935);
#747=AXIS2_PLACEMENT_3D('',#1130,#936,#937);
#748=AXIS2_PLACEMENT_3D('',#1132,#939,#940);
#749=AXIS2_PLACEMENT_3D('',#1134,#942,#943);
#750=AXIS2_PLACEMENT_3D('',#1136,#945,#946);
#751=AXIS2_PLACEMENT_3D('',#1138,#947,#948);
#752=AXIS2_PLACEMENT_3D('',#1139,#949,#950);
#753=DIRECTION('axis',(0.,0.,1.));
#754=DIRECTION('refdir',(1.,0.,0.));
#755=DIRECTION('center_axis',(0.,0.,-1.));
#756=DIRECTION('ref_axis',(-1.,0.,0.));
#757=DIRECTION('center_axis',(0.,0.,-1.));
#758=DIRECTION('ref_axis',(-1.,0.,0.));
#759=DIRECTION('',(-0.857167300702112,1.04972719113862E-16,0.515038074910054));
#760=DIRECTION('center_axis',(0.,0.,-1.));
#761=DIRECTION('ref_axis',(-1.,0.,0.));
#762=DIRECTION('center_axis',(0.,0.,1.));
#763=DIRECTION('ref_axis',(-1.,0.,0.));
#764=DIRECTION('',(0.,0.,1.));
#765=DIRECTION('center_axis',(-1.,4.44089209850063E-16,0.));
#766=DIRECTION('ref_axis',(0.,0.,-1.));
#767=DIRECTION('center_axis',(1.,-4.44089209850063E-16,0.));
#768=DIRECTION('ref_axis',(0.,0.,-1.));
#769=DIRECTION('',(0.515038074910054,-1.23750132615641E-16,-0.857167300702112));
#770=DIRECTION('center_axis',(1.,-4.44089209850063E-16,0.));
#771=DIRECTION('ref_axis',(0.,0.,-1.));
#772=DIRECTION('center_axis',(1.,-2.22044604925031E-16,0.));
#773=DIRECTION('ref_axis',(0.,0.,-1.));
#774=DIRECTION('',(1.,-4.44089209850063E-16,0.));
#775=DIRECTION('center_axis',(-1.,4.44089209850063E-16,0.));
#776=DIRECTION('ref_axis',(0.,0.,-1.));
#777=DIRECTION('center_axis',(1.,-4.44089209850063E-16,0.));
#778=DIRECTION('ref_axis',(0.,0.,-1.));
#779=DIRECTION('',(0.515038074910054,-1.23750132615641E-16,-0.857167300702112));
#780=DIRECTION('center_axis',(1.,-4.44089209850063E-16,0.));
#781=DIRECTION('ref_axis',(0.,0.,-1.));
#782=DIRECTION('center_axis',(1.,-2.22044604925031E-16,0.));
#783=DIRECTION('ref_axis',(0.,0.,-1.));
#784=DIRECTION('',(1.,-4.44089209850063E-16,0.));
#785=DIRECTION('center_axis',(1.11022302462516E-16,-1.,0.));
#786=DIRECTION('ref_axis',(1.,1.11022302462516E-16,0.));
#787=DIRECTION('center_axis',(1.11022302462516E-16,-1.,0.));
#788=DIRECTION('ref_axis',(1.,1.11022302462516E-16,0.));
#789=DIRECTION('',(0.857167300702112,0.515038074910054,1.04972719113862E-16));
#790=DIRECTION('center_axis',(1.11022302462516E-16,-1.,0.));
#791=DIRECTION('ref_axis',(1.,1.11022302462516E-16,0.));
#792=DIRECTION('center_axis',(-1.11022302462516E-16,1.,0.));
#793=DIRECTION('ref_axis',(1.,1.11022302462516E-16,0.));
#794=DIRECTION('',(-1.11022302462516E-16,1.,0.));
#795=DIRECTION('center_axis',(0.573280133977267,0.584862720900586,0.57383402276945));
#796=DIRECTION('ref_axis',(0.707448128136254,0.,-0.706765269376269));
#797=DIRECTION('',(0.714142842854286,-0.699999999999999,0.));
#798=DIRECTION('',(-0.0136019815239306,0.70704136586859,-0.707041365868576));
#799=DIRECTION('center_axis',(-0.577350269189623,-0.577350269189623,0.577350269189632));
#800=DIRECTION('ref_axis',(0.707106781186553,0.,0.707106781186542));
#801=DIRECTION('',(0.707106781186555,0.,0.70710678118654));
#802=DIRECTION('',(-0.707106781186548,0.707106781186548,0.));
#803=DIRECTION('',(0.,-0.707106781186553,-0.707106781186542));
#804=DIRECTION('center_axis',(-0.573280133977264,0.584862720900588,0.573834022769452));
#805=DIRECTION('ref_axis',(0.707448128136257,0.,0.706765269376266));
#806=DIRECTION('',(0.714142842854286,0.699999999999999,0.));
#807=DIRECTION('',(-0.0136019815239384,-0.707041365868591,0.707041365868575));
#808=DIRECTION('center_axis',(0.,0.,1.));
#809=DIRECTION('ref_axis',(-0.707106781186547,-0.707106781186548,0.));
#810=DIRECTION('center_axis',(0.,0.,-1.));
#811=DIRECTION('ref_axis',(-0.707106781186547,-0.707106781186548,0.));
#812=DIRECTION('center_axis',(0.,0.,1.));
#813=DIRECTION('ref_axis',(-0.707106781186547,-0.707106781186548,0.));
#814=DIRECTION('center_axis',(0.577350269189622,-0.577350269189622,0.577350269189634));
#815=DIRECTION('ref_axis',(0.707106781186555,0.,-0.70710678118654));
#816=DIRECTION('',(0.,0.707106781186554,0.707106781186541));
#817=DIRECTION('',(-0.707106781186548,-0.707106781186548,0.));
#818=DIRECTION('',(0.707106781186555,0.,-0.70710678118654));
#819=DIRECTION('center_axis',(-0.707106781186548,-0.707106781186548,0.));
#820=DIRECTION('ref_axis',(0.,0.,1.));
#821=DIRECTION('',(0.707106781186551,-0.707106781186544,0.));
#822=DIRECTION('',(0.,0.,1.));
#823=DIRECTION('',(0.,0.,-1.));
#824=DIRECTION('center_axis',(0.,1.,0.));
#825=DIRECTION('ref_axis',(-0.707106781186548,1.09310234465325E-17,-0.707106781186547));
#826=DIRECTION('center_axis',(1.11022302462516E-16,-1.,0.));
#827=DIRECTION('ref_axis',(-0.707106781186548,9.8130778667736E-17,-0.707106781186547));
#828=DIRECTION('',(0.,-0.707106781186549,0.707106781186546));
#829=DIRECTION('center_axis',(-1.11022302462516E-16,1.,0.));
#830=DIRECTION('ref_axis',(-0.707106781186548,-7.85046229341888E-17,-0.707106781186547));
#831=DIRECTION('center_axis',(7.8504622934188E-17,-0.707106781186541,-0.707106781186554));
#832=DIRECTION('ref_axis',(-1.,0.,-1.11022302462514E-16));
#833=DIRECTION('',(1.,1.11022302462516E-16,0.));
#834=DIRECTION('',(0.,-0.707106781186554,0.707106781186541));
#835=DIRECTION('',(-1.,-1.11022302462516E-16,0.));
#836=DIRECTION('center_axis',(0.,1.,0.));
#837=DIRECTION('ref_axis',(0.707106781186548,-1.10303963869556E-16,-0.707106781186547));
#838=DIRECTION('center_axis',(1.11022302462516E-16,-1.,0.));
#839=DIRECTION('ref_axis',(0.707106781186548,-2.94392336003208E-16,-0.707106781186547));
#840=DIRECTION('',(-0.707106781186569,-0.707106781186526,0.));
#841=DIRECTION('center_axis',(-1.11022302462516E-16,1.,0.));
#842=DIRECTION('ref_axis',(0.707106781186548,7.85046229341888E-17,-0.707106781186547));
#843=DIRECTION('center_axis',(0.707106781186548,-0.707106781186548,0.));
#844=DIRECTION('ref_axis',(0.,0.,-1.));
#845=DIRECTION('',(0.,0.,1.));
#846=DIRECTION('',(0.,0.,-1.));
#847=DIRECTION('center_axis',(-0.577350269189622,0.577350269189622,0.577350269189634));
#848=DIRECTION('ref_axis',(0.707106781186555,0.,0.70710678118654));
#849=DIRECTION('',(0.,-0.707106781186554,0.707106781186541));
#850=DIRECTION('',(0.707106781186548,0.707106781186548,0.));
#851=DIRECTION('',(-0.707106781186555,0.,-0.70710678118654));
#852=DIRECTION('center_axis',(0.577350269189622,0.577350269189622,0.577350269189634));
#853=DIRECTION('ref_axis',(0.707106781186555,0.,-0.70710678118654));
#854=DIRECTION('',(-0.707106781186555,0.,0.70710678118654));
#855=DIRECTION('',(0.707106781186548,-0.707106781186548,0.));
#856=DIRECTION('',(0.,0.707106781186555,-0.70710678118654));
#857=DIRECTION('center_axis',(0.707106781186548,0.707106781186548,0.));
#858=DIRECTION('ref_axis',(0.,0.,-1.));
#859=DIRECTION('',(-0.707106781186546,0.707106781186548,0.));
#860=DIRECTION('',(0.,0.,1.));
#861=DIRECTION('',(0.,0.,-1.));
#862=DIRECTION('center_axis',(0.,-1.,0.));
#863=DIRECTION('ref_axis',(0.707106781186548,-1.29681687252046E-16,-0.707106781186547));
#864=DIRECTION('center_axis',(-5.55111512312578E-17,1.,0.));
#865=DIRECTION('ref_axis',(0.707106781186548,-2.94392336003208E-16,-0.707106781186547));
#866=DIRECTION('',(0.,0.707106781186548,0.707106781186546));
#867=DIRECTION('center_axis',(5.55111512312578E-17,-1.,0.));
#868=DIRECTION('ref_axis',(0.707106781186548,3.92523114670944E-17,-0.707106781186547));
#869=DIRECTION('center_axis',(-3.92523114670939E-17,0.70710678118654,-0.707106781186555));
#870=DIRECTION('ref_axis',(-1.,0.,5.55111512312566E-17));
#871=DIRECTION('',(-1.,-5.55111512312578E-17,0.));
#872=DIRECTION('',(0.,0.707106781186555,0.70710678118654));
#873=DIRECTION('',(1.,5.55111512312578E-17,0.));
#874=DIRECTION('center_axis',(0.,-1.,0.));
#875=DIRECTION('ref_axis',(-0.707106781186548,3.03087468290222E-17,-0.707106781186547));
#876=DIRECTION('center_axis',(-5.55111512312578E-17,1.,0.));
#877=DIRECTION('ref_axis',(-0.707106781186548,9.8130778667736E-17,-0.707106781186547));
#878=DIRECTION('',(0.707106781186555,0.70710678118654,0.));
#879=DIRECTION('center_axis',(5.55111512312578E-17,-1.,0.));
#880=DIRECTION('ref_axis',(-0.707106781186548,-3.92523114670944E-17,-0.707106781186547));
#881=DIRECTION('center_axis',(-0.707106781186548,0.707106781186548,0.));
#882=DIRECTION('ref_axis',(0.,0.,1.));
#883=DIRECTION('',(0.,0.,1.));
#884=DIRECTION('',(0.,0.,-1.));
#885=DIRECTION('center_axis',(-3.92523114670939E-17,0.70710678118654,0.707106781186555));
#886=DIRECTION('ref_axis',(1.,0.,5.55111512312566E-17));
#887=DIRECTION('',(1.,5.55111512312578E-17,0.));
#888=DIRECTION('',(-1.,-5.55111512312578E-17,0.));
#889=DIRECTION('center_axis',(0.70710678118654,-3.14018491736752E-16,0.707106781186555));
#890=DIRECTION('ref_axis',(0.707106781186555,0.,-0.70710678118654));
#891=DIRECTION('',(-4.44089209850063E-16,-1.,0.));
#892=DIRECTION('',(4.44089209850063E-16,1.,0.));
#893=DIRECTION('center_axis',(-0.70710678118654,1.57009245868376E-16,0.707106781186555));
#894=DIRECTION('ref_axis',(0.707106781186555,0.,0.70710678118654));
#895=DIRECTION('',(2.22044604925031E-16,1.,0.));
#896=DIRECTION('',(-2.22044604925031E-16,-1.,0.));
#897=DIRECTION('center_axis',(-3.92523114670939E-17,0.70710678118654,0.707106781186555));
#898=DIRECTION('ref_axis',(1.,0.,5.55111512312566E-17));
#899=DIRECTION('',(1.,5.55111512312578E-17,0.));
#900=DIRECTION('',(-1.,-5.55111512312578E-17,0.));
#901=DIRECTION('center_axis',(7.8504622934188E-17,-0.707106781186541,0.707106781186554));
#902=DIRECTION('ref_axis',(1.,0.,-1.11022302462514E-16));
#903=DIRECTION('',(-1.,-1.11022302462516E-16,0.));
#904=DIRECTION('',(1.,1.11022302462516E-16,0.));
#905=DIRECTION('center_axis',(0.699999999999999,0.714142842854286,0.));
#906=DIRECTION('ref_axis',(0.,0.,-1.));
#907=DIRECTION('',(-0.714142842854284,0.700000000000001,0.));
#908=DIRECTION('',(0.,0.,1.));
#909=DIRECTION('',(0.,0.,-1.));
#910=DIRECTION('center_axis',(-5.5511151231258E-17,1.,0.));
#911=DIRECTION('ref_axis',(0.,0.,-1.));
#912=DIRECTION('',(0.714142842854279,0.700000000000006,0.));
#913=DIRECTION('center_axis',(-5.55111512312578E-17,1.,0.));
#914=DIRECTION('ref_axis',(0.,0.,-1.));
#915=DIRECTION('center_axis',(5.55111512312578E-17,-1.,0.));
#916=DIRECTION('ref_axis',(0.,0.,-1.));
#917=DIRECTION('center_axis',(5.55111512312578E-17,-1.,0.));
#918=DIRECTION('ref_axis',(0.,0.,-1.));
#919=DIRECTION('center_axis',(-0.699999999999999,0.714142842854286,0.));
#920=DIRECTION('ref_axis',(0.,0.,1.));
#921=DIRECTION('',(0.,0.,1.));
#922=DIRECTION('',(0.,0.,-1.));
#923=DIRECTION('center_axis',(0.,0.,-1.));
#924=DIRECTION('ref_axis',(-0.707106781186547,-0.707106781186548,0.));
#925=DIRECTION('center_axis',(0.,0.,-1.));
#926=DIRECTION('ref_axis',(1.22464679914735E-16,-1.,0.));
#927=DIRECTION('center_axis',(-1.,2.22044604925031E-16,0.));
#928=DIRECTION('ref_axis',(-2.22044604925031E-16,-1.,0.));
#929=DIRECTION('',(2.22044604925031E-16,1.,0.));
#930=DIRECTION('center_axis',(1.11022302462516E-16,-1.,0.));
#931=DIRECTION('ref_axis',(1.,1.11022302462516E-16,0.));
#932=DIRECTION('center_axis',(-5.55111512312578E-17,1.,0.));
#933=DIRECTION('ref_axis',(-1.,-5.55111512312578E-17,0.));
#934=DIRECTION('center_axis',(0.,0.,1.));
#935=DIRECTION('ref_axis',(1.,0.,0.));
#936=DIRECTION('center_axis',(2.22044604925031E-16,1.,0.));
#937=DIRECTION('ref_axis',(-0.707106781186548,9.8130778667736E-17,-0.707106781186547));
#938=DIRECTION('',(-2.22044604925031E-16,-1.,0.));
#939=DIRECTION('center_axis',(0.,0.,-1.));
#940=DIRECTION('ref_axis',(-1.,0.,0.));
#941=DIRECTION('',(4.44089209850063E-16,1.,0.));
#942=DIRECTION('center_axis',(-4.44089209850063E-16,-1.,0.));
#943=DIRECTION('ref_axis',(0.707106781186548,-2.94392336003208E-16,-0.707106781186547));
#944=DIRECTION('',(-4.44089209850063E-16,-1.,0.));
#945=DIRECTION('center_axis',(0.577350269189626,0.577350269189626,0.577350269189626));
#946=DIRECTION('ref_axis',(-0.707106781186548,0.,0.707106781186548));
#947=DIRECTION('center_axis',(-0.408248290463863,0.816496580927726,-0.408248290463863));
#948=DIRECTION('ref_axis',(0.707106781186547,0.,-0.707106781186548));
#949=DIRECTION('center_axis',(1.,-4.44089209850063E-16,0.));
#950=DIRECTION('ref_axis',(4.44089209850063E-16,1.,0.));
#951=CARTESIAN_POINT('',(0.,0.,0.));
#952=CARTESIAN_POINT('Origin',(0.,-0.999999999999999,-43.6306209344528));
#953=CARTESIAN_POINT('',(1.2295,-1.,-44.));
#954=CARTESIAN_POINT('Origin',(0.,-0.999999999999999,-44.));
#955=CARTESIAN_POINT('',(0.,-0.999999999999999,-43.2612418689056));
#956=CARTESIAN_POINT('',(0.61475,-0.999999999999999,-43.6306209344528));
#957=CARTESIAN_POINT('Origin',(0.,-0.999999999999999,-47.));
#958=CARTESIAN_POINT('',(1.2295,-0.999999999999999,-50.));
#959=CARTESIAN_POINT('Origin',(0.,-0.999999999999999,-50.));
#960=CARTESIAN_POINT('',(1.2295,-0.999999999999999,-47.));
#961=CARTESIAN_POINT('Origin',(-3.6306209344528,-0.999999999999993,40.));
#962=CARTESIAN_POINT('',(-4.,-0.999999999999993,41.2295));
#963=CARTESIAN_POINT('Origin',(-4.,-0.999999999999992,40.));
#964=CARTESIAN_POINT('',(-3.26124186890561,-0.999999999999993,40.));
#965=CARTESIAN_POINT('',(-3.6306209344528,-0.999999999999993,40.61475));
#966=CARTESIAN_POINT('Origin',(-7.,-0.999999999999991,40.));
#967=CARTESIAN_POINT('',(-10.,-0.99999999999999,41.2295));
#968=CARTESIAN_POINT('Origin',(-10.,-0.99999999999999,40.));
#969=CARTESIAN_POINT('',(-7.,-0.999999999999991,41.2295));
#970=CARTESIAN_POINT('Origin',(-3.6306209344528,-0.999999999999993,30.));
#971=CARTESIAN_POINT('',(-4.,-0.999999999999993,31.2295));
#972=CARTESIAN_POINT('Origin',(-4.,-0.999999999999992,30.));
#973=CARTESIAN_POINT('',(-3.26124186890561,-0.999999999999993,30.));
#974=CARTESIAN_POINT('',(-3.6306209344528,-0.999999999999993,30.61475));
#975=CARTESIAN_POINT('Origin',(-7.,-0.999999999999991,30.));
#976=CARTESIAN_POINT('',(-10.,-0.99999999999999,31.2295));
#977=CARTESIAN_POINT('Origin',(-10.,-0.99999999999999,30.));
#978=CARTESIAN_POINT('',(-7.,-0.999999999999991,31.2295));
#979=CARTESIAN_POINT('Origin',(6.8063565166785E-16,-1.13062093445281,-10.));
#980=CARTESIAN_POINT('',(-1.2295,-1.5,-10.));
#981=CARTESIAN_POINT('Origin',(7.21644966006352E-16,-1.5,-10.));
#982=CARTESIAN_POINT('',(6.39626337329348E-16,-0.761241868905614,-10.));
#983=CARTESIAN_POINT('',(-0.614749999999999,-1.13062093445281,-10.));
#984=CARTESIAN_POINT('Origin',(9.15933995315754E-16,-3.25,-10.));
#985=CARTESIAN_POINT('',(-1.2295,-5.,-10.));
#986=CARTESIAN_POINT('Origin',(1.11022302462516E-15,-5.,-10.));
#987=CARTESIAN_POINT('',(-1.2295,-3.25,-10.));
#988=CARTESIAN_POINT('Origin',(-5.2,5.,49.8));
#989=CARTESIAN_POINT('',(-5.2,5.,49.8));
#990=CARTESIAN_POINT('',(-4.996,4.8000400040008,49.8));
#991=CARTESIAN_POINT('',(-5.2,5.,49.8));
#992=CARTESIAN_POINT('',(-5.19615242270663,4.8,50.));
#993=CARTESIAN_POINT('',(-5.19615242270663,4.8,50.));
#994=CARTESIAN_POINT('Ctrl Pts',(-5.19615242270663,4.8,50.));
#995=CARTESIAN_POINT('Ctrl Pts',(-5.0940358191043,4.80002346070151,49.8979580520486));
#996=CARTESIAN_POINT('Ctrl Pts',(-4.996,4.8000400040008,49.8));
#997=CARTESIAN_POINT('Origin',(-9.8,-5.,49.8));
#998=CARTESIAN_POINT('',(-10.,-4.8,49.8));
#999=CARTESIAN_POINT('',(-9.8,-4.8,50.));
#1000=CARTESIAN_POINT('',(-10.,-4.8,49.8));
#1001=CARTESIAN_POINT('',(-9.8,-5.,49.8));
#1002=CARTESIAN_POINT('',(-9.8,-5.,49.8));
#1003=CARTESIAN_POINT('',(-9.8,-4.8,50.));
#1004=CARTESIAN_POINT('Origin',(4.996,4.8000400040008,49.8));
#1005=CARTESIAN_POINT('',(4.996,4.8000400040008,49.8));
#1006=CARTESIAN_POINT('',(5.2,5.,49.8));
#1007=CARTESIAN_POINT('',(4.996,4.8000400040008,49.8));
#1008=CARTESIAN_POINT('',(5.19615242270663,4.8,50.));
#1009=CARTESIAN_POINT('Ctrl Pts',(4.99600000000001,4.8000400040008,49.8));
#1010=CARTESIAN_POINT('Ctrl Pts',(5.09403581910431,4.80002346070151,49.8979580520486));
#1011=CARTESIAN_POINT('Ctrl Pts',(5.19615242270663,4.8,50.));
#1012=CARTESIAN_POINT('',(5.2,5.,49.8));
#1013=CARTESIAN_POINT('Origin',(0.,5.,49.9));
#1014=CARTESIAN_POINT('Origin',(0.,5.,49.8));
#1015=CARTESIAN_POINT('Origin',(0.,5.,50.));
#1016=CARTESIAN_POINT('Origin',(10.,-4.8,49.8));
#1017=CARTESIAN_POINT('',(9.8,-5.,49.8));
#1018=CARTESIAN_POINT('',(9.8,-4.8,50.));
#1019=CARTESIAN_POINT('',(9.8,-5.,49.8));
#1020=CARTESIAN_POINT('',(10.,-4.8,49.8));
#1021=CARTESIAN_POINT('',(10.,-4.8,49.8));
#1022=CARTESIAN_POINT('',(9.8,-4.8,50.));
#1023=CARTESIAN_POINT('Origin',(-9.9,-4.9,0.));
#1024=CARTESIAN_POINT('',(-10.,-4.8,-42.));
#1025=CARTESIAN_POINT('',(-9.8,-5.,-42.));
#1026=CARTESIAN_POINT('',(-10.,-4.8,-42.));
#1027=CARTESIAN_POINT('',(-9.8,-5.,0.));
#1028=CARTESIAN_POINT('',(-10.,-4.8,0.));
#1029=CARTESIAN_POINT('Origin',(-2.,-4.9,-42.));
#1030=CARTESIAN_POINT('',(-2.,-4.8,-50.));
#1031=CARTESIAN_POINT('Origin',(-2.,-4.8,-42.));
#1032=CARTESIAN_POINT('',(-2.,-5.,-49.8));
#1033=CARTESIAN_POINT('',(-2.,-4.8,-50.));
#1034=CARTESIAN_POINT('Origin',(-2.,-5.,-42.));
#1035=CARTESIAN_POINT('Origin',(-5.,-4.9,-49.9));
#1036=CARTESIAN_POINT('',(2.,-4.8,-50.));
#1037=CARTESIAN_POINT('',(-5.,-4.8,-50.));
#1038=CARTESIAN_POINT('',(2.,-5.,-49.8));
#1039=CARTESIAN_POINT('',(2.,-4.8,-50.));
#1040=CARTESIAN_POINT('',(-5.,-5.,-49.8));
#1041=CARTESIAN_POINT('Origin',(2.,-4.90000000000001,-42.));
#1042=CARTESIAN_POINT('',(10.,-4.80000000000001,-42.));
#1043=CARTESIAN_POINT('Origin',(2.,-4.80000000000002,-42.));
#1044=CARTESIAN_POINT('',(9.8,-5.,-42.));
#1045=CARTESIAN_POINT('',(10.,-4.80000000000001,-42.));
#1046=CARTESIAN_POINT('Origin',(2.,-5.,-42.));
#1047=CARTESIAN_POINT('Origin',(9.9,-4.9,0.));
#1048=CARTESIAN_POINT('',(10.,-4.8,0.));
#1049=CARTESIAN_POINT('',(9.8,-5.,0.));
#1050=CARTESIAN_POINT('Origin',(-10.,4.8,49.8));
#1051=CARTESIAN_POINT('',(-9.8,5.,49.8));
#1052=CARTESIAN_POINT('',(-9.8,4.8,50.));
#1053=CARTESIAN_POINT('',(-9.8,5.,49.8));
#1054=CARTESIAN_POINT('',(-10.,4.8,49.8));
#1055=CARTESIAN_POINT('',(-10.,4.8,49.8));
#1056=CARTESIAN_POINT('',(-9.8,4.8,50.));
#1057=CARTESIAN_POINT('Origin',(9.8,5.,49.8));
#1058=CARTESIAN_POINT('',(10.,4.8,49.8));
#1059=CARTESIAN_POINT('',(9.8,4.8,50.));
#1060=CARTESIAN_POINT('',(10.,4.8,49.8));
#1061=CARTESIAN_POINT('',(9.8,5.,49.8));
#1062=CARTESIAN_POINT('',(9.8,5.,49.8));
#1063=CARTESIAN_POINT('',(9.8,4.8,50.));
#1064=CARTESIAN_POINT('Origin',(9.9,4.9,0.));
#1065=CARTESIAN_POINT('',(10.,4.8,-42.));
#1066=CARTESIAN_POINT('',(9.8,5.,-42.));
#1067=CARTESIAN_POINT('',(10.,4.8,-42.));
#1068=CARTESIAN_POINT('',(9.8,5.,0.));
#1069=CARTESIAN_POINT('',(10.,4.8,0.));
#1070=CARTESIAN_POINT('Origin',(2.,4.9,-42.));
#1071=CARTESIAN_POINT('',(2.,4.80000000000001,-50.));
#1072=CARTESIAN_POINT('Origin',(2.,4.80000000000001,-42.));
#1073=CARTESIAN_POINT('',(2.,5.,-49.8));
#1074=CARTESIAN_POINT('',(2.,4.80000000000001,-50.));
#1075=CARTESIAN_POINT('Origin',(2.,5.,-42.));
#1076=CARTESIAN_POINT('Origin',(5.,4.9,-49.9));
#1077=CARTESIAN_POINT('',(-2.,4.8,-50.));
#1078=CARTESIAN_POINT('',(5.,4.8,-50.));
#1079=CARTESIAN_POINT('',(-2.,5.,-49.8));
#1080=CARTESIAN_POINT('',(-2.,4.8,-50.));
#1081=CARTESIAN_POINT('',(5.,5.,-49.8));
#1082=CARTESIAN_POINT('Origin',(-2.,4.9,-42.));
#1083=CARTESIAN_POINT('',(-10.,4.80000000000001,-42.));
#1084=CARTESIAN_POINT('Origin',(-2.,4.80000000000001,-42.));
#1085=CARTESIAN_POINT('',(-9.8,5.,-42.));
#1086=CARTESIAN_POINT('',(-10.,4.80000000000001,-42.));
#1087=CARTESIAN_POINT('Origin',(-2.,5.,-42.));
#1088=CARTESIAN_POINT('Origin',(-9.9,4.9,0.));
#1089=CARTESIAN_POINT('',(-10.,4.8,0.));
#1090=CARTESIAN_POINT('',(-9.8,5.,0.));
#1091=CARTESIAN_POINT('Origin',(5.,4.9,49.9));
#1092=CARTESIAN_POINT('',(5.,4.8,50.));
#1093=CARTESIAN_POINT('',(5.,5.,49.8));
#1094=CARTESIAN_POINT('Origin',(9.9,-2.5,49.9));
#1095=CARTESIAN_POINT('',(9.8,-2.5,50.));
#1096=CARTESIAN_POINT('',(10.,-2.5,49.8));
#1097=CARTESIAN_POINT('Origin',(-9.9,2.5,49.9));
#1098=CARTESIAN_POINT('',(-9.8,2.5,50.));
#1099=CARTESIAN_POINT('',(-10.,2.5,49.8));
#1100=CARTESIAN_POINT('Origin',(5.,4.9,49.9));
#1101=CARTESIAN_POINT('',(5.,4.8,50.));
#1102=CARTESIAN_POINT('',(5.,5.,49.8));
#1103=CARTESIAN_POINT('Origin',(-5.,-4.9,49.9));
#1104=CARTESIAN_POINT('',(-5.,-4.8,50.));
#1105=CARTESIAN_POINT('',(-5.,-5.,49.8));
#1106=CARTESIAN_POINT('Origin',(-5.098,4.9000200020004,50.));
#1107=CARTESIAN_POINT('',(-4.996,4.8000400040008,-40.));
#1108=CARTESIAN_POINT('',(-5.2,5.,-40.));
#1109=CARTESIAN_POINT('',(-4.996,4.8000400040008,-40.));
#1110=CARTESIAN_POINT('',(-5.2,5.,50.));
#1111=CARTESIAN_POINT('',(-4.996,4.8000400040008,50.));
#1112=CARTESIAN_POINT('Origin',(5.55000478905665E-18,4.9000200020004,-40.));
#1113=CARTESIAN_POINT('',(4.996,4.8000400040008,-40.));
#1114=CARTESIAN_POINT('',(5.2,5.,-40.));
#1115=CARTESIAN_POINT('',(4.996,4.8000400040008,-40.));
#1116=CARTESIAN_POINT('Origin',(3.08148791101958E-32,5.,-40.));
#1117=CARTESIAN_POINT('',(3.3270818239967,4.8000400040008,-43.7270018159951));
#1118=CARTESIAN_POINT('Origin',(1.11000095781133E-17,4.8000400040008,-40.));
#1119=CARTESIAN_POINT('Origin',(1.11000095781133E-17,4.8000400040008,-40.));
#1120=CARTESIAN_POINT('Origin',(5.098,4.9000200020004,50.));
#1121=CARTESIAN_POINT('',(4.996,4.8000400040008,50.));
#1122=CARTESIAN_POINT('',(5.2,5.,50.));
#1123=CARTESIAN_POINT('Origin',(0.,5.,50.));
#1124=CARTESIAN_POINT('Origin',(0.,5.,-40.));
#1125=CARTESIAN_POINT('Origin',(-10.,5.,0.));
#1126=CARTESIAN_POINT('',(-10.,2.5,-42.));
#1127=CARTESIAN_POINT('Origin',(-10.,-5.,0.));
#1128=CARTESIAN_POINT('Origin',(10.,5.,0.));
#1129=CARTESIAN_POINT('Origin',(0.,0.,50.));
#1130=CARTESIAN_POINT('Origin',(-2.,2.5,-42.));
#1131=CARTESIAN_POINT('',(-2.,2.5,-50.));
#1132=CARTESIAN_POINT('Origin',(0.,0.,-50.));
#1133=CARTESIAN_POINT('',(2.,-2.5,-50.));
#1134=CARTESIAN_POINT('Origin',(2.,-2.5,-42.));
#1135=CARTESIAN_POINT('',(10.,-2.5,-42.));
#1136=CARTESIAN_POINT('Origin',(0.,5.,-40.));
#1137=CARTESIAN_POINT('',(-2.88675134594813,2.11324865405187,-42.8867513459481));
#1138=CARTESIAN_POINT('Origin',(0.,5.,-40.));
#1139=CARTESIAN_POINT('Origin',(10.,-5.,0.));
#1140=UNCERTAINTY_MEASURE_WITH_UNIT(LENGTH_MEASURE(0.01),#1144,
'DISTANCE_ACCURACY_VALUE',
'Maximum model space distance between geometric entities at asserted c
onnectivities');
#1141=UNCERTAINTY_MEASURE_WITH_UNIT(LENGTH_MEASURE(0.01),#1144,
'DISTANCE_ACCURACY_VALUE',
'Maximum model space distance between geometric entities at asserted c
onnectivities');
#1142=(
GEOMETRIC_REPRESENTATION_CONTEXT(3)
GLOBAL_UNCERTAINTY_ASSIGNED_CONTEXT((#1140))
GLOBAL_UNIT_ASSIGNED_CONTEXT((#1144,#1146,#1147))
REPRESENTATION_CONTEXT('','3D')
);
#1143=(
GEOMETRIC_REPRESENTATION_CONTEXT(3)
GLOBAL_UNCERTAINTY_ASSIGNED_CONTEXT((#1141))
GLOBAL_UNIT_ASSIGNED_CONTEXT((#1144,#1146,#1147))
REPRESENTATION_CONTEXT('','3D')
);
#1144=(
LENGTH_UNIT()
NAMED_UNIT(*)
SI_UNIT(.MILLI.,.METRE.)
);
#1145=(
LENGTH_UNIT()
NAMED_UNIT(*)
SI_UNIT(.CENTI.,.METRE.)
);
#1146=(
NAMED_UNIT(*)
PLANE_ANGLE_UNIT()
SI_UNIT($,.RADIAN.)
);
#1147=(
NAMED_UNIT(*)
SI_UNIT($,.STERADIAN.)
SOLID_ANGLE_UNIT()
);
#1148=SHAPE_DEFINITION_REPRESENTATION(#1149,#1150);
#1149=PRODUCT_DEFINITION_SHAPE('',$,#1152);
#1150=SHAPE_REPRESENTATION('',(#686),#1142);
#1151=PRODUCT_DEFINITION_CONTEXT('part definition',#1156,'design');
#1152=PRODUCT_DEFINITION('Ball Track','Ball Track',#1153,#1151);
#1153=PRODUCT_DEFINITION_FORMATION('',$,#1158);
#1154=PRODUCT_RELATED_PRODUCT_CATEGORY('Ball Track','Ball Track',(#1158));
#1155=APPLICATION_PROTOCOL_DEFINITION('international standard',
'automotive_design',2009,#1156);
#1156=APPLICATION_CONTEXT(
'Core Data for Automotive Mechanical Design Process');
#1157=PRODUCT_CONTEXT('part definition',#1156,'mechanical');
#1158=PRODUCT('Ball Track','Ball Track',$,(#1157));
#1159=PRESENTATION_STYLE_ASSIGNMENT((#1160));
#1160=SURFACE_STYLE_USAGE(.BOTH.,#1163);
#1161=SURFACE_STYLE_RENDERING_WITH_PROPERTIES($,#1167,(#1162));
#1162=SURFACE_STYLE_TRANSPARENT(0.);
#1163=SURFACE_SIDE_STYLE('',(#1164,#1161));
#1164=SURFACE_STYLE_FILL_AREA(#1165);
#1165=FILL_AREA_STYLE('',(#1166));
#1166=FILL_AREA_STYLE_COLOUR('',#1167);
#1167=COLOUR_RGB('',0.796078431372549,0.603921568627451,0.231372549019608);
ENDSEC;
END-ISO-10303-21;
