ISO-10303-21;
HEADER;
/* Generated by software containing ST-Developer
 * from STEP Tools, Inc. (www.steptools.com) 
 */

FILE_DESCRIPTION(
/* description */ (''),
/* implementation_level */ '2;1');

FILE_NAME(
/* name */ 
'S:\\Future Scope 1\\WIP\\Client Category\\Tom\\02 Progressive Work\\B
ush.stp',
/* time_stamp */ '2025-11-05T12:14:34+06:00',
/* author */ ('SD'),
/* organization */ (''),
/* preprocessor_version */ 'ST-DEVELOPER v18.1',
/* originating_system */ 'Autodesk Inventor 2021',
/* authorisation */ '');

FILE_SCHEMA (('AUTOMOTIVE_DESIGN { 1 0 10303 214 3 1 1 }'));
ENDSEC;

DATA;
#10=MECHANICAL_DESIGN_GEOMETRIC_PRESENTATION_REPRESENTATION('',(#13),#351);
#11=SHAPE_REPRESENTATION_RELATIONSHIP('SRR','None',#358,#12);
#12=ADVANCED_BREP_SHAPE_REPRESENTATION('',(#14),#350);
#13=STYLED_ITEM('',(#367),#14);
#14=MANIFOLD_SOLID_BREP('Solid1',#185);
#15=FACE_BOUND('',#38,.T.);
#16=FACE_BOUND('',#41,.T.);
#17=FACE_BOUND('',#47,.T.);
#18=PLANE('',#212);
#19=PLANE('',#216);
#20=PLANE('',#230);
#21=CYLINDRICAL_SURFACE('',#209,1.5);
#22=CYLINDRICAL_SURFACE('',#221,3.5);
#23=CYLINDRICAL_SURFACE('',#227,7.5);
#24=FACE_OUTER_BOUND('',#35,.T.);
#25=FACE_OUTER_BOUND('',#36,.T.);
#26=FACE_OUTER_BOUND('',#37,.T.);
#27=FACE_OUTER_BOUND('',#39,.T.);
#28=FACE_OUTER_BOUND('',#40,.T.);
#29=FACE_OUTER_BOUND('',#42,.T.);
#30=FACE_OUTER_BOUND('',#43,.T.);
#31=FACE_OUTER_BOUND('',#44,.T.);
#32=FACE_OUTER_BOUND('',#45,.T.);
#33=FACE_OUTER_BOUND('',#46,.T.);
#34=FACE_OUTER_BOUND('',#48,.T.);
#35=EDGE_LOOP('',(#121,#122,#123,#124,#125));
#36=EDGE_LOOP('',(#126,#127,#128,#129,#130,#131));
#37=EDGE_LOOP('',(#132));
#38=EDGE_LOOP('',(#133));
#39=EDGE_LOOP('',(#134,#135,#136,#137,#138));
#40=EDGE_LOOP('',(#139));
#41=EDGE_LOOP('',(#140));
#42=EDGE_LOOP('',(#141,#142,#143,#144,#145));
#43=EDGE_LOOP('',(#146,#147,#148,#149,#150));
#44=EDGE_LOOP('',(#151,#152,#153,#154,#155));
#45=EDGE_LOOP('',(#156,#157,#158,#159,#160,#161));
#46=EDGE_LOOP('',(#162));
#47=EDGE_LOOP('',(#163));
#48=EDGE_LOOP('',(#164,#165,#166,#167,#168));
#49=LINE('',#303,#57);
#50=LINE('',#307,#58);
#51=LINE('',#317,#59);
#52=LINE('',#323,#60);
#53=LINE('',#329,#61);
#54=LINE('',#335,#62);
#55=LINE('',#341,#63);
#56=LINE('',#347,#64);
#57=VECTOR('',#240,1.6);
#58=VECTOR('',#245,1.5);
#59=VECTOR('',#258,1.6);
#60=VECTOR('',#265,3.25);
#61=VECTOR('',#272,3.5);
#62=VECTOR('',#279,7.25);
#63=VECTOR('',#286,7.5);
#64=VECTOR('',#295,7.24999999999999);
#65=CIRCLE('',#206,1.5);
#66=CIRCLE('',#207,1.5);
#67=CIRCLE('',#208,1.7);
#68=CIRCLE('',#210,1.5);
#69=CIRCLE('',#211,1.5);
#70=CIRCLE('',#213,3.);
#71=CIRCLE('',#215,1.7);
#72=CIRCLE('',#217,7.);
#73=CIRCLE('',#219,3.5);
#74=CIRCLE('',#220,3.5);
#75=CIRCLE('',#222,3.5);
#76=CIRCLE('',#224,7.);
#77=CIRCLE('',#225,7.5);
#78=CIRCLE('',#226,7.5);
#79=CIRCLE('',#228,7.5);
#80=CIRCLE('',#229,7.5);
#81=VERTEX_POINT('',#298);
#82=VERTEX_POINT('',#299);
#83=VERTEX_POINT('',#302);
#84=VERTEX_POINT('',#306);
#85=VERTEX_POINT('',#308);
#86=VERTEX_POINT('',#312);
#87=VERTEX_POINT('',#315);
#88=VERTEX_POINT('',#319);
#89=VERTEX_POINT('',#322);
#90=VERTEX_POINT('',#324);
#91=VERTEX_POINT('',#328);
#92=VERTEX_POINT('',#332);
#93=VERTEX_POINT('',#334);
#94=VERTEX_POINT('',#336);
#95=VERTEX_POINT('',#340);
#96=VERTEX_POINT('',#342);
#97=EDGE_CURVE('',#81,#82,#65,.T.);
#98=EDGE_CURVE('',#82,#81,#66,.T.);
#99=EDGE_CURVE('',#81,#83,#49,.T.);
#100=EDGE_CURVE('',#83,#83,#67,.T.);
#101=EDGE_CURVE('',#82,#84,#50,.T.);
#102=EDGE_CURVE('',#85,#84,#68,.T.);
#103=EDGE_CURVE('',#84,#85,#69,.T.);
#104=EDGE_CURVE('',#86,#86,#70,.T.);
#105=EDGE_CURVE('',#87,#87,#71,.T.);
#106=EDGE_CURVE('',#87,#85,#51,.T.);
#107=EDGE_CURVE('',#88,#88,#72,.T.);
#108=EDGE_CURVE('',#86,#89,#52,.T.);
#109=EDGE_CURVE('',#89,#90,#73,.T.);
#110=EDGE_CURVE('',#90,#89,#74,.T.);
#111=EDGE_CURVE('',#90,#91,#53,.T.);
#112=EDGE_CURVE('',#91,#91,#75,.T.);
#113=EDGE_CURVE('',#92,#92,#76,.T.);
#114=EDGE_CURVE('',#92,#93,#54,.T.);
#115=EDGE_CURVE('',#93,#94,#77,.T.);
#116=EDGE_CURVE('',#94,#93,#78,.T.);
#117=EDGE_CURVE('',#94,#95,#55,.T.);
#118=EDGE_CURVE('',#96,#95,#79,.T.);
#119=EDGE_CURVE('',#95,#96,#80,.T.);
#120=EDGE_CURVE('',#96,#88,#56,.T.);
#121=ORIENTED_EDGE('',*,*,#97,.T.);
#122=ORIENTED_EDGE('',*,*,#98,.T.);
#123=ORIENTED_EDGE('',*,*,#99,.T.);
#124=ORIENTED_EDGE('',*,*,#100,.T.);
#125=ORIENTED_EDGE('',*,*,#99,.F.);
#126=ORIENTED_EDGE('',*,*,#97,.F.);
#127=ORIENTED_EDGE('',*,*,#98,.F.);
#128=ORIENTED_EDGE('',*,*,#101,.T.);
#129=ORIENTED_EDGE('',*,*,#102,.F.);
#130=ORIENTED_EDGE('',*,*,#103,.F.);
#131=ORIENTED_EDGE('',*,*,#101,.F.);
#132=ORIENTED_EDGE('',*,*,#104,.F.);
#133=ORIENTED_EDGE('',*,*,#100,.F.);
#134=ORIENTED_EDGE('',*,*,#105,.T.);
#135=ORIENTED_EDGE('',*,*,#106,.T.);
#136=ORIENTED_EDGE('',*,*,#102,.T.);
#137=ORIENTED_EDGE('',*,*,#103,.T.);
#138=ORIENTED_EDGE('',*,*,#106,.F.);
#139=ORIENTED_EDGE('',*,*,#107,.F.);
#140=ORIENTED_EDGE('',*,*,#105,.F.);
#141=ORIENTED_EDGE('',*,*,#104,.T.);
#142=ORIENTED_EDGE('',*,*,#108,.T.);
#143=ORIENTED_EDGE('',*,*,#109,.T.);
#144=ORIENTED_EDGE('',*,*,#110,.T.);
#145=ORIENTED_EDGE('',*,*,#108,.F.);
#146=ORIENTED_EDGE('',*,*,#109,.F.);
#147=ORIENTED_EDGE('',*,*,#110,.F.);
#148=ORIENTED_EDGE('',*,*,#111,.T.);
#149=ORIENTED_EDGE('',*,*,#112,.T.);
#150=ORIENTED_EDGE('',*,*,#111,.F.);
#151=ORIENTED_EDGE('',*,*,#113,.T.);
#152=ORIENTED_EDGE('',*,*,#114,.T.);
#153=ORIENTED_EDGE('',*,*,#115,.T.);
#154=ORIENTED_EDGE('',*,*,#116,.T.);
#155=ORIENTED_EDGE('',*,*,#114,.F.);
#156=ORIENTED_EDGE('',*,*,#115,.F.);
#157=ORIENTED_EDGE('',*,*,#116,.F.);
#158=ORIENTED_EDGE('',*,*,#117,.T.);
#159=ORIENTED_EDGE('',*,*,#118,.F.);
#160=ORIENTED_EDGE('',*,*,#119,.F.);
#161=ORIENTED_EDGE('',*,*,#117,.F.);
#162=ORIENTED_EDGE('',*,*,#113,.F.);
#163=ORIENTED_EDGE('',*,*,#112,.F.);
#164=ORIENTED_EDGE('',*,*,#118,.T.);
#165=ORIENTED_EDGE('',*,*,#119,.T.);
#166=ORIENTED_EDGE('',*,*,#120,.T.);
#167=ORIENTED_EDGE('',*,*,#107,.T.);
#168=ORIENTED_EDGE('',*,*,#120,.F.);
#169=CONICAL_SURFACE('',#205,1.6,0.785398163397454);
#170=CONICAL_SURFACE('',#214,1.6,0.785398163397445);
#171=CONICAL_SURFACE('',#218,3.25,0.785398163397447);
#172=CONICAL_SURFACE('',#223,7.25,0.785398163397453);
#173=CONICAL_SURFACE('',#231,7.25,0.785398163397449);
#174=ADVANCED_FACE('',(#24),#169,.F.);
#175=ADVANCED_FACE('',(#25),#21,.F.);
#176=ADVANCED_FACE('',(#26,#15),#18,.T.);
#177=ADVANCED_FACE('',(#27),#170,.F.);
#178=ADVANCED_FACE('',(#28,#16),#19,.T.);
#179=ADVANCED_FACE('',(#29),#171,.T.);
#180=ADVANCED_FACE('',(#30),#22,.T.);
#181=ADVANCED_FACE('',(#31),#172,.T.);
#182=ADVANCED_FACE('',(#32),#23,.T.);
#183=ADVANCED_FACE('',(#33,#17),#20,.T.);
#184=ADVANCED_FACE('',(#34),#173,.T.);
#185=CLOSED_SHELL('',(#174,#175,#176,#177,#178,#179,#180,#181,#182,#183,
#184));
#186=DERIVED_UNIT_ELEMENT(#188,1.);
#187=DERIVED_UNIT_ELEMENT(#353,3.);
#188=(
MASS_UNIT()
NAMED_UNIT(*)
SI_UNIT($,.GRAM.)
);
#189=DERIVED_UNIT((#186,#187));
#190=MEASURE_REPRESENTATION_ITEM('density measure',
POSITIVE_RATIO_MEASURE(8.874),#189);
#191=PROPERTY_DEFINITION_REPRESENTATION(#196,#193);
#192=PROPERTY_DEFINITION_REPRESENTATION(#197,#194);
#193=REPRESENTATION('material name',(#195),#350);
#194=REPRESENTATION('density',(#190),#350);
#195=DESCRIPTIVE_REPRESENTATION_ITEM('Bronze, Soft Tin',
'Bronze, Soft Tin');
#196=PROPERTY_DEFINITION('material property','material name',#360);
#197=PROPERTY_DEFINITION('material property','density of part',#360);
#198=DATE_TIME_ROLE('creation_date');
#199=APPLIED_DATE_AND_TIME_ASSIGNMENT(#200,#198,(#360));
#200=DATE_AND_TIME(#201,#202);
#201=CALENDAR_DATE(2025,16,9);
#202=LOCAL_TIME(0,0,0.,#203);
#203=COORDINATED_UNIVERSAL_TIME_OFFSET(0,0,.BEHIND.);
#204=AXIS2_PLACEMENT_3D('placement',#296,#232,#233);
#205=AXIS2_PLACEMENT_3D('',#297,#234,#235);
#206=AXIS2_PLACEMENT_3D('',#300,#236,#237);
#207=AXIS2_PLACEMENT_3D('',#301,#238,#239);
#208=AXIS2_PLACEMENT_3D('',#304,#241,#242);
#209=AXIS2_PLACEMENT_3D('',#305,#243,#244);
#210=AXIS2_PLACEMENT_3D('',#309,#246,#247);
#211=AXIS2_PLACEMENT_3D('',#310,#248,#249);
#212=AXIS2_PLACEMENT_3D('',#311,#250,#251);
#213=AXIS2_PLACEMENT_3D('',#313,#252,#253);
#214=AXIS2_PLACEMENT_3D('',#314,#254,#255);
#215=AXIS2_PLACEMENT_3D('',#316,#256,#257);
#216=AXIS2_PLACEMENT_3D('',#318,#259,#260);
#217=AXIS2_PLACEMENT_3D('',#320,#261,#262);
#218=AXIS2_PLACEMENT_3D('',#321,#263,#264);
#219=AXIS2_PLACEMENT_3D('',#325,#266,#267);
#220=AXIS2_PLACEMENT_3D('',#326,#268,#269);
#221=AXIS2_PLACEMENT_3D('',#327,#270,#271);
#222=AXIS2_PLACEMENT_3D('',#330,#273,#274);
#223=AXIS2_PLACEMENT_3D('',#331,#275,#276);
#224=AXIS2_PLACEMENT_3D('',#333,#277,#278);
#225=AXIS2_PLACEMENT_3D('',#337,#280,#281);
#226=AXIS2_PLACEMENT_3D('',#338,#282,#283);
#227=AXIS2_PLACEMENT_3D('',#339,#284,#285);
#228=AXIS2_PLACEMENT_3D('',#343,#287,#288);
#229=AXIS2_PLACEMENT_3D('',#344,#289,#290);
#230=AXIS2_PLACEMENT_3D('',#345,#291,#292);
#231=AXIS2_PLACEMENT_3D('',#346,#293,#294);
#232=DIRECTION('axis',(0.,0.,1.));
#233=DIRECTION('refdir',(1.,0.,0.));
#234=DIRECTION('center_axis',(1.22464679914735E-16,-1.,0.));
#235=DIRECTION('ref_axis',(-1.,-6.50593612047032E-17,0.));
#236=DIRECTION('center_axis',(-1.22464679914735E-16,1.,0.));
#237=DIRECTION('ref_axis',(-1.,0.,0.));
#238=DIRECTION('center_axis',(-1.22464679914735E-16,1.,0.));
#239=DIRECTION('ref_axis',(-1.,0.,0.));
#240=DIRECTION('',(0.707106781186552,-0.707106781186543,-8.65956056235498E-17));
#241=DIRECTION('center_axis',(1.22464679914735E-16,-1.,0.));
#242=DIRECTION('ref_axis',(-1.,-1.22464679914735E-16,0.));
#243=DIRECTION('center_axis',(1.22464679914735E-16,-1.,0.));
#244=DIRECTION('ref_axis',(1.,0.,0.));
#245=DIRECTION('',(-1.22464679914735E-16,1.,0.));
#246=DIRECTION('center_axis',(1.22464679914735E-16,-1.,0.));
#247=DIRECTION('ref_axis',(-1.,0.,0.));
#248=DIRECTION('center_axis',(1.22464679914735E-16,-1.,0.));
#249=DIRECTION('ref_axis',(-1.,0.,0.));
#250=DIRECTION('center_axis',(1.22464679914735E-16,-1.,0.));
#251=DIRECTION('ref_axis',(0.,0.,-1.));
#252=DIRECTION('center_axis',(-1.22464679914735E-16,1.,0.));
#253=DIRECTION('ref_axis',(-1.,-1.22464679914735E-16,0.));
#254=DIRECTION('center_axis',(-1.22464679914735E-16,1.,0.));
#255=DIRECTION('ref_axis',(-1.,-6.50593612047031E-17,0.));
#256=DIRECTION('center_axis',(-1.22464679914735E-16,1.,0.));
#257=DIRECTION('ref_axis',(-1.,-1.22464679914735E-16,0.));
#258=DIRECTION('',(-0.707106781186545,-0.70710678118655,8.6595605623549E-17));
#259=DIRECTION('center_axis',(-1.22464679914735E-16,1.,0.));
#260=DIRECTION('ref_axis',(0.,0.,1.));
#261=DIRECTION('center_axis',(1.22464679914735E-16,-1.,0.));
#262=DIRECTION('ref_axis',(-1.,-1.22464679914735E-16,0.));
#263=DIRECTION('center_axis',(-1.22464679914735E-16,1.,0.));
#264=DIRECTION('ref_axis',(-1.,-5.65221599606471E-17,0.));
#265=DIRECTION('',(0.707106781186546,0.707106781186549,8.65956056235492E-17));
#266=DIRECTION('center_axis',(1.22464679914735E-16,-1.,0.));
#267=DIRECTION('ref_axis',(-1.,0.,0.));
#268=DIRECTION('center_axis',(1.22464679914735E-16,-1.,0.));
#269=DIRECTION('ref_axis',(-1.,0.,0.));
#270=DIRECTION('center_axis',(1.22464679914735E-16,-1.,0.));
#271=DIRECTION('ref_axis',(1.,0.,0.));
#272=DIRECTION('',(-1.22464679914735E-16,1.,0.));
#273=DIRECTION('center_axis',(1.22464679914735E-16,-1.,0.));
#274=DIRECTION('ref_axis',(1.,1.22464679914735E-16,0.));
#275=DIRECTION('center_axis',(-1.22464679914735E-16,1.,0.));
#276=DIRECTION('ref_axis',(-1.,-5.91208799588377E-17,0.));
#277=DIRECTION('center_axis',(-1.22464679914735E-16,1.,0.));
#278=DIRECTION('ref_axis',(-1.,-1.22464679914735E-16,0.));
#279=DIRECTION('',(0.70710678118655,0.707106781186545,8.65956056235497E-17));
#280=DIRECTION('center_axis',(1.22464679914735E-16,-1.,0.));
#281=DIRECTION('ref_axis',(-1.,0.,0.));
#282=DIRECTION('center_axis',(1.22464679914735E-16,-1.,0.));
#283=DIRECTION('ref_axis',(-1.,0.,0.));
#284=DIRECTION('center_axis',(1.22464679914735E-16,-1.,0.));
#285=DIRECTION('ref_axis',(1.,0.,0.));
#286=DIRECTION('',(-1.22464679914735E-16,1.,0.));
#287=DIRECTION('center_axis',(-1.22464679914735E-16,1.,0.));
#288=DIRECTION('ref_axis',(-1.,0.,0.));
#289=DIRECTION('center_axis',(-1.22464679914735E-16,1.,0.));
#290=DIRECTION('ref_axis',(-1.,0.,0.));
#291=DIRECTION('center_axis',(1.22464679914735E-16,-1.,0.));
#292=DIRECTION('ref_axis',(0.,0.,-1.));
#293=DIRECTION('center_axis',(1.22464679914735E-16,-1.,0.));
#294=DIRECTION('ref_axis',(-1.,-5.91208799588377E-17,0.));
#295=DIRECTION('',(-0.707106781186549,0.707106781186547,-8.65956056235494E-17));
#296=CARTESIAN_POINT('',(0.,0.,0.));
#297=CARTESIAN_POINT('Origin',(1.82472373072956E-15,-14.9,0.));
#298=CARTESIAN_POINT('',(1.5,-14.8,-1.83697019872103E-16));
#299=CARTESIAN_POINT('',(-1.5,-14.8,-1.83697019872103E-16));
#300=CARTESIAN_POINT('Origin',(1.81247726273808E-15,-14.8,0.));
#301=CARTESIAN_POINT('Origin',(1.81247726273808E-15,-14.8,0.));
#302=CARTESIAN_POINT('',(1.70000000000001,-15.,2.08189955855051E-16));
#303=CARTESIAN_POINT('',(1.6,-14.9,-1.95943487863577E-16));
#304=CARTESIAN_POINT('Origin',(1.83697019872103E-15,-15.,0.));
#305=CARTESIAN_POINT('Origin',(9.18485099360515E-16,-7.5,0.));
#306=CARTESIAN_POINT('',(-1.5,-0.200000000000001,-1.83697019872103E-16));
#307=CARTESIAN_POINT('',(-1.5,-7.5,-1.83697019872103E-16));
#308=CARTESIAN_POINT('',(1.5,-0.2,1.83697019872103E-16));
#309=CARTESIAN_POINT('Origin',(2.44929359829471E-17,-0.2,0.));
#310=CARTESIAN_POINT('Origin',(2.44929359829471E-17,-0.2,0.));
#311=CARTESIAN_POINT('Origin',(1.50000000000001,-15.,0.));
#312=CARTESIAN_POINT('',(3.,-15.,-3.67394039744206E-16));
#313=CARTESIAN_POINT('Origin',(1.83697019872103E-15,-15.,0.));
#314=CARTESIAN_POINT('Origin',(1.22464679914736E-17,-0.100000000000001,
0.));
#315=CARTESIAN_POINT('',(1.7,-6.9386625165289E-16,-2.0818995585505E-16));
#316=CARTESIAN_POINT('Origin',(1.61778115328528E-31,-9.0205620750794E-16,
0.));
#317=CARTESIAN_POINT('',(1.6,-0.1,-1.95943487863577E-16));
#318=CARTESIAN_POINT('Origin',(7.5,0.,0.));
#319=CARTESIAN_POINT('',(7.,-4.48034481047926E-17,8.57252759403147E-16));
#320=CARTESIAN_POINT('Origin',(0.,-9.0205620750794E-16,0.));
#321=CARTESIAN_POINT('Origin',(1.80635402874235E-15,-14.75,0.));
#322=CARTESIAN_POINT('',(3.5,-14.5,4.28626379701574E-16));
#323=CARTESIAN_POINT('',(3.25,-14.75,3.9801020972289E-16));
#324=CARTESIAN_POINT('',(-3.5,-14.5,-4.28626379701574E-16));
#325=CARTESIAN_POINT('Origin',(1.77573785876366E-15,-14.5,0.));
#326=CARTESIAN_POINT('Origin',(1.77573785876366E-15,-14.5,0.));
#327=CARTESIAN_POINT('Origin',(1.22464679914735E-15,-10.,0.));
#328=CARTESIAN_POINT('',(-3.5,-5.,-4.28626379701574E-16));
#329=CARTESIAN_POINT('',(-3.5,-10.,-4.28626379701574E-16));
#330=CARTESIAN_POINT('Origin',(6.12323399573677E-16,-5.,0.));
#331=CARTESIAN_POINT('Origin',(5.81707229594993E-16,-4.75,0.));
#332=CARTESIAN_POINT('',(7.,-5.,-8.57252759403147E-16));
#333=CARTESIAN_POINT('Origin',(6.12323399573676E-16,-5.,0.));
#334=CARTESIAN_POINT('',(7.5,-4.5,9.18485099360515E-16));
#335=CARTESIAN_POINT('',(7.25,-4.75,8.87868929381831E-16));
#336=CARTESIAN_POINT('',(-7.5,-4.5,-9.18485099360515E-16));
#337=CARTESIAN_POINT('Origin',(5.51091059616309E-16,-4.5,0.));
#338=CARTESIAN_POINT('Origin',(5.51091059616309E-16,-4.5,0.));
#339=CARTESIAN_POINT('Origin',(3.06161699786838E-16,-2.5,0.));
#340=CARTESIAN_POINT('',(-7.5,-0.499999999999999,-9.18485099360515E-16));
#341=CARTESIAN_POINT('',(-7.5,-2.5,-9.18485099360515E-16));
#342=CARTESIAN_POINT('',(7.5,-0.5,-9.18485099360515E-16));
#343=CARTESIAN_POINT('Origin',(6.12323399573675E-17,-0.5,0.));
#344=CARTESIAN_POINT('Origin',(6.12323399573675E-17,-0.5,0.));
#345=CARTESIAN_POINT('Origin',(3.5,-5.,0.));
#346=CARTESIAN_POINT('Origin',(3.06161699786838E-17,-0.250000000000001,
0.));
#347=CARTESIAN_POINT('',(7.25,-0.25,8.87868929381831E-16));
#348=UNCERTAINTY_MEASURE_WITH_UNIT(LENGTH_MEASURE(0.01),#352,
'DISTANCE_ACCURACY_VALUE',
'Maximum model space distance between geometric entities at asserted c
onnectivities');
#349=UNCERTAINTY_MEASURE_WITH_UNIT(LENGTH_MEASURE(0.01),#352,
'DISTANCE_ACCURACY_VALUE',
'Maximum model space distance between geometric entities at asserted c
onnectivities');
#350=(
GEOMETRIC_REPRESENTATION_CONTEXT(3)
GLOBAL_UNCERTAINTY_ASSIGNED_CONTEXT((#348))
GLOBAL_UNIT_ASSIGNED_CONTEXT((#352,#354,#355))
REPRESENTATION_CONTEXT('','3D')
);
#351=(
GEOMETRIC_REPRESENTATION_CONTEXT(3)
GLOBAL_UNCERTAINTY_ASSIGNED_CONTEXT((#349))
GLOBAL_UNIT_ASSIGNED_CONTEXT((#352,#354,#355))
REPRESENTATION_CONTEXT('','3D')
);
#352=(
LENGTH_UNIT()
NAMED_UNIT(*)
SI_UNIT(.MILLI.,.METRE.)
);
#353=(
LENGTH_UNIT()
NAMED_UNIT(*)
SI_UNIT(.CENTI.,.METRE.)
);
#354=(
NAMED_UNIT(*)
PLANE_ANGLE_UNIT()
SI_UNIT($,.RADIAN.)
);
#355=(
NAMED_UNIT(*)
SI_UNIT($,.STERADIAN.)
SOLID_ANGLE_UNIT()
);
#356=SHAPE_DEFINITION_REPRESENTATION(#357,#358);
#357=PRODUCT_DEFINITION_SHAPE('',$,#360);
#358=SHAPE_REPRESENTATION('',(#204),#350);
#359=PRODUCT_DEFINITION_CONTEXT('part definition',#364,'design');
#360=PRODUCT_DEFINITION('Bush','Bush',#361,#359);
#361=PRODUCT_DEFINITION_FORMATION('',$,#366);
#362=PRODUCT_RELATED_PRODUCT_CATEGORY('Bush','Bush',(#366));
#363=APPLICATION_PROTOCOL_DEFINITION('international standard',
'automotive_design',2009,#364);
#364=APPLICATION_CONTEXT(
'Core Data for Automotive Mechanical Design Process');
#365=PRODUCT_CONTEXT('part definition',#364,'mechanical');
#366=PRODUCT('Bush','Bush',$,(#365));
#367=PRESENTATION_STYLE_ASSIGNMENT((#368));
#368=SURFACE_STYLE_USAGE(.BOTH.,#371);
#369=SURFACE_STYLE_RENDERING_WITH_PROPERTIES($,#375,(#370));
#370=SURFACE_STYLE_TRANSPARENT(0.);
#371=SURFACE_SIDE_STYLE('',(#372,#369));
#372=SURFACE_STYLE_FILL_AREA(#373);
#373=FILL_AREA_STYLE('',(#374));
#374=FILL_AREA_STYLE_COLOUR('',#375);
#375=COLOUR_RGB('',0.411764705882353,0.301960784313725,0.231372549019608);
ENDSEC;
END-ISO-10303-21;
