ISO-10303-21;
HEADER;
/* Generated by software containing ST-Developer
 * from STEP Tools, Inc. (www.steptools.com) 
 */

FILE_DESCRIPTION(
/* description */ (''),
/* implementation_level */ '2;1');

FILE_NAME(
/* name */ 
'S:\\Future Scope 1\\WIP\\Client Category\\Tom\\02 Progressive Work\\L
ock Handel.stp',
/* time_stamp */ '2025-11-05T12:14:35+06:00',
/* author */ ('SD'),
/* organization */ (''),
/* preprocessor_version */ 'ST-DEVELOPER v18.1',
/* originating_system */ 'Autodesk Inventor 2021',
/* authorisation */ '');

FILE_SCHEMA (('AUTOMOTIVE_DESIGN { 1 0 10303 214 3 1 1 }'));
ENDSEC;

DATA;
#10=MECHANICAL_DESIGN_GEOMETRIC_PRESENTATION_REPRESENTATION('',(#13),#222);
#11=SHAPE_REPRESENTATION_RELATIONSHIP('SRR','None',#229,#12);
#12=ADVANCED_BREP_SHAPE_REPRESENTATION('',(#14),#221);
#13=STYLED_ITEM('',(#238),#14);
#14=MANIFOLD_SOLID_BREP('Solid1',#97);
#15=TOROIDAL_SURFACE('',#129,2.,1.5);
#16=PLANE('',#124);
#17=PLANE('',#131);
#18=LINE('',#206,#20);
#19=LINE('',#212,#21);
#20=VECTOR('',#148,1.5);
#21=VECTOR('',#155,1.5);
#22=CYLINDRICAL_SURFACE('',#121,1.5);
#23=CYLINDRICAL_SURFACE('',#125,1.5);
#24=FACE_OUTER_BOUND('',#30,.T.);
#25=FACE_OUTER_BOUND('',#31,.T.);
#26=FACE_OUTER_BOUND('',#32,.T.);
#27=FACE_OUTER_BOUND('',#33,.T.);
#28=FACE_OUTER_BOUND('',#34,.T.);
#29=FACE_OUTER_BOUND('',#35,.T.);
#30=EDGE_LOOP('',(#66,#67,#68,#69,#70));
#31=EDGE_LOOP('',(#71,#72,#73,#74,#75,#76));
#32=EDGE_LOOP('',(#77));
#33=EDGE_LOOP('',(#78,#79,#80,#81,#82));
#34=EDGE_LOOP('',(#83,#84,#85,#86,#87,#88));
#35=EDGE_LOOP('',(#89));
#36=CIRCLE('',#117,0.5);
#37=CIRCLE('',#118,1.);
#38=CIRCLE('',#119,1.5);
#39=CIRCLE('',#120,1.5);
#40=CIRCLE('',#122,1.5);
#41=CIRCLE('',#123,1.5);
#42=CIRCLE('',#126,1.5);
#43=CIRCLE('',#127,1.5);
#44=CIRCLE('',#128,1.5);
#45=CIRCLE('',#130,0.499999999999999);
#46=VERTEX_POINT('',#194);
#47=VERTEX_POINT('',#196);
#48=VERTEX_POINT('',#198);
#49=VERTEX_POINT('',#202);
#50=VERTEX_POINT('',#203);
#51=VERTEX_POINT('',#209);
#52=VERTEX_POINT('',#211);
#53=VERTEX_POINT('',#213);
#54=EDGE_CURVE('',#46,#46,#36,.T.);
#55=EDGE_CURVE('',#46,#47,#37,.T.);
#56=EDGE_CURVE('',#47,#48,#38,.T.);
#57=EDGE_CURVE('',#48,#47,#39,.T.);
#58=EDGE_CURVE('',#49,#50,#40,.T.);
#59=EDGE_CURVE('',#50,#49,#41,.T.);
#60=EDGE_CURVE('',#50,#48,#18,.T.);
#61=EDGE_CURVE('',#51,#51,#42,.T.);
#62=EDGE_CURVE('',#51,#52,#19,.T.);
#63=EDGE_CURVE('',#52,#53,#43,.T.);
#64=EDGE_CURVE('',#53,#52,#44,.T.);
#65=EDGE_CURVE('',#53,#49,#45,.T.);
#66=ORIENTED_EDGE('',*,*,#54,.T.);
#67=ORIENTED_EDGE('',*,*,#55,.T.);
#68=ORIENTED_EDGE('',*,*,#56,.T.);
#69=ORIENTED_EDGE('',*,*,#57,.T.);
#70=ORIENTED_EDGE('',*,*,#55,.F.);
#71=ORIENTED_EDGE('',*,*,#58,.F.);
#72=ORIENTED_EDGE('',*,*,#59,.F.);
#73=ORIENTED_EDGE('',*,*,#60,.T.);
#74=ORIENTED_EDGE('',*,*,#56,.F.);
#75=ORIENTED_EDGE('',*,*,#57,.F.);
#76=ORIENTED_EDGE('',*,*,#60,.F.);
#77=ORIENTED_EDGE('',*,*,#54,.F.);
#78=ORIENTED_EDGE('',*,*,#61,.F.);
#79=ORIENTED_EDGE('',*,*,#62,.T.);
#80=ORIENTED_EDGE('',*,*,#63,.T.);
#81=ORIENTED_EDGE('',*,*,#64,.T.);
#82=ORIENTED_EDGE('',*,*,#62,.F.);
#83=ORIENTED_EDGE('',*,*,#64,.F.);
#84=ORIENTED_EDGE('',*,*,#65,.T.);
#85=ORIENTED_EDGE('',*,*,#58,.T.);
#86=ORIENTED_EDGE('',*,*,#59,.T.);
#87=ORIENTED_EDGE('',*,*,#65,.F.);
#88=ORIENTED_EDGE('',*,*,#63,.F.);
#89=ORIENTED_EDGE('',*,*,#61,.T.);
#90=(
BOUNDED_SURFACE()
B_SPLINE_SURFACE(2,2,((#167,#168,#169,#170,#171,#172,#173,#174,#175),(#176,
#177,#178,#179,#180,#181,#182,#183,#184),(#185,#186,#187,#188,#189,#190,
#191,#192,#193)),.UNSPECIFIED.,.F.,.T.,.F.)
B_SPLINE_SURFACE_WITH_KNOTS((3,3),(3,2,2,2,3),(0.,1.5707963267949),(-3.14159265358979,
-1.5707963267949,0.,1.5707963267949,3.14159265358979),.UNSPECIFIED.)
GEOMETRIC_REPRESENTATION_ITEM()
RATIONAL_B_SPLINE_SURFACE(((1.,0.707106781186548,1.,0.707106781186548,1.,
0.707106781186548,1.,0.707106781186548,1.),(0.707106781186548,0.5,0.707106781186548,
0.5,0.707106781186548,0.5,0.707106781186548,0.5,0.707106781186548),(1.,
0.707106781186548,1.,0.707106781186548,1.,0.707106781186548,1.,0.707106781186548,
1.)))
REPRESENTATION_ITEM('')
SURFACE()
);
#91=ADVANCED_FACE('',(#24),#90,.F.);
#92=ADVANCED_FACE('',(#25),#22,.T.);
#93=ADVANCED_FACE('',(#26),#16,.T.);
#94=ADVANCED_FACE('',(#27),#23,.T.);
#95=ADVANCED_FACE('',(#28),#15,.T.);
#96=ADVANCED_FACE('',(#29),#17,.F.);
#97=CLOSED_SHELL('',(#91,#92,#93,#94,#95,#96));
#98=DERIVED_UNIT_ELEMENT(#100,1.);
#99=DERIVED_UNIT_ELEMENT(#224,3.);
#100=(
MASS_UNIT()
NAMED_UNIT(*)
SI_UNIT($,.GRAM.)
);
#101=DERIVED_UNIT((#98,#99));
#102=MEASURE_REPRESENTATION_ITEM('density measure',
POSITIVE_RATIO_MEASURE(7.85),#101);
#103=PROPERTY_DEFINITION_REPRESENTATION(#108,#105);
#104=PROPERTY_DEFINITION_REPRESENTATION(#109,#106);
#105=REPRESENTATION('material name',(#107),#221);
#106=REPRESENTATION('density',(#102),#221);
#107=DESCRIPTIVE_REPRESENTATION_ITEM('Mild Steel S355 J2',
'Mild Steel S355 J2');
#108=PROPERTY_DEFINITION('material property','material name',#231);
#109=PROPERTY_DEFINITION('material property','density of part',#231);
#110=DATE_TIME_ROLE('creation_date');
#111=APPLIED_DATE_AND_TIME_ASSIGNMENT(#112,#110,(#231));
#112=DATE_AND_TIME(#113,#114);
#113=CALENDAR_DATE(2025,16,9);
#114=LOCAL_TIME(0,0,0.,#115);
#115=COORDINATED_UNIVERSAL_TIME_OFFSET(0,0,.BEHIND.);
#116=AXIS2_PLACEMENT_3D('placement',#166,#132,#133);
#117=AXIS2_PLACEMENT_3D('',#195,#134,#135);
#118=AXIS2_PLACEMENT_3D('',#197,#136,#137);
#119=AXIS2_PLACEMENT_3D('',#199,#138,#139);
#120=AXIS2_PLACEMENT_3D('',#200,#140,#141);
#121=AXIS2_PLACEMENT_3D('',#201,#142,#143);
#122=AXIS2_PLACEMENT_3D('',#204,#144,#145);
#123=AXIS2_PLACEMENT_3D('',#205,#146,#147);
#124=AXIS2_PLACEMENT_3D('',#207,#149,#150);
#125=AXIS2_PLACEMENT_3D('',#208,#151,#152);
#126=AXIS2_PLACEMENT_3D('',#210,#153,#154);
#127=AXIS2_PLACEMENT_3D('',#214,#156,#157);
#128=AXIS2_PLACEMENT_3D('',#215,#158,#159);
#129=AXIS2_PLACEMENT_3D('',#216,#160,#161);
#130=AXIS2_PLACEMENT_3D('',#217,#162,#163);
#131=AXIS2_PLACEMENT_3D('',#218,#164,#165);
#132=DIRECTION('axis',(0.,0.,1.));
#133=DIRECTION('refdir',(1.,0.,0.));
#134=DIRECTION('center_axis',(0.,-1.,0.));
#135=DIRECTION('ref_axis',(1.,0.,1.22464679914735E-16));
#136=DIRECTION('center_axis',(-1.,0.,1.22464679914735E-16));
#137=DIRECTION('ref_axis',(-1.22464679914735E-16,0.,-1.));
#138=DIRECTION('center_axis',(0.,1.,0.));
#139=DIRECTION('ref_axis',(1.,0.,1.22464679914735E-16));
#140=DIRECTION('center_axis',(0.,1.,0.));
#141=DIRECTION('ref_axis',(1.,0.,1.22464679914735E-16));
#142=DIRECTION('center_axis',(6.93889390390723E-17,-1.,0.));
#143=DIRECTION('ref_axis',(-1.,-6.93889390390723E-17,0.));
#144=DIRECTION('center_axis',(0.,-1.,0.));
#145=DIRECTION('ref_axis',(-1.,0.,0.));
#146=DIRECTION('center_axis',(0.,-1.,0.));
#147=DIRECTION('ref_axis',(-1.,0.,0.));
#148=DIRECTION('',(-6.93889390390723E-17,1.,0.));
#149=DIRECTION('center_axis',(0.,1.,0.));
#150=DIRECTION('ref_axis',(0.,0.,1.));
#151=DIRECTION('center_axis',(-1.,-2.46716227694479E-16,0.));
#152=DIRECTION('ref_axis',(-2.46716227694479E-16,1.,0.));
#153=DIRECTION('center_axis',(-1.,-2.83276944882399E-16,0.));
#154=DIRECTION('ref_axis',(-2.83276944882399E-16,1.,0.));
#155=DIRECTION('',(1.,2.46716227694479E-16,0.));
#156=DIRECTION('center_axis',(-1.,-2.83276944882399E-16,0.));
#157=DIRECTION('ref_axis',(-2.83276944882399E-16,1.,0.));
#158=DIRECTION('center_axis',(-1.,-2.83276944882399E-16,0.));
#159=DIRECTION('ref_axis',(-2.83276944882399E-16,1.,0.));
#160=DIRECTION('center_axis',(0.,0.,-1.));
#161=DIRECTION('ref_axis',(-1.,0.,0.));
#162=DIRECTION('center_axis',(0.,0.,1.));
#163=DIRECTION('ref_axis',(-1.,0.,0.));
#164=DIRECTION('center_axis',(1.,2.83276944882399E-16,0.));
#165=DIRECTION('ref_axis',(0.,0.,1.));
#166=CARTESIAN_POINT('',(0.,0.,0.));
#167=CARTESIAN_POINT('Ctrl Pts',(6.93889390390723E-17,-1.,-1.5));
#168=CARTESIAN_POINT('Ctrl Pts',(-1.5,-1.,-1.5));
#169=CARTESIAN_POINT('Ctrl Pts',(-1.5,-1.,0.));
#170=CARTESIAN_POINT('Ctrl Pts',(-1.5,-1.,1.5));
#171=CARTESIAN_POINT('Ctrl Pts',(6.93889390390723E-17,-1.,1.5));
#172=CARTESIAN_POINT('Ctrl Pts',(1.5,-1.,1.5));
#173=CARTESIAN_POINT('Ctrl Pts',(1.5,-1.,0.));
#174=CARTESIAN_POINT('Ctrl Pts',(1.5,-1.,-1.5));
#175=CARTESIAN_POINT('Ctrl Pts',(6.93889390390723E-17,-1.,-1.5));
#176=CARTESIAN_POINT('Ctrl Pts',(6.93889390390723E-17,3.06161699786838E-17,
-1.5));
#177=CARTESIAN_POINT('Ctrl Pts',(-1.5,3.06161699786838E-17,-1.5));
#178=CARTESIAN_POINT('Ctrl Pts',(-1.5,0.,0.));
#179=CARTESIAN_POINT('Ctrl Pts',(-1.5,-3.06161699786838E-17,1.5));
#180=CARTESIAN_POINT('Ctrl Pts',(6.93889390390723E-17,-3.06161699786838E-17,
1.5));
#181=CARTESIAN_POINT('Ctrl Pts',(1.5,-3.06161699786838E-17,1.5));
#182=CARTESIAN_POINT('Ctrl Pts',(1.5,0.,0.));
#183=CARTESIAN_POINT('Ctrl Pts',(1.5,3.06161699786838E-17,-1.5));
#184=CARTESIAN_POINT('Ctrl Pts',(6.93889390390723E-17,3.06161699786838E-17,
-1.5));
#185=CARTESIAN_POINT('Ctrl Pts',(6.93889390390723E-17,0.,-0.5));
#186=CARTESIAN_POINT('Ctrl Pts',(-0.5,0.,-0.5));
#187=CARTESIAN_POINT('Ctrl Pts',(-0.5,0.,0.));
#188=CARTESIAN_POINT('Ctrl Pts',(-0.5,0.,0.5));
#189=CARTESIAN_POINT('Ctrl Pts',(6.93889390390723E-17,0.,0.5));
#190=CARTESIAN_POINT('Ctrl Pts',(0.5,0.,0.5));
#191=CARTESIAN_POINT('Ctrl Pts',(0.5,0.,0.));
#192=CARTESIAN_POINT('Ctrl Pts',(0.5,0.,-0.5));
#193=CARTESIAN_POINT('Ctrl Pts',(6.93889390390723E-17,0.,-0.5));
#194=CARTESIAN_POINT('',(8.1565990817046E-18,0.,-0.5));
#195=CARTESIAN_POINT('Origin',(6.93889390390723E-17,0.,0.));
#196=CARTESIAN_POINT('',(-1.14308080833031E-16,-1.,-1.5));
#197=CARTESIAN_POINT('Origin',(8.1565990817046E-18,-1.,-0.5));
#198=CARTESIAN_POINT('',(1.5,-1.,1.83697019872103E-16));
#199=CARTESIAN_POINT('Origin',(6.93889390390723E-17,-1.,0.));
#200=CARTESIAN_POINT('Origin',(6.93889390390723E-17,-1.,0.));
#201=CARTESIAN_POINT('Origin',(0.,0.,0.));
#202=CARTESIAN_POINT('',(-1.5,-8.,0.));
#203=CARTESIAN_POINT('',(1.5,-8.,1.83697019872103E-16));
#204=CARTESIAN_POINT('Origin',(5.55111512312578E-16,-8.,0.));
#205=CARTESIAN_POINT('Origin',(5.55111512312578E-16,-8.,0.));
#206=CARTESIAN_POINT('',(1.5,1.04083408558608E-16,1.83697019872103E-16));
#207=CARTESIAN_POINT('Origin',(0.,0.,0.));
#208=CARTESIAN_POINT('Origin',(-2.,-10.,0.));
#209=CARTESIAN_POINT('',(-20.,-11.5,1.83697019872103E-16));
#210=CARTESIAN_POINT('Origin',(-20.,-10.,0.));
#211=CARTESIAN_POINT('',(-2.,-11.5,1.83697019872103E-16));
#212=CARTESIAN_POINT('',(-2.,-11.5,1.83697019872103E-16));
#213=CARTESIAN_POINT('',(-2.,-8.5,0.));
#214=CARTESIAN_POINT('Origin',(-2.,-10.,0.));
#215=CARTESIAN_POINT('Origin',(-2.,-10.,0.));
#216=CARTESIAN_POINT('Origin',(-2.,-8.,0.));
#217=CARTESIAN_POINT('Origin',(-2.,-8.,1.83697019872103E-16));
#218=CARTESIAN_POINT('Origin',(-20.,-10.,0.));
#219=UNCERTAINTY_MEASURE_WITH_UNIT(LENGTH_MEASURE(0.01),#223,
'DISTANCE_ACCURACY_VALUE',
'Maximum model space distance between geometric entities at asserted c
onnectivities');
#220=UNCERTAINTY_MEASURE_WITH_UNIT(LENGTH_MEASURE(0.01),#223,
'DISTANCE_ACCURACY_VALUE',
'Maximum model space distance between geometric entities at asserted c
onnectivities');
#221=(
GEOMETRIC_REPRESENTATION_CONTEXT(3)
GLOBAL_UNCERTAINTY_ASSIGNED_CONTEXT((#219))
GLOBAL_UNIT_ASSIGNED_CONTEXT((#223,#225,#226))
REPRESENTATION_CONTEXT('','3D')
);
#222=(
GEOMETRIC_REPRESENTATION_CONTEXT(3)
GLOBAL_UNCERTAINTY_ASSIGNED_CONTEXT((#220))
GLOBAL_UNIT_ASSIGNED_CONTEXT((#223,#225,#226))
REPRESENTATION_CONTEXT('','3D')
);
#223=(
LENGTH_UNIT()
NAMED_UNIT(*)
SI_UNIT(.MILLI.,.METRE.)
);
#224=(
LENGTH_UNIT()
NAMED_UNIT(*)
SI_UNIT(.CENTI.,.METRE.)
);
#225=(
NAMED_UNIT(*)
PLANE_ANGLE_UNIT()
SI_UNIT($,.RADIAN.)
);
#226=(
NAMED_UNIT(*)
SI_UNIT($,.STERADIAN.)
SOLID_ANGLE_UNIT()
);
#227=SHAPE_DEFINITION_REPRESENTATION(#228,#229);
#228=PRODUCT_DEFINITION_SHAPE('',$,#231);
#229=SHAPE_REPRESENTATION('',(#116),#221);
#230=PRODUCT_DEFINITION_CONTEXT('part definition',#235,'design');
#231=PRODUCT_DEFINITION('Lock Handel','Lock Handel',#232,#230);
#232=PRODUCT_DEFINITION_FORMATION('',$,#237);
#233=PRODUCT_RELATED_PRODUCT_CATEGORY('Lock Handel','Lock Handel',(#237));
#234=APPLICATION_PROTOCOL_DEFINITION('international standard',
'automotive_design',2009,#235);
#235=APPLICATION_CONTEXT(
'Core Data for Automotive Mechanical Design Process');
#236=PRODUCT_CONTEXT('part definition',#235,'mechanical');
#237=PRODUCT('Lock Handel','Lock Handel',$,(#236));
#238=PRESENTATION_STYLE_ASSIGNMENT((#239));
#239=SURFACE_STYLE_USAGE(.BOTH.,#242);
#240=SURFACE_STYLE_RENDERING_WITH_PROPERTIES($,#246,(#241));
#241=SURFACE_STYLE_TRANSPARENT(0.);
#242=SURFACE_SIDE_STYLE('',(#243,#240));
#243=SURFACE_STYLE_FILL_AREA(#244);
#244=FILL_AREA_STYLE('',(#245));
#245=FILL_AREA_STYLE_COLOUR('',#246);
#246=COLOUR_RGB('',0.745098039215686,0.737254901960784,0.729411764705882);
ENDSEC;
END-ISO-10303-21;
