ISO-10303-21;
HEADER;
/* Generated by software containing ST-Developer
 * from STEP Tools, Inc. (www.steptools.com) 
 */

FILE_DESCRIPTION(
/* description */ (''),
/* implementation_level */ '2;1');

FILE_NAME(
/* name */ 
'S:\\Future Scope 1\\WIP\\Client Category\\Tom\\02 Progressive Work\\L
ower Arm Support.stp',
/* time_stamp */ '2025-11-05T12:14:35+06:00',
/* author */ ('SD'),
/* organization */ (''),
/* preprocessor_version */ 'ST-DEVELOPER v18.1',
/* originating_system */ 'Autodesk Inventor 2021',
/* authorisation */ '');

FILE_SCHEMA (('AUTOMOTIVE_DESIGN { 1 0 10303 214 3 1 1 }'));
ENDSEC;

DATA;
#10=MECHANICAL_DESIGN_GEOMETRIC_PRESENTATION_REPRESENTATION('',(#13),#376);
#11=SHAPE_REPRESENTATION_RELATIONSHIP('SRR','None',#383,#12);
#12=ADVANCED_BREP_SHAPE_REPRESENTATION('',(#14),#375);
#13=STYLED_ITEM('',(#392),#14);
#14=MANIFOLD_SOLID_BREP('Solid1',#192);
#15=FACE_BOUND('',#53,.T.);
#16=FACE_BOUND('',#55,.T.);
#17=PLANE('',#243);
#18=PLANE('',#244);
#19=TOROIDAL_SURFACE('',#220,5.99999999999999,2.);
#20=TOROIDAL_SURFACE('',#224,5.99999999999999,1.5);
#21=TOROIDAL_SURFACE('',#227,5.99999999999999,1.5);
#22=TOROIDAL_SURFACE('',#234,6.00000000000001,1.5);
#23=TOROIDAL_SURFACE('',#237,6.00000000000001,1.5);
#24=TOROIDAL_SURFACE('',#240,6.00000000000001,2.);
#25=CYLINDRICAL_SURFACE('',#214,1.2295);
#26=CYLINDRICAL_SURFACE('',#218,3.3235);
#27=CYLINDRICAL_SURFACE('',#231,6.);
#28=FACE_OUTER_BOUND('',#41,.T.);
#29=FACE_OUTER_BOUND('',#42,.T.);
#30=FACE_OUTER_BOUND('',#43,.T.);
#31=FACE_OUTER_BOUND('',#44,.T.);
#32=FACE_OUTER_BOUND('',#45,.T.);
#33=FACE_OUTER_BOUND('',#46,.T.);
#34=FACE_OUTER_BOUND('',#47,.T.);
#35=FACE_OUTER_BOUND('',#48,.T.);
#36=FACE_OUTER_BOUND('',#49,.T.);
#37=FACE_OUTER_BOUND('',#50,.T.);
#38=FACE_OUTER_BOUND('',#51,.T.);
#39=FACE_OUTER_BOUND('',#52,.T.);
#40=FACE_OUTER_BOUND('',#54,.T.);
#41=EDGE_LOOP('',(#127,#128,#129));
#42=EDGE_LOOP('',(#130,#131,#132,#133));
#43=EDGE_LOOP('',(#134,#135,#136));
#44=EDGE_LOOP('',(#137,#138,#139,#140));
#45=EDGE_LOOP('',(#141,#142,#143,#144));
#46=EDGE_LOOP('',(#145,#146,#147,#148));
#47=EDGE_LOOP('',(#149,#150,#151,#152,#153));
#48=EDGE_LOOP('',(#154,#155,#156,#157,#158,#159));
#49=EDGE_LOOP('',(#160,#161,#162,#163,#164));
#50=EDGE_LOOP('',(#165,#166,#167,#168));
#51=EDGE_LOOP('',(#169,#170,#171,#172));
#52=EDGE_LOOP('',(#173));
#53=EDGE_LOOP('',(#174));
#54=EDGE_LOOP('',(#175));
#55=EDGE_LOOP('',(#176));
#56=LINE('',#323,#61);
#57=LINE('',#327,#62);
#58=LINE('',#332,#63);
#59=LINE('',#336,#64);
#60=LINE('',#357,#65);
#61=VECTOR('',#251,0.61475);
#62=VECTOR('',#256,1.2295);
#63=VECTOR('',#261,1.66175);
#64=VECTOR('',#266,3.3235);
#65=VECTOR('',#293,6.);
#66=CIRCLE('',#213,1.2295);
#67=CIRCLE('',#215,1.2295);
#68=CIRCLE('',#217,3.3235);
#69=CIRCLE('',#219,3.3235);
#70=CIRCLE('',#221,5.99999999999999);
#71=CIRCLE('',#222,2.);
#72=CIRCLE('',#223,5.99999999999999);
#73=CIRCLE('',#225,1.5);
#74=CIRCLE('',#226,5.99999999999999);
#75=CIRCLE('',#228,6.);
#76=CIRCLE('',#229,6.);
#77=CIRCLE('',#230,1.5);
#78=CIRCLE('',#232,6.);
#79=CIRCLE('',#233,6.);
#80=CIRCLE('',#235,6.00000000000001);
#81=CIRCLE('',#236,1.5);
#82=CIRCLE('',#238,1.5);
#83=CIRCLE('',#239,6.00000000000001);
#84=CIRCLE('',#241,6.00000000000001);
#85=CIRCLE('',#242,2.);
#86=VERTEX_POINT('',#320);
#87=VERTEX_POINT('',#322);
#88=VERTEX_POINT('',#325);
#89=VERTEX_POINT('',#329);
#90=VERTEX_POINT('',#331);
#91=VERTEX_POINT('',#334);
#92=VERTEX_POINT('',#338);
#93=VERTEX_POINT('',#340);
#94=VERTEX_POINT('',#344);
#95=VERTEX_POINT('',#348);
#96=VERTEX_POINT('',#349);
#97=VERTEX_POINT('',#354);
#98=VERTEX_POINT('',#355);
#99=VERTEX_POINT('',#360);
#100=VERTEX_POINT('',#364);
#101=VERTEX_POINT('',#368);
#102=EDGE_CURVE('',#86,#86,#66,.T.);
#103=EDGE_CURVE('',#86,#87,#56,.T.);
#104=EDGE_CURVE('',#88,#88,#67,.T.);
#105=EDGE_CURVE('',#88,#86,#57,.T.);
#106=EDGE_CURVE('',#89,#89,#68,.T.);
#107=EDGE_CURVE('',#89,#90,#58,.T.);
#108=EDGE_CURVE('',#91,#91,#69,.T.);
#109=EDGE_CURVE('',#91,#89,#59,.T.);
#110=EDGE_CURVE('',#92,#92,#70,.T.);
#111=EDGE_CURVE('',#92,#93,#71,.T.);
#112=EDGE_CURVE('',#93,#93,#72,.T.);
#113=EDGE_CURVE('',#92,#94,#73,.T.);
#114=EDGE_CURVE('',#94,#94,#74,.T.);
#115=EDGE_CURVE('',#95,#96,#75,.T.);
#116=EDGE_CURVE('',#96,#95,#76,.T.);
#117=EDGE_CURVE('',#96,#94,#77,.T.);
#118=EDGE_CURVE('',#97,#98,#78,.T.);
#119=EDGE_CURVE('',#97,#95,#60,.T.);
#120=EDGE_CURVE('',#98,#97,#79,.T.);
#121=EDGE_CURVE('',#99,#99,#80,.T.);
#122=EDGE_CURVE('',#99,#98,#81,.T.);
#123=EDGE_CURVE('',#99,#100,#82,.T.);
#124=EDGE_CURVE('',#100,#100,#83,.T.);
#125=EDGE_CURVE('',#101,#101,#84,.T.);
#126=EDGE_CURVE('',#101,#100,#85,.T.);
#127=ORIENTED_EDGE('',*,*,#102,.T.);
#128=ORIENTED_EDGE('',*,*,#103,.T.);
#129=ORIENTED_EDGE('',*,*,#103,.F.);
#130=ORIENTED_EDGE('',*,*,#104,.F.);
#131=ORIENTED_EDGE('',*,*,#105,.T.);
#132=ORIENTED_EDGE('',*,*,#102,.F.);
#133=ORIENTED_EDGE('',*,*,#105,.F.);
#134=ORIENTED_EDGE('',*,*,#106,.T.);
#135=ORIENTED_EDGE('',*,*,#107,.T.);
#136=ORIENTED_EDGE('',*,*,#107,.F.);
#137=ORIENTED_EDGE('',*,*,#108,.F.);
#138=ORIENTED_EDGE('',*,*,#109,.T.);
#139=ORIENTED_EDGE('',*,*,#106,.F.);
#140=ORIENTED_EDGE('',*,*,#109,.F.);
#141=ORIENTED_EDGE('',*,*,#110,.F.);
#142=ORIENTED_EDGE('',*,*,#111,.T.);
#143=ORIENTED_EDGE('',*,*,#112,.T.);
#144=ORIENTED_EDGE('',*,*,#111,.F.);
#145=ORIENTED_EDGE('',*,*,#110,.T.);
#146=ORIENTED_EDGE('',*,*,#113,.T.);
#147=ORIENTED_EDGE('',*,*,#114,.F.);
#148=ORIENTED_EDGE('',*,*,#113,.F.);
#149=ORIENTED_EDGE('',*,*,#115,.F.);
#150=ORIENTED_EDGE('',*,*,#116,.F.);
#151=ORIENTED_EDGE('',*,*,#117,.T.);
#152=ORIENTED_EDGE('',*,*,#114,.T.);
#153=ORIENTED_EDGE('',*,*,#117,.F.);
#154=ORIENTED_EDGE('',*,*,#118,.F.);
#155=ORIENTED_EDGE('',*,*,#119,.T.);
#156=ORIENTED_EDGE('',*,*,#115,.T.);
#157=ORIENTED_EDGE('',*,*,#116,.T.);
#158=ORIENTED_EDGE('',*,*,#119,.F.);
#159=ORIENTED_EDGE('',*,*,#120,.F.);
#160=ORIENTED_EDGE('',*,*,#121,.F.);
#161=ORIENTED_EDGE('',*,*,#122,.T.);
#162=ORIENTED_EDGE('',*,*,#120,.T.);
#163=ORIENTED_EDGE('',*,*,#118,.T.);
#164=ORIENTED_EDGE('',*,*,#122,.F.);
#165=ORIENTED_EDGE('',*,*,#121,.T.);
#166=ORIENTED_EDGE('',*,*,#123,.T.);
#167=ORIENTED_EDGE('',*,*,#124,.F.);
#168=ORIENTED_EDGE('',*,*,#123,.F.);
#169=ORIENTED_EDGE('',*,*,#125,.F.);
#170=ORIENTED_EDGE('',*,*,#126,.T.);
#171=ORIENTED_EDGE('',*,*,#124,.T.);
#172=ORIENTED_EDGE('',*,*,#126,.F.);
#173=ORIENTED_EDGE('',*,*,#125,.T.);
#174=ORIENTED_EDGE('',*,*,#108,.T.);
#175=ORIENTED_EDGE('',*,*,#112,.F.);
#176=ORIENTED_EDGE('',*,*,#104,.T.);
#177=CONICAL_SURFACE('',#212,0.61475,1.02974425867665);
#178=CONICAL_SURFACE('',#216,1.66175,1.02974425867665);
#179=ADVANCED_FACE('',(#28),#177,.F.);
#180=ADVANCED_FACE('',(#29),#25,.F.);
#181=ADVANCED_FACE('',(#30),#178,.F.);
#182=ADVANCED_FACE('',(#31),#26,.F.);
#183=ADVANCED_FACE('',(#32),#19,.T.);
#184=ADVANCED_FACE('',(#33),#20,.F.);
#185=ADVANCED_FACE('',(#34),#21,.T.);
#186=ADVANCED_FACE('',(#35),#27,.T.);
#187=ADVANCED_FACE('',(#36),#22,.T.);
#188=ADVANCED_FACE('',(#37),#23,.F.);
#189=ADVANCED_FACE('',(#38),#24,.T.);
#190=ADVANCED_FACE('',(#39,#15),#17,.T.);
#191=ADVANCED_FACE('',(#40,#16),#18,.T.);
#192=CLOSED_SHELL('',(#179,#180,#181,#182,#183,#184,#185,#186,#187,#188,
#189,#190,#191));
#193=DERIVED_UNIT_ELEMENT(#195,1.);
#194=DERIVED_UNIT_ELEMENT(#378,3.);
#195=(
MASS_UNIT()
NAMED_UNIT(*)
SI_UNIT($,.GRAM.)
);
#196=DERIVED_UNIT((#193,#194));
#197=MEASURE_REPRESENTATION_ITEM('density measure',
POSITIVE_RATIO_MEASURE(8.),#196);
#198=PROPERTY_DEFINITION_REPRESENTATION(#203,#200);
#199=PROPERTY_DEFINITION_REPRESENTATION(#204,#201);
#200=REPRESENTATION('material name',(#202),#375);
#201=REPRESENTATION('density',(#197),#375);
#202=DESCRIPTIVE_REPRESENTATION_ITEM('Stainless Steel',
'Stainless Steel');
#203=PROPERTY_DEFINITION('material property','material name',#385);
#204=PROPERTY_DEFINITION('material property','density of part',#385);
#205=DATE_TIME_ROLE('creation_date');
#206=APPLIED_DATE_AND_TIME_ASSIGNMENT(#207,#205,(#385));
#207=DATE_AND_TIME(#208,#209);
#208=CALENDAR_DATE(2025,17,9);
#209=LOCAL_TIME(0,0,0.,#210);
#210=COORDINATED_UNIVERSAL_TIME_OFFSET(0,0,.BEHIND.);
#211=AXIS2_PLACEMENT_3D('placement',#318,#245,#246);
#212=AXIS2_PLACEMENT_3D('',#319,#247,#248);
#213=AXIS2_PLACEMENT_3D('',#321,#249,#250);
#214=AXIS2_PLACEMENT_3D('',#324,#252,#253);
#215=AXIS2_PLACEMENT_3D('',#326,#254,#255);
#216=AXIS2_PLACEMENT_3D('',#328,#257,#258);
#217=AXIS2_PLACEMENT_3D('',#330,#259,#260);
#218=AXIS2_PLACEMENT_3D('',#333,#262,#263);
#219=AXIS2_PLACEMENT_3D('',#335,#264,#265);
#220=AXIS2_PLACEMENT_3D('',#337,#267,#268);
#221=AXIS2_PLACEMENT_3D('',#339,#269,#270);
#222=AXIS2_PLACEMENT_3D('',#341,#271,#272);
#223=AXIS2_PLACEMENT_3D('',#342,#273,#274);
#224=AXIS2_PLACEMENT_3D('',#343,#275,#276);
#225=AXIS2_PLACEMENT_3D('',#345,#277,#278);
#226=AXIS2_PLACEMENT_3D('',#346,#279,#280);
#227=AXIS2_PLACEMENT_3D('',#347,#281,#282);
#228=AXIS2_PLACEMENT_3D('',#350,#283,#284);
#229=AXIS2_PLACEMENT_3D('',#351,#285,#286);
#230=AXIS2_PLACEMENT_3D('',#352,#287,#288);
#231=AXIS2_PLACEMENT_3D('',#353,#289,#290);
#232=AXIS2_PLACEMENT_3D('',#356,#291,#292);
#233=AXIS2_PLACEMENT_3D('',#358,#294,#295);
#234=AXIS2_PLACEMENT_3D('',#359,#296,#297);
#235=AXIS2_PLACEMENT_3D('',#361,#298,#299);
#236=AXIS2_PLACEMENT_3D('',#362,#300,#301);
#237=AXIS2_PLACEMENT_3D('',#363,#302,#303);
#238=AXIS2_PLACEMENT_3D('',#365,#304,#305);
#239=AXIS2_PLACEMENT_3D('',#366,#306,#307);
#240=AXIS2_PLACEMENT_3D('',#367,#308,#309);
#241=AXIS2_PLACEMENT_3D('',#369,#310,#311);
#242=AXIS2_PLACEMENT_3D('',#370,#312,#313);
#243=AXIS2_PLACEMENT_3D('',#371,#314,#315);
#244=AXIS2_PLACEMENT_3D('',#372,#316,#317);
#245=DIRECTION('axis',(0.,0.,1.));
#246=DIRECTION('refdir',(1.,0.,0.));
#247=DIRECTION('center_axis',(-1.22464679914735E-16,1.,0.));
#248=DIRECTION('ref_axis',(1.,1.22464679914735E-16,0.));
#249=DIRECTION('center_axis',(-1.22464679914735E-16,1.,0.));
#250=DIRECTION('ref_axis',(1.,1.22464679914735E-16,0.));
#251=DIRECTION('',(0.857167300702112,-0.515038074910054,-1.04972719113862E-16));
#252=DIRECTION('center_axis',(-1.22464679914735E-16,1.,0.));
#253=DIRECTION('ref_axis',(1.,1.22464679914735E-16,0.));
#254=DIRECTION('center_axis',(1.22464679914735E-16,-1.,0.));
#255=DIRECTION('ref_axis',(1.,1.22464679914735E-16,0.));
#256=DIRECTION('',(1.22464679914735E-16,-1.,0.));
#257=DIRECTION('center_axis',(1.22464679914735E-16,-1.,0.));
#258=DIRECTION('ref_axis',(1.,1.22464679914735E-16,0.));
#259=DIRECTION('center_axis',(1.22464679914735E-16,-1.,0.));
#260=DIRECTION('ref_axis',(1.,1.22464679914735E-16,0.));
#261=DIRECTION('',(0.857167300702112,0.515038074910054,1.04972719113862E-16));
#262=DIRECTION('center_axis',(1.22464679914735E-16,-1.,0.));
#263=DIRECTION('ref_axis',(1.,1.22464679914735E-16,0.));
#264=DIRECTION('center_axis',(-1.22464679914735E-16,1.,0.));
#265=DIRECTION('ref_axis',(1.,1.22464679914735E-16,0.));
#266=DIRECTION('',(-1.22464679914735E-16,1.,0.));
#267=DIRECTION('center_axis',(1.22464679914735E-16,-1.,0.));
#268=DIRECTION('ref_axis',(0.,0.,-1.));
#269=DIRECTION('center_axis',(1.22464679914735E-16,-1.,0.));
#270=DIRECTION('ref_axis',(1.,1.22464679914735E-16,0.));
#271=DIRECTION('center_axis',(-1.,-1.22464679914735E-16,-1.22464679914735E-16));
#272=DIRECTION('ref_axis',(-1.22464679914735E-16,0.,1.));
#273=DIRECTION('center_axis',(1.22464679914735E-16,-1.,0.));
#274=DIRECTION('ref_axis',(1.,1.22464679914735E-16,0.));
#275=DIRECTION('center_axis',(1.22464679914735E-16,-1.,0.));
#276=DIRECTION('ref_axis',(0.,0.,-1.));
#277=DIRECTION('center_axis',(-1.,-1.22464679914735E-16,-1.22464679914735E-16));
#278=DIRECTION('ref_axis',(-1.22464679914735E-16,0.,1.));
#279=DIRECTION('center_axis',(1.22464679914735E-16,-1.,0.));
#280=DIRECTION('ref_axis',(1.,1.22464679914735E-16,0.));
#281=DIRECTION('center_axis',(1.22464679914735E-16,-1.,0.));
#282=DIRECTION('ref_axis',(0.,0.,-1.));
#283=DIRECTION('center_axis',(1.22464679914735E-16,-1.,0.));
#284=DIRECTION('ref_axis',(1.,1.22464679914735E-16,0.));
#285=DIRECTION('center_axis',(1.22464679914735E-16,-1.,0.));
#286=DIRECTION('ref_axis',(1.,1.22464679914735E-16,0.));
#287=DIRECTION('center_axis',(-1.,-1.22464679914735E-16,-1.22464679914735E-16));
#288=DIRECTION('ref_axis',(-1.22464679914735E-16,0.,1.));
#289=DIRECTION('center_axis',(1.22464679914735E-16,-1.,0.));
#290=DIRECTION('ref_axis',(1.,1.22464679914735E-16,0.));
#291=DIRECTION('center_axis',(1.22464679914735E-16,-1.,0.));
#292=DIRECTION('ref_axis',(1.,1.22464679914735E-16,0.));
#293=DIRECTION('',(-1.22464679914735E-16,1.,0.));
#294=DIRECTION('center_axis',(1.22464679914735E-16,-1.,0.));
#295=DIRECTION('ref_axis',(1.,1.22464679914735E-16,0.));
#296=DIRECTION('center_axis',(1.22464679914735E-16,-1.,0.));
#297=DIRECTION('ref_axis',(0.,0.,-1.));
#298=DIRECTION('center_axis',(1.22464679914735E-16,-1.,0.));
#299=DIRECTION('ref_axis',(1.,1.22464679914735E-16,0.));
#300=DIRECTION('center_axis',(-1.,-1.22464679914735E-16,-1.22464679914736E-16));
#301=DIRECTION('ref_axis',(-1.22464679914736E-16,0.,1.));
#302=DIRECTION('center_axis',(1.22464679914735E-16,-1.,0.));
#303=DIRECTION('ref_axis',(0.,0.,-1.));
#304=DIRECTION('center_axis',(-1.,-1.22464679914735E-16,-1.22464679914736E-16));
#305=DIRECTION('ref_axis',(-1.22464679914736E-16,0.,1.));
#306=DIRECTION('center_axis',(1.22464679914735E-16,-1.,0.));
#307=DIRECTION('ref_axis',(1.,1.22464679914735E-16,0.));
#308=DIRECTION('center_axis',(1.22464679914735E-16,-1.,0.));
#309=DIRECTION('ref_axis',(0.,0.,-1.));
#310=DIRECTION('center_axis',(1.22464679914735E-16,-1.,0.));
#311=DIRECTION('ref_axis',(1.,1.22464679914735E-16,0.));
#312=DIRECTION('center_axis',(-1.,-1.22464679914735E-16,-1.22464679914735E-16));
#313=DIRECTION('ref_axis',(-1.22464679914735E-16,0.,1.));
#314=DIRECTION('center_axis',(1.22464679914735E-16,-1.,0.));
#315=DIRECTION('ref_axis',(0.,0.,-1.));
#316=DIRECTION('center_axis',(-1.22464679914735E-16,1.,0.));
#317=DIRECTION('ref_axis',(0.,0.,1.));
#318=CARTESIAN_POINT('',(0.,0.,0.));
#319=CARTESIAN_POINT('Origin',(2.49452948732415E-15,-20.3693790655472,0.));
#320=CARTESIAN_POINT('',(-1.2295,-20.,1.50570323955167E-16));
#321=CARTESIAN_POINT('Origin',(2.44929359829471E-15,-20.,0.));
#322=CARTESIAN_POINT('',(2.53976537635359E-15,-20.7387581310944,0.));
#323=CARTESIAN_POINT('',(-0.614749999999997,-20.3693790655472,7.52851619775835E-17));
#324=CARTESIAN_POINT('Origin',(1.22464679914735E-15,-10.,0.));
#325=CARTESIAN_POINT('',(-1.2295,-4.44089209850063E-15,1.50570323955167E-16));
#326=CARTESIAN_POINT('Origin',(4.93038065763132E-31,-3.33066907387547E-15,
0.));
#327=CARTESIAN_POINT('',(-1.2295,-10.,1.50570323955167E-16));
#328=CARTESIAN_POINT('Origin',(2.00843936359603E-14,-164.001519866331,0.));
#329=CARTESIAN_POINT('',(-3.32349999999998,-165.,-4.07011363696623E-16));
#330=CARTESIAN_POINT('Origin',(2.02066721859313E-14,-165.,0.));
#331=CARTESIAN_POINT('',(1.99621150859893E-14,-163.003039732662,0.));
#332=CARTESIAN_POINT('',(-1.66174999999998,-164.001519866331,-2.03505681848311E-16));
#333=CARTESIAN_POINT('Origin',(2.17374806848655E-14,-177.5,0.));
#334=CARTESIAN_POINT('',(-3.32349999999998,-190.,-4.07011363696623E-16));
#335=CARTESIAN_POINT('Origin',(2.32682891837997E-14,-190.,0.));
#336=CARTESIAN_POINT('',(-3.32349999999998,-177.5,-4.07011363696623E-16));
#337=CARTESIAN_POINT('Origin',(2.44929359829471E-16,-2.,0.));
#338=CARTESIAN_POINT('',(-2.4492935982947E-16,-4.,5.99999999999999));
#339=CARTESIAN_POINT('Origin',(4.89858719658942E-16,-4.,0.));
#340=CARTESIAN_POINT('',(-7.3478807948841E-16,-2.4980018054066E-15,5.99999999999999));
#341=CARTESIAN_POINT('Origin',(-4.8985871965894E-16,-2.,5.99999999999999));
#342=CARTESIAN_POINT('Origin',(2.93930247976745E-31,-2.40012261642615E-15,
0.));
#343=CARTESIAN_POINT('Origin',(6.73555739531044E-16,-5.5,0.));
#344=CARTESIAN_POINT('',(1.22464679914736E-16,-7.,5.99999999999999));
#345=CARTESIAN_POINT('Origin',(-6.12323399573664E-17,-5.5,5.99999999999999));
#346=CARTESIAN_POINT('Origin',(8.57252759403147E-16,-7.,0.));
#347=CARTESIAN_POINT('Origin',(1.04094977927525E-15,-8.5,0.));
#348=CARTESIAN_POINT('',(-6.,-10.,-7.34788079488412E-16));
#349=CARTESIAN_POINT('',(4.89858719658941E-16,-10.,6.));
#350=CARTESIAN_POINT('Origin',(1.22464679914735E-15,-10.,0.));
#351=CARTESIAN_POINT('Origin',(1.22464679914735E-15,-10.,0.));
#352=CARTESIAN_POINT('Origin',(3.06161699786839E-16,-8.5,5.99999999999999));
#353=CARTESIAN_POINT('Origin',(1.16341445918999E-14,-95.,0.));
#354=CARTESIAN_POINT('',(-5.99999999999998,-180.,-7.34788079488412E-16));
#355=CARTESIAN_POINT('',(2.13088543051639E-14,-180.,6.));
#356=CARTESIAN_POINT('Origin',(2.20436423846524E-14,-180.,0.));
#357=CARTESIAN_POINT('',(-5.99999999999999,-95.,-7.34788079488412E-16));
#358=CARTESIAN_POINT('Origin',(2.20436423846524E-14,-180.,0.));
#359=CARTESIAN_POINT('Origin',(2.22273394045245E-14,-181.5,0.));
#360=CARTESIAN_POINT('',(2.16762483449082E-14,-183.,6.00000000000001));
#361=CARTESIAN_POINT('Origin',(2.24110364243966E-14,-183.,0.));
#362=CARTESIAN_POINT('Origin',(2.1492551325036E-14,-181.5,6.00000000000001));
#363=CARTESIAN_POINT('Origin',(2.25947334442687E-14,-184.5,0.));
#364=CARTESIAN_POINT('',(2.20436423846524E-14,-186.,6.00000000000001));
#365=CARTESIAN_POINT('Origin',(2.18599453647803E-14,-184.5,6.00000000000001));
#366=CARTESIAN_POINT('Origin',(2.27784304641408E-14,-186.,0.));
#367=CARTESIAN_POINT('Origin',(2.30233598239702E-14,-188.,0.));
#368=CARTESIAN_POINT('',(2.25335011043113E-14,-190.,6.00000000000001));
#369=CARTESIAN_POINT('Origin',(2.32682891837997E-14,-190.,0.));
#370=CARTESIAN_POINT('Origin',(2.22885717444818E-14,-188.,6.00000000000001));
#371=CARTESIAN_POINT('Origin',(2.32682891837997E-14,-190.,0.));
#372=CARTESIAN_POINT('Origin',(5.99999999999999,-1.66533453693773E-15,0.));
#373=UNCERTAINTY_MEASURE_WITH_UNIT(LENGTH_MEASURE(0.01),#377,
'DISTANCE_ACCURACY_VALUE',
'Maximum model space distance between geometric entities at asserted c
onnectivities');
#374=UNCERTAINTY_MEASURE_WITH_UNIT(LENGTH_MEASURE(0.01),#377,
'DISTANCE_ACCURACY_VALUE',
'Maximum model space distance between geometric entities at asserted c
onnectivities');
#375=(
GEOMETRIC_REPRESENTATION_CONTEXT(3)
GLOBAL_UNCERTAINTY_ASSIGNED_CONTEXT((#373))
GLOBAL_UNIT_ASSIGNED_CONTEXT((#377,#379,#380))
REPRESENTATION_CONTEXT('','3D')
);
#376=(
GEOMETRIC_REPRESENTATION_CONTEXT(3)
GLOBAL_UNCERTAINTY_ASSIGNED_CONTEXT((#374))
GLOBAL_UNIT_ASSIGNED_CONTEXT((#377,#379,#380))
REPRESENTATION_CONTEXT('','3D')
);
#377=(
LENGTH_UNIT()
NAMED_UNIT(*)
SI_UNIT(.MILLI.,.METRE.)
);
#378=(
LENGTH_UNIT()
NAMED_UNIT(*)
SI_UNIT(.CENTI.,.METRE.)
);
#379=(
NAMED_UNIT(*)
PLANE_ANGLE_UNIT()
SI_UNIT($,.RADIAN.)
);
#380=(
NAMED_UNIT(*)
SI_UNIT($,.STERADIAN.)
SOLID_ANGLE_UNIT()
);
#381=SHAPE_DEFINITION_REPRESENTATION(#382,#383);
#382=PRODUCT_DEFINITION_SHAPE('',$,#385);
#383=SHAPE_REPRESENTATION('',(#211),#375);
#384=PRODUCT_DEFINITION_CONTEXT('part definition',#389,'design');
#385=PRODUCT_DEFINITION('Lower Arm Support','Lower Arm Support',#386,#384);
#386=PRODUCT_DEFINITION_FORMATION('',$,#391);
#387=PRODUCT_RELATED_PRODUCT_CATEGORY('Lower Arm Support',
'Lower Arm Support',(#391));
#388=APPLICATION_PROTOCOL_DEFINITION('international standard',
'automotive_design',2009,#389);
#389=APPLICATION_CONTEXT(
'Core Data for Automotive Mechanical Design Process');
#390=PRODUCT_CONTEXT('part definition',#389,'mechanical');
#391=PRODUCT('Lower Arm Support','Lower Arm Support',$,(#390));
#392=PRESENTATION_STYLE_ASSIGNMENT((#393));
#393=SURFACE_STYLE_USAGE(.BOTH.,#396);
#394=SURFACE_STYLE_RENDERING_WITH_PROPERTIES($,#400,(#395));
#395=SURFACE_STYLE_TRANSPARENT(0.);
#396=SURFACE_SIDE_STYLE('',(#397,#394));
#397=SURFACE_STYLE_FILL_AREA(#398);
#398=FILL_AREA_STYLE('',(#399));
#399=FILL_AREA_STYLE_COLOUR('',#400);
#400=COLOUR_RGB('',0.745098039215686,0.737254901960784,0.729411764705882);
ENDSEC;
END-ISO-10303-21;
