ISO-10303-21;
HEADER;
/* Generated by software containing ST-Developer
 * from STEP Tools, Inc. (www.steptools.com) 
 */

FILE_DESCRIPTION(
/* description */ (''),
/* implementation_level */ '2;1');

FILE_NAME(
/* name */ 
'S:\\Future Scope 1\\WIP\\Client Category\\Tom\\02 Progressive Work\\L
ower Arm Brass Plate - 2.stp',
/* time_stamp */ '2025-11-05T12:14:34+06:00',
/* author */ ('SD'),
/* organization */ (''),
/* preprocessor_version */ 'ST-DEVELOPER v18.1',
/* originating_system */ 'Autodesk Inventor 2021',
/* authorisation */ '');

FILE_SCHEMA (('AUTOMOTIVE_DESIGN { 1 0 10303 214 3 1 1 }'));
ENDSEC;

DATA;
#10=MECHANICAL_DESIGN_GEOMETRIC_PRESENTATION_REPRESENTATION('',(#13),#506);
#11=SHAPE_REPRESENTATION_RELATIONSHIP('SRR','None',#513,#12);
#12=ADVANCED_BREP_SHAPE_REPRESENTATION('',(#14),#505);
#13=STYLED_ITEM('',(#522),#14);
#14=MANIFOLD_SOLID_BREP('Solid1',#288);
#15=FACE_BOUND('',#68,.T.);
#16=FACE_BOUND('',#69,.T.);
#17=FACE_BOUND('',#70,.T.);
#18=FACE_BOUND('',#77,.T.);
#19=FACE_BOUND('',#78,.T.);
#20=FACE_BOUND('',#79,.T.);
#21=CYLINDRICAL_SURFACE('',#316,10.);
#22=CYLINDRICAL_SURFACE('',#330,10.);
#23=CYLINDRICAL_SURFACE('',#335,1.5);
#24=CYLINDRICAL_SURFACE('',#336,1.5);
#25=CYLINDRICAL_SURFACE('',#337,3.5);
#26=CIRCLE('',#310,10.);
#27=CIRCLE('',#311,9.49999999999999);
#28=CIRCLE('',#314,10.);
#29=CIRCLE('',#315,9.49999999999999);
#30=CIRCLE('',#317,10.);
#31=CIRCLE('',#320,1.5);
#32=CIRCLE('',#321,1.5);
#33=CIRCLE('',#322,3.5);
#34=CIRCLE('',#325,10.);
#35=CIRCLE('',#326,9.49999999999999);
#36=CIRCLE('',#329,9.49999999999999);
#37=CIRCLE('',#332,1.5);
#38=CIRCLE('',#333,1.5);
#39=CIRCLE('',#334,3.5);
#40=CONICAL_SURFACE('',#309,9.75,0.785398163397455);
#41=CONICAL_SURFACE('',#313,9.75,0.785398163397455);
#42=CONICAL_SURFACE('',#324,9.75,0.785398163397455);
#43=CONICAL_SURFACE('',#328,9.75,0.785398163397455);
#44=FACE_OUTER_BOUND('',#61,.T.);
#45=FACE_OUTER_BOUND('',#62,.T.);
#46=FACE_OUTER_BOUND('',#63,.T.);
#47=FACE_OUTER_BOUND('',#64,.T.);
#48=FACE_OUTER_BOUND('',#65,.T.);
#49=FACE_OUTER_BOUND('',#66,.T.);
#50=FACE_OUTER_BOUND('',#67,.T.);
#51=FACE_OUTER_BOUND('',#71,.T.);
#52=FACE_OUTER_BOUND('',#72,.T.);
#53=FACE_OUTER_BOUND('',#73,.T.);
#54=FACE_OUTER_BOUND('',#74,.T.);
#55=FACE_OUTER_BOUND('',#75,.T.);
#56=FACE_OUTER_BOUND('',#76,.T.);
#57=FACE_OUTER_BOUND('',#80,.T.);
#58=FACE_OUTER_BOUND('',#81,.T.);
#59=FACE_OUTER_BOUND('',#82,.T.);
#60=FACE_OUTER_BOUND('',#83,.T.);
#61=EDGE_LOOP('',(#189,#190,#191,#192));
#62=EDGE_LOOP('',(#193,#194,#195,#196));
#63=EDGE_LOOP('',(#197,#198,#199,#200));
#64=EDGE_LOOP('',(#201,#202,#203,#204));
#65=EDGE_LOOP('',(#205,#206,#207,#208));
#66=EDGE_LOOP('',(#209,#210,#211,#212));
#67=EDGE_LOOP('',(#213,#214,#215,#216));
#68=EDGE_LOOP('',(#217));
#69=EDGE_LOOP('',(#218));
#70=EDGE_LOOP('',(#219));
#71=EDGE_LOOP('',(#220,#221,#222,#223));
#72=EDGE_LOOP('',(#224,#225,#226,#227));
#73=EDGE_LOOP('',(#228,#229,#230,#231));
#74=EDGE_LOOP('',(#232,#233,#234,#235));
#75=EDGE_LOOP('',(#236,#237,#238,#239));
#76=EDGE_LOOP('',(#240,#241,#242,#243));
#77=EDGE_LOOP('',(#244));
#78=EDGE_LOOP('',(#245));
#79=EDGE_LOOP('',(#246));
#80=EDGE_LOOP('',(#247,#248,#249,#250));
#81=EDGE_LOOP('',(#251,#252,#253,#254));
#82=EDGE_LOOP('',(#255,#256,#257,#258));
#83=EDGE_LOOP('',(#259,#260,#261,#262));
#84=LINE('',#430,#107);
#85=LINE('',#432,#108);
#86=LINE('',#434,#109);
#87=LINE('',#435,#110);
#88=LINE('',#440,#111);
#89=LINE('',#445,#112);
#90=LINE('',#446,#113);
#91=LINE('',#447,#114);
#92=LINE('',#453,#115);
#93=LINE('',#456,#116);
#94=LINE('',#459,#117);
#95=LINE('',#460,#118);
#96=LINE('',#470,#119);
#97=LINE('',#472,#120);
#98=LINE('',#473,#121);
#99=LINE('',#478,#122);
#100=LINE('',#482,#123);
#101=LINE('',#483,#124);
#102=LINE('',#484,#125);
#103=LINE('',#488,#126);
#104=LINE('',#497,#127);
#105=LINE('',#499,#128);
#106=LINE('',#501,#129);
#107=VECTOR('',#343,10.);
#108=VECTOR('',#344,10.);
#109=VECTOR('',#345,10.);
#110=VECTOR('',#346,10.);
#111=VECTOR('',#351,10.);
#112=VECTOR('',#356,10.);
#113=VECTOR('',#357,10.);
#114=VECTOR('',#358,10.);
#115=VECTOR('',#367,10.);
#116=VECTOR('',#370,10.);
#117=VECTOR('',#373,10.);
#118=VECTOR('',#374,10.);
#119=VECTOR('',#385,10.);
#120=VECTOR('',#386,10.);
#121=VECTOR('',#387,10.);
#122=VECTOR('',#392,10.);
#123=VECTOR('',#397,10.);
#124=VECTOR('',#398,10.);
#125=VECTOR('',#399,10.);
#126=VECTOR('',#406,10.);
#127=VECTOR('',#417,1.5);
#128=VECTOR('',#420,1.5);
#129=VECTOR('',#423,3.5);
#130=VERTEX_POINT('',#428);
#131=VERTEX_POINT('',#429);
#132=VERTEX_POINT('',#431);
#133=VERTEX_POINT('',#433);
#134=VERTEX_POINT('',#437);
#135=VERTEX_POINT('',#439);
#136=VERTEX_POINT('',#443);
#137=VERTEX_POINT('',#444);
#138=VERTEX_POINT('',#452);
#139=VERTEX_POINT('',#454);
#140=VERTEX_POINT('',#458);
#141=VERTEX_POINT('',#462);
#142=VERTEX_POINT('',#464);
#143=VERTEX_POINT('',#466);
#144=VERTEX_POINT('',#469);
#145=VERTEX_POINT('',#471);
#146=VERTEX_POINT('',#475);
#147=VERTEX_POINT('',#477);
#148=VERTEX_POINT('',#481);
#149=VERTEX_POINT('',#490);
#150=VERTEX_POINT('',#492);
#151=VERTEX_POINT('',#494);
#152=EDGE_CURVE('',#130,#131,#84,.T.);
#153=EDGE_CURVE('',#131,#132,#85,.T.);
#154=EDGE_CURVE('',#132,#133,#86,.T.);
#155=EDGE_CURVE('',#133,#130,#87,.T.);
#156=EDGE_CURVE('',#130,#134,#26,.T.);
#157=EDGE_CURVE('',#134,#135,#88,.T.);
#158=EDGE_CURVE('',#135,#131,#27,.T.);
#159=EDGE_CURVE('',#136,#137,#89,.T.);
#160=EDGE_CURVE('',#137,#135,#90,.T.);
#161=EDGE_CURVE('',#134,#136,#91,.T.);
#162=EDGE_CURVE('',#136,#133,#28,.T.);
#163=EDGE_CURVE('',#132,#137,#29,.T.);
#164=EDGE_CURVE('',#130,#138,#92,.T.);
#165=EDGE_CURVE('',#139,#138,#30,.T.);
#166=EDGE_CURVE('',#139,#134,#93,.T.);
#167=EDGE_CURVE('',#140,#133,#94,.T.);
#168=EDGE_CURVE('',#138,#140,#95,.T.);
#169=EDGE_CURVE('',#141,#141,#31,.T.);
#170=EDGE_CURVE('',#142,#142,#32,.T.);
#171=EDGE_CURVE('',#143,#143,#33,.T.);
#172=EDGE_CURVE('',#140,#144,#96,.T.);
#173=EDGE_CURVE('',#144,#145,#97,.T.);
#174=EDGE_CURVE('',#145,#138,#98,.T.);
#175=EDGE_CURVE('',#140,#146,#34,.T.);
#176=EDGE_CURVE('',#146,#147,#99,.T.);
#177=EDGE_CURVE('',#147,#144,#35,.T.);
#178=EDGE_CURVE('',#139,#148,#100,.T.);
#179=EDGE_CURVE('',#148,#147,#101,.T.);
#180=EDGE_CURVE('',#146,#139,#102,.T.);
#181=EDGE_CURVE('',#145,#148,#36,.T.);
#182=EDGE_CURVE('',#136,#146,#103,.T.);
#183=EDGE_CURVE('',#149,#149,#37,.T.);
#184=EDGE_CURVE('',#150,#150,#38,.T.);
#185=EDGE_CURVE('',#151,#151,#39,.T.);
#186=EDGE_CURVE('',#149,#141,#104,.T.);
#187=EDGE_CURVE('',#150,#142,#105,.T.);
#188=EDGE_CURVE('',#151,#143,#106,.T.);
#189=ORIENTED_EDGE('',*,*,#152,.T.);
#190=ORIENTED_EDGE('',*,*,#153,.T.);
#191=ORIENTED_EDGE('',*,*,#154,.T.);
#192=ORIENTED_EDGE('',*,*,#155,.T.);
#193=ORIENTED_EDGE('',*,*,#152,.F.);
#194=ORIENTED_EDGE('',*,*,#156,.T.);
#195=ORIENTED_EDGE('',*,*,#157,.T.);
#196=ORIENTED_EDGE('',*,*,#158,.T.);
#197=ORIENTED_EDGE('',*,*,#159,.T.);
#198=ORIENTED_EDGE('',*,*,#160,.T.);
#199=ORIENTED_EDGE('',*,*,#157,.F.);
#200=ORIENTED_EDGE('',*,*,#161,.T.);
#201=ORIENTED_EDGE('',*,*,#159,.F.);
#202=ORIENTED_EDGE('',*,*,#162,.T.);
#203=ORIENTED_EDGE('',*,*,#154,.F.);
#204=ORIENTED_EDGE('',*,*,#163,.T.);
#205=ORIENTED_EDGE('',*,*,#156,.F.);
#206=ORIENTED_EDGE('',*,*,#164,.T.);
#207=ORIENTED_EDGE('',*,*,#165,.F.);
#208=ORIENTED_EDGE('',*,*,#166,.T.);
#209=ORIENTED_EDGE('',*,*,#155,.F.);
#210=ORIENTED_EDGE('',*,*,#167,.F.);
#211=ORIENTED_EDGE('',*,*,#168,.F.);
#212=ORIENTED_EDGE('',*,*,#164,.F.);
#213=ORIENTED_EDGE('',*,*,#153,.F.);
#214=ORIENTED_EDGE('',*,*,#158,.F.);
#215=ORIENTED_EDGE('',*,*,#160,.F.);
#216=ORIENTED_EDGE('',*,*,#163,.F.);
#217=ORIENTED_EDGE('',*,*,#169,.T.);
#218=ORIENTED_EDGE('',*,*,#170,.T.);
#219=ORIENTED_EDGE('',*,*,#171,.T.);
#220=ORIENTED_EDGE('',*,*,#172,.T.);
#221=ORIENTED_EDGE('',*,*,#173,.T.);
#222=ORIENTED_EDGE('',*,*,#174,.T.);
#223=ORIENTED_EDGE('',*,*,#168,.T.);
#224=ORIENTED_EDGE('',*,*,#172,.F.);
#225=ORIENTED_EDGE('',*,*,#175,.T.);
#226=ORIENTED_EDGE('',*,*,#176,.T.);
#227=ORIENTED_EDGE('',*,*,#177,.T.);
#228=ORIENTED_EDGE('',*,*,#178,.T.);
#229=ORIENTED_EDGE('',*,*,#179,.T.);
#230=ORIENTED_EDGE('',*,*,#176,.F.);
#231=ORIENTED_EDGE('',*,*,#180,.T.);
#232=ORIENTED_EDGE('',*,*,#178,.F.);
#233=ORIENTED_EDGE('',*,*,#165,.T.);
#234=ORIENTED_EDGE('',*,*,#174,.F.);
#235=ORIENTED_EDGE('',*,*,#181,.T.);
#236=ORIENTED_EDGE('',*,*,#162,.F.);
#237=ORIENTED_EDGE('',*,*,#182,.T.);
#238=ORIENTED_EDGE('',*,*,#175,.F.);
#239=ORIENTED_EDGE('',*,*,#167,.T.);
#240=ORIENTED_EDGE('',*,*,#173,.F.);
#241=ORIENTED_EDGE('',*,*,#177,.F.);
#242=ORIENTED_EDGE('',*,*,#179,.F.);
#243=ORIENTED_EDGE('',*,*,#181,.F.);
#244=ORIENTED_EDGE('',*,*,#183,.T.);
#245=ORIENTED_EDGE('',*,*,#184,.T.);
#246=ORIENTED_EDGE('',*,*,#185,.T.);
#247=ORIENTED_EDGE('',*,*,#183,.F.);
#248=ORIENTED_EDGE('',*,*,#186,.T.);
#249=ORIENTED_EDGE('',*,*,#169,.F.);
#250=ORIENTED_EDGE('',*,*,#186,.F.);
#251=ORIENTED_EDGE('',*,*,#184,.F.);
#252=ORIENTED_EDGE('',*,*,#187,.T.);
#253=ORIENTED_EDGE('',*,*,#170,.F.);
#254=ORIENTED_EDGE('',*,*,#187,.F.);
#255=ORIENTED_EDGE('',*,*,#185,.F.);
#256=ORIENTED_EDGE('',*,*,#188,.T.);
#257=ORIENTED_EDGE('',*,*,#171,.F.);
#258=ORIENTED_EDGE('',*,*,#188,.F.);
#259=ORIENTED_EDGE('',*,*,#161,.F.);
#260=ORIENTED_EDGE('',*,*,#166,.F.);
#261=ORIENTED_EDGE('',*,*,#180,.F.);
#262=ORIENTED_EDGE('',*,*,#182,.F.);
#263=PLANE('',#308);
#264=PLANE('',#312);
#265=PLANE('',#318);
#266=PLANE('',#319);
#267=PLANE('',#323);
#268=PLANE('',#327);
#269=PLANE('',#331);
#270=PLANE('',#338);
#271=ADVANCED_FACE('',(#44),#263,.T.);
#272=ADVANCED_FACE('',(#45),#40,.T.);
#273=ADVANCED_FACE('',(#46),#264,.T.);
#274=ADVANCED_FACE('',(#47),#41,.T.);
#275=ADVANCED_FACE('',(#48),#21,.T.);
#276=ADVANCED_FACE('',(#49),#265,.T.);
#277=ADVANCED_FACE('',(#50,#15,#16,#17),#266,.T.);
#278=ADVANCED_FACE('',(#51),#267,.T.);
#279=ADVANCED_FACE('',(#52),#42,.T.);
#280=ADVANCED_FACE('',(#53),#268,.T.);
#281=ADVANCED_FACE('',(#54),#43,.T.);
#282=ADVANCED_FACE('',(#55),#22,.T.);
#283=ADVANCED_FACE('',(#56,#18,#19,#20),#269,.T.);
#284=ADVANCED_FACE('',(#57),#23,.F.);
#285=ADVANCED_FACE('',(#58),#24,.F.);
#286=ADVANCED_FACE('',(#59),#25,.F.);
#287=ADVANCED_FACE('',(#60),#270,.T.);
#288=CLOSED_SHELL('',(#271,#272,#273,#274,#275,#276,#277,#278,#279,#280,
#281,#282,#283,#284,#285,#286,#287));
#289=DERIVED_UNIT_ELEMENT(#291,1.);
#290=DERIVED_UNIT_ELEMENT(#508,3.);
#291=(
MASS_UNIT()
NAMED_UNIT(*)
SI_UNIT($,.GRAM.)
);
#292=DERIVED_UNIT((#289,#290));
#293=MEASURE_REPRESENTATION_ITEM('density measure',
POSITIVE_RATIO_MEASURE(8.47),#292);
#294=PROPERTY_DEFINITION_REPRESENTATION(#299,#296);
#295=PROPERTY_DEFINITION_REPRESENTATION(#300,#297);
#296=REPRESENTATION('material name',(#298),#505);
#297=REPRESENTATION('density',(#293),#505);
#298=DESCRIPTIVE_REPRESENTATION_ITEM('Brass, Soft Yellow',
'Brass, Soft Yellow');
#299=PROPERTY_DEFINITION('material property','material name',#515);
#300=PROPERTY_DEFINITION('material property','density of part',#515);
#301=DATE_TIME_ROLE('creation_date');
#302=APPLIED_DATE_AND_TIME_ASSIGNMENT(#303,#301,(#515));
#303=DATE_AND_TIME(#304,#305);
#304=CALENDAR_DATE(2025,16,9);
#305=LOCAL_TIME(0,0,0.,#306);
#306=COORDINATED_UNIVERSAL_TIME_OFFSET(0,0,.BEHIND.);
#307=AXIS2_PLACEMENT_3D('placement',#426,#339,#340);
#308=AXIS2_PLACEMENT_3D('',#427,#341,#342);
#309=AXIS2_PLACEMENT_3D('',#436,#347,#348);
#310=AXIS2_PLACEMENT_3D('',#438,#349,#350);
#311=AXIS2_PLACEMENT_3D('',#441,#352,#353);
#312=AXIS2_PLACEMENT_3D('',#442,#354,#355);
#313=AXIS2_PLACEMENT_3D('',#448,#359,#360);
#314=AXIS2_PLACEMENT_3D('',#449,#361,#362);
#315=AXIS2_PLACEMENT_3D('',#450,#363,#364);
#316=AXIS2_PLACEMENT_3D('',#451,#365,#366);
#317=AXIS2_PLACEMENT_3D('',#455,#368,#369);
#318=AXIS2_PLACEMENT_3D('',#457,#371,#372);
#319=AXIS2_PLACEMENT_3D('',#461,#375,#376);
#320=AXIS2_PLACEMENT_3D('',#463,#377,#378);
#321=AXIS2_PLACEMENT_3D('',#465,#379,#380);
#322=AXIS2_PLACEMENT_3D('',#467,#381,#382);
#323=AXIS2_PLACEMENT_3D('',#468,#383,#384);
#324=AXIS2_PLACEMENT_3D('',#474,#388,#389);
#325=AXIS2_PLACEMENT_3D('',#476,#390,#391);
#326=AXIS2_PLACEMENT_3D('',#479,#393,#394);
#327=AXIS2_PLACEMENT_3D('',#480,#395,#396);
#328=AXIS2_PLACEMENT_3D('',#485,#400,#401);
#329=AXIS2_PLACEMENT_3D('',#486,#402,#403);
#330=AXIS2_PLACEMENT_3D('',#487,#404,#405);
#331=AXIS2_PLACEMENT_3D('',#489,#407,#408);
#332=AXIS2_PLACEMENT_3D('',#491,#409,#410);
#333=AXIS2_PLACEMENT_3D('',#493,#411,#412);
#334=AXIS2_PLACEMENT_3D('',#495,#413,#414);
#335=AXIS2_PLACEMENT_3D('',#496,#415,#416);
#336=AXIS2_PLACEMENT_3D('',#498,#418,#419);
#337=AXIS2_PLACEMENT_3D('',#500,#421,#422);
#338=AXIS2_PLACEMENT_3D('',#502,#424,#425);
#339=DIRECTION('axis',(0.,0.,1.));
#340=DIRECTION('refdir',(1.,0.,0.));
#341=DIRECTION('center_axis',(0.,-0.707106781186548,0.707106781186547));
#342=DIRECTION('ref_axis',(1.,0.,0.));
#343=DIRECTION('',(0.,-0.707106781186547,-0.707106781186548));
#344=DIRECTION('',(1.,0.,0.));
#345=DIRECTION('',(0.,0.707106781186547,0.707106781186548));
#346=DIRECTION('',(-1.,0.,0.));
#347=DIRECTION('center_axis',(0.,1.,0.));
#348=DIRECTION('ref_axis',(-0.707106781186547,0.,0.707106781186547));
#349=DIRECTION('center_axis',(0.,-1.,0.));
#350=DIRECTION('ref_axis',(-0.707106781186547,0.,0.707106781186547));
#351=DIRECTION('',(0.,-0.707106781186546,0.707106781186549));
#352=DIRECTION('center_axis',(0.,1.,0.));
#353=DIRECTION('ref_axis',(-0.707106781186547,0.,0.707106781186547));
#354=DIRECTION('center_axis',(9.09000897132712E-17,-0.707106781186548,-0.707106781186547));
#355=DIRECTION('ref_axis',(-1.,0.,-1.28552139693439E-16));
#356=DIRECTION('',(0.,-0.707106781186548,0.707106781186547));
#357=DIRECTION('',(-1.,0.,-1.28552139693439E-16));
#358=DIRECTION('',(1.,0.,1.28552139693439E-16));
#359=DIRECTION('center_axis',(0.,1.,0.));
#360=DIRECTION('ref_axis',(0.707106781186547,0.,0.707106781186547));
#361=DIRECTION('center_axis',(0.,-1.,0.));
#362=DIRECTION('ref_axis',(0.707106781186547,0.,0.707106781186547));
#363=DIRECTION('center_axis',(0.,1.,0.));
#364=DIRECTION('ref_axis',(0.707106781186547,0.,0.707106781186547));
#365=DIRECTION('center_axis',(0.,1.,0.));
#366=DIRECTION('ref_axis',(-0.707106781186547,0.,0.707106781186547));
#367=DIRECTION('',(0.,1.,0.));
#368=DIRECTION('center_axis',(0.,1.,0.));
#369=DIRECTION('ref_axis',(-0.707106781186547,0.,0.707106781186547));
#370=DIRECTION('',(0.,-1.,0.));
#371=DIRECTION('center_axis',(0.,0.,1.));
#372=DIRECTION('ref_axis',(1.,0.,0.));
#373=DIRECTION('',(0.,-1.,0.));
#374=DIRECTION('',(1.,0.,0.));
#375=DIRECTION('center_axis',(0.,-1.,0.));
#376=DIRECTION('ref_axis',(0.,0.,-1.));
#377=DIRECTION('center_axis',(0.,1.,0.));
#378=DIRECTION('ref_axis',(1.,0.,0.));
#379=DIRECTION('center_axis',(0.,1.,0.));
#380=DIRECTION('ref_axis',(1.,0.,0.));
#381=DIRECTION('center_axis',(0.,1.,0.));
#382=DIRECTION('ref_axis',(1.,0.,0.));
#383=DIRECTION('center_axis',(0.,0.707106781186548,0.707106781186547));
#384=DIRECTION('ref_axis',(1.,0.,0.));
#385=DIRECTION('',(0.,0.707106781186547,-0.707106781186548));
#386=DIRECTION('',(-1.,0.,0.));
#387=DIRECTION('',(0.,-0.707106781186547,0.707106781186548));
#388=DIRECTION('center_axis',(0.,-1.,0.));
#389=DIRECTION('ref_axis',(0.707106781186547,0.,0.707106781186547));
#390=DIRECTION('center_axis',(0.,1.,0.));
#391=DIRECTION('ref_axis',(0.707106781186547,0.,0.707106781186547));
#392=DIRECTION('',(0.,0.70710678118656,0.707106781186534));
#393=DIRECTION('center_axis',(0.,-1.,0.));
#394=DIRECTION('ref_axis',(0.707106781186547,0.,0.707106781186547));
#395=DIRECTION('center_axis',(9.09000897132712E-17,0.707106781186548,-0.707106781186547));
#396=DIRECTION('ref_axis',(-1.,0.,-1.28552139693439E-16));
#397=DIRECTION('',(0.,0.707106781186548,0.707106781186547));
#398=DIRECTION('',(1.,0.,1.28552139693439E-16));
#399=DIRECTION('',(-1.,0.,-1.28552139693439E-16));
#400=DIRECTION('center_axis',(0.,-1.,0.));
#401=DIRECTION('ref_axis',(-0.707106781186547,0.,0.707106781186547));
#402=DIRECTION('center_axis',(0.,-1.,0.));
#403=DIRECTION('ref_axis',(-0.707106781186547,0.,0.707106781186547));
#404=DIRECTION('center_axis',(0.,1.,0.));
#405=DIRECTION('ref_axis',(0.707106781186547,0.,0.707106781186547));
#406=DIRECTION('',(0.,1.,0.));
#407=DIRECTION('center_axis',(0.,1.,0.));
#408=DIRECTION('ref_axis',(0.,0.,1.));
#409=DIRECTION('center_axis',(0.,-1.,0.));
#410=DIRECTION('ref_axis',(1.,0.,0.));
#411=DIRECTION('center_axis',(0.,-1.,0.));
#412=DIRECTION('ref_axis',(1.,0.,0.));
#413=DIRECTION('center_axis',(0.,-1.,0.));
#414=DIRECTION('ref_axis',(1.,0.,0.));
#415=DIRECTION('center_axis',(0.,1.,0.));
#416=DIRECTION('ref_axis',(1.,0.,0.));
#417=DIRECTION('',(0.,-1.,0.));
#418=DIRECTION('center_axis',(0.,1.,0.));
#419=DIRECTION('ref_axis',(1.,0.,0.));
#420=DIRECTION('',(0.,-1.,0.));
#421=DIRECTION('center_axis',(0.,-1.,0.));
#422=DIRECTION('ref_axis',(1.,0.,0.));
#423=DIRECTION('',(0.,-1.,0.));
#424=DIRECTION('center_axis',(1.28552139693439E-16,0.,-1.));
#425=DIRECTION('ref_axis',(-1.,0.,-1.28552139693439E-16));
#426=CARTESIAN_POINT('',(0.,0.,0.));
#427=CARTESIAN_POINT('Origin',(-47.5000000000001,-4.75,9.74999999999999));
#428=CARTESIAN_POINT('',(-85.0000000000001,-4.5,9.99999999999999));
#429=CARTESIAN_POINT('',(-85.0000000000001,-5.,9.49999999999999));
#430=CARTESIAN_POINT('',(-85.0000000000001,-4.5,9.99999999999999));
#431=CARTESIAN_POINT('',(84.9999999999999,-5.,9.49999999999999));
#432=CARTESIAN_POINT('',(-47.5000000000001,-5.,9.49999999999999));
#433=CARTESIAN_POINT('',(84.9999999999999,-4.5,9.99999999999999));
#434=CARTESIAN_POINT('',(84.9999999999999,-5.,9.49999999999999));
#435=CARTESIAN_POINT('',(-47.5000000000001,-4.5,9.99999999999999));
#436=CARTESIAN_POINT('Origin',(-85.0000000000001,-4.75,-6.66133814775094E-15));
#437=CARTESIAN_POINT('',(-85.0000000000001,-4.5,-10.));
#438=CARTESIAN_POINT('Origin',(-85.0000000000001,-4.5,-6.66133814775094E-15));
#439=CARTESIAN_POINT('',(-85.0000000000001,-5.,-9.5));
#440=CARTESIAN_POINT('',(-85.0000000000001,-4.5,-10.));
#441=CARTESIAN_POINT('Origin',(-85.0000000000001,-5.,-6.66133814775094E-15));
#442=CARTESIAN_POINT('Origin',(47.4999999999999,-4.75,-9.74999999999999));
#443=CARTESIAN_POINT('',(84.9999999999999,-4.5,-9.99999999999998));
#444=CARTESIAN_POINT('',(84.9999999999999,-5.,-9.49999999999998));
#445=CARTESIAN_POINT('',(84.9999999999999,-4.5,-9.99999999999998));
#446=CARTESIAN_POINT('',(47.4999999999999,-5.,-9.49999999999999));
#447=CARTESIAN_POINT('',(47.4999999999999,-4.5,-9.99999999999999));
#448=CARTESIAN_POINT('Origin',(84.9999999999999,-4.75,-6.66133814775094E-15));
#449=CARTESIAN_POINT('Origin',(84.9999999999999,-4.5,-6.66133814775094E-15));
#450=CARTESIAN_POINT('Origin',(84.9999999999999,-5.,-6.66133814775094E-15));
#451=CARTESIAN_POINT('Origin',(-85.0000000000001,0.,-6.66133814775094E-15));
#452=CARTESIAN_POINT('',(-85.0000000000001,4.5,9.99999999999999));
#453=CARTESIAN_POINT('',(-85.0000000000001,0.,9.99999999999999));
#454=CARTESIAN_POINT('',(-85.0000000000001,4.5,-10.));
#455=CARTESIAN_POINT('Origin',(-85.0000000000001,4.5,-6.66133814775094E-15));
#456=CARTESIAN_POINT('',(-85.0000000000001,0.,-10.));
#457=CARTESIAN_POINT('Origin',(-95.0000000000001,0.,9.99999999999999));
#458=CARTESIAN_POINT('',(84.9999999999999,4.5,9.99999999999999));
#459=CARTESIAN_POINT('',(84.9999999999999,0.,9.99999999999999));
#460=CARTESIAN_POINT('',(-47.5000000000001,4.5,9.99999999999999));
#461=CARTESIAN_POINT('Origin',(-5.32907051820075E-14,-5.,-5.55111512312578E-15));
#462=CARTESIAN_POINT('',(-86.5,-5.,1.83697019872103E-16));
#463=CARTESIAN_POINT('Origin',(-85.,-5.,0.));
#464=CARTESIAN_POINT('',(83.5,-5.,1.83697019872103E-16));
#465=CARTESIAN_POINT('Origin',(85.,-5.,0.));
#466=CARTESIAN_POINT('',(-3.5,-5.,4.28626379701574E-16));
#467=CARTESIAN_POINT('Origin',(0.,-5.,0.));
#468=CARTESIAN_POINT('Origin',(-47.5000000000001,4.75,9.74999999999999));
#469=CARTESIAN_POINT('',(84.9999999999999,5.,9.49999999999999));
#470=CARTESIAN_POINT('',(84.9999999999999,4.5,9.99999999999999));
#471=CARTESIAN_POINT('',(-85.0000000000001,5.,9.49999999999999));
#472=CARTESIAN_POINT('',(-47.5000000000001,5.,9.49999999999999));
#473=CARTESIAN_POINT('',(-85.0000000000001,5.,9.49999999999999));
#474=CARTESIAN_POINT('Origin',(84.9999999999999,4.75,-6.66133814775094E-15));
#475=CARTESIAN_POINT('',(84.9999999999999,4.5,-9.99999999999998));
#476=CARTESIAN_POINT('Origin',(84.9999999999999,4.5,-6.66133814775094E-15));
#477=CARTESIAN_POINT('',(84.9999999999999,5.,-9.5));
#478=CARTESIAN_POINT('',(84.9999999999999,4.5,-9.99999999999998));
#479=CARTESIAN_POINT('Origin',(84.9999999999999,5.,-6.66133814775094E-15));
#480=CARTESIAN_POINT('Origin',(47.4999999999999,4.75,-9.74999999999999));
#481=CARTESIAN_POINT('',(-85.0000000000001,5.,-9.5));
#482=CARTESIAN_POINT('',(-85.0000000000001,4.5,-10.));
#483=CARTESIAN_POINT('',(47.4999999999999,5.,-9.49999999999999));
#484=CARTESIAN_POINT('',(47.4999999999999,4.5,-9.99999999999999));
#485=CARTESIAN_POINT('Origin',(-85.0000000000001,4.75,-6.66133814775094E-15));
#486=CARTESIAN_POINT('Origin',(-85.0000000000001,5.,-6.66133814775094E-15));
#487=CARTESIAN_POINT('Origin',(84.9999999999999,0.,-6.66133814775094E-15));
#488=CARTESIAN_POINT('',(84.9999999999999,0.,-9.99999999999998));
#489=CARTESIAN_POINT('Origin',(-5.32907051820075E-14,5.,-5.55111512312578E-15));
#490=CARTESIAN_POINT('',(-86.5,5.,1.83697019872103E-16));
#491=CARTESIAN_POINT('Origin',(-85.,5.,0.));
#492=CARTESIAN_POINT('',(83.5,5.,1.83697019872103E-16));
#493=CARTESIAN_POINT('Origin',(85.,5.,0.));
#494=CARTESIAN_POINT('',(-3.5,5.,-4.28626379701574E-16));
#495=CARTESIAN_POINT('Origin',(0.,5.,0.));
#496=CARTESIAN_POINT('Origin',(-85.,-186.31126469709,0.));
#497=CARTESIAN_POINT('',(-86.5,-186.31126469709,1.83697019872103E-16));
#498=CARTESIAN_POINT('Origin',(85.,-186.31126469709,0.));
#499=CARTESIAN_POINT('',(83.5,-186.31126469709,1.83697019872103E-16));
#500=CARTESIAN_POINT('Origin',(0.,5.,0.));
#501=CARTESIAN_POINT('',(-3.5,5.,-4.28626379701574E-16));
#502=CARTESIAN_POINT('Origin',(94.9999999999999,0.,-9.99999999999998));
#503=UNCERTAINTY_MEASURE_WITH_UNIT(LENGTH_MEASURE(0.01),#507,
'DISTANCE_ACCURACY_VALUE',
'Maximum model space distance between geometric entities at asserted c
onnectivities');
#504=UNCERTAINTY_MEASURE_WITH_UNIT(LENGTH_MEASURE(0.01),#507,
'DISTANCE_ACCURACY_VALUE',
'Maximum model space distance between geometric entities at asserted c
onnectivities');
#505=(
GEOMETRIC_REPRESENTATION_CONTEXT(3)
GLOBAL_UNCERTAINTY_ASSIGNED_CONTEXT((#503))
GLOBAL_UNIT_ASSIGNED_CONTEXT((#507,#509,#510))
REPRESENTATION_CONTEXT('','3D')
);
#506=(
GEOMETRIC_REPRESENTATION_CONTEXT(3)
GLOBAL_UNCERTAINTY_ASSIGNED_CONTEXT((#504))
GLOBAL_UNIT_ASSIGNED_CONTEXT((#507,#509,#510))
REPRESENTATION_CONTEXT('','3D')
);
#507=(
LENGTH_UNIT()
NAMED_UNIT(*)
SI_UNIT(.MILLI.,.METRE.)
);
#508=(
LENGTH_UNIT()
NAMED_UNIT(*)
SI_UNIT(.CENTI.,.METRE.)
);
#509=(
NAMED_UNIT(*)
PLANE_ANGLE_UNIT()
SI_UNIT($,.RADIAN.)
);
#510=(
NAMED_UNIT(*)
SI_UNIT($,.STERADIAN.)
SOLID_ANGLE_UNIT()
);
#511=SHAPE_DEFINITION_REPRESENTATION(#512,#513);
#512=PRODUCT_DEFINITION_SHAPE('',$,#515);
#513=SHAPE_REPRESENTATION('',(#307),#505);
#514=PRODUCT_DEFINITION_CONTEXT('part definition',#519,'design');
#515=PRODUCT_DEFINITION('Lower Arm Brass Plate - 2',
'Lower Arm Brass Plate - 2',#516,#514);
#516=PRODUCT_DEFINITION_FORMATION('',$,#521);
#517=PRODUCT_RELATED_PRODUCT_CATEGORY('Lower Arm Brass Plate - 2',
'Lower Arm Brass Plate - 2',(#521));
#518=APPLICATION_PROTOCOL_DEFINITION('international standard',
'automotive_design',2009,#519);
#519=APPLICATION_CONTEXT(
'Core Data for Automotive Mechanical Design Process');
#520=PRODUCT_CONTEXT('part definition',#519,'mechanical');
#521=PRODUCT('Lower Arm Brass Plate - 2','Lower Arm Brass Plate - 2',$,
(#520));
#522=PRESENTATION_STYLE_ASSIGNMENT((#523));
#523=SURFACE_STYLE_USAGE(.BOTH.,#526);
#524=SURFACE_STYLE_RENDERING_WITH_PROPERTIES($,#530,(#525));
#525=SURFACE_STYLE_TRANSPARENT(0.);
#526=SURFACE_SIDE_STYLE('',(#527,#524));
#527=SURFACE_STYLE_FILL_AREA(#528);
#528=FILL_AREA_STYLE('',(#529));
#529=FILL_AREA_STYLE_COLOUR('',#530);
#530=COLOUR_RGB('',0.796078431372549,0.603921568627451,0.231372549019608);
ENDSEC;
END-ISO-10303-21;
