ISO-10303-21;
HEADER;
/* Generated by software containing ST-Developer
 * from STEP Tools, Inc. (www.steptools.com) 
 */

FILE_DESCRIPTION(
/* description */ (''),
/* implementation_level */ '2;1');

FILE_NAME(
/* name */ 
'S:\\Future Scope 1\\WIP\\Client Category\\Tom\\02 Progressive Work\\L
ower Lock Cap.stp',
/* time_stamp */ '2025-11-05T12:14:35+06:00',
/* author */ ('SD'),
/* organization */ (''),
/* preprocessor_version */ 'ST-DEVELOPER v18.1',
/* originating_system */ 'Autodesk Inventor 2021',
/* authorisation */ '');

FILE_SCHEMA (('AUTOMOTIVE_DESIGN { 1 0 10303 214 3 1 1 }'));
ENDSEC;

DATA;
#10=MECHANICAL_DESIGN_GEOMETRIC_PRESENTATION_REPRESENTATION('',(#13),#393);
#11=SHAPE_REPRESENTATION_RELATIONSHIP('SRR','None',#400,#12);
#12=ADVANCED_BREP_SHAPE_REPRESENTATION('',(#14),#392);
#13=STYLED_ITEM('',(#409),#14);
#14=MANIFOLD_SOLID_BREP('Solid1',#146);
#15=TOROIDAL_SURFACE('',#173,3.,2.);
#16=FACE_BOUND('',#36,.T.);
#17=FACE_BOUND('',#38,.T.);
#18=FACE_BOUND('',#40,.T.);
#19=FACE_BOUND('',#42,.T.);
#20=FACE_BOUND('',#44,.T.);
#21=PLANE('',#168);
#22=PLANE('',#180);
#23=PLANE('',#181);
#24=FACE_OUTER_BOUND('',#32,.T.);
#25=FACE_OUTER_BOUND('',#33,.T.);
#26=FACE_OUTER_BOUND('',#34,.T.);
#27=FACE_OUTER_BOUND('',#35,.T.);
#28=FACE_OUTER_BOUND('',#37,.T.);
#29=FACE_OUTER_BOUND('',#39,.T.);
#30=FACE_OUTER_BOUND('',#41,.T.);
#31=FACE_OUTER_BOUND('',#43,.T.);
#32=EDGE_LOOP('',(#98,#99,#100,#101,#102));
#33=EDGE_LOOP('',(#103));
#34=EDGE_LOOP('',(#104,#105,#106,#107,#108,#109));
#35=EDGE_LOOP('',(#110,#111,#112,#113));
#36=EDGE_LOOP('',(#114,#115));
#37=EDGE_LOOP('',(#116,#117,#118,#119,#120));
#38=EDGE_LOOP('',(#121,#122));
#39=EDGE_LOOP('',(#123,#124,#125,#126,#127));
#40=EDGE_LOOP('',(#128,#129));
#41=EDGE_LOOP('',(#130));
#42=EDGE_LOOP('',(#131));
#43=EDGE_LOOP('',(#132));
#44=EDGE_LOOP('',(#133));
#45=CIRCLE('',#167,0.25);
#46=CIRCLE('',#171,1.5);
#47=CIRCLE('',#172,1.5);
#48=CIRCLE('',#174,3.);
#49=CIRCLE('',#175,2.);
#50=CIRCLE('',#176,5.);
#51=CIRCLE('',#177,5.);
#52=CIRCLE('',#179,5.);
#53=LINE('',#281,#57);
#54=LINE('',#332,#58);
#55=LINE('',#374,#59);
#56=LINE('',#386,#60);
#57=VECTOR('',#186,0.25);
#58=VECTOR('',#193,1.25);
#59=VECTOR('',#198,1.5);
#60=VECTOR('',#213,5.);
#61=B_SPLINE_CURVE_WITH_KNOTS('',3,(#224,#225,#226,#227,#228,#229,#230,
#231,#232,#233,#234,#235,#236,#237,#238,#239,#240,#241,#242,#243,#244,#245,
#246,#247,#248,#249,#250,#251),.UNSPECIFIED.,.F.,.F.,(4,2,2,2,2,2,2,2,2,
2,2,2,2,4),(-0.160089878567193,-0.154090403566522,-0.147757042304689,-0.138749416100509,
-0.128053774618443,-0.122451061108331,-0.119755879582794,-0.11784560364559,
-0.115932001280097,-0.113218931773947,-0.10715186540191,-0.0981971431118518,
-0.0885606991244983,-0.080053559039237),.UNSPECIFIED.);
#62=B_SPLINE_CURVE_WITH_KNOTS('',3,(#252,#253,#254,#255,#256,#257,#258,
#259,#260,#261,#262,#263,#264,#265,#266,#267,#268,#269,#270,#271,#272,#273,
#274,#275,#276,#277,#278,#279),.UNSPECIFIED.,.F.,.F.,(4,2,2,2,2,2,2,2,2,
2,2,2,2,4),(-0.080053559039237,-0.0787038466113815,-0.0696613314144325,
-0.0612958878879792,-0.0512273619862473,-0.0461898433983806,-0.0437508764605332,
-0.0418891030516896,-0.0398984807542543,-0.0368424920478777,-0.0291413258267027,
-0.0192534910643575,-0.00934384535524075,0.),.UNSPECIFIED.);
#63=B_SPLINE_CURVE_WITH_KNOTS('',3,(#287,#288,#289,#290,#291,#292,#293,
#294,#295,#296,#297,#298,#299,#300,#301,#302,#303,#304,#305,#306,#307,#308),
 .UNSPECIFIED.,.F.,.F.,(4,2,2,2,2,2,2,2,2,2,4),(0.,0.0260316620405193,0.0520633240810386,
0.104126648162077,0.154074201344287,0.204021754526498,0.253969307708708,
0.303916860890918,0.355980184971957,0.382011847012476,0.408043509052995),
 .UNSPECIFIED.);
#64=B_SPLINE_CURVE_WITH_KNOTS('',3,(#309,#310,#311,#312,#313,#314,#315,
#316,#317,#318,#319,#320,#321,#322,#323,#324,#325,#326,#327,#328,#329,#330),
 .UNSPECIFIED.,.F.,.F.,(4,2,2,2,2,2,2,2,2,2,4),(0.408043509052995,0.434075171093514,
0.460106833134034,0.512170157215072,0.562117710397283,0.612065263579493,
0.662012816761703,0.711960369943913,0.764023694024952,0.790055356065471,
0.81608701810599),.UNSPECIFIED.);
#65=B_SPLINE_CURVE_WITH_KNOTS('',3,(#334,#335,#336,#337,#338,#339,#340,
#341,#342,#343,#344,#345,#346,#347,#348,#349,#350,#351),.UNSPECIFIED.,.F.,
 .F.,(4,2,2,2,2,2,2,2,4),(0.,0.0473060290043967,0.0946120580087934,0.141911472787507,
0.189210887566221,0.236510302344935,0.283809717123649,0.331115746128045,
0.378421775132442),.UNSPECIFIED.);
#66=B_SPLINE_CURVE_WITH_KNOTS('',3,(#352,#353,#354,#355,#356,#357,#358,
#359,#360,#361,#362,#363,#364,#365,#366,#367,#368,#369),.UNSPECIFIED.,.F.,
 .F.,(4,2,2,2,2,2,2,2,4),(0.378421775132442,0.425727804136839,0.473033833141235,
0.520333247919949,0.567632662698663,0.614932077477377,0.66223149225609,
0.709537521260487,0.756843550264884),.UNSPECIFIED.);
#67=VERTEX_POINT('',#222);
#68=VERTEX_POINT('',#223);
#69=VERTEX_POINT('',#280);
#70=VERTEX_POINT('',#285);
#71=VERTEX_POINT('',#286);
#72=VERTEX_POINT('',#331);
#73=VERTEX_POINT('',#333);
#74=VERTEX_POINT('',#371);
#75=VERTEX_POINT('',#373);
#76=VERTEX_POINT('',#377);
#77=VERTEX_POINT('',#379);
#78=VERTEX_POINT('',#381);
#79=VERTEX_POINT('',#385);
#80=EDGE_CURVE('',#67,#68,#61,.T.);
#81=EDGE_CURVE('',#68,#67,#62,.T.);
#82=EDGE_CURVE('',#68,#69,#53,.T.);
#83=EDGE_CURVE('',#69,#69,#45,.T.);
#84=EDGE_CURVE('',#70,#71,#63,.T.);
#85=EDGE_CURVE('',#71,#70,#64,.T.);
#86=EDGE_CURVE('',#71,#72,#54,.T.);
#87=EDGE_CURVE('',#73,#72,#65,.T.);
#88=EDGE_CURVE('',#72,#73,#66,.T.);
#89=EDGE_CURVE('',#74,#74,#46,.T.);
#90=EDGE_CURVE('',#74,#75,#55,.T.);
#91=EDGE_CURVE('',#75,#75,#47,.T.);
#92=EDGE_CURVE('',#76,#76,#48,.T.);
#93=EDGE_CURVE('',#76,#77,#49,.T.);
#94=EDGE_CURVE('',#77,#78,#50,.T.);
#95=EDGE_CURVE('',#78,#77,#51,.T.);
#96=EDGE_CURVE('',#78,#79,#56,.T.);
#97=EDGE_CURVE('',#79,#79,#52,.T.);
#98=ORIENTED_EDGE('',*,*,#80,.F.);
#99=ORIENTED_EDGE('',*,*,#81,.F.);
#100=ORIENTED_EDGE('',*,*,#82,.T.);
#101=ORIENTED_EDGE('',*,*,#83,.T.);
#102=ORIENTED_EDGE('',*,*,#82,.F.);
#103=ORIENTED_EDGE('',*,*,#83,.F.);
#104=ORIENTED_EDGE('',*,*,#84,.F.);
#105=ORIENTED_EDGE('',*,*,#85,.F.);
#106=ORIENTED_EDGE('',*,*,#86,.T.);
#107=ORIENTED_EDGE('',*,*,#87,.F.);
#108=ORIENTED_EDGE('',*,*,#88,.F.);
#109=ORIENTED_EDGE('',*,*,#86,.F.);
#110=ORIENTED_EDGE('',*,*,#89,.F.);
#111=ORIENTED_EDGE('',*,*,#90,.T.);
#112=ORIENTED_EDGE('',*,*,#91,.F.);
#113=ORIENTED_EDGE('',*,*,#90,.F.);
#114=ORIENTED_EDGE('',*,*,#84,.T.);
#115=ORIENTED_EDGE('',*,*,#85,.T.);
#116=ORIENTED_EDGE('',*,*,#92,.T.);
#117=ORIENTED_EDGE('',*,*,#93,.T.);
#118=ORIENTED_EDGE('',*,*,#94,.T.);
#119=ORIENTED_EDGE('',*,*,#95,.T.);
#120=ORIENTED_EDGE('',*,*,#93,.F.);
#121=ORIENTED_EDGE('',*,*,#80,.T.);
#122=ORIENTED_EDGE('',*,*,#81,.T.);
#123=ORIENTED_EDGE('',*,*,#94,.F.);
#124=ORIENTED_EDGE('',*,*,#95,.F.);
#125=ORIENTED_EDGE('',*,*,#96,.T.);
#126=ORIENTED_EDGE('',*,*,#97,.F.);
#127=ORIENTED_EDGE('',*,*,#96,.F.);
#128=ORIENTED_EDGE('',*,*,#87,.T.);
#129=ORIENTED_EDGE('',*,*,#88,.T.);
#130=ORIENTED_EDGE('',*,*,#92,.F.);
#131=ORIENTED_EDGE('',*,*,#91,.T.);
#132=ORIENTED_EDGE('',*,*,#97,.T.);
#133=ORIENTED_EDGE('',*,*,#89,.T.);
#134=CYLINDRICAL_SURFACE('',#166,0.25);
#135=CYLINDRICAL_SURFACE('',#169,1.25);
#136=CYLINDRICAL_SURFACE('',#170,1.5);
#137=CYLINDRICAL_SURFACE('',#178,5.);
#138=ADVANCED_FACE('',(#24),#134,.F.);
#139=ADVANCED_FACE('',(#25),#21,.T.);
#140=ADVANCED_FACE('',(#26),#135,.F.);
#141=ADVANCED_FACE('',(#27,#16),#136,.F.);
#142=ADVANCED_FACE('',(#28,#17),#15,.T.);
#143=ADVANCED_FACE('',(#29,#18),#137,.T.);
#144=ADVANCED_FACE('',(#30,#19),#22,.T.);
#145=ADVANCED_FACE('',(#31,#20),#23,.F.);
#146=CLOSED_SHELL('',(#138,#139,#140,#141,#142,#143,#144,#145));
#147=DERIVED_UNIT_ELEMENT(#149,1.);
#148=DERIVED_UNIT_ELEMENT(#395,3.);
#149=(
MASS_UNIT()
NAMED_UNIT(*)
SI_UNIT($,.GRAM.)
);
#150=DERIVED_UNIT((#147,#148));
#151=MEASURE_REPRESENTATION_ITEM('density measure',
POSITIVE_RATIO_MEASURE(7.85),#150);
#152=PROPERTY_DEFINITION_REPRESENTATION(#157,#154);
#153=PROPERTY_DEFINITION_REPRESENTATION(#158,#155);
#154=REPRESENTATION('material name',(#156),#392);
#155=REPRESENTATION('density',(#151),#392);
#156=DESCRIPTIVE_REPRESENTATION_ITEM('Mild Steel S355 J2',
'Mild Steel S355 J2');
#157=PROPERTY_DEFINITION('material property','material name',#402);
#158=PROPERTY_DEFINITION('material property','density of part',#402);
#159=DATE_TIME_ROLE('creation_date');
#160=APPLIED_DATE_AND_TIME_ASSIGNMENT(#161,#159,(#402));
#161=DATE_AND_TIME(#162,#163);
#162=CALENDAR_DATE(2025,16,9);
#163=LOCAL_TIME(0,0,0.,#164);
#164=COORDINATED_UNIVERSAL_TIME_OFFSET(0,0,.BEHIND.);
#165=AXIS2_PLACEMENT_3D('placement',#220,#182,#183);
#166=AXIS2_PLACEMENT_3D('',#221,#184,#185);
#167=AXIS2_PLACEMENT_3D('',#282,#187,#188);
#168=AXIS2_PLACEMENT_3D('',#283,#189,#190);
#169=AXIS2_PLACEMENT_3D('',#284,#191,#192);
#170=AXIS2_PLACEMENT_3D('',#370,#194,#195);
#171=AXIS2_PLACEMENT_3D('',#372,#196,#197);
#172=AXIS2_PLACEMENT_3D('',#375,#199,#200);
#173=AXIS2_PLACEMENT_3D('',#376,#201,#202);
#174=AXIS2_PLACEMENT_3D('',#378,#203,#204);
#175=AXIS2_PLACEMENT_3D('',#380,#205,#206);
#176=AXIS2_PLACEMENT_3D('',#382,#207,#208);
#177=AXIS2_PLACEMENT_3D('',#383,#209,#210);
#178=AXIS2_PLACEMENT_3D('',#384,#211,#212);
#179=AXIS2_PLACEMENT_3D('',#387,#214,#215);
#180=AXIS2_PLACEMENT_3D('',#388,#216,#217);
#181=AXIS2_PLACEMENT_3D('',#389,#218,#219);
#182=DIRECTION('axis',(0.,0.,1.));
#183=DIRECTION('refdir',(1.,0.,0.));
#184=DIRECTION('center_axis',(0.,-1.,0.));
#185=DIRECTION('ref_axis',(1.,0.,0.));
#186=DIRECTION('',(0.,-1.,0.));
#187=DIRECTION('center_axis',(0.,-1.,0.));
#188=DIRECTION('ref_axis',(1.,0.,0.));
#189=DIRECTION('center_axis',(0.,1.,0.));
#190=DIRECTION('ref_axis',(0.,0.,1.));
#191=DIRECTION('center_axis',(0.,0.,1.));
#192=DIRECTION('ref_axis',(1.,0.,0.));
#193=DIRECTION('',(0.,0.,1.));
#194=DIRECTION('center_axis',(0.,1.,0.));
#195=DIRECTION('ref_axis',(1.,0.,0.));
#196=DIRECTION('center_axis',(0.,1.,0.));
#197=DIRECTION('ref_axis',(1.,0.,0.));
#198=DIRECTION('',(0.,1.,0.));
#199=DIRECTION('center_axis',(0.,-1.,0.));
#200=DIRECTION('ref_axis',(1.,0.,0.));
#201=DIRECTION('center_axis',(0.,1.,0.));
#202=DIRECTION('ref_axis',(0.,0.,1.));
#203=DIRECTION('center_axis',(0.,-1.,0.));
#204=DIRECTION('ref_axis',(1.,0.,1.22464679914735E-16));
#205=DIRECTION('center_axis',(-1.,0.,1.22464679914735E-16));
#206=DIRECTION('ref_axis',(-1.22464679914735E-16,0.,-1.));
#207=DIRECTION('center_axis',(0.,1.,0.));
#208=DIRECTION('ref_axis',(1.,0.,1.22464679914735E-16));
#209=DIRECTION('center_axis',(0.,1.,0.));
#210=DIRECTION('ref_axis',(1.,0.,1.22464679914735E-16));
#211=DIRECTION('center_axis',(0.,1.,0.));
#212=DIRECTION('ref_axis',(-1.,0.,0.));
#213=DIRECTION('',(0.,-1.,0.));
#214=DIRECTION('center_axis',(0.,-1.,0.));
#215=DIRECTION('ref_axis',(-1.,0.,0.));
#216=DIRECTION('center_axis',(0.,1.,0.));
#217=DIRECTION('ref_axis',(0.,0.,1.));
#218=DIRECTION('center_axis',(0.,1.,0.));
#219=DIRECTION('ref_axis',(0.,0.,1.));
#220=CARTESIAN_POINT('',(0.,0.,0.));
#221=CARTESIAN_POINT('Origin',(3.5,8.5,0.));
#222=CARTESIAN_POINT('',(3.75,3.35404962177392,2.29621274840129E-16));
#223=CARTESIAN_POINT('',(3.25,3.48431348329844,-1.67334152349851E-17));
#224=CARTESIAN_POINT('Ctrl Pts',(3.75,3.35404962177392,2.29621274840129E-16));
#225=CARTESIAN_POINT('Ctrl Pts',(3.75,3.35404962177392,0.0199982500022348));
#226=CARTESIAN_POINT('Ctrl Pts',(3.74760176989872,3.35495881922623,0.0398773248958489));
#227=CARTESIAN_POINT('Ctrl Pts',(3.73789969587914,3.35859058769621,0.0796616052335197));
#228=CARTESIAN_POINT('Ctrl Pts',(3.73038850889957,3.36138862427838,0.099268521409736));
#229=CARTESIAN_POINT('Ctrl Pts',(3.70666927081766,3.37002799031201,0.143749415669588));
#230=CARTESIAN_POINT('Ctrl Pts',(3.68833674962846,3.37657662800471,0.166965698550572));
#231=CARTESIAN_POINT('Ctrl Pts',(3.64084153769698,3.39271184963723,0.209426975470095));
#232=CARTESIAN_POINT('Ctrl Pts',(3.61065762264671,3.40249667762593,0.22679068434141));
#233=CARTESIAN_POINT('Ctrl Pts',(3.56094612717961,3.41736324098249,0.243123673235336));
#234=CARTESIAN_POINT('Ctrl Pts',(3.54327648240004,3.42244225037002,0.246885755681481));
#235=CARTESIAN_POINT('Ctrl Pts',(3.5166963051002,3.42973682066022,0.249592749722352));
#236=CARTESIAN_POINT('Ctrl Pts',(3.50801142075761,3.43206747082802,0.250023070918654));
#237=CARTESIAN_POINT('Ctrl Pts',(3.49314230591394,3.43596500341086,0.249982019859773));
#238=CARTESIAN_POINT('Ctrl Pts',(3.48697048630188,3.4375556096218,0.249736754338292));
#239=CARTESIAN_POINT('Ctrl Pts',(3.47463263576877,3.44068068968246,0.248786745490106));
#240=CARTESIAN_POINT('Ctrl Pts',(3.4684703548984,3.44221411749512,0.248081489016631));
#241=CARTESIAN_POINT('Ctrl Pts',(3.45363125695884,3.44584091212967,0.24581988634977));
#242=CARTESIAN_POINT('Ctrl Pts',(3.44498928473677,3.447898093957,0.244032570452793));
#243=CARTESIAN_POINT('Ctrl Pts',(3.41733351398646,3.45430967460267,0.236762924210289));
#244=CARTESIAN_POINT('Ctrl Pts',(3.39880769723957,3.45833350780228,0.229471618491346));
#245=CARTESIAN_POINT('Ctrl Pts',(3.3553872861424,3.46721295548334,0.206039405224302));
#246=CARTESIAN_POINT('Ctrl Pts',(3.33205354324487,3.47147046127224,0.187551000145738));
#247=CARTESIAN_POINT('Ctrl Pts',(3.29130532152995,3.47836345728456,0.141305448135889));
#248=CARTESIAN_POINT('Ctrl Pts',(3.27491869926864,3.48079409525752,0.113441920883233));
#249=CARTESIAN_POINT('Ctrl Pts',(3.25481052447391,3.4836786375127,0.0564390726631539));
#250=CARTESIAN_POINT('Ctrl Pts',(3.25,3.48431348329844,0.0283069057674056));
#251=CARTESIAN_POINT('Ctrl Pts',(3.25,3.48431348329844,-2.85066049128631E-18));
#252=CARTESIAN_POINT('Ctrl Pts',(3.25,3.48431348329844,-2.85066049128631E-18));
#253=CARTESIAN_POINT('Ctrl Pts',(3.25,3.48431348329844,-0.00449107245507741));
#254=CARTESIAN_POINT('Ctrl Pts',(3.25012101808653,3.48429707576543,-0.00898654348691483));
#255=CARTESIAN_POINT('Ctrl Pts',(3.25199007947983,3.48404310928157,-0.0435958545237236));
#256=CARTESIAN_POINT('Ctrl Pts',(3.25905402552295,3.48310243807051,-0.0731538710195208));
#257=CARTESIAN_POINT('Ctrl Pts',(3.28240281517874,3.47966523885782,-0.126203228349253));
#258=CARTESIAN_POINT('Ctrl Pts',(3.29777747335476,3.47730538302333,-0.149580829174949));
#259=CARTESIAN_POINT('Ctrl Pts',(3.33929252427717,3.47019152590838,-0.194386698694095));
#260=CARTESIAN_POINT('Ctrl Pts',(3.36649095641454,3.46511338010904,-0.213925614722842));
#261=CARTESIAN_POINT('Ctrl Pts',(3.41155858936044,3.45555277314992,-0.234415608286543));
#262=CARTESIAN_POINT('Ctrl Pts',(3.42717075854629,3.45207021759774,-0.239717715402209));
#263=CARTESIAN_POINT('Ctrl Pts',(3.4508606382024,3.4465007741629,-0.245251513947336));
#264=CARTESIAN_POINT('Ctrl Pts',(3.45865687074811,3.44462416742775,-0.246684616008443));
#265=CARTESIAN_POINT('Ctrl Pts',(3.47247755169921,3.44121853713946,-0.248553746404924));
#266=CARTESIAN_POINT('Ctrl Pts',(3.47848045752505,3.43971341870661,-0.249144902934253));
#267=CARTESIAN_POINT('Ctrl Pts',(3.49091875007694,3.43654095955659,-0.249917984128006));
#268=CARTESIAN_POINT('Ctrl Pts',(3.49735132369548,3.43487061470584,-0.250068508286572));
#269=CARTESIAN_POINT('Ctrl Pts',(3.51363683597245,3.43056726138676,-0.249822562447342));
#270=CARTESIAN_POINT('Ctrl Pts',(3.52346664207678,3.4279003178451,-0.249090413677572));
#271=CARTESIAN_POINT('Ctrl Pts',(3.55777746470438,3.4183569187913,-0.244491249632662));
#272=CARTESIAN_POINT('Ctrl Pts',(3.58169124856805,3.41127280804314,-0.237567560875315));
#273=CARTESIAN_POINT('Ctrl Pts',(3.63304539354095,3.39529473864383,-0.214026836223834));
#274=CARTESIAN_POINT('Ctrl Pts',(3.65928155293667,3.3865460243046,-0.195342964570742));
#275=CARTESIAN_POINT('Ctrl Pts',(3.70349705310637,3.37122841111977,-0.148737967778984));
#276=CARTESIAN_POINT('Ctrl Pts',(3.72112450028722,3.36479474870318,-0.121145460566989));
#277=CARTESIAN_POINT('Ctrl Pts',(3.74418782757888,3.3562647387197,-0.0618516246148664));
#278=CARTESIAN_POINT('Ctrl Pts',(3.75,3.35404962177392,-0.0311461511841356));
#279=CARTESIAN_POINT('Ctrl Pts',(3.75,3.35404962177392,2.29621274840129E-16));
#280=CARTESIAN_POINT('',(3.25,-0.499999999999998,-3.06161699786838E-17));
#281=CARTESIAN_POINT('',(3.25,8.5,-3.06161699786838E-17));
#282=CARTESIAN_POINT('Origin',(3.5,-0.499999999999999,0.));
#283=CARTESIAN_POINT('Origin',(3.5,-0.499999999999999,0.));
#284=CARTESIAN_POINT('Origin',(0.,-1.,0.));
#285=CARTESIAN_POINT('',(1.25,-1.,0.82915619758885));
#286=CARTESIAN_POINT('',(-1.25,-1.,0.82915619758885));
#287=CARTESIAN_POINT('Ctrl Pts',(1.25,-1.,0.82915619758885));
#288=CARTESIAN_POINT('Ctrl Pts',(1.25,-0.913227793198269,0.82915619758885));
#289=CARTESIAN_POINT('Ctrl Pts',(1.24096077215459,-0.828221936862762,0.843145321188762));
#290=CARTESIAN_POINT('Ctrl Pts',(1.20698832546715,-0.664288900027312,0.89108230575666));
#291=CARTESIAN_POINT('Ctrl Pts',(1.18202736899835,-0.585306060129523,0.924819916802826));
#292=CARTESIAN_POINT('Ctrl Pts',(1.08610098785052,-0.360059642959354,1.03937824653931));
#293=CARTESIAN_POINT('Ctrl Pts',(0.992948647971048,-0.225181695004679,1.13237601279511));
#294=CARTESIAN_POINT('Ctrl Pts',(0.7792505405466,-0.0114835875802315,1.28823137590803));
#295=CARTESIAN_POINT('Ctrl Pts',(0.644509590624832,0.0838968690870253,1.36413553461512));
#296=CARTESIAN_POINT('Ctrl Pts',(0.33830543469847,0.214814645218101,1.47030878941013));
#297=CARTESIAN_POINT('Ctrl Pts',(0.166491843940701,0.25,1.5));
#298=CARTESIAN_POINT('Ctrl Pts',(-0.166491843940701,0.25,1.5));
#299=CARTESIAN_POINT('Ctrl Pts',(-0.33830543469847,0.214814645218101,1.47030878941013));
#300=CARTESIAN_POINT('Ctrl Pts',(-0.644509590624832,0.0838968690870253,
1.36413553461512));
#301=CARTESIAN_POINT('Ctrl Pts',(-0.779250540546601,-0.011483587580232,
1.28823137590803));
#302=CARTESIAN_POINT('Ctrl Pts',(-0.992948647971048,-0.225181695004679,
1.13237601279511));
#303=CARTESIAN_POINT('Ctrl Pts',(-1.08610098785052,-0.360059642959355,1.03937824653931));
#304=CARTESIAN_POINT('Ctrl Pts',(-1.18202736899835,-0.585306060129524,0.924819916802826));
#305=CARTESIAN_POINT('Ctrl Pts',(-1.20698832546715,-0.664288900027312,0.89108230575666));
#306=CARTESIAN_POINT('Ctrl Pts',(-1.24096077215459,-0.828221936862762,0.843145321188763));
#307=CARTESIAN_POINT('Ctrl Pts',(-1.25,-0.913227793198269,0.82915619758885));
#308=CARTESIAN_POINT('Ctrl Pts',(-1.25,-1.,0.82915619758885));
#309=CARTESIAN_POINT('Ctrl Pts',(-1.25,-1.,0.82915619758885));
#310=CARTESIAN_POINT('Ctrl Pts',(-1.25,-1.08677220680173,0.82915619758885));
#311=CARTESIAN_POINT('Ctrl Pts',(-1.24096077215459,-1.17177806313724,0.843145321188762));
#312=CARTESIAN_POINT('Ctrl Pts',(-1.20698832546715,-1.33571109997269,0.89108230575666));
#313=CARTESIAN_POINT('Ctrl Pts',(-1.18202736899835,-1.41469393987048,0.924819916802826));
#314=CARTESIAN_POINT('Ctrl Pts',(-1.08610098785052,-1.63994035704065,1.03937824653931));
#315=CARTESIAN_POINT('Ctrl Pts',(-0.992948647971048,-1.77481830499532,1.13237601279511));
#316=CARTESIAN_POINT('Ctrl Pts',(-0.7792505405466,-1.98851641241977,1.28823137590803));
#317=CARTESIAN_POINT('Ctrl Pts',(-0.644509590624832,-2.08389686908703,1.36413553461512));
#318=CARTESIAN_POINT('Ctrl Pts',(-0.33830543469847,-2.2148146452181,1.47030878941013));
#319=CARTESIAN_POINT('Ctrl Pts',(-0.166491843940701,-2.25,1.5));
#320=CARTESIAN_POINT('Ctrl Pts',(0.166491843940701,-2.25,1.5));
#321=CARTESIAN_POINT('Ctrl Pts',(0.33830543469847,-2.2148146452181,1.47030878941013));
#322=CARTESIAN_POINT('Ctrl Pts',(0.644509590624832,-2.08389686908703,1.36413553461512));
#323=CARTESIAN_POINT('Ctrl Pts',(0.7792505405466,-1.98851641241977,1.28823137590803));
#324=CARTESIAN_POINT('Ctrl Pts',(0.992948647971048,-1.77481830499532,1.13237601279511));
#325=CARTESIAN_POINT('Ctrl Pts',(1.08610098785052,-1.63994035704065,1.03937824653931));
#326=CARTESIAN_POINT('Ctrl Pts',(1.18202736899835,-1.41469393987048,0.924819916802826));
#327=CARTESIAN_POINT('Ctrl Pts',(1.20698832546715,-1.33571109997269,0.891082305756661));
#328=CARTESIAN_POINT('Ctrl Pts',(1.24096077215459,-1.17177806313724,0.843145321188763));
#329=CARTESIAN_POINT('Ctrl Pts',(1.25,-1.08677220680173,0.82915619758885));
#330=CARTESIAN_POINT('Ctrl Pts',(1.25,-1.,0.82915619758885));
#331=CARTESIAN_POINT('',(-1.25,-1.,4.84122918275927));
#332=CARTESIAN_POINT('',(-1.25,-1.,0.));
#333=CARTESIAN_POINT('',(1.25,-1.,4.84122918275927));
#334=CARTESIAN_POINT('Ctrl Pts',(1.25,-1.,4.84122918275927));
#335=CARTESIAN_POINT('Ctrl Pts',(1.25,-1.15768676334799,4.84122918275927));
#336=CARTESIAN_POINT('Ctrl Pts',(1.21834881761244,-1.32540213501313,4.84973579332106));
#337=CARTESIAN_POINT('Ctrl Pts',(1.09057998139517,-1.63316335628804,4.88005597223663));
#338=CARTESIAN_POINT('Ctrl Pts',(0.994496384782273,-1.7732705681841,4.90138825645426));
#339=CARTESIAN_POINT('Ctrl Pts',(0.773286033839411,-1.99448091912696,4.94111880834681));
#340=CARTESIAN_POINT('Ctrl Pts',(0.633172380752555,-2.09057657413409,4.96215629725421));
#341=CARTESIAN_POINT('Ctrl Pts',(0.325388319770619,-2.21835421378757,4.99179575122445));
#342=CARTESIAN_POINT('Ctrl Pts',(0.157664715929046,-2.25,5.));
#343=CARTESIAN_POINT('Ctrl Pts',(-0.157664715929046,-2.25,5.));
#344=CARTESIAN_POINT('Ctrl Pts',(-0.325388319770619,-2.21835421378757,4.99179575122445));
#345=CARTESIAN_POINT('Ctrl Pts',(-0.633172380752555,-2.09057657413409,4.96215629725421));
#346=CARTESIAN_POINT('Ctrl Pts',(-0.773286033839412,-1.99448091912696,4.94111880834681));
#347=CARTESIAN_POINT('Ctrl Pts',(-0.994496384782273,-1.7732705681841,4.90138825645426));
#348=CARTESIAN_POINT('Ctrl Pts',(-1.09057998139517,-1.63316335628804,4.88005597223663));
#349=CARTESIAN_POINT('Ctrl Pts',(-1.21834881761244,-1.32540213501313,4.84973579332105));
#350=CARTESIAN_POINT('Ctrl Pts',(-1.25,-1.15768676334799,4.84122918275927));
#351=CARTESIAN_POINT('Ctrl Pts',(-1.25,-1.,4.84122918275927));
#352=CARTESIAN_POINT('Ctrl Pts',(-1.25,-1.,4.84122918275927));
#353=CARTESIAN_POINT('Ctrl Pts',(-1.25,-0.842313236652012,4.84122918275927));
#354=CARTESIAN_POINT('Ctrl Pts',(-1.21834881761244,-0.674597864986875,4.84973579332105));
#355=CARTESIAN_POINT('Ctrl Pts',(-1.09057998139517,-0.366836643711959,4.88005597223663));
#356=CARTESIAN_POINT('Ctrl Pts',(-0.994496384782273,-0.226729431815904,
4.90138825645426));
#357=CARTESIAN_POINT('Ctrl Pts',(-0.773286033839411,-0.00551908087304265,
4.9411188083468));
#358=CARTESIAN_POINT('Ctrl Pts',(-0.633172380752555,0.0905765741340891,
4.96215629725421));
#359=CARTESIAN_POINT('Ctrl Pts',(-0.325388319770619,0.218354213787568,4.99179575122445));
#360=CARTESIAN_POINT('Ctrl Pts',(-0.157664715929046,0.25,5.));
#361=CARTESIAN_POINT('Ctrl Pts',(0.157664715929046,0.25,5.));
#362=CARTESIAN_POINT('Ctrl Pts',(0.325388319770619,0.218354213787568,4.99179575122445));
#363=CARTESIAN_POINT('Ctrl Pts',(0.633172380752555,0.090576574134089,4.96215629725421));
#364=CARTESIAN_POINT('Ctrl Pts',(0.773286033839411,-0.00551908087304268,
4.9411188083468));
#365=CARTESIAN_POINT('Ctrl Pts',(0.994496384782273,-0.226729431815905,4.90138825645426));
#366=CARTESIAN_POINT('Ctrl Pts',(1.09057998139517,-0.36683664371196,4.88005597223663));
#367=CARTESIAN_POINT('Ctrl Pts',(1.21834881761244,-0.674597864986876,4.84973579332105));
#368=CARTESIAN_POINT('Ctrl Pts',(1.25,-0.842313236652012,4.84122918275927));
#369=CARTESIAN_POINT('Ctrl Pts',(1.25,-1.,4.84122918275927));
#370=CARTESIAN_POINT('Origin',(0.,-3.5,0.));
#371=CARTESIAN_POINT('',(-1.5,-3.5,1.83697019872103E-16));
#372=CARTESIAN_POINT('Origin',(0.,-3.5,0.));
#373=CARTESIAN_POINT('',(-1.5,3.5,-1.83697019872103E-16));
#374=CARTESIAN_POINT('',(-1.5,-3.5,1.83697019872103E-16));
#375=CARTESIAN_POINT('Origin',(0.,3.5,0.));
#376=CARTESIAN_POINT('Origin',(0.,1.5,0.));
#377=CARTESIAN_POINT('',(-3.67394039744206E-16,3.5,-3.));
#378=CARTESIAN_POINT('Origin',(0.,3.5,0.));
#379=CARTESIAN_POINT('',(-6.12323399573677E-16,1.5,-5.));
#380=CARTESIAN_POINT('Origin',(-3.67394039744206E-16,1.5,-3.));
#381=CARTESIAN_POINT('',(5.,1.5,-6.12323399573677E-16));
#382=CARTESIAN_POINT('Origin',(0.,1.5,0.));
#383=CARTESIAN_POINT('Origin',(0.,1.5,0.));
#384=CARTESIAN_POINT('Origin',(0.,0.,0.));
#385=CARTESIAN_POINT('',(5.,-3.5,-6.12323399573677E-16));
#386=CARTESIAN_POINT('',(5.,0.,-6.12323399573677E-16));
#387=CARTESIAN_POINT('Origin',(0.,-3.5,0.));
#388=CARTESIAN_POINT('Origin',(0.,3.5,0.));
#389=CARTESIAN_POINT('Origin',(0.,-3.5,0.));
#390=UNCERTAINTY_MEASURE_WITH_UNIT(LENGTH_MEASURE(0.01),#394,
'DISTANCE_ACCURACY_VALUE',
'Maximum model space distance between geometric entities at asserted c
onnectivities');
#391=UNCERTAINTY_MEASURE_WITH_UNIT(LENGTH_MEASURE(0.01),#394,
'DISTANCE_ACCURACY_VALUE',
'Maximum model space distance between geometric entities at asserted c
onnectivities');
#392=(
GEOMETRIC_REPRESENTATION_CONTEXT(3)
GLOBAL_UNCERTAINTY_ASSIGNED_CONTEXT((#390))
GLOBAL_UNIT_ASSIGNED_CONTEXT((#394,#396,#397))
REPRESENTATION_CONTEXT('','3D')
);
#393=(
GEOMETRIC_REPRESENTATION_CONTEXT(3)
GLOBAL_UNCERTAINTY_ASSIGNED_CONTEXT((#391))
GLOBAL_UNIT_ASSIGNED_CONTEXT((#394,#396,#397))
REPRESENTATION_CONTEXT('','3D')
);
#394=(
LENGTH_UNIT()
NAMED_UNIT(*)
SI_UNIT(.MILLI.,.METRE.)
);
#395=(
LENGTH_UNIT()
NAMED_UNIT(*)
SI_UNIT(.CENTI.,.METRE.)
);
#396=(
NAMED_UNIT(*)
PLANE_ANGLE_UNIT()
SI_UNIT($,.RADIAN.)
);
#397=(
NAMED_UNIT(*)
SI_UNIT($,.STERADIAN.)
SOLID_ANGLE_UNIT()
);
#398=SHAPE_DEFINITION_REPRESENTATION(#399,#400);
#399=PRODUCT_DEFINITION_SHAPE('',$,#402);
#400=SHAPE_REPRESENTATION('',(#165),#392);
#401=PRODUCT_DEFINITION_CONTEXT('part definition',#406,'design');
#402=PRODUCT_DEFINITION('Lower Lock Cap','Lower Lock Cap',#403,#401);
#403=PRODUCT_DEFINITION_FORMATION('',$,#408);
#404=PRODUCT_RELATED_PRODUCT_CATEGORY('Lower Lock Cap','Lower Lock Cap',
(#408));
#405=APPLICATION_PROTOCOL_DEFINITION('international standard',
'automotive_design',2009,#406);
#406=APPLICATION_CONTEXT(
'Core Data for Automotive Mechanical Design Process');
#407=PRODUCT_CONTEXT('part definition',#406,'mechanical');
#408=PRODUCT('Lower Lock Cap','Lower Lock Cap',$,(#407));
#409=PRESENTATION_STYLE_ASSIGNMENT((#410));
#410=SURFACE_STYLE_USAGE(.BOTH.,#413);
#411=SURFACE_STYLE_RENDERING_WITH_PROPERTIES($,#417,(#412));
#412=SURFACE_STYLE_TRANSPARENT(0.);
#413=SURFACE_SIDE_STYLE('',(#414,#411));
#414=SURFACE_STYLE_FILL_AREA(#415);
#415=FILL_AREA_STYLE('',(#416));
#416=FILL_AREA_STYLE_COLOUR('',#417);
#417=COLOUR_RGB('',0.745098039215686,0.737254901960784,0.729411764705882);
ENDSEC;
END-ISO-10303-21;
