ISO-10303-21;
HEADER;
/* Generated by software containing ST-Developer
 * from STEP Tools, Inc. (www.steptools.com) 
 */

FILE_DESCRIPTION(
/* description */ (''),
/* implementation_level */ '2;1');

FILE_NAME(
/* name */ 
'S:\\Future Scope 1\\WIP\\Client Category\\Tom\\02 Progressive Work\\L
ower Arm Brass Plate - 3.stp',
/* time_stamp */ '2025-11-05T12:14:35+06:00',
/* author */ ('SD'),
/* organization */ (''),
/* preprocessor_version */ 'ST-DEVELOPER v18.1',
/* originating_system */ 'Autodesk Inventor 2021',
/* authorisation */ '');

FILE_SCHEMA (('AUTOMOTIVE_DESIGN { 1 0 10303 214 3 1 1 }'));
ENDSEC;

DATA;
#10=MECHANICAL_DESIGN_GEOMETRIC_PRESENTATION_REPRESENTATION('',(#13),#603);
#11=SHAPE_REPRESENTATION_RELATIONSHIP('SRR','None',#610,#12);
#12=ADVANCED_BREP_SHAPE_REPRESENTATION('',(#14),#602);
#13=STYLED_ITEM('',(#619),#14);
#14=MANIFOLD_SOLID_BREP('Solid1',#345);
#15=FACE_BOUND('',#78,.T.);
#16=FACE_BOUND('',#79,.T.);
#17=FACE_BOUND('',#83,.T.);
#18=FACE_BOUND('',#84,.T.);
#19=CYLINDRICAL_SURFACE('',#381,5.);
#20=CYLINDRICAL_SURFACE('',#384,5.);
#21=CYLINDRICAL_SURFACE('',#390,5.);
#22=CYLINDRICAL_SURFACE('',#397,5.);
#23=CYLINDRICAL_SURFACE('',#398,4.5);
#24=CYLINDRICAL_SURFACE('',#399,4.5);
#25=CIRCLE('',#367,5.);
#26=CIRCLE('',#368,4.5);
#27=CIRCLE('',#371,5.);
#28=CIRCLE('',#372,4.5);
#29=CIRCLE('',#375,5.);
#30=CIRCLE('',#376,4.5);
#31=CIRCLE('',#379,5.);
#32=CIRCLE('',#380,4.5);
#33=CIRCLE('',#382,5.);
#34=CIRCLE('',#385,5.);
#35=CIRCLE('',#388,4.5);
#36=CIRCLE('',#389,4.5);
#37=CIRCLE('',#391,5.);
#38=CIRCLE('',#394,5.);
#39=CIRCLE('',#395,4.5);
#40=CIRCLE('',#396,4.5);
#41=CONICAL_SURFACE('',#366,4.75,0.785398163397448);
#42=CONICAL_SURFACE('',#370,4.75,0.785398163397448);
#43=CONICAL_SURFACE('',#374,4.75,0.785398163397448);
#44=CONICAL_SURFACE('',#378,4.75,0.785398163397447);
#45=FACE_OUTER_BOUND('',#65,.T.);
#46=FACE_OUTER_BOUND('',#66,.T.);
#47=FACE_OUTER_BOUND('',#67,.T.);
#48=FACE_OUTER_BOUND('',#68,.T.);
#49=FACE_OUTER_BOUND('',#69,.T.);
#50=FACE_OUTER_BOUND('',#70,.T.);
#51=FACE_OUTER_BOUND('',#71,.T.);
#52=FACE_OUTER_BOUND('',#72,.T.);
#53=FACE_OUTER_BOUND('',#73,.T.);
#54=FACE_OUTER_BOUND('',#74,.T.);
#55=FACE_OUTER_BOUND('',#75,.T.);
#56=FACE_OUTER_BOUND('',#76,.T.);
#57=FACE_OUTER_BOUND('',#77,.T.);
#58=FACE_OUTER_BOUND('',#80,.T.);
#59=FACE_OUTER_BOUND('',#81,.T.);
#60=FACE_OUTER_BOUND('',#82,.T.);
#61=FACE_OUTER_BOUND('',#85,.T.);
#62=FACE_OUTER_BOUND('',#86,.T.);
#63=FACE_OUTER_BOUND('',#87,.T.);
#64=FACE_OUTER_BOUND('',#88,.T.);
#65=EDGE_LOOP('',(#223,#224,#225,#226));
#66=EDGE_LOOP('',(#227,#228,#229,#230));
#67=EDGE_LOOP('',(#231,#232,#233,#234));
#68=EDGE_LOOP('',(#235,#236,#237,#238));
#69=EDGE_LOOP('',(#239,#240,#241,#242));
#70=EDGE_LOOP('',(#243,#244,#245,#246));
#71=EDGE_LOOP('',(#247,#248,#249,#250));
#72=EDGE_LOOP('',(#251,#252,#253,#254));
#73=EDGE_LOOP('',(#255,#256,#257,#258));
#74=EDGE_LOOP('',(#259,#260,#261,#262));
#75=EDGE_LOOP('',(#263,#264,#265,#266));
#76=EDGE_LOOP('',(#267,#268,#269,#270));
#77=EDGE_LOOP('',(#271,#272,#273,#274,#275,#276,#277,#278));
#78=EDGE_LOOP('',(#279));
#79=EDGE_LOOP('',(#280));
#80=EDGE_LOOP('',(#281,#282,#283,#284));
#81=EDGE_LOOP('',(#285,#286,#287,#288));
#82=EDGE_LOOP('',(#289,#290,#291,#292,#293,#294,#295,#296));
#83=EDGE_LOOP('',(#297));
#84=EDGE_LOOP('',(#298));
#85=EDGE_LOOP('',(#299,#300,#301,#302));
#86=EDGE_LOOP('',(#303,#304,#305,#306));
#87=EDGE_LOOP('',(#307,#308,#309,#310));
#88=EDGE_LOOP('',(#311,#312,#313,#314));
#89=LINE('',#509,#119);
#90=LINE('',#511,#120);
#91=LINE('',#513,#121);
#92=LINE('',#514,#122);
#93=LINE('',#519,#123);
#94=LINE('',#524,#124);
#95=LINE('',#525,#125);
#96=LINE('',#526,#126);
#97=LINE('',#531,#127);
#98=LINE('',#536,#128);
#99=LINE('',#537,#129);
#100=LINE('',#538,#130);
#101=LINE('',#543,#131);
#102=LINE('',#548,#132);
#103=LINE('',#549,#133);
#104=LINE('',#550,#134);
#105=LINE('',#556,#135);
#106=LINE('',#559,#136);
#107=LINE('',#562,#137);
#108=LINE('',#563,#138);
#109=LINE('',#566,#139);
#110=LINE('',#570,#140);
#111=LINE('',#571,#141);
#112=LINE('',#579,#142);
#113=LINE('',#582,#143);
#114=LINE('',#585,#144);
#115=LINE('',#586,#145);
#116=LINE('',#588,#146);
#117=LINE('',#596,#147);
#118=LINE('',#598,#148);
#119=VECTOR('',#405,10.);
#120=VECTOR('',#406,10.);
#121=VECTOR('',#407,10.);
#122=VECTOR('',#408,10.);
#123=VECTOR('',#413,10.);
#124=VECTOR('',#418,10.);
#125=VECTOR('',#419,10.);
#126=VECTOR('',#420,10.);
#127=VECTOR('',#425,10.);
#128=VECTOR('',#430,10.);
#129=VECTOR('',#431,10.);
#130=VECTOR('',#432,10.);
#131=VECTOR('',#437,10.);
#132=VECTOR('',#442,10.);
#133=VECTOR('',#443,10.);
#134=VECTOR('',#444,10.);
#135=VECTOR('',#453,10.);
#136=VECTOR('',#456,10.);
#137=VECTOR('',#459,10.);
#138=VECTOR('',#460,10.);
#139=VECTOR('',#463,10.);
#140=VECTOR('',#468,10.);
#141=VECTOR('',#469,10.);
#142=VECTOR('',#478,10.);
#143=VECTOR('',#481,10.);
#144=VECTOR('',#484,10.);
#145=VECTOR('',#485,10.);
#146=VECTOR('',#488,10.);
#147=VECTOR('',#499,4.5);
#148=VECTOR('',#502,4.5);
#149=VERTEX_POINT('',#507);
#150=VERTEX_POINT('',#508);
#151=VERTEX_POINT('',#510);
#152=VERTEX_POINT('',#512);
#153=VERTEX_POINT('',#516);
#154=VERTEX_POINT('',#518);
#155=VERTEX_POINT('',#522);
#156=VERTEX_POINT('',#523);
#157=VERTEX_POINT('',#528);
#158=VERTEX_POINT('',#530);
#159=VERTEX_POINT('',#534);
#160=VERTEX_POINT('',#535);
#161=VERTEX_POINT('',#540);
#162=VERTEX_POINT('',#542);
#163=VERTEX_POINT('',#546);
#164=VERTEX_POINT('',#547);
#165=VERTEX_POINT('',#555);
#166=VERTEX_POINT('',#557);
#167=VERTEX_POINT('',#561);
#168=VERTEX_POINT('',#565);
#169=VERTEX_POINT('',#569);
#170=VERTEX_POINT('',#573);
#171=VERTEX_POINT('',#575);
#172=VERTEX_POINT('',#578);
#173=VERTEX_POINT('',#580);
#174=VERTEX_POINT('',#584);
#175=VERTEX_POINT('',#590);
#176=VERTEX_POINT('',#592);
#177=EDGE_CURVE('',#149,#150,#89,.T.);
#178=EDGE_CURVE('',#150,#151,#90,.T.);
#179=EDGE_CURVE('',#151,#152,#91,.T.);
#180=EDGE_CURVE('',#152,#149,#92,.T.);
#181=EDGE_CURVE('',#149,#153,#25,.T.);
#182=EDGE_CURVE('',#153,#154,#93,.T.);
#183=EDGE_CURVE('',#154,#150,#26,.T.);
#184=EDGE_CURVE('',#155,#156,#94,.T.);
#185=EDGE_CURVE('',#156,#154,#95,.T.);
#186=EDGE_CURVE('',#153,#155,#96,.T.);
#187=EDGE_CURVE('',#155,#157,#27,.T.);
#188=EDGE_CURVE('',#157,#158,#97,.T.);
#189=EDGE_CURVE('',#158,#156,#28,.T.);
#190=EDGE_CURVE('',#159,#160,#98,.T.);
#191=EDGE_CURVE('',#160,#158,#99,.T.);
#192=EDGE_CURVE('',#157,#159,#100,.T.);
#193=EDGE_CURVE('',#159,#161,#29,.T.);
#194=EDGE_CURVE('',#161,#162,#101,.T.);
#195=EDGE_CURVE('',#162,#160,#30,.T.);
#196=EDGE_CURVE('',#163,#164,#102,.T.);
#197=EDGE_CURVE('',#164,#162,#103,.T.);
#198=EDGE_CURVE('',#161,#163,#104,.T.);
#199=EDGE_CURVE('',#163,#152,#31,.T.);
#200=EDGE_CURVE('',#151,#164,#32,.T.);
#201=EDGE_CURVE('',#155,#165,#105,.T.);
#202=EDGE_CURVE('',#165,#166,#33,.T.);
#203=EDGE_CURVE('',#166,#157,#106,.T.);
#204=EDGE_CURVE('',#167,#153,#107,.T.);
#205=EDGE_CURVE('',#165,#167,#108,.T.);
#206=EDGE_CURVE('',#149,#168,#109,.T.);
#207=EDGE_CURVE('',#168,#167,#34,.T.);
#208=EDGE_CURVE('',#169,#152,#110,.T.);
#209=EDGE_CURVE('',#168,#169,#111,.T.);
#210=EDGE_CURVE('',#170,#170,#35,.T.);
#211=EDGE_CURVE('',#171,#171,#36,.T.);
#212=EDGE_CURVE('',#159,#172,#112,.T.);
#213=EDGE_CURVE('',#172,#173,#37,.T.);
#214=EDGE_CURVE('',#173,#161,#113,.T.);
#215=EDGE_CURVE('',#174,#173,#114,.T.);
#216=EDGE_CURVE('',#163,#174,#115,.T.);
#217=EDGE_CURVE('',#172,#166,#116,.T.);
#218=EDGE_CURVE('',#174,#169,#38,.T.);
#219=EDGE_CURVE('',#175,#175,#39,.T.);
#220=EDGE_CURVE('',#176,#176,#40,.T.);
#221=EDGE_CURVE('',#171,#175,#117,.T.);
#222=EDGE_CURVE('',#170,#176,#118,.T.);
#223=ORIENTED_EDGE('',*,*,#177,.T.);
#224=ORIENTED_EDGE('',*,*,#178,.T.);
#225=ORIENTED_EDGE('',*,*,#179,.T.);
#226=ORIENTED_EDGE('',*,*,#180,.T.);
#227=ORIENTED_EDGE('',*,*,#177,.F.);
#228=ORIENTED_EDGE('',*,*,#181,.T.);
#229=ORIENTED_EDGE('',*,*,#182,.T.);
#230=ORIENTED_EDGE('',*,*,#183,.T.);
#231=ORIENTED_EDGE('',*,*,#184,.T.);
#232=ORIENTED_EDGE('',*,*,#185,.T.);
#233=ORIENTED_EDGE('',*,*,#182,.F.);
#234=ORIENTED_EDGE('',*,*,#186,.T.);
#235=ORIENTED_EDGE('',*,*,#184,.F.);
#236=ORIENTED_EDGE('',*,*,#187,.T.);
#237=ORIENTED_EDGE('',*,*,#188,.T.);
#238=ORIENTED_EDGE('',*,*,#189,.T.);
#239=ORIENTED_EDGE('',*,*,#190,.T.);
#240=ORIENTED_EDGE('',*,*,#191,.T.);
#241=ORIENTED_EDGE('',*,*,#188,.F.);
#242=ORIENTED_EDGE('',*,*,#192,.T.);
#243=ORIENTED_EDGE('',*,*,#190,.F.);
#244=ORIENTED_EDGE('',*,*,#193,.T.);
#245=ORIENTED_EDGE('',*,*,#194,.T.);
#246=ORIENTED_EDGE('',*,*,#195,.T.);
#247=ORIENTED_EDGE('',*,*,#196,.T.);
#248=ORIENTED_EDGE('',*,*,#197,.T.);
#249=ORIENTED_EDGE('',*,*,#194,.F.);
#250=ORIENTED_EDGE('',*,*,#198,.T.);
#251=ORIENTED_EDGE('',*,*,#196,.F.);
#252=ORIENTED_EDGE('',*,*,#199,.T.);
#253=ORIENTED_EDGE('',*,*,#179,.F.);
#254=ORIENTED_EDGE('',*,*,#200,.T.);
#255=ORIENTED_EDGE('',*,*,#187,.F.);
#256=ORIENTED_EDGE('',*,*,#201,.T.);
#257=ORIENTED_EDGE('',*,*,#202,.T.);
#258=ORIENTED_EDGE('',*,*,#203,.T.);
#259=ORIENTED_EDGE('',*,*,#186,.F.);
#260=ORIENTED_EDGE('',*,*,#204,.F.);
#261=ORIENTED_EDGE('',*,*,#205,.F.);
#262=ORIENTED_EDGE('',*,*,#201,.F.);
#263=ORIENTED_EDGE('',*,*,#181,.F.);
#264=ORIENTED_EDGE('',*,*,#206,.T.);
#265=ORIENTED_EDGE('',*,*,#207,.T.);
#266=ORIENTED_EDGE('',*,*,#204,.T.);
#267=ORIENTED_EDGE('',*,*,#180,.F.);
#268=ORIENTED_EDGE('',*,*,#208,.F.);
#269=ORIENTED_EDGE('',*,*,#209,.F.);
#270=ORIENTED_EDGE('',*,*,#206,.F.);
#271=ORIENTED_EDGE('',*,*,#178,.F.);
#272=ORIENTED_EDGE('',*,*,#183,.F.);
#273=ORIENTED_EDGE('',*,*,#185,.F.);
#274=ORIENTED_EDGE('',*,*,#189,.F.);
#275=ORIENTED_EDGE('',*,*,#191,.F.);
#276=ORIENTED_EDGE('',*,*,#195,.F.);
#277=ORIENTED_EDGE('',*,*,#197,.F.);
#278=ORIENTED_EDGE('',*,*,#200,.F.);
#279=ORIENTED_EDGE('',*,*,#210,.T.);
#280=ORIENTED_EDGE('',*,*,#211,.T.);
#281=ORIENTED_EDGE('',*,*,#193,.F.);
#282=ORIENTED_EDGE('',*,*,#212,.T.);
#283=ORIENTED_EDGE('',*,*,#213,.T.);
#284=ORIENTED_EDGE('',*,*,#214,.T.);
#285=ORIENTED_EDGE('',*,*,#198,.F.);
#286=ORIENTED_EDGE('',*,*,#214,.F.);
#287=ORIENTED_EDGE('',*,*,#215,.F.);
#288=ORIENTED_EDGE('',*,*,#216,.F.);
#289=ORIENTED_EDGE('',*,*,#213,.F.);
#290=ORIENTED_EDGE('',*,*,#217,.T.);
#291=ORIENTED_EDGE('',*,*,#202,.F.);
#292=ORIENTED_EDGE('',*,*,#205,.T.);
#293=ORIENTED_EDGE('',*,*,#207,.F.);
#294=ORIENTED_EDGE('',*,*,#209,.T.);
#295=ORIENTED_EDGE('',*,*,#218,.F.);
#296=ORIENTED_EDGE('',*,*,#215,.T.);
#297=ORIENTED_EDGE('',*,*,#219,.T.);
#298=ORIENTED_EDGE('',*,*,#220,.T.);
#299=ORIENTED_EDGE('',*,*,#199,.F.);
#300=ORIENTED_EDGE('',*,*,#216,.T.);
#301=ORIENTED_EDGE('',*,*,#218,.T.);
#302=ORIENTED_EDGE('',*,*,#208,.T.);
#303=ORIENTED_EDGE('',*,*,#211,.F.);
#304=ORIENTED_EDGE('',*,*,#221,.T.);
#305=ORIENTED_EDGE('',*,*,#219,.F.);
#306=ORIENTED_EDGE('',*,*,#221,.F.);
#307=ORIENTED_EDGE('',*,*,#210,.F.);
#308=ORIENTED_EDGE('',*,*,#222,.T.);
#309=ORIENTED_EDGE('',*,*,#220,.F.);
#310=ORIENTED_EDGE('',*,*,#222,.F.);
#311=ORIENTED_EDGE('',*,*,#192,.F.);
#312=ORIENTED_EDGE('',*,*,#203,.F.);
#313=ORIENTED_EDGE('',*,*,#217,.F.);
#314=ORIENTED_EDGE('',*,*,#212,.F.);
#315=PLANE('',#365);
#316=PLANE('',#369);
#317=PLANE('',#373);
#318=PLANE('',#377);
#319=PLANE('',#383);
#320=PLANE('',#386);
#321=PLANE('',#387);
#322=PLANE('',#392);
#323=PLANE('',#393);
#324=PLANE('',#400);
#325=ADVANCED_FACE('',(#45),#315,.T.);
#326=ADVANCED_FACE('',(#46),#41,.T.);
#327=ADVANCED_FACE('',(#47),#316,.T.);
#328=ADVANCED_FACE('',(#48),#42,.T.);
#329=ADVANCED_FACE('',(#49),#317,.T.);
#330=ADVANCED_FACE('',(#50),#43,.T.);
#331=ADVANCED_FACE('',(#51),#318,.T.);
#332=ADVANCED_FACE('',(#52),#44,.T.);
#333=ADVANCED_FACE('',(#53),#19,.T.);
#334=ADVANCED_FACE('',(#54),#319,.T.);
#335=ADVANCED_FACE('',(#55),#20,.T.);
#336=ADVANCED_FACE('',(#56),#320,.T.);
#337=ADVANCED_FACE('',(#57,#15,#16),#321,.T.);
#338=ADVANCED_FACE('',(#58),#21,.T.);
#339=ADVANCED_FACE('',(#59),#322,.T.);
#340=ADVANCED_FACE('',(#60,#17,#18),#323,.T.);
#341=ADVANCED_FACE('',(#61),#22,.T.);
#342=ADVANCED_FACE('',(#62),#23,.F.);
#343=ADVANCED_FACE('',(#63),#24,.F.);
#344=ADVANCED_FACE('',(#64),#324,.T.);
#345=CLOSED_SHELL('',(#325,#326,#327,#328,#329,#330,#331,#332,#333,#334,
#335,#336,#337,#338,#339,#340,#341,#342,#343,#344));
#346=DERIVED_UNIT_ELEMENT(#348,1.);
#347=DERIVED_UNIT_ELEMENT(#605,3.);
#348=(
MASS_UNIT()
NAMED_UNIT(*)
SI_UNIT($,.GRAM.)
);
#349=DERIVED_UNIT((#346,#347));
#350=MEASURE_REPRESENTATION_ITEM('density measure',
POSITIVE_RATIO_MEASURE(8.47),#349);
#351=PROPERTY_DEFINITION_REPRESENTATION(#356,#353);
#352=PROPERTY_DEFINITION_REPRESENTATION(#357,#354);
#353=REPRESENTATION('material name',(#355),#602);
#354=REPRESENTATION('density',(#350),#602);
#355=DESCRIPTIVE_REPRESENTATION_ITEM('Brass, Soft Yellow',
'Brass, Soft Yellow');
#356=PROPERTY_DEFINITION('material property','material name',#612);
#357=PROPERTY_DEFINITION('material property','density of part',#612);
#358=DATE_TIME_ROLE('creation_date');
#359=APPLIED_DATE_AND_TIME_ASSIGNMENT(#360,#358,(#612));
#360=DATE_AND_TIME(#361,#362);
#361=CALENDAR_DATE(2025,16,9);
#362=LOCAL_TIME(0,0,0.,#363);
#363=COORDINATED_UNIVERSAL_TIME_OFFSET(0,0,.BEHIND.);
#364=AXIS2_PLACEMENT_3D('placement',#505,#401,#402);
#365=AXIS2_PLACEMENT_3D('',#506,#403,#404);
#366=AXIS2_PLACEMENT_3D('',#515,#409,#410);
#367=AXIS2_PLACEMENT_3D('',#517,#411,#412);
#368=AXIS2_PLACEMENT_3D('',#520,#414,#415);
#369=AXIS2_PLACEMENT_3D('',#521,#416,#417);
#370=AXIS2_PLACEMENT_3D('',#527,#421,#422);
#371=AXIS2_PLACEMENT_3D('',#529,#423,#424);
#372=AXIS2_PLACEMENT_3D('',#532,#426,#427);
#373=AXIS2_PLACEMENT_3D('',#533,#428,#429);
#374=AXIS2_PLACEMENT_3D('',#539,#433,#434);
#375=AXIS2_PLACEMENT_3D('',#541,#435,#436);
#376=AXIS2_PLACEMENT_3D('',#544,#438,#439);
#377=AXIS2_PLACEMENT_3D('',#545,#440,#441);
#378=AXIS2_PLACEMENT_3D('',#551,#445,#446);
#379=AXIS2_PLACEMENT_3D('',#552,#447,#448);
#380=AXIS2_PLACEMENT_3D('',#553,#449,#450);
#381=AXIS2_PLACEMENT_3D('',#554,#451,#452);
#382=AXIS2_PLACEMENT_3D('',#558,#454,#455);
#383=AXIS2_PLACEMENT_3D('',#560,#457,#458);
#384=AXIS2_PLACEMENT_3D('',#564,#461,#462);
#385=AXIS2_PLACEMENT_3D('',#567,#464,#465);
#386=AXIS2_PLACEMENT_3D('',#568,#466,#467);
#387=AXIS2_PLACEMENT_3D('',#572,#470,#471);
#388=AXIS2_PLACEMENT_3D('',#574,#472,#473);
#389=AXIS2_PLACEMENT_3D('',#576,#474,#475);
#390=AXIS2_PLACEMENT_3D('',#577,#476,#477);
#391=AXIS2_PLACEMENT_3D('',#581,#479,#480);
#392=AXIS2_PLACEMENT_3D('',#583,#482,#483);
#393=AXIS2_PLACEMENT_3D('',#587,#486,#487);
#394=AXIS2_PLACEMENT_3D('',#589,#489,#490);
#395=AXIS2_PLACEMENT_3D('',#591,#491,#492);
#396=AXIS2_PLACEMENT_3D('',#593,#493,#494);
#397=AXIS2_PLACEMENT_3D('',#594,#495,#496);
#398=AXIS2_PLACEMENT_3D('',#595,#497,#498);
#399=AXIS2_PLACEMENT_3D('',#597,#500,#501);
#400=AXIS2_PLACEMENT_3D('',#599,#503,#504);
#401=DIRECTION('axis',(0.,0.,1.));
#402=DIRECTION('refdir',(1.,0.,0.));
#403=DIRECTION('center_axis',(0.,0.707106781186548,0.707106781186547));
#404=DIRECTION('ref_axis',(1.,0.,0.));
#405=DIRECTION('',(0.,0.707106781186547,-0.707106781186548));
#406=DIRECTION('',(-1.,0.,0.));
#407=DIRECTION('',(0.,-0.707106781186547,0.707106781186548));
#408=DIRECTION('',(1.,0.,0.));
#409=DIRECTION('center_axis',(0.,-1.,0.));
#410=DIRECTION('ref_axis',(0.707106781186548,0.,0.707106781186547));
#411=DIRECTION('center_axis',(0.,1.,0.));
#412=DIRECTION('ref_axis',(0.707106781186548,0.,0.707106781186547));
#413=DIRECTION('',(-0.707106781186559,0.707106781186536,0.));
#414=DIRECTION('center_axis',(0.,-1.,0.));
#415=DIRECTION('ref_axis',(0.707106781186548,0.,0.707106781186547));
#416=DIRECTION('center_axis',(0.707106781186549,0.707106781186546,-3.14018491736756E-16));
#417=DIRECTION('ref_axis',(-4.44089209850063E-16,0.,-1.));
#418=DIRECTION('',(-0.70710678118654,0.707106781186555,0.));
#419=DIRECTION('',(4.44089209850063E-16,0.,1.));
#420=DIRECTION('',(-4.44089209850063E-16,0.,-1.));
#421=DIRECTION('center_axis',(0.,-1.,0.));
#422=DIRECTION('ref_axis',(0.707106781186547,0.,-0.707106781186548));
#423=DIRECTION('center_axis',(0.,1.,0.));
#424=DIRECTION('ref_axis',(0.707106781186547,0.,-0.707106781186548));
#425=DIRECTION('',(0.,0.707106781186549,0.707106781186546));
#426=DIRECTION('center_axis',(0.,-1.,0.));
#427=DIRECTION('ref_axis',(0.707106781186547,0.,-0.707106781186548));
#428=DIRECTION('center_axis',(9.42055475210265E-17,0.707106781186548,-0.707106781186547));
#429=DIRECTION('ref_axis',(-1.,0.,-1.33226762955019E-16));
#430=DIRECTION('',(0.,0.707106781186546,0.707106781186549));
#431=DIRECTION('',(1.,0.,1.33226762955019E-16));
#432=DIRECTION('',(-1.,0.,-1.33226762955019E-16));
#433=DIRECTION('center_axis',(0.,-1.,0.));
#434=DIRECTION('ref_axis',(-0.707106781186547,0.,-0.707106781186548));
#435=DIRECTION('center_axis',(0.,1.,0.));
#436=DIRECTION('ref_axis',(-0.707106781186547,0.,-0.707106781186548));
#437=DIRECTION('',(0.707106781186546,0.707106781186549,1.57009245868378E-15));
#438=DIRECTION('center_axis',(0.,-1.,0.));
#439=DIRECTION('ref_axis',(-0.707106781186547,0.,-0.707106781186548));
#440=DIRECTION('center_axis',(-0.707106781186549,0.707106781186546,0.));
#441=DIRECTION('ref_axis',(0.,0.,1.));
#442=DIRECTION('',(0.707106781186546,0.707106781186549,0.));
#443=DIRECTION('',(0.,0.,-1.));
#444=DIRECTION('',(0.,0.,1.));
#445=DIRECTION('center_axis',(0.,-1.,0.));
#446=DIRECTION('ref_axis',(-0.707106781186547,0.,0.707106781186547));
#447=DIRECTION('center_axis',(0.,1.,0.));
#448=DIRECTION('ref_axis',(-0.707106781186547,0.,0.707106781186547));
#449=DIRECTION('center_axis',(0.,-1.,0.));
#450=DIRECTION('ref_axis',(-0.707106781186548,0.,0.707106781186548));
#451=DIRECTION('center_axis',(0.,-1.,0.));
#452=DIRECTION('ref_axis',(0.707106781186547,0.,-0.707106781186548));
#453=DIRECTION('',(0.,-1.,0.));
#454=DIRECTION('center_axis',(0.,1.,0.));
#455=DIRECTION('ref_axis',(0.707106781186547,0.,-0.707106781186548));
#456=DIRECTION('',(0.,1.,0.));
#457=DIRECTION('center_axis',(1.,0.,-4.44089209850063E-16));
#458=DIRECTION('ref_axis',(-4.44089209850063E-16,0.,-1.));
#459=DIRECTION('',(0.,1.,0.));
#460=DIRECTION('',(4.44089209850063E-16,0.,1.));
#461=DIRECTION('center_axis',(0.,1.,0.));
#462=DIRECTION('ref_axis',(0.707106781186548,0.,0.707106781186547));
#463=DIRECTION('',(0.,-1.,0.));
#464=DIRECTION('center_axis',(0.,1.,0.));
#465=DIRECTION('ref_axis',(0.707106781186548,0.,0.707106781186547));
#466=DIRECTION('center_axis',(0.,0.,1.));
#467=DIRECTION('ref_axis',(1.,0.,0.));
#468=DIRECTION('',(0.,1.,0.));
#469=DIRECTION('',(-1.,0.,0.));
#470=DIRECTION('center_axis',(0.,1.,0.));
#471=DIRECTION('ref_axis',(0.,0.,1.));
#472=DIRECTION('center_axis',(0.,-1.,0.));
#473=DIRECTION('ref_axis',(1.,0.,0.));
#474=DIRECTION('center_axis',(0.,-1.,0.));
#475=DIRECTION('ref_axis',(1.,0.,0.));
#476=DIRECTION('center_axis',(0.,1.,0.));
#477=DIRECTION('ref_axis',(-0.707106781186547,0.,-0.707106781186548));
#478=DIRECTION('',(0.,-1.,0.));
#479=DIRECTION('center_axis',(0.,1.,0.));
#480=DIRECTION('ref_axis',(-0.707106781186547,0.,-0.707106781186548));
#481=DIRECTION('',(0.,1.,0.));
#482=DIRECTION('center_axis',(-1.,0.,0.));
#483=DIRECTION('ref_axis',(0.,0.,1.));
#484=DIRECTION('',(0.,0.,-1.));
#485=DIRECTION('',(0.,-1.,0.));
#486=DIRECTION('center_axis',(0.,-1.,0.));
#487=DIRECTION('ref_axis',(0.,0.,-1.));
#488=DIRECTION('',(1.,0.,1.33226762955019E-16));
#489=DIRECTION('center_axis',(0.,1.,0.));
#490=DIRECTION('ref_axis',(-0.707106781186547,0.,0.707106781186547));
#491=DIRECTION('center_axis',(0.,1.,0.));
#492=DIRECTION('ref_axis',(1.,0.,0.));
#493=DIRECTION('center_axis',(0.,1.,0.));
#494=DIRECTION('ref_axis',(1.,0.,0.));
#495=DIRECTION('center_axis',(0.,1.,0.));
#496=DIRECTION('ref_axis',(-0.707106781186547,0.,0.707106781186547));
#497=DIRECTION('center_axis',(0.,1.,0.));
#498=DIRECTION('ref_axis',(1.,0.,0.));
#499=DIRECTION('',(0.,-1.,0.));
#500=DIRECTION('center_axis',(0.,1.,0.));
#501=DIRECTION('ref_axis',(1.,0.,0.));
#502=DIRECTION('',(0.,-1.,0.));
#503=DIRECTION('center_axis',(1.33226762955019E-16,0.,-1.));
#504=DIRECTION('ref_axis',(-1.,0.,-1.33226762955019E-16));
#505=CARTESIAN_POINT('',(0.,0.,0.));
#506=CARTESIAN_POINT('Origin',(-37.5,4.75,9.74999999999999));
#507=CARTESIAN_POINT('',(70.,4.5,9.99999999999999));
#508=CARTESIAN_POINT('',(70.,5.,9.49999999999999));
#509=CARTESIAN_POINT('',(70.,4.5,9.99999999999999));
#510=CARTESIAN_POINT('',(-70.,5.,9.49999999999999));
#511=CARTESIAN_POINT('',(-37.5,5.,9.49999999999999));
#512=CARTESIAN_POINT('',(-70.,4.5,9.99999999999999));
#513=CARTESIAN_POINT('',(-70.,5.,9.49999999999999));
#514=CARTESIAN_POINT('',(-37.5,4.5,9.99999999999999));
#515=CARTESIAN_POINT('Origin',(70.,4.75,4.99999999999999));
#516=CARTESIAN_POINT('',(75.,4.5,4.99999999999999));
#517=CARTESIAN_POINT('Origin',(70.,4.5,4.99999999999999));
#518=CARTESIAN_POINT('',(74.5,5.,4.99999999999999));
#519=CARTESIAN_POINT('',(75.,4.5,4.99999999999999));
#520=CARTESIAN_POINT('Origin',(70.,5.,4.99999999999999));
#521=CARTESIAN_POINT('Origin',(74.75,4.75,4.99999999999998));
#522=CARTESIAN_POINT('',(75.,4.5,-4.99999999999999));
#523=CARTESIAN_POINT('',(74.5,5.,-4.99999999999999));
#524=CARTESIAN_POINT('',(75.,4.5,-4.99999999999999));
#525=CARTESIAN_POINT('',(74.5,5.,4.99999999999998));
#526=CARTESIAN_POINT('',(75.,4.5,4.99999999999998));
#527=CARTESIAN_POINT('Origin',(70.,4.75,-4.99999999999998));
#528=CARTESIAN_POINT('',(70.,4.5,-9.99999999999998));
#529=CARTESIAN_POINT('Origin',(70.,4.5,-4.99999999999998));
#530=CARTESIAN_POINT('',(70.,5.,-9.49999999999999));
#531=CARTESIAN_POINT('',(70.,4.5,-9.99999999999998));
#532=CARTESIAN_POINT('Origin',(70.,5.,-4.99999999999998));
#533=CARTESIAN_POINT('Origin',(37.5,4.75,-9.74999999999999));
#534=CARTESIAN_POINT('',(-70.,4.5,-10.));
#535=CARTESIAN_POINT('',(-70.,5.,-9.5));
#536=CARTESIAN_POINT('',(-70.,4.5,-10.));
#537=CARTESIAN_POINT('',(37.5,5.,-9.49999999999999));
#538=CARTESIAN_POINT('',(37.5,4.5,-9.99999999999999));
#539=CARTESIAN_POINT('Origin',(-70.,4.75,-5.));
#540=CARTESIAN_POINT('',(-75.,4.5,-5.));
#541=CARTESIAN_POINT('Origin',(-70.,4.5,-5.));
#542=CARTESIAN_POINT('',(-74.5,5.,-5.));
#543=CARTESIAN_POINT('',(-75.,4.5,-5.));
#544=CARTESIAN_POINT('Origin',(-70.,5.,-5.));
#545=CARTESIAN_POINT('Origin',(-74.75,4.75,-5.));
#546=CARTESIAN_POINT('',(-75.,4.5,4.99999999999999));
#547=CARTESIAN_POINT('',(-74.5,5.,4.99999999999999));
#548=CARTESIAN_POINT('',(-75.,4.5,4.99999999999999));
#549=CARTESIAN_POINT('',(-74.5,5.,-5.));
#550=CARTESIAN_POINT('',(-75.,4.5,-5.));
#551=CARTESIAN_POINT('Origin',(-70.,4.75,4.99999999999999));
#552=CARTESIAN_POINT('Origin',(-70.,4.5,4.99999999999999));
#553=CARTESIAN_POINT('Origin',(-70.,5.,4.99999999999999));
#554=CARTESIAN_POINT('Origin',(70.,0.,-4.99999999999998));
#555=CARTESIAN_POINT('',(75.,-5.,-4.99999999999999));
#556=CARTESIAN_POINT('',(75.,0.,-4.99999999999999));
#557=CARTESIAN_POINT('',(70.,-5.,-9.99999999999999));
#558=CARTESIAN_POINT('Origin',(70.,-5.,-4.99999999999998));
#559=CARTESIAN_POINT('',(70.,0.,-9.99999999999998));
#560=CARTESIAN_POINT('Origin',(75.,0.,9.99999999999999));
#561=CARTESIAN_POINT('',(75.,-5.,4.99999999999999));
#562=CARTESIAN_POINT('',(75.,0.,4.99999999999999));
#563=CARTESIAN_POINT('',(75.,-5.,9.99999999999999));
#564=CARTESIAN_POINT('Origin',(70.,0.,4.99999999999999));
#565=CARTESIAN_POINT('',(70.,-5.,9.99999999999999));
#566=CARTESIAN_POINT('',(70.,0.,9.99999999999999));
#567=CARTESIAN_POINT('Origin',(70.,-5.,4.99999999999999));
#568=CARTESIAN_POINT('Origin',(-75.,0.,9.99999999999999));
#569=CARTESIAN_POINT('',(-70.,-5.,9.99999999999999));
#570=CARTESIAN_POINT('',(-70.,0.,9.99999999999999));
#571=CARTESIAN_POINT('',(-75.,-5.,9.99999999999999));
#572=CARTESIAN_POINT('Origin',(-3.5527136788005E-14,5.,-5.55111512312578E-15));
#573=CARTESIAN_POINT('',(55.5,5.00000000000002,5.51091059616309E-16));
#574=CARTESIAN_POINT('Origin',(60.,5.,0.));
#575=CARTESIAN_POINT('',(-64.5,5.00000000000002,5.51091059616309E-16));
#576=CARTESIAN_POINT('Origin',(-60.,5.,0.));
#577=CARTESIAN_POINT('Origin',(-70.,0.,-5.));
#578=CARTESIAN_POINT('',(-70.,-5.,-10.));
#579=CARTESIAN_POINT('',(-70.,0.,-10.));
#580=CARTESIAN_POINT('',(-75.,-5.,-5.));
#581=CARTESIAN_POINT('Origin',(-70.,-5.,-5.));
#582=CARTESIAN_POINT('',(-75.,0.,-5.));
#583=CARTESIAN_POINT('Origin',(-75.,0.,-10.));
#584=CARTESIAN_POINT('',(-75.,-5.,4.99999999999999));
#585=CARTESIAN_POINT('',(-75.,-5.,-10.));
#586=CARTESIAN_POINT('',(-75.,0.,4.99999999999999));
#587=CARTESIAN_POINT('Origin',(-3.5527136788005E-14,-5.,-5.55111512312578E-15));
#588=CARTESIAN_POINT('',(75.,-5.,-9.99999999999998));
#589=CARTESIAN_POINT('Origin',(-70.,-5.,4.99999999999999));
#590=CARTESIAN_POINT('',(-64.5,-5.,5.51091059616309E-16));
#591=CARTESIAN_POINT('Origin',(-60.,-5.,0.));
#592=CARTESIAN_POINT('',(55.5,-5.,5.51091059616309E-16));
#593=CARTESIAN_POINT('Origin',(60.,-5.,0.));
#594=CARTESIAN_POINT('Origin',(-70.,0.,4.99999999999999));
#595=CARTESIAN_POINT('Origin',(-60.,-146.657508881031,0.));
#596=CARTESIAN_POINT('',(-64.5,-146.657508881031,5.51091059616309E-16));
#597=CARTESIAN_POINT('Origin',(60.,-146.657508881031,0.));
#598=CARTESIAN_POINT('',(55.5,-146.657508881031,5.51091059616309E-16));
#599=CARTESIAN_POINT('Origin',(75.,0.,-9.99999999999998));
#600=UNCERTAINTY_MEASURE_WITH_UNIT(LENGTH_MEASURE(0.01),#604,
'DISTANCE_ACCURACY_VALUE',
'Maximum model space distance between geometric entities at asserted c
onnectivities');
#601=UNCERTAINTY_MEASURE_WITH_UNIT(LENGTH_MEASURE(0.01),#604,
'DISTANCE_ACCURACY_VALUE',
'Maximum model space distance between geometric entities at asserted c
onnectivities');
#602=(
GEOMETRIC_REPRESENTATION_CONTEXT(3)
GLOBAL_UNCERTAINTY_ASSIGNED_CONTEXT((#600))
GLOBAL_UNIT_ASSIGNED_CONTEXT((#604,#606,#607))
REPRESENTATION_CONTEXT('','3D')
);
#603=(
GEOMETRIC_REPRESENTATION_CONTEXT(3)
GLOBAL_UNCERTAINTY_ASSIGNED_CONTEXT((#601))
GLOBAL_UNIT_ASSIGNED_CONTEXT((#604,#606,#607))
REPRESENTATION_CONTEXT('','3D')
);
#604=(
LENGTH_UNIT()
NAMED_UNIT(*)
SI_UNIT(.MILLI.,.METRE.)
);
#605=(
LENGTH_UNIT()
NAMED_UNIT(*)
SI_UNIT(.CENTI.,.METRE.)
);
#606=(
NAMED_UNIT(*)
PLANE_ANGLE_UNIT()
SI_UNIT($,.RADIAN.)
);
#607=(
NAMED_UNIT(*)
SI_UNIT($,.STERADIAN.)
SOLID_ANGLE_UNIT()
);
#608=SHAPE_DEFINITION_REPRESENTATION(#609,#610);
#609=PRODUCT_DEFINITION_SHAPE('',$,#612);
#610=SHAPE_REPRESENTATION('',(#364),#602);
#611=PRODUCT_DEFINITION_CONTEXT('part definition',#616,'design');
#612=PRODUCT_DEFINITION('Lower Arm Brass Plate - 3',
'Lower Arm Brass Plate - 3',#613,#611);
#613=PRODUCT_DEFINITION_FORMATION('',$,#618);
#614=PRODUCT_RELATED_PRODUCT_CATEGORY('Lower Arm Brass Plate - 3',
'Lower Arm Brass Plate - 3',(#618));
#615=APPLICATION_PROTOCOL_DEFINITION('international standard',
'automotive_design',2009,#616);
#616=APPLICATION_CONTEXT(
'Core Data for Automotive Mechanical Design Process');
#617=PRODUCT_CONTEXT('part definition',#616,'mechanical');
#618=PRODUCT('Lower Arm Brass Plate - 3','Lower Arm Brass Plate - 3',$,
(#617));
#619=PRESENTATION_STYLE_ASSIGNMENT((#620));
#620=SURFACE_STYLE_USAGE(.BOTH.,#623);
#621=SURFACE_STYLE_RENDERING_WITH_PROPERTIES($,#627,(#622));
#622=SURFACE_STYLE_TRANSPARENT(0.);
#623=SURFACE_SIDE_STYLE('',(#624,#621));
#624=SURFACE_STYLE_FILL_AREA(#625);
#625=FILL_AREA_STYLE('',(#626));
#626=FILL_AREA_STYLE_COLOUR('',#627);
#627=COLOUR_RGB('',0.796078431372549,0.603921568627451,0.231372549019608);
ENDSEC;
END-ISO-10303-21;
