ISO-10303-21;
HEADER;
/* Generated by software containing ST-Developer
 * from STEP Tools, Inc. (www.steptools.com) 
 */

FILE_DESCRIPTION(
/* description */ (''),
/* implementation_level */ '2;1');

FILE_NAME(
/* name */ 
'S:\\Future Scope 1\\WIP\\Client Category\\Tom\\02 Progressive Work\\M
ain Piller.stp',
/* time_stamp */ '2025-11-05T12:14:33+06:00',
/* author */ ('SD'),
/* organization */ (''),
/* preprocessor_version */ 'ST-DEVELOPER v18.1',
/* originating_system */ 'Autodesk Inventor 2021',
/* authorisation */ '');

FILE_SCHEMA (('AUTOMOTIVE_DESIGN { 1 0 10303 214 3 1 1 }'));
ENDSEC;

DATA;
#10=MECHANICAL_DESIGN_GEOMETRIC_PRESENTATION_REPRESENTATION('',(#13),#724);
#11=SHAPE_REPRESENTATION_RELATIONSHIP('SRR','None',#731,#12);
#12=ADVANCED_BREP_SHAPE_REPRESENTATION('',(#14),#723);
#13=STYLED_ITEM('',(#740),#14);
#14=MANIFOLD_SOLID_BREP('Solid1',#391);
#15=PLANE('',#417);
#16=PLANE('',#421);
#17=PLANE('',#449);
#18=PLANE('',#450);
#19=PLANE('',#451);
#20=PLANE('',#452);
#21=PLANE('',#453);
#22=FACE_BOUND('',#68,.T.);
#23=FACE_BOUND('',#70,.T.);
#24=FACE_BOUND('',#71,.T.);
#25=FACE_BOUND('',#89,.T.);
#26=FACE_BOUND('',#90,.T.);
#27=FACE_BOUND('',#93,.T.);
#28=FACE_BOUND('',#94,.T.);
#29=FACE_BOUND('',#96,.T.);
#30=FACE_BOUND('',#98,.T.);
#31=FACE_BOUND('',#99,.T.);
#32=B_SPLINE_CURVE_WITH_KNOTS('',3,(#585,#586,#587,#588,#589,#590,#591,
#592,#593,#594,#595,#596,#597,#598,#599,#600,#601,#602,#603,#604,#605,#606,
#607,#608,#609,#610,#611,#612,#613,#614,#615,#616,#617,#618,#619,#620,#621,
#622,#623,#624,#625,#626),.UNSPECIFIED.,.T.,.F.,(4,2,2,2,2,2,2,2,2,2,2,
2,2,2,2,2,2,2,2,2,4),(0.,0.0254330140204303,0.0508660280408605,0.101732056081721,
0.150747411638464,0.199762767195206,0.248778122751949,0.297793478308691,
0.348659506349552,0.374092520369982,0.399525534390412,0.424958548410843,
0.450391562431273,0.501257590472133,0.550272946028876,0.599288301585618,
0.648303657142361,0.697319012699103,0.748185040739964,0.773618054760394,
0.799051068780825),.UNSPECIFIED.);
#33=CYLINDRICAL_SURFACE('',#415,1.5);
#34=CYLINDRICAL_SURFACE('',#419,1.2295);
#35=CYLINDRICAL_SURFACE('',#424,1.2295);
#36=CYLINDRICAL_SURFACE('',#427,3.3235);
#37=CYLINDRICAL_SURFACE('',#431,3.3235);
#38=CYLINDRICAL_SURFACE('',#435,4.188);
#39=CYLINDRICAL_SURFACE('',#439,4.188);
#40=CYLINDRICAL_SURFACE('',#443,2.4585);
#41=CYLINDRICAL_SURFACE('',#447,2.4585);
#42=FACE_OUTER_BOUND('',#66,.T.);
#43=FACE_OUTER_BOUND('',#67,.T.);
#44=FACE_OUTER_BOUND('',#69,.T.);
#45=FACE_OUTER_BOUND('',#72,.T.);
#46=FACE_OUTER_BOUND('',#73,.T.);
#47=FACE_OUTER_BOUND('',#74,.T.);
#48=FACE_OUTER_BOUND('',#75,.T.);
#49=FACE_OUTER_BOUND('',#76,.T.);
#50=FACE_OUTER_BOUND('',#77,.T.);
#51=FACE_OUTER_BOUND('',#78,.T.);
#52=FACE_OUTER_BOUND('',#79,.T.);
#53=FACE_OUTER_BOUND('',#80,.T.);
#54=FACE_OUTER_BOUND('',#81,.T.);
#55=FACE_OUTER_BOUND('',#82,.T.);
#56=FACE_OUTER_BOUND('',#83,.T.);
#57=FACE_OUTER_BOUND('',#84,.T.);
#58=FACE_OUTER_BOUND('',#85,.T.);
#59=FACE_OUTER_BOUND('',#86,.T.);
#60=FACE_OUTER_BOUND('',#87,.T.);
#61=FACE_OUTER_BOUND('',#88,.T.);
#62=FACE_OUTER_BOUND('',#91,.T.);
#63=FACE_OUTER_BOUND('',#92,.T.);
#64=FACE_OUTER_BOUND('',#95,.T.);
#65=FACE_OUTER_BOUND('',#97,.T.);
#66=EDGE_LOOP('',(#261,#262,#263,#264,#265));
#67=EDGE_LOOP('',(#266,#267,#268,#269,#270));
#68=EDGE_LOOP('',(#271));
#69=EDGE_LOOP('',(#272,#273,#274,#275));
#70=EDGE_LOOP('',(#276));
#71=EDGE_LOOP('',(#277));
#72=EDGE_LOOP('',(#278,#279,#280,#281));
#73=EDGE_LOOP('',(#282));
#74=EDGE_LOOP('',(#283,#284,#285));
#75=EDGE_LOOP('',(#286,#287,#288,#289));
#76=EDGE_LOOP('',(#290,#291,#292));
#77=EDGE_LOOP('',(#293,#294,#295,#296));
#78=EDGE_LOOP('',(#297,#298,#299));
#79=EDGE_LOOP('',(#300,#301,#302,#303));
#80=EDGE_LOOP('',(#304,#305,#306));
#81=EDGE_LOOP('',(#307,#308,#309,#310));
#82=EDGE_LOOP('',(#311,#312,#313));
#83=EDGE_LOOP('',(#314,#315,#316,#317));
#84=EDGE_LOOP('',(#318,#319,#320));
#85=EDGE_LOOP('',(#321,#322,#323,#324));
#86=EDGE_LOOP('',(#325,#326,#327));
#87=EDGE_LOOP('',(#328,#329,#330,#331));
#88=EDGE_LOOP('',(#332,#333,#334,#335));
#89=EDGE_LOOP('',(#336));
#90=EDGE_LOOP('',(#337));
#91=EDGE_LOOP('',(#338,#339,#340,#341));
#92=EDGE_LOOP('',(#342,#343,#344,#345));
#93=EDGE_LOOP('',(#346));
#94=EDGE_LOOP('',(#347));
#95=EDGE_LOOP('',(#348,#349,#350,#351));
#96=EDGE_LOOP('',(#352));
#97=EDGE_LOOP('',(#353,#354,#355,#356));
#98=EDGE_LOOP('',(#357));
#99=EDGE_LOOP('',(#358));
#100=LINE('',#576,#129);
#101=LINE('',#582,#130);
#102=LINE('',#630,#131);
#103=LINE('',#632,#132);
#104=LINE('',#634,#133);
#105=LINE('',#635,#134);
#106=LINE('',#641,#135);
#107=LINE('',#647,#136);
#108=LINE('',#649,#137);
#109=LINE('',#654,#138);
#110=LINE('',#658,#139);
#111=LINE('',#663,#140);
#112=LINE('',#667,#141);
#113=LINE('',#672,#142);
#114=LINE('',#676,#143);
#115=LINE('',#681,#144);
#116=LINE('',#685,#145);
#117=LINE('',#690,#146);
#118=LINE('',#694,#147);
#119=LINE('',#699,#148);
#120=LINE('',#703,#149);
#121=LINE('',#707,#150);
#122=LINE('',#708,#151);
#123=LINE('',#709,#152);
#124=LINE('',#712,#153);
#125=LINE('',#713,#154);
#126=LINE('',#716,#155);
#127=LINE('',#717,#156);
#128=LINE('',#719,#157);
#129=VECTOR('',#460,1.6);
#130=VECTOR('',#467,1.5);
#131=VECTOR('',#472,10.);
#132=VECTOR('',#473,10.);
#133=VECTOR('',#474,10.);
#134=VECTOR('',#475,10.);
#135=VECTOR('',#482,1.2295);
#136=VECTOR('',#489,0.61475);
#137=VECTOR('',#492,1.2295);
#138=VECTOR('',#497,1.66175);
#139=VECTOR('',#502,3.3235);
#140=VECTOR('',#507,1.66175);
#141=VECTOR('',#512,3.3235);
#142=VECTOR('',#517,2.094);
#143=VECTOR('',#522,4.188);
#144=VECTOR('',#527,2.094);
#145=VECTOR('',#532,4.188);
#146=VECTOR('',#537,1.22925);
#147=VECTOR('',#542,2.4585);
#148=VECTOR('',#547,1.22925);
#149=VECTOR('',#552,2.4585);
#150=VECTOR('',#555,10.);
#151=VECTOR('',#556,10.);
#152=VECTOR('',#557,10.);
#153=VECTOR('',#560,10.);
#154=VECTOR('',#561,10.);
#155=VECTOR('',#564,10.);
#156=VECTOR('',#565,10.);
#157=VECTOR('',#568,10.);
#158=CIRCLE('',#412,1.7);
#159=CIRCLE('',#413,1.5);
#160=CIRCLE('',#414,1.5);
#161=CIRCLE('',#416,1.5);
#162=CIRCLE('',#418,1.2295);
#163=CIRCLE('',#420,1.2295);
#164=CIRCLE('',#423,1.2295);
#165=CIRCLE('',#426,3.3235);
#166=CIRCLE('',#428,3.3235);
#167=CIRCLE('',#430,3.3235);
#168=CIRCLE('',#432,3.3235);
#169=CIRCLE('',#434,4.188);
#170=CIRCLE('',#436,4.188);
#171=CIRCLE('',#438,4.188);
#172=CIRCLE('',#440,4.188);
#173=CIRCLE('',#442,2.4585);
#174=CIRCLE('',#444,2.4585);
#175=CIRCLE('',#446,2.4585);
#176=CIRCLE('',#448,2.4585);
#177=VERTEX_POINT('',#573);
#178=VERTEX_POINT('',#575);
#179=VERTEX_POINT('',#577);
#180=VERTEX_POINT('',#581);
#181=VERTEX_POINT('',#584);
#182=VERTEX_POINT('',#628);
#183=VERTEX_POINT('',#629);
#184=VERTEX_POINT('',#631);
#185=VERTEX_POINT('',#633);
#186=VERTEX_POINT('',#636);
#187=VERTEX_POINT('',#639);
#188=VERTEX_POINT('',#644);
#189=VERTEX_POINT('',#646);
#190=VERTEX_POINT('',#651);
#191=VERTEX_POINT('',#653);
#192=VERTEX_POINT('',#656);
#193=VERTEX_POINT('',#660);
#194=VERTEX_POINT('',#662);
#195=VERTEX_POINT('',#665);
#196=VERTEX_POINT('',#669);
#197=VERTEX_POINT('',#671);
#198=VERTEX_POINT('',#674);
#199=VERTEX_POINT('',#678);
#200=VERTEX_POINT('',#680);
#201=VERTEX_POINT('',#683);
#202=VERTEX_POINT('',#687);
#203=VERTEX_POINT('',#689);
#204=VERTEX_POINT('',#692);
#205=VERTEX_POINT('',#696);
#206=VERTEX_POINT('',#698);
#207=VERTEX_POINT('',#701);
#208=VERTEX_POINT('',#705);
#209=VERTEX_POINT('',#706);
#210=VERTEX_POINT('',#711);
#211=VERTEX_POINT('',#715);
#212=EDGE_CURVE('',#177,#177,#158,.T.);
#213=EDGE_CURVE('',#177,#178,#100,.T.);
#214=EDGE_CURVE('',#178,#179,#159,.T.);
#215=EDGE_CURVE('',#179,#178,#160,.T.);
#216=EDGE_CURVE('',#179,#180,#101,.T.);
#217=EDGE_CURVE('',#180,#180,#161,.T.);
#218=EDGE_CURVE('',#181,#181,#32,.T.);
#219=EDGE_CURVE('',#182,#183,#102,.T.);
#220=EDGE_CURVE('',#184,#183,#103,.T.);
#221=EDGE_CURVE('',#185,#184,#104,.T.);
#222=EDGE_CURVE('',#182,#185,#105,.T.);
#223=EDGE_CURVE('',#186,#186,#162,.T.);
#224=EDGE_CURVE('',#187,#187,#163,.T.);
#225=EDGE_CURVE('',#187,#181,#106,.T.);
#226=EDGE_CURVE('',#188,#188,#164,.T.);
#227=EDGE_CURVE('',#188,#189,#107,.T.);
#228=EDGE_CURVE('',#186,#188,#108,.T.);
#229=EDGE_CURVE('',#190,#190,#165,.T.);
#230=EDGE_CURVE('',#190,#191,#109,.T.);
#231=EDGE_CURVE('',#192,#192,#166,.T.);
#232=EDGE_CURVE('',#192,#190,#110,.T.);
#233=EDGE_CURVE('',#193,#193,#167,.T.);
#234=EDGE_CURVE('',#193,#194,#111,.T.);
#235=EDGE_CURVE('',#195,#195,#168,.T.);
#236=EDGE_CURVE('',#195,#193,#112,.T.);
#237=EDGE_CURVE('',#196,#196,#169,.T.);
#238=EDGE_CURVE('',#196,#197,#113,.T.);
#239=EDGE_CURVE('',#198,#198,#170,.T.);
#240=EDGE_CURVE('',#198,#196,#114,.T.);
#241=EDGE_CURVE('',#199,#199,#171,.T.);
#242=EDGE_CURVE('',#199,#200,#115,.T.);
#243=EDGE_CURVE('',#201,#201,#172,.T.);
#244=EDGE_CURVE('',#201,#199,#116,.T.);
#245=EDGE_CURVE('',#202,#202,#173,.T.);
#246=EDGE_CURVE('',#202,#203,#117,.T.);
#247=EDGE_CURVE('',#204,#204,#174,.T.);
#248=EDGE_CURVE('',#204,#202,#118,.T.);
#249=EDGE_CURVE('',#205,#205,#175,.T.);
#250=EDGE_CURVE('',#205,#206,#119,.T.);
#251=EDGE_CURVE('',#207,#207,#176,.T.);
#252=EDGE_CURVE('',#207,#205,#120,.T.);
#253=EDGE_CURVE('',#208,#209,#121,.T.);
#254=EDGE_CURVE('',#209,#182,#122,.T.);
#255=EDGE_CURVE('',#185,#208,#123,.T.);
#256=EDGE_CURVE('',#210,#209,#124,.T.);
#257=EDGE_CURVE('',#183,#210,#125,.T.);
#258=EDGE_CURVE('',#211,#184,#126,.T.);
#259=EDGE_CURVE('',#208,#211,#127,.T.);
#260=EDGE_CURVE('',#210,#211,#128,.T.);
#261=ORIENTED_EDGE('',*,*,#212,.T.);
#262=ORIENTED_EDGE('',*,*,#213,.T.);
#263=ORIENTED_EDGE('',*,*,#214,.T.);
#264=ORIENTED_EDGE('',*,*,#215,.T.);
#265=ORIENTED_EDGE('',*,*,#213,.F.);
#266=ORIENTED_EDGE('',*,*,#214,.F.);
#267=ORIENTED_EDGE('',*,*,#215,.F.);
#268=ORIENTED_EDGE('',*,*,#216,.T.);
#269=ORIENTED_EDGE('',*,*,#217,.F.);
#270=ORIENTED_EDGE('',*,*,#216,.F.);
#271=ORIENTED_EDGE('',*,*,#218,.T.);
#272=ORIENTED_EDGE('',*,*,#219,.T.);
#273=ORIENTED_EDGE('',*,*,#220,.F.);
#274=ORIENTED_EDGE('',*,*,#221,.F.);
#275=ORIENTED_EDGE('',*,*,#222,.F.);
#276=ORIENTED_EDGE('',*,*,#223,.T.);
#277=ORIENTED_EDGE('',*,*,#212,.F.);
#278=ORIENTED_EDGE('',*,*,#224,.F.);
#279=ORIENTED_EDGE('',*,*,#225,.T.);
#280=ORIENTED_EDGE('',*,*,#218,.F.);
#281=ORIENTED_EDGE('',*,*,#225,.F.);
#282=ORIENTED_EDGE('',*,*,#217,.T.);
#283=ORIENTED_EDGE('',*,*,#226,.T.);
#284=ORIENTED_EDGE('',*,*,#227,.T.);
#285=ORIENTED_EDGE('',*,*,#227,.F.);
#286=ORIENTED_EDGE('',*,*,#223,.F.);
#287=ORIENTED_EDGE('',*,*,#228,.T.);
#288=ORIENTED_EDGE('',*,*,#226,.F.);
#289=ORIENTED_EDGE('',*,*,#228,.F.);
#290=ORIENTED_EDGE('',*,*,#229,.T.);
#291=ORIENTED_EDGE('',*,*,#230,.T.);
#292=ORIENTED_EDGE('',*,*,#230,.F.);
#293=ORIENTED_EDGE('',*,*,#231,.F.);
#294=ORIENTED_EDGE('',*,*,#232,.T.);
#295=ORIENTED_EDGE('',*,*,#229,.F.);
#296=ORIENTED_EDGE('',*,*,#232,.F.);
#297=ORIENTED_EDGE('',*,*,#233,.T.);
#298=ORIENTED_EDGE('',*,*,#234,.T.);
#299=ORIENTED_EDGE('',*,*,#234,.F.);
#300=ORIENTED_EDGE('',*,*,#235,.F.);
#301=ORIENTED_EDGE('',*,*,#236,.T.);
#302=ORIENTED_EDGE('',*,*,#233,.F.);
#303=ORIENTED_EDGE('',*,*,#236,.F.);
#304=ORIENTED_EDGE('',*,*,#237,.T.);
#305=ORIENTED_EDGE('',*,*,#238,.T.);
#306=ORIENTED_EDGE('',*,*,#238,.F.);
#307=ORIENTED_EDGE('',*,*,#239,.F.);
#308=ORIENTED_EDGE('',*,*,#240,.T.);
#309=ORIENTED_EDGE('',*,*,#237,.F.);
#310=ORIENTED_EDGE('',*,*,#240,.F.);
#311=ORIENTED_EDGE('',*,*,#241,.T.);
#312=ORIENTED_EDGE('',*,*,#242,.T.);
#313=ORIENTED_EDGE('',*,*,#242,.F.);
#314=ORIENTED_EDGE('',*,*,#243,.F.);
#315=ORIENTED_EDGE('',*,*,#244,.T.);
#316=ORIENTED_EDGE('',*,*,#241,.F.);
#317=ORIENTED_EDGE('',*,*,#244,.F.);
#318=ORIENTED_EDGE('',*,*,#245,.T.);
#319=ORIENTED_EDGE('',*,*,#246,.T.);
#320=ORIENTED_EDGE('',*,*,#246,.F.);
#321=ORIENTED_EDGE('',*,*,#247,.F.);
#322=ORIENTED_EDGE('',*,*,#248,.T.);
#323=ORIENTED_EDGE('',*,*,#245,.F.);
#324=ORIENTED_EDGE('',*,*,#248,.F.);
#325=ORIENTED_EDGE('',*,*,#249,.T.);
#326=ORIENTED_EDGE('',*,*,#250,.T.);
#327=ORIENTED_EDGE('',*,*,#250,.F.);
#328=ORIENTED_EDGE('',*,*,#251,.F.);
#329=ORIENTED_EDGE('',*,*,#252,.T.);
#330=ORIENTED_EDGE('',*,*,#249,.F.);
#331=ORIENTED_EDGE('',*,*,#252,.F.);
#332=ORIENTED_EDGE('',*,*,#253,.T.);
#333=ORIENTED_EDGE('',*,*,#254,.T.);
#334=ORIENTED_EDGE('',*,*,#222,.T.);
#335=ORIENTED_EDGE('',*,*,#255,.T.);
#336=ORIENTED_EDGE('',*,*,#247,.T.);
#337=ORIENTED_EDGE('',*,*,#251,.T.);
#338=ORIENTED_EDGE('',*,*,#256,.F.);
#339=ORIENTED_EDGE('',*,*,#257,.F.);
#340=ORIENTED_EDGE('',*,*,#219,.F.);
#341=ORIENTED_EDGE('',*,*,#254,.F.);
#342=ORIENTED_EDGE('',*,*,#221,.T.);
#343=ORIENTED_EDGE('',*,*,#258,.F.);
#344=ORIENTED_EDGE('',*,*,#259,.F.);
#345=ORIENTED_EDGE('',*,*,#255,.F.);
#346=ORIENTED_EDGE('',*,*,#224,.T.);
#347=ORIENTED_EDGE('',*,*,#243,.T.);
#348=ORIENTED_EDGE('',*,*,#259,.T.);
#349=ORIENTED_EDGE('',*,*,#260,.F.);
#350=ORIENTED_EDGE('',*,*,#256,.T.);
#351=ORIENTED_EDGE('',*,*,#253,.F.);
#352=ORIENTED_EDGE('',*,*,#239,.T.);
#353=ORIENTED_EDGE('',*,*,#260,.T.);
#354=ORIENTED_EDGE('',*,*,#258,.T.);
#355=ORIENTED_EDGE('',*,*,#220,.T.);
#356=ORIENTED_EDGE('',*,*,#257,.T.);
#357=ORIENTED_EDGE('',*,*,#231,.T.);
#358=ORIENTED_EDGE('',*,*,#235,.T.);
#359=CONICAL_SURFACE('',#411,1.6,0.785398163397437);
#360=CONICAL_SURFACE('',#422,0.61475,1.02974425867665);
#361=CONICAL_SURFACE('',#425,1.66175,1.02974425867665);
#362=CONICAL_SURFACE('',#429,1.66175,1.02974425867665);
#363=CONICAL_SURFACE('',#433,2.094,1.02974425867665);
#364=CONICAL_SURFACE('',#437,2.094,1.02974425867665);
#365=CONICAL_SURFACE('',#441,1.22925,1.02974425867665);
#366=CONICAL_SURFACE('',#445,1.22925,1.02974425867665);
#367=ADVANCED_FACE('',(#42),#359,.F.);
#368=ADVANCED_FACE('',(#43,#22),#33,.F.);
#369=ADVANCED_FACE('',(#44,#23,#24),#15,.T.);
#370=ADVANCED_FACE('',(#45),#34,.F.);
#371=ADVANCED_FACE('',(#46),#16,.T.);
#372=ADVANCED_FACE('',(#47),#360,.F.);
#373=ADVANCED_FACE('',(#48),#35,.F.);
#374=ADVANCED_FACE('',(#49),#361,.F.);
#375=ADVANCED_FACE('',(#50),#36,.F.);
#376=ADVANCED_FACE('',(#51),#362,.F.);
#377=ADVANCED_FACE('',(#52),#37,.F.);
#378=ADVANCED_FACE('',(#53),#363,.F.);
#379=ADVANCED_FACE('',(#54),#38,.F.);
#380=ADVANCED_FACE('',(#55),#364,.F.);
#381=ADVANCED_FACE('',(#56),#39,.F.);
#382=ADVANCED_FACE('',(#57),#365,.F.);
#383=ADVANCED_FACE('',(#58),#40,.F.);
#384=ADVANCED_FACE('',(#59),#366,.F.);
#385=ADVANCED_FACE('',(#60),#41,.F.);
#386=ADVANCED_FACE('',(#61,#25,#26),#17,.T.);
#387=ADVANCED_FACE('',(#62),#18,.T.);
#388=ADVANCED_FACE('',(#63,#27,#28),#19,.T.);
#389=ADVANCED_FACE('',(#64,#29),#20,.T.);
#390=ADVANCED_FACE('',(#65,#30,#31),#21,.T.);
#391=CLOSED_SHELL('',(#367,#368,#369,#370,#371,#372,#373,#374,#375,#376,
#377,#378,#379,#380,#381,#382,#383,#384,#385,#386,#387,#388,#389,#390));
#392=DERIVED_UNIT_ELEMENT(#394,1.);
#393=DERIVED_UNIT_ELEMENT(#726,3.);
#394=(
MASS_UNIT()
NAMED_UNIT(*)
SI_UNIT($,.GRAM.)
);
#395=DERIVED_UNIT((#392,#393));
#396=MEASURE_REPRESENTATION_ITEM('density measure',
POSITIVE_RATIO_MEASURE(8.47),#395);
#397=PROPERTY_DEFINITION_REPRESENTATION(#402,#399);
#398=PROPERTY_DEFINITION_REPRESENTATION(#403,#400);
#399=REPRESENTATION('material name',(#401),#723);
#400=REPRESENTATION('density',(#396),#723);
#401=DESCRIPTIVE_REPRESENTATION_ITEM('Brass, Soft Yellow',
'Brass, Soft Yellow');
#402=PROPERTY_DEFINITION('material property','material name',#733);
#403=PROPERTY_DEFINITION('material property','density of part',#733);
#404=DATE_TIME_ROLE('creation_date');
#405=APPLIED_DATE_AND_TIME_ASSIGNMENT(#406,#404,(#733));
#406=DATE_AND_TIME(#407,#408);
#407=CALENDAR_DATE(2025,16,9);
#408=LOCAL_TIME(0,0,0.,#409);
#409=COORDINATED_UNIVERSAL_TIME_OFFSET(0,0,.BEHIND.);
#410=AXIS2_PLACEMENT_3D('placement',#571,#454,#455);
#411=AXIS2_PLACEMENT_3D('',#572,#456,#457);
#412=AXIS2_PLACEMENT_3D('',#574,#458,#459);
#413=AXIS2_PLACEMENT_3D('',#578,#461,#462);
#414=AXIS2_PLACEMENT_3D('',#579,#463,#464);
#415=AXIS2_PLACEMENT_3D('',#580,#465,#466);
#416=AXIS2_PLACEMENT_3D('',#583,#468,#469);
#417=AXIS2_PLACEMENT_3D('',#627,#470,#471);
#418=AXIS2_PLACEMENT_3D('',#637,#476,#477);
#419=AXIS2_PLACEMENT_3D('',#638,#478,#479);
#420=AXIS2_PLACEMENT_3D('',#640,#480,#481);
#421=AXIS2_PLACEMENT_3D('',#642,#483,#484);
#422=AXIS2_PLACEMENT_3D('',#643,#485,#486);
#423=AXIS2_PLACEMENT_3D('',#645,#487,#488);
#424=AXIS2_PLACEMENT_3D('',#648,#490,#491);
#425=AXIS2_PLACEMENT_3D('',#650,#493,#494);
#426=AXIS2_PLACEMENT_3D('',#652,#495,#496);
#427=AXIS2_PLACEMENT_3D('',#655,#498,#499);
#428=AXIS2_PLACEMENT_3D('',#657,#500,#501);
#429=AXIS2_PLACEMENT_3D('',#659,#503,#504);
#430=AXIS2_PLACEMENT_3D('',#661,#505,#506);
#431=AXIS2_PLACEMENT_3D('',#664,#508,#509);
#432=AXIS2_PLACEMENT_3D('',#666,#510,#511);
#433=AXIS2_PLACEMENT_3D('',#668,#513,#514);
#434=AXIS2_PLACEMENT_3D('',#670,#515,#516);
#435=AXIS2_PLACEMENT_3D('',#673,#518,#519);
#436=AXIS2_PLACEMENT_3D('',#675,#520,#521);
#437=AXIS2_PLACEMENT_3D('',#677,#523,#524);
#438=AXIS2_PLACEMENT_3D('',#679,#525,#526);
#439=AXIS2_PLACEMENT_3D('',#682,#528,#529);
#440=AXIS2_PLACEMENT_3D('',#684,#530,#531);
#441=AXIS2_PLACEMENT_3D('',#686,#533,#534);
#442=AXIS2_PLACEMENT_3D('',#688,#535,#536);
#443=AXIS2_PLACEMENT_3D('',#691,#538,#539);
#444=AXIS2_PLACEMENT_3D('',#693,#540,#541);
#445=AXIS2_PLACEMENT_3D('',#695,#543,#544);
#446=AXIS2_PLACEMENT_3D('',#697,#545,#546);
#447=AXIS2_PLACEMENT_3D('',#700,#548,#549);
#448=AXIS2_PLACEMENT_3D('',#702,#550,#551);
#449=AXIS2_PLACEMENT_3D('',#704,#553,#554);
#450=AXIS2_PLACEMENT_3D('',#710,#558,#559);
#451=AXIS2_PLACEMENT_3D('',#714,#562,#563);
#452=AXIS2_PLACEMENT_3D('',#718,#566,#567);
#453=AXIS2_PLACEMENT_3D('',#720,#569,#570);
#454=DIRECTION('axis',(0.,0.,1.));
#455=DIRECTION('refdir',(1.,0.,0.));
#456=DIRECTION('center_axis',(0.,0.,1.));
#457=DIRECTION('ref_axis',(-1.,0.,0.));
#458=DIRECTION('center_axis',(0.,0.,1.));
#459=DIRECTION('ref_axis',(-1.,0.,0.));
#460=DIRECTION('',(-0.70710678118654,-8.65956056235484E-17,-0.707106781186555));
#461=DIRECTION('center_axis',(0.,0.,-1.));
#462=DIRECTION('ref_axis',(-1.,0.,0.));
#463=DIRECTION('center_axis',(0.,0.,-1.));
#464=DIRECTION('ref_axis',(-1.,0.,0.));
#465=DIRECTION('center_axis',(0.,0.,1.));
#466=DIRECTION('ref_axis',(1.,0.,0.));
#467=DIRECTION('',(0.,0.,-1.));
#468=DIRECTION('center_axis',(0.,0.,1.));
#469=DIRECTION('ref_axis',(1.,0.,0.));
#470=DIRECTION('center_axis',(0.,0.,1.));
#471=DIRECTION('ref_axis',(0.,-1.,0.));
#472=DIRECTION('',(1.,0.,0.));
#473=DIRECTION('',(0.,-1.,0.));
#474=DIRECTION('',(1.,0.,0.));
#475=DIRECTION('',(0.,1.,0.));
#476=DIRECTION('center_axis',(0.,0.,-1.));
#477=DIRECTION('ref_axis',(1.,0.,0.));
#478=DIRECTION('center_axis',(0.,1.,0.));
#479=DIRECTION('ref_axis',(1.,0.,0.));
#480=DIRECTION('center_axis',(0.,-1.,0.));
#481=DIRECTION('ref_axis',(1.,0.,0.));
#482=DIRECTION('',(0.,-1.,0.));
#483=DIRECTION('center_axis',(0.,0.,1.));
#484=DIRECTION('ref_axis',(1.,0.,0.));
#485=DIRECTION('center_axis',(0.,0.,1.));
#486=DIRECTION('ref_axis',(1.,0.,0.));
#487=DIRECTION('center_axis',(0.,0.,1.));
#488=DIRECTION('ref_axis',(1.,0.,0.));
#489=DIRECTION('',(0.857167300702112,1.04972719113862E-16,-0.515038074910054));
#490=DIRECTION('center_axis',(0.,0.,1.));
#491=DIRECTION('ref_axis',(1.,0.,0.));
#492=DIRECTION('',(0.,0.,-1.));
#493=DIRECTION('center_axis',(1.,0.,0.));
#494=DIRECTION('ref_axis',(0.,0.,-1.));
#495=DIRECTION('center_axis',(1.,0.,0.));
#496=DIRECTION('ref_axis',(0.,0.,-1.));
#497=DIRECTION('',(-0.515038074910054,1.04972719113862E-16,-0.857167300702112));
#498=DIRECTION('center_axis',(1.,0.,0.));
#499=DIRECTION('ref_axis',(0.,0.,-1.));
#500=DIRECTION('center_axis',(-1.,0.,0.));
#501=DIRECTION('ref_axis',(0.,0.,-1.));
#502=DIRECTION('',(-1.,0.,0.));
#503=DIRECTION('center_axis',(1.,0.,0.));
#504=DIRECTION('ref_axis',(0.,0.,-1.));
#505=DIRECTION('center_axis',(1.,0.,0.));
#506=DIRECTION('ref_axis',(0.,0.,-1.));
#507=DIRECTION('',(-0.515038074910054,1.04972719113862E-16,-0.857167300702112));
#508=DIRECTION('center_axis',(1.,0.,0.));
#509=DIRECTION('ref_axis',(0.,0.,-1.));
#510=DIRECTION('center_axis',(-1.,0.,0.));
#511=DIRECTION('ref_axis',(0.,0.,-1.));
#512=DIRECTION('',(-1.,0.,0.));
#513=DIRECTION('center_axis',(0.,0.,-1.));
#514=DIRECTION('ref_axis',(-1.,0.,0.));
#515=DIRECTION('center_axis',(0.,0.,-1.));
#516=DIRECTION('ref_axis',(-1.,0.,0.));
#517=DIRECTION('',(-0.857167300702112,1.04972719113862E-16,0.515038074910054));
#518=DIRECTION('center_axis',(0.,0.,-1.));
#519=DIRECTION('ref_axis',(-1.,0.,0.));
#520=DIRECTION('center_axis',(0.,0.,1.));
#521=DIRECTION('ref_axis',(-1.,0.,0.));
#522=DIRECTION('',(0.,0.,1.));
#523=DIRECTION('center_axis',(0.,1.,0.));
#524=DIRECTION('ref_axis',(1.,0.,0.));
#525=DIRECTION('center_axis',(0.,1.,0.));
#526=DIRECTION('ref_axis',(1.,0.,0.));
#527=DIRECTION('',(0.857167300702112,-0.515038074910054,-1.04972719113862E-16));
#528=DIRECTION('center_axis',(0.,1.,0.));
#529=DIRECTION('ref_axis',(1.,0.,0.));
#530=DIRECTION('center_axis',(0.,-1.,0.));
#531=DIRECTION('ref_axis',(1.,0.,0.));
#532=DIRECTION('',(0.,-1.,0.));
#533=DIRECTION('center_axis',(-1.,0.,0.));
#534=DIRECTION('ref_axis',(0.,0.,1.));
#535=DIRECTION('center_axis',(-1.,0.,0.));
#536=DIRECTION('ref_axis',(0.,0.,1.));
#537=DIRECTION('',(0.515038074910054,1.04972719113862E-16,0.857167300702112));
#538=DIRECTION('center_axis',(-1.,0.,0.));
#539=DIRECTION('ref_axis',(0.,0.,1.));
#540=DIRECTION('center_axis',(1.,0.,0.));
#541=DIRECTION('ref_axis',(0.,0.,1.));
#542=DIRECTION('',(1.,0.,0.));
#543=DIRECTION('center_axis',(-1.,0.,0.));
#544=DIRECTION('ref_axis',(0.,0.,1.));
#545=DIRECTION('center_axis',(-1.,0.,0.));
#546=DIRECTION('ref_axis',(0.,0.,1.));
#547=DIRECTION('',(0.515038074910054,1.04972719113862E-16,0.857167300702112));
#548=DIRECTION('center_axis',(-1.,0.,0.));
#549=DIRECTION('ref_axis',(0.,0.,1.));
#550=DIRECTION('center_axis',(1.,0.,0.));
#551=DIRECTION('ref_axis',(0.,0.,1.));
#552=DIRECTION('',(1.,0.,0.));
#553=DIRECTION('center_axis',(-1.,0.,0.));
#554=DIRECTION('ref_axis',(0.,0.,1.));
#555=DIRECTION('',(0.,-1.,0.));
#556=DIRECTION('',(0.,0.,1.));
#557=DIRECTION('',(0.,0.,-1.));
#558=DIRECTION('center_axis',(0.,-1.,0.));
#559=DIRECTION('ref_axis',(0.,0.,-1.));
#560=DIRECTION('',(-1.,0.,0.));
#561=DIRECTION('',(0.,0.,-1.));
#562=DIRECTION('center_axis',(0.,1.,0.));
#563=DIRECTION('ref_axis',(0.,0.,1.));
#564=DIRECTION('',(0.,0.,1.));
#565=DIRECTION('',(1.,0.,0.));
#566=DIRECTION('center_axis',(0.,0.,-1.));
#567=DIRECTION('ref_axis',(0.,1.,0.));
#568=DIRECTION('',(0.,1.,0.));
#569=DIRECTION('center_axis',(1.,0.,0.));
#570=DIRECTION('ref_axis',(0.,0.,-1.));
#571=CARTESIAN_POINT('',(0.,0.,0.));
#572=CARTESIAN_POINT('Origin',(77.5,16.,12.4));
#573=CARTESIAN_POINT('',(79.2,16.,12.5));
#574=CARTESIAN_POINT('Origin',(77.5,16.,12.5));
#575=CARTESIAN_POINT('',(79.,16.,12.3));
#576=CARTESIAN_POINT('',(79.1,16.,12.4));
#577=CARTESIAN_POINT('',(76.,16.,12.3));
#578=CARTESIAN_POINT('Origin',(77.5,16.,12.3));
#579=CARTESIAN_POINT('Origin',(77.5,16.,12.3));
#580=CARTESIAN_POINT('Origin',(77.5,16.,8.5));
#581=CARTESIAN_POINT('',(76.,16.,4.5));
#582=CARTESIAN_POINT('',(76.,16.,8.5));
#583=CARTESIAN_POINT('Origin',(77.5,16.,4.5));
#584=CARTESIAN_POINT('',(76.2705,16.8592611651879,7.5));
#585=CARTESIAN_POINT('Ctrl Pts',(76.2705,16.8592611651879,7.5));
#586=CARTESIAN_POINT('Ctrl Pts',(76.2705,16.8592611651879,7.58477671340143));
#587=CARTESIAN_POINT('Ctrl Pts',(76.2792952920639,16.8721694192411,7.66828436833805));
#588=CARTESIAN_POINT('Ctrl Pts',(76.3126447641056,16.9170336792171,7.82963967451673));
#589=CARTESIAN_POINT('Ctrl Pts',(76.3372208922668,16.9488125617335,7.90753198551099));
#590=CARTESIAN_POINT('Ctrl Pts',(76.431708689166,17.0573343335865,8.12951819792181));
#591=CARTESIAN_POINT('Ctrl Pts',(76.523502624076,17.1461800798369,8.26227819901368));
#592=CARTESIAN_POINT('Ctrl Pts',(76.7338248038003,17.2957689727049,8.47260037873802));
#593=CARTESIAN_POINT('Ctrl Pts',(76.8665775221724,17.3689710376988,8.56642670412584));
#594=CARTESIAN_POINT('Ctrl Pts',(77.1678020349452,17.4713770325714,8.69504586044084));
#595=CARTESIAN_POINT('Ctrl Pts',(77.3366154814775,17.5,8.7295));
#596=CARTESIAN_POINT('Ctrl Pts',(77.6633845185225,17.5,8.7295));
#597=CARTESIAN_POINT('Ctrl Pts',(77.8321979650548,17.4713770325714,8.69504586044084));
#598=CARTESIAN_POINT('Ctrl Pts',(78.1334224778276,17.3689710376988,8.56642670412583));
#599=CARTESIAN_POINT('Ctrl Pts',(78.2661751961997,17.2957689727049,8.47260037873802));
#600=CARTESIAN_POINT('Ctrl Pts',(78.476497375924,17.1461800798369,8.26227819901368));
#601=CARTESIAN_POINT('Ctrl Pts',(78.568291310834,17.0573343335865,8.12951819792181));
#602=CARTESIAN_POINT('Ctrl Pts',(78.6627791077332,16.9488125617335,7.90753198551099));
#603=CARTESIAN_POINT('Ctrl Pts',(78.6873552358944,16.9170336792171,7.82963967451673));
#604=CARTESIAN_POINT('Ctrl Pts',(78.7207047079361,16.8721694192411,7.66828436833805));
#605=CARTESIAN_POINT('Ctrl Pts',(78.7295,16.8592611651879,7.58477671340143));
#606=CARTESIAN_POINT('Ctrl Pts',(78.7295,16.8592611651879,7.41522328659856));
#607=CARTESIAN_POINT('Ctrl Pts',(78.7207047079361,16.8721694192411,7.33171563166195));
#608=CARTESIAN_POINT('Ctrl Pts',(78.6873552358944,16.9170336792171,7.17036032548327));
#609=CARTESIAN_POINT('Ctrl Pts',(78.6627791077332,16.9488125617335,7.09246801448901));
#610=CARTESIAN_POINT('Ctrl Pts',(78.568291310834,17.0573343335865,6.87048180207819));
#611=CARTESIAN_POINT('Ctrl Pts',(78.476497375924,17.1461800798369,6.73772180098632));
#612=CARTESIAN_POINT('Ctrl Pts',(78.2661751961997,17.2957689727049,6.52739962126198));
#613=CARTESIAN_POINT('Ctrl Pts',(78.1334224778276,17.3689710376988,6.43357329587416));
#614=CARTESIAN_POINT('Ctrl Pts',(77.8321979650548,17.4713770325714,6.30495413955916));
#615=CARTESIAN_POINT('Ctrl Pts',(77.6633845185225,17.5,6.2705));
#616=CARTESIAN_POINT('Ctrl Pts',(77.3366154814775,17.5,6.2705));
#617=CARTESIAN_POINT('Ctrl Pts',(77.1678020349452,17.4713770325714,6.30495413955916));
#618=CARTESIAN_POINT('Ctrl Pts',(76.8665775221724,17.3689710376988,6.43357329587416));
#619=CARTESIAN_POINT('Ctrl Pts',(76.7338248038003,17.2957689727049,6.52739962126198));
#620=CARTESIAN_POINT('Ctrl Pts',(76.523502624076,17.1461800798369,6.73772180098632));
#621=CARTESIAN_POINT('Ctrl Pts',(76.431708689166,17.0573343335865,6.87048180207819));
#622=CARTESIAN_POINT('Ctrl Pts',(76.3372208922668,16.9488125617335,7.09246801448901));
#623=CARTESIAN_POINT('Ctrl Pts',(76.3126447641056,16.9170336792171,7.17036032548327));
#624=CARTESIAN_POINT('Ctrl Pts',(76.2792952920639,16.8721694192411,7.33171563166195));
#625=CARTESIAN_POINT('Ctrl Pts',(76.2705,16.8592611651879,7.41522328659857));
#626=CARTESIAN_POINT('Ctrl Pts',(76.2705,16.8592611651879,7.5));
#627=CARTESIAN_POINT('Origin',(0.,20.,12.5));
#628=CARTESIAN_POINT('',(-172.5,-20.,12.5));
#629=CARTESIAN_POINT('',(172.5,-20.,12.5));
#630=CARTESIAN_POINT('',(0.,-20.,12.5));
#631=CARTESIAN_POINT('',(172.5,20.,12.5));
#632=CARTESIAN_POINT('',(172.5,20.,12.5));
#633=CARTESIAN_POINT('',(-172.5,20.,12.5));
#634=CARTESIAN_POINT('',(0.,20.,12.5));
#635=CARTESIAN_POINT('',(-172.5,20.,12.5));
#636=CARTESIAN_POINT('',(81.2705,-1.50570323955167E-16,12.5));
#637=CARTESIAN_POINT('Origin',(82.5,0.,12.5));
#638=CARTESIAN_POINT('Origin',(77.5,18.,7.5));
#639=CARTESIAN_POINT('',(76.2705,20.,7.5));
#640=CARTESIAN_POINT('Origin',(77.5,20.,7.5));
#641=CARTESIAN_POINT('',(76.2705,18.,7.5));
#642=CARTESIAN_POINT('Origin',(77.5,16.,4.5));
#643=CARTESIAN_POINT('Origin',(82.5,0.,2.13062093445281));
#644=CARTESIAN_POINT('',(81.2705,-1.50570323955167E-16,2.5));
#645=CARTESIAN_POINT('Origin',(82.5,0.,2.5));
#646=CARTESIAN_POINT('',(82.5,0.,1.76124186890561));
#647=CARTESIAN_POINT('',(81.88525,-7.52851619775835E-17,2.13062093445281));
#648=CARTESIAN_POINT('Origin',(82.5,0.,7.5));
#649=CARTESIAN_POINT('',(81.2705,-1.50570323955167E-16,7.5));
#650=CARTESIAN_POINT('Origin',(155.501519866331,10.,0.));
#651=CARTESIAN_POINT('',(156.5,10.,3.3235));
#652=CARTESIAN_POINT('Origin',(156.5,10.,0.));
#653=CARTESIAN_POINT('',(154.503039732662,10.,0.));
#654=CARTESIAN_POINT('',(155.501519866331,10.,1.66175));
#655=CARTESIAN_POINT('Origin',(164.5,10.,0.));
#656=CARTESIAN_POINT('',(172.5,10.,3.3235));
#657=CARTESIAN_POINT('Origin',(172.5,10.,0.));
#658=CARTESIAN_POINT('',(164.5,10.,3.3235));
#659=CARTESIAN_POINT('Origin',(155.501519866331,-10.,0.));
#660=CARTESIAN_POINT('',(156.5,-10.,3.3235));
#661=CARTESIAN_POINT('Origin',(156.5,-10.,0.));
#662=CARTESIAN_POINT('',(154.503039732662,-10.,0.));
#663=CARTESIAN_POINT('',(155.501519866331,-10.,1.66175));
#664=CARTESIAN_POINT('Origin',(164.5,-10.,0.));
#665=CARTESIAN_POINT('',(172.5,-10.,3.3235));
#666=CARTESIAN_POINT('Origin',(172.5,-10.,0.));
#667=CARTESIAN_POINT('',(164.5,-10.,3.3235));
#668=CARTESIAN_POINT('Origin',(-152.5,0.,8.75820213624371));
#669=CARTESIAN_POINT('',(-148.312,-5.12882079482912E-16,7.5));
#670=CARTESIAN_POINT('Origin',(-152.5,0.,7.5));
#671=CARTESIAN_POINT('',(-152.5,0.,10.0164042724874));
#672=CARTESIAN_POINT('',(-150.406,-2.56441039741456E-16,8.75820213624371));
#673=CARTESIAN_POINT('Origin',(-152.5,0.,-2.5));
#674=CARTESIAN_POINT('',(-148.312,-5.12882079482912E-16,-12.5));
#675=CARTESIAN_POINT('Origin',(-152.5,0.,-12.5));
#676=CARTESIAN_POINT('',(-148.312,-5.12882079482912E-16,-2.5));
#677=CARTESIAN_POINT('Origin',(108.21157828,3.74179786375629,-2.5));
#678=CARTESIAN_POINT('',(104.02357828,5.,-2.5));
#679=CARTESIAN_POINT('Origin',(108.21157828,5.,-2.5));
#680=CARTESIAN_POINT('',(108.21157828,2.48359572751258,-2.5));
#681=CARTESIAN_POINT('',(106.11757828,3.74179786375629,-2.5));
#682=CARTESIAN_POINT('Origin',(108.21157828,12.5,-2.5));
#683=CARTESIAN_POINT('',(104.02357828,20.,-2.5));
#684=CARTESIAN_POINT('Origin',(108.21157828,20.,-2.5));
#685=CARTESIAN_POINT('',(104.02357828,12.5,-2.5));
#686=CARTESIAN_POINT('Origin',(-151.76139208406,10.,0.));
#687=CARTESIAN_POINT('',(-152.5,10.,-2.4585));
#688=CARTESIAN_POINT('Origin',(-152.5,10.,0.));
#689=CARTESIAN_POINT('',(-151.022784168121,10.,0.));
#690=CARTESIAN_POINT('',(-151.76139208406,10.,-1.22925));
#691=CARTESIAN_POINT('Origin',(-162.5,10.,0.));
#692=CARTESIAN_POINT('',(-172.5,10.,-2.4585));
#693=CARTESIAN_POINT('Origin',(-172.5,10.,0.));
#694=CARTESIAN_POINT('',(-162.5,10.,-2.4585));
#695=CARTESIAN_POINT('Origin',(-151.76139208406,-10.,0.));
#696=CARTESIAN_POINT('',(-152.5,-10.,-2.4585));
#697=CARTESIAN_POINT('Origin',(-152.5,-10.,0.));
#698=CARTESIAN_POINT('',(-151.022784168121,-10.,0.));
#699=CARTESIAN_POINT('',(-151.76139208406,-10.,-1.22925));
#700=CARTESIAN_POINT('Origin',(-162.5,-10.,0.));
#701=CARTESIAN_POINT('',(-172.5,-10.,-2.4585));
#702=CARTESIAN_POINT('Origin',(-172.5,-10.,0.));
#703=CARTESIAN_POINT('',(-162.5,-10.,-2.4585));
#704=CARTESIAN_POINT('Origin',(-172.5,0.,0.));
#705=CARTESIAN_POINT('',(-172.5,20.,-12.5));
#706=CARTESIAN_POINT('',(-172.5,-20.,-12.5));
#707=CARTESIAN_POINT('',(-172.5,-20.,-12.5));
#708=CARTESIAN_POINT('',(-172.5,-20.,12.5));
#709=CARTESIAN_POINT('',(-172.5,20.,-12.5));
#710=CARTESIAN_POINT('Origin',(0.,-20.,12.5));
#711=CARTESIAN_POINT('',(172.5,-20.,-12.5));
#712=CARTESIAN_POINT('',(0.,-20.,-12.5));
#713=CARTESIAN_POINT('',(172.5,-20.,12.5));
#714=CARTESIAN_POINT('Origin',(0.,20.,-12.5));
#715=CARTESIAN_POINT('',(172.5,20.,-12.5));
#716=CARTESIAN_POINT('',(172.5,20.,-12.5));
#717=CARTESIAN_POINT('',(0.,20.,-12.5));
#718=CARTESIAN_POINT('Origin',(0.,-20.,-12.5));
#719=CARTESIAN_POINT('',(172.5,-20.,-12.5));
#720=CARTESIAN_POINT('Origin',(172.5,0.,0.));
#721=UNCERTAINTY_MEASURE_WITH_UNIT(LENGTH_MEASURE(0.01),#725,
'DISTANCE_ACCURACY_VALUE',
'Maximum model space distance between geometric entities at asserted c
onnectivities');
#722=UNCERTAINTY_MEASURE_WITH_UNIT(LENGTH_MEASURE(0.01),#725,
'DISTANCE_ACCURACY_VALUE',
'Maximum model space distance between geometric entities at asserted c
onnectivities');
#723=(
GEOMETRIC_REPRESENTATION_CONTEXT(3)
GLOBAL_UNCERTAINTY_ASSIGNED_CONTEXT((#721))
GLOBAL_UNIT_ASSIGNED_CONTEXT((#725,#727,#728))
REPRESENTATION_CONTEXT('','3D')
);
#724=(
GEOMETRIC_REPRESENTATION_CONTEXT(3)
GLOBAL_UNCERTAINTY_ASSIGNED_CONTEXT((#722))
GLOBAL_UNIT_ASSIGNED_CONTEXT((#725,#727,#728))
REPRESENTATION_CONTEXT('','3D')
);
#725=(
LENGTH_UNIT()
NAMED_UNIT(*)
SI_UNIT(.MILLI.,.METRE.)
);
#726=(
LENGTH_UNIT()
NAMED_UNIT(*)
SI_UNIT(.CENTI.,.METRE.)
);
#727=(
NAMED_UNIT(*)
PLANE_ANGLE_UNIT()
SI_UNIT($,.RADIAN.)
);
#728=(
NAMED_UNIT(*)
SI_UNIT($,.STERADIAN.)
SOLID_ANGLE_UNIT()
);
#729=SHAPE_DEFINITION_REPRESENTATION(#730,#731);
#730=PRODUCT_DEFINITION_SHAPE('',$,#733);
#731=SHAPE_REPRESENTATION('',(#410),#723);
#732=PRODUCT_DEFINITION_CONTEXT('part definition',#737,'design');
#733=PRODUCT_DEFINITION('Main Piller','Main Piller',#734,#732);
#734=PRODUCT_DEFINITION_FORMATION('',$,#739);
#735=PRODUCT_RELATED_PRODUCT_CATEGORY('Main Piller','Main Piller',(#739));
#736=APPLICATION_PROTOCOL_DEFINITION('international standard',
'automotive_design',2009,#737);
#737=APPLICATION_CONTEXT(
'Core Data for Automotive Mechanical Design Process');
#738=PRODUCT_CONTEXT('part definition',#737,'mechanical');
#739=PRODUCT('Main Piller','Main Piller',$,(#738));
#740=PRESENTATION_STYLE_ASSIGNMENT((#741));
#741=SURFACE_STYLE_USAGE(.BOTH.,#744);
#742=SURFACE_STYLE_RENDERING_WITH_PROPERTIES($,#748,(#743));
#743=SURFACE_STYLE_TRANSPARENT(0.);
#744=SURFACE_SIDE_STYLE('',(#745,#742));
#745=SURFACE_STYLE_FILL_AREA(#746);
#746=FILL_AREA_STYLE('',(#747));
#747=FILL_AREA_STYLE_COLOUR('',#748);
#748=COLOUR_RGB('',0.796078431372549,0.603921568627451,0.231372549019608);
ENDSEC;
END-ISO-10303-21;
