ISO-10303-21;
HEADER;
/* Generated by software containing ST-Developer
 * from STEP Tools, Inc. (www.steptools.com) 
 */

FILE_DESCRIPTION(
/* description */ (''),
/* implementation_level */ '2;1');

FILE_NAME(
/* name */ 
'S:\\Future Scope 1\\WIP\\Client Category\\Tom\\02 Progressive Work\\P
endulum Arm.stp',
/* time_stamp */ '2025-11-05T12:14:35+06:00',
/* author */ ('SD'),
/* organization */ (''),
/* preprocessor_version */ 'ST-DEVELOPER v18.1',
/* originating_system */ 'Autodesk Inventor 2021',
/* authorisation */ '');

FILE_SCHEMA (('AUTOMOTIVE_DESIGN { 1 0 10303 214 3 1 1 }'));
ENDSEC;

DATA;
#10=MECHANICAL_DESIGN_GEOMETRIC_PRESENTATION_REPRESENTATION('',(#13),#255);
#11=SHAPE_REPRESENTATION_RELATIONSHIP('SRR','None',#262,#12);
#12=ADVANCED_BREP_SHAPE_REPRESENTATION('',(#14),#254);
#13=STYLED_ITEM('',(#271),#14);
#14=MANIFOLD_SOLID_BREP('Solid1',#102);
#15=FACE_BOUND('',#32,.T.);
#16=PLANE('',#127);
#17=PLANE('',#130);
#18=CIRCLE('',#124,1.4);
#19=CIRCLE('',#125,1.5);
#20=CIRCLE('',#126,1.5);
#21=CIRCLE('',#129,1.5);
#22=CONICAL_SURFACE('',#123,1.45,0.785398163397459);
#23=FACE_OUTER_BOUND('',#28,.T.);
#24=FACE_OUTER_BOUND('',#29,.T.);
#25=FACE_OUTER_BOUND('',#30,.T.);
#26=FACE_OUTER_BOUND('',#31,.T.);
#27=FACE_OUTER_BOUND('',#33,.T.);
#28=EDGE_LOOP('',(#69,#70,#71,#72,#73,#74,#75));
#29=EDGE_LOOP('',(#76,#77,#78,#79,#80));
#30=EDGE_LOOP('',(#81));
#31=EDGE_LOOP('',(#82,#83,#84,#85,#86,#87,#88,#89,#90,#91));
#32=EDGE_LOOP('',(#92,#93));
#33=EDGE_LOOP('',(#94));
#34=LINE('',#199,#38);
#35=LINE('',#241,#39);
#36=LINE('',#249,#40);
#37=LINE('',#250,#41);
#38=VECTOR('',#135,0.5);
#39=VECTOR('',#140,1.45);
#40=VECTOR('',#151,1.5);
#41=VECTOR('',#152,1.5);
#42=B_SPLINE_CURVE_WITH_KNOTS('',3,(#159,#160,#161,#162,#163,#164,#165,
#166,#167,#168),.UNSPECIFIED.,.F.,.F.,(4,2,2,2,4),(0.,0.0189969090611843,
0.0379938181223685,0.0569819164024713,0.075970014682574),.UNSPECIFIED.);
#43=B_SPLINE_CURVE_WITH_KNOTS('',3,(#170,#171,#172,#173,#174,#175,#176,
#177,#178,#179),.UNSPECIFIED.,.F.,.F.,(4,2,2,2,4),(0.227910044047722,0.246898142327825,
0.265886240607927,0.284883149669112,0.303880058730296),.UNSPECIFIED.);
#44=B_SPLINE_CURVE_WITH_KNOTS('',3,(#180,#181,#182,#183,#184,#185,#186,
#187,#188,#189,#190,#191,#192,#193,#194,#195,#196,#197),.UNSPECIFIED.,.F.,
 .F.,(4,2,2,2,2,2,2,2,4),(0.075970014682574,0.0949581129626767,0.113946211242779,
0.132943120303964,0.151940029365148,0.170936938426332,0.189933847487516,
0.208921945767619,0.227910044047722),.UNSPECIFIED.);
#45=B_SPLINE_CURVE_WITH_KNOTS('',3,(#201,#202,#203,#204,#205,#206,#207,
#208,#209,#210,#211,#212,#213,#214,#215,#216,#217,#218,#219,#220,#221,#222,
#223,#224,#225,#226),.UNSPECIFIED.,.F.,.F.,(4,2,2,2,2,2,2,2,2,2,2,2,4),
(0.,0.0189969090611843,0.0379938181223685,0.0569819164024713,0.075970014682574,
0.0949581129626767,0.113946211242779,0.132943120303964,0.151940029365148,
0.170936938426332,0.189933847487516,0.208921945767619,0.227910044047722),
 .UNSPECIFIED.);
#46=B_SPLINE_CURVE_WITH_KNOTS('',3,(#227,#228,#229,#230,#231,#232,#233,
#234,#235,#236),.UNSPECIFIED.,.F.,.F.,(4,2,2,2,4),(0.227910044047722,0.246898142327825,
0.265886240607927,0.284883149669112,0.303880058730296),.UNSPECIFIED.);
#47=VERTEX_POINT('',#157);
#48=VERTEX_POINT('',#158);
#49=VERTEX_POINT('',#169);
#50=VERTEX_POINT('',#198);
#51=VERTEX_POINT('',#200);
#52=VERTEX_POINT('',#238);
#53=VERTEX_POINT('',#240);
#54=VERTEX_POINT('',#242);
#55=VERTEX_POINT('',#247);
#56=EDGE_CURVE('',#47,#48,#42,.T.);
#57=EDGE_CURVE('',#49,#47,#43,.T.);
#58=EDGE_CURVE('',#48,#49,#44,.T.);
#59=EDGE_CURVE('',#48,#50,#34,.T.);
#60=EDGE_CURVE('',#51,#50,#45,.T.);
#61=EDGE_CURVE('',#50,#51,#46,.T.);
#62=EDGE_CURVE('',#52,#52,#18,.T.);
#63=EDGE_CURVE('',#52,#53,#35,.T.);
#64=EDGE_CURVE('',#53,#54,#19,.T.);
#65=EDGE_CURVE('',#54,#53,#20,.T.);
#66=EDGE_CURVE('',#55,#55,#21,.T.);
#67=EDGE_CURVE('',#55,#49,#36,.T.);
#68=EDGE_CURVE('',#48,#54,#37,.T.);
#69=ORIENTED_EDGE('',*,*,#56,.F.);
#70=ORIENTED_EDGE('',*,*,#57,.F.);
#71=ORIENTED_EDGE('',*,*,#58,.F.);
#72=ORIENTED_EDGE('',*,*,#59,.T.);
#73=ORIENTED_EDGE('',*,*,#60,.F.);
#74=ORIENTED_EDGE('',*,*,#61,.F.);
#75=ORIENTED_EDGE('',*,*,#59,.F.);
#76=ORIENTED_EDGE('',*,*,#62,.T.);
#77=ORIENTED_EDGE('',*,*,#63,.T.);
#78=ORIENTED_EDGE('',*,*,#64,.T.);
#79=ORIENTED_EDGE('',*,*,#65,.T.);
#80=ORIENTED_EDGE('',*,*,#63,.F.);
#81=ORIENTED_EDGE('',*,*,#62,.F.);
#82=ORIENTED_EDGE('',*,*,#66,.F.);
#83=ORIENTED_EDGE('',*,*,#67,.T.);
#84=ORIENTED_EDGE('',*,*,#57,.T.);
#85=ORIENTED_EDGE('',*,*,#56,.T.);
#86=ORIENTED_EDGE('',*,*,#68,.T.);
#87=ORIENTED_EDGE('',*,*,#64,.F.);
#88=ORIENTED_EDGE('',*,*,#65,.F.);
#89=ORIENTED_EDGE('',*,*,#68,.F.);
#90=ORIENTED_EDGE('',*,*,#58,.T.);
#91=ORIENTED_EDGE('',*,*,#67,.F.);
#92=ORIENTED_EDGE('',*,*,#60,.T.);
#93=ORIENTED_EDGE('',*,*,#61,.T.);
#94=ORIENTED_EDGE('',*,*,#66,.T.);
#95=CYLINDRICAL_SURFACE('',#122,0.5);
#96=CYLINDRICAL_SURFACE('',#128,1.5);
#97=ADVANCED_FACE('',(#23),#95,.F.);
#98=ADVANCED_FACE('',(#24),#22,.T.);
#99=ADVANCED_FACE('',(#25),#16,.F.);
#100=ADVANCED_FACE('',(#26,#15),#96,.T.);
#101=ADVANCED_FACE('',(#27),#17,.T.);
#102=CLOSED_SHELL('',(#97,#98,#99,#100,#101));
#103=DERIVED_UNIT_ELEMENT(#105,1.);
#104=DERIVED_UNIT_ELEMENT(#257,3.);
#105=(
MASS_UNIT()
NAMED_UNIT(*)
SI_UNIT($,.GRAM.)
);
#106=DERIVED_UNIT((#103,#104));
#107=MEASURE_REPRESENTATION_ITEM('density measure',
POSITIVE_RATIO_MEASURE(8.874),#106);
#108=PROPERTY_DEFINITION_REPRESENTATION(#113,#110);
#109=PROPERTY_DEFINITION_REPRESENTATION(#114,#111);
#110=REPRESENTATION('material name',(#112),#254);
#111=REPRESENTATION('density',(#107),#254);
#112=DESCRIPTIVE_REPRESENTATION_ITEM('Bronze, Soft Tin',
'Bronze, Soft Tin');
#113=PROPERTY_DEFINITION('material property','material name',#264);
#114=PROPERTY_DEFINITION('material property','density of part',#264);
#115=DATE_TIME_ROLE('creation_date');
#116=APPLIED_DATE_AND_TIME_ASSIGNMENT(#117,#115,(#264));
#117=DATE_AND_TIME(#118,#119);
#118=CALENDAR_DATE(2025,16,9);
#119=LOCAL_TIME(0,0,0.,#120);
#120=COORDINATED_UNIVERSAL_TIME_OFFSET(0,0,.BEHIND.);
#121=AXIS2_PLACEMENT_3D('placement',#155,#131,#132);
#122=AXIS2_PLACEMENT_3D('',#156,#133,#134);
#123=AXIS2_PLACEMENT_3D('',#237,#136,#137);
#124=AXIS2_PLACEMENT_3D('',#239,#138,#139);
#125=AXIS2_PLACEMENT_3D('',#243,#141,#142);
#126=AXIS2_PLACEMENT_3D('',#244,#143,#144);
#127=AXIS2_PLACEMENT_3D('',#245,#145,#146);
#128=AXIS2_PLACEMENT_3D('',#246,#147,#148);
#129=AXIS2_PLACEMENT_3D('',#248,#149,#150);
#130=AXIS2_PLACEMENT_3D('',#251,#153,#154);
#131=DIRECTION('axis',(0.,0.,1.));
#132=DIRECTION('refdir',(1.,0.,0.));
#133=DIRECTION('center_axis',(1.,0.,0.));
#134=DIRECTION('ref_axis',(0.,1.,0.));
#135=DIRECTION('',(-1.,0.,0.));
#136=DIRECTION('center_axis',(0.,1.,0.));
#137=DIRECTION('ref_axis',(1.,0.,0.));
#138=DIRECTION('center_axis',(0.,1.,0.));
#139=DIRECTION('ref_axis',(1.,0.,0.));
#140=DIRECTION('',(-0.707106781186555,0.70710678118654,-8.65956056235503E-17));
#141=DIRECTION('center_axis',(0.,-1.,0.));
#142=DIRECTION('ref_axis',(1.,0.,0.));
#143=DIRECTION('center_axis',(0.,-1.,0.));
#144=DIRECTION('ref_axis',(1.,0.,0.));
#145=DIRECTION('center_axis',(0.,1.,0.));
#146=DIRECTION('ref_axis',(0.,0.,1.));
#147=DIRECTION('center_axis',(0.,1.,0.));
#148=DIRECTION('ref_axis',(-1.,0.,0.));
#149=DIRECTION('center_axis',(0.,1.,0.));
#150=DIRECTION('ref_axis',(-1.,0.,0.));
#151=DIRECTION('',(0.,-1.,0.));
#152=DIRECTION('',(0.,-1.,0.));
#153=DIRECTION('center_axis',(0.,1.,0.));
#154=DIRECTION('ref_axis',(0.,0.,1.));
#155=CARTESIAN_POINT('',(0.,0.,0.));
#156=CARTESIAN_POINT('Origin',(0.,-41.,0.));
#157=CARTESIAN_POINT('',(1.4142135623731,-41.,-0.5));
#158=CARTESIAN_POINT('',(1.5,-41.5,-6.12323399573677E-17));
#159=CARTESIAN_POINT('Ctrl Pts',(1.4142135623731,-41.,-0.5));
#160=CARTESIAN_POINT('Ctrl Pts',(1.4142135623731,-41.0633230302039,-0.5));
#161=CARTESIAN_POINT('Ctrl Pts',(1.41891339143563,-41.1305009867318,-0.487245169634408));
#162=CARTESIAN_POINT('Ctrl Pts',(1.43546520638116,-41.2535265899788,-0.43607645381318));
#163=CARTESIAN_POINT('Ctrl Pts',(1.44703442803149,-41.3094215411867,-0.397685239999852));
#164=CARTESIAN_POINT('Ctrl Pts',(1.46843655507841,-41.3976647716141,-0.309442009572505));
#165=CARTESIAN_POINT('Ctrl Pts',(1.4797184776517,-41.4360717430583,-0.253538905978701));
#166=CARTESIAN_POINT('Ctrl Pts',(1.49560118971728,-41.4872522104015,-0.130483068610428));
#167=CARTESIAN_POINT('Ctrl Pts',(1.5,-41.5,-0.0632936609336757));
#168=CARTESIAN_POINT('Ctrl Pts',(1.5,-41.5,7.80625564189563E-17));
#169=CARTESIAN_POINT('',(1.5,-40.5,-1.04858936005878E-16));
#170=CARTESIAN_POINT('Ctrl Pts',(1.5,-40.5,-2.60208521396521E-17));
#171=CARTESIAN_POINT('Ctrl Pts',(1.5,-40.5,-0.0632936609336757));
#172=CARTESIAN_POINT('Ctrl Pts',(1.49560118971728,-40.5127477895985,-0.130483068610428));
#173=CARTESIAN_POINT('Ctrl Pts',(1.4797184776517,-40.5639282569417,-0.253538905978701));
#174=CARTESIAN_POINT('Ctrl Pts',(1.46843655507841,-40.602335228386,-0.309442009572505));
#175=CARTESIAN_POINT('Ctrl Pts',(1.44703442803149,-40.6905784588133,-0.397685239999852));
#176=CARTESIAN_POINT('Ctrl Pts',(1.43546520638116,-40.7464734100212,-0.43607645381318));
#177=CARTESIAN_POINT('Ctrl Pts',(1.41891339143563,-40.8694990132683,-0.487245169634408));
#178=CARTESIAN_POINT('Ctrl Pts',(1.4142135623731,-40.9366769697961,-0.5));
#179=CARTESIAN_POINT('Ctrl Pts',(1.4142135623731,-41.,-0.5));
#180=CARTESIAN_POINT('Ctrl Pts',(1.5,-41.5,7.80625564189563E-17));
#181=CARTESIAN_POINT('Ctrl Pts',(1.5,-41.5,0.0632936609336758));
#182=CARTESIAN_POINT('Ctrl Pts',(1.49560118971728,-41.4872522104015,0.130483068610428));
#183=CARTESIAN_POINT('Ctrl Pts',(1.4797184776517,-41.4360717430583,0.253538905978701));
#184=CARTESIAN_POINT('Ctrl Pts',(1.46843655507841,-41.3976647716141,0.309442009572505));
#185=CARTESIAN_POINT('Ctrl Pts',(1.44703442803149,-41.3094215411867,0.397685239999852));
#186=CARTESIAN_POINT('Ctrl Pts',(1.43546520638116,-41.2535265899788,0.43607645381318));
#187=CARTESIAN_POINT('Ctrl Pts',(1.41891339143563,-41.1305009867318,0.487245169634408));
#188=CARTESIAN_POINT('Ctrl Pts',(1.4142135623731,-41.0633230302039,0.5));
#189=CARTESIAN_POINT('Ctrl Pts',(1.4142135623731,-40.9366769697961,0.5));
#190=CARTESIAN_POINT('Ctrl Pts',(1.41891339143563,-40.8694990132683,0.487245169634408));
#191=CARTESIAN_POINT('Ctrl Pts',(1.43546520638116,-40.7464734100212,0.43607645381318));
#192=CARTESIAN_POINT('Ctrl Pts',(1.44703442803149,-40.6905784588133,0.397685239999852));
#193=CARTESIAN_POINT('Ctrl Pts',(1.46843655507841,-40.602335228386,0.309442009572505));
#194=CARTESIAN_POINT('Ctrl Pts',(1.4797184776517,-40.5639282569417,0.253538905978701));
#195=CARTESIAN_POINT('Ctrl Pts',(1.49560118971728,-40.5127477895985,0.130483068610428));
#196=CARTESIAN_POINT('Ctrl Pts',(1.5,-40.5,0.0632936609336758));
#197=CARTESIAN_POINT('Ctrl Pts',(1.5,-40.5,-2.60208521396521E-17));
#198=CARTESIAN_POINT('',(-1.5,-41.5,-6.12323399573677E-17));
#199=CARTESIAN_POINT('',(0.,-41.5,-6.12323399573677E-17));
#200=CARTESIAN_POINT('',(-1.4142135623731,-41.,-0.5));
#201=CARTESIAN_POINT('Ctrl Pts',(-1.4142135623731,-41.,-0.5));
#202=CARTESIAN_POINT('Ctrl Pts',(-1.4142135623731,-40.9366769697961,-0.5));
#203=CARTESIAN_POINT('Ctrl Pts',(-1.41891339143563,-40.8694990132683,-0.487245169634408));
#204=CARTESIAN_POINT('Ctrl Pts',(-1.43546520638116,-40.7464734100212,-0.43607645381318));
#205=CARTESIAN_POINT('Ctrl Pts',(-1.44703442803149,-40.6905784588133,-0.397685239999852));
#206=CARTESIAN_POINT('Ctrl Pts',(-1.46843655507841,-40.602335228386,-0.309442009572505));
#207=CARTESIAN_POINT('Ctrl Pts',(-1.4797184776517,-40.5639282569417,-0.253538905978701));
#208=CARTESIAN_POINT('Ctrl Pts',(-1.49560118971728,-40.5127477895985,-0.130483068610428));
#209=CARTESIAN_POINT('Ctrl Pts',(-1.5,-40.5,-0.0632936609336757));
#210=CARTESIAN_POINT('Ctrl Pts',(-1.5,-40.5,0.0632936609336757));
#211=CARTESIAN_POINT('Ctrl Pts',(-1.49560118971728,-40.5127477895985,0.130483068610428));
#212=CARTESIAN_POINT('Ctrl Pts',(-1.4797184776517,-40.5639282569417,0.253538905978701));
#213=CARTESIAN_POINT('Ctrl Pts',(-1.46843655507841,-40.602335228386,0.309442009572505));
#214=CARTESIAN_POINT('Ctrl Pts',(-1.44703442803149,-40.6905784588133,0.397685239999852));
#215=CARTESIAN_POINT('Ctrl Pts',(-1.43546520638116,-40.7464734100212,0.43607645381318));
#216=CARTESIAN_POINT('Ctrl Pts',(-1.41891339143563,-40.8694990132683,0.487245169634408));
#217=CARTESIAN_POINT('Ctrl Pts',(-1.4142135623731,-40.9366769697961,0.5));
#218=CARTESIAN_POINT('Ctrl Pts',(-1.4142135623731,-41.0633230302039,0.5));
#219=CARTESIAN_POINT('Ctrl Pts',(-1.41891339143563,-41.1305009867318,0.487245169634408));
#220=CARTESIAN_POINT('Ctrl Pts',(-1.43546520638116,-41.2535265899788,0.43607645381318));
#221=CARTESIAN_POINT('Ctrl Pts',(-1.44703442803149,-41.3094215411867,0.397685239999852));
#222=CARTESIAN_POINT('Ctrl Pts',(-1.46843655507841,-41.3976647716141,0.309442009572505));
#223=CARTESIAN_POINT('Ctrl Pts',(-1.4797184776517,-41.4360717430583,0.253538905978701));
#224=CARTESIAN_POINT('Ctrl Pts',(-1.49560118971728,-41.4872522104015,0.130483068610428));
#225=CARTESIAN_POINT('Ctrl Pts',(-1.5,-41.5,0.0632936609336758));
#226=CARTESIAN_POINT('Ctrl Pts',(-1.5,-41.5,8.67361737988404E-17));
#227=CARTESIAN_POINT('Ctrl Pts',(-1.5,-41.5,8.67361737988404E-17));
#228=CARTESIAN_POINT('Ctrl Pts',(-1.5,-41.5,-0.0632936609336757));
#229=CARTESIAN_POINT('Ctrl Pts',(-1.49560118971728,-41.4872522104015,-0.130483068610428));
#230=CARTESIAN_POINT('Ctrl Pts',(-1.4797184776517,-41.4360717430583,-0.253538905978701));
#231=CARTESIAN_POINT('Ctrl Pts',(-1.46843655507841,-41.3976647716141,-0.309442009572505));
#232=CARTESIAN_POINT('Ctrl Pts',(-1.44703442803149,-41.3094215411867,-0.397685239999852));
#233=CARTESIAN_POINT('Ctrl Pts',(-1.43546520638116,-41.2535265899788,-0.436076453813185));
#234=CARTESIAN_POINT('Ctrl Pts',(-1.41891339143563,-41.1305009867318,-0.48724516963441));
#235=CARTESIAN_POINT('Ctrl Pts',(-1.4142135623731,-41.0633230302039,-0.5));
#236=CARTESIAN_POINT('Ctrl Pts',(-1.4142135623731,-41.,-0.5));
#237=CARTESIAN_POINT('Origin',(0.,-45.95,0.));
#238=CARTESIAN_POINT('',(-1.4,-46.,1.71450551880629E-16));
#239=CARTESIAN_POINT('Origin',(0.,-46.,0.));
#240=CARTESIAN_POINT('',(-1.5,-45.9,-1.83697019872103E-16));
#241=CARTESIAN_POINT('',(-1.45,-45.95,-1.77573785876366E-16));
#242=CARTESIAN_POINT('',(1.5,-45.9,-1.83697019872103E-16));
#243=CARTESIAN_POINT('Origin',(0.,-45.9,0.));
#244=CARTESIAN_POINT('Origin',(0.,-45.9,0.));
#245=CARTESIAN_POINT('Origin',(0.,-46.,0.));
#246=CARTESIAN_POINT('Origin',(0.,0.,0.));
#247=CARTESIAN_POINT('',(1.5,46.,-1.83697019872103E-16));
#248=CARTESIAN_POINT('Origin',(0.,46.,0.));
#249=CARTESIAN_POINT('',(1.5,0.,-1.83697019872103E-16));
#250=CARTESIAN_POINT('',(1.5,0.,-1.83697019872103E-16));
#251=CARTESIAN_POINT('Origin',(0.,46.,0.));
#252=UNCERTAINTY_MEASURE_WITH_UNIT(LENGTH_MEASURE(0.01),#256,
'DISTANCE_ACCURACY_VALUE',
'Maximum model space distance between geometric entities at asserted c
onnectivities');
#253=UNCERTAINTY_MEASURE_WITH_UNIT(LENGTH_MEASURE(0.01),#256,
'DISTANCE_ACCURACY_VALUE',
'Maximum model space distance between geometric entities at asserted c
onnectivities');
#254=(
GEOMETRIC_REPRESENTATION_CONTEXT(3)
GLOBAL_UNCERTAINTY_ASSIGNED_CONTEXT((#252))
GLOBAL_UNIT_ASSIGNED_CONTEXT((#256,#258,#259))
REPRESENTATION_CONTEXT('','3D')
);
#255=(
GEOMETRIC_REPRESENTATION_CONTEXT(3)
GLOBAL_UNCERTAINTY_ASSIGNED_CONTEXT((#253))
GLOBAL_UNIT_ASSIGNED_CONTEXT((#256,#258,#259))
REPRESENTATION_CONTEXT('','3D')
);
#256=(
LENGTH_UNIT()
NAMED_UNIT(*)
SI_UNIT(.MILLI.,.METRE.)
);
#257=(
LENGTH_UNIT()
NAMED_UNIT(*)
SI_UNIT(.CENTI.,.METRE.)
);
#258=(
NAMED_UNIT(*)
PLANE_ANGLE_UNIT()
SI_UNIT($,.RADIAN.)
);
#259=(
NAMED_UNIT(*)
SI_UNIT($,.STERADIAN.)
SOLID_ANGLE_UNIT()
);
#260=SHAPE_DEFINITION_REPRESENTATION(#261,#262);
#261=PRODUCT_DEFINITION_SHAPE('',$,#264);
#262=SHAPE_REPRESENTATION('',(#121),#254);
#263=PRODUCT_DEFINITION_CONTEXT('part definition',#268,'design');
#264=PRODUCT_DEFINITION('Pendulum Arm','Pendulum Arm',#265,#263);
#265=PRODUCT_DEFINITION_FORMATION('',$,#270);
#266=PRODUCT_RELATED_PRODUCT_CATEGORY('Pendulum Arm','Pendulum Arm',(#270));
#267=APPLICATION_PROTOCOL_DEFINITION('international standard',
'automotive_design',2009,#268);
#268=APPLICATION_CONTEXT(
'Core Data for Automotive Mechanical Design Process');
#269=PRODUCT_CONTEXT('part definition',#268,'mechanical');
#270=PRODUCT('Pendulum Arm','Pendulum Arm',$,(#269));
#271=PRESENTATION_STYLE_ASSIGNMENT((#272));
#272=SURFACE_STYLE_USAGE(.BOTH.,#275);
#273=SURFACE_STYLE_RENDERING_WITH_PROPERTIES($,#279,(#274));
#274=SURFACE_STYLE_TRANSPARENT(0.);
#275=SURFACE_SIDE_STYLE('',(#276,#273));
#276=SURFACE_STYLE_FILL_AREA(#277);
#277=FILL_AREA_STYLE('',(#278));
#278=FILL_AREA_STYLE_COLOUR('',#279);
#279=COLOUR_RGB('',0.643137254901961,0.52156862745098,0.384313725490196);
ENDSEC;
END-ISO-10303-21;
