ISO-10303-21;
HEADER;
/* Generated by software containing ST-Developer
 * from STEP Tools, Inc. (www.steptools.com) 
 */

FILE_DESCRIPTION(
/* description */ (''),
/* implementation_level */ '2;1');

FILE_NAME(
/* name */ 
'S:\\Future Scope 1\\WIP\\Client Category\\Tom\\02 Progressive Work\\T
ea Lifter Arm.stp',
/* time_stamp */ '2025-11-05T12:14:34+06:00',
/* author */ ('SD'),
/* organization */ (''),
/* preprocessor_version */ 'ST-DEVELOPER v18.1',
/* originating_system */ 'Autodesk Inventor 2021',
/* authorisation */ '');

FILE_SCHEMA (('AUTOMOTIVE_DESIGN { 1 0 10303 214 3 1 1 }'));
ENDSEC;

DATA;
#10=MECHANICAL_DESIGN_GEOMETRIC_PRESENTATION_REPRESENTATION('',(#13),#514);
#11=SHAPE_REPRESENTATION_RELATIONSHIP('SRR','None',#521,#12);
#12=ADVANCED_BREP_SHAPE_REPRESENTATION('',(#14),#513);
#13=STYLED_ITEM('',(#530),#14);
#14=MANIFOLD_SOLID_BREP('Solid1',#216);
#15=LINE('',#464,#20);
#16=LINE('',#476,#21);
#17=LINE('',#484,#22);
#18=LINE('',#496,#23);
#19=LINE('',#510,#24);
#20=VECTOR('',#287,1.5);
#21=VECTOR('',#302,1.5);
#22=VECTOR('',#313,1.5);
#23=VECTOR('',#328,1.5);
#24=VECTOR('',#347,1.5);
#25=CYLINDRICAL_SURFACE('',#242,1.5);
#26=CYLINDRICAL_SURFACE('',#249,1.5);
#27=CYLINDRICAL_SURFACE('',#254,1.5);
#28=CYLINDRICAL_SURFACE('',#261,1.5);
#29=CYLINDRICAL_SURFACE('',#270,1.5);
#30=TOROIDAL_SURFACE('',#238,42.,1.5);
#31=TOROIDAL_SURFACE('',#245,21.,1.5);
#32=TOROIDAL_SURFACE('',#251,21.,1.5);
#33=TOROIDAL_SURFACE('',#257,2.99999999999999,1.5);
#34=TOROIDAL_SURFACE('',#264,3.,1.5);
#35=PLANE('',#237);
#36=PLANE('',#268);
#37=FACE_OUTER_BOUND('',#50,.T.);
#38=FACE_OUTER_BOUND('',#51,.T.);
#39=FACE_OUTER_BOUND('',#52,.T.);
#40=FACE_OUTER_BOUND('',#53,.T.);
#41=FACE_OUTER_BOUND('',#54,.T.);
#42=FACE_OUTER_BOUND('',#55,.T.);
#43=FACE_OUTER_BOUND('',#56,.T.);
#44=FACE_OUTER_BOUND('',#57,.T.);
#45=FACE_OUTER_BOUND('',#58,.T.);
#46=FACE_OUTER_BOUND('',#59,.T.);
#47=FACE_OUTER_BOUND('',#60,.T.);
#48=FACE_OUTER_BOUND('',#61,.T.);
#49=FACE_OUTER_BOUND('',#62,.T.);
#50=EDGE_LOOP('',(#140,#141,#142,#143,#144));
#51=EDGE_LOOP('',(#145));
#52=EDGE_LOOP('',(#146,#147,#148,#149,#150,#151));
#53=EDGE_LOOP('',(#152,#153,#154,#155,#156,#157));
#54=EDGE_LOOP('',(#158,#159,#160,#161,#162,#163));
#55=EDGE_LOOP('',(#164,#165,#166,#167,#168));
#56=EDGE_LOOP('',(#169,#170,#171,#172));
#57=EDGE_LOOP('',(#173,#174,#175,#176,#177));
#58=EDGE_LOOP('',(#178,#179,#180,#181,#182,#183));
#59=EDGE_LOOP('',(#184,#185,#186,#187,#188,#189));
#60=EDGE_LOOP('',(#190,#191,#192,#193,#194,#195));
#61=EDGE_LOOP('',(#196));
#62=EDGE_LOOP('',(#197,#198,#199,#200,#201));
#63=B_SPLINE_CURVE_WITH_KNOTS('',3,(#423,#424,#425,#426,#427,#428,#429,
#430,#431,#432,#433),.UNSPECIFIED.,.F.,.F.,(4,1,1,1,1,1,1,1,4),(0.,0.448798950512828,
0.897597901025655,1.34639685153848,1.79519580205131,2.69279370307697,3.59039160410262,
4.48798950512828,4.71239053099),.UNSPECIFIED.);
#64=B_SPLINE_CURVE_WITH_KNOTS('',3,(#434,#435,#436,#437,#438,#439,#440),
 .UNSPECIFIED.,.F.,.F.,(4,1,1,1,4),(4.71239053099,4.9367884556411,5.38558740615393,
5.83438635666676,6.28318530717959),.UNSPECIFIED.);
#65=B_SPLINE_CURVE_WITH_KNOTS('',3,(#441,#442,#443,#444,#445,#446,#447,
#448,#449,#450,#451,#452,#453,#454),.UNSPECIFIED.,.T.,.F.,(4,1,1,1,1,1,
1,1,1,1,1,4),(-6.28318530717959,-5.83438635666676,-5.38558740615393,-4.9367884556411,
-4.48798950512828,-3.59039160410262,-2.69279370307697,-1.79519580205131,
-1.34639685153848,-0.897597901025655,-0.448798950512828,0.),
 .UNSPECIFIED.);
#66=CIRCLE('',#236,0.999999999999996);
#67=CIRCLE('',#239,40.5);
#68=CIRCLE('',#240,1.5);
#69=CIRCLE('',#241,1.5);
#70=CIRCLE('',#243,1.5);
#71=CIRCLE('',#244,1.5);
#72=CIRCLE('',#246,19.5);
#73=CIRCLE('',#247,1.5);
#74=CIRCLE('',#248,1.5);
#75=CIRCLE('',#250,1.5);
#76=CIRCLE('',#252,19.5);
#77=CIRCLE('',#253,1.5);
#78=CIRCLE('',#255,1.5);
#79=CIRCLE('',#256,1.5);
#80=CIRCLE('',#258,1.49999999999999);
#81=CIRCLE('',#259,1.5);
#82=CIRCLE('',#260,1.5);
#83=CIRCLE('',#262,1.5);
#84=CIRCLE('',#263,1.5);
#85=CIRCLE('',#265,1.5);
#86=CIRCLE('',#266,1.5);
#87=CIRCLE('',#267,1.5);
#88=CIRCLE('',#269,1.5);
#89=VERTEX_POINT('',#419);
#90=VERTEX_POINT('',#420);
#91=VERTEX_POINT('',#422);
#92=VERTEX_POINT('',#457);
#93=VERTEX_POINT('',#459);
#94=VERTEX_POINT('',#463);
#95=VERTEX_POINT('',#465);
#96=VERTEX_POINT('',#469);
#97=VERTEX_POINT('',#471);
#98=VERTEX_POINT('',#475);
#99=VERTEX_POINT('',#479);
#100=VERTEX_POINT('',#483);
#101=VERTEX_POINT('',#485);
#102=VERTEX_POINT('',#489);
#103=VERTEX_POINT('',#491);
#104=VERTEX_POINT('',#495);
#105=VERTEX_POINT('',#497);
#106=VERTEX_POINT('',#501);
#107=VERTEX_POINT('',#503);
#108=VERTEX_POINT('',#507);
#109=EDGE_CURVE('',#89,#90,#66,.T.);
#110=EDGE_CURVE('',#90,#91,#63,.T.);
#111=EDGE_CURVE('',#91,#90,#64,.T.);
#112=EDGE_CURVE('',#89,#89,#65,.T.);
#113=EDGE_CURVE('',#91,#92,#67,.T.);
#114=EDGE_CURVE('',#92,#93,#68,.T.);
#115=EDGE_CURVE('',#93,#92,#69,.T.);
#116=EDGE_CURVE('',#93,#94,#15,.T.);
#117=EDGE_CURVE('',#94,#95,#70,.T.);
#118=EDGE_CURVE('',#95,#94,#71,.T.);
#119=EDGE_CURVE('',#95,#96,#72,.T.);
#120=EDGE_CURVE('',#96,#97,#73,.T.);
#121=EDGE_CURVE('',#97,#96,#74,.T.);
#122=EDGE_CURVE('',#97,#98,#16,.T.);
#123=EDGE_CURVE('',#98,#98,#75,.T.);
#124=EDGE_CURVE('',#98,#99,#76,.T.);
#125=EDGE_CURVE('',#99,#99,#77,.T.);
#126=EDGE_CURVE('',#99,#100,#17,.T.);
#127=EDGE_CURVE('',#100,#101,#78,.T.);
#128=EDGE_CURVE('',#101,#100,#79,.T.);
#129=EDGE_CURVE('',#101,#102,#80,.T.);
#130=EDGE_CURVE('',#102,#103,#81,.T.);
#131=EDGE_CURVE('',#103,#102,#82,.T.);
#132=EDGE_CURVE('',#103,#104,#18,.T.);
#133=EDGE_CURVE('',#104,#105,#83,.T.);
#134=EDGE_CURVE('',#105,#104,#84,.T.);
#135=EDGE_CURVE('',#105,#106,#85,.T.);
#136=EDGE_CURVE('',#106,#107,#86,.T.);
#137=EDGE_CURVE('',#107,#106,#87,.T.);
#138=EDGE_CURVE('',#108,#108,#88,.T.);
#139=EDGE_CURVE('',#107,#108,#19,.T.);
#140=ORIENTED_EDGE('',*,*,#109,.T.);
#141=ORIENTED_EDGE('',*,*,#110,.T.);
#142=ORIENTED_EDGE('',*,*,#111,.T.);
#143=ORIENTED_EDGE('',*,*,#109,.F.);
#144=ORIENTED_EDGE('',*,*,#112,.T.);
#145=ORIENTED_EDGE('',*,*,#112,.F.);
#146=ORIENTED_EDGE('',*,*,#110,.F.);
#147=ORIENTED_EDGE('',*,*,#111,.F.);
#148=ORIENTED_EDGE('',*,*,#113,.T.);
#149=ORIENTED_EDGE('',*,*,#114,.T.);
#150=ORIENTED_EDGE('',*,*,#115,.T.);
#151=ORIENTED_EDGE('',*,*,#113,.F.);
#152=ORIENTED_EDGE('',*,*,#114,.F.);
#153=ORIENTED_EDGE('',*,*,#115,.F.);
#154=ORIENTED_EDGE('',*,*,#116,.T.);
#155=ORIENTED_EDGE('',*,*,#117,.T.);
#156=ORIENTED_EDGE('',*,*,#118,.T.);
#157=ORIENTED_EDGE('',*,*,#116,.F.);
#158=ORIENTED_EDGE('',*,*,#118,.F.);
#159=ORIENTED_EDGE('',*,*,#119,.T.);
#160=ORIENTED_EDGE('',*,*,#120,.T.);
#161=ORIENTED_EDGE('',*,*,#121,.T.);
#162=ORIENTED_EDGE('',*,*,#119,.F.);
#163=ORIENTED_EDGE('',*,*,#117,.F.);
#164=ORIENTED_EDGE('',*,*,#120,.F.);
#165=ORIENTED_EDGE('',*,*,#121,.F.);
#166=ORIENTED_EDGE('',*,*,#122,.T.);
#167=ORIENTED_EDGE('',*,*,#123,.T.);
#168=ORIENTED_EDGE('',*,*,#122,.F.);
#169=ORIENTED_EDGE('',*,*,#123,.F.);
#170=ORIENTED_EDGE('',*,*,#124,.T.);
#171=ORIENTED_EDGE('',*,*,#125,.T.);
#172=ORIENTED_EDGE('',*,*,#124,.F.);
#173=ORIENTED_EDGE('',*,*,#125,.F.);
#174=ORIENTED_EDGE('',*,*,#126,.T.);
#175=ORIENTED_EDGE('',*,*,#127,.T.);
#176=ORIENTED_EDGE('',*,*,#128,.T.);
#177=ORIENTED_EDGE('',*,*,#126,.F.);
#178=ORIENTED_EDGE('',*,*,#128,.F.);
#179=ORIENTED_EDGE('',*,*,#129,.T.);
#180=ORIENTED_EDGE('',*,*,#130,.T.);
#181=ORIENTED_EDGE('',*,*,#131,.T.);
#182=ORIENTED_EDGE('',*,*,#129,.F.);
#183=ORIENTED_EDGE('',*,*,#127,.F.);
#184=ORIENTED_EDGE('',*,*,#130,.F.);
#185=ORIENTED_EDGE('',*,*,#131,.F.);
#186=ORIENTED_EDGE('',*,*,#132,.T.);
#187=ORIENTED_EDGE('',*,*,#133,.T.);
#188=ORIENTED_EDGE('',*,*,#134,.T.);
#189=ORIENTED_EDGE('',*,*,#132,.F.);
#190=ORIENTED_EDGE('',*,*,#134,.F.);
#191=ORIENTED_EDGE('',*,*,#135,.T.);
#192=ORIENTED_EDGE('',*,*,#136,.T.);
#193=ORIENTED_EDGE('',*,*,#137,.T.);
#194=ORIENTED_EDGE('',*,*,#135,.F.);
#195=ORIENTED_EDGE('',*,*,#133,.F.);
#196=ORIENTED_EDGE('',*,*,#138,.T.);
#197=ORIENTED_EDGE('',*,*,#136,.F.);
#198=ORIENTED_EDGE('',*,*,#137,.F.);
#199=ORIENTED_EDGE('',*,*,#139,.T.);
#200=ORIENTED_EDGE('',*,*,#138,.F.);
#201=ORIENTED_EDGE('',*,*,#139,.F.);
#202=B_SPLINE_SURFACE_WITH_KNOTS('',3,3,((#349,#350,#351,#352,#353,#354,
#355,#356,#357,#358,#359,#360,#361,#362),(#363,#364,#365,#366,#367,#368,
#369,#370,#371,#372,#373,#374,#375,#376),(#377,#378,#379,#380,#381,#382,
#383,#384,#385,#386,#387,#388,#389,#390),(#391,#392,#393,#394,#395,#396,
#397,#398,#399,#400,#401,#402,#403,#404),(#405,#406,#407,#408,#409,#410,
#411,#412,#413,#414,#415,#416,#417,#418)),.UNSPECIFIED.,.F.,.T.,.F.,(4,
1,4),(4,1,1,1,1,1,1,1,1,1,1,4),(0.,0.571428571428571,1.),(0.,0.448798950512828,
0.897597901025655,1.34639685153848,1.79519580205131,2.69279370307697,3.59039160410262,
4.48798950512828,4.9367884556411,5.38558740615393,5.83438635666676,6.28318530717959),
 .UNSPECIFIED.);
#203=ADVANCED_FACE('',(#37),#202,.F.);
#204=ADVANCED_FACE('',(#38),#35,.T.);
#205=ADVANCED_FACE('',(#39),#30,.T.);
#206=ADVANCED_FACE('',(#40),#25,.T.);
#207=ADVANCED_FACE('',(#41),#31,.T.);
#208=ADVANCED_FACE('',(#42),#26,.T.);
#209=ADVANCED_FACE('',(#43),#32,.T.);
#210=ADVANCED_FACE('',(#44),#27,.T.);
#211=ADVANCED_FACE('',(#45),#33,.T.);
#212=ADVANCED_FACE('',(#46),#28,.T.);
#213=ADVANCED_FACE('',(#47),#34,.T.);
#214=ADVANCED_FACE('',(#48),#36,.F.);
#215=ADVANCED_FACE('',(#49),#29,.T.);
#216=CLOSED_SHELL('',(#203,#204,#205,#206,#207,#208,#209,#210,#211,#212,
#213,#214,#215));
#217=DERIVED_UNIT_ELEMENT(#219,1.);
#218=DERIVED_UNIT_ELEMENT(#516,3.);
#219=(
MASS_UNIT()
NAMED_UNIT(*)
SI_UNIT($,.GRAM.)
);
#220=DERIVED_UNIT((#217,#218));
#221=MEASURE_REPRESENTATION_ITEM('density measure',
POSITIVE_RATIO_MEASURE(8.874),#220);
#222=PROPERTY_DEFINITION_REPRESENTATION(#227,#224);
#223=PROPERTY_DEFINITION_REPRESENTATION(#228,#225);
#224=REPRESENTATION('material name',(#226),#513);
#225=REPRESENTATION('density',(#221),#513);
#226=DESCRIPTIVE_REPRESENTATION_ITEM('Bronze, Soft Tin',
'Bronze, Soft Tin');
#227=PROPERTY_DEFINITION('material property','material name',#523);
#228=PROPERTY_DEFINITION('material property','density of part',#523);
#229=DATE_TIME_ROLE('creation_date');
#230=APPLIED_DATE_AND_TIME_ASSIGNMENT(#231,#229,(#523));
#231=DATE_AND_TIME(#232,#233);
#232=CALENDAR_DATE(2025,16,9);
#233=LOCAL_TIME(0,0,0.,#234);
#234=COORDINATED_UNIVERSAL_TIME_OFFSET(0,0,.BEHIND.);
#235=AXIS2_PLACEMENT_3D('placement',#348,#271,#272);
#236=AXIS2_PLACEMENT_3D('',#421,#273,#274);
#237=AXIS2_PLACEMENT_3D('',#455,#275,#276);
#238=AXIS2_PLACEMENT_3D('',#456,#277,#278);
#239=AXIS2_PLACEMENT_3D('',#458,#279,#280);
#240=AXIS2_PLACEMENT_3D('',#460,#281,#282);
#241=AXIS2_PLACEMENT_3D('',#461,#283,#284);
#242=AXIS2_PLACEMENT_3D('',#462,#285,#286);
#243=AXIS2_PLACEMENT_3D('',#466,#288,#289);
#244=AXIS2_PLACEMENT_3D('',#467,#290,#291);
#245=AXIS2_PLACEMENT_3D('',#468,#292,#293);
#246=AXIS2_PLACEMENT_3D('',#470,#294,#295);
#247=AXIS2_PLACEMENT_3D('',#472,#296,#297);
#248=AXIS2_PLACEMENT_3D('',#473,#298,#299);
#249=AXIS2_PLACEMENT_3D('',#474,#300,#301);
#250=AXIS2_PLACEMENT_3D('',#477,#303,#304);
#251=AXIS2_PLACEMENT_3D('',#478,#305,#306);
#252=AXIS2_PLACEMENT_3D('',#480,#307,#308);
#253=AXIS2_PLACEMENT_3D('',#481,#309,#310);
#254=AXIS2_PLACEMENT_3D('',#482,#311,#312);
#255=AXIS2_PLACEMENT_3D('',#486,#314,#315);
#256=AXIS2_PLACEMENT_3D('',#487,#316,#317);
#257=AXIS2_PLACEMENT_3D('',#488,#318,#319);
#258=AXIS2_PLACEMENT_3D('',#490,#320,#321);
#259=AXIS2_PLACEMENT_3D('',#492,#322,#323);
#260=AXIS2_PLACEMENT_3D('',#493,#324,#325);
#261=AXIS2_PLACEMENT_3D('',#494,#326,#327);
#262=AXIS2_PLACEMENT_3D('',#498,#329,#330);
#263=AXIS2_PLACEMENT_3D('',#499,#331,#332);
#264=AXIS2_PLACEMENT_3D('',#500,#333,#334);
#265=AXIS2_PLACEMENT_3D('',#502,#335,#336);
#266=AXIS2_PLACEMENT_3D('',#504,#337,#338);
#267=AXIS2_PLACEMENT_3D('',#505,#339,#340);
#268=AXIS2_PLACEMENT_3D('',#506,#341,#342);
#269=AXIS2_PLACEMENT_3D('',#508,#343,#344);
#270=AXIS2_PLACEMENT_3D('',#509,#345,#346);
#271=DIRECTION('axis',(0.,0.,1.));
#272=DIRECTION('refdir',(1.,0.,0.));
#273=DIRECTION('center_axis',(-0.999999999999948,-4.08562090193207E-13,
3.21466355757143E-7));
#274=DIRECTION('ref_axis',(-4.08562073062059E-13,1.,5.32907051820077E-14));
#275=DIRECTION('center_axis',(-4.08427246381498E-13,1.,5.38475381310308E-14));
#276=DIRECTION('ref_axis',(3.29357043969332E-15,5.38475381310322E-14,-1.));
#277=DIRECTION('center_axis',(4.52345738072675E-32,1.22464679914741E-16,
-1.));
#278=DIRECTION('ref_axis',(-1.,0.,0.));
#279=DIRECTION('center_axis',(-4.52345738072675E-32,-1.22464679914741E-16,
1.));
#280=DIRECTION('ref_axis',(-1.,5.53963760238676E-48,-4.52345738072675E-32));
#281=DIRECTION('center_axis',(4.08304781701583E-13,-1.,5.36026087712014E-14));
#282=DIRECTION('ref_axis',(-3.29357043969328E-15,-5.36026087712027E-14,
-1.));
#283=DIRECTION('center_axis',(4.08304781701583E-13,-1.,5.36026087712014E-14));
#284=DIRECTION('ref_axis',(-3.29357043969328E-15,-5.36026087712027E-14,
-1.));
#285=DIRECTION('center_axis',(3.88578058618815E-15,-1.,6.31088724176809E-30));
#286=DIRECTION('ref_axis',(-3.29357043969348E-15,-2.10362908058936E-29,
-1.));
#287=DIRECTION('',(-3.88578058618815E-15,1.,-6.31088724176809E-30));
#288=DIRECTION('center_axis',(4.08304781701583E-13,-1.,5.36026087712014E-14));
#289=DIRECTION('ref_axis',(-3.29357043969328E-15,-5.36026087712027E-14,
-1.));
#290=DIRECTION('center_axis',(4.08304781701583E-13,-1.,5.36026087712014E-14));
#291=DIRECTION('ref_axis',(-3.29357043969328E-15,-5.36026087712027E-14,
-1.));
#292=DIRECTION('center_axis',(1.,-3.98951625124088E-31,-1.83684925516578E-16));
#293=DIRECTION('ref_axis',(-1.57898385724467E-16,0.,-1.));
#294=DIRECTION('center_axis',(-1.,3.98951625124088E-31,1.83684925516578E-16));
#295=DIRECTION('ref_axis',(-1.83684925516578E-16,5.13904878803808E-48,-1.));
#296=DIRECTION('center_axis',(4.084884666271E-13,5.62059116903444E-14,1.));
#297=DIRECTION('ref_axis',(-3.10988551417667E-15,-1.,5.62059116903457E-14));
#298=DIRECTION('center_axis',(4.084884666271E-13,5.62059116903444E-14,1.));
#299=DIRECTION('ref_axis',(-3.10988551417667E-15,-1.,5.62059116903457E-14));
#300=DIRECTION('center_axis',(-2.77555756156284E-15,6.66133814775091E-15,
1.));
#301=DIRECTION('ref_axis',(-3.10988551417653E-15,-1.,6.66133814775091E-15));
#302=DIRECTION('',(2.77555756156284E-15,-6.66133814775091E-15,-1.));
#303=DIRECTION('center_axis',(4.084884666271E-13,5.62059116903444E-14,1.));
#304=DIRECTION('ref_axis',(-3.10988551417667E-15,-1.,5.62059116903457E-14));
#305=DIRECTION('center_axis',(-1.,-3.83678789255362E-18,-2.64338815386942E-16));
#306=DIRECTION('ref_axis',(-2.368475785867E-16,0.,1.));
#307=DIRECTION('center_axis',(1.,3.83678789255362E-18,2.64338815386942E-16));
#308=DIRECTION('ref_axis',(-2.64338815386942E-16,7.80163051083507E-35,1.));
#309=DIRECTION('center_axis',(4.08756642230379E-13,-1.,-3.46285469453149E-15));
#310=DIRECTION('ref_axis',(-2.84938348668226E-15,3.46285469453033E-15,-1.));
#311=DIRECTION('center_axis',(2.22044604925041E-15,-1.,-6.66133814775124E-15));
#312=DIRECTION('ref_axis',(-2.84938348668227E-15,6.66133814775123E-15,-1.));
#313=DIRECTION('',(-2.22044604925041E-15,1.,6.66133814775124E-15));
#314=DIRECTION('center_axis',(4.08756642230379E-13,-1.,-3.46285469453149E-15));
#315=DIRECTION('ref_axis',(-2.84938348668226E-15,3.46285469453033E-15,-1.));
#316=DIRECTION('center_axis',(4.08756642230379E-13,-1.,-3.46285469453149E-15));
#317=DIRECTION('ref_axis',(-2.84938348668226E-15,3.46285469453033E-15,-1.));
#318=DIRECTION('center_axis',(-4.72715854161897E-16,-5.06709167115311E-31,
-1.));
#319=DIRECTION('ref_axis',(-1.,0.,0.));
#320=DIRECTION('center_axis',(4.72715854161897E-16,5.06709167115311E-31,
1.));
#321=DIRECTION('ref_axis',(-1.,2.39529456744577E-46,4.72715854161897E-16));
#322=DIRECTION('center_axis',(1.,2.13173827268948E-15,-3.9355705486932E-15));
#323=DIRECTION('ref_axis',(-3.93557054869319E-15,-2.37666763251896E-15,
-1.));
#324=DIRECTION('center_axis',(1.,2.13173827268948E-15,-3.9355705486932E-15));
#325=DIRECTION('ref_axis',(-3.93557054869319E-15,-2.37666763251896E-15,
-1.));
#326=DIRECTION('center_axis',(1.,6.12323399573676E-17,-4.44089209850069E-15));
#327=DIRECTION('ref_axis',(-4.44089209850069E-15,-2.37666763251896E-15,
-1.));
#328=DIRECTION('',(-1.,-6.12323399573676E-17,4.44089209850069E-15));
#329=DIRECTION('center_axis',(1.,2.13173827268948E-15,-3.9355705486932E-15));
#330=DIRECTION('ref_axis',(-3.93557054869319E-15,-2.37666763251896E-15,
-1.));
#331=DIRECTION('center_axis',(1.,2.13173827268948E-15,-3.9355705486932E-15));
#332=DIRECTION('ref_axis',(-3.93557054869319E-15,-2.37666763251896E-15,
-1.));
#333=DIRECTION('center_axis',(-2.25420295260421E-15,1.,-1.22464679914735E-16));
#334=DIRECTION('ref_axis',(0.,1.22464679914735E-16,1.));
#335=DIRECTION('center_axis',(2.25420295260421E-15,-1.,1.22464679914735E-16));
#336=DIRECTION('ref_axis',(-2.76060243053526E-31,1.22464679914735E-16,1.));
#337=DIRECTION('center_axis',(0.,0.,1.));
#338=DIRECTION('ref_axis',(1.,0.,0.));
#339=DIRECTION('center_axis',(0.,0.,1.));
#340=DIRECTION('ref_axis',(1.,0.,0.));
#341=DIRECTION('center_axis',(0.,0.,1.));
#342=DIRECTION('ref_axis',(1.,0.,0.));
#343=DIRECTION('center_axis',(0.,0.,-1.));
#344=DIRECTION('ref_axis',(1.,0.,0.));
#345=DIRECTION('center_axis',(0.,0.,1.));
#346=DIRECTION('ref_axis',(1.,0.,0.));
#347=DIRECTION('',(0.,0.,-1.));
#348=CARTESIAN_POINT('',(0.,0.,0.));
#349=CARTESIAN_POINT('Ctrl Pts',(-75.9880940327248,-50.000000007656,70.5000000000002));
#350=CARTESIAN_POINT('Ctrl Pts',(-76.2124304832846,-50.0035612400949,70.5000000721441));
#351=CARTESIAN_POINT('Ctrl Pts',(-76.6606565280591,-50.0106362087274,70.602484672199));
#352=CARTESIAN_POINT('Ctrl Pts',(-77.2014113357496,-50.0190834959442,71.0327552535621));
#353=CARTESIAN_POINT('Ctrl Pts',(-77.4992378003721,-50.0237062850431,71.6545794414678));
#354=CARTESIAN_POINT('Ctrl Pts',(-77.5032156493648,-50.0237622724529,72.5761286435212));
#355=CARTESIAN_POINT('Ctrl Pts',(-76.7362919255542,-50.0118877640297,73.5494822465745));
#356=CARTESIAN_POINT('Ctrl Pts',(-75.2425396738523,-49.988173706117,73.5443712580391));
#357=CARTESIAN_POINT('Ctrl Pts',(-74.4712389959235,-49.9756216954623,72.5778906925486));
#358=CARTESIAN_POINT('Ctrl Pts',(-74.4768418657336,-49.9757194147562,71.6542907615691));
#359=CARTESIAN_POINT('Ctrl Pts',(-74.7746669057792,-49.9805568389337,71.03292959145));
#360=CARTESIAN_POINT('Ctrl Pts',(-75.3154777010604,-49.9892819154423,70.6024404851656));
#361=CARTESIAN_POINT('Ctrl Pts',(-75.7637575821649,-49.9964387752172,70.4999999278563));
#362=CARTESIAN_POINT('Ctrl Pts',(-75.9880940327247,-50.000000007656,70.5000000000002));
#363=CARTESIAN_POINT('Ctrl Pts',(-75.9880940327249,-49.7008007058558,70.4999999977095));
#364=CARTESIAN_POINT('Ctrl Pts',(-76.2129083563464,-49.7036802873401,70.4989019826936));
#365=CARTESIAN_POINT('Ctrl Pts',(-76.6622398748104,-49.7094189559971,70.5989670066666));
#366=CARTESIAN_POINT('Ctrl Pts',(-77.2070278821236,-49.7162952522083,71.0284223291377));
#367=CARTESIAN_POINT('Ctrl Pts',(-77.5074598712789,-49.7200699362672,71.6528235114309));
#368=CARTESIAN_POINT('Ctrl Pts',(-77.5117544129671,-49.7201166905029,72.5807794387701));
#369=CARTESIAN_POINT('Ctrl Pts',(-76.7365754058214,-49.710415390236,73.5560564579053));
#370=CARTESIAN_POINT('Ctrl Pts',(-75.2419384004347,-49.6912260442975,73.5406310446931));
#371=CARTESIAN_POINT('Ctrl Pts',(-74.4772481181947,-49.6811667964934,72.5756847808622));
#372=CARTESIAN_POINT('Ctrl Pts',(-74.4829384371529,-49.6812410019573,71.6565295407489));
#373=CARTESIAN_POINT('Ctrl Pts',(-74.7779728486459,-49.6851242355256,71.0368257433942));
#374=CARTESIAN_POINT('Ctrl Pts',(-75.3158885857749,-49.6921404563288,70.6054654591432));
#375=CARTESIAN_POINT('Ctrl Pts',(-75.7632797091033,-49.6979211243716,70.5010980127253));
#376=CARTESIAN_POINT('Ctrl Pts',(-75.9880940327249,-49.7008007058558,70.4999999977095));
#377=CARTESIAN_POINT('Ctrl Pts',(-75.9880939519392,-49.1830102514001,70.7513043461895));
#378=CARTESIAN_POINT('Ctrl Pts',(-76.1747403980004,-49.1838776265681,70.7496111882844));
#379=CARTESIAN_POINT('Ctrl Pts',(-76.5494875061766,-49.1856065441592,70.8315927500725));
#380=CARTESIAN_POINT('Ctrl Pts',(-77.0051186000416,-49.1876878385605,71.1885366998653));
#381=CARTESIAN_POINT('Ctrl Pts',(-77.2574135502514,-49.1888316299928,71.7095214370997));
#382=CARTESIAN_POINT('Ctrl Pts',(-77.2609756109866,-49.1888467899618,72.4841736060238));
#383=CARTESIAN_POINT('Ctrl Pts',(-76.610348909187,-49.1859020189189,73.2971512934188));
#384=CARTESIAN_POINT('Ctrl Pts',(-75.3672136320401,-49.1801308863246,73.2779383308015));
#385=CARTESIAN_POINT('Ctrl Pts',(-74.7374234955128,-49.1771311894989,72.4758427387211));
#386=CARTESIAN_POINT('Ctrl Pts',(-74.7416540505912,-49.177154009,71.714974980295));
#387=CARTESIAN_POINT('Ctrl Pts',(-74.9853441901933,-49.1783106485733,71.2012406029951));
#388=CARTESIAN_POINT('Ctrl Pts',(-75.4299142884664,-49.1804089690314,70.8416967971276));
#389=CARTESIAN_POINT('Ctrl Pts',(-75.8014475058779,-49.182142876232,70.7529975040945));
#390=CARTESIAN_POINT('Ctrl Pts',(-75.9880939519392,-49.1830102514001,70.7513043461895));
#391=CARTESIAN_POINT('Ctrl Pts',(-75.9880937833957,-48.9999999999999,71.27560052365));
#392=CARTESIAN_POINT('Ctrl Pts',(-76.0963865450279,-48.9999908171463,71.275096218959));
#393=CARTESIAN_POINT('Ctrl Pts',(-76.3133654075138,-48.9999889698107,71.323613544144));
#394=CARTESIAN_POINT('Ctrl Pts',(-76.5761577581001,-48.9999792494809,71.5310368434833));
#395=CARTESIAN_POINT('Ctrl Pts',(-76.7213263466333,-48.9999814384157,71.8323042569694));
#396=CARTESIAN_POINT('Ctrl Pts',(-76.7233126129324,-48.999978982555,72.2794835908765));
#397=CARTESIAN_POINT('Ctrl Pts',(-76.3492690057726,-48.9999875311563,72.750340544732));
#398=CARTESIAN_POINT('Ctrl Pts',(-75.6279345614758,-49.0000068901253,72.7434566328112));
#399=CARTESIAN_POINT('Ctrl Pts',(-75.2591268113509,-49.0000281298047,72.277448326191));
#400=CARTESIAN_POINT('Ctrl Pts',(-75.2616806013094,-49.0000220384053,71.8338411260814));
#401=CARTESIAN_POINT('Ctrl Pts',(-75.4042767193046,-49.000023476498,71.5348559559486));
#402=CARTESIAN_POINT('Ctrl Pts',(-75.66377311313,-49.0000116295539,71.3266143505014));
#403=CARTESIAN_POINT('Ctrl Pts',(-75.8798010217635,-49.0000091828535,71.2761048283411));
#404=CARTESIAN_POINT('Ctrl Pts',(-75.9880937833957,-48.9999999999999,71.27560052365));
#405=CARTESIAN_POINT('Ctrl Pts',(-75.9880937112588,-48.9999999999999,71.5000000000002));
#406=CARTESIAN_POINT('Ctrl Pts',(-76.0629007998762,-48.9999999999999,71.5000000240481));
#407=CARTESIAN_POINT('Ctrl Pts',(-76.2123654876619,-49.,71.5341615573998));
#408=CARTESIAN_POINT('Ctrl Pts',(-76.3926836133437,-49.0000000000001,71.6775850845208));
#409=CARTESIAN_POINT('Ctrl Pts',(-76.4919953910498,-49.0000000000001,71.8848598138227));
#410=CARTESIAN_POINT('Ctrl Pts',(-76.4933217565574,-49.0000000000002,72.1920428811738));
#411=CARTESIAN_POINT('Ctrl Pts',(-76.2375874207387,-49.0000000000001,72.5164940821916));
#412=CARTESIAN_POINT('Ctrl Pts',(-75.7394817448783,-48.9999999999999,72.5147904193465));
#413=CARTESIAN_POINT('Ctrl Pts',(-75.4822806315199,-48.9999999999998,72.1926302308497));
#414=CARTESIAN_POINT('Ctrl Pts',(-75.4841490648118,-48.9999999999997,71.8847635871898));
#415=CARTESIAN_POINT('Ctrl Pts',(-75.5834629244105,-48.9999999999998,71.6776431971501));
#416=CARTESIAN_POINT('Ctrl Pts',(-75.7638030175558,-48.9999999999998,71.5341468283886));
#417=CARTESIAN_POINT('Ctrl Pts',(-75.9132866226415,-48.9999999999999,71.4999999759522));
#418=CARTESIAN_POINT('Ctrl Pts',(-75.9880937112588,-48.9999999999999,71.5000000000002));
#419=CARTESIAN_POINT('',(-75.9880937112588,-48.9999999999999,71.5000000000002));
#420=CARTESIAN_POINT('',(-75.9880940327248,-50.000000007656,70.5000000000002));
#421=CARTESIAN_POINT('Origin',(-75.9880937112584,-49.9999999999999,71.5000000000001));
#422=CARTESIAN_POINT('',(-74.4873438088015,-49.9758876409468,72.0005578023326));
#423=CARTESIAN_POINT('Ctrl Pts',(-75.9880940327248,-50.000000007656,70.5000000000002));
#424=CARTESIAN_POINT('Ctrl Pts',(-76.2124304832846,-50.0035612400949,70.5000000721441));
#425=CARTESIAN_POINT('Ctrl Pts',(-76.6606565280591,-50.0106362087274,70.602484672199));
#426=CARTESIAN_POINT('Ctrl Pts',(-77.2014113357496,-50.0190834959442,71.0327552535621));
#427=CARTESIAN_POINT('Ctrl Pts',(-77.4992378003721,-50.0237062850431,71.6545794414678));
#428=CARTESIAN_POINT('Ctrl Pts',(-77.5032156493648,-50.0237622724529,72.5761286435212));
#429=CARTESIAN_POINT('Ctrl Pts',(-76.7362919255542,-50.0118877640297,73.5494822465745));
#430=CARTESIAN_POINT('Ctrl Pts',(-75.2425396738523,-49.988173706117,73.5443712580391));
#431=CARTESIAN_POINT('Ctrl Pts',(-74.5483685307459,-49.9768768878543,72.6745380812574));
#432=CARTESIAN_POINT('Ctrl Pts',(-74.4870119989913,-49.975881788355,72.1129555190381));
#433=CARTESIAN_POINT('Ctrl Pts',(-74.4873438088015,-49.9758876409468,72.0005578023326));
#434=CARTESIAN_POINT('Ctrl Pts',(-74.4873438088015,-49.9758876409468,72.0005578023326));
#435=CARTESIAN_POINT('Ctrl Pts',(-74.487675614026,-49.9758934934577,71.8881616389577));
#436=CARTESIAN_POINT('Ctrl Pts',(-74.5264797154041,-49.9765256576902,71.550729850946));
#437=CARTESIAN_POINT('Ctrl Pts',(-74.7746669057792,-49.9805568389337,71.03292959145));
#438=CARTESIAN_POINT('Ctrl Pts',(-75.3154777010604,-49.9892819154423,70.6024404851656));
#439=CARTESIAN_POINT('Ctrl Pts',(-75.7637575821649,-49.9964387752172,70.4999999278563));
#440=CARTESIAN_POINT('Ctrl Pts',(-75.9880940327247,-50.000000007656,70.5000000000002));
#441=CARTESIAN_POINT('Ctrl Pts',(-75.9880937112588,-48.9999999999999,71.5000000000002));
#442=CARTESIAN_POINT('Ctrl Pts',(-75.9132866226415,-48.9999999999999,71.4999999759522));
#443=CARTESIAN_POINT('Ctrl Pts',(-75.7638030175558,-48.9999999999998,71.5341468283886));
#444=CARTESIAN_POINT('Ctrl Pts',(-75.5834629244105,-48.9999999999998,71.6776431971501));
#445=CARTESIAN_POINT('Ctrl Pts',(-75.4841490648118,-48.9999999999997,71.8847635871898));
#446=CARTESIAN_POINT('Ctrl Pts',(-75.4822806315199,-48.9999999999998,72.1926302308497));
#447=CARTESIAN_POINT('Ctrl Pts',(-75.7394817448783,-48.9999999999999,72.5147904193465));
#448=CARTESIAN_POINT('Ctrl Pts',(-76.2375874207387,-49.0000000000001,72.5164940821916));
#449=CARTESIAN_POINT('Ctrl Pts',(-76.4933217565574,-49.0000000000002,72.1920428811738));
#450=CARTESIAN_POINT('Ctrl Pts',(-76.4919953910498,-49.0000000000001,71.8848598138227));
#451=CARTESIAN_POINT('Ctrl Pts',(-76.3926836133437,-49.0000000000001,71.6775850845208));
#452=CARTESIAN_POINT('Ctrl Pts',(-76.2123654876619,-49.,71.5341615573998));
#453=CARTESIAN_POINT('Ctrl Pts',(-76.0629007998762,-48.9999999999999,71.5000000240481));
#454=CARTESIAN_POINT('Ctrl Pts',(-75.9880937112588,-48.9999999999999,71.5000000000002));
#455=CARTESIAN_POINT('Origin',(-76.,-49.,72.0000000000001));
#456=CARTESIAN_POINT('Origin',(-34.,-48.9999999999999,72.0000000000001));
#457=CARTESIAN_POINT('',(6.49999999999998,-49.0000000000005,72.0000000000001));
#458=CARTESIAN_POINT('Origin',(-34.,-48.9999999999999,72.0000000000001));
#459=CARTESIAN_POINT('',(7.99999999999998,-49.0000000000005,73.5000000000001));
#460=CARTESIAN_POINT('Origin',(7.99999999999998,-48.9999999999999,72.0000000000001));
#461=CARTESIAN_POINT('Origin',(7.99999999999998,-48.9999999999999,72.0000000000001));
#462=CARTESIAN_POINT('Origin',(7.99999999999997,-46.9999999999999,72.0000000000001));
#463=CARTESIAN_POINT('',(7.99999999999998,-46.9999999999993,73.5000000000001));
#464=CARTESIAN_POINT('',(7.99999999999998,-46.9999999999999,73.5000000000001));
#465=CARTESIAN_POINT('',(7.99999999999997,-47.,70.5000000000001));
#466=CARTESIAN_POINT('Origin',(7.99999999999997,-46.9999999999999,72.0000000000001));
#467=CARTESIAN_POINT('Origin',(7.99999999999997,-46.9999999999999,72.0000000000001));
#468=CARTESIAN_POINT('Origin',(7.99999999999997,-46.9999999999999,51.0000000000001));
#469=CARTESIAN_POINT('',(7.99999999999996,-27.4999999999999,51.0000000000001));
#470=CARTESIAN_POINT('Origin',(7.99999999999997,-46.9999999999999,51.0000000000001));
#471=CARTESIAN_POINT('',(7.99999999999997,-24.4999999999999,51.0000000000007));
#472=CARTESIAN_POINT('Origin',(7.99999999999997,-25.9999999999999,51.));
#473=CARTESIAN_POINT('Origin',(7.99999999999997,-25.9999999999999,51.));
#474=CARTESIAN_POINT('Origin',(7.99999999999997,-25.9999999999999,49.));
#475=CARTESIAN_POINT('',(7.99999999999998,-24.4999999999999,48.9999999999994));
#476=CARTESIAN_POINT('',(7.99999999999998,-24.4999999999999,49.));
#477=CARTESIAN_POINT('Origin',(7.99999999999997,-25.9999999999999,49.));
#478=CARTESIAN_POINT('Origin',(7.99999999999997,-4.99999999999989,49.));
#479=CARTESIAN_POINT('',(7.99999999999998,-4.99999999999868,29.5));
#480=CARTESIAN_POINT('Origin',(7.99999999999997,-4.99999999999989,49.));
#481=CARTESIAN_POINT('Origin',(7.99999999999998,-4.99999999999867,28.));
#482=CARTESIAN_POINT('Origin',(7.99999999999997,-2.99999999999876,28.));
#483=CARTESIAN_POINT('',(7.99999999999998,-2.99999999999816,29.5));
#484=CARTESIAN_POINT('',(7.99999999999998,-2.99999999999877,29.5));
#485=CARTESIAN_POINT('',(6.49999999999997,-2.99999999999938,28.));
#486=CARTESIAN_POINT('Origin',(7.99999999999997,-2.99999999999876,28.));
#487=CARTESIAN_POINT('Origin',(7.99999999999997,-2.99999999999876,28.));
#488=CARTESIAN_POINT('Origin',(4.99999999999998,-2.99999999999998,28.));
#489=CARTESIAN_POINT('',(4.99999999999999,-1.49999999999999,28.));
#490=CARTESIAN_POINT('Origin',(4.99999999999998,-2.99999999999998,28.));
#491=CARTESIAN_POINT('',(4.99999999999999,1.0633772006378E-14,29.5));
#492=CARTESIAN_POINT('Origin',(4.99999999999998,7.25246757747162E-15,28.));
#493=CARTESIAN_POINT('Origin',(4.99999999999998,7.25246757747162E-15,28.));
#494=CARTESIAN_POINT('Origin',(3.00000000000001,7.13000289755688E-15,28.));
#495=CARTESIAN_POINT('',(3.00000000000001,1.05113073264632E-14,29.5));
#496=CARTESIAN_POINT('',(3.00000000000002,1.05113073264632E-14,29.5));
#497=CARTESIAN_POINT('',(3.00000000000001,3.56500144877844E-15,26.5));
#498=CARTESIAN_POINT('Origin',(3.00000000000001,7.13000289755688E-15,28.));
#499=CARTESIAN_POINT('Origin',(3.00000000000001,7.13000289755688E-15,28.));
#500=CARTESIAN_POINT('Origin',(3.,6.76260885781264E-15,25.));
#501=CARTESIAN_POINT('',(1.5,0.,25.));
#502=CARTESIAN_POINT('Origin',(3.,6.57891183794054E-15,25.));
#503=CARTESIAN_POINT('',(-1.5,-1.83697019872103E-16,25.));
#504=CARTESIAN_POINT('Origin',(0.,0.,25.));
#505=CARTESIAN_POINT('Origin',(0.,0.,25.));
#506=CARTESIAN_POINT('Origin',(0.,0.,-25.));
#507=CARTESIAN_POINT('',(-1.5,-1.83697019872103E-16,-25.));
#508=CARTESIAN_POINT('Origin',(0.,0.,-25.));
#509=CARTESIAN_POINT('Origin',(0.,0.,0.));
#510=CARTESIAN_POINT('',(-1.5,-1.83697019872103E-16,0.));
#511=UNCERTAINTY_MEASURE_WITH_UNIT(LENGTH_MEASURE(0.01),#515,
'DISTANCE_ACCURACY_VALUE',
'Maximum model space distance between geometric entities at asserted c
onnectivities');
#512=UNCERTAINTY_MEASURE_WITH_UNIT(LENGTH_MEASURE(0.01),#515,
'DISTANCE_ACCURACY_VALUE',
'Maximum model space distance between geometric entities at asserted c
onnectivities');
#513=(
GEOMETRIC_REPRESENTATION_CONTEXT(3)
GLOBAL_UNCERTAINTY_ASSIGNED_CONTEXT((#511))
GLOBAL_UNIT_ASSIGNED_CONTEXT((#515,#517,#518))
REPRESENTATION_CONTEXT('','3D')
);
#514=(
GEOMETRIC_REPRESENTATION_CONTEXT(3)
GLOBAL_UNCERTAINTY_ASSIGNED_CONTEXT((#512))
GLOBAL_UNIT_ASSIGNED_CONTEXT((#515,#517,#518))
REPRESENTATION_CONTEXT('','3D')
);
#515=(
LENGTH_UNIT()
NAMED_UNIT(*)
SI_UNIT(.MILLI.,.METRE.)
);
#516=(
LENGTH_UNIT()
NAMED_UNIT(*)
SI_UNIT(.CENTI.,.METRE.)
);
#517=(
NAMED_UNIT(*)
PLANE_ANGLE_UNIT()
SI_UNIT($,.RADIAN.)
);
#518=(
NAMED_UNIT(*)
SI_UNIT($,.STERADIAN.)
SOLID_ANGLE_UNIT()
);
#519=SHAPE_DEFINITION_REPRESENTATION(#520,#521);
#520=PRODUCT_DEFINITION_SHAPE('',$,#523);
#521=SHAPE_REPRESENTATION('',(#235),#513);
#522=PRODUCT_DEFINITION_CONTEXT('part definition',#527,'design');
#523=PRODUCT_DEFINITION('Tea Lifter Arm','Tea Lifter Arm',#524,#522);
#524=PRODUCT_DEFINITION_FORMATION('',$,#529);
#525=PRODUCT_RELATED_PRODUCT_CATEGORY('Tea Lifter Arm','Tea Lifter Arm',
(#529));
#526=APPLICATION_PROTOCOL_DEFINITION('international standard',
'automotive_design',2009,#527);
#527=APPLICATION_CONTEXT(
'Core Data for Automotive Mechanical Design Process');
#528=PRODUCT_CONTEXT('part definition',#527,'mechanical');
#529=PRODUCT('Tea Lifter Arm','Tea Lifter Arm',$,(#528));
#530=PRESENTATION_STYLE_ASSIGNMENT((#531));
#531=SURFACE_STYLE_USAGE(.BOTH.,#534);
#532=SURFACE_STYLE_RENDERING_WITH_PROPERTIES($,#538,(#533));
#533=SURFACE_STYLE_TRANSPARENT(0.);
#534=SURFACE_SIDE_STYLE('',(#535,#532));
#535=SURFACE_STYLE_FILL_AREA(#536);
#536=FILL_AREA_STYLE('',(#537));
#537=FILL_AREA_STYLE_COLOUR('',#538);
#538=COLOUR_RGB('',0.643137254901961,0.52156862745098,0.384313725490196);
ENDSEC;
END-ISO-10303-21;
