ISO-10303-21;
HEADER;
/* Generated by software containing ST-Developer
 * from STEP Tools, Inc. (www.steptools.com) 
 */

FILE_DESCRIPTION(
/* description */ (''),
/* implementation_level */ '2;1');

FILE_NAME(
/* name */ 
'S:\\Future Scope 1\\WIP\\Client Category\\Tom\\02 Progressive Work\\T
op Lock Cap.stp',
/* time_stamp */ '2025-11-05T12:14:35+06:00',
/* author */ ('SD'),
/* organization */ (''),
/* preprocessor_version */ 'ST-DEVELOPER v18.1',
/* originating_system */ 'Autodesk Inventor 2021',
/* authorisation */ '');

FILE_SCHEMA (('AUTOMOTIVE_DESIGN { 1 0 10303 214 3 1 1 }'));
ENDSEC;

DATA;
#10=MECHANICAL_DESIGN_GEOMETRIC_PRESENTATION_REPRESENTATION('',(#13),#340);
#11=SHAPE_REPRESENTATION_RELATIONSHIP('SRR','None',#347,#12);
#12=ADVANCED_BREP_SHAPE_REPRESENTATION('',(#14),#339);
#13=STYLED_ITEM('',(#356),#14);
#14=MANIFOLD_SOLID_BREP('Solid2',#126);
#15=FACE_BOUND('',#40,.T.);
#16=FACE_BOUND('',#43,.T.);
#17=(
BOUNDED_SURFACE()
B_SPLINE_SURFACE(2,2,((#297,#298,#299,#300,#301,#302,#303,#304,#305),(#306,
#307,#308,#309,#310,#311,#312,#313,#314),(#315,#316,#317,#318,#319,#320,
#321,#322,#323)),.UNSPECIFIED.,.F.,.T.,.F.)
B_SPLINE_SURFACE_WITH_KNOTS((3,3),(3,2,2,2,3),(0.,1.5707963267949),(-3.14159265358979,
-1.5707963267949,0.,1.5707963267949,3.14159265358979),.UNSPECIFIED.)
GEOMETRIC_REPRESENTATION_ITEM()
RATIONAL_B_SPLINE_SURFACE(((1.,0.707106781186548,1.,0.707106781186548,1.,
0.707106781186548,1.,0.707106781186548,1.),(0.707106781186548,0.5,0.707106781186548,
0.5,0.707106781186548,0.5,0.707106781186548,0.5,0.707106781186548),(1.,
0.707106781186548,1.,0.707106781186548,1.,0.707106781186548,1.,0.707106781186548,
1.)))
REPRESENTATION_ITEM('')
SURFACE()
);
#18=PLANE('',#150);
#19=PLANE('',#157);
#20=PLANE('',#158);
#21=CIRCLE('',#148,1.5);
#22=CIRCLE('',#149,1.5);
#23=CIRCLE('',#151,1.);
#24=CIRCLE('',#152,4.);
#25=CIRCLE('',#153,5.);
#26=CIRCLE('',#154,5.);
#27=CIRCLE('',#156,5.);
#28=FACE_OUTER_BOUND('',#35,.T.);
#29=FACE_OUTER_BOUND('',#36,.T.);
#30=FACE_OUTER_BOUND('',#37,.T.);
#31=FACE_OUTER_BOUND('',#38,.T.);
#32=FACE_OUTER_BOUND('',#39,.T.);
#33=FACE_OUTER_BOUND('',#41,.T.);
#34=FACE_OUTER_BOUND('',#42,.T.);
#35=EDGE_LOOP('',(#84,#85,#86,#87,#88,#89,#90));
#36=EDGE_LOOP('',(#91,#92,#93,#94,#95,#96,#97,#98,#99));
#37=EDGE_LOOP('',(#100));
#38=EDGE_LOOP('',(#101,#102,#103,#104,#105));
#39=EDGE_LOOP('',(#106,#107,#108,#109,#110));
#40=EDGE_LOOP('',(#111,#112));
#41=EDGE_LOOP('',(#113));
#42=EDGE_LOOP('',(#114));
#43=EDGE_LOOP('',(#115));
#44=LINE('',#225,#48);
#45=LINE('',#292,#49);
#46=LINE('',#294,#50);
#47=LINE('',#333,#51);
#48=VECTOR('',#163,1.425);
#49=VECTOR('',#168,1.5);
#50=VECTOR('',#169,1.5);
#51=VECTOR('',#184,5.);
#52=B_SPLINE_CURVE_WITH_KNOTS('',3,(#195,#196,#197,#198,#199,#200,#201,
#202,#203,#204,#205,#206,#207,#208),.UNSPECIFIED.,.F.,.F.,(4,2,2,2,2,2,
4),(0.,0.0330813615715053,0.0661627231430106,0.132325446286021,0.190591348958625,
0.219724300294928,0.24885725163123),.UNSPECIFIED.);
#53=B_SPLINE_CURVE_WITH_KNOTS('',3,(#210,#211,#212,#213,#214,#215,#216,
#217,#218,#219,#220,#221,#222,#223),.UNSPECIFIED.,.F.,.F.,(4,2,2,2,2,2,
4),(0.746571754893689,0.775704706229992,0.804837657566294,0.863103560238898,
0.929266283381909,0.962347644953414,0.995429006524919),.UNSPECIFIED.);
#54=B_SPLINE_CURVE_WITH_KNOTS('',3,(#227,#228,#229,#230,#231,#232,#233,
#234,#235,#236,#237,#238,#239,#240,#241,#242,#243,#244,#245,#246,#247,#248,
#249,#250,#251,#252),.UNSPECIFIED.,.F.,.F.,(4,2,2,2,2,2,2,2,2,2,2,2,4),
(0.,0.0540087676026066,0.108017535205213,0.162013311659953,0.216009088114694,
0.270004864569434,0.324000641024174,0.37800940862678,0.432018176229387,
0.486026943831994,0.5400357114346,0.59403148788934,0.648027264344081),
 .UNSPECIFIED.);
#55=B_SPLINE_CURVE_WITH_KNOTS('',3,(#253,#254,#255,#256,#257,#258,#259,
#260,#261,#262),.UNSPECIFIED.,.F.,.F.,(4,2,2,2,4),(0.648027264344081,0.702023040798821,
0.756018817253561,0.810027584856168,0.864036352458774),.UNSPECIFIED.);
#56=B_SPLINE_CURVE_WITH_KNOTS('',3,(#263,#264,#265,#266,#267,#268,#269,
#270,#271,#272,#273,#274,#275,#276,#277,#278,#279,#280,#281,#282,#283,#284,
#285,#286,#287,#288),.UNSPECIFIED.,.F.,.F.,(4,2,2,2,2,2,2,2,2,2,2,2,4),
(0.24885725163123,0.277990202967532,0.307123154303834,0.365389056976438,
0.431551780119449,0.464633141690954,0.49771450326246,0.530795864833965,
0.56387722640547,0.630039949548481,0.688305852221085,0.717438803557387,
0.746571754893689),.UNSPECIFIED.);
#57=VERTEX_POINT('',#193);
#58=VERTEX_POINT('',#194);
#59=VERTEX_POINT('',#209);
#60=VERTEX_POINT('',#224);
#61=VERTEX_POINT('',#226);
#62=VERTEX_POINT('',#290);
#63=VERTEX_POINT('',#293);
#64=VERTEX_POINT('',#324);
#65=VERTEX_POINT('',#326);
#66=VERTEX_POINT('',#328);
#67=VERTEX_POINT('',#332);
#68=EDGE_CURVE('',#57,#58,#52,.T.);
#69=EDGE_CURVE('',#59,#57,#53,.T.);
#70=EDGE_CURVE('',#59,#60,#44,.T.);
#71=EDGE_CURVE('',#61,#60,#54,.T.);
#72=EDGE_CURVE('',#60,#61,#55,.T.);
#73=EDGE_CURVE('',#58,#59,#56,.T.);
#74=EDGE_CURVE('',#62,#62,#21,.T.);
#75=EDGE_CURVE('',#62,#59,#45,.T.);
#76=EDGE_CURVE('',#58,#63,#46,.T.);
#77=EDGE_CURVE('',#63,#63,#22,.T.);
#78=EDGE_CURVE('',#64,#64,#23,.T.);
#79=EDGE_CURVE('',#64,#65,#24,.T.);
#80=EDGE_CURVE('',#65,#66,#25,.T.);
#81=EDGE_CURVE('',#66,#65,#26,.T.);
#82=EDGE_CURVE('',#66,#67,#47,.T.);
#83=EDGE_CURVE('',#67,#67,#27,.T.);
#84=ORIENTED_EDGE('',*,*,#68,.F.);
#85=ORIENTED_EDGE('',*,*,#69,.F.);
#86=ORIENTED_EDGE('',*,*,#70,.T.);
#87=ORIENTED_EDGE('',*,*,#71,.F.);
#88=ORIENTED_EDGE('',*,*,#72,.F.);
#89=ORIENTED_EDGE('',*,*,#70,.F.);
#90=ORIENTED_EDGE('',*,*,#73,.F.);
#91=ORIENTED_EDGE('',*,*,#74,.F.);
#92=ORIENTED_EDGE('',*,*,#75,.T.);
#93=ORIENTED_EDGE('',*,*,#69,.T.);
#94=ORIENTED_EDGE('',*,*,#68,.T.);
#95=ORIENTED_EDGE('',*,*,#76,.T.);
#96=ORIENTED_EDGE('',*,*,#77,.F.);
#97=ORIENTED_EDGE('',*,*,#76,.F.);
#98=ORIENTED_EDGE('',*,*,#73,.T.);
#99=ORIENTED_EDGE('',*,*,#75,.F.);
#100=ORIENTED_EDGE('',*,*,#77,.T.);
#101=ORIENTED_EDGE('',*,*,#78,.T.);
#102=ORIENTED_EDGE('',*,*,#79,.T.);
#103=ORIENTED_EDGE('',*,*,#80,.T.);
#104=ORIENTED_EDGE('',*,*,#81,.T.);
#105=ORIENTED_EDGE('',*,*,#79,.F.);
#106=ORIENTED_EDGE('',*,*,#80,.F.);
#107=ORIENTED_EDGE('',*,*,#81,.F.);
#108=ORIENTED_EDGE('',*,*,#82,.T.);
#109=ORIENTED_EDGE('',*,*,#83,.F.);
#110=ORIENTED_EDGE('',*,*,#82,.F.);
#111=ORIENTED_EDGE('',*,*,#71,.T.);
#112=ORIENTED_EDGE('',*,*,#72,.T.);
#113=ORIENTED_EDGE('',*,*,#78,.F.);
#114=ORIENTED_EDGE('',*,*,#83,.T.);
#115=ORIENTED_EDGE('',*,*,#74,.T.);
#116=CYLINDRICAL_SURFACE('',#146,1.425);
#117=CYLINDRICAL_SURFACE('',#147,1.5);
#118=CYLINDRICAL_SURFACE('',#155,5.);
#119=ADVANCED_FACE('',(#28),#116,.F.);
#120=ADVANCED_FACE('',(#29),#117,.F.);
#121=ADVANCED_FACE('',(#30),#18,.T.);
#122=ADVANCED_FACE('',(#31),#17,.F.);
#123=ADVANCED_FACE('',(#32,#15),#118,.T.);
#124=ADVANCED_FACE('',(#33),#19,.T.);
#125=ADVANCED_FACE('',(#34,#16),#20,.F.);
#126=CLOSED_SHELL('',(#119,#120,#121,#122,#123,#124,#125));
#127=DERIVED_UNIT_ELEMENT(#129,1.);
#128=DERIVED_UNIT_ELEMENT(#342,3.);
#129=(
MASS_UNIT()
NAMED_UNIT(*)
SI_UNIT($,.GRAM.)
);
#130=DERIVED_UNIT((#127,#128));
#131=MEASURE_REPRESENTATION_ITEM('density measure',
POSITIVE_RATIO_MEASURE(7.85),#130);
#132=PROPERTY_DEFINITION_REPRESENTATION(#137,#134);
#133=PROPERTY_DEFINITION_REPRESENTATION(#138,#135);
#134=REPRESENTATION('material name',(#136),#339);
#135=REPRESENTATION('density',(#131),#339);
#136=DESCRIPTIVE_REPRESENTATION_ITEM('Mild Steel S355 J2',
'Mild Steel S355 J2');
#137=PROPERTY_DEFINITION('material property','material name',#349);
#138=PROPERTY_DEFINITION('material property','density of part',#349);
#139=DATE_TIME_ROLE('creation_date');
#140=APPLIED_DATE_AND_TIME_ASSIGNMENT(#141,#139,(#349));
#141=DATE_AND_TIME(#142,#143);
#142=CALENDAR_DATE(2025,16,9);
#143=LOCAL_TIME(0,0,0.,#144);
#144=COORDINATED_UNIVERSAL_TIME_OFFSET(0,0,.BEHIND.);
#145=AXIS2_PLACEMENT_3D('placement',#191,#159,#160);
#146=AXIS2_PLACEMENT_3D('',#192,#161,#162);
#147=AXIS2_PLACEMENT_3D('',#289,#164,#165);
#148=AXIS2_PLACEMENT_3D('',#291,#166,#167);
#149=AXIS2_PLACEMENT_3D('',#295,#170,#171);
#150=AXIS2_PLACEMENT_3D('',#296,#172,#173);
#151=AXIS2_PLACEMENT_3D('',#325,#174,#175);
#152=AXIS2_PLACEMENT_3D('',#327,#176,#177);
#153=AXIS2_PLACEMENT_3D('',#329,#178,#179);
#154=AXIS2_PLACEMENT_3D('',#330,#180,#181);
#155=AXIS2_PLACEMENT_3D('',#331,#182,#183);
#156=AXIS2_PLACEMENT_3D('',#334,#185,#186);
#157=AXIS2_PLACEMENT_3D('',#335,#187,#188);
#158=AXIS2_PLACEMENT_3D('',#336,#189,#190);
#159=DIRECTION('axis',(0.,0.,1.));
#160=DIRECTION('refdir',(1.,0.,0.));
#161=DIRECTION('center_axis',(1.,0.,0.));
#162=DIRECTION('ref_axis',(0.,1.,0.));
#163=DIRECTION('',(-1.,0.,0.));
#164=DIRECTION('center_axis',(0.,-1.,0.));
#165=DIRECTION('ref_axis',(1.,0.,0.));
#166=DIRECTION('center_axis',(0.,1.,0.));
#167=DIRECTION('ref_axis',(1.,0.,0.));
#168=DIRECTION('',(0.,1.,0.));
#169=DIRECTION('',(0.,1.,0.));
#170=DIRECTION('center_axis',(0.,-1.,0.));
#171=DIRECTION('ref_axis',(1.,0.,0.));
#172=DIRECTION('center_axis',(0.,-1.,0.));
#173=DIRECTION('ref_axis',(1.,0.,0.));
#174=DIRECTION('center_axis',(0.,-1.,0.));
#175=DIRECTION('ref_axis',(1.,0.,1.22464679914735E-16));
#176=DIRECTION('center_axis',(-1.,0.,1.22464679914735E-16));
#177=DIRECTION('ref_axis',(-1.22464679914735E-16,0.,-1.));
#178=DIRECTION('center_axis',(0.,1.,0.));
#179=DIRECTION('ref_axis',(1.,0.,1.22464679914735E-16));
#180=DIRECTION('center_axis',(0.,1.,0.));
#181=DIRECTION('ref_axis',(1.,0.,1.22464679914735E-16));
#182=DIRECTION('center_axis',(0.,1.,0.));
#183=DIRECTION('ref_axis',(-1.,0.,0.));
#184=DIRECTION('',(0.,-1.,0.));
#185=DIRECTION('center_axis',(0.,-1.,0.));
#186=DIRECTION('ref_axis',(-1.,0.,0.));
#187=DIRECTION('center_axis',(0.,1.,0.));
#188=DIRECTION('ref_axis',(0.,0.,1.));
#189=DIRECTION('center_axis',(0.,1.,0.));
#190=DIRECTION('ref_axis',(0.,0.,1.));
#191=CARTESIAN_POINT('',(0.,0.,0.));
#192=CARTESIAN_POINT('Origin',(-5.2,-1.5,0.));
#193=CARTESIAN_POINT('',(-0.46837484987988,-1.5,1.425));
#194=CARTESIAN_POINT('',(-1.5,-0.0749999999999998,-9.18485099360515E-17));
#195=CARTESIAN_POINT('Ctrl Pts',(-0.46837484987988,-1.5,1.425));
#196=CARTESIAN_POINT('Ctrl Pts',(-0.46837484987988,-1.38972879476165,1.425));
#197=CARTESIAN_POINT('Ctrl Pts',(-0.505002842837005,-1.29647439634183,1.41336081181327));
#198=CARTESIAN_POINT('Ctrl Pts',(-0.60009803220801,-1.11722538719631,1.37568061066635));
#199=CARTESIAN_POINT('Ctrl Pts',(-0.659869999607643,-1.0320561592814,1.34902439221777));
#200=CARTESIAN_POINT('Ctrl Pts',(-0.851056052027924,-0.781203263112314,
1.24373311030934));
#201=CARTESIAN_POINT('Ctrl Pts',(-0.992120229290892,-0.623649861131785,
1.13890418751345));
#202=CARTESIAN_POINT('Ctrl Pts',(-1.21600110545734,-0.376764319520705,0.892018645902366));
#203=CARTESIAN_POINT('Ctrl Pts',(-1.31774156154335,-0.268043417328595,0.740954607141987));
#204=CARTESIAN_POINT('Ctrl Pts',(-1.42443316739999,-0.154712987898247,0.479431314771369));
#205=CARTESIAN_POINT('Ctrl Pts',(-1.45262742590719,-0.124939548433935,0.38649974541398));
#206=CARTESIAN_POINT('Ctrl Pts',(-1.4904091832946,-0.0850847381281557,0.195338328014511));
#207=CARTESIAN_POINT('Ctrl Pts',(-1.5,-0.0749999999999998,0.0971098377876739));
#208=CARTESIAN_POINT('Ctrl Pts',(-1.5,-0.0749999999999998,0.));
#209=CARTESIAN_POINT('',(-1.5,-2.925,-1.91339492997857E-16));
#210=CARTESIAN_POINT('Ctrl Pts',(-1.5,-2.925,-2.08166817117217E-16));
#211=CARTESIAN_POINT('Ctrl Pts',(-1.5,-2.925,0.0971098377876735));
#212=CARTESIAN_POINT('Ctrl Pts',(-1.4904091832946,-2.91491526187184,0.195338328014511));
#213=CARTESIAN_POINT('Ctrl Pts',(-1.45262742590719,-2.87506045156606,0.38649974541398));
#214=CARTESIAN_POINT('Ctrl Pts',(-1.42443316739999,-2.84528701210175,0.479431314771369));
#215=CARTESIAN_POINT('Ctrl Pts',(-1.31774156154335,-2.7319565826714,0.740954607141987));
#216=CARTESIAN_POINT('Ctrl Pts',(-1.21600110545734,-2.62323568047929,0.892018645902366));
#217=CARTESIAN_POINT('Ctrl Pts',(-0.992120229290892,-2.37635013886821,1.13890418751345));
#218=CARTESIAN_POINT('Ctrl Pts',(-0.851056052027924,-2.21879673688769,1.24373311030934));
#219=CARTESIAN_POINT('Ctrl Pts',(-0.659869999607643,-1.9679438407186,1.34902439221777));
#220=CARTESIAN_POINT('Ctrl Pts',(-0.600098032208011,-1.88277461280369,1.37568061066635));
#221=CARTESIAN_POINT('Ctrl Pts',(-0.505002842837006,-1.70352560365817,1.41336081181327));
#222=CARTESIAN_POINT('Ctrl Pts',(-0.46837484987988,-1.61027120523835,1.425));
#223=CARTESIAN_POINT('Ctrl Pts',(-0.46837484987988,-1.5,1.425));
#224=CARTESIAN_POINT('',(-5.,-2.925,-1.74512168878498E-16));
#225=CARTESIAN_POINT('',(-5.2,-2.925,-1.74512168878498E-16));
#226=CARTESIAN_POINT('',(-4.79263758279301,-1.5,-1.425));
#227=CARTESIAN_POINT('Ctrl Pts',(-4.79263758279301,-1.5,-1.425));
#228=CARTESIAN_POINT('Ctrl Pts',(-4.79263758279301,-1.31997077465798,-1.425));
#229=CARTESIAN_POINT('Ctrl Pts',(-4.80384163917744,-1.12867370339091,-1.38881590123143));
#230=CARTESIAN_POINT('Ctrl Pts',(-4.84359649320505,-0.777908481615026,-1.24309167348581));
#231=CARTESIAN_POINT('Ctrl Pts',(-4.87149774095207,-0.618346533537206,-1.13360085991887));
#232=CARTESIAN_POINT('Ctrl Pts',(-4.92332884607135,-0.3664294415117,-0.881683767893361));
#233=CARTESIAN_POINT('Ctrl Pts',(-4.95072693618578,-0.256915109969834,-0.722109407915262));
#234=CARTESIAN_POINT('Ctrl Pts',(-4.98931617821833,-0.111173585253223,-0.371299428608087));
#235=CARTESIAN_POINT('Ctrl Pts',(-5.,-0.0749999999999998,-0.1799859215158));
#236=CARTESIAN_POINT('Ctrl Pts',(-5.,-0.0749999999999998,0.1799859215158));
#237=CARTESIAN_POINT('Ctrl Pts',(-4.98931617821833,-0.111173585253223,0.371299428608087));
#238=CARTESIAN_POINT('Ctrl Pts',(-4.95072693618578,-0.256915109969834,0.722109407915262));
#239=CARTESIAN_POINT('Ctrl Pts',(-4.92332884607135,-0.3664294415117,0.881683767893361));
#240=CARTESIAN_POINT('Ctrl Pts',(-4.87149774095207,-0.618346533537206,1.13360085991887));
#241=CARTESIAN_POINT('Ctrl Pts',(-4.84359649320505,-0.777908481615026,1.24309167348581));
#242=CARTESIAN_POINT('Ctrl Pts',(-4.80384163917744,-1.12867370339091,1.38881590123143));
#243=CARTESIAN_POINT('Ctrl Pts',(-4.79263758279301,-1.31997077465798,1.425));
#244=CARTESIAN_POINT('Ctrl Pts',(-4.79263758279301,-1.68002922534202,1.425));
#245=CARTESIAN_POINT('Ctrl Pts',(-4.80384163917744,-1.87132629660909,1.38881590123143));
#246=CARTESIAN_POINT('Ctrl Pts',(-4.84359649320505,-2.22209151838497,1.24309167348581));
#247=CARTESIAN_POINT('Ctrl Pts',(-4.87149774095207,-2.38165346646279,1.13360085991887));
#248=CARTESIAN_POINT('Ctrl Pts',(-4.92332884607135,-2.6335705584883,0.881683767893361));
#249=CARTESIAN_POINT('Ctrl Pts',(-4.95072693618578,-2.74308489003016,0.722109407915263));
#250=CARTESIAN_POINT('Ctrl Pts',(-4.98931617821833,-2.88882641474678,0.371299428608087));
#251=CARTESIAN_POINT('Ctrl Pts',(-5.,-2.925,0.179985921515801));
#252=CARTESIAN_POINT('Ctrl Pts',(-5.,-2.925,3.12250225675825E-16));
#253=CARTESIAN_POINT('Ctrl Pts',(-5.,-2.925,2.77555756156289E-16));
#254=CARTESIAN_POINT('Ctrl Pts',(-5.,-2.925,-0.1799859215158));
#255=CARTESIAN_POINT('Ctrl Pts',(-4.98931617821833,-2.88882641474678,-0.371299428608087));
#256=CARTESIAN_POINT('Ctrl Pts',(-4.95072693618578,-2.74308489003017,-0.722109407915262));
#257=CARTESIAN_POINT('Ctrl Pts',(-4.92332884607135,-2.6335705584883,-0.88168376789336));
#258=CARTESIAN_POINT('Ctrl Pts',(-4.87149774095207,-2.38165346646279,-1.13360085991887));
#259=CARTESIAN_POINT('Ctrl Pts',(-4.84359649320505,-2.22209151838497,-1.24309167348581));
#260=CARTESIAN_POINT('Ctrl Pts',(-4.80384163917744,-1.87132629660909,-1.38881590123143));
#261=CARTESIAN_POINT('Ctrl Pts',(-4.79263758279301,-1.68002922534202,-1.425));
#262=CARTESIAN_POINT('Ctrl Pts',(-4.79263758279301,-1.5,-1.425));
#263=CARTESIAN_POINT('Ctrl Pts',(-1.5,-0.0749999999999998,0.));
#264=CARTESIAN_POINT('Ctrl Pts',(-1.5,-0.0749999999999998,-0.0971098377876739));
#265=CARTESIAN_POINT('Ctrl Pts',(-1.4904091832946,-0.0850847381281557,-0.195338328014511));
#266=CARTESIAN_POINT('Ctrl Pts',(-1.45262742590719,-0.124939548433935,-0.38649974541398));
#267=CARTESIAN_POINT('Ctrl Pts',(-1.42443316739999,-0.154712987898247,-0.479431314771369));
#268=CARTESIAN_POINT('Ctrl Pts',(-1.31774156154335,-0.268043417328595,-0.740954607141987));
#269=CARTESIAN_POINT('Ctrl Pts',(-1.21600110545734,-0.376764319520705,-0.892018645902366));
#270=CARTESIAN_POINT('Ctrl Pts',(-0.992120229290892,-0.623649861131785,
-1.13890418751345));
#271=CARTESIAN_POINT('Ctrl Pts',(-0.851056052027924,-0.781203263112315,
-1.24373311030934));
#272=CARTESIAN_POINT('Ctrl Pts',(-0.659869999607643,-1.0320561592814,-1.34902439221777));
#273=CARTESIAN_POINT('Ctrl Pts',(-0.60009803220801,-1.11722538719631,-1.37568061066635));
#274=CARTESIAN_POINT('Ctrl Pts',(-0.505002842837005,-1.29647439634183,-1.41336081181327));
#275=CARTESIAN_POINT('Ctrl Pts',(-0.46837484987988,-1.38972879476165,-1.425));
#276=CARTESIAN_POINT('Ctrl Pts',(-0.46837484987988,-1.61027120523835,-1.425));
#277=CARTESIAN_POINT('Ctrl Pts',(-0.505002842837005,-1.70352560365817,-1.41336081181327));
#278=CARTESIAN_POINT('Ctrl Pts',(-0.60009803220801,-1.88277461280369,-1.37568061066635));
#279=CARTESIAN_POINT('Ctrl Pts',(-0.659869999607643,-1.9679438407186,-1.34902439221777));
#280=CARTESIAN_POINT('Ctrl Pts',(-0.851056052027924,-2.21879673688768,-1.24373311030934));
#281=CARTESIAN_POINT('Ctrl Pts',(-0.992120229290892,-2.37635013886821,-1.13890418751345));
#282=CARTESIAN_POINT('Ctrl Pts',(-1.21600110545734,-2.62323568047929,-0.892018645902366));
#283=CARTESIAN_POINT('Ctrl Pts',(-1.31774156154335,-2.7319565826714,-0.740954607141987));
#284=CARTESIAN_POINT('Ctrl Pts',(-1.42443316739999,-2.84528701210175,-0.479431314771369));
#285=CARTESIAN_POINT('Ctrl Pts',(-1.45262742590719,-2.87506045156606,-0.38649974541398));
#286=CARTESIAN_POINT('Ctrl Pts',(-1.4904091832946,-2.91491526187184,-0.195338328014511));
#287=CARTESIAN_POINT('Ctrl Pts',(-1.5,-2.925,-0.0971098377876739));
#288=CARTESIAN_POINT('Ctrl Pts',(-1.5,-2.925,-2.08166817117217E-16));
#289=CARTESIAN_POINT('Origin',(0.,-1.5,0.));
#290=CARTESIAN_POINT('',(-1.5,-5.,-1.83697019872103E-16));
#291=CARTESIAN_POINT('Origin',(0.,-5.,0.));
#292=CARTESIAN_POINT('',(-1.5,-1.5,-1.83697019872103E-16));
#293=CARTESIAN_POINT('',(-1.5,2.,-1.83697019872103E-16));
#294=CARTESIAN_POINT('',(-1.5,-1.5,-1.83697019872103E-16));
#295=CARTESIAN_POINT('Origin',(0.,2.,0.));
#296=CARTESIAN_POINT('Origin',(0.,2.,0.));
#297=CARTESIAN_POINT('Ctrl Pts',(0.,1.,-5.));
#298=CARTESIAN_POINT('Ctrl Pts',(-5.,1.,-5.));
#299=CARTESIAN_POINT('Ctrl Pts',(-5.,1.,0.));
#300=CARTESIAN_POINT('Ctrl Pts',(-5.,1.,5.));
#301=CARTESIAN_POINT('Ctrl Pts',(0.,1.,5.));
#302=CARTESIAN_POINT('Ctrl Pts',(5.,1.,5.));
#303=CARTESIAN_POINT('Ctrl Pts',(5.,1.,0.));
#304=CARTESIAN_POINT('Ctrl Pts',(5.,1.,-5.));
#305=CARTESIAN_POINT('Ctrl Pts',(0.,1.,-5.));
#306=CARTESIAN_POINT('Ctrl Pts',(0.,5.,-5.));
#307=CARTESIAN_POINT('Ctrl Pts',(-5.,5.,-5.));
#308=CARTESIAN_POINT('Ctrl Pts',(-5.,5.,0.));
#309=CARTESIAN_POINT('Ctrl Pts',(-5.,5.,5.));
#310=CARTESIAN_POINT('Ctrl Pts',(0.,5.,5.));
#311=CARTESIAN_POINT('Ctrl Pts',(5.,5.,5.));
#312=CARTESIAN_POINT('Ctrl Pts',(5.,5.,0.));
#313=CARTESIAN_POINT('Ctrl Pts',(5.,5.,-5.));
#314=CARTESIAN_POINT('Ctrl Pts',(0.,5.,-5.));
#315=CARTESIAN_POINT('Ctrl Pts',(0.,5.,-1.));
#316=CARTESIAN_POINT('Ctrl Pts',(-1.,5.,-1.));
#317=CARTESIAN_POINT('Ctrl Pts',(-1.,5.,0.));
#318=CARTESIAN_POINT('Ctrl Pts',(-1.,5.,1.));
#319=CARTESIAN_POINT('Ctrl Pts',(0.,5.,1.));
#320=CARTESIAN_POINT('Ctrl Pts',(1.,5.,1.));
#321=CARTESIAN_POINT('Ctrl Pts',(1.,5.,0.));
#322=CARTESIAN_POINT('Ctrl Pts',(1.,5.,-1.));
#323=CARTESIAN_POINT('Ctrl Pts',(0.,5.,-1.));
#324=CARTESIAN_POINT('',(-1.22464679914735E-16,5.,-1.));
#325=CARTESIAN_POINT('Origin',(0.,5.,0.));
#326=CARTESIAN_POINT('',(-6.12323399573677E-16,1.,-5.));
#327=CARTESIAN_POINT('Origin',(-1.22464679914735E-16,1.,-1.));
#328=CARTESIAN_POINT('',(5.,1.,-6.12323399573677E-16));
#329=CARTESIAN_POINT('Origin',(0.,1.,0.));
#330=CARTESIAN_POINT('Origin',(0.,1.,0.));
#331=CARTESIAN_POINT('Origin',(0.,0.,0.));
#332=CARTESIAN_POINT('',(5.,-5.,-6.12323399573677E-16));
#333=CARTESIAN_POINT('',(5.,0.,-6.12323399573677E-16));
#334=CARTESIAN_POINT('Origin',(0.,-5.,0.));
#335=CARTESIAN_POINT('Origin',(0.,5.,0.));
#336=CARTESIAN_POINT('Origin',(0.,-5.,0.));
#337=UNCERTAINTY_MEASURE_WITH_UNIT(LENGTH_MEASURE(0.01),#341,
'DISTANCE_ACCURACY_VALUE',
'Maximum model space distance between geometric entities at asserted c
onnectivities');
#338=UNCERTAINTY_MEASURE_WITH_UNIT(LENGTH_MEASURE(0.01),#341,
'DISTANCE_ACCURACY_VALUE',
'Maximum model space distance between geometric entities at asserted c
onnectivities');
#339=(
GEOMETRIC_REPRESENTATION_CONTEXT(3)
GLOBAL_UNCERTAINTY_ASSIGNED_CONTEXT((#337))
GLOBAL_UNIT_ASSIGNED_CONTEXT((#341,#343,#344))
REPRESENTATION_CONTEXT('','3D')
);
#340=(
GEOMETRIC_REPRESENTATION_CONTEXT(3)
GLOBAL_UNCERTAINTY_ASSIGNED_CONTEXT((#338))
GLOBAL_UNIT_ASSIGNED_CONTEXT((#341,#343,#344))
REPRESENTATION_CONTEXT('','3D')
);
#341=(
LENGTH_UNIT()
NAMED_UNIT(*)
SI_UNIT(.MILLI.,.METRE.)
);
#342=(
LENGTH_UNIT()
NAMED_UNIT(*)
SI_UNIT(.CENTI.,.METRE.)
);
#343=(
NAMED_UNIT(*)
PLANE_ANGLE_UNIT()
SI_UNIT($,.RADIAN.)
);
#344=(
NAMED_UNIT(*)
SI_UNIT($,.STERADIAN.)
SOLID_ANGLE_UNIT()
);
#345=SHAPE_DEFINITION_REPRESENTATION(#346,#347);
#346=PRODUCT_DEFINITION_SHAPE('',$,#349);
#347=SHAPE_REPRESENTATION('',(#145),#339);
#348=PRODUCT_DEFINITION_CONTEXT('part definition',#353,'design');
#349=PRODUCT_DEFINITION('Top Lock Cap','Top Lock Cap',#350,#348);
#350=PRODUCT_DEFINITION_FORMATION('',$,#355);
#351=PRODUCT_RELATED_PRODUCT_CATEGORY('Top Lock Cap','Top Lock Cap',(#355));
#352=APPLICATION_PROTOCOL_DEFINITION('international standard',
'automotive_design',2009,#353);
#353=APPLICATION_CONTEXT(
'Core Data for Automotive Mechanical Design Process');
#354=PRODUCT_CONTEXT('part definition',#353,'mechanical');
#355=PRODUCT('Top Lock Cap','Top Lock Cap',$,(#354));
#356=PRESENTATION_STYLE_ASSIGNMENT((#357));
#357=SURFACE_STYLE_USAGE(.BOTH.,#360);
#358=SURFACE_STYLE_RENDERING_WITH_PROPERTIES($,#364,(#359));
#359=SURFACE_STYLE_TRANSPARENT(0.);
#360=SURFACE_SIDE_STYLE('',(#361,#358));
#361=SURFACE_STYLE_FILL_AREA(#362);
#362=FILL_AREA_STYLE('',(#363));
#363=FILL_AREA_STYLE_COLOUR('',#364);
#364=COLOUR_RGB('',0.745098039215686,0.737254901960784,0.729411764705882);
ENDSEC;
END-ISO-10303-21;
