ISO-10303-21;
HEADER;
/* Generated by software containing ST-Developer
 * from STEP Tools, Inc. (www.steptools.com) 
 */

FILE_DESCRIPTION(
/* description */ (''),
/* implementation_level */ '2;1');

FILE_NAME(
/* name */ 
'S:\\Future Scope 1\\WIP\\Client Category\\Tom\\02 Progressive Work\\W
heel Mounting Cap.stp',
/* time_stamp */ '2025-11-05T12:14:36+06:00',
/* author */ ('SD'),
/* organization */ (''),
/* preprocessor_version */ 'ST-DEVELOPER v18.1',
/* originating_system */ 'Autodesk Inventor 2021',
/* authorisation */ '');

FILE_SCHEMA (('AUTOMOTIVE_DESIGN { 1 0 10303 214 3 1 1 }'));
ENDSEC;

DATA;
#10=MECHANICAL_DESIGN_GEOMETRIC_PRESENTATION_REPRESENTATION('',(#13),#512);
#11=SHAPE_REPRESENTATION_RELATIONSHIP('SRR','None',#519,#12);
#12=ADVANCED_BREP_SHAPE_REPRESENTATION('',(#14),#511);
#13=STYLED_ITEM('',(#528),#14);
#14=MANIFOLD_SOLID_BREP('Solid2',#238);
#15=PLANE('',#264);
#16=PLANE('',#270);
#17=FACE_BOUND('',#48,.T.);
#18=FACE_BOUND('',#50,.T.);
#19=FACE_BOUND('',#51,.T.);
#20=FACE_BOUND('',#52,.T.);
#21=FACE_BOUND('',#55,.T.);
#22=FACE_BOUND('',#56,.T.);
#23=FACE_BOUND('',#57,.T.);
#24=FACE_BOUND('',#60,.T.);
#25=B_SPLINE_CURVE_WITH_KNOTS('',3,(#375,#376,#377,#378,#379,#380,#381,
#382,#383,#384,#385,#386,#387,#388,#389,#390,#391,#392,#393,#394,#395,#396,
#397,#398,#399,#400,#401,#402,#403,#404,#405,#406,#407,#408,#409,#410,#411,
#412,#413,#414,#415,#416,#417,#418,#419,#420,#421,#422,#423,#424),
 .UNSPECIFIED.,.T.,.F.,(4,2,2,2,2,2,2,2,2,2,2,2,2,2,2,2,2,2,2,2,2,2,2,2,
4),(0.,0.0330813615715053,0.0661627231430105,0.132325446286021,0.190591348958625,
0.219724300294928,0.24885725163123,0.277990202967532,0.307123154303834,
0.365389056976438,0.431551780119449,0.464633141690954,0.49771450326246,
0.530795864833965,0.56387722640547,0.630039949548481,0.688305852221085,
0.717438803557387,0.746571754893689,0.775704706229992,0.804837657566294,
0.863103560238898,0.929266283381908,0.962347644953414,0.995429006524919),
 .UNSPECIFIED.);
#26=B_SPLINE_CURVE_WITH_KNOTS('',3,(#457,#458,#459,#460,#461,#462,#463,
#464,#465,#466,#467,#468,#469,#470,#471,#472,#473,#474),.UNSPECIFIED.,.F.,
 .F.,(4,2,2,2,2,2,2,2,4),(0.,0.053756896696378,0.107513793392756,0.16126992823112,
0.215026063069485,0.268782197907849,0.322538332746214,0.376295229442592,
0.430052126138969),.UNSPECIFIED.);
#27=B_SPLINE_CURVE_WITH_KNOTS('',3,(#475,#476,#477,#478,#479,#480,#481,
#482,#483,#484,#485,#486,#487,#488,#489,#490,#491,#492),.UNSPECIFIED.,.F.,
 .F.,(4,2,2,2,2,2,2,2,4),(0.430052126138969,0.483809022835347,0.537565919531725,
0.59132205437009,0.645078189208454,0.698834324046818,0.752590458885183,
0.806347355581561,0.860104252277939),.UNSPECIFIED.);
#28=CYLINDRICAL_SURFACE('',#261,1.5);
#29=CYLINDRICAL_SURFACE('',#277,10.);
#30=CYLINDRICAL_SURFACE('',#281,1.425);
#31=CYLINDRICAL_SURFACE('',#284,1.75);
#32=CYLINDRICAL_SURFACE('',#287,1.75);
#33=FACE_OUTER_BOUND('',#46,.T.);
#34=FACE_OUTER_BOUND('',#47,.T.);
#35=FACE_OUTER_BOUND('',#49,.T.);
#36=FACE_OUTER_BOUND('',#53,.T.);
#37=FACE_OUTER_BOUND('',#54,.T.);
#38=FACE_OUTER_BOUND('',#58,.T.);
#39=FACE_OUTER_BOUND('',#59,.T.);
#40=FACE_OUTER_BOUND('',#61,.T.);
#41=FACE_OUTER_BOUND('',#62,.T.);
#42=FACE_OUTER_BOUND('',#63,.T.);
#43=FACE_OUTER_BOUND('',#64,.T.);
#44=FACE_OUTER_BOUND('',#65,.T.);
#45=FACE_OUTER_BOUND('',#66,.T.);
#46=EDGE_LOOP('',(#157,#158,#159,#160));
#47=EDGE_LOOP('',(#161,#162,#163,#164,#165));
#48=EDGE_LOOP('',(#166));
#49=EDGE_LOOP('',(#167));
#50=EDGE_LOOP('',(#168));
#51=EDGE_LOOP('',(#169));
#52=EDGE_LOOP('',(#170));
#53=EDGE_LOOP('',(#171,#172,#173,#174,#175));
#54=EDGE_LOOP('',(#176));
#55=EDGE_LOOP('',(#177));
#56=EDGE_LOOP('',(#178));
#57=EDGE_LOOP('',(#179));
#58=EDGE_LOOP('',(#180,#181,#182,#183,#184));
#59=EDGE_LOOP('',(#185,#186,#187,#188,#189,#190));
#60=EDGE_LOOP('',(#191,#192));
#61=EDGE_LOOP('',(#193,#194,#195,#196,#197));
#62=EDGE_LOOP('',(#198,#199,#200,#201,#202));
#63=EDGE_LOOP('',(#203,#204,#205,#206));
#64=EDGE_LOOP('',(#207,#208,#209,#210));
#65=EDGE_LOOP('',(#211,#212,#213,#214));
#66=EDGE_LOOP('',(#215,#216,#217,#218));
#67=LINE('',#366,#78);
#68=LINE('',#373,#79);
#69=LINE('',#435,#80);
#70=LINE('',#445,#81);
#71=LINE('',#454,#82);
#72=LINE('',#494,#83);
#73=LINE('',#496,#84);
#74=LINE('',#499,#85);
#75=LINE('',#502,#86);
#76=LINE('',#505,#87);
#77=LINE('',#508,#88);
#78=VECTOR('',#294,1.6);
#79=VECTOR('',#303,1.5);
#80=VECTOR('',#316,1.6);
#81=VECTOR('',#327,9.75);
#82=VECTOR('',#338,10.);
#83=VECTOR('',#341,9.75);
#84=VECTOR('',#344,1.425);
#85=VECTOR('',#347,2.45);
#86=VECTOR('',#352,1.75);
#87=VECTOR('',#355,2.45);
#88=VECTOR('',#360,1.75);
#89=CIRCLE('',#259,1.7);
#90=CIRCLE('',#260,1.5);
#91=CIRCLE('',#262,1.5);
#92=CIRCLE('',#263,1.5);
#93=CIRCLE('',#265,9.5);
#94=CIRCLE('',#266,1.75);
#95=CIRCLE('',#267,1.75);
#96=CIRCLE('',#269,1.7);
#97=CIRCLE('',#271,9.5);
#98=CIRCLE('',#272,3.15);
#99=CIRCLE('',#273,3.15);
#100=CIRCLE('',#275,10.);
#101=CIRCLE('',#276,10.);
#102=CIRCLE('',#278,10.);
#103=CIRCLE('',#279,10.);
#104=CIRCLE('',#283,1.75);
#105=CIRCLE('',#286,1.75);
#106=VERTEX_POINT('',#363);
#107=VERTEX_POINT('',#365);
#108=VERTEX_POINT('',#369);
#109=VERTEX_POINT('',#370);
#110=VERTEX_POINT('',#374);
#111=VERTEX_POINT('',#426);
#112=VERTEX_POINT('',#428);
#113=VERTEX_POINT('',#430);
#114=VERTEX_POINT('',#433);
#115=VERTEX_POINT('',#437);
#116=VERTEX_POINT('',#439);
#117=VERTEX_POINT('',#441);
#118=VERTEX_POINT('',#444);
#119=VERTEX_POINT('',#446);
#120=VERTEX_POINT('',#450);
#121=VERTEX_POINT('',#451);
#122=VERTEX_POINT('',#455);
#123=VERTEX_POINT('',#456);
#124=VERTEX_POINT('',#498);
#125=VERTEX_POINT('',#504);
#126=EDGE_CURVE('',#106,#106,#89,.T.);
#127=EDGE_CURVE('',#106,#107,#67,.T.);
#128=EDGE_CURVE('',#107,#107,#90,.T.);
#129=EDGE_CURVE('',#108,#109,#91,.T.);
#130=EDGE_CURVE('',#109,#108,#92,.T.);
#131=EDGE_CURVE('',#109,#107,#68,.T.);
#132=EDGE_CURVE('',#110,#110,#25,.T.);
#133=EDGE_CURVE('',#111,#111,#93,.T.);
#134=EDGE_CURVE('',#112,#112,#94,.T.);
#135=EDGE_CURVE('',#113,#113,#95,.T.);
#136=EDGE_CURVE('',#114,#114,#96,.T.);
#137=EDGE_CURVE('',#114,#108,#69,.T.);
#138=EDGE_CURVE('',#115,#115,#97,.T.);
#139=EDGE_CURVE('',#116,#116,#98,.T.);
#140=EDGE_CURVE('',#117,#117,#99,.T.);
#141=EDGE_CURVE('',#111,#118,#70,.T.);
#142=EDGE_CURVE('',#118,#119,#100,.T.);
#143=EDGE_CURVE('',#119,#118,#101,.T.);
#144=EDGE_CURVE('',#120,#121,#102,.T.);
#145=EDGE_CURVE('',#121,#120,#103,.T.);
#146=EDGE_CURVE('',#121,#119,#71,.T.);
#147=EDGE_CURVE('',#122,#123,#26,.T.);
#148=EDGE_CURVE('',#123,#122,#27,.T.);
#149=EDGE_CURVE('',#115,#120,#72,.T.);
#150=EDGE_CURVE('',#110,#123,#73,.T.);
#151=EDGE_CURVE('',#116,#124,#74,.T.);
#152=EDGE_CURVE('',#124,#124,#104,.T.);
#153=EDGE_CURVE('',#124,#112,#75,.T.);
#154=EDGE_CURVE('',#117,#125,#76,.T.);
#155=EDGE_CURVE('',#125,#125,#105,.T.);
#156=EDGE_CURVE('',#125,#113,#77,.T.);
#157=ORIENTED_EDGE('',*,*,#126,.T.);
#158=ORIENTED_EDGE('',*,*,#127,.T.);
#159=ORIENTED_EDGE('',*,*,#128,.T.);
#160=ORIENTED_EDGE('',*,*,#127,.F.);
#161=ORIENTED_EDGE('',*,*,#129,.F.);
#162=ORIENTED_EDGE('',*,*,#130,.F.);
#163=ORIENTED_EDGE('',*,*,#131,.T.);
#164=ORIENTED_EDGE('',*,*,#128,.F.);
#165=ORIENTED_EDGE('',*,*,#131,.F.);
#166=ORIENTED_EDGE('',*,*,#132,.T.);
#167=ORIENTED_EDGE('',*,*,#133,.F.);
#168=ORIENTED_EDGE('',*,*,#134,.T.);
#169=ORIENTED_EDGE('',*,*,#135,.T.);
#170=ORIENTED_EDGE('',*,*,#126,.F.);
#171=ORIENTED_EDGE('',*,*,#136,.T.);
#172=ORIENTED_EDGE('',*,*,#137,.T.);
#173=ORIENTED_EDGE('',*,*,#129,.T.);
#174=ORIENTED_EDGE('',*,*,#130,.T.);
#175=ORIENTED_EDGE('',*,*,#137,.F.);
#176=ORIENTED_EDGE('',*,*,#138,.F.);
#177=ORIENTED_EDGE('',*,*,#139,.T.);
#178=ORIENTED_EDGE('',*,*,#140,.T.);
#179=ORIENTED_EDGE('',*,*,#136,.F.);
#180=ORIENTED_EDGE('',*,*,#133,.T.);
#181=ORIENTED_EDGE('',*,*,#141,.T.);
#182=ORIENTED_EDGE('',*,*,#142,.T.);
#183=ORIENTED_EDGE('',*,*,#143,.T.);
#184=ORIENTED_EDGE('',*,*,#141,.F.);
#185=ORIENTED_EDGE('',*,*,#144,.F.);
#186=ORIENTED_EDGE('',*,*,#145,.F.);
#187=ORIENTED_EDGE('',*,*,#146,.T.);
#188=ORIENTED_EDGE('',*,*,#142,.F.);
#189=ORIENTED_EDGE('',*,*,#143,.F.);
#190=ORIENTED_EDGE('',*,*,#146,.F.);
#191=ORIENTED_EDGE('',*,*,#147,.T.);
#192=ORIENTED_EDGE('',*,*,#148,.T.);
#193=ORIENTED_EDGE('',*,*,#138,.T.);
#194=ORIENTED_EDGE('',*,*,#149,.T.);
#195=ORIENTED_EDGE('',*,*,#144,.T.);
#196=ORIENTED_EDGE('',*,*,#145,.T.);
#197=ORIENTED_EDGE('',*,*,#149,.F.);
#198=ORIENTED_EDGE('',*,*,#132,.F.);
#199=ORIENTED_EDGE('',*,*,#150,.T.);
#200=ORIENTED_EDGE('',*,*,#147,.F.);
#201=ORIENTED_EDGE('',*,*,#148,.F.);
#202=ORIENTED_EDGE('',*,*,#150,.F.);
#203=ORIENTED_EDGE('',*,*,#139,.F.);
#204=ORIENTED_EDGE('',*,*,#151,.T.);
#205=ORIENTED_EDGE('',*,*,#152,.F.);
#206=ORIENTED_EDGE('',*,*,#151,.F.);
#207=ORIENTED_EDGE('',*,*,#152,.T.);
#208=ORIENTED_EDGE('',*,*,#153,.T.);
#209=ORIENTED_EDGE('',*,*,#134,.F.);
#210=ORIENTED_EDGE('',*,*,#153,.F.);
#211=ORIENTED_EDGE('',*,*,#140,.F.);
#212=ORIENTED_EDGE('',*,*,#154,.T.);
#213=ORIENTED_EDGE('',*,*,#155,.F.);
#214=ORIENTED_EDGE('',*,*,#154,.F.);
#215=ORIENTED_EDGE('',*,*,#155,.T.);
#216=ORIENTED_EDGE('',*,*,#156,.T.);
#217=ORIENTED_EDGE('',*,*,#135,.F.);
#218=ORIENTED_EDGE('',*,*,#156,.F.);
#219=CONICAL_SURFACE('',#258,1.6,0.785398163397448);
#220=CONICAL_SURFACE('',#268,1.6,0.785398163397448);
#221=CONICAL_SURFACE('',#274,9.75,0.785398163397449);
#222=CONICAL_SURFACE('',#280,9.75,0.785398163397449);
#223=CONICAL_SURFACE('',#282,2.45,0.785398163397448);
#224=CONICAL_SURFACE('',#285,2.45,0.785398163397448);
#225=ADVANCED_FACE('',(#33),#219,.F.);
#226=ADVANCED_FACE('',(#34,#17),#28,.F.);
#227=ADVANCED_FACE('',(#35,#18,#19,#20),#15,.F.);
#228=ADVANCED_FACE('',(#36),#220,.F.);
#229=ADVANCED_FACE('',(#37,#21,#22,#23),#16,.T.);
#230=ADVANCED_FACE('',(#38),#221,.T.);
#231=ADVANCED_FACE('',(#39,#24),#29,.T.);
#232=ADVANCED_FACE('',(#40),#222,.T.);
#233=ADVANCED_FACE('',(#41),#30,.F.);
#234=ADVANCED_FACE('',(#42),#223,.F.);
#235=ADVANCED_FACE('',(#43),#31,.F.);
#236=ADVANCED_FACE('',(#44),#224,.F.);
#237=ADVANCED_FACE('',(#45),#32,.F.);
#238=CLOSED_SHELL('',(#225,#226,#227,#228,#229,#230,#231,#232,#233,#234,
#235,#236,#237));
#239=DERIVED_UNIT_ELEMENT(#241,1.);
#240=DERIVED_UNIT_ELEMENT(#514,3.);
#241=(
MASS_UNIT()
NAMED_UNIT(*)
SI_UNIT($,.GRAM.)
);
#242=DERIVED_UNIT((#239,#240));
#243=MEASURE_REPRESENTATION_ITEM('density measure',
POSITIVE_RATIO_MEASURE(7.85),#242);
#244=PROPERTY_DEFINITION_REPRESENTATION(#249,#246);
#245=PROPERTY_DEFINITION_REPRESENTATION(#250,#247);
#246=REPRESENTATION('material name',(#248),#511);
#247=REPRESENTATION('density',(#243),#511);
#248=DESCRIPTIVE_REPRESENTATION_ITEM('Mild Steel S355 J2',
'Mild Steel S355 J2');
#249=PROPERTY_DEFINITION('material property','material name',#521);
#250=PROPERTY_DEFINITION('material property','density of part',#521);
#251=DATE_TIME_ROLE('creation_date');
#252=APPLIED_DATE_AND_TIME_ASSIGNMENT(#253,#251,(#521));
#253=DATE_AND_TIME(#254,#255);
#254=CALENDAR_DATE(2025,16,9);
#255=LOCAL_TIME(0,0,0.,#256);
#256=COORDINATED_UNIVERSAL_TIME_OFFSET(0,0,.BEHIND.);
#257=AXIS2_PLACEMENT_3D('placement',#361,#288,#289);
#258=AXIS2_PLACEMENT_3D('',#362,#290,#291);
#259=AXIS2_PLACEMENT_3D('',#364,#292,#293);
#260=AXIS2_PLACEMENT_3D('',#367,#295,#296);
#261=AXIS2_PLACEMENT_3D('',#368,#297,#298);
#262=AXIS2_PLACEMENT_3D('',#371,#299,#300);
#263=AXIS2_PLACEMENT_3D('',#372,#301,#302);
#264=AXIS2_PLACEMENT_3D('',#425,#304,#305);
#265=AXIS2_PLACEMENT_3D('',#427,#306,#307);
#266=AXIS2_PLACEMENT_3D('',#429,#308,#309);
#267=AXIS2_PLACEMENT_3D('',#431,#310,#311);
#268=AXIS2_PLACEMENT_3D('',#432,#312,#313);
#269=AXIS2_PLACEMENT_3D('',#434,#314,#315);
#270=AXIS2_PLACEMENT_3D('',#436,#317,#318);
#271=AXIS2_PLACEMENT_3D('',#438,#319,#320);
#272=AXIS2_PLACEMENT_3D('',#440,#321,#322);
#273=AXIS2_PLACEMENT_3D('',#442,#323,#324);
#274=AXIS2_PLACEMENT_3D('',#443,#325,#326);
#275=AXIS2_PLACEMENT_3D('',#447,#328,#329);
#276=AXIS2_PLACEMENT_3D('',#448,#330,#331);
#277=AXIS2_PLACEMENT_3D('',#449,#332,#333);
#278=AXIS2_PLACEMENT_3D('',#452,#334,#335);
#279=AXIS2_PLACEMENT_3D('',#453,#336,#337);
#280=AXIS2_PLACEMENT_3D('',#493,#339,#340);
#281=AXIS2_PLACEMENT_3D('',#495,#342,#343);
#282=AXIS2_PLACEMENT_3D('',#497,#345,#346);
#283=AXIS2_PLACEMENT_3D('',#500,#348,#349);
#284=AXIS2_PLACEMENT_3D('',#501,#350,#351);
#285=AXIS2_PLACEMENT_3D('',#503,#353,#354);
#286=AXIS2_PLACEMENT_3D('',#506,#356,#357);
#287=AXIS2_PLACEMENT_3D('',#507,#358,#359);
#288=DIRECTION('axis',(0.,0.,1.));
#289=DIRECTION('refdir',(1.,0.,0.));
#290=DIRECTION('center_axis',(0.,-1.,0.));
#291=DIRECTION('ref_axis',(1.,0.,0.));
#292=DIRECTION('center_axis',(0.,-1.,0.));
#293=DIRECTION('ref_axis',(1.,0.,0.));
#294=DIRECTION('',(0.707106781186548,0.707106781186548,8.65956056235493E-17));
#295=DIRECTION('center_axis',(0.,1.,0.));
#296=DIRECTION('ref_axis',(1.,0.,0.));
#297=DIRECTION('center_axis',(0.,-1.,0.));
#298=DIRECTION('ref_axis',(1.,0.,0.));
#299=DIRECTION('center_axis',(0.,-1.,0.));
#300=DIRECTION('ref_axis',(-1.,0.,0.));
#301=DIRECTION('center_axis',(0.,-1.,0.));
#302=DIRECTION('ref_axis',(-1.,0.,0.));
#303=DIRECTION('',(0.,-1.,0.));
#304=DIRECTION('center_axis',(0.,1.,0.));
#305=DIRECTION('ref_axis',(0.,0.,1.));
#306=DIRECTION('center_axis',(0.,1.,0.));
#307=DIRECTION('ref_axis',(1.,0.,0.));
#308=DIRECTION('center_axis',(0.,1.,0.));
#309=DIRECTION('ref_axis',(1.,0.,0.));
#310=DIRECTION('center_axis',(0.,1.,0.));
#311=DIRECTION('ref_axis',(1.,0.,0.));
#312=DIRECTION('center_axis',(0.,1.,0.));
#313=DIRECTION('ref_axis',(-1.,0.,0.));
#314=DIRECTION('center_axis',(0.,1.,0.));
#315=DIRECTION('ref_axis',(-1.,0.,0.));
#316=DIRECTION('',(-0.707106781186548,-0.707106781186548,8.65956056235493E-17));
#317=DIRECTION('center_axis',(0.,1.,0.));
#318=DIRECTION('ref_axis',(0.,0.,1.));
#319=DIRECTION('center_axis',(0.,-1.,0.));
#320=DIRECTION('ref_axis',(1.,0.,0.));
#321=DIRECTION('center_axis',(0.,-1.,0.));
#322=DIRECTION('ref_axis',(1.,0.,0.));
#323=DIRECTION('center_axis',(0.,-1.,0.));
#324=DIRECTION('ref_axis',(1.,0.,0.));
#325=DIRECTION('center_axis',(0.,1.,0.));
#326=DIRECTION('ref_axis',(1.,0.,0.));
#327=DIRECTION('',(-0.707106781186548,0.707106781186547,-8.65956056235494E-17));
#328=DIRECTION('center_axis',(0.,-1.,0.));
#329=DIRECTION('ref_axis',(1.,0.,0.));
#330=DIRECTION('center_axis',(0.,-1.,0.));
#331=DIRECTION('ref_axis',(1.,0.,0.));
#332=DIRECTION('center_axis',(0.,1.,0.));
#333=DIRECTION('ref_axis',(-1.,0.,0.));
#334=DIRECTION('center_axis',(0.,1.,0.));
#335=DIRECTION('ref_axis',(1.,0.,0.));
#336=DIRECTION('center_axis',(0.,1.,0.));
#337=DIRECTION('ref_axis',(1.,0.,0.));
#338=DIRECTION('',(0.,-1.,0.));
#339=DIRECTION('center_axis',(0.,-1.,0.));
#340=DIRECTION('ref_axis',(1.,0.,0.));
#341=DIRECTION('',(-0.707106781186548,-0.707106781186547,8.65956056235494E-17));
#342=DIRECTION('center_axis',(0.,0.,1.));
#343=DIRECTION('ref_axis',(1.,0.,0.));
#344=DIRECTION('',(0.,0.,-1.));
#345=DIRECTION('center_axis',(0.,1.,0.));
#346=DIRECTION('ref_axis',(1.,0.,0.));
#347=DIRECTION('',(0.707106781186547,-0.707106781186548,-8.65956056235493E-17));
#348=DIRECTION('center_axis',(0.,1.,0.));
#349=DIRECTION('ref_axis',(1.,0.,0.));
#350=DIRECTION('center_axis',(0.,1.,0.));
#351=DIRECTION('ref_axis',(1.,0.,0.));
#352=DIRECTION('',(0.,-1.,0.));
#353=DIRECTION('center_axis',(0.,1.,0.));
#354=DIRECTION('ref_axis',(1.,0.,0.));
#355=DIRECTION('',(0.707106781186547,-0.707106781186548,-8.65956056235493E-17));
#356=DIRECTION('center_axis',(0.,1.,0.));
#357=DIRECTION('ref_axis',(1.,0.,0.));
#358=DIRECTION('center_axis',(0.,1.,0.));
#359=DIRECTION('ref_axis',(1.,0.,0.));
#360=DIRECTION('',(0.,-1.,0.));
#361=CARTESIAN_POINT('',(0.,0.,0.));
#362=CARTESIAN_POINT('Origin',(0.,-2.4,0.));
#363=CARTESIAN_POINT('',(-1.7,-2.5,-2.0818995585505E-16));
#364=CARTESIAN_POINT('Origin',(0.,-2.5,0.));
#365=CARTESIAN_POINT('',(-1.5,-2.3,1.83697019872103E-16));
#366=CARTESIAN_POINT('',(-1.6,-2.4,-1.95943487863577E-16));
#367=CARTESIAN_POINT('Origin',(0.,-2.3,0.));
#368=CARTESIAN_POINT('Origin',(0.,2.5,0.));
#369=CARTESIAN_POINT('',(1.5,2.3,1.83697019872103E-16));
#370=CARTESIAN_POINT('',(-1.5,2.3,-1.83697019872103E-16));
#371=CARTESIAN_POINT('Origin',(0.,2.3,0.));
#372=CARTESIAN_POINT('Origin',(0.,2.3,0.));
#373=CARTESIAN_POINT('',(-1.5,2.5,-1.83697019872103E-16));
#374=CARTESIAN_POINT('',(-1.425,0.,-0.46837484987988));
#375=CARTESIAN_POINT('Ctrl Pts',(-1.425,0.,-0.46837484987988));
#376=CARTESIAN_POINT('Ctrl Pts',(-1.425,0.110271205238351,-0.46837484987988));
#377=CARTESIAN_POINT('Ctrl Pts',(-1.41336081181327,0.203525603658167,-0.505002842837005));
#378=CARTESIAN_POINT('Ctrl Pts',(-1.37568061066635,0.382774612803687,-0.600098032208011));
#379=CARTESIAN_POINT('Ctrl Pts',(-1.34902439221777,0.467943840718598,-0.659869999607643));
#380=CARTESIAN_POINT('Ctrl Pts',(-1.24373311030934,0.718796736887686,-0.851056052027924));
#381=CARTESIAN_POINT('Ctrl Pts',(-1.13890418751345,0.876350138868215,-0.992120229290892));
#382=CARTESIAN_POINT('Ctrl Pts',(-0.892018645902366,1.12323568047929,-1.21600110545734));
#383=CARTESIAN_POINT('Ctrl Pts',(-0.740954607141987,1.23195658267141,-1.31774156154335));
#384=CARTESIAN_POINT('Ctrl Pts',(-0.479431314771369,1.34528701210175,-1.42443316739999));
#385=CARTESIAN_POINT('Ctrl Pts',(-0.38649974541398,1.37506045156607,-1.45262742590719));
#386=CARTESIAN_POINT('Ctrl Pts',(-0.195338328014511,1.41491526187184,-1.4904091832946));
#387=CARTESIAN_POINT('Ctrl Pts',(-0.0971098377876738,1.425,-1.5));
#388=CARTESIAN_POINT('Ctrl Pts',(0.0971098377876739,1.425,-1.5));
#389=CARTESIAN_POINT('Ctrl Pts',(0.195338328014511,1.41491526187184,-1.4904091832946));
#390=CARTESIAN_POINT('Ctrl Pts',(0.38649974541398,1.37506045156607,-1.45262742590719));
#391=CARTESIAN_POINT('Ctrl Pts',(0.479431314771369,1.34528701210175,-1.42443316739999));
#392=CARTESIAN_POINT('Ctrl Pts',(0.740954607141987,1.23195658267141,-1.31774156154335));
#393=CARTESIAN_POINT('Ctrl Pts',(0.892018645902366,1.12323568047929,-1.21600110545734));
#394=CARTESIAN_POINT('Ctrl Pts',(1.13890418751345,0.876350138868215,-0.992120229290892));
#395=CARTESIAN_POINT('Ctrl Pts',(1.24373311030934,0.718796736887685,-0.851056052027924));
#396=CARTESIAN_POINT('Ctrl Pts',(1.34902439221777,0.467943840718598,-0.659869999607643));
#397=CARTESIAN_POINT('Ctrl Pts',(1.37568061066635,0.382774612803687,-0.60009803220801));
#398=CARTESIAN_POINT('Ctrl Pts',(1.41336081181327,0.203525603658167,-0.505002842837005));
#399=CARTESIAN_POINT('Ctrl Pts',(1.425,0.110271205238351,-0.46837484987988));
#400=CARTESIAN_POINT('Ctrl Pts',(1.425,-0.110271205238351,-0.46837484987988));
#401=CARTESIAN_POINT('Ctrl Pts',(1.41336081181327,-0.203525603658167,-0.505002842837005));
#402=CARTESIAN_POINT('Ctrl Pts',(1.37568061066635,-0.382774612803687,-0.60009803220801));
#403=CARTESIAN_POINT('Ctrl Pts',(1.34902439221777,-0.467943840718598,-0.659869999607643));
#404=CARTESIAN_POINT('Ctrl Pts',(1.24373311030934,-0.718796736887685,-0.851056052027924));
#405=CARTESIAN_POINT('Ctrl Pts',(1.13890418751345,-0.876350138868215,-0.992120229290892));
#406=CARTESIAN_POINT('Ctrl Pts',(0.892018645902366,-1.12323568047929,-1.21600110545734));
#407=CARTESIAN_POINT('Ctrl Pts',(0.740954607141987,-1.23195658267141,-1.31774156154335));
#408=CARTESIAN_POINT('Ctrl Pts',(0.47943131477137,-1.34528701210175,-1.42443316739999));
#409=CARTESIAN_POINT('Ctrl Pts',(0.386499745413981,-1.37506045156607,-1.45262742590719));
#410=CARTESIAN_POINT('Ctrl Pts',(0.195338328014512,-1.41491526187184,-1.4904091832946));
#411=CARTESIAN_POINT('Ctrl Pts',(0.0971098377876742,-1.425,-1.5));
#412=CARTESIAN_POINT('Ctrl Pts',(-0.097109837787674,-1.425,-1.5));
#413=CARTESIAN_POINT('Ctrl Pts',(-0.195338328014511,-1.41491526187184,-1.4904091832946));
#414=CARTESIAN_POINT('Ctrl Pts',(-0.386499745413981,-1.37506045156607,-1.45262742590719));
#415=CARTESIAN_POINT('Ctrl Pts',(-0.479431314771369,-1.34528701210175,-1.42443316739999));
#416=CARTESIAN_POINT('Ctrl Pts',(-0.740954607141987,-1.23195658267141,-1.31774156154335));
#417=CARTESIAN_POINT('Ctrl Pts',(-0.892018645902366,-1.12323568047929,-1.21600110545734));
#418=CARTESIAN_POINT('Ctrl Pts',(-1.13890418751345,-0.876350138868215,-0.992120229290892));
#419=CARTESIAN_POINT('Ctrl Pts',(-1.24373311030934,-0.718796736887686,-0.851056052027924));
#420=CARTESIAN_POINT('Ctrl Pts',(-1.34902439221777,-0.467943840718598,-0.659869999607643));
#421=CARTESIAN_POINT('Ctrl Pts',(-1.37568061066635,-0.382774612803688,-0.600098032208011));
#422=CARTESIAN_POINT('Ctrl Pts',(-1.41336081181327,-0.203525603658167,-0.505002842837006));
#423=CARTESIAN_POINT('Ctrl Pts',(-1.425,-0.110271205238351,-0.46837484987988));
#424=CARTESIAN_POINT('Ctrl Pts',(-1.425,0.,-0.46837484987988));
#425=CARTESIAN_POINT('Origin',(0.,-2.5,0.));
#426=CARTESIAN_POINT('',(-9.5,-2.5,1.16341445918999E-15));
#427=CARTESIAN_POINT('Origin',(0.,-2.5,0.));
#428=CARTESIAN_POINT('',(-7.75,-2.5,2.14313189850787E-16));
#429=CARTESIAN_POINT('Origin',(-6.,-2.5,0.));
#430=CARTESIAN_POINT('',(4.25,-2.5,2.14313189850787E-16));
#431=CARTESIAN_POINT('Origin',(6.,-2.5,0.));
#432=CARTESIAN_POINT('Origin',(0.,2.4,0.));
#433=CARTESIAN_POINT('',(1.7,2.5,-2.0818995585505E-16));
#434=CARTESIAN_POINT('Origin',(0.,2.5,0.));
#435=CARTESIAN_POINT('',(1.6,2.4,-1.95943487863577E-16));
#436=CARTESIAN_POINT('Origin',(0.,2.5,0.));
#437=CARTESIAN_POINT('',(-9.5,2.5,-1.16341445918999E-15));
#438=CARTESIAN_POINT('Origin',(0.,2.5,0.));
#439=CARTESIAN_POINT('',(-9.15,2.5,3.85763741731416E-16));
#440=CARTESIAN_POINT('Origin',(-6.,2.5,0.));
#441=CARTESIAN_POINT('',(2.85,2.5,3.85763741731416E-16));
#442=CARTESIAN_POINT('Origin',(6.,2.5,0.));
#443=CARTESIAN_POINT('Origin',(0.,-2.25,0.));
#444=CARTESIAN_POINT('',(-10.,-2.,-1.22464679914735E-15));
#445=CARTESIAN_POINT('',(-9.75,-2.25,-1.19403062916867E-15));
#446=CARTESIAN_POINT('',(10.,-2.,-1.22464679914735E-15));
#447=CARTESIAN_POINT('Origin',(0.,-2.,0.));
#448=CARTESIAN_POINT('Origin',(0.,-2.,0.));
#449=CARTESIAN_POINT('Origin',(0.,0.,0.));
#450=CARTESIAN_POINT('',(-10.,2.,1.22464679914735E-15));
#451=CARTESIAN_POINT('',(10.,2.,-1.22464679914735E-15));
#452=CARTESIAN_POINT('Origin',(0.,2.,0.));
#453=CARTESIAN_POINT('Origin',(0.,2.,0.));
#454=CARTESIAN_POINT('',(10.,0.,-1.22464679914735E-15));
#455=CARTESIAN_POINT('',(1.425,6.93889390390723E-17,-9.89794801966549));
#456=CARTESIAN_POINT('',(-1.425,-1.04603319199017E-16,-9.89794801966549));
#457=CARTESIAN_POINT('Ctrl Pts',(1.425,6.93889390390723E-17,-9.89794801966549));
#458=CARTESIAN_POINT('Ctrl Pts',(1.425,0.179189655654593,-9.89794801966549));
#459=CARTESIAN_POINT('Ctrl Pts',(1.3891388914386,0.370154042260191,-9.90331657501178));
#460=CARTESIAN_POINT('Ctrl Pts',(1.2436371702664,0.721170936338346,-9.92263838834152));
#461=CARTESIAN_POINT('Ctrl Pts',(1.13400971335656,0.881244613025105,-9.93630506545165));
#462=CARTESIAN_POINT('Ctrl Pts',(0.881246404154514,1.13400792222715,-9.96190447161066));
#463=CARTESIAN_POINT('Ctrl Pts',(0.721171952887059,1.24363678386812,-9.97551034705115));
#464=CARTESIAN_POINT('Ctrl Pts',(0.370152419561738,1.38913952909492,-9.99469273439244));
#465=CARTESIAN_POINT('Ctrl Pts',(0.179187116127881,1.425,-10.));
#466=CARTESIAN_POINT('Ctrl Pts',(-0.179187116127881,1.425,-10.));
#467=CARTESIAN_POINT('Ctrl Pts',(-0.370152419561738,1.38913952909492,-9.99469273439244));
#468=CARTESIAN_POINT('Ctrl Pts',(-0.721171952887059,1.24363678386812,-9.97551034705115));
#469=CARTESIAN_POINT('Ctrl Pts',(-0.881246404154514,1.13400792222715,-9.96190447161066));
#470=CARTESIAN_POINT('Ctrl Pts',(-1.13400971335656,0.881244613025105,-9.93630506545165));
#471=CARTESIAN_POINT('Ctrl Pts',(-1.2436371702664,0.721170936338346,-9.92263838834152));
#472=CARTESIAN_POINT('Ctrl Pts',(-1.3891388914386,0.370154042260191,-9.90331657501178));
#473=CARTESIAN_POINT('Ctrl Pts',(-1.425,0.179189655654593,-9.89794801966549));
#474=CARTESIAN_POINT('Ctrl Pts',(-1.425,3.46944695195361E-17,-9.89794801966549));
#475=CARTESIAN_POINT('Ctrl Pts',(-1.425,-3.46944695195361E-17,-9.89794801966549));
#476=CARTESIAN_POINT('Ctrl Pts',(-1.425,-0.179189655654593,-9.89794801966549));
#477=CARTESIAN_POINT('Ctrl Pts',(-1.3891388914386,-0.370154042260191,-9.90331657501178));
#478=CARTESIAN_POINT('Ctrl Pts',(-1.2436371702664,-0.721170936338346,-9.92263838834152));
#479=CARTESIAN_POINT('Ctrl Pts',(-1.13400971335656,-0.881244613025104,-9.93630506545165));
#480=CARTESIAN_POINT('Ctrl Pts',(-0.881246404154514,-1.13400792222715,-9.96190447161066));
#481=CARTESIAN_POINT('Ctrl Pts',(-0.72117195288706,-1.24363678386812,-9.97551034705115));
#482=CARTESIAN_POINT('Ctrl Pts',(-0.370152419561738,-1.38913952909492,-9.99469273439244));
#483=CARTESIAN_POINT('Ctrl Pts',(-0.179187116127882,-1.425,-10.));
#484=CARTESIAN_POINT('Ctrl Pts',(0.179187116127881,-1.425,-10.));
#485=CARTESIAN_POINT('Ctrl Pts',(0.370152419561737,-1.38913952909492,-9.99469273439244));
#486=CARTESIAN_POINT('Ctrl Pts',(0.721171952887059,-1.24363678386812,-9.97551034705115));
#487=CARTESIAN_POINT('Ctrl Pts',(0.881246404154514,-1.13400792222715,-9.96190447161066));
#488=CARTESIAN_POINT('Ctrl Pts',(1.13400971335656,-0.881244613025105,-9.93630506545165));
#489=CARTESIAN_POINT('Ctrl Pts',(1.2436371702664,-0.721170936338346,-9.92263838834152));
#490=CARTESIAN_POINT('Ctrl Pts',(1.3891388914386,-0.370154042260191,-9.90331657501178));
#491=CARTESIAN_POINT('Ctrl Pts',(1.425,-0.179189655654593,-9.89794801966549));
#492=CARTESIAN_POINT('Ctrl Pts',(1.425,0.,-9.89794801966549));
#493=CARTESIAN_POINT('Origin',(0.,2.25,0.));
#494=CARTESIAN_POINT('',(-9.75,2.25,1.19403062916867E-15));
#495=CARTESIAN_POINT('Origin',(0.,0.,-5.2));
#496=CARTESIAN_POINT('',(-1.425,-1.74512168878498E-16,-5.2));
#497=CARTESIAN_POINT('Origin',(-6.,1.8,0.));
#498=CARTESIAN_POINT('',(-7.75,1.1,2.14313189850787E-16));
#499=CARTESIAN_POINT('',(-8.45,1.8,3.00038465791102E-16));
#500=CARTESIAN_POINT('Origin',(-6.,1.1,0.));
#501=CARTESIAN_POINT('Origin',(-6.,-8.6,0.));
#502=CARTESIAN_POINT('',(-7.75,-8.6,2.14313189850787E-16));
#503=CARTESIAN_POINT('Origin',(6.,1.8,0.));
#504=CARTESIAN_POINT('',(4.25,1.1,2.14313189850787E-16));
#505=CARTESIAN_POINT('',(3.55,1.8,3.00038465791102E-16));
#506=CARTESIAN_POINT('Origin',(6.,1.1,0.));
#507=CARTESIAN_POINT('Origin',(6.,-8.6,0.));
#508=CARTESIAN_POINT('',(4.25,-8.6,2.14313189850787E-16));
#509=UNCERTAINTY_MEASURE_WITH_UNIT(LENGTH_MEASURE(0.01),#513,
'DISTANCE_ACCURACY_VALUE',
'Maximum model space distance between geometric entities at asserted c
onnectivities');
#510=UNCERTAINTY_MEASURE_WITH_UNIT(LENGTH_MEASURE(0.01),#513,
'DISTANCE_ACCURACY_VALUE',
'Maximum model space distance between geometric entities at asserted c
onnectivities');
#511=(
GEOMETRIC_REPRESENTATION_CONTEXT(3)
GLOBAL_UNCERTAINTY_ASSIGNED_CONTEXT((#509))
GLOBAL_UNIT_ASSIGNED_CONTEXT((#513,#515,#516))
REPRESENTATION_CONTEXT('','3D')
);
#512=(
GEOMETRIC_REPRESENTATION_CONTEXT(3)
GLOBAL_UNCERTAINTY_ASSIGNED_CONTEXT((#510))
GLOBAL_UNIT_ASSIGNED_CONTEXT((#513,#515,#516))
REPRESENTATION_CONTEXT('','3D')
);
#513=(
LENGTH_UNIT()
NAMED_UNIT(*)
SI_UNIT(.MILLI.,.METRE.)
);
#514=(
LENGTH_UNIT()
NAMED_UNIT(*)
SI_UNIT(.CENTI.,.METRE.)
);
#515=(
NAMED_UNIT(*)
PLANE_ANGLE_UNIT()
SI_UNIT($,.RADIAN.)
);
#516=(
NAMED_UNIT(*)
SI_UNIT($,.STERADIAN.)
SOLID_ANGLE_UNIT()
);
#517=SHAPE_DEFINITION_REPRESENTATION(#518,#519);
#518=PRODUCT_DEFINITION_SHAPE('',$,#521);
#519=SHAPE_REPRESENTATION('',(#257),#511);
#520=PRODUCT_DEFINITION_CONTEXT('part definition',#525,'design');
#521=PRODUCT_DEFINITION('Wheel Mounting Cap','Wheel Mounting Cap',#522,
#520);
#522=PRODUCT_DEFINITION_FORMATION('',$,#527);
#523=PRODUCT_RELATED_PRODUCT_CATEGORY('Wheel Mounting Cap',
'Wheel Mounting Cap',(#527));
#524=APPLICATION_PROTOCOL_DEFINITION('international standard',
'automotive_design',2009,#525);
#525=APPLICATION_CONTEXT(
'Core Data for Automotive Mechanical Design Process');
#526=PRODUCT_CONTEXT('part definition',#525,'mechanical');
#527=PRODUCT('Wheel Mounting Cap','Wheel Mounting Cap',$,(#526));
#528=PRESENTATION_STYLE_ASSIGNMENT((#529));
#529=SURFACE_STYLE_USAGE(.BOTH.,#532);
#530=SURFACE_STYLE_RENDERING_WITH_PROPERTIES($,#536,(#531));
#531=SURFACE_STYLE_TRANSPARENT(0.);
#532=SURFACE_SIDE_STYLE('',(#533,#530));
#533=SURFACE_STYLE_FILL_AREA(#534);
#534=FILL_AREA_STYLE('',(#535));
#535=FILL_AREA_STYLE_COLOUR('',#536);
#536=COLOUR_RGB('',0.745098039215686,0.737254901960784,0.729411764705882);
ENDSEC;
END-ISO-10303-21;
