ISO-10303-21;
HEADER;
/* Generated by software containing ST-Developer
 * from STEP Tools, Inc. (www.steptools.com) 
 */

FILE_DESCRIPTION(
/* description */ (''),
/* implementation_level */ '2;1');

FILE_NAME(
/* name */ 
'S:\\Future Scope 1\\WIP\\Client Category\\Tom\\02 Progressive Work\\W
heel Shaft Pillar - 2.stp',
/* time_stamp */ '2025-11-05T12:14:40+06:00',
/* author */ ('SD'),
/* organization */ (''),
/* preprocessor_version */ 'ST-DEVELOPER v18.1',
/* originating_system */ 'Autodesk Inventor 2021',
/* authorisation */ '');

FILE_SCHEMA (('AUTOMOTIVE_DESIGN { 1 0 10303 214 3 1 1 }'));
ENDSEC;

DATA;
#10=MECHANICAL_DESIGN_GEOMETRIC_PRESENTATION_REPRESENTATION('',(#13),#522);
#11=SHAPE_REPRESENTATION_RELATIONSHIP('SRR','None',#529,#12);
#12=ADVANCED_BREP_SHAPE_REPRESENTATION('',(#14),#521);
#13=STYLED_ITEM('',(#538),#14);
#14=MANIFOLD_SOLID_BREP('Solid1',#253);
#15=TOROIDAL_SURFACE('',#284,8.,1.5);
#16=TOROIDAL_SURFACE('',#292,45.0809924354783,40.);
#17=TOROIDAL_SURFACE('',#299,7.99999999999999,1.5);
#18=TOROIDAL_SURFACE('',#302,7.99999999999998,1.5);
#19=TOROIDAL_SURFACE('',#305,7.99999999999998,2.);
#20=TOROIDAL_SURFACE('',#311,8.,2.);
#21=TOROIDAL_SURFACE('',#314,8.,1.5);
#22=FACE_BOUND('',#55,.T.);
#23=FACE_BOUND('',#58,.T.);
#24=FACE_BOUND('',#65,.T.);
#25=B_SPLINE_CURVE_WITH_KNOTS('',3,(#430,#431,#432,#433,#434,#435,#436,
#437,#438,#439,#440,#441,#442,#443,#444,#445,#446,#447),.UNSPECIFIED.,.F.,
 .F.,(4,2,2,2,2,2,2,2,4),(0.535336591546175,0.669070476597957,0.802804361649739,
0.936738772371044,1.07067318309235,1.20460759381365,1.33854200453496,1.47227588958674,
1.60600977463852),.UNSPECIFIED.);
#26=B_SPLINE_CURVE_WITH_KNOTS('',3,(#451,#452,#453,#454,#455,#456,#457,
#458,#459,#460,#461,#462,#463,#464,#465,#466,#467,#468,#469),
 .UNSPECIFIED.,.F.,.F.,(4,2,2,2,3,2,2,2,4),(1.60600977463852,1.73974365969031,
1.87347754474209,2.00741195546339,2.1413463661847,2.275280776906,2.40921518762731,
2.54294907267909,2.67668295773087),.UNSPECIFIED.);
#27=CONICAL_SURFACE('',#277,1.66175,1.02974425867665);
#28=PLANE('',#276);
#29=PLANE('',#283);
#30=PLANE('',#308);
#31=PLANE('',#309);
#32=FACE_OUTER_BOUND('',#49,.T.);
#33=FACE_OUTER_BOUND('',#50,.T.);
#34=FACE_OUTER_BOUND('',#51,.T.);
#35=FACE_OUTER_BOUND('',#52,.T.);
#36=FACE_OUTER_BOUND('',#53,.T.);
#37=FACE_OUTER_BOUND('',#54,.T.);
#38=FACE_OUTER_BOUND('',#56,.T.);
#39=FACE_OUTER_BOUND('',#57,.T.);
#40=FACE_OUTER_BOUND('',#59,.T.);
#41=FACE_OUTER_BOUND('',#60,.T.);
#42=FACE_OUTER_BOUND('',#61,.T.);
#43=FACE_OUTER_BOUND('',#62,.T.);
#44=FACE_OUTER_BOUND('',#63,.T.);
#45=FACE_OUTER_BOUND('',#64,.T.);
#46=FACE_OUTER_BOUND('',#66,.T.);
#47=FACE_OUTER_BOUND('',#67,.T.);
#48=FACE_OUTER_BOUND('',#68,.T.);
#49=EDGE_LOOP('',(#163,#164,#165,#166));
#50=EDGE_LOOP('',(#167));
#51=EDGE_LOOP('',(#168,#169,#170));
#52=EDGE_LOOP('',(#171,#172,#173,#174));
#53=EDGE_LOOP('',(#175,#176,#177,#178,#179));
#54=EDGE_LOOP('',(#180));
#55=EDGE_LOOP('',(#181));
#56=EDGE_LOOP('',(#182,#183,#184,#185,#186));
#57=EDGE_LOOP('',(#187,#188,#189,#190,#191,#192));
#58=EDGE_LOOP('',(#193,#194));
#59=EDGE_LOOP('',(#195,#196,#197,#198,#199,#200));
#60=EDGE_LOOP('',(#201,#202,#203,#204,#205,#206));
#61=EDGE_LOOP('',(#207,#208,#209,#210,#211));
#62=EDGE_LOOP('',(#212,#213,#214,#215));
#63=EDGE_LOOP('',(#216,#217,#218,#219));
#64=EDGE_LOOP('',(#220));
#65=EDGE_LOOP('',(#221));
#66=EDGE_LOOP('',(#222));
#67=EDGE_LOOP('',(#223,#224,#225,#226));
#68=EDGE_LOOP('',(#227,#228,#229,#230));
#69=LINE('',#415,#75);
#70=LINE('',#422,#76);
#71=LINE('',#426,#77);
#72=LINE('',#449,#78);
#73=LINE('',#483,#79);
#74=LINE('',#495,#80);
#75=VECTOR('',#322,2.);
#76=VECTOR('',#331,1.66175);
#77=VECTOR('',#336,3.3235);
#78=VECTOR('',#339,3.5);
#79=VECTOR('',#358,8.);
#80=VECTOR('',#373,7.99999999999999);
#81=CIRCLE('',#274,2.);
#82=CIRCLE('',#275,2.);
#83=CIRCLE('',#278,3.3235);
#84=CIRCLE('',#280,3.3235);
#85=CIRCLE('',#282,3.5);
#86=CIRCLE('',#285,8.);
#87=CIRCLE('',#286,8.);
#88=CIRCLE('',#287,1.5);
#89=CIRCLE('',#288,8.);
#90=CIRCLE('',#290,8.);
#91=CIRCLE('',#291,8.);
#92=CIRCLE('',#293,40.);
#93=CIRCLE('',#294,7.99999999999999);
#94=CIRCLE('',#295,7.99999999999999);
#95=CIRCLE('',#297,7.99999999999999);
#96=CIRCLE('',#298,7.99999999999999);
#97=CIRCLE('',#300,7.99999999999999);
#98=CIRCLE('',#301,1.5);
#99=CIRCLE('',#303,1.5);
#100=CIRCLE('',#304,7.99999999999998);
#101=CIRCLE('',#306,7.99999999999998);
#102=CIRCLE('',#307,2.);
#103=CIRCLE('',#310,8.);
#104=CIRCLE('',#312,8.);
#105=CIRCLE('',#313,2.);
#106=CIRCLE('',#315,1.5);
#107=VERTEX_POINT('',#412);
#108=VERTEX_POINT('',#414);
#109=VERTEX_POINT('',#419);
#110=VERTEX_POINT('',#421);
#111=VERTEX_POINT('',#424);
#112=VERTEX_POINT('',#428);
#113=VERTEX_POINT('',#429);
#114=VERTEX_POINT('',#448);
#115=VERTEX_POINT('',#472);
#116=VERTEX_POINT('',#473);
#117=VERTEX_POINT('',#476);
#118=VERTEX_POINT('',#480);
#119=VERTEX_POINT('',#481);
#120=VERTEX_POINT('',#486);
#121=VERTEX_POINT('',#488);
#122=VERTEX_POINT('',#492);
#123=VERTEX_POINT('',#493);
#124=VERTEX_POINT('',#498);
#125=VERTEX_POINT('',#502);
#126=VERTEX_POINT('',#506);
#127=VERTEX_POINT('',#511);
#128=VERTEX_POINT('',#514);
#129=EDGE_CURVE('',#107,#107,#81,.T.);
#130=EDGE_CURVE('',#107,#108,#69,.T.);
#131=EDGE_CURVE('',#108,#108,#82,.T.);
#132=EDGE_CURVE('',#109,#109,#83,.T.);
#133=EDGE_CURVE('',#109,#110,#70,.T.);
#134=EDGE_CURVE('',#111,#111,#84,.T.);
#135=EDGE_CURVE('',#111,#109,#71,.T.);
#136=EDGE_CURVE('',#112,#113,#25,.T.);
#137=EDGE_CURVE('',#112,#114,#72,.T.);
#138=EDGE_CURVE('',#114,#114,#85,.T.);
#139=EDGE_CURVE('',#113,#112,#26,.T.);
#140=EDGE_CURVE('',#115,#116,#86,.T.);
#141=EDGE_CURVE('',#116,#115,#87,.T.);
#142=EDGE_CURVE('',#116,#117,#88,.T.);
#143=EDGE_CURVE('',#117,#117,#89,.T.);
#144=EDGE_CURVE('',#118,#119,#90,.T.);
#145=EDGE_CURVE('',#118,#115,#73,.T.);
#146=EDGE_CURVE('',#119,#118,#91,.T.);
#147=EDGE_CURVE('',#119,#120,#92,.T.);
#148=EDGE_CURVE('',#121,#120,#93,.T.);
#149=EDGE_CURVE('',#120,#121,#94,.T.);
#150=EDGE_CURVE('',#122,#123,#95,.T.);
#151=EDGE_CURVE('',#122,#121,#74,.T.);
#152=EDGE_CURVE('',#123,#122,#96,.T.);
#153=EDGE_CURVE('',#124,#124,#97,.T.);
#154=EDGE_CURVE('',#124,#123,#98,.T.);
#155=EDGE_CURVE('',#124,#125,#99,.T.);
#156=EDGE_CURVE('',#125,#125,#100,.T.);
#157=EDGE_CURVE('',#126,#126,#101,.T.);
#158=EDGE_CURVE('',#126,#125,#102,.T.);
#159=EDGE_CURVE('',#127,#127,#103,.T.);
#160=EDGE_CURVE('',#128,#128,#104,.T.);
#161=EDGE_CURVE('',#128,#127,#105,.T.);
#162=EDGE_CURVE('',#128,#117,#106,.T.);
#163=ORIENTED_EDGE('',*,*,#129,.F.);
#164=ORIENTED_EDGE('',*,*,#130,.T.);
#165=ORIENTED_EDGE('',*,*,#131,.T.);
#166=ORIENTED_EDGE('',*,*,#130,.F.);
#167=ORIENTED_EDGE('',*,*,#131,.F.);
#168=ORIENTED_EDGE('',*,*,#132,.T.);
#169=ORIENTED_EDGE('',*,*,#133,.T.);
#170=ORIENTED_EDGE('',*,*,#133,.F.);
#171=ORIENTED_EDGE('',*,*,#134,.F.);
#172=ORIENTED_EDGE('',*,*,#135,.T.);
#173=ORIENTED_EDGE('',*,*,#132,.F.);
#174=ORIENTED_EDGE('',*,*,#135,.F.);
#175=ORIENTED_EDGE('',*,*,#136,.F.);
#176=ORIENTED_EDGE('',*,*,#137,.T.);
#177=ORIENTED_EDGE('',*,*,#138,.T.);
#178=ORIENTED_EDGE('',*,*,#137,.F.);
#179=ORIENTED_EDGE('',*,*,#139,.F.);
#180=ORIENTED_EDGE('',*,*,#138,.F.);
#181=ORIENTED_EDGE('',*,*,#129,.T.);
#182=ORIENTED_EDGE('',*,*,#140,.F.);
#183=ORIENTED_EDGE('',*,*,#141,.F.);
#184=ORIENTED_EDGE('',*,*,#142,.T.);
#185=ORIENTED_EDGE('',*,*,#143,.T.);
#186=ORIENTED_EDGE('',*,*,#142,.F.);
#187=ORIENTED_EDGE('',*,*,#144,.F.);
#188=ORIENTED_EDGE('',*,*,#145,.T.);
#189=ORIENTED_EDGE('',*,*,#140,.T.);
#190=ORIENTED_EDGE('',*,*,#141,.T.);
#191=ORIENTED_EDGE('',*,*,#145,.F.);
#192=ORIENTED_EDGE('',*,*,#146,.F.);
#193=ORIENTED_EDGE('',*,*,#136,.T.);
#194=ORIENTED_EDGE('',*,*,#139,.T.);
#195=ORIENTED_EDGE('',*,*,#144,.T.);
#196=ORIENTED_EDGE('',*,*,#147,.T.);
#197=ORIENTED_EDGE('',*,*,#148,.F.);
#198=ORIENTED_EDGE('',*,*,#149,.F.);
#199=ORIENTED_EDGE('',*,*,#147,.F.);
#200=ORIENTED_EDGE('',*,*,#146,.T.);
#201=ORIENTED_EDGE('',*,*,#150,.F.);
#202=ORIENTED_EDGE('',*,*,#151,.T.);
#203=ORIENTED_EDGE('',*,*,#148,.T.);
#204=ORIENTED_EDGE('',*,*,#149,.T.);
#205=ORIENTED_EDGE('',*,*,#151,.F.);
#206=ORIENTED_EDGE('',*,*,#152,.F.);
#207=ORIENTED_EDGE('',*,*,#153,.F.);
#208=ORIENTED_EDGE('',*,*,#154,.T.);
#209=ORIENTED_EDGE('',*,*,#152,.T.);
#210=ORIENTED_EDGE('',*,*,#150,.T.);
#211=ORIENTED_EDGE('',*,*,#154,.F.);
#212=ORIENTED_EDGE('',*,*,#153,.T.);
#213=ORIENTED_EDGE('',*,*,#155,.T.);
#214=ORIENTED_EDGE('',*,*,#156,.F.);
#215=ORIENTED_EDGE('',*,*,#155,.F.);
#216=ORIENTED_EDGE('',*,*,#157,.F.);
#217=ORIENTED_EDGE('',*,*,#158,.T.);
#218=ORIENTED_EDGE('',*,*,#156,.T.);
#219=ORIENTED_EDGE('',*,*,#158,.F.);
#220=ORIENTED_EDGE('',*,*,#157,.T.);
#221=ORIENTED_EDGE('',*,*,#134,.T.);
#222=ORIENTED_EDGE('',*,*,#159,.F.);
#223=ORIENTED_EDGE('',*,*,#160,.F.);
#224=ORIENTED_EDGE('',*,*,#161,.T.);
#225=ORIENTED_EDGE('',*,*,#159,.T.);
#226=ORIENTED_EDGE('',*,*,#161,.F.);
#227=ORIENTED_EDGE('',*,*,#160,.T.);
#228=ORIENTED_EDGE('',*,*,#162,.T.);
#229=ORIENTED_EDGE('',*,*,#143,.F.);
#230=ORIENTED_EDGE('',*,*,#162,.F.);
#231=CYLINDRICAL_SURFACE('',#273,2.);
#232=CYLINDRICAL_SURFACE('',#279,3.3235);
#233=CYLINDRICAL_SURFACE('',#281,3.5);
#234=CYLINDRICAL_SURFACE('',#289,8.);
#235=CYLINDRICAL_SURFACE('',#296,7.99999999999999);
#236=ADVANCED_FACE('',(#32),#231,.F.);
#237=ADVANCED_FACE('',(#33),#28,.T.);
#238=ADVANCED_FACE('',(#34),#27,.F.);
#239=ADVANCED_FACE('',(#35),#232,.F.);
#240=ADVANCED_FACE('',(#36),#233,.F.);
#241=ADVANCED_FACE('',(#37,#22),#29,.T.);
#242=ADVANCED_FACE('',(#38),#15,.T.);
#243=ADVANCED_FACE('',(#39,#23),#234,.T.);
#244=ADVANCED_FACE('',(#40),#16,.F.);
#245=ADVANCED_FACE('',(#41),#235,.T.);
#246=ADVANCED_FACE('',(#42),#17,.T.);
#247=ADVANCED_FACE('',(#43),#18,.F.);
#248=ADVANCED_FACE('',(#44),#19,.T.);
#249=ADVANCED_FACE('',(#45,#24),#30,.T.);
#250=ADVANCED_FACE('',(#46),#31,.T.);
#251=ADVANCED_FACE('',(#47),#20,.T.);
#252=ADVANCED_FACE('',(#48),#21,.F.);
#253=CLOSED_SHELL('',(#236,#237,#238,#239,#240,#241,#242,#243,#244,#245,
#246,#247,#248,#249,#250,#251,#252));
#254=DERIVED_UNIT_ELEMENT(#256,1.);
#255=DERIVED_UNIT_ELEMENT(#524,3.);
#256=(
MASS_UNIT()
NAMED_UNIT(*)
SI_UNIT($,.GRAM.)
);
#257=DERIVED_UNIT((#254,#255));
#258=MEASURE_REPRESENTATION_ITEM('density measure',
POSITIVE_RATIO_MEASURE(8.),#257);
#259=PROPERTY_DEFINITION_REPRESENTATION(#264,#261);
#260=PROPERTY_DEFINITION_REPRESENTATION(#265,#262);
#261=REPRESENTATION('material name',(#263),#521);
#262=REPRESENTATION('density',(#258),#521);
#263=DESCRIPTIVE_REPRESENTATION_ITEM('Stainless Steel',
'Stainless Steel');
#264=PROPERTY_DEFINITION('material property','material name',#531);
#265=PROPERTY_DEFINITION('material property','density of part',#531);
#266=DATE_TIME_ROLE('creation_date');
#267=APPLIED_DATE_AND_TIME_ASSIGNMENT(#268,#266,(#531));
#268=DATE_AND_TIME(#269,#270);
#269=CALENDAR_DATE(2025,17,9);
#270=LOCAL_TIME(0,0,0.,#271);
#271=COORDINATED_UNIVERSAL_TIME_OFFSET(0,0,.BEHIND.);
#272=AXIS2_PLACEMENT_3D('placement',#410,#316,#317);
#273=AXIS2_PLACEMENT_3D('',#411,#318,#319);
#274=AXIS2_PLACEMENT_3D('',#413,#320,#321);
#275=AXIS2_PLACEMENT_3D('',#416,#323,#324);
#276=AXIS2_PLACEMENT_3D('',#417,#325,#326);
#277=AXIS2_PLACEMENT_3D('',#418,#327,#328);
#278=AXIS2_PLACEMENT_3D('',#420,#329,#330);
#279=AXIS2_PLACEMENT_3D('',#423,#332,#333);
#280=AXIS2_PLACEMENT_3D('',#425,#334,#335);
#281=AXIS2_PLACEMENT_3D('',#427,#337,#338);
#282=AXIS2_PLACEMENT_3D('',#450,#340,#341);
#283=AXIS2_PLACEMENT_3D('',#470,#342,#343);
#284=AXIS2_PLACEMENT_3D('',#471,#344,#345);
#285=AXIS2_PLACEMENT_3D('',#474,#346,#347);
#286=AXIS2_PLACEMENT_3D('',#475,#348,#349);
#287=AXIS2_PLACEMENT_3D('',#477,#350,#351);
#288=AXIS2_PLACEMENT_3D('',#478,#352,#353);
#289=AXIS2_PLACEMENT_3D('',#479,#354,#355);
#290=AXIS2_PLACEMENT_3D('',#482,#356,#357);
#291=AXIS2_PLACEMENT_3D('',#484,#359,#360);
#292=AXIS2_PLACEMENT_3D('',#485,#361,#362);
#293=AXIS2_PLACEMENT_3D('',#487,#363,#364);
#294=AXIS2_PLACEMENT_3D('',#489,#365,#366);
#295=AXIS2_PLACEMENT_3D('',#490,#367,#368);
#296=AXIS2_PLACEMENT_3D('',#491,#369,#370);
#297=AXIS2_PLACEMENT_3D('',#494,#371,#372);
#298=AXIS2_PLACEMENT_3D('',#496,#374,#375);
#299=AXIS2_PLACEMENT_3D('',#497,#376,#377);
#300=AXIS2_PLACEMENT_3D('',#499,#378,#379);
#301=AXIS2_PLACEMENT_3D('',#500,#380,#381);
#302=AXIS2_PLACEMENT_3D('',#501,#382,#383);
#303=AXIS2_PLACEMENT_3D('',#503,#384,#385);
#304=AXIS2_PLACEMENT_3D('',#504,#386,#387);
#305=AXIS2_PLACEMENT_3D('',#505,#388,#389);
#306=AXIS2_PLACEMENT_3D('',#507,#390,#391);
#307=AXIS2_PLACEMENT_3D('',#508,#392,#393);
#308=AXIS2_PLACEMENT_3D('',#509,#394,#395);
#309=AXIS2_PLACEMENT_3D('',#510,#396,#397);
#310=AXIS2_PLACEMENT_3D('',#512,#398,#399);
#311=AXIS2_PLACEMENT_3D('',#513,#400,#401);
#312=AXIS2_PLACEMENT_3D('',#515,#402,#403);
#313=AXIS2_PLACEMENT_3D('',#516,#404,#405);
#314=AXIS2_PLACEMENT_3D('',#517,#406,#407);
#315=AXIS2_PLACEMENT_3D('',#518,#408,#409);
#316=DIRECTION('axis',(0.,0.,1.));
#317=DIRECTION('refdir',(1.,0.,0.));
#318=DIRECTION('center_axis',(-1.,0.,0.));
#319=DIRECTION('ref_axis',(0.,0.,-1.));
#320=DIRECTION('center_axis',(-1.,0.,0.));
#321=DIRECTION('ref_axis',(0.,0.,-1.));
#322=DIRECTION('',(-1.,0.,0.));
#323=DIRECTION('center_axis',(-1.,0.,0.));
#324=DIRECTION('ref_axis',(0.,0.,-1.));
#325=DIRECTION('center_axis',(1.,0.,0.));
#326=DIRECTION('ref_axis',(0.,0.,-1.));
#327=DIRECTION('center_axis',(9.86609643940058E-17,-1.,0.));
#328=DIRECTION('ref_axis',(1.,9.86609643940058E-17,0.));
#329=DIRECTION('center_axis',(9.86609643940058E-17,-1.,0.));
#330=DIRECTION('ref_axis',(1.,9.86609643940058E-17,0.));
#331=DIRECTION('',(0.857167300702112,0.515038074910054,1.04972719113862E-16));
#332=DIRECTION('center_axis',(9.86609643940058E-17,-1.,0.));
#333=DIRECTION('ref_axis',(1.,9.86609643940058E-17,0.));
#334=DIRECTION('center_axis',(-9.86609643940058E-17,1.,0.));
#335=DIRECTION('ref_axis',(1.,9.86609643940058E-17,0.));
#336=DIRECTION('',(-9.86609643940058E-17,1.,0.));
#337=DIRECTION('center_axis',(-1.,0.,0.));
#338=DIRECTION('ref_axis',(0.,1.,0.));
#339=DIRECTION('',(-1.,0.,0.));
#340=DIRECTION('center_axis',(-1.,0.,0.));
#341=DIRECTION('ref_axis',(0.,1.,0.));
#342=DIRECTION('center_axis',(1.,0.,0.));
#343=DIRECTION('ref_axis',(0.,0.,-1.));
#344=DIRECTION('center_axis',(9.86609643940058E-17,-1.,0.));
#345=DIRECTION('ref_axis',(0.,0.,-1.));
#346=DIRECTION('center_axis',(9.86609643940058E-17,-1.,0.));
#347=DIRECTION('ref_axis',(1.,9.86609643940058E-17,0.));
#348=DIRECTION('center_axis',(9.86609643940058E-17,-1.,0.));
#349=DIRECTION('ref_axis',(1.,9.86609643940058E-17,0.));
#350=DIRECTION('center_axis',(-1.,-9.86609643940058E-17,-1.22464679914735E-16));
#351=DIRECTION('ref_axis',(-1.22464679914735E-16,0.,1.));
#352=DIRECTION('center_axis',(9.86609643940058E-17,-1.,0.));
#353=DIRECTION('ref_axis',(1.,9.86609643940058E-17,0.));
#354=DIRECTION('center_axis',(9.86609643940058E-17,-1.,0.));
#355=DIRECTION('ref_axis',(1.,1.69972071566089E-16,0.));
#356=DIRECTION('center_axis',(9.86609643940058E-17,-1.,0.));
#357=DIRECTION('ref_axis',(1.,9.86609643940058E-17,0.));
#358=DIRECTION('',(-9.86609643940058E-17,1.,0.));
#359=DIRECTION('center_axis',(9.86609643940058E-17,-1.,0.));
#360=DIRECTION('ref_axis',(1.,9.86609643940058E-17,0.));
#361=DIRECTION('center_axis',(9.86609643940058E-17,-1.,0.));
#362=DIRECTION('ref_axis',(0.,0.,-1.));
#363=DIRECTION('center_axis',(-1.,-9.86609643940058E-17,-1.22464679914735E-16));
#364=DIRECTION('ref_axis',(-1.22464679914735E-16,0.,1.));
#365=DIRECTION('center_axis',(9.86609643940058E-17,-1.,0.));
#366=DIRECTION('ref_axis',(1.,9.86609643940058E-17,0.));
#367=DIRECTION('center_axis',(9.86609643940058E-17,-1.,0.));
#368=DIRECTION('ref_axis',(1.,9.86609643940058E-17,0.));
#369=DIRECTION('center_axis',(9.86609643940058E-17,-1.,0.));
#370=DIRECTION('ref_axis',(1.,1.69972071566089E-16,0.));
#371=DIRECTION('center_axis',(9.86609643940058E-17,-1.,0.));
#372=DIRECTION('ref_axis',(1.,9.86609643940058E-17,0.));
#373=DIRECTION('',(-9.86609643940058E-17,1.,0.));
#374=DIRECTION('center_axis',(9.86609643940058E-17,-1.,0.));
#375=DIRECTION('ref_axis',(1.,9.86609643940058E-17,0.));
#376=DIRECTION('center_axis',(9.86609643940058E-17,-1.,0.));
#377=DIRECTION('ref_axis',(0.,0.,-1.));
#378=DIRECTION('center_axis',(9.86609643940058E-17,-1.,0.));
#379=DIRECTION('ref_axis',(1.,9.86609643940058E-17,0.));
#380=DIRECTION('center_axis',(-1.,-9.86609643940058E-17,-1.22464679914735E-16));
#381=DIRECTION('ref_axis',(-1.22464679914735E-16,0.,1.));
#382=DIRECTION('center_axis',(9.86609643940058E-17,-1.,0.));
#383=DIRECTION('ref_axis',(0.,0.,-1.));
#384=DIRECTION('center_axis',(-1.,-9.86609643940058E-17,-1.22464679914735E-16));
#385=DIRECTION('ref_axis',(-1.22464679914735E-16,0.,1.));
#386=DIRECTION('center_axis',(9.86609643940058E-17,-1.,0.));
#387=DIRECTION('ref_axis',(1.,9.86609643940058E-17,0.));
#388=DIRECTION('center_axis',(9.86609643940058E-17,-1.,0.));
#389=DIRECTION('ref_axis',(0.,0.,-1.));
#390=DIRECTION('center_axis',(9.86609643940058E-17,-1.,0.));
#391=DIRECTION('ref_axis',(1.,9.86609643940058E-17,0.));
#392=DIRECTION('center_axis',(-1.,-9.86609643940058E-17,-1.22464679914735E-16));
#393=DIRECTION('ref_axis',(-1.22464679914735E-16,0.,1.));
#394=DIRECTION('center_axis',(9.86609643940058E-17,-1.,0.));
#395=DIRECTION('ref_axis',(0.,0.,-1.));
#396=DIRECTION('center_axis',(-9.86609643940058E-17,1.,0.));
#397=DIRECTION('ref_axis',(0.,0.,1.));
#398=DIRECTION('center_axis',(9.86609643940058E-17,-1.,0.));
#399=DIRECTION('ref_axis',(1.,9.86609643940058E-17,0.));
#400=DIRECTION('center_axis',(9.86609643940058E-17,-1.,0.));
#401=DIRECTION('ref_axis',(0.,0.,-1.));
#402=DIRECTION('center_axis',(9.86609643940058E-17,-1.,0.));
#403=DIRECTION('ref_axis',(1.,9.86609643940058E-17,0.));
#404=DIRECTION('center_axis',(-1.,-9.86609643940058E-17,-1.22464679914735E-16));
#405=DIRECTION('ref_axis',(-1.22464679914735E-16,0.,1.));
#406=DIRECTION('center_axis',(9.86609643940058E-17,-1.,0.));
#407=DIRECTION('ref_axis',(0.,0.,-1.));
#408=DIRECTION('center_axis',(-1.,-9.86609643940058E-17,-1.22464679914735E-16));
#409=DIRECTION('ref_axis',(-1.22464679914735E-16,0.,1.));
#410=CARTESIAN_POINT('',(0.,0.,0.));
#411=CARTESIAN_POINT('Origin',(5.,-15.,0.));
#412=CARTESIAN_POINT('',(5.,-15.,2.));
#413=CARTESIAN_POINT('Origin',(5.,-15.,0.));
#414=CARTESIAN_POINT('',(4.,-15.,2.));
#415=CARTESIAN_POINT('',(5.,-15.,2.));
#416=CARTESIAN_POINT('Origin',(4.,-15.,0.));
#417=CARTESIAN_POINT('Origin',(4.,-15.,0.));
#418=CARTESIAN_POINT('Origin',(4.61748308511743E-15,-46.801519866331,0.));
#419=CARTESIAN_POINT('',(-3.32349999999999,-47.8,-4.07011363696622E-16));
#420=CARTESIAN_POINT('Origin',(4.71599409803348E-15,-47.8,0.));
#421=CARTESIAN_POINT('',(4.51897207220139E-15,-45.8030397326619,0.));
#422=CARTESIAN_POINT('',(-1.66175,-46.801519866331,-2.03505681848311E-16));
#423=CARTESIAN_POINT('Origin',(5.81113080280694E-15,-58.9,0.));
#424=CARTESIAN_POINT('',(-3.32349999999999,-70.,-4.07011363696623E-16));
#425=CARTESIAN_POINT('Origin',(6.9062675075804E-15,-70.,0.));
#426=CARTESIAN_POINT('',(-3.32349999999999,-58.9,-4.07011363696623E-16));
#427=CARTESIAN_POINT('Origin',(8.,-15.,0.));
#428=CARTESIAN_POINT('',(8.,-18.5,0.));
#429=CARTESIAN_POINT('',(8.,-11.5,0.));
#430=CARTESIAN_POINT('Ctrl Pts',(8.,-18.5,-2.77555756156289E-16));
#431=CARTESIAN_POINT('Ctrl Pts',(8.,-18.5,0.445779616839274));
#432=CARTESIAN_POINT('Ctrl Pts',(7.95921864991192,-18.4096911881943,0.917315434168489));
#433=CARTESIAN_POINT('Ctrl Pts',(7.81211498767115,-18.0505692328692,1.77805750701061));
#434=CARTESIAN_POINT('Ctrl Pts',(7.70749664121924,-17.7820646680527,2.16768280025311));
#435=CARTESIAN_POINT('Ctrl Pts',(7.50747756772585,-17.1672221864927,2.78252528181316));
#436=CARTESIAN_POINT('Ctrl Pts',(7.39809357095282,-16.7777649418295,3.0506842447805));
#437=CARTESIAN_POINT('Ctrl Pts',(7.23971859211658,-15.9177025354839,3.40953673276842));
#438=CARTESIAN_POINT('Ctrl Pts',(7.19374728496908,-15.4464480357377,3.5));
#439=CARTESIAN_POINT('Ctrl Pts',(7.19374728496908,-14.5535519642623,3.5));
#440=CARTESIAN_POINT('Ctrl Pts',(7.23971859211658,-14.0822974645161,3.40953673276842));
#441=CARTESIAN_POINT('Ctrl Pts',(7.39809357095282,-13.2222350581705,3.0506842447805));
#442=CARTESIAN_POINT('Ctrl Pts',(7.50747756772585,-12.8327778135073,2.78252528181316));
#443=CARTESIAN_POINT('Ctrl Pts',(7.70749664121925,-12.2179353319473,2.16768280025311));
#444=CARTESIAN_POINT('Ctrl Pts',(7.81211498767115,-11.9494307671308,1.77805750701061));
#445=CARTESIAN_POINT('Ctrl Pts',(7.95921864991192,-11.5903088118057,0.917315434168489));
#446=CARTESIAN_POINT('Ctrl Pts',(8.,-11.5,0.445779616839275));
#447=CARTESIAN_POINT('Ctrl Pts',(8.,-11.5,6.93889390390723E-16));
#448=CARTESIAN_POINT('',(5.,-18.5,4.28626379701574E-16));
#449=CARTESIAN_POINT('',(8.,-18.5,4.28626379701574E-16));
#450=CARTESIAN_POINT('Origin',(5.,-15.,0.));
#451=CARTESIAN_POINT('Ctrl Pts',(8.,-11.5,5.55111512312578E-16));
#452=CARTESIAN_POINT('Ctrl Pts',(8.,-11.5,-0.445779616839275));
#453=CARTESIAN_POINT('Ctrl Pts',(7.95921864991192,-11.5903088118057,-0.91731543416849));
#454=CARTESIAN_POINT('Ctrl Pts',(7.81211498767115,-11.9494307671308,-1.77805750701061));
#455=CARTESIAN_POINT('Ctrl Pts',(7.70749664121924,-12.2179353319473,-2.16768280025311));
#456=CARTESIAN_POINT('Ctrl Pts',(7.50747756772585,-12.8327778135073,-2.78252528181316));
#457=CARTESIAN_POINT('Ctrl Pts',(7.39809357095282,-13.2222350581705,-3.0506842447805));
#458=CARTESIAN_POINT('Ctrl Pts',(7.23971859211658,-14.0822974645161,-3.40953673276842));
#459=CARTESIAN_POINT('Ctrl Pts',(7.19374728496908,-14.5535519642623,-3.5));
#460=CARTESIAN_POINT('Ctrl Pts',(7.19374728496908,-15.,-3.5));
#461=CARTESIAN_POINT('Ctrl Pts',(7.19374728496908,-15.4464480357377,-3.5));
#462=CARTESIAN_POINT('Ctrl Pts',(7.23971859211658,-15.9177025354839,-3.40953673276842));
#463=CARTESIAN_POINT('Ctrl Pts',(7.39809357095282,-16.7777649418295,-3.0506842447805));
#464=CARTESIAN_POINT('Ctrl Pts',(7.50747756772585,-17.1672221864927,-2.78252528181316));
#465=CARTESIAN_POINT('Ctrl Pts',(7.70749664121924,-17.7820646680527,-2.16768280025311));
#466=CARTESIAN_POINT('Ctrl Pts',(7.81211498767115,-18.0505692328692,-1.77805750701061));
#467=CARTESIAN_POINT('Ctrl Pts',(7.95921864991192,-18.4096911881943,-0.917315434168489));
#468=CARTESIAN_POINT('Ctrl Pts',(8.,-18.5,-0.445779616839276));
#469=CARTESIAN_POINT('Ctrl Pts',(8.,-18.5,-4.16333634234434E-16));
#470=CARTESIAN_POINT('Origin',(5.,-15.,0.));
#471=CARTESIAN_POINT('Origin',(8.38618197349049E-16,-8.5,0.));
#472=CARTESIAN_POINT('',(-8.,-10.,-9.79717439317882E-16));
#473=CARTESIAN_POINT('',(6.89220462217551E-18,-10.,8.));
#474=CARTESIAN_POINT('Origin',(9.86609643940058E-16,-10.,0.));
#475=CARTESIAN_POINT('Origin',(9.86609643940058E-16,-10.,0.));
#476=CARTESIAN_POINT('',(-2.89090688559842E-16,-7.,8.));
#477=CARTESIAN_POINT('Origin',(-1.41099241968833E-16,-8.5,8.));
#478=CARTESIAN_POINT('Origin',(6.90626750758041E-16,-7.,0.));
#479=CARTESIAN_POINT('Origin',(1.47991446591009E-15,-15.,0.));
#480=CARTESIAN_POINT('',(-8.,-20.,-9.79717439317882E-16));
#481=CARTESIAN_POINT('',(9.93501848562234E-16,-20.,8.));
#482=CARTESIAN_POINT('Origin',(1.97321928788012E-15,-20.,0.));
#483=CARTESIAN_POINT('',(-8.,-15.,-9.79717439317882E-16));
#484=CARTESIAN_POINT('Origin',(1.97321928788012E-15,-20.,0.));
#485=CARTESIAN_POINT('Origin',(3.4531337537902E-15,-35.,0.));
#486=CARTESIAN_POINT('',(3.95333078038241E-15,-50.,7.99999999999999));
#487=CARTESIAN_POINT('Origin',(-2.06769555505925E-15,-35.,45.0809924354783));
#488=CARTESIAN_POINT('',(-7.99999999999998,-50.,-9.79717439317881E-16));
#489=CARTESIAN_POINT('Origin',(4.93304821970029E-15,-50.,0.));
#490=CARTESIAN_POINT('Origin',(4.93304821970029E-15,-50.,0.));
#491=CARTESIAN_POINT('Origin',(5.42635304167032E-15,-55.,0.));
#492=CARTESIAN_POINT('',(-7.99999999999998,-60.,-9.79717439317881E-16));
#493=CARTESIAN_POINT('',(4.93994042432247E-15,-60.,7.99999999999999));
#494=CARTESIAN_POINT('Origin',(5.91965786364035E-15,-60.,0.));
#495=CARTESIAN_POINT('',(-7.99999999999998,-55.,-9.79717439317881E-16));
#496=CARTESIAN_POINT('Origin',(5.91965786364035E-15,-60.,0.));
#497=CARTESIAN_POINT('Origin',(6.06764931023136E-15,-61.5,0.));
#498=CARTESIAN_POINT('',(5.23592331750448E-15,-63.,7.99999999999999));
#499=CARTESIAN_POINT('Origin',(6.21564075682236E-15,-63.,0.));
#500=CARTESIAN_POINT('Origin',(5.08793187091348E-15,-61.5,7.99999999999999));
#501=CARTESIAN_POINT('Origin',(6.36363220341337E-15,-64.5,0.));
#502=CARTESIAN_POINT('',(5.5319062106865E-15,-66.,7.99999999999998));
#503=CARTESIAN_POINT('Origin',(5.38391476409549E-15,-64.5,7.99999999999998));
#504=CARTESIAN_POINT('Origin',(6.51162365000438E-15,-66.,0.));
#505=CARTESIAN_POINT('Origin',(6.70894557879239E-15,-68.,0.));
#506=CARTESIAN_POINT('',(5.92655006826252E-15,-70.,7.99999999999998));
#507=CARTESIAN_POINT('Origin',(6.9062675075804E-15,-70.,0.));
#508=CARTESIAN_POINT('Origin',(5.72922813947451E-15,-68.,7.99999999999998));
#509=CARTESIAN_POINT('Origin',(6.9062675075804E-15,-70.,0.));
#510=CARTESIAN_POINT('Origin',(8.,-1.66533453693773E-15,0.));
#511=CARTESIAN_POINT('',(-9.79717439317882E-16,-2.22044604925031E-15,8.));
#512=CARTESIAN_POINT('Origin',(2.46519032881566E-31,-2.22044604925031E-15,
0.));
#513=CARTESIAN_POINT('Origin',(1.97321928788012E-16,-2.,0.));
#514=CARTESIAN_POINT('',(-5.85073581741859E-16,-4.,8.));
#515=CARTESIAN_POINT('Origin',(3.94643857576023E-16,-4.,0.));
#516=CARTESIAN_POINT('Origin',(-7.82395510529871E-16,-2.,8.));
#517=CARTESIAN_POINT('Origin',(5.42635304167032E-16,-5.5,0.));
#518=CARTESIAN_POINT('Origin',(-4.3708213515085E-16,-5.5,8.));
#519=UNCERTAINTY_MEASURE_WITH_UNIT(LENGTH_MEASURE(0.01),#523,
'DISTANCE_ACCURACY_VALUE',
'Maximum model space distance between geometric entities at asserted c
onnectivities');
#520=UNCERTAINTY_MEASURE_WITH_UNIT(LENGTH_MEASURE(0.01),#523,
'DISTANCE_ACCURACY_VALUE',
'Maximum model space distance between geometric entities at asserted c
onnectivities');
#521=(
GEOMETRIC_REPRESENTATION_CONTEXT(3)
GLOBAL_UNCERTAINTY_ASSIGNED_CONTEXT((#519))
GLOBAL_UNIT_ASSIGNED_CONTEXT((#523,#525,#526))
REPRESENTATION_CONTEXT('','3D')
);
#522=(
GEOMETRIC_REPRESENTATION_CONTEXT(3)
GLOBAL_UNCERTAINTY_ASSIGNED_CONTEXT((#520))
GLOBAL_UNIT_ASSIGNED_CONTEXT((#523,#525,#526))
REPRESENTATION_CONTEXT('','3D')
);
#523=(
LENGTH_UNIT()
NAMED_UNIT(*)
SI_UNIT(.MILLI.,.METRE.)
);
#524=(
LENGTH_UNIT()
NAMED_UNIT(*)
SI_UNIT(.CENTI.,.METRE.)
);
#525=(
NAMED_UNIT(*)
PLANE_ANGLE_UNIT()
SI_UNIT($,.RADIAN.)
);
#526=(
NAMED_UNIT(*)
SI_UNIT($,.STERADIAN.)
SOLID_ANGLE_UNIT()
);
#527=SHAPE_DEFINITION_REPRESENTATION(#528,#529);
#528=PRODUCT_DEFINITION_SHAPE('',$,#531);
#529=SHAPE_REPRESENTATION('',(#272),#521);
#530=PRODUCT_DEFINITION_CONTEXT('part definition',#535,'design');
#531=PRODUCT_DEFINITION('Wheel Shaft Pillar - 2',
'Wheel Shaft Pillar - 2',#532,#530);
#532=PRODUCT_DEFINITION_FORMATION('',$,#537);
#533=PRODUCT_RELATED_PRODUCT_CATEGORY('Wheel Shaft Pillar - 2',
'Wheel Shaft Pillar - 2',(#537));
#534=APPLICATION_PROTOCOL_DEFINITION('international standard',
'automotive_design',2009,#535);
#535=APPLICATION_CONTEXT(
'Core Data for Automotive Mechanical Design Process');
#536=PRODUCT_CONTEXT('part definition',#535,'mechanical');
#537=PRODUCT('Wheel Shaft Pillar - 2','Wheel Shaft Pillar - 2',$,(#536));
#538=PRESENTATION_STYLE_ASSIGNMENT((#539));
#539=SURFACE_STYLE_USAGE(.BOTH.,#542);
#540=SURFACE_STYLE_RENDERING_WITH_PROPERTIES($,#546,(#541));
#541=SURFACE_STYLE_TRANSPARENT(0.);
#542=SURFACE_SIDE_STYLE('',(#543,#540));
#543=SURFACE_STYLE_FILL_AREA(#544);
#544=FILL_AREA_STYLE('',(#545));
#545=FILL_AREA_STYLE_COLOUR('',#546);
#546=COLOUR_RGB('',0.745098039215686,0.737254901960784,0.729411764705882);
ENDSEC;
END-ISO-10303-21;
