ISO-10303-21;
HEADER;
/* Generated by software containing ST-Developer
 * from STEP Tools, Inc. (www.steptools.com) 
 */

FILE_DESCRIPTION(
/* description */ (''),
/* implementation_level */ '2;1');

FILE_NAME(
/* name */ 
'S:\\Future Scope 1\\WIP\\Client Category\\Tom\\02 Progressive Work\\W
heel Handle.stp',
/* time_stamp */ '2025-11-05T12:14:40+06:00',
/* author */ ('SD'),
/* organization */ (''),
/* preprocessor_version */ 'ST-DEVELOPER v18.1',
/* originating_system */ 'Autodesk Inventor 2021',
/* authorisation */ '');

FILE_SCHEMA (('AUTOMOTIVE_DESIGN { 1 0 10303 214 3 1 1 }'));
ENDSEC;

DATA;
#10=MECHANICAL_DESIGN_GEOMETRIC_PRESENTATION_REPRESENTATION('',(#13),#501);
#11=SHAPE_REPRESENTATION_RELATIONSHIP('SRR','None',#508,#12);
#12=ADVANCED_BREP_SHAPE_REPRESENTATION('',(#14),#500);
#13=STYLED_ITEM('',(#517),#14);
#14=MANIFOLD_SOLID_BREP('Solid2',#271);
#15=FACE_BOUND('',#72,.T.);
#16=FACE_BOUND('',#74,.T.);
#17=FACE_BOUND('',#77,.T.);
#18=CYLINDRICAL_SURFACE('',#301,2.5);
#19=CYLINDRICAL_SURFACE('',#308,4.);
#20=CYLINDRICAL_SURFACE('',#319,2.);
#21=CYLINDRICAL_SURFACE('',#324,2.5);
#22=CONICAL_SURFACE('',#299,2.25,0.785398163397448);
#23=CONICAL_SURFACE('',#304,3.95,0.785398163397459);
#24=CONICAL_SURFACE('',#312,3.95,0.785398163397448);
#25=CONICAL_SURFACE('',#322,2.25,0.785398163397448);
#26=CIRCLE('',#293,2.5);
#27=CIRCLE('',#294,2.5);
#28=CIRCLE('',#295,2.5);
#29=CIRCLE('',#298,2.);
#30=CIRCLE('',#300,2.5);
#31=CIRCLE('',#302,2.5);
#32=CIRCLE('',#303,2.5);
#33=CIRCLE('',#305,3.9);
#34=CIRCLE('',#306,4.);
#35=CIRCLE('',#307,4.);
#36=CIRCLE('',#309,4.);
#37=CIRCLE('',#310,4.);
#38=CIRCLE('',#313,3.9);
#39=CIRCLE('',#315,2.5);
#40=CIRCLE('',#317,2.5);
#41=CIRCLE('',#318,2.);
#42=CIRCLE('',#320,2.);
#43=CIRCLE('',#323,2.);
#44=FACE_OUTER_BOUND('',#61,.T.);
#45=FACE_OUTER_BOUND('',#62,.T.);
#46=FACE_OUTER_BOUND('',#63,.T.);
#47=FACE_OUTER_BOUND('',#64,.T.);
#48=FACE_OUTER_BOUND('',#65,.T.);
#49=FACE_OUTER_BOUND('',#66,.T.);
#50=FACE_OUTER_BOUND('',#67,.T.);
#51=FACE_OUTER_BOUND('',#68,.T.);
#52=FACE_OUTER_BOUND('',#69,.T.);
#53=FACE_OUTER_BOUND('',#70,.T.);
#54=FACE_OUTER_BOUND('',#71,.T.);
#55=FACE_OUTER_BOUND('',#73,.T.);
#56=FACE_OUTER_BOUND('',#75,.T.);
#57=FACE_OUTER_BOUND('',#76,.T.);
#58=FACE_OUTER_BOUND('',#78,.T.);
#59=FACE_OUTER_BOUND('',#79,.T.);
#60=FACE_OUTER_BOUND('',#80,.T.);
#61=EDGE_LOOP('',(#173,#174,#175,#176,#177,#178));
#62=EDGE_LOOP('',(#179,#180,#181,#182,#183));
#63=EDGE_LOOP('',(#184,#185,#186,#187,#188,#189));
#64=EDGE_LOOP('',(#190,#191));
#65=EDGE_LOOP('',(#192,#193,#194,#195));
#66=EDGE_LOOP('',(#196,#197,#198,#199,#200,#201,#202,#203,#204,#205,#206,
#207));
#67=EDGE_LOOP('',(#208,#209,#210,#211,#212));
#68=EDGE_LOOP('',(#213,#214,#215,#216,#217,#218));
#69=EDGE_LOOP('',(#219));
#70=EDGE_LOOP('',(#220,#221,#222,#223,#224));
#71=EDGE_LOOP('',(#225));
#72=EDGE_LOOP('',(#226));
#73=EDGE_LOOP('',(#227));
#74=EDGE_LOOP('',(#228));
#75=EDGE_LOOP('',(#229,#230,#231,#232));
#76=EDGE_LOOP('',(#233));
#77=EDGE_LOOP('',(#234));
#78=EDGE_LOOP('',(#235,#236,#237,#238));
#79=EDGE_LOOP('',(#239,#240,#241,#242));
#80=EDGE_LOOP('',(#243,#244));
#81=(
BOUNDED_CURVE()
B_SPLINE_CURVE(2,(#422,#423,#424),.UNSPECIFIED.,.F.,.F.)
B_SPLINE_CURVE_WITH_KNOTS((3,3),(0.,0.0716357541982538),.UNSPECIFIED.)
CURVE()
GEOMETRIC_REPRESENTATION_ITEM()
RATIONAL_B_SPLINE_CURVE((1.,1.00656197995238,1.))
REPRESENTATION_ITEM('')
);
#82=(
BOUNDED_CURVE()
B_SPLINE_CURVE(2,(#427,#428,#429),.UNSPECIFIED.,.F.,.F.)
B_SPLINE_CURVE_WITH_KNOTS((3,3),(0.,0.0716357541982538),.UNSPECIFIED.)
CURVE()
GEOMETRIC_REPRESENTATION_ITEM()
RATIONAL_B_SPLINE_CURVE((1.,1.00656197995238,1.))
REPRESENTATION_ITEM('')
);
#83=(
BOUNDED_CURVE()
B_SPLINE_CURVE(2,(#442,#443,#444),.UNSPECIFIED.,.F.,.F.)
B_SPLINE_CURVE_WITH_KNOTS((3,3),(0.,0.0716357541982537),.UNSPECIFIED.)
CURVE()
GEOMETRIC_REPRESENTATION_ITEM()
RATIONAL_B_SPLINE_CURVE((1.,1.00656197995217,1.))
REPRESENTATION_ITEM('')
);
#84=(
BOUNDED_CURVE()
B_SPLINE_CURVE(2,(#448,#449,#450),.UNSPECIFIED.,.F.,.F.)
B_SPLINE_CURVE_WITH_KNOTS((3,3),(0.,0.0716357541982537),.UNSPECIFIED.)
CURVE()
GEOMETRIC_REPRESENTATION_ITEM()
RATIONAL_B_SPLINE_CURVE((1.,1.00656197995217,1.))
REPRESENTATION_ITEM('')
);
#85=LINE('',#416,#99);
#86=LINE('',#418,#100);
#87=LINE('',#420,#101);
#88=LINE('',#426,#102);
#89=LINE('',#434,#103);
#90=LINE('',#440,#104);
#91=LINE('',#446,#105);
#92=LINE('',#451,#106);
#93=LINE('',#458,#107);
#94=LINE('',#465,#108);
#95=LINE('',#471,#109);
#96=LINE('',#478,#110);
#97=LINE('',#491,#111);
#98=LINE('',#496,#112);
#99=VECTOR('',#330,10.);
#100=VECTOR('',#331,10.);
#101=VECTOR('',#332,10.);
#102=VECTOR('',#333,10.);
#103=VECTOR('',#338,10.);
#104=VECTOR('',#345,10.);
#105=VECTOR('',#346,10.);
#106=VECTOR('',#347,10.);
#107=VECTOR('',#358,2.5);
#108=VECTOR('',#367,3.95);
#109=VECTOR('',#374,4.);
#110=VECTOR('',#383,3.95);
#111=VECTOR('',#400,2.);
#112=VECTOR('',#409,2.5);
#113=VERTEX_POINT('',#414);
#114=VERTEX_POINT('',#415);
#115=VERTEX_POINT('',#417);
#116=VERTEX_POINT('',#419);
#117=VERTEX_POINT('',#421);
#118=VERTEX_POINT('',#425);
#119=VERTEX_POINT('',#431);
#120=VERTEX_POINT('',#433);
#121=VERTEX_POINT('',#435);
#122=VERTEX_POINT('',#439);
#123=VERTEX_POINT('',#441);
#124=VERTEX_POINT('',#445);
#125=VERTEX_POINT('',#447);
#126=VERTEX_POINT('',#457);
#127=VERTEX_POINT('',#462);
#128=VERTEX_POINT('',#464);
#129=VERTEX_POINT('',#466);
#130=VERTEX_POINT('',#470);
#131=VERTEX_POINT('',#472);
#132=VERTEX_POINT('',#477);
#133=VERTEX_POINT('',#481);
#134=VERTEX_POINT('',#484);
#135=VERTEX_POINT('',#486);
#136=VERTEX_POINT('',#489);
#137=EDGE_CURVE('',#113,#114,#85,.T.);
#138=EDGE_CURVE('',#113,#115,#86,.T.);
#139=EDGE_CURVE('',#116,#115,#87,.T.);
#140=EDGE_CURVE('',#117,#116,#81,.T.);
#141=EDGE_CURVE('',#118,#117,#88,.T.);
#142=EDGE_CURVE('',#114,#118,#82,.T.);
#143=EDGE_CURVE('',#119,#113,#26,.T.);
#144=EDGE_CURVE('',#119,#120,#89,.T.);
#145=EDGE_CURVE('',#121,#120,#27,.T.);
#146=EDGE_CURVE('',#115,#121,#28,.T.);
#147=EDGE_CURVE('',#122,#119,#90,.T.);
#148=EDGE_CURVE('',#123,#122,#83,.T.);
#149=EDGE_CURVE('',#124,#123,#91,.T.);
#150=EDGE_CURVE('',#125,#124,#84,.T.);
#151=EDGE_CURVE('',#120,#125,#92,.T.);
#152=EDGE_CURVE('',#118,#117,#29,.T.);
#153=EDGE_CURVE('',#116,#114,#30,.T.);
#154=EDGE_CURVE('',#121,#126,#93,.T.);
#155=EDGE_CURVE('',#126,#126,#31,.T.);
#156=EDGE_CURVE('',#122,#125,#32,.T.);
#157=EDGE_CURVE('',#127,#127,#33,.T.);
#158=EDGE_CURVE('',#127,#128,#94,.T.);
#159=EDGE_CURVE('',#128,#129,#34,.T.);
#160=EDGE_CURVE('',#129,#128,#35,.T.);
#161=EDGE_CURVE('',#129,#130,#95,.T.);
#162=EDGE_CURVE('',#131,#130,#36,.T.);
#163=EDGE_CURVE('',#130,#131,#37,.T.);
#164=EDGE_CURVE('',#131,#132,#96,.T.);
#165=EDGE_CURVE('',#132,#132,#38,.T.);
#166=EDGE_CURVE('',#133,#133,#39,.T.);
#167=EDGE_CURVE('',#134,#134,#40,.T.);
#168=EDGE_CURVE('',#135,#135,#41,.T.);
#169=EDGE_CURVE('',#136,#136,#42,.T.);
#170=EDGE_CURVE('',#136,#135,#97,.T.);
#171=EDGE_CURVE('',#124,#123,#43,.T.);
#172=EDGE_CURVE('',#134,#133,#98,.T.);
#173=ORIENTED_EDGE('',*,*,#137,.F.);
#174=ORIENTED_EDGE('',*,*,#138,.T.);
#175=ORIENTED_EDGE('',*,*,#139,.F.);
#176=ORIENTED_EDGE('',*,*,#140,.F.);
#177=ORIENTED_EDGE('',*,*,#141,.F.);
#178=ORIENTED_EDGE('',*,*,#142,.F.);
#179=ORIENTED_EDGE('',*,*,#143,.F.);
#180=ORIENTED_EDGE('',*,*,#144,.T.);
#181=ORIENTED_EDGE('',*,*,#145,.F.);
#182=ORIENTED_EDGE('',*,*,#146,.F.);
#183=ORIENTED_EDGE('',*,*,#138,.F.);
#184=ORIENTED_EDGE('',*,*,#147,.F.);
#185=ORIENTED_EDGE('',*,*,#148,.F.);
#186=ORIENTED_EDGE('',*,*,#149,.F.);
#187=ORIENTED_EDGE('',*,*,#150,.F.);
#188=ORIENTED_EDGE('',*,*,#151,.F.);
#189=ORIENTED_EDGE('',*,*,#144,.F.);
#190=ORIENTED_EDGE('',*,*,#141,.T.);
#191=ORIENTED_EDGE('',*,*,#152,.F.);
#192=ORIENTED_EDGE('',*,*,#142,.T.);
#193=ORIENTED_EDGE('',*,*,#152,.T.);
#194=ORIENTED_EDGE('',*,*,#140,.T.);
#195=ORIENTED_EDGE('',*,*,#153,.T.);
#196=ORIENTED_EDGE('',*,*,#147,.T.);
#197=ORIENTED_EDGE('',*,*,#143,.T.);
#198=ORIENTED_EDGE('',*,*,#137,.T.);
#199=ORIENTED_EDGE('',*,*,#153,.F.);
#200=ORIENTED_EDGE('',*,*,#139,.T.);
#201=ORIENTED_EDGE('',*,*,#146,.T.);
#202=ORIENTED_EDGE('',*,*,#154,.T.);
#203=ORIENTED_EDGE('',*,*,#155,.T.);
#204=ORIENTED_EDGE('',*,*,#154,.F.);
#205=ORIENTED_EDGE('',*,*,#145,.T.);
#206=ORIENTED_EDGE('',*,*,#151,.T.);
#207=ORIENTED_EDGE('',*,*,#156,.F.);
#208=ORIENTED_EDGE('',*,*,#157,.T.);
#209=ORIENTED_EDGE('',*,*,#158,.T.);
#210=ORIENTED_EDGE('',*,*,#159,.T.);
#211=ORIENTED_EDGE('',*,*,#160,.T.);
#212=ORIENTED_EDGE('',*,*,#158,.F.);
#213=ORIENTED_EDGE('',*,*,#159,.F.);
#214=ORIENTED_EDGE('',*,*,#160,.F.);
#215=ORIENTED_EDGE('',*,*,#161,.T.);
#216=ORIENTED_EDGE('',*,*,#162,.F.);
#217=ORIENTED_EDGE('',*,*,#163,.F.);
#218=ORIENTED_EDGE('',*,*,#161,.F.);
#219=ORIENTED_EDGE('',*,*,#157,.F.);
#220=ORIENTED_EDGE('',*,*,#162,.T.);
#221=ORIENTED_EDGE('',*,*,#163,.T.);
#222=ORIENTED_EDGE('',*,*,#164,.T.);
#223=ORIENTED_EDGE('',*,*,#165,.T.);
#224=ORIENTED_EDGE('',*,*,#164,.F.);
#225=ORIENTED_EDGE('',*,*,#165,.F.);
#226=ORIENTED_EDGE('',*,*,#166,.T.);
#227=ORIENTED_EDGE('',*,*,#167,.F.);
#228=ORIENTED_EDGE('',*,*,#168,.T.);
#229=ORIENTED_EDGE('',*,*,#169,.T.);
#230=ORIENTED_EDGE('',*,*,#170,.T.);
#231=ORIENTED_EDGE('',*,*,#168,.F.);
#232=ORIENTED_EDGE('',*,*,#170,.F.);
#233=ORIENTED_EDGE('',*,*,#155,.F.);
#234=ORIENTED_EDGE('',*,*,#169,.F.);
#235=ORIENTED_EDGE('',*,*,#148,.T.);
#236=ORIENTED_EDGE('',*,*,#156,.T.);
#237=ORIENTED_EDGE('',*,*,#150,.T.);
#238=ORIENTED_EDGE('',*,*,#171,.T.);
#239=ORIENTED_EDGE('',*,*,#167,.T.);
#240=ORIENTED_EDGE('',*,*,#172,.T.);
#241=ORIENTED_EDGE('',*,*,#166,.F.);
#242=ORIENTED_EDGE('',*,*,#172,.F.);
#243=ORIENTED_EDGE('',*,*,#149,.T.);
#244=ORIENTED_EDGE('',*,*,#171,.F.);
#245=PLANE('',#291);
#246=PLANE('',#292);
#247=PLANE('',#296);
#248=PLANE('',#297);
#249=PLANE('',#311);
#250=PLANE('',#314);
#251=PLANE('',#316);
#252=PLANE('',#321);
#253=PLANE('',#325);
#254=ADVANCED_FACE('',(#44),#245,.F.);
#255=ADVANCED_FACE('',(#45),#246,.F.);
#256=ADVANCED_FACE('',(#46),#247,.F.);
#257=ADVANCED_FACE('',(#47),#248,.T.);
#258=ADVANCED_FACE('',(#48),#22,.T.);
#259=ADVANCED_FACE('',(#49),#18,.T.);
#260=ADVANCED_FACE('',(#50),#23,.T.);
#261=ADVANCED_FACE('',(#51),#19,.T.);
#262=ADVANCED_FACE('',(#52),#249,.T.);
#263=ADVANCED_FACE('',(#53),#24,.T.);
#264=ADVANCED_FACE('',(#54,#15),#250,.F.);
#265=ADVANCED_FACE('',(#55,#16),#251,.F.);
#266=ADVANCED_FACE('',(#56),#20,.T.);
#267=ADVANCED_FACE('',(#57,#17),#252,.F.);
#268=ADVANCED_FACE('',(#58),#25,.T.);
#269=ADVANCED_FACE('',(#59),#21,.T.);
#270=ADVANCED_FACE('',(#60),#253,.T.);
#271=CLOSED_SHELL('',(#254,#255,#256,#257,#258,#259,#260,#261,#262,#263,
#264,#265,#266,#267,#268,#269,#270));
#272=DERIVED_UNIT_ELEMENT(#274,1.);
#273=DERIVED_UNIT_ELEMENT(#503,3.);
#274=(
MASS_UNIT()
NAMED_UNIT(*)
SI_UNIT($,.GRAM.)
);
#275=DERIVED_UNIT((#272,#273));
#276=MEASURE_REPRESENTATION_ITEM('density measure',
POSITIVE_RATIO_MEASURE(8.874),#275);
#277=PROPERTY_DEFINITION_REPRESENTATION(#282,#279);
#278=PROPERTY_DEFINITION_REPRESENTATION(#283,#280);
#279=REPRESENTATION('material name',(#281),#500);
#280=REPRESENTATION('density',(#276),#500);
#281=DESCRIPTIVE_REPRESENTATION_ITEM('Bronze, Soft Tin',
'Bronze, Soft Tin');
#282=PROPERTY_DEFINITION('material property','material name',#510);
#283=PROPERTY_DEFINITION('material property','density of part',#510);
#284=DATE_TIME_ROLE('creation_date');
#285=APPLIED_DATE_AND_TIME_ASSIGNMENT(#286,#284,(#510));
#286=DATE_AND_TIME(#287,#288);
#287=CALENDAR_DATE(2025,16,9);
#288=LOCAL_TIME(0,0,0.,#289);
#289=COORDINATED_UNIVERSAL_TIME_OFFSET(0,0,.BEHIND.);
#290=AXIS2_PLACEMENT_3D('placement',#412,#326,#327);
#291=AXIS2_PLACEMENT_3D('',#413,#328,#329);
#292=AXIS2_PLACEMENT_3D('',#430,#334,#335);
#293=AXIS2_PLACEMENT_3D('',#432,#336,#337);
#294=AXIS2_PLACEMENT_3D('',#436,#339,#340);
#295=AXIS2_PLACEMENT_3D('',#437,#341,#342);
#296=AXIS2_PLACEMENT_3D('',#438,#343,#344);
#297=AXIS2_PLACEMENT_3D('',#452,#348,#349);
#298=AXIS2_PLACEMENT_3D('',#453,#350,#351);
#299=AXIS2_PLACEMENT_3D('',#454,#352,#353);
#300=AXIS2_PLACEMENT_3D('',#455,#354,#355);
#301=AXIS2_PLACEMENT_3D('',#456,#356,#357);
#302=AXIS2_PLACEMENT_3D('',#459,#359,#360);
#303=AXIS2_PLACEMENT_3D('',#460,#361,#362);
#304=AXIS2_PLACEMENT_3D('',#461,#363,#364);
#305=AXIS2_PLACEMENT_3D('',#463,#365,#366);
#306=AXIS2_PLACEMENT_3D('',#467,#368,#369);
#307=AXIS2_PLACEMENT_3D('',#468,#370,#371);
#308=AXIS2_PLACEMENT_3D('',#469,#372,#373);
#309=AXIS2_PLACEMENT_3D('',#473,#375,#376);
#310=AXIS2_PLACEMENT_3D('',#474,#377,#378);
#311=AXIS2_PLACEMENT_3D('',#475,#379,#380);
#312=AXIS2_PLACEMENT_3D('',#476,#381,#382);
#313=AXIS2_PLACEMENT_3D('',#479,#384,#385);
#314=AXIS2_PLACEMENT_3D('',#480,#386,#387);
#315=AXIS2_PLACEMENT_3D('',#482,#388,#389);
#316=AXIS2_PLACEMENT_3D('',#483,#390,#391);
#317=AXIS2_PLACEMENT_3D('',#485,#392,#393);
#318=AXIS2_PLACEMENT_3D('',#487,#394,#395);
#319=AXIS2_PLACEMENT_3D('',#488,#396,#397);
#320=AXIS2_PLACEMENT_3D('',#490,#398,#399);
#321=AXIS2_PLACEMENT_3D('',#492,#401,#402);
#322=AXIS2_PLACEMENT_3D('',#493,#403,#404);
#323=AXIS2_PLACEMENT_3D('',#494,#405,#406);
#324=AXIS2_PLACEMENT_3D('',#495,#407,#408);
#325=AXIS2_PLACEMENT_3D('',#497,#410,#411);
#326=DIRECTION('axis',(0.,0.,1.));
#327=DIRECTION('refdir',(1.,0.,0.));
#328=DIRECTION('center_axis',(0.,2.44249065417534E-16,-1.));
#329=DIRECTION('ref_axis',(0.,-1.,-2.44249065417534E-16));
#330=DIRECTION('',(0.,1.,0.));
#331=DIRECTION('',(1.,0.,0.));
#332=DIRECTION('',(0.,-1.,0.));
#333=DIRECTION('',(1.,0.,0.));
#334=DIRECTION('center_axis',(0.,-1.,0.));
#335=DIRECTION('ref_axis',(0.,0.,1.));
#336=DIRECTION('center_axis',(0.,-1.,0.));
#337=DIRECTION('ref_axis',(-1.,0.,0.));
#338=DIRECTION('',(1.,0.,0.));
#339=DIRECTION('center_axis',(0.,-1.,0.));
#340=DIRECTION('ref_axis',(-1.,0.,0.));
#341=DIRECTION('center_axis',(0.,-1.,0.));
#342=DIRECTION('ref_axis',(-1.,0.,0.));
#343=DIRECTION('center_axis',(0.,-1.22124532708767E-16,1.));
#344=DIRECTION('ref_axis',(0.,1.,1.22124532708767E-16));
#345=DIRECTION('',(0.,-1.,0.));
#346=DIRECTION('',(-1.,0.,0.));
#347=DIRECTION('',(0.,1.,0.));
#348=DIRECTION('center_axis',(0.,1.,0.));
#349=DIRECTION('ref_axis',(0.,0.,1.));
#350=DIRECTION('center_axis',(0.,-1.,0.));
#351=DIRECTION('ref_axis',(1.,0.,0.));
#352=DIRECTION('center_axis',(0.,-1.,0.));
#353=DIRECTION('ref_axis',(1.,0.,0.));
#354=DIRECTION('center_axis',(0.,1.,0.));
#355=DIRECTION('ref_axis',(1.,0.,0.));
#356=DIRECTION('center_axis',(0.,1.,0.));
#357=DIRECTION('ref_axis',(-1.,0.,0.));
#358=DIRECTION('',(0.,-1.,0.));
#359=DIRECTION('center_axis',(0.,1.,0.));
#360=DIRECTION('ref_axis',(-1.,0.,0.));
#361=DIRECTION('center_axis',(0.,1.,0.));
#362=DIRECTION('ref_axis',(1.,0.,0.));
#363=DIRECTION('center_axis',(0.,1.,0.));
#364=DIRECTION('ref_axis',(-1.,0.,0.));
#365=DIRECTION('center_axis',(0.,1.,0.));
#366=DIRECTION('ref_axis',(-1.,0.,0.));
#367=DIRECTION('',(0.707106781186555,0.70710678118654,8.65956056235503E-17));
#368=DIRECTION('center_axis',(0.,-1.,0.));
#369=DIRECTION('ref_axis',(-1.,0.,0.));
#370=DIRECTION('center_axis',(0.,-1.,0.));
#371=DIRECTION('ref_axis',(-1.,0.,0.));
#372=DIRECTION('center_axis',(0.,-1.,0.));
#373=DIRECTION('ref_axis',(1.,0.,0.));
#374=DIRECTION('',(0.,1.,0.));
#375=DIRECTION('center_axis',(0.,1.,0.));
#376=DIRECTION('ref_axis',(-1.,0.,0.));
#377=DIRECTION('center_axis',(0.,1.,0.));
#378=DIRECTION('ref_axis',(-1.,0.,0.));
#379=DIRECTION('center_axis',(0.,-1.,0.));
#380=DIRECTION('ref_axis',(0.,0.,-1.));
#381=DIRECTION('center_axis',(0.,-1.,0.));
#382=DIRECTION('ref_axis',(-1.,0.,0.));
#383=DIRECTION('',(-0.707106781186548,0.707106781186548,-8.65956056235493E-17));
#384=DIRECTION('center_axis',(0.,-1.,0.));
#385=DIRECTION('ref_axis',(-1.,0.,0.));
#386=DIRECTION('center_axis',(0.,-1.,0.));
#387=DIRECTION('ref_axis',(0.,0.,-1.));
#388=DIRECTION('center_axis',(0.,-1.,0.));
#389=DIRECTION('ref_axis',(-1.,0.,0.));
#390=DIRECTION('center_axis',(0.,-1.,0.));
#391=DIRECTION('ref_axis',(0.,0.,-1.));
#392=DIRECTION('center_axis',(0.,-1.,0.));
#393=DIRECTION('ref_axis',(-1.,0.,0.));
#394=DIRECTION('center_axis',(0.,-1.,0.));
#395=DIRECTION('ref_axis',(1.,0.,0.));
#396=DIRECTION('center_axis',(0.,-1.,0.));
#397=DIRECTION('ref_axis',(-1.,0.,0.));
#398=DIRECTION('center_axis',(0.,-1.,0.));
#399=DIRECTION('ref_axis',(1.,0.,0.));
#400=DIRECTION('',(0.,-1.,0.));
#401=DIRECTION('center_axis',(0.,1.,0.));
#402=DIRECTION('ref_axis',(0.,0.,1.));
#403=DIRECTION('center_axis',(0.,-1.,0.));
#404=DIRECTION('ref_axis',(1.,0.,0.));
#405=DIRECTION('center_axis',(0.,-1.,0.));
#406=DIRECTION('ref_axis',(1.,0.,0.));
#407=DIRECTION('center_axis',(0.,1.,0.));
#408=DIRECTION('ref_axis',(-1.,0.,0.));
#409=DIRECTION('',(0.,-1.,0.));
#410=DIRECTION('center_axis',(0.,1.,0.));
#411=DIRECTION('ref_axis',(0.,0.,1.));
#412=CARTESIAN_POINT('',(0.,0.,0.));
#413=CARTESIAN_POINT('Origin',(0.,28.5,-0.499999999999999));
#414=CARTESIAN_POINT('',(-2.44948974278318,3.5,-0.500000000000005));
#415=CARTESIAN_POINT('',(-2.44948974278318,18.,-0.500000000000001));
#416=CARTESIAN_POINT('',(-2.44948974278318,0.,-0.500000000000006));
#417=CARTESIAN_POINT('',(2.44948974278318,3.5,-0.500000000000005));
#418=CARTESIAN_POINT('',(0.,3.5,-0.500000000000005));
#419=CARTESIAN_POINT('',(2.44948974278318,18.,-0.500000000000001));
#420=CARTESIAN_POINT('',(2.44948974278318,0.,-0.500000000000006));
#421=CARTESIAN_POINT('',(1.93649167310371,18.5,-0.500000000000001));
#422=CARTESIAN_POINT('Ctrl Pts',(1.93649167310371,18.5,-0.500000000000001));
#423=CARTESIAN_POINT('Ctrl Pts',(2.16449081518409,18.2792407799433,-0.500000000000001));
#424=CARTESIAN_POINT('Ctrl Pts',(2.44948974278318,18.,-0.500000000000001));
#425=CARTESIAN_POINT('',(-1.93649167310371,18.5,-0.500000000000001));
#426=CARTESIAN_POINT('',(0.,18.5,-0.500000000000001));
#427=CARTESIAN_POINT('Ctrl Pts',(-2.44948974278318,18.,-0.500000000000001));
#428=CARTESIAN_POINT('Ctrl Pts',(-2.16449081518409,18.2792407799433,-0.500000000000001));
#429=CARTESIAN_POINT('Ctrl Pts',(-1.93649167310371,18.5,-0.500000000000001));
#430=CARTESIAN_POINT('Origin',(0.,3.5,-0.500000000000005));
#431=CARTESIAN_POINT('',(-2.44948974278318,3.5,0.499999999999997));
#432=CARTESIAN_POINT('Origin',(0.,3.5,0.));
#433=CARTESIAN_POINT('',(2.44948974278318,3.5,0.499999999999997));
#434=CARTESIAN_POINT('',(0.,3.5,0.499999999999997));
#435=CARTESIAN_POINT('',(2.5,3.5,-3.06161699786838E-16));
#436=CARTESIAN_POINT('Origin',(0.,3.5,0.));
#437=CARTESIAN_POINT('Origin',(0.,3.5,0.));
#438=CARTESIAN_POINT('Origin',(0.,3.5,0.499999999999997));
#439=CARTESIAN_POINT('',(-2.44948974278318,18.,0.499999999999999));
#440=CARTESIAN_POINT('',(-2.44948974278318,0.,0.499999999999996));
#441=CARTESIAN_POINT('',(-1.93649167310371,18.5,0.499999999999999));
#442=CARTESIAN_POINT('Ctrl Pts',(-1.93649167310371,18.5,0.499999999999999));
#443=CARTESIAN_POINT('Ctrl Pts',(-2.1644908151842,18.2792407799432,0.499999999999999));
#444=CARTESIAN_POINT('Ctrl Pts',(-2.44948974278318,18.,0.499999999999999));
#445=CARTESIAN_POINT('',(1.93649167310371,18.5,0.499999999999999));
#446=CARTESIAN_POINT('',(0.,18.5,0.499999999999999));
#447=CARTESIAN_POINT('',(2.44948974278318,18.,0.499999999999999));
#448=CARTESIAN_POINT('Ctrl Pts',(2.44948974278318,18.,0.499999999999999));
#449=CARTESIAN_POINT('Ctrl Pts',(2.1644908151842,18.2792407799432,0.499999999999999));
#450=CARTESIAN_POINT('Ctrl Pts',(1.93649167310371,18.5,0.499999999999999));
#451=CARTESIAN_POINT('',(2.44948974278318,0.,0.499999999999996));
#452=CARTESIAN_POINT('Origin',(0.,18.5,0.));
#453=CARTESIAN_POINT('Origin',(0.,18.5,0.));
#454=CARTESIAN_POINT('Origin',(0.,18.25,0.));
#455=CARTESIAN_POINT('Origin',(0.,18.,0.));
#456=CARTESIAN_POINT('Origin',(0.,0.,0.));
#457=CARTESIAN_POINT('',(2.5,-12.7,-3.06161699786838E-16));
#458=CARTESIAN_POINT('',(2.5,0.,-3.06161699786838E-16));
#459=CARTESIAN_POINT('Origin',(0.,-12.7,0.));
#460=CARTESIAN_POINT('Origin',(0.,18.,0.));
#461=CARTESIAN_POINT('Origin',(0.,-21.45,0.));
#462=CARTESIAN_POINT('',(3.9,-21.5,-4.77612251667468E-16));
#463=CARTESIAN_POINT('Origin',(0.,-21.5,0.));
#464=CARTESIAN_POINT('',(4.,-21.4,4.89858719658941E-16));
#465=CARTESIAN_POINT('',(3.95,-21.45,4.83735485663205E-16));
#466=CARTESIAN_POINT('',(-4.,-21.4,-4.89858719658941E-16));
#467=CARTESIAN_POINT('Origin',(0.,-21.4,0.));
#468=CARTESIAN_POINT('Origin',(0.,-21.4,0.));
#469=CARTESIAN_POINT('Origin',(0.,-18.5,0.));
#470=CARTESIAN_POINT('',(-4.,-18.6,-4.89858719658941E-16));
#471=CARTESIAN_POINT('',(-4.,-18.5,-4.89858719658941E-16));
#472=CARTESIAN_POINT('',(4.,-18.6,-4.89858719658941E-16));
#473=CARTESIAN_POINT('Origin',(0.,-18.6,0.));
#474=CARTESIAN_POINT('Origin',(0.,-18.6,0.));
#475=CARTESIAN_POINT('Origin',(0.,-21.5,0.));
#476=CARTESIAN_POINT('Origin',(0.,-18.55,0.));
#477=CARTESIAN_POINT('',(3.9,-18.5,4.77612251667468E-16));
#478=CARTESIAN_POINT('',(3.95,-18.55,4.83735485663205E-16));
#479=CARTESIAN_POINT('Origin',(0.,-18.5,0.));
#480=CARTESIAN_POINT('Origin',(0.,-18.5,0.));
#481=CARTESIAN_POINT('',(2.5,-18.5,-3.06161699786838E-16));
#482=CARTESIAN_POINT('Origin',(0.,-18.5,0.));
#483=CARTESIAN_POINT('Origin',(-2.,-13.5,0.));
#484=CARTESIAN_POINT('',(2.5,-13.5,-3.06161699786838E-16));
#485=CARTESIAN_POINT('Origin',(0.,-13.5,0.));
#486=CARTESIAN_POINT('',(2.,-13.5,2.44929359829471E-16));
#487=CARTESIAN_POINT('Origin',(0.,-13.5,0.));
#488=CARTESIAN_POINT('Origin',(0.,-13.1,0.));
#489=CARTESIAN_POINT('',(2.,-12.7,2.44929359829471E-16));
#490=CARTESIAN_POINT('Origin',(0.,-12.7,0.));
#491=CARTESIAN_POINT('',(2.,-13.1,2.44929359829471E-16));
#492=CARTESIAN_POINT('Origin',(-2.5,-12.7,0.));
#493=CARTESIAN_POINT('Origin',(0.,18.25,0.));
#494=CARTESIAN_POINT('Origin',(0.,18.5,0.));
#495=CARTESIAN_POINT('Origin',(0.,0.,0.));
#496=CARTESIAN_POINT('',(2.5,0.,-3.06161699786838E-16));
#497=CARTESIAN_POINT('Origin',(0.,18.5,0.));
#498=UNCERTAINTY_MEASURE_WITH_UNIT(LENGTH_MEASURE(0.01),#502,
'DISTANCE_ACCURACY_VALUE',
'Maximum model space distance between geometric entities at asserted c
onnectivities');
#499=UNCERTAINTY_MEASURE_WITH_UNIT(LENGTH_MEASURE(0.01),#502,
'DISTANCE_ACCURACY_VALUE',
'Maximum model space distance between geometric entities at asserted c
onnectivities');
#500=(
GEOMETRIC_REPRESENTATION_CONTEXT(3)
GLOBAL_UNCERTAINTY_ASSIGNED_CONTEXT((#498))
GLOBAL_UNIT_ASSIGNED_CONTEXT((#502,#504,#505))
REPRESENTATION_CONTEXT('','3D')
);
#501=(
GEOMETRIC_REPRESENTATION_CONTEXT(3)
GLOBAL_UNCERTAINTY_ASSIGNED_CONTEXT((#499))
GLOBAL_UNIT_ASSIGNED_CONTEXT((#502,#504,#505))
REPRESENTATION_CONTEXT('','3D')
);
#502=(
LENGTH_UNIT()
NAMED_UNIT(*)
SI_UNIT(.MILLI.,.METRE.)
);
#503=(
LENGTH_UNIT()
NAMED_UNIT(*)
SI_UNIT(.CENTI.,.METRE.)
);
#504=(
NAMED_UNIT(*)
PLANE_ANGLE_UNIT()
SI_UNIT($,.RADIAN.)
);
#505=(
NAMED_UNIT(*)
SI_UNIT($,.STERADIAN.)
SOLID_ANGLE_UNIT()
);
#506=SHAPE_DEFINITION_REPRESENTATION(#507,#508);
#507=PRODUCT_DEFINITION_SHAPE('',$,#510);
#508=SHAPE_REPRESENTATION('',(#290),#500);
#509=PRODUCT_DEFINITION_CONTEXT('part definition',#514,'design');
#510=PRODUCT_DEFINITION('Wheel Handle','Wheel Handle',#511,#509);
#511=PRODUCT_DEFINITION_FORMATION('',$,#516);
#512=PRODUCT_RELATED_PRODUCT_CATEGORY('Wheel Handle','Wheel Handle',(#516));
#513=APPLICATION_PROTOCOL_DEFINITION('international standard',
'automotive_design',2009,#514);
#514=APPLICATION_CONTEXT(
'Core Data for Automotive Mechanical Design Process');
#515=PRODUCT_CONTEXT('part definition',#514,'mechanical');
#516=PRODUCT('Wheel Handle','Wheel Handle',$,(#515));
#517=PRESENTATION_STYLE_ASSIGNMENT((#518));
#518=SURFACE_STYLE_USAGE(.BOTH.,#521);
#519=SURFACE_STYLE_RENDERING_WITH_PROPERTIES($,#525,(#520));
#520=SURFACE_STYLE_TRANSPARENT(0.);
#521=SURFACE_SIDE_STYLE('',(#522,#519));
#522=SURFACE_STYLE_FILL_AREA(#523);
#523=FILL_AREA_STYLE('',(#524));
#524=FILL_AREA_STYLE_COLOUR('',#525);
#525=COLOUR_RGB('',0.411764705882353,0.301960784313725,0.231372549019608);
ENDSEC;
END-ISO-10303-21;
