ISO-10303-21;
HEADER;
/* Generated by software containing ST-Developer
 * from STEP Tools, Inc. (www.steptools.com) 
 */

FILE_DESCRIPTION(
/* description */ (''),
/* implementation_level */ '2;1');

FILE_NAME(
/* name */ 
'S:\\Future Scope 1\\WIP\\Client Category\\Tom\\02 Progressive Work\\W
heel.stp',
/* time_stamp */ '2025-11-05T12:14:36+06:00',
/* author */ ('SD'),
/* organization */ (''),
/* preprocessor_version */ 'ST-DEVELOPER v18.1',
/* originating_system */ 'Autodesk Inventor 2021',
/* authorisation */ '');

FILE_SCHEMA (('AUTOMOTIVE_DESIGN { 1 0 10303 214 3 1 1 }'));
ENDSEC;

DATA;
#10=MECHANICAL_DESIGN_GEOMETRIC_PRESENTATION_REPRESENTATION('',(#13),#2084);
#11=SHAPE_REPRESENTATION_RELATIONSHIP('SRR','None',#2091,#12);
#12=ADVANCED_BREP_SHAPE_REPRESENTATION('',(#14),#2083);
#13=STYLED_ITEM('',(#2100),#14);
#14=MANIFOLD_SOLID_BREP('Solid2',#1139);
#15=TOROIDAL_SURFACE('',#1276,40.75,0.5);
#16=TOROIDAL_SURFACE('',#1283,40.75,0.5);
#17=FACE_BOUND('',#154,.T.);
#18=FACE_BOUND('',#155,.T.);
#19=FACE_BOUND('',#156,.T.);
#20=FACE_BOUND('',#157,.T.);
#21=FACE_BOUND('',#158,.T.);
#22=FACE_BOUND('',#159,.T.);
#23=FACE_BOUND('',#160,.T.);
#24=FACE_BOUND('',#161,.T.);
#25=FACE_BOUND('',#162,.T.);
#26=FACE_BOUND('',#163,.T.);
#27=FACE_BOUND('',#166,.T.);
#28=FACE_BOUND('',#167,.T.);
#29=FACE_BOUND('',#168,.T.);
#30=FACE_BOUND('',#169,.T.);
#31=FACE_BOUND('',#170,.T.);
#32=FACE_BOUND('',#171,.T.);
#33=FACE_BOUND('',#172,.T.);
#34=FACE_BOUND('',#173,.T.);
#35=FACE_BOUND('',#174,.T.);
#36=FACE_BOUND('',#175,.T.);
#37=PLANE('',#1165);
#38=PLANE('',#1220);
#39=CYLINDRICAL_SURFACE('',#1162,2.5);
#40=CYLINDRICAL_SURFACE('',#1273,1.5);
#41=CYLINDRICAL_SURFACE('',#1274,1.2295);
#42=CYLINDRICAL_SURFACE('',#1275,1.2295);
#43=CYLINDRICAL_SURFACE('',#1280,41.25);
#44=CYLINDRICAL_SURFACE('',#1285,2.);
#45=CYLINDRICAL_SURFACE('',#1286,35.);
#46=CYLINDRICAL_SURFACE('',#1287,2.);
#47=CYLINDRICAL_SURFACE('',#1288,35.);
#48=CYLINDRICAL_SURFACE('',#1289,2.);
#49=CYLINDRICAL_SURFACE('',#1290,2.);
#50=CYLINDRICAL_SURFACE('',#1291,2.);
#51=CYLINDRICAL_SURFACE('',#1292,35.);
#52=CYLINDRICAL_SURFACE('',#1293,2.);
#53=CYLINDRICAL_SURFACE('',#1294,35.);
#54=CYLINDRICAL_SURFACE('',#1295,2.);
#55=CYLINDRICAL_SURFACE('',#1296,2.);
#56=CYLINDRICAL_SURFACE('',#1297,2.);
#57=CYLINDRICAL_SURFACE('',#1298,35.);
#58=CYLINDRICAL_SURFACE('',#1299,2.);
#59=CYLINDRICAL_SURFACE('',#1300,35.);
#60=CYLINDRICAL_SURFACE('',#1301,2.);
#61=CYLINDRICAL_SURFACE('',#1302,2.);
#62=CYLINDRICAL_SURFACE('',#1303,2.);
#63=CYLINDRICAL_SURFACE('',#1304,35.);
#64=CYLINDRICAL_SURFACE('',#1305,2.);
#65=CYLINDRICAL_SURFACE('',#1306,35.);
#66=CYLINDRICAL_SURFACE('',#1307,2.);
#67=CYLINDRICAL_SURFACE('',#1308,2.);
#68=CYLINDRICAL_SURFACE('',#1309,2.);
#69=CYLINDRICAL_SURFACE('',#1310,35.);
#70=CYLINDRICAL_SURFACE('',#1311,2.);
#71=CYLINDRICAL_SURFACE('',#1312,35.);
#72=CYLINDRICAL_SURFACE('',#1313,2.);
#73=CYLINDRICAL_SURFACE('',#1314,2.);
#74=CYLINDRICAL_SURFACE('',#1315,12.67);
#75=CYLINDRICAL_SURFACE('',#1316,12.67);
#76=CYLINDRICAL_SURFACE('',#1317,12.67);
#77=CYLINDRICAL_SURFACE('',#1318,12.67);
#78=CYLINDRICAL_SURFACE('',#1319,12.67);
#79=CYLINDRICAL_SURFACE('',#1320,12.67);
#80=CYLINDRICAL_SURFACE('',#1321,35.);
#81=CYLINDRICAL_SURFACE('',#1322,35.);
#82=CYLINDRICAL_SURFACE('',#1323,35.);
#83=CYLINDRICAL_SURFACE('',#1324,35.);
#84=CYLINDRICAL_SURFACE('',#1325,35.);
#85=CYLINDRICAL_SURFACE('',#1326,35.);
#86=CYLINDRICAL_SURFACE('',#1327,2.);
#87=CYLINDRICAL_SURFACE('',#1328,35.);
#88=CYLINDRICAL_SURFACE('',#1329,2.);
#89=CYLINDRICAL_SURFACE('',#1330,35.);
#90=CYLINDRICAL_SURFACE('',#1331,2.);
#91=CYLINDRICAL_SURFACE('',#1332,2.);
#92=FACE_OUTER_BOUND('',#151,.T.);
#93=FACE_OUTER_BOUND('',#152,.T.);
#94=FACE_OUTER_BOUND('',#153,.T.);
#95=FACE_OUTER_BOUND('',#164,.T.);
#96=FACE_OUTER_BOUND('',#165,.T.);
#97=FACE_OUTER_BOUND('',#176,.T.);
#98=FACE_OUTER_BOUND('',#177,.T.);
#99=FACE_OUTER_BOUND('',#178,.T.);
#100=FACE_OUTER_BOUND('',#179,.T.);
#101=FACE_OUTER_BOUND('',#180,.T.);
#102=FACE_OUTER_BOUND('',#181,.T.);
#103=FACE_OUTER_BOUND('',#182,.T.);
#104=FACE_OUTER_BOUND('',#183,.T.);
#105=FACE_OUTER_BOUND('',#184,.T.);
#106=FACE_OUTER_BOUND('',#185,.T.);
#107=FACE_OUTER_BOUND('',#186,.T.);
#108=FACE_OUTER_BOUND('',#187,.T.);
#109=FACE_OUTER_BOUND('',#188,.T.);
#110=FACE_OUTER_BOUND('',#189,.T.);
#111=FACE_OUTER_BOUND('',#190,.T.);
#112=FACE_OUTER_BOUND('',#191,.T.);
#113=FACE_OUTER_BOUND('',#192,.T.);
#114=FACE_OUTER_BOUND('',#193,.T.);
#115=FACE_OUTER_BOUND('',#194,.T.);
#116=FACE_OUTER_BOUND('',#195,.T.);
#117=FACE_OUTER_BOUND('',#196,.T.);
#118=FACE_OUTER_BOUND('',#197,.T.);
#119=FACE_OUTER_BOUND('',#198,.T.);
#120=FACE_OUTER_BOUND('',#199,.T.);
#121=FACE_OUTER_BOUND('',#200,.T.);
#122=FACE_OUTER_BOUND('',#201,.T.);
#123=FACE_OUTER_BOUND('',#202,.T.);
#124=FACE_OUTER_BOUND('',#203,.T.);
#125=FACE_OUTER_BOUND('',#204,.T.);
#126=FACE_OUTER_BOUND('',#205,.T.);
#127=FACE_OUTER_BOUND('',#206,.T.);
#128=FACE_OUTER_BOUND('',#207,.T.);
#129=FACE_OUTER_BOUND('',#208,.T.);
#130=FACE_OUTER_BOUND('',#209,.T.);
#131=FACE_OUTER_BOUND('',#210,.T.);
#132=FACE_OUTER_BOUND('',#211,.T.);
#133=FACE_OUTER_BOUND('',#212,.T.);
#134=FACE_OUTER_BOUND('',#213,.T.);
#135=FACE_OUTER_BOUND('',#214,.T.);
#136=FACE_OUTER_BOUND('',#215,.T.);
#137=FACE_OUTER_BOUND('',#216,.T.);
#138=FACE_OUTER_BOUND('',#217,.T.);
#139=FACE_OUTER_BOUND('',#218,.T.);
#140=FACE_OUTER_BOUND('',#219,.T.);
#141=FACE_OUTER_BOUND('',#220,.T.);
#142=FACE_OUTER_BOUND('',#221,.T.);
#143=FACE_OUTER_BOUND('',#222,.T.);
#144=FACE_OUTER_BOUND('',#223,.T.);
#145=FACE_OUTER_BOUND('',#224,.T.);
#146=FACE_OUTER_BOUND('',#225,.T.);
#147=FACE_OUTER_BOUND('',#226,.T.);
#148=FACE_OUTER_BOUND('',#227,.T.);
#149=FACE_OUTER_BOUND('',#228,.T.);
#150=FACE_OUTER_BOUND('',#229,.T.);
#151=EDGE_LOOP('',(#738,#739,#740,#741));
#152=EDGE_LOOP('',(#742,#743,#744,#745,#746));
#153=EDGE_LOOP('',(#747));
#154=EDGE_LOOP('',(#748,#749,#750,#751,#752,#753,#754,#755));
#155=EDGE_LOOP('',(#756,#757,#758,#759,#760,#761,#762,#763));
#156=EDGE_LOOP('',(#764,#765,#766,#767,#768,#769,#770,#771));
#157=EDGE_LOOP('',(#772,#773,#774,#775,#776,#777,#778,#779));
#158=EDGE_LOOP('',(#780,#781,#782,#783,#784,#785,#786,#787));
#159=EDGE_LOOP('',(#788,#789,#790,#791,#792,#793,#794,#795));
#160=EDGE_LOOP('',(#796));
#161=EDGE_LOOP('',(#797));
#162=EDGE_LOOP('',(#798));
#163=EDGE_LOOP('',(#799));
#164=EDGE_LOOP('',(#800,#801,#802,#803,#804));
#165=EDGE_LOOP('',(#805));
#166=EDGE_LOOP('',(#806,#807,#808,#809,#810,#811,#812,#813));
#167=EDGE_LOOP('',(#814,#815,#816,#817,#818,#819,#820,#821));
#168=EDGE_LOOP('',(#822,#823,#824,#825,#826,#827,#828,#829));
#169=EDGE_LOOP('',(#830,#831,#832,#833,#834,#835,#836,#837));
#170=EDGE_LOOP('',(#838,#839,#840,#841,#842,#843,#844,#845));
#171=EDGE_LOOP('',(#846,#847,#848,#849,#850,#851,#852,#853));
#172=EDGE_LOOP('',(#854));
#173=EDGE_LOOP('',(#855));
#174=EDGE_LOOP('',(#856));
#175=EDGE_LOOP('',(#857));
#176=EDGE_LOOP('',(#858,#859,#860,#861));
#177=EDGE_LOOP('',(#862,#863,#864,#865));
#178=EDGE_LOOP('',(#866,#867,#868,#869));
#179=EDGE_LOOP('',(#870,#871,#872,#873,#874));
#180=EDGE_LOOP('',(#875,#876,#877,#878,#879,#880));
#181=EDGE_LOOP('',(#881,#882,#883,#884,#885));
#182=EDGE_LOOP('',(#886,#887,#888,#889));
#183=EDGE_LOOP('',(#890,#891,#892,#893));
#184=EDGE_LOOP('',(#894,#895,#896,#897));
#185=EDGE_LOOP('',(#898,#899,#900,#901));
#186=EDGE_LOOP('',(#902,#903,#904,#905));
#187=EDGE_LOOP('',(#906,#907,#908,#909));
#188=EDGE_LOOP('',(#910,#911,#912,#913));
#189=EDGE_LOOP('',(#914,#915,#916,#917));
#190=EDGE_LOOP('',(#918,#919,#920,#921));
#191=EDGE_LOOP('',(#922,#923,#924,#925));
#192=EDGE_LOOP('',(#926,#927,#928,#929));
#193=EDGE_LOOP('',(#930,#931,#932,#933));
#194=EDGE_LOOP('',(#934,#935,#936,#937));
#195=EDGE_LOOP('',(#938,#939,#940,#941));
#196=EDGE_LOOP('',(#942,#943,#944,#945));
#197=EDGE_LOOP('',(#946,#947,#948,#949));
#198=EDGE_LOOP('',(#950,#951,#952,#953));
#199=EDGE_LOOP('',(#954,#955,#956,#957));
#200=EDGE_LOOP('',(#958,#959,#960,#961));
#201=EDGE_LOOP('',(#962,#963,#964,#965));
#202=EDGE_LOOP('',(#966,#967,#968,#969));
#203=EDGE_LOOP('',(#970,#971,#972,#973));
#204=EDGE_LOOP('',(#974,#975,#976,#977));
#205=EDGE_LOOP('',(#978,#979,#980,#981));
#206=EDGE_LOOP('',(#982,#983,#984,#985));
#207=EDGE_LOOP('',(#986,#987,#988,#989));
#208=EDGE_LOOP('',(#990,#991,#992,#993));
#209=EDGE_LOOP('',(#994,#995,#996,#997));
#210=EDGE_LOOP('',(#998,#999,#1000,#1001));
#211=EDGE_LOOP('',(#1002,#1003,#1004,#1005));
#212=EDGE_LOOP('',(#1006,#1007,#1008,#1009));
#213=EDGE_LOOP('',(#1010,#1011,#1012,#1013));
#214=EDGE_LOOP('',(#1014,#1015,#1016,#1017));
#215=EDGE_LOOP('',(#1018,#1019,#1020,#1021));
#216=EDGE_LOOP('',(#1022,#1023,#1024,#1025));
#217=EDGE_LOOP('',(#1026,#1027,#1028,#1029));
#218=EDGE_LOOP('',(#1030,#1031,#1032,#1033));
#219=EDGE_LOOP('',(#1034,#1035,#1036,#1037));
#220=EDGE_LOOP('',(#1038,#1039,#1040,#1041));
#221=EDGE_LOOP('',(#1042,#1043,#1044,#1045));
#222=EDGE_LOOP('',(#1046,#1047,#1048,#1049));
#223=EDGE_LOOP('',(#1050,#1051,#1052,#1053));
#224=EDGE_LOOP('',(#1054,#1055,#1056,#1057));
#225=EDGE_LOOP('',(#1058,#1059,#1060,#1061));
#226=EDGE_LOOP('',(#1062,#1063,#1064,#1065));
#227=EDGE_LOOP('',(#1066,#1067,#1068,#1069));
#228=EDGE_LOOP('',(#1070,#1071,#1072,#1073));
#229=EDGE_LOOP('',(#1074,#1075,#1076,#1077));
#230=LINE('',#1743,#285);
#231=LINE('',#1750,#286);
#232=LINE('',#1859,#287);
#233=LINE('',#1966,#288);
#234=LINE('',#1968,#289);
#235=LINE('',#1970,#290);
#236=LINE('',#1982,#291);
#237=LINE('',#1986,#292);
#238=LINE('',#1987,#293);
#239=LINE('',#1989,#294);
#240=LINE('',#1991,#295);
#241=LINE('',#1992,#296);
#242=LINE('',#1994,#297);
#243=LINE('',#1996,#298);
#244=LINE('',#1998,#299);
#245=LINE('',#2000,#300);
#246=LINE('',#2001,#301);
#247=LINE('',#2003,#302);
#248=LINE('',#2005,#303);
#249=LINE('',#2006,#304);
#250=LINE('',#2008,#305);
#251=LINE('',#2010,#306);
#252=LINE('',#2012,#307);
#253=LINE('',#2014,#308);
#254=LINE('',#2015,#309);
#255=LINE('',#2017,#310);
#256=LINE('',#2019,#311);
#257=LINE('',#2020,#312);
#258=LINE('',#2022,#313);
#259=LINE('',#2024,#314);
#260=LINE('',#2026,#315);
#261=LINE('',#2028,#316);
#262=LINE('',#2029,#317);
#263=LINE('',#2031,#318);
#264=LINE('',#2033,#319);
#265=LINE('',#2034,#320);
#266=LINE('',#2036,#321);
#267=LINE('',#2038,#322);
#268=LINE('',#2040,#323);
#269=LINE('',#2042,#324);
#270=LINE('',#2043,#325);
#271=LINE('',#2045,#326);
#272=LINE('',#2047,#327);
#273=LINE('',#2048,#328);
#274=LINE('',#2050,#329);
#275=LINE('',#2052,#330);
#276=LINE('',#2054,#331);
#277=LINE('',#2056,#332);
#278=LINE('',#2061,#333);
#279=LINE('',#2064,#334);
#280=LINE('',#2070,#335);
#281=LINE('',#2072,#336);
#282=LINE('',#2074,#337);
#283=LINE('',#2076,#338);
#284=LINE('',#2078,#339);
#285=VECTOR('',#1339,2.55);
#286=VECTOR('',#1348,2.5);
#287=VECTOR('',#1459,2.55);
#288=VECTOR('',#1568,1.5);
#289=VECTOR('',#1571,1.2295);
#290=VECTOR('',#1574,1.2295);
#291=VECTOR('',#1589,41.25);
#292=VECTOR('',#1596,10.);
#293=VECTOR('',#1597,10.);
#294=VECTOR('',#1600,10.);
#295=VECTOR('',#1603,10.);
#296=VECTOR('',#1604,10.);
#297=VECTOR('',#1607,10.);
#298=VECTOR('',#1610,10.);
#299=VECTOR('',#1613,10.);
#300=VECTOR('',#1616,10.);
#301=VECTOR('',#1617,10.);
#302=VECTOR('',#1620,10.);
#303=VECTOR('',#1623,10.);
#304=VECTOR('',#1624,10.);
#305=VECTOR('',#1627,10.);
#306=VECTOR('',#1630,10.);
#307=VECTOR('',#1633,10.);
#308=VECTOR('',#1636,10.);
#309=VECTOR('',#1637,10.);
#310=VECTOR('',#1640,10.);
#311=VECTOR('',#1643,10.);
#312=VECTOR('',#1644,10.);
#313=VECTOR('',#1647,10.);
#314=VECTOR('',#1650,10.);
#315=VECTOR('',#1653,10.);
#316=VECTOR('',#1656,10.);
#317=VECTOR('',#1657,10.);
#318=VECTOR('',#1660,10.);
#319=VECTOR('',#1663,10.);
#320=VECTOR('',#1664,10.);
#321=VECTOR('',#1667,10.);
#322=VECTOR('',#1670,10.);
#323=VECTOR('',#1673,10.);
#324=VECTOR('',#1676,10.);
#325=VECTOR('',#1677,10.);
#326=VECTOR('',#1680,10.);
#327=VECTOR('',#1683,10.);
#328=VECTOR('',#1684,10.);
#329=VECTOR('',#1687,10.);
#330=VECTOR('',#1690,10.);
#331=VECTOR('',#1693,10.);
#332=VECTOR('',#1696,10.);
#333=VECTOR('',#1705,10.);
#334=VECTOR('',#1710,10.);
#335=VECTOR('',#1721,10.);
#336=VECTOR('',#1724,10.);
#337=VECTOR('',#1727,10.);
#338=VECTOR('',#1730,10.);
#339=VECTOR('',#1733,10.);
#340=CIRCLE('',#1160,2.6);
#341=CIRCLE('',#1161,2.5);
#342=CIRCLE('',#1163,2.5);
#343=CIRCLE('',#1164,2.5);
#344=CIRCLE('',#1166,40.75);
#345=CIRCLE('',#1167,12.67);
#346=CIRCLE('',#1168,2.);
#347=CIRCLE('',#1169,35.);
#348=CIRCLE('',#1170,2.);
#349=CIRCLE('',#1171,35.);
#350=CIRCLE('',#1172,2.);
#351=CIRCLE('',#1173,35.);
#352=CIRCLE('',#1174,2.);
#353=CIRCLE('',#1175,12.67);
#354=CIRCLE('',#1176,2.);
#355=CIRCLE('',#1177,35.);
#356=CIRCLE('',#1178,2.);
#357=CIRCLE('',#1179,35.);
#358=CIRCLE('',#1180,2.);
#359=CIRCLE('',#1181,35.);
#360=CIRCLE('',#1182,2.);
#361=CIRCLE('',#1183,12.67);
#362=CIRCLE('',#1184,2.);
#363=CIRCLE('',#1185,35.);
#364=CIRCLE('',#1186,2.);
#365=CIRCLE('',#1187,35.);
#366=CIRCLE('',#1188,2.);
#367=CIRCLE('',#1189,35.);
#368=CIRCLE('',#1190,2.);
#369=CIRCLE('',#1191,12.67);
#370=CIRCLE('',#1192,2.);
#371=CIRCLE('',#1193,35.);
#372=CIRCLE('',#1194,2.);
#373=CIRCLE('',#1195,35.);
#374=CIRCLE('',#1196,2.);
#375=CIRCLE('',#1197,35.);
#376=CIRCLE('',#1198,2.);
#377=CIRCLE('',#1199,12.67);
#378=CIRCLE('',#1200,2.);
#379=CIRCLE('',#1201,35.);
#380=CIRCLE('',#1202,2.);
#381=CIRCLE('',#1203,35.);
#382=CIRCLE('',#1204,2.);
#383=CIRCLE('',#1205,35.);
#384=CIRCLE('',#1206,2.);
#385=CIRCLE('',#1207,35.);
#386=CIRCLE('',#1208,2.);
#387=CIRCLE('',#1209,35.);
#388=CIRCLE('',#1210,2.);
#389=CIRCLE('',#1211,35.);
#390=CIRCLE('',#1212,2.);
#391=CIRCLE('',#1213,12.67);
#392=CIRCLE('',#1214,2.);
#393=CIRCLE('',#1215,1.2295);
#394=CIRCLE('',#1216,1.2295);
#395=CIRCLE('',#1217,1.5);
#396=CIRCLE('',#1219,2.6);
#397=CIRCLE('',#1221,40.75);
#398=CIRCLE('',#1222,12.67);
#399=CIRCLE('',#1223,2.);
#400=CIRCLE('',#1224,35.);
#401=CIRCLE('',#1225,2.);
#402=CIRCLE('',#1226,35.);
#403=CIRCLE('',#1227,2.);
#404=CIRCLE('',#1228,35.);
#405=CIRCLE('',#1229,2.);
#406=CIRCLE('',#1230,35.);
#407=CIRCLE('',#1231,2.);
#408=CIRCLE('',#1232,35.);
#409=CIRCLE('',#1233,2.);
#410=CIRCLE('',#1234,35.);
#411=CIRCLE('',#1235,2.);
#412=CIRCLE('',#1236,12.67);
#413=CIRCLE('',#1237,2.);
#414=CIRCLE('',#1238,35.);
#415=CIRCLE('',#1239,2.);
#416=CIRCLE('',#1240,35.);
#417=CIRCLE('',#1241,2.);
#418=CIRCLE('',#1242,35.);
#419=CIRCLE('',#1243,2.);
#420=CIRCLE('',#1244,12.67);
#421=CIRCLE('',#1245,2.);
#422=CIRCLE('',#1246,35.);
#423=CIRCLE('',#1247,2.);
#424=CIRCLE('',#1248,35.);
#425=CIRCLE('',#1249,2.);
#426=CIRCLE('',#1250,35.);
#427=CIRCLE('',#1251,2.);
#428=CIRCLE('',#1252,12.67);
#429=CIRCLE('',#1253,2.);
#430=CIRCLE('',#1254,35.);
#431=CIRCLE('',#1255,2.);
#432=CIRCLE('',#1256,35.);
#433=CIRCLE('',#1257,2.);
#434=CIRCLE('',#1258,35.);
#435=CIRCLE('',#1259,2.);
#436=CIRCLE('',#1260,12.67);
#437=CIRCLE('',#1261,2.);
#438=CIRCLE('',#1262,35.);
#439=CIRCLE('',#1263,2.);
#440=CIRCLE('',#1264,35.);
#441=CIRCLE('',#1265,2.);
#442=CIRCLE('',#1266,35.);
#443=CIRCLE('',#1267,2.);
#444=CIRCLE('',#1268,12.67);
#445=CIRCLE('',#1269,2.);
#446=CIRCLE('',#1270,1.2295);
#447=CIRCLE('',#1271,1.2295);
#448=CIRCLE('',#1272,1.5);
#449=CIRCLE('',#1277,0.5);
#450=CIRCLE('',#1278,41.25);
#451=CIRCLE('',#1279,41.25);
#452=CIRCLE('',#1281,41.25);
#453=CIRCLE('',#1282,41.25);
#454=CIRCLE('',#1284,0.5);
#455=VERTEX_POINT('',#1740);
#456=VERTEX_POINT('',#1742);
#457=VERTEX_POINT('',#1746);
#458=VERTEX_POINT('',#1747);
#459=VERTEX_POINT('',#1752);
#460=VERTEX_POINT('',#1754);
#461=VERTEX_POINT('',#1755);
#462=VERTEX_POINT('',#1757);
#463=VERTEX_POINT('',#1759);
#464=VERTEX_POINT('',#1761);
#465=VERTEX_POINT('',#1763);
#466=VERTEX_POINT('',#1765);
#467=VERTEX_POINT('',#1767);
#468=VERTEX_POINT('',#1770);
#469=VERTEX_POINT('',#1771);
#470=VERTEX_POINT('',#1773);
#471=VERTEX_POINT('',#1775);
#472=VERTEX_POINT('',#1777);
#473=VERTEX_POINT('',#1779);
#474=VERTEX_POINT('',#1781);
#475=VERTEX_POINT('',#1783);
#476=VERTEX_POINT('',#1786);
#477=VERTEX_POINT('',#1787);
#478=VERTEX_POINT('',#1789);
#479=VERTEX_POINT('',#1791);
#480=VERTEX_POINT('',#1793);
#481=VERTEX_POINT('',#1795);
#482=VERTEX_POINT('',#1797);
#483=VERTEX_POINT('',#1799);
#484=VERTEX_POINT('',#1802);
#485=VERTEX_POINT('',#1803);
#486=VERTEX_POINT('',#1805);
#487=VERTEX_POINT('',#1807);
#488=VERTEX_POINT('',#1809);
#489=VERTEX_POINT('',#1811);
#490=VERTEX_POINT('',#1813);
#491=VERTEX_POINT('',#1815);
#492=VERTEX_POINT('',#1818);
#493=VERTEX_POINT('',#1819);
#494=VERTEX_POINT('',#1821);
#495=VERTEX_POINT('',#1823);
#496=VERTEX_POINT('',#1825);
#497=VERTEX_POINT('',#1827);
#498=VERTEX_POINT('',#1829);
#499=VERTEX_POINT('',#1831);
#500=VERTEX_POINT('',#1834);
#501=VERTEX_POINT('',#1835);
#502=VERTEX_POINT('',#1837);
#503=VERTEX_POINT('',#1839);
#504=VERTEX_POINT('',#1841);
#505=VERTEX_POINT('',#1843);
#506=VERTEX_POINT('',#1845);
#507=VERTEX_POINT('',#1847);
#508=VERTEX_POINT('',#1850);
#509=VERTEX_POINT('',#1852);
#510=VERTEX_POINT('',#1854);
#511=VERTEX_POINT('',#1857);
#512=VERTEX_POINT('',#1861);
#513=VERTEX_POINT('',#1863);
#514=VERTEX_POINT('',#1864);
#515=VERTEX_POINT('',#1866);
#516=VERTEX_POINT('',#1868);
#517=VERTEX_POINT('',#1870);
#518=VERTEX_POINT('',#1872);
#519=VERTEX_POINT('',#1874);
#520=VERTEX_POINT('',#1876);
#521=VERTEX_POINT('',#1879);
#522=VERTEX_POINT('',#1880);
#523=VERTEX_POINT('',#1882);
#524=VERTEX_POINT('',#1884);
#525=VERTEX_POINT('',#1886);
#526=VERTEX_POINT('',#1888);
#527=VERTEX_POINT('',#1890);
#528=VERTEX_POINT('',#1892);
#529=VERTEX_POINT('',#1895);
#530=VERTEX_POINT('',#1896);
#531=VERTEX_POINT('',#1898);
#532=VERTEX_POINT('',#1900);
#533=VERTEX_POINT('',#1902);
#534=VERTEX_POINT('',#1904);
#535=VERTEX_POINT('',#1906);
#536=VERTEX_POINT('',#1908);
#537=VERTEX_POINT('',#1911);
#538=VERTEX_POINT('',#1912);
#539=VERTEX_POINT('',#1914);
#540=VERTEX_POINT('',#1916);
#541=VERTEX_POINT('',#1918);
#542=VERTEX_POINT('',#1920);
#543=VERTEX_POINT('',#1922);
#544=VERTEX_POINT('',#1924);
#545=VERTEX_POINT('',#1927);
#546=VERTEX_POINT('',#1928);
#547=VERTEX_POINT('',#1930);
#548=VERTEX_POINT('',#1932);
#549=VERTEX_POINT('',#1934);
#550=VERTEX_POINT('',#1936);
#551=VERTEX_POINT('',#1938);
#552=VERTEX_POINT('',#1940);
#553=VERTEX_POINT('',#1943);
#554=VERTEX_POINT('',#1944);
#555=VERTEX_POINT('',#1946);
#556=VERTEX_POINT('',#1948);
#557=VERTEX_POINT('',#1950);
#558=VERTEX_POINT('',#1952);
#559=VERTEX_POINT('',#1954);
#560=VERTEX_POINT('',#1956);
#561=VERTEX_POINT('',#1959);
#562=VERTEX_POINT('',#1961);
#563=VERTEX_POINT('',#1963);
#564=VERTEX_POINT('',#1972);
#565=VERTEX_POINT('',#1974);
#566=VERTEX_POINT('',#1978);
#567=VERTEX_POINT('',#1979);
#568=EDGE_CURVE('',#455,#455,#340,.T.);
#569=EDGE_CURVE('',#455,#456,#230,.T.);
#570=EDGE_CURVE('',#456,#456,#341,.T.);
#571=EDGE_CURVE('',#457,#458,#342,.T.);
#572=EDGE_CURVE('',#458,#457,#343,.T.);
#573=EDGE_CURVE('',#458,#456,#231,.T.);
#574=EDGE_CURVE('',#459,#459,#344,.T.);
#575=EDGE_CURVE('',#460,#461,#345,.T.);
#576=EDGE_CURVE('',#462,#461,#346,.T.);
#577=EDGE_CURVE('',#462,#463,#347,.T.);
#578=EDGE_CURVE('',#464,#463,#348,.T.);
#579=EDGE_CURVE('',#464,#465,#349,.T.);
#580=EDGE_CURVE('',#466,#465,#350,.T.);
#581=EDGE_CURVE('',#466,#467,#351,.T.);
#582=EDGE_CURVE('',#460,#467,#352,.T.);
#583=EDGE_CURVE('',#468,#469,#353,.T.);
#584=EDGE_CURVE('',#470,#469,#354,.T.);
#585=EDGE_CURVE('',#470,#471,#355,.T.);
#586=EDGE_CURVE('',#472,#471,#356,.T.);
#587=EDGE_CURVE('',#472,#473,#357,.T.);
#588=EDGE_CURVE('',#474,#473,#358,.T.);
#589=EDGE_CURVE('',#474,#475,#359,.T.);
#590=EDGE_CURVE('',#468,#475,#360,.T.);
#591=EDGE_CURVE('',#476,#477,#361,.T.);
#592=EDGE_CURVE('',#478,#477,#362,.T.);
#593=EDGE_CURVE('',#478,#479,#363,.T.);
#594=EDGE_CURVE('',#480,#479,#364,.T.);
#595=EDGE_CURVE('',#480,#481,#365,.T.);
#596=EDGE_CURVE('',#482,#481,#366,.T.);
#597=EDGE_CURVE('',#482,#483,#367,.T.);
#598=EDGE_CURVE('',#476,#483,#368,.T.);
#599=EDGE_CURVE('',#484,#485,#369,.T.);
#600=EDGE_CURVE('',#486,#485,#370,.T.);
#601=EDGE_CURVE('',#486,#487,#371,.T.);
#602=EDGE_CURVE('',#488,#487,#372,.T.);
#603=EDGE_CURVE('',#488,#489,#373,.T.);
#604=EDGE_CURVE('',#490,#489,#374,.T.);
#605=EDGE_CURVE('',#490,#491,#375,.T.);
#606=EDGE_CURVE('',#484,#491,#376,.T.);
#607=EDGE_CURVE('',#492,#493,#377,.T.);
#608=EDGE_CURVE('',#494,#493,#378,.T.);
#609=EDGE_CURVE('',#494,#495,#379,.T.);
#610=EDGE_CURVE('',#496,#495,#380,.T.);
#611=EDGE_CURVE('',#496,#497,#381,.T.);
#612=EDGE_CURVE('',#498,#497,#382,.T.);
#613=EDGE_CURVE('',#498,#499,#383,.T.);
#614=EDGE_CURVE('',#492,#499,#384,.T.);
#615=EDGE_CURVE('',#500,#501,#385,.T.);
#616=EDGE_CURVE('',#502,#501,#386,.T.);
#617=EDGE_CURVE('',#502,#503,#387,.T.);
#618=EDGE_CURVE('',#504,#503,#388,.T.);
#619=EDGE_CURVE('',#504,#505,#389,.T.);
#620=EDGE_CURVE('',#506,#505,#390,.T.);
#621=EDGE_CURVE('',#506,#507,#391,.T.);
#622=EDGE_CURVE('',#500,#507,#392,.T.);
#623=EDGE_CURVE('',#508,#508,#393,.T.);
#624=EDGE_CURVE('',#509,#509,#394,.T.);
#625=EDGE_CURVE('',#510,#510,#395,.T.);
#626=EDGE_CURVE('',#511,#511,#396,.T.);
#627=EDGE_CURVE('',#511,#457,#232,.T.);
#628=EDGE_CURVE('',#512,#512,#397,.T.);
#629=EDGE_CURVE('',#513,#514,#398,.T.);
#630=EDGE_CURVE('',#515,#514,#399,.T.);
#631=EDGE_CURVE('',#515,#516,#400,.T.);
#632=EDGE_CURVE('',#517,#516,#401,.T.);
#633=EDGE_CURVE('',#517,#518,#402,.T.);
#634=EDGE_CURVE('',#519,#518,#403,.T.);
#635=EDGE_CURVE('',#519,#520,#404,.T.);
#636=EDGE_CURVE('',#513,#520,#405,.T.);
#637=EDGE_CURVE('',#521,#522,#406,.T.);
#638=EDGE_CURVE('',#523,#522,#407,.T.);
#639=EDGE_CURVE('',#523,#524,#408,.T.);
#640=EDGE_CURVE('',#525,#524,#409,.T.);
#641=EDGE_CURVE('',#525,#526,#410,.T.);
#642=EDGE_CURVE('',#527,#526,#411,.T.);
#643=EDGE_CURVE('',#527,#528,#412,.T.);
#644=EDGE_CURVE('',#521,#528,#413,.T.);
#645=EDGE_CURVE('',#529,#530,#414,.T.);
#646=EDGE_CURVE('',#531,#530,#415,.T.);
#647=EDGE_CURVE('',#531,#532,#416,.T.);
#648=EDGE_CURVE('',#533,#532,#417,.T.);
#649=EDGE_CURVE('',#533,#534,#418,.T.);
#650=EDGE_CURVE('',#535,#534,#419,.T.);
#651=EDGE_CURVE('',#535,#536,#420,.T.);
#652=EDGE_CURVE('',#529,#536,#421,.T.);
#653=EDGE_CURVE('',#537,#538,#422,.T.);
#654=EDGE_CURVE('',#539,#538,#423,.T.);
#655=EDGE_CURVE('',#539,#540,#424,.T.);
#656=EDGE_CURVE('',#541,#540,#425,.T.);
#657=EDGE_CURVE('',#541,#542,#426,.T.);
#658=EDGE_CURVE('',#543,#542,#427,.T.);
#659=EDGE_CURVE('',#543,#544,#428,.T.);
#660=EDGE_CURVE('',#537,#544,#429,.T.);
#661=EDGE_CURVE('',#545,#546,#430,.T.);
#662=EDGE_CURVE('',#547,#546,#431,.T.);
#663=EDGE_CURVE('',#547,#548,#432,.T.);
#664=EDGE_CURVE('',#549,#548,#433,.T.);
#665=EDGE_CURVE('',#549,#550,#434,.T.);
#666=EDGE_CURVE('',#551,#550,#435,.T.);
#667=EDGE_CURVE('',#551,#552,#436,.T.);
#668=EDGE_CURVE('',#545,#552,#437,.T.);
#669=EDGE_CURVE('',#553,#554,#438,.T.);
#670=EDGE_CURVE('',#555,#554,#439,.T.);
#671=EDGE_CURVE('',#555,#556,#440,.T.);
#672=EDGE_CURVE('',#557,#556,#441,.T.);
#673=EDGE_CURVE('',#557,#558,#442,.T.);
#674=EDGE_CURVE('',#559,#558,#443,.T.);
#675=EDGE_CURVE('',#559,#560,#444,.T.);
#676=EDGE_CURVE('',#553,#560,#445,.T.);
#677=EDGE_CURVE('',#561,#561,#446,.T.);
#678=EDGE_CURVE('',#562,#562,#447,.T.);
#679=EDGE_CURVE('',#563,#563,#448,.T.);
#680=EDGE_CURVE('',#563,#510,#233,.T.);
#681=EDGE_CURVE('',#562,#509,#234,.T.);
#682=EDGE_CURVE('',#561,#508,#235,.T.);
#683=EDGE_CURVE('',#459,#564,#449,.T.);
#684=EDGE_CURVE('',#564,#565,#450,.T.);
#685=EDGE_CURVE('',#565,#564,#451,.T.);
#686=EDGE_CURVE('',#566,#567,#452,.T.);
#687=EDGE_CURVE('',#567,#566,#453,.T.);
#688=EDGE_CURVE('',#567,#565,#236,.T.);
#689=EDGE_CURVE('',#512,#566,#454,.T.);
#690=EDGE_CURVE('',#467,#521,#237,.T.);
#691=EDGE_CURVE('',#528,#460,#238,.T.);
#692=EDGE_CURVE('',#522,#466,#239,.T.);
#693=EDGE_CURVE('',#520,#500,#240,.T.);
#694=EDGE_CURVE('',#507,#513,#241,.T.);
#695=EDGE_CURVE('',#501,#519,#242,.T.);
#696=EDGE_CURVE('',#465,#523,#243,.T.);
#697=EDGE_CURVE('',#518,#502,#244,.T.);
#698=EDGE_CURVE('',#475,#529,#245,.T.);
#699=EDGE_CURVE('',#536,#468,#246,.T.);
#700=EDGE_CURVE('',#530,#474,#247,.T.);
#701=EDGE_CURVE('',#526,#462,#248,.T.);
#702=EDGE_CURVE('',#461,#527,#249,.T.);
#703=EDGE_CURVE('',#463,#525,#250,.T.);
#704=EDGE_CURVE('',#473,#531,#251,.T.);
#705=EDGE_CURVE('',#524,#464,#252,.T.);
#706=EDGE_CURVE('',#483,#537,#253,.T.);
#707=EDGE_CURVE('',#544,#476,#254,.T.);
#708=EDGE_CURVE('',#538,#482,#255,.T.);
#709=EDGE_CURVE('',#534,#470,#256,.T.);
#710=EDGE_CURVE('',#469,#535,#257,.T.);
#711=EDGE_CURVE('',#471,#533,#258,.T.);
#712=EDGE_CURVE('',#481,#539,#259,.T.);
#713=EDGE_CURVE('',#532,#472,#260,.T.);
#714=EDGE_CURVE('',#491,#545,#261,.T.);
#715=EDGE_CURVE('',#552,#484,#262,.T.);
#716=EDGE_CURVE('',#546,#490,#263,.T.);
#717=EDGE_CURVE('',#542,#478,#264,.T.);
#718=EDGE_CURVE('',#477,#543,#265,.T.);
#719=EDGE_CURVE('',#479,#541,#266,.T.);
#720=EDGE_CURVE('',#489,#547,#267,.T.);
#721=EDGE_CURVE('',#540,#480,#268,.T.);
#722=EDGE_CURVE('',#499,#553,#269,.T.);
#723=EDGE_CURVE('',#560,#492,#270,.T.);
#724=EDGE_CURVE('',#554,#498,#271,.T.);
#725=EDGE_CURVE('',#550,#486,#272,.T.);
#726=EDGE_CURVE('',#485,#551,#273,.T.);
#727=EDGE_CURVE('',#487,#549,#274,.T.);
#728=EDGE_CURVE('',#497,#555,#275,.T.);
#729=EDGE_CURVE('',#548,#488,#276,.T.);
#730=EDGE_CURVE('',#493,#559,#277,.T.);
#731=EDGE_CURVE('',#514,#506,#278,.T.);
#732=EDGE_CURVE('',#556,#496,#279,.T.);
#733=EDGE_CURVE('',#503,#517,#280,.T.);
#734=EDGE_CURVE('',#505,#515,#281,.T.);
#735=EDGE_CURVE('',#516,#504,#282,.T.);
#736=EDGE_CURVE('',#558,#494,#283,.T.);
#737=EDGE_CURVE('',#495,#557,#284,.T.);
#738=ORIENTED_EDGE('',*,*,#568,.T.);
#739=ORIENTED_EDGE('',*,*,#569,.T.);
#740=ORIENTED_EDGE('',*,*,#570,.T.);
#741=ORIENTED_EDGE('',*,*,#569,.F.);
#742=ORIENTED_EDGE('',*,*,#571,.F.);
#743=ORIENTED_EDGE('',*,*,#572,.F.);
#744=ORIENTED_EDGE('',*,*,#573,.T.);
#745=ORIENTED_EDGE('',*,*,#570,.F.);
#746=ORIENTED_EDGE('',*,*,#573,.F.);
#747=ORIENTED_EDGE('',*,*,#574,.F.);
#748=ORIENTED_EDGE('',*,*,#575,.T.);
#749=ORIENTED_EDGE('',*,*,#576,.F.);
#750=ORIENTED_EDGE('',*,*,#577,.T.);
#751=ORIENTED_EDGE('',*,*,#578,.F.);
#752=ORIENTED_EDGE('',*,*,#579,.T.);
#753=ORIENTED_EDGE('',*,*,#580,.F.);
#754=ORIENTED_EDGE('',*,*,#581,.T.);
#755=ORIENTED_EDGE('',*,*,#582,.F.);
#756=ORIENTED_EDGE('',*,*,#583,.T.);
#757=ORIENTED_EDGE('',*,*,#584,.F.);
#758=ORIENTED_EDGE('',*,*,#585,.T.);
#759=ORIENTED_EDGE('',*,*,#586,.F.);
#760=ORIENTED_EDGE('',*,*,#587,.T.);
#761=ORIENTED_EDGE('',*,*,#588,.F.);
#762=ORIENTED_EDGE('',*,*,#589,.T.);
#763=ORIENTED_EDGE('',*,*,#590,.F.);
#764=ORIENTED_EDGE('',*,*,#591,.T.);
#765=ORIENTED_EDGE('',*,*,#592,.F.);
#766=ORIENTED_EDGE('',*,*,#593,.T.);
#767=ORIENTED_EDGE('',*,*,#594,.F.);
#768=ORIENTED_EDGE('',*,*,#595,.T.);
#769=ORIENTED_EDGE('',*,*,#596,.F.);
#770=ORIENTED_EDGE('',*,*,#597,.T.);
#771=ORIENTED_EDGE('',*,*,#598,.F.);
#772=ORIENTED_EDGE('',*,*,#599,.T.);
#773=ORIENTED_EDGE('',*,*,#600,.F.);
#774=ORIENTED_EDGE('',*,*,#601,.T.);
#775=ORIENTED_EDGE('',*,*,#602,.F.);
#776=ORIENTED_EDGE('',*,*,#603,.T.);
#777=ORIENTED_EDGE('',*,*,#604,.F.);
#778=ORIENTED_EDGE('',*,*,#605,.T.);
#779=ORIENTED_EDGE('',*,*,#606,.F.);
#780=ORIENTED_EDGE('',*,*,#607,.T.);
#781=ORIENTED_EDGE('',*,*,#608,.F.);
#782=ORIENTED_EDGE('',*,*,#609,.T.);
#783=ORIENTED_EDGE('',*,*,#610,.F.);
#784=ORIENTED_EDGE('',*,*,#611,.T.);
#785=ORIENTED_EDGE('',*,*,#612,.F.);
#786=ORIENTED_EDGE('',*,*,#613,.T.);
#787=ORIENTED_EDGE('',*,*,#614,.F.);
#788=ORIENTED_EDGE('',*,*,#615,.T.);
#789=ORIENTED_EDGE('',*,*,#616,.F.);
#790=ORIENTED_EDGE('',*,*,#617,.T.);
#791=ORIENTED_EDGE('',*,*,#618,.F.);
#792=ORIENTED_EDGE('',*,*,#619,.T.);
#793=ORIENTED_EDGE('',*,*,#620,.F.);
#794=ORIENTED_EDGE('',*,*,#621,.T.);
#795=ORIENTED_EDGE('',*,*,#622,.F.);
#796=ORIENTED_EDGE('',*,*,#623,.T.);
#797=ORIENTED_EDGE('',*,*,#624,.T.);
#798=ORIENTED_EDGE('',*,*,#625,.T.);
#799=ORIENTED_EDGE('',*,*,#568,.F.);
#800=ORIENTED_EDGE('',*,*,#626,.T.);
#801=ORIENTED_EDGE('',*,*,#627,.T.);
#802=ORIENTED_EDGE('',*,*,#571,.T.);
#803=ORIENTED_EDGE('',*,*,#572,.T.);
#804=ORIENTED_EDGE('',*,*,#627,.F.);
#805=ORIENTED_EDGE('',*,*,#628,.F.);
#806=ORIENTED_EDGE('',*,*,#629,.T.);
#807=ORIENTED_EDGE('',*,*,#630,.F.);
#808=ORIENTED_EDGE('',*,*,#631,.T.);
#809=ORIENTED_EDGE('',*,*,#632,.F.);
#810=ORIENTED_EDGE('',*,*,#633,.T.);
#811=ORIENTED_EDGE('',*,*,#634,.F.);
#812=ORIENTED_EDGE('',*,*,#635,.T.);
#813=ORIENTED_EDGE('',*,*,#636,.F.);
#814=ORIENTED_EDGE('',*,*,#637,.T.);
#815=ORIENTED_EDGE('',*,*,#638,.F.);
#816=ORIENTED_EDGE('',*,*,#639,.T.);
#817=ORIENTED_EDGE('',*,*,#640,.F.);
#818=ORIENTED_EDGE('',*,*,#641,.T.);
#819=ORIENTED_EDGE('',*,*,#642,.F.);
#820=ORIENTED_EDGE('',*,*,#643,.T.);
#821=ORIENTED_EDGE('',*,*,#644,.F.);
#822=ORIENTED_EDGE('',*,*,#645,.T.);
#823=ORIENTED_EDGE('',*,*,#646,.F.);
#824=ORIENTED_EDGE('',*,*,#647,.T.);
#825=ORIENTED_EDGE('',*,*,#648,.F.);
#826=ORIENTED_EDGE('',*,*,#649,.T.);
#827=ORIENTED_EDGE('',*,*,#650,.F.);
#828=ORIENTED_EDGE('',*,*,#651,.T.);
#829=ORIENTED_EDGE('',*,*,#652,.F.);
#830=ORIENTED_EDGE('',*,*,#653,.T.);
#831=ORIENTED_EDGE('',*,*,#654,.F.);
#832=ORIENTED_EDGE('',*,*,#655,.T.);
#833=ORIENTED_EDGE('',*,*,#656,.F.);
#834=ORIENTED_EDGE('',*,*,#657,.T.);
#835=ORIENTED_EDGE('',*,*,#658,.F.);
#836=ORIENTED_EDGE('',*,*,#659,.T.);
#837=ORIENTED_EDGE('',*,*,#660,.F.);
#838=ORIENTED_EDGE('',*,*,#661,.T.);
#839=ORIENTED_EDGE('',*,*,#662,.F.);
#840=ORIENTED_EDGE('',*,*,#663,.T.);
#841=ORIENTED_EDGE('',*,*,#664,.F.);
#842=ORIENTED_EDGE('',*,*,#665,.T.);
#843=ORIENTED_EDGE('',*,*,#666,.F.);
#844=ORIENTED_EDGE('',*,*,#667,.T.);
#845=ORIENTED_EDGE('',*,*,#668,.F.);
#846=ORIENTED_EDGE('',*,*,#669,.T.);
#847=ORIENTED_EDGE('',*,*,#670,.F.);
#848=ORIENTED_EDGE('',*,*,#671,.T.);
#849=ORIENTED_EDGE('',*,*,#672,.F.);
#850=ORIENTED_EDGE('',*,*,#673,.T.);
#851=ORIENTED_EDGE('',*,*,#674,.F.);
#852=ORIENTED_EDGE('',*,*,#675,.T.);
#853=ORIENTED_EDGE('',*,*,#676,.F.);
#854=ORIENTED_EDGE('',*,*,#677,.T.);
#855=ORIENTED_EDGE('',*,*,#678,.T.);
#856=ORIENTED_EDGE('',*,*,#679,.T.);
#857=ORIENTED_EDGE('',*,*,#626,.F.);
#858=ORIENTED_EDGE('',*,*,#679,.F.);
#859=ORIENTED_EDGE('',*,*,#680,.T.);
#860=ORIENTED_EDGE('',*,*,#625,.F.);
#861=ORIENTED_EDGE('',*,*,#680,.F.);
#862=ORIENTED_EDGE('',*,*,#678,.F.);
#863=ORIENTED_EDGE('',*,*,#681,.T.);
#864=ORIENTED_EDGE('',*,*,#624,.F.);
#865=ORIENTED_EDGE('',*,*,#681,.F.);
#866=ORIENTED_EDGE('',*,*,#677,.F.);
#867=ORIENTED_EDGE('',*,*,#682,.T.);
#868=ORIENTED_EDGE('',*,*,#623,.F.);
#869=ORIENTED_EDGE('',*,*,#682,.F.);
#870=ORIENTED_EDGE('',*,*,#574,.T.);
#871=ORIENTED_EDGE('',*,*,#683,.T.);
#872=ORIENTED_EDGE('',*,*,#684,.T.);
#873=ORIENTED_EDGE('',*,*,#685,.T.);
#874=ORIENTED_EDGE('',*,*,#683,.F.);
#875=ORIENTED_EDGE('',*,*,#686,.F.);
#876=ORIENTED_EDGE('',*,*,#687,.F.);
#877=ORIENTED_EDGE('',*,*,#688,.T.);
#878=ORIENTED_EDGE('',*,*,#684,.F.);
#879=ORIENTED_EDGE('',*,*,#685,.F.);
#880=ORIENTED_EDGE('',*,*,#688,.F.);
#881=ORIENTED_EDGE('',*,*,#628,.T.);
#882=ORIENTED_EDGE('',*,*,#689,.T.);
#883=ORIENTED_EDGE('',*,*,#686,.T.);
#884=ORIENTED_EDGE('',*,*,#687,.T.);
#885=ORIENTED_EDGE('',*,*,#689,.F.);
#886=ORIENTED_EDGE('',*,*,#582,.T.);
#887=ORIENTED_EDGE('',*,*,#690,.T.);
#888=ORIENTED_EDGE('',*,*,#644,.T.);
#889=ORIENTED_EDGE('',*,*,#691,.T.);
#890=ORIENTED_EDGE('',*,*,#690,.F.);
#891=ORIENTED_EDGE('',*,*,#581,.F.);
#892=ORIENTED_EDGE('',*,*,#692,.F.);
#893=ORIENTED_EDGE('',*,*,#637,.F.);
#894=ORIENTED_EDGE('',*,*,#636,.T.);
#895=ORIENTED_EDGE('',*,*,#693,.T.);
#896=ORIENTED_EDGE('',*,*,#622,.T.);
#897=ORIENTED_EDGE('',*,*,#694,.T.);
#898=ORIENTED_EDGE('',*,*,#693,.F.);
#899=ORIENTED_EDGE('',*,*,#635,.F.);
#900=ORIENTED_EDGE('',*,*,#695,.F.);
#901=ORIENTED_EDGE('',*,*,#615,.F.);
#902=ORIENTED_EDGE('',*,*,#638,.T.);
#903=ORIENTED_EDGE('',*,*,#692,.T.);
#904=ORIENTED_EDGE('',*,*,#580,.T.);
#905=ORIENTED_EDGE('',*,*,#696,.T.);
#906=ORIENTED_EDGE('',*,*,#616,.T.);
#907=ORIENTED_EDGE('',*,*,#695,.T.);
#908=ORIENTED_EDGE('',*,*,#634,.T.);
#909=ORIENTED_EDGE('',*,*,#697,.T.);
#910=ORIENTED_EDGE('',*,*,#590,.T.);
#911=ORIENTED_EDGE('',*,*,#698,.T.);
#912=ORIENTED_EDGE('',*,*,#652,.T.);
#913=ORIENTED_EDGE('',*,*,#699,.T.);
#914=ORIENTED_EDGE('',*,*,#698,.F.);
#915=ORIENTED_EDGE('',*,*,#589,.F.);
#916=ORIENTED_EDGE('',*,*,#700,.F.);
#917=ORIENTED_EDGE('',*,*,#645,.F.);
#918=ORIENTED_EDGE('',*,*,#642,.T.);
#919=ORIENTED_EDGE('',*,*,#701,.T.);
#920=ORIENTED_EDGE('',*,*,#576,.T.);
#921=ORIENTED_EDGE('',*,*,#702,.T.);
#922=ORIENTED_EDGE('',*,*,#701,.F.);
#923=ORIENTED_EDGE('',*,*,#641,.F.);
#924=ORIENTED_EDGE('',*,*,#703,.F.);
#925=ORIENTED_EDGE('',*,*,#577,.F.);
#926=ORIENTED_EDGE('',*,*,#646,.T.);
#927=ORIENTED_EDGE('',*,*,#700,.T.);
#928=ORIENTED_EDGE('',*,*,#588,.T.);
#929=ORIENTED_EDGE('',*,*,#704,.T.);
#930=ORIENTED_EDGE('',*,*,#578,.T.);
#931=ORIENTED_EDGE('',*,*,#703,.T.);
#932=ORIENTED_EDGE('',*,*,#640,.T.);
#933=ORIENTED_EDGE('',*,*,#705,.T.);
#934=ORIENTED_EDGE('',*,*,#598,.T.);
#935=ORIENTED_EDGE('',*,*,#706,.T.);
#936=ORIENTED_EDGE('',*,*,#660,.T.);
#937=ORIENTED_EDGE('',*,*,#707,.T.);
#938=ORIENTED_EDGE('',*,*,#706,.F.);
#939=ORIENTED_EDGE('',*,*,#597,.F.);
#940=ORIENTED_EDGE('',*,*,#708,.F.);
#941=ORIENTED_EDGE('',*,*,#653,.F.);
#942=ORIENTED_EDGE('',*,*,#650,.T.);
#943=ORIENTED_EDGE('',*,*,#709,.T.);
#944=ORIENTED_EDGE('',*,*,#584,.T.);
#945=ORIENTED_EDGE('',*,*,#710,.T.);
#946=ORIENTED_EDGE('',*,*,#709,.F.);
#947=ORIENTED_EDGE('',*,*,#649,.F.);
#948=ORIENTED_EDGE('',*,*,#711,.F.);
#949=ORIENTED_EDGE('',*,*,#585,.F.);
#950=ORIENTED_EDGE('',*,*,#654,.T.);
#951=ORIENTED_EDGE('',*,*,#708,.T.);
#952=ORIENTED_EDGE('',*,*,#596,.T.);
#953=ORIENTED_EDGE('',*,*,#712,.T.);
#954=ORIENTED_EDGE('',*,*,#586,.T.);
#955=ORIENTED_EDGE('',*,*,#711,.T.);
#956=ORIENTED_EDGE('',*,*,#648,.T.);
#957=ORIENTED_EDGE('',*,*,#713,.T.);
#958=ORIENTED_EDGE('',*,*,#606,.T.);
#959=ORIENTED_EDGE('',*,*,#714,.T.);
#960=ORIENTED_EDGE('',*,*,#668,.T.);
#961=ORIENTED_EDGE('',*,*,#715,.T.);
#962=ORIENTED_EDGE('',*,*,#714,.F.);
#963=ORIENTED_EDGE('',*,*,#605,.F.);
#964=ORIENTED_EDGE('',*,*,#716,.F.);
#965=ORIENTED_EDGE('',*,*,#661,.F.);
#966=ORIENTED_EDGE('',*,*,#658,.T.);
#967=ORIENTED_EDGE('',*,*,#717,.T.);
#968=ORIENTED_EDGE('',*,*,#592,.T.);
#969=ORIENTED_EDGE('',*,*,#718,.T.);
#970=ORIENTED_EDGE('',*,*,#717,.F.);
#971=ORIENTED_EDGE('',*,*,#657,.F.);
#972=ORIENTED_EDGE('',*,*,#719,.F.);
#973=ORIENTED_EDGE('',*,*,#593,.F.);
#974=ORIENTED_EDGE('',*,*,#662,.T.);
#975=ORIENTED_EDGE('',*,*,#716,.T.);
#976=ORIENTED_EDGE('',*,*,#604,.T.);
#977=ORIENTED_EDGE('',*,*,#720,.T.);
#978=ORIENTED_EDGE('',*,*,#594,.T.);
#979=ORIENTED_EDGE('',*,*,#719,.T.);
#980=ORIENTED_EDGE('',*,*,#656,.T.);
#981=ORIENTED_EDGE('',*,*,#721,.T.);
#982=ORIENTED_EDGE('',*,*,#614,.T.);
#983=ORIENTED_EDGE('',*,*,#722,.T.);
#984=ORIENTED_EDGE('',*,*,#676,.T.);
#985=ORIENTED_EDGE('',*,*,#723,.T.);
#986=ORIENTED_EDGE('',*,*,#722,.F.);
#987=ORIENTED_EDGE('',*,*,#613,.F.);
#988=ORIENTED_EDGE('',*,*,#724,.F.);
#989=ORIENTED_EDGE('',*,*,#669,.F.);
#990=ORIENTED_EDGE('',*,*,#666,.T.);
#991=ORIENTED_EDGE('',*,*,#725,.T.);
#992=ORIENTED_EDGE('',*,*,#600,.T.);
#993=ORIENTED_EDGE('',*,*,#726,.T.);
#994=ORIENTED_EDGE('',*,*,#725,.F.);
#995=ORIENTED_EDGE('',*,*,#665,.F.);
#996=ORIENTED_EDGE('',*,*,#727,.F.);
#997=ORIENTED_EDGE('',*,*,#601,.F.);
#998=ORIENTED_EDGE('',*,*,#670,.T.);
#999=ORIENTED_EDGE('',*,*,#724,.T.);
#1000=ORIENTED_EDGE('',*,*,#612,.T.);
#1001=ORIENTED_EDGE('',*,*,#728,.T.);
#1002=ORIENTED_EDGE('',*,*,#602,.T.);
#1003=ORIENTED_EDGE('',*,*,#727,.T.);
#1004=ORIENTED_EDGE('',*,*,#664,.T.);
#1005=ORIENTED_EDGE('',*,*,#729,.T.);
#1006=ORIENTED_EDGE('',*,*,#723,.F.);
#1007=ORIENTED_EDGE('',*,*,#675,.F.);
#1008=ORIENTED_EDGE('',*,*,#730,.F.);
#1009=ORIENTED_EDGE('',*,*,#607,.F.);
#1010=ORIENTED_EDGE('',*,*,#715,.F.);
#1011=ORIENTED_EDGE('',*,*,#667,.F.);
#1012=ORIENTED_EDGE('',*,*,#726,.F.);
#1013=ORIENTED_EDGE('',*,*,#599,.F.);
#1014=ORIENTED_EDGE('',*,*,#707,.F.);
#1015=ORIENTED_EDGE('',*,*,#659,.F.);
#1016=ORIENTED_EDGE('',*,*,#718,.F.);
#1017=ORIENTED_EDGE('',*,*,#591,.F.);
#1018=ORIENTED_EDGE('',*,*,#699,.F.);
#1019=ORIENTED_EDGE('',*,*,#651,.F.);
#1020=ORIENTED_EDGE('',*,*,#710,.F.);
#1021=ORIENTED_EDGE('',*,*,#583,.F.);
#1022=ORIENTED_EDGE('',*,*,#694,.F.);
#1023=ORIENTED_EDGE('',*,*,#621,.F.);
#1024=ORIENTED_EDGE('',*,*,#731,.F.);
#1025=ORIENTED_EDGE('',*,*,#629,.F.);
#1026=ORIENTED_EDGE('',*,*,#691,.F.);
#1027=ORIENTED_EDGE('',*,*,#643,.F.);
#1028=ORIENTED_EDGE('',*,*,#702,.F.);
#1029=ORIENTED_EDGE('',*,*,#575,.F.);
#1030=ORIENTED_EDGE('',*,*,#728,.F.);
#1031=ORIENTED_EDGE('',*,*,#611,.F.);
#1032=ORIENTED_EDGE('',*,*,#732,.F.);
#1033=ORIENTED_EDGE('',*,*,#671,.F.);
#1034=ORIENTED_EDGE('',*,*,#720,.F.);
#1035=ORIENTED_EDGE('',*,*,#603,.F.);
#1036=ORIENTED_EDGE('',*,*,#729,.F.);
#1037=ORIENTED_EDGE('',*,*,#663,.F.);
#1038=ORIENTED_EDGE('',*,*,#712,.F.);
#1039=ORIENTED_EDGE('',*,*,#595,.F.);
#1040=ORIENTED_EDGE('',*,*,#721,.F.);
#1041=ORIENTED_EDGE('',*,*,#655,.F.);
#1042=ORIENTED_EDGE('',*,*,#704,.F.);
#1043=ORIENTED_EDGE('',*,*,#587,.F.);
#1044=ORIENTED_EDGE('',*,*,#713,.F.);
#1045=ORIENTED_EDGE('',*,*,#647,.F.);
#1046=ORIENTED_EDGE('',*,*,#696,.F.);
#1047=ORIENTED_EDGE('',*,*,#579,.F.);
#1048=ORIENTED_EDGE('',*,*,#705,.F.);
#1049=ORIENTED_EDGE('',*,*,#639,.F.);
#1050=ORIENTED_EDGE('',*,*,#697,.F.);
#1051=ORIENTED_EDGE('',*,*,#633,.F.);
#1052=ORIENTED_EDGE('',*,*,#733,.F.);
#1053=ORIENTED_EDGE('',*,*,#617,.F.);
#1054=ORIENTED_EDGE('',*,*,#620,.T.);
#1055=ORIENTED_EDGE('',*,*,#734,.T.);
#1056=ORIENTED_EDGE('',*,*,#630,.T.);
#1057=ORIENTED_EDGE('',*,*,#731,.T.);
#1058=ORIENTED_EDGE('',*,*,#734,.F.);
#1059=ORIENTED_EDGE('',*,*,#619,.F.);
#1060=ORIENTED_EDGE('',*,*,#735,.F.);
#1061=ORIENTED_EDGE('',*,*,#631,.F.);
#1062=ORIENTED_EDGE('',*,*,#674,.T.);
#1063=ORIENTED_EDGE('',*,*,#736,.T.);
#1064=ORIENTED_EDGE('',*,*,#608,.T.);
#1065=ORIENTED_EDGE('',*,*,#730,.T.);
#1066=ORIENTED_EDGE('',*,*,#736,.F.);
#1067=ORIENTED_EDGE('',*,*,#673,.F.);
#1068=ORIENTED_EDGE('',*,*,#737,.F.);
#1069=ORIENTED_EDGE('',*,*,#609,.F.);
#1070=ORIENTED_EDGE('',*,*,#632,.T.);
#1071=ORIENTED_EDGE('',*,*,#735,.T.);
#1072=ORIENTED_EDGE('',*,*,#618,.T.);
#1073=ORIENTED_EDGE('',*,*,#733,.T.);
#1074=ORIENTED_EDGE('',*,*,#610,.T.);
#1075=ORIENTED_EDGE('',*,*,#737,.T.);
#1076=ORIENTED_EDGE('',*,*,#672,.T.);
#1077=ORIENTED_EDGE('',*,*,#732,.T.);
#1078=CONICAL_SURFACE('',#1159,2.55,0.785398163397448);
#1079=CONICAL_SURFACE('',#1218,2.55,0.785398163397448);
#1080=ADVANCED_FACE('',(#92),#1078,.F.);
#1081=ADVANCED_FACE('',(#93),#39,.F.);
#1082=ADVANCED_FACE('',(#94,#17,#18,#19,#20,#21,#22,#23,#24,#25,#26),#37,
 .F.);
#1083=ADVANCED_FACE('',(#95),#1079,.F.);
#1084=ADVANCED_FACE('',(#96,#27,#28,#29,#30,#31,#32,#33,#34,#35,#36),#38,
 .T.);
#1085=ADVANCED_FACE('',(#97),#40,.F.);
#1086=ADVANCED_FACE('',(#98),#41,.F.);
#1087=ADVANCED_FACE('',(#99),#42,.F.);
#1088=ADVANCED_FACE('',(#100),#15,.T.);
#1089=ADVANCED_FACE('',(#101),#43,.T.);
#1090=ADVANCED_FACE('',(#102),#16,.T.);
#1091=ADVANCED_FACE('',(#103),#44,.F.);
#1092=ADVANCED_FACE('',(#104),#45,.T.);
#1093=ADVANCED_FACE('',(#105),#46,.F.);
#1094=ADVANCED_FACE('',(#106),#47,.F.);
#1095=ADVANCED_FACE('',(#107),#48,.F.);
#1096=ADVANCED_FACE('',(#108),#49,.F.);
#1097=ADVANCED_FACE('',(#109),#50,.F.);
#1098=ADVANCED_FACE('',(#110),#51,.T.);
#1099=ADVANCED_FACE('',(#111),#52,.F.);
#1100=ADVANCED_FACE('',(#112),#53,.F.);
#1101=ADVANCED_FACE('',(#113),#54,.F.);
#1102=ADVANCED_FACE('',(#114),#55,.F.);
#1103=ADVANCED_FACE('',(#115),#56,.F.);
#1104=ADVANCED_FACE('',(#116),#57,.T.);
#1105=ADVANCED_FACE('',(#117),#58,.F.);
#1106=ADVANCED_FACE('',(#118),#59,.F.);
#1107=ADVANCED_FACE('',(#119),#60,.F.);
#1108=ADVANCED_FACE('',(#120),#61,.F.);
#1109=ADVANCED_FACE('',(#121),#62,.F.);
#1110=ADVANCED_FACE('',(#122),#63,.T.);
#1111=ADVANCED_FACE('',(#123),#64,.F.);
#1112=ADVANCED_FACE('',(#124),#65,.F.);
#1113=ADVANCED_FACE('',(#125),#66,.F.);
#1114=ADVANCED_FACE('',(#126),#67,.F.);
#1115=ADVANCED_FACE('',(#127),#68,.F.);
#1116=ADVANCED_FACE('',(#128),#69,.T.);
#1117=ADVANCED_FACE('',(#129),#70,.F.);
#1118=ADVANCED_FACE('',(#130),#71,.F.);
#1119=ADVANCED_FACE('',(#131),#72,.F.);
#1120=ADVANCED_FACE('',(#132),#73,.F.);
#1121=ADVANCED_FACE('',(#133),#74,.T.);
#1122=ADVANCED_FACE('',(#134),#75,.T.);
#1123=ADVANCED_FACE('',(#135),#76,.T.);
#1124=ADVANCED_FACE('',(#136),#77,.T.);
#1125=ADVANCED_FACE('',(#137),#78,.T.);
#1126=ADVANCED_FACE('',(#138),#79,.T.);
#1127=ADVANCED_FACE('',(#139),#80,.F.);
#1128=ADVANCED_FACE('',(#140),#81,.F.);
#1129=ADVANCED_FACE('',(#141),#82,.F.);
#1130=ADVANCED_FACE('',(#142),#83,.F.);
#1131=ADVANCED_FACE('',(#143),#84,.F.);
#1132=ADVANCED_FACE('',(#144),#85,.F.);
#1133=ADVANCED_FACE('',(#145),#86,.F.);
#1134=ADVANCED_FACE('',(#146),#87,.T.);
#1135=ADVANCED_FACE('',(#147),#88,.F.);
#1136=ADVANCED_FACE('',(#148),#89,.F.);
#1137=ADVANCED_FACE('',(#149),#90,.F.);
#1138=ADVANCED_FACE('',(#150),#91,.F.);
#1139=CLOSED_SHELL('',(#1080,#1081,#1082,#1083,#1084,#1085,#1086,#1087,
#1088,#1089,#1090,#1091,#1092,#1093,#1094,#1095,#1096,#1097,#1098,#1099,
#1100,#1101,#1102,#1103,#1104,#1105,#1106,#1107,#1108,#1109,#1110,#1111,
#1112,#1113,#1114,#1115,#1116,#1117,#1118,#1119,#1120,#1121,#1122,#1123,
#1124,#1125,#1126,#1127,#1128,#1129,#1130,#1131,#1132,#1133,#1134,#1135,
#1136,#1137,#1138));
#1140=DERIVED_UNIT_ELEMENT(#1142,1.);
#1141=DERIVED_UNIT_ELEMENT(#2086,3.);
#1142=(
MASS_UNIT()
NAMED_UNIT(*)
SI_UNIT($,.GRAM.)
);
#1143=DERIVED_UNIT((#1140,#1141));
#1144=MEASURE_REPRESENTATION_ITEM('density measure',
POSITIVE_RATIO_MEASURE(7.85),#1143);
#1145=PROPERTY_DEFINITION_REPRESENTATION(#1150,#1147);
#1146=PROPERTY_DEFINITION_REPRESENTATION(#1151,#1148);
#1147=REPRESENTATION('material name',(#1149),#2083);
#1148=REPRESENTATION('density',(#1144),#2083);
#1149=DESCRIPTIVE_REPRESENTATION_ITEM('Mild Steel S355 J2',
'Mild Steel S355 J2');
#1150=PROPERTY_DEFINITION('material property','material name',#2093);
#1151=PROPERTY_DEFINITION('material property','density of part',#2093);
#1152=DATE_TIME_ROLE('creation_date');
#1153=APPLIED_DATE_AND_TIME_ASSIGNMENT(#1154,#1152,(#2093));
#1154=DATE_AND_TIME(#1155,#1156);
#1155=CALENDAR_DATE(2025,16,9);
#1156=LOCAL_TIME(0,0,0.,#1157);
#1157=COORDINATED_UNIVERSAL_TIME_OFFSET(0,0,.BEHIND.);
#1158=AXIS2_PLACEMENT_3D('placement',#1738,#1333,#1334);
#1159=AXIS2_PLACEMENT_3D('',#1739,#1335,#1336);
#1160=AXIS2_PLACEMENT_3D('',#1741,#1337,#1338);
#1161=AXIS2_PLACEMENT_3D('',#1744,#1340,#1341);
#1162=AXIS2_PLACEMENT_3D('',#1745,#1342,#1343);
#1163=AXIS2_PLACEMENT_3D('',#1748,#1344,#1345);
#1164=AXIS2_PLACEMENT_3D('',#1749,#1346,#1347);
#1165=AXIS2_PLACEMENT_3D('',#1751,#1349,#1350);
#1166=AXIS2_PLACEMENT_3D('',#1753,#1351,#1352);
#1167=AXIS2_PLACEMENT_3D('',#1756,#1353,#1354);
#1168=AXIS2_PLACEMENT_3D('',#1758,#1355,#1356);
#1169=AXIS2_PLACEMENT_3D('',#1760,#1357,#1358);
#1170=AXIS2_PLACEMENT_3D('',#1762,#1359,#1360);
#1171=AXIS2_PLACEMENT_3D('',#1764,#1361,#1362);
#1172=AXIS2_PLACEMENT_3D('',#1766,#1363,#1364);
#1173=AXIS2_PLACEMENT_3D('',#1768,#1365,#1366);
#1174=AXIS2_PLACEMENT_3D('',#1769,#1367,#1368);
#1175=AXIS2_PLACEMENT_3D('',#1772,#1369,#1370);
#1176=AXIS2_PLACEMENT_3D('',#1774,#1371,#1372);
#1177=AXIS2_PLACEMENT_3D('',#1776,#1373,#1374);
#1178=AXIS2_PLACEMENT_3D('',#1778,#1375,#1376);
#1179=AXIS2_PLACEMENT_3D('',#1780,#1377,#1378);
#1180=AXIS2_PLACEMENT_3D('',#1782,#1379,#1380);
#1181=AXIS2_PLACEMENT_3D('',#1784,#1381,#1382);
#1182=AXIS2_PLACEMENT_3D('',#1785,#1383,#1384);
#1183=AXIS2_PLACEMENT_3D('',#1788,#1385,#1386);
#1184=AXIS2_PLACEMENT_3D('',#1790,#1387,#1388);
#1185=AXIS2_PLACEMENT_3D('',#1792,#1389,#1390);
#1186=AXIS2_PLACEMENT_3D('',#1794,#1391,#1392);
#1187=AXIS2_PLACEMENT_3D('',#1796,#1393,#1394);
#1188=AXIS2_PLACEMENT_3D('',#1798,#1395,#1396);
#1189=AXIS2_PLACEMENT_3D('',#1800,#1397,#1398);
#1190=AXIS2_PLACEMENT_3D('',#1801,#1399,#1400);
#1191=AXIS2_PLACEMENT_3D('',#1804,#1401,#1402);
#1192=AXIS2_PLACEMENT_3D('',#1806,#1403,#1404);
#1193=AXIS2_PLACEMENT_3D('',#1808,#1405,#1406);
#1194=AXIS2_PLACEMENT_3D('',#1810,#1407,#1408);
#1195=AXIS2_PLACEMENT_3D('',#1812,#1409,#1410);
#1196=AXIS2_PLACEMENT_3D('',#1814,#1411,#1412);
#1197=AXIS2_PLACEMENT_3D('',#1816,#1413,#1414);
#1198=AXIS2_PLACEMENT_3D('',#1817,#1415,#1416);
#1199=AXIS2_PLACEMENT_3D('',#1820,#1417,#1418);
#1200=AXIS2_PLACEMENT_3D('',#1822,#1419,#1420);
#1201=AXIS2_PLACEMENT_3D('',#1824,#1421,#1422);
#1202=AXIS2_PLACEMENT_3D('',#1826,#1423,#1424);
#1203=AXIS2_PLACEMENT_3D('',#1828,#1425,#1426);
#1204=AXIS2_PLACEMENT_3D('',#1830,#1427,#1428);
#1205=AXIS2_PLACEMENT_3D('',#1832,#1429,#1430);
#1206=AXIS2_PLACEMENT_3D('',#1833,#1431,#1432);
#1207=AXIS2_PLACEMENT_3D('',#1836,#1433,#1434);
#1208=AXIS2_PLACEMENT_3D('',#1838,#1435,#1436);
#1209=AXIS2_PLACEMENT_3D('',#1840,#1437,#1438);
#1210=AXIS2_PLACEMENT_3D('',#1842,#1439,#1440);
#1211=AXIS2_PLACEMENT_3D('',#1844,#1441,#1442);
#1212=AXIS2_PLACEMENT_3D('',#1846,#1443,#1444);
#1213=AXIS2_PLACEMENT_3D('',#1848,#1445,#1446);
#1214=AXIS2_PLACEMENT_3D('',#1849,#1447,#1448);
#1215=AXIS2_PLACEMENT_3D('',#1851,#1449,#1450);
#1216=AXIS2_PLACEMENT_3D('',#1853,#1451,#1452);
#1217=AXIS2_PLACEMENT_3D('',#1855,#1453,#1454);
#1218=AXIS2_PLACEMENT_3D('',#1856,#1455,#1456);
#1219=AXIS2_PLACEMENT_3D('',#1858,#1457,#1458);
#1220=AXIS2_PLACEMENT_3D('',#1860,#1460,#1461);
#1221=AXIS2_PLACEMENT_3D('',#1862,#1462,#1463);
#1222=AXIS2_PLACEMENT_3D('',#1865,#1464,#1465);
#1223=AXIS2_PLACEMENT_3D('',#1867,#1466,#1467);
#1224=AXIS2_PLACEMENT_3D('',#1869,#1468,#1469);
#1225=AXIS2_PLACEMENT_3D('',#1871,#1470,#1471);
#1226=AXIS2_PLACEMENT_3D('',#1873,#1472,#1473);
#1227=AXIS2_PLACEMENT_3D('',#1875,#1474,#1475);
#1228=AXIS2_PLACEMENT_3D('',#1877,#1476,#1477);
#1229=AXIS2_PLACEMENT_3D('',#1878,#1478,#1479);
#1230=AXIS2_PLACEMENT_3D('',#1881,#1480,#1481);
#1231=AXIS2_PLACEMENT_3D('',#1883,#1482,#1483);
#1232=AXIS2_PLACEMENT_3D('',#1885,#1484,#1485);
#1233=AXIS2_PLACEMENT_3D('',#1887,#1486,#1487);
#1234=AXIS2_PLACEMENT_3D('',#1889,#1488,#1489);
#1235=AXIS2_PLACEMENT_3D('',#1891,#1490,#1491);
#1236=AXIS2_PLACEMENT_3D('',#1893,#1492,#1493);
#1237=AXIS2_PLACEMENT_3D('',#1894,#1494,#1495);
#1238=AXIS2_PLACEMENT_3D('',#1897,#1496,#1497);
#1239=AXIS2_PLACEMENT_3D('',#1899,#1498,#1499);
#1240=AXIS2_PLACEMENT_3D('',#1901,#1500,#1501);
#1241=AXIS2_PLACEMENT_3D('',#1903,#1502,#1503);
#1242=AXIS2_PLACEMENT_3D('',#1905,#1504,#1505);
#1243=AXIS2_PLACEMENT_3D('',#1907,#1506,#1507);
#1244=AXIS2_PLACEMENT_3D('',#1909,#1508,#1509);
#1245=AXIS2_PLACEMENT_3D('',#1910,#1510,#1511);
#1246=AXIS2_PLACEMENT_3D('',#1913,#1512,#1513);
#1247=AXIS2_PLACEMENT_3D('',#1915,#1514,#1515);
#1248=AXIS2_PLACEMENT_3D('',#1917,#1516,#1517);
#1249=AXIS2_PLACEMENT_3D('',#1919,#1518,#1519);
#1250=AXIS2_PLACEMENT_3D('',#1921,#1520,#1521);
#1251=AXIS2_PLACEMENT_3D('',#1923,#1522,#1523);
#1252=AXIS2_PLACEMENT_3D('',#1925,#1524,#1525);
#1253=AXIS2_PLACEMENT_3D('',#1926,#1526,#1527);
#1254=AXIS2_PLACEMENT_3D('',#1929,#1528,#1529);
#1255=AXIS2_PLACEMENT_3D('',#1931,#1530,#1531);
#1256=AXIS2_PLACEMENT_3D('',#1933,#1532,#1533);
#1257=AXIS2_PLACEMENT_3D('',#1935,#1534,#1535);
#1258=AXIS2_PLACEMENT_3D('',#1937,#1536,#1537);
#1259=AXIS2_PLACEMENT_3D('',#1939,#1538,#1539);
#1260=AXIS2_PLACEMENT_3D('',#1941,#1540,#1541);
#1261=AXIS2_PLACEMENT_3D('',#1942,#1542,#1543);
#1262=AXIS2_PLACEMENT_3D('',#1945,#1544,#1545);
#1263=AXIS2_PLACEMENT_3D('',#1947,#1546,#1547);
#1264=AXIS2_PLACEMENT_3D('',#1949,#1548,#1549);
#1265=AXIS2_PLACEMENT_3D('',#1951,#1550,#1551);
#1266=AXIS2_PLACEMENT_3D('',#1953,#1552,#1553);
#1267=AXIS2_PLACEMENT_3D('',#1955,#1554,#1555);
#1268=AXIS2_PLACEMENT_3D('',#1957,#1556,#1557);
#1269=AXIS2_PLACEMENT_3D('',#1958,#1558,#1559);
#1270=AXIS2_PLACEMENT_3D('',#1960,#1560,#1561);
#1271=AXIS2_PLACEMENT_3D('',#1962,#1562,#1563);
#1272=AXIS2_PLACEMENT_3D('',#1964,#1564,#1565);
#1273=AXIS2_PLACEMENT_3D('',#1965,#1566,#1567);
#1274=AXIS2_PLACEMENT_3D('',#1967,#1569,#1570);
#1275=AXIS2_PLACEMENT_3D('',#1969,#1572,#1573);
#1276=AXIS2_PLACEMENT_3D('',#1971,#1575,#1576);
#1277=AXIS2_PLACEMENT_3D('',#1973,#1577,#1578);
#1278=AXIS2_PLACEMENT_3D('',#1975,#1579,#1580);
#1279=AXIS2_PLACEMENT_3D('',#1976,#1581,#1582);
#1280=AXIS2_PLACEMENT_3D('',#1977,#1583,#1584);
#1281=AXIS2_PLACEMENT_3D('',#1980,#1585,#1586);
#1282=AXIS2_PLACEMENT_3D('',#1981,#1587,#1588);
#1283=AXIS2_PLACEMENT_3D('',#1983,#1590,#1591);
#1284=AXIS2_PLACEMENT_3D('',#1984,#1592,#1593);
#1285=AXIS2_PLACEMENT_3D('',#1985,#1594,#1595);
#1286=AXIS2_PLACEMENT_3D('',#1988,#1598,#1599);
#1287=AXIS2_PLACEMENT_3D('',#1990,#1601,#1602);
#1288=AXIS2_PLACEMENT_3D('',#1993,#1605,#1606);
#1289=AXIS2_PLACEMENT_3D('',#1995,#1608,#1609);
#1290=AXIS2_PLACEMENT_3D('',#1997,#1611,#1612);
#1291=AXIS2_PLACEMENT_3D('',#1999,#1614,#1615);
#1292=AXIS2_PLACEMENT_3D('',#2002,#1618,#1619);
#1293=AXIS2_PLACEMENT_3D('',#2004,#1621,#1622);
#1294=AXIS2_PLACEMENT_3D('',#2007,#1625,#1626);
#1295=AXIS2_PLACEMENT_3D('',#2009,#1628,#1629);
#1296=AXIS2_PLACEMENT_3D('',#2011,#1631,#1632);
#1297=AXIS2_PLACEMENT_3D('',#2013,#1634,#1635);
#1298=AXIS2_PLACEMENT_3D('',#2016,#1638,#1639);
#1299=AXIS2_PLACEMENT_3D('',#2018,#1641,#1642);
#1300=AXIS2_PLACEMENT_3D('',#2021,#1645,#1646);
#1301=AXIS2_PLACEMENT_3D('',#2023,#1648,#1649);
#1302=AXIS2_PLACEMENT_3D('',#2025,#1651,#1652);
#1303=AXIS2_PLACEMENT_3D('',#2027,#1654,#1655);
#1304=AXIS2_PLACEMENT_3D('',#2030,#1658,#1659);
#1305=AXIS2_PLACEMENT_3D('',#2032,#1661,#1662);
#1306=AXIS2_PLACEMENT_3D('',#2035,#1665,#1666);
#1307=AXIS2_PLACEMENT_3D('',#2037,#1668,#1669);
#1308=AXIS2_PLACEMENT_3D('',#2039,#1671,#1672);
#1309=AXIS2_PLACEMENT_3D('',#2041,#1674,#1675);
#1310=AXIS2_PLACEMENT_3D('',#2044,#1678,#1679);
#1311=AXIS2_PLACEMENT_3D('',#2046,#1681,#1682);
#1312=AXIS2_PLACEMENT_3D('',#2049,#1685,#1686);
#1313=AXIS2_PLACEMENT_3D('',#2051,#1688,#1689);
#1314=AXIS2_PLACEMENT_3D('',#2053,#1691,#1692);
#1315=AXIS2_PLACEMENT_3D('',#2055,#1694,#1695);
#1316=AXIS2_PLACEMENT_3D('',#2057,#1697,#1698);
#1317=AXIS2_PLACEMENT_3D('',#2058,#1699,#1700);
#1318=AXIS2_PLACEMENT_3D('',#2059,#1701,#1702);
#1319=AXIS2_PLACEMENT_3D('',#2060,#1703,#1704);
#1320=AXIS2_PLACEMENT_3D('',#2062,#1706,#1707);
#1321=AXIS2_PLACEMENT_3D('',#2063,#1708,#1709);
#1322=AXIS2_PLACEMENT_3D('',#2065,#1711,#1712);
#1323=AXIS2_PLACEMENT_3D('',#2066,#1713,#1714);
#1324=AXIS2_PLACEMENT_3D('',#2067,#1715,#1716);
#1325=AXIS2_PLACEMENT_3D('',#2068,#1717,#1718);
#1326=AXIS2_PLACEMENT_3D('',#2069,#1719,#1720);
#1327=AXIS2_PLACEMENT_3D('',#2071,#1722,#1723);
#1328=AXIS2_PLACEMENT_3D('',#2073,#1725,#1726);
#1329=AXIS2_PLACEMENT_3D('',#2075,#1728,#1729);
#1330=AXIS2_PLACEMENT_3D('',#2077,#1731,#1732);
#1331=AXIS2_PLACEMENT_3D('',#2079,#1734,#1735);
#1332=AXIS2_PLACEMENT_3D('',#2080,#1736,#1737);
#1333=DIRECTION('axis',(0.,0.,1.));
#1334=DIRECTION('refdir',(1.,0.,0.));
#1335=DIRECTION('center_axis',(0.,-1.,0.));
#1336=DIRECTION('ref_axis',(1.,0.,0.));
#1337=DIRECTION('center_axis',(0.,-1.,0.));
#1338=DIRECTION('ref_axis',(1.,0.,0.));
#1339=DIRECTION('',(0.707106781186548,0.707106781186548,8.65956056235493E-17));
#1340=DIRECTION('center_axis',(0.,1.,0.));
#1341=DIRECTION('ref_axis',(1.,0.,0.));
#1342=DIRECTION('center_axis',(0.,-1.,0.));
#1343=DIRECTION('ref_axis',(1.,0.,0.));
#1344=DIRECTION('center_axis',(0.,-1.,0.));
#1345=DIRECTION('ref_axis',(-1.,0.,0.));
#1346=DIRECTION('center_axis',(0.,-1.,0.));
#1347=DIRECTION('ref_axis',(-1.,0.,0.));
#1348=DIRECTION('',(0.,-1.,0.));
#1349=DIRECTION('center_axis',(0.,1.,0.));
#1350=DIRECTION('ref_axis',(0.,0.,1.));
#1351=DIRECTION('center_axis',(0.,1.,0.));
#1352=DIRECTION('ref_axis',(1.,0.,1.22464679914735E-16));
#1353=DIRECTION('center_axis',(0.,-1.,0.));
#1354=DIRECTION('ref_axis',(-1.,0.,0.));
#1355=DIRECTION('center_axis',(0.,-1.,0.));
#1356=DIRECTION('ref_axis',(-0.975626193737459,0.,0.21943912616796));
#1357=DIRECTION('center_axis',(0.,1.,0.));
#1358=DIRECTION('ref_axis',(0.750706903813533,0.,-0.660635409713027));
#1359=DIRECTION('center_axis',(0.,-1.,0.));
#1360=DIRECTION('ref_axis',(0.431361059984376,0.,0.902179381236989));
#1361=DIRECTION('center_axis',(0.,1.,0.));
#1362=DIRECTION('ref_axis',(1.,0.,0.));
#1363=DIRECTION('center_axis',(0.,-1.,0.));
#1364=DIRECTION('ref_axis',(0.202600785364336,0.,-0.979261416461281));
#1365=DIRECTION('center_axis',(0.,-1.,0.));
#1366=DIRECTION('ref_axis',(0.196773595544255,0.,0.980448954355394));
#1367=DIRECTION('center_axis',(0.,-1.,0.));
#1368=DIRECTION('ref_axis',(-0.860797075526498,0.,-0.508948322293165));
#1369=DIRECTION('center_axis',(0.,-1.,0.));
#1370=DIRECTION('ref_axis',(-1.,0.,0.));
#1371=DIRECTION('center_axis',(0.,-1.,0.));
#1372=DIRECTION('ref_axis',(-0.677852954714443,0.,-0.735197505290177));
#1373=DIRECTION('center_axis',(0.,1.,0.));
#1374=DIRECTION('ref_axis',(0.947480499357789,0.,0.319813544642367));
#1375=DIRECTION('center_axis',(0.,-1.,0.));
#1376=DIRECTION('ref_axis',(-0.565629732929572,0.,0.824659326768346));
#1377=DIRECTION('center_axis',(0.,1.,0.));
#1378=DIRECTION('ref_axis',(1.,0.,0.));
#1379=DIRECTION('center_axis',(0.,-1.,0.));
#1380=DIRECTION('ref_axis',(0.94936565628357,0.,-0.314173281278449));
#1381=DIRECTION('center_axis',(0.,-1.,0.));
#1382=DIRECTION('ref_axis',(-0.750706903813533,0.,0.660635409713027));
#1383=DIRECTION('center_axis',(0.,-1.,0.));
#1384=DIRECTION('ref_axis',(0.0103636385561009,0.,-0.999946296055882));
#1385=DIRECTION('center_axis',(0.,-1.,0.));
#1386=DIRECTION('ref_axis',(-1.,0.,0.));
#1387=DIRECTION('center_axis',(0.,-1.,0.));
#1388=DIRECTION('ref_axis',(0.297773239023017,0.,-0.954636631458138));
#1389=DIRECTION('center_axis',(0.,1.,0.));
#1390=DIRECTION('ref_axis',(0.196773595544256,0.,0.980448954355394));
#1391=DIRECTION('center_axis',(0.,-1.,0.));
#1392=DIRECTION('ref_axis',(-0.996990792913946,0.,-0.0775200544686415));
#1393=DIRECTION('center_axis',(0.,1.,0.));
#1394=DIRECTION('ref_axis',(1.,0.,0.));
#1395=DIRECTION('center_axis',(0.,-1.,0.));
#1396=DIRECTION('ref_axis',(0.746764870919235,0.,0.665088135182832));
#1397=DIRECTION('center_axis',(0.,-1.,0.));
#1398=DIRECTION('ref_axis',(-0.947480499357789,0.,-0.319813544642367));
#1399=DIRECTION('center_axis',(0.,-1.,0.));
#1400=DIRECTION('ref_axis',(0.8711607140826,0.,-0.490997973762718));
#1401=DIRECTION('center_axis',(0.,-1.,0.));
#1402=DIRECTION('ref_axis',(-1.,0.,0.));
#1403=DIRECTION('center_axis',(0.,-1.,0.));
#1404=DIRECTION('ref_axis',(0.975626193737459,0.,-0.219439126167962));
#1405=DIRECTION('center_axis',(0.,1.,0.));
#1406=DIRECTION('ref_axis',(-0.750706903813533,0.,0.660635409713027));
#1407=DIRECTION('center_axis',(0.,-1.,0.));
#1408=DIRECTION('ref_axis',(-0.431361059984377,0.,-0.902179381236988));
#1409=DIRECTION('center_axis',(0.,1.,0.));
#1410=DIRECTION('ref_axis',(1.,0.,0.));
#1411=DIRECTION('center_axis',(0.,-1.,0.));
#1412=DIRECTION('ref_axis',(-0.202600785364336,0.,0.979261416461281));
#1413=DIRECTION('center_axis',(0.,-1.,0.));
#1414=DIRECTION('ref_axis',(-0.196773595544256,0.,-0.980448954355394));
#1415=DIRECTION('center_axis',(0.,-1.,0.));
#1416=DIRECTION('ref_axis',(0.860797075526499,0.,0.508948322293164));
#1417=DIRECTION('center_axis',(0.,-1.,0.));
#1418=DIRECTION('ref_axis',(-1.,0.,0.));
#1419=DIRECTION('center_axis',(0.,-1.,0.));
#1420=DIRECTION('ref_axis',(0.677852954714443,0.,0.735197505290177));
#1421=DIRECTION('center_axis',(0.,1.,0.));
#1422=DIRECTION('ref_axis',(-0.947480499357789,0.,-0.319813544642367));
#1423=DIRECTION('center_axis',(0.,-1.,0.));
#1424=DIRECTION('ref_axis',(0.56562973292957,0.,-0.824659326768347));
#1425=DIRECTION('center_axis',(0.,1.,0.));
#1426=DIRECTION('ref_axis',(1.,0.,0.));
#1427=DIRECTION('center_axis',(0.,-1.,0.));
#1428=DIRECTION('ref_axis',(-0.94936565628357,0.,0.314173281278448));
#1429=DIRECTION('center_axis',(0.,-1.,0.));
#1430=DIRECTION('ref_axis',(0.750706903813533,0.,-0.660635409713027));
#1431=DIRECTION('center_axis',(0.,-1.,0.));
#1432=DIRECTION('ref_axis',(-0.0103636385561009,0.,0.999946296055882));
#1433=DIRECTION('center_axis',(0.,1.,0.));
#1434=DIRECTION('ref_axis',(-0.196773595544255,0.,-0.980448954355394));
#1435=DIRECTION('center_axis',(0.,-1.,0.));
#1436=DIRECTION('ref_axis',(0.996990792913946,0.,0.0775200544686401));
#1437=DIRECTION('center_axis',(0.,1.,0.));
#1438=DIRECTION('ref_axis',(1.,0.,0.));
#1439=DIRECTION('center_axis',(0.,-1.,0.));
#1440=DIRECTION('ref_axis',(-0.746764870919236,0.,-0.665088135182832));
#1441=DIRECTION('center_axis',(0.,-1.,0.));
#1442=DIRECTION('ref_axis',(0.947480499357789,0.,0.319813544642367));
#1443=DIRECTION('center_axis',(0.,-1.,0.));
#1444=DIRECTION('ref_axis',(-0.871160714082599,0.,0.49099797376272));
#1445=DIRECTION('center_axis',(0.,-1.,0.));
#1446=DIRECTION('ref_axis',(-1.,0.,0.));
#1447=DIRECTION('center_axis',(0.,-1.,0.));
#1448=DIRECTION('ref_axis',(-0.297773239023019,0.,0.954636631458138));
#1449=DIRECTION('center_axis',(0.,1.,0.));
#1450=DIRECTION('ref_axis',(1.,0.,0.));
#1451=DIRECTION('center_axis',(0.,1.,0.));
#1452=DIRECTION('ref_axis',(1.,0.,0.));
#1453=DIRECTION('center_axis',(0.,1.,0.));
#1454=DIRECTION('ref_axis',(1.,0.,0.));
#1455=DIRECTION('center_axis',(0.,1.,0.));
#1456=DIRECTION('ref_axis',(-1.,0.,0.));
#1457=DIRECTION('center_axis',(0.,1.,0.));
#1458=DIRECTION('ref_axis',(-1.,0.,0.));
#1459=DIRECTION('',(-0.707106781186548,-0.707106781186548,8.65956056235493E-17));
#1460=DIRECTION('center_axis',(0.,1.,0.));
#1461=DIRECTION('ref_axis',(0.,0.,1.));
#1462=DIRECTION('center_axis',(0.,-1.,0.));
#1463=DIRECTION('ref_axis',(1.,0.,1.22464679914735E-16));
#1464=DIRECTION('center_axis',(0.,1.,0.));
#1465=DIRECTION('ref_axis',(-1.,0.,0.));
#1466=DIRECTION('center_axis',(0.,1.,0.));
#1467=DIRECTION('ref_axis',(-0.871160714082599,0.,0.49099797376272));
#1468=DIRECTION('center_axis',(0.,1.,0.));
#1469=DIRECTION('ref_axis',(0.947480499357789,0.,0.319813544642367));
#1470=DIRECTION('center_axis',(0.,1.,0.));
#1471=DIRECTION('ref_axis',(-0.746764870919236,0.,-0.665088135182832));
#1472=DIRECTION('center_axis',(0.,-1.,0.));
#1473=DIRECTION('ref_axis',(1.,0.,0.));
#1474=DIRECTION('center_axis',(0.,1.,0.));
#1475=DIRECTION('ref_axis',(0.996990792913946,0.,0.0775200544686401));
#1476=DIRECTION('center_axis',(0.,-1.,0.));
#1477=DIRECTION('ref_axis',(-0.196773595544255,0.,-0.980448954355394));
#1478=DIRECTION('center_axis',(0.,1.,0.));
#1479=DIRECTION('ref_axis',(-0.297773239023019,0.,0.954636631458138));
#1480=DIRECTION('center_axis',(0.,1.,0.));
#1481=DIRECTION('ref_axis',(0.196773595544255,0.,0.980448954355394));
#1482=DIRECTION('center_axis',(0.,1.,0.));
#1483=DIRECTION('ref_axis',(0.202600785364336,0.,-0.979261416461281));
#1484=DIRECTION('center_axis',(0.,-1.,0.));
#1485=DIRECTION('ref_axis',(1.,0.,0.));
#1486=DIRECTION('center_axis',(0.,1.,0.));
#1487=DIRECTION('ref_axis',(0.431361059984376,0.,0.902179381236989));
#1488=DIRECTION('center_axis',(0.,-1.,0.));
#1489=DIRECTION('ref_axis',(0.750706903813533,0.,-0.660635409713027));
#1490=DIRECTION('center_axis',(0.,1.,0.));
#1491=DIRECTION('ref_axis',(-0.975626193737459,0.,0.21943912616796));
#1492=DIRECTION('center_axis',(0.,1.,0.));
#1493=DIRECTION('ref_axis',(-1.,0.,0.));
#1494=DIRECTION('center_axis',(0.,1.,0.));
#1495=DIRECTION('ref_axis',(-0.860797075526498,0.,-0.508948322293165));
#1496=DIRECTION('center_axis',(0.,1.,0.));
#1497=DIRECTION('ref_axis',(-0.750706903813533,0.,0.660635409713027));
#1498=DIRECTION('center_axis',(0.,1.,0.));
#1499=DIRECTION('ref_axis',(0.94936565628357,0.,-0.314173281278449));
#1500=DIRECTION('center_axis',(0.,-1.,0.));
#1501=DIRECTION('ref_axis',(1.,0.,0.));
#1502=DIRECTION('center_axis',(0.,1.,0.));
#1503=DIRECTION('ref_axis',(-0.565629732929572,0.,0.824659326768346));
#1504=DIRECTION('center_axis',(0.,-1.,0.));
#1505=DIRECTION('ref_axis',(0.947480499357789,0.,0.319813544642367));
#1506=DIRECTION('center_axis',(0.,1.,0.));
#1507=DIRECTION('ref_axis',(-0.677852954714443,0.,-0.735197505290177));
#1508=DIRECTION('center_axis',(0.,1.,0.));
#1509=DIRECTION('ref_axis',(-1.,0.,0.));
#1510=DIRECTION('center_axis',(0.,1.,0.));
#1511=DIRECTION('ref_axis',(0.0103636385561009,0.,-0.999946296055882));
#1512=DIRECTION('center_axis',(0.,1.,0.));
#1513=DIRECTION('ref_axis',(-0.947480499357789,0.,-0.319813544642367));
#1514=DIRECTION('center_axis',(0.,1.,0.));
#1515=DIRECTION('ref_axis',(0.746764870919235,0.,0.665088135182832));
#1516=DIRECTION('center_axis',(0.,-1.,0.));
#1517=DIRECTION('ref_axis',(1.,0.,0.));
#1518=DIRECTION('center_axis',(0.,1.,0.));
#1519=DIRECTION('ref_axis',(-0.996990792913946,0.,-0.0775200544686415));
#1520=DIRECTION('center_axis',(0.,-1.,0.));
#1521=DIRECTION('ref_axis',(0.196773595544256,0.,0.980448954355394));
#1522=DIRECTION('center_axis',(0.,1.,0.));
#1523=DIRECTION('ref_axis',(0.297773239023017,0.,-0.954636631458138));
#1524=DIRECTION('center_axis',(0.,1.,0.));
#1525=DIRECTION('ref_axis',(-1.,0.,0.));
#1526=DIRECTION('center_axis',(0.,1.,0.));
#1527=DIRECTION('ref_axis',(0.8711607140826,0.,-0.490997973762718));
#1528=DIRECTION('center_axis',(0.,1.,0.));
#1529=DIRECTION('ref_axis',(-0.196773595544256,0.,-0.980448954355394));
#1530=DIRECTION('center_axis',(0.,1.,0.));
#1531=DIRECTION('ref_axis',(-0.202600785364336,0.,0.979261416461281));
#1532=DIRECTION('center_axis',(0.,-1.,0.));
#1533=DIRECTION('ref_axis',(1.,0.,0.));
#1534=DIRECTION('center_axis',(0.,1.,0.));
#1535=DIRECTION('ref_axis',(-0.431361059984377,0.,-0.902179381236988));
#1536=DIRECTION('center_axis',(0.,-1.,0.));
#1537=DIRECTION('ref_axis',(-0.750706903813533,0.,0.660635409713027));
#1538=DIRECTION('center_axis',(0.,1.,0.));
#1539=DIRECTION('ref_axis',(0.975626193737459,0.,-0.219439126167962));
#1540=DIRECTION('center_axis',(0.,1.,0.));
#1541=DIRECTION('ref_axis',(-1.,0.,0.));
#1542=DIRECTION('center_axis',(0.,1.,0.));
#1543=DIRECTION('ref_axis',(0.860797075526499,0.,0.508948322293164));
#1544=DIRECTION('center_axis',(0.,1.,0.));
#1545=DIRECTION('ref_axis',(0.750706903813533,0.,-0.660635409713027));
#1546=DIRECTION('center_axis',(0.,1.,0.));
#1547=DIRECTION('ref_axis',(-0.94936565628357,0.,0.314173281278448));
#1548=DIRECTION('center_axis',(0.,-1.,0.));
#1549=DIRECTION('ref_axis',(1.,0.,0.));
#1550=DIRECTION('center_axis',(0.,1.,0.));
#1551=DIRECTION('ref_axis',(0.56562973292957,0.,-0.824659326768347));
#1552=DIRECTION('center_axis',(0.,-1.,0.));
#1553=DIRECTION('ref_axis',(-0.947480499357789,0.,-0.319813544642367));
#1554=DIRECTION('center_axis',(0.,1.,0.));
#1555=DIRECTION('ref_axis',(0.677852954714443,0.,0.735197505290177));
#1556=DIRECTION('center_axis',(0.,1.,0.));
#1557=DIRECTION('ref_axis',(-1.,0.,0.));
#1558=DIRECTION('center_axis',(0.,1.,0.));
#1559=DIRECTION('ref_axis',(-0.0103636385561009,0.,0.999946296055882));
#1560=DIRECTION('center_axis',(0.,-1.,0.));
#1561=DIRECTION('ref_axis',(1.,0.,0.));
#1562=DIRECTION('center_axis',(0.,-1.,0.));
#1563=DIRECTION('ref_axis',(1.,0.,0.));
#1564=DIRECTION('center_axis',(0.,-1.,0.));
#1565=DIRECTION('ref_axis',(1.,0.,0.));
#1566=DIRECTION('center_axis',(0.,1.,0.));
#1567=DIRECTION('ref_axis',(1.,0.,0.));
#1568=DIRECTION('',(0.,-1.,0.));
#1569=DIRECTION('center_axis',(0.,1.,0.));
#1570=DIRECTION('ref_axis',(1.,0.,0.));
#1571=DIRECTION('',(0.,-1.,0.));
#1572=DIRECTION('center_axis',(0.,1.,0.));
#1573=DIRECTION('ref_axis',(1.,0.,0.));
#1574=DIRECTION('',(0.,-1.,0.));
#1575=DIRECTION('center_axis',(0.,-1.,0.));
#1576=DIRECTION('ref_axis',(0.,0.,-1.));
#1577=DIRECTION('center_axis',(-1.,0.,-1.22464679914735E-16));
#1578=DIRECTION('ref_axis',(-1.22464679914735E-16,0.,1.));
#1579=DIRECTION('center_axis',(0.,-1.,0.));
#1580=DIRECTION('ref_axis',(1.,0.,1.22464679914735E-16));
#1581=DIRECTION('center_axis',(0.,-1.,0.));
#1582=DIRECTION('ref_axis',(1.,0.,1.22464679914735E-16));
#1583=DIRECTION('center_axis',(0.,1.,0.));
#1584=DIRECTION('ref_axis',(-1.,0.,0.));
#1585=DIRECTION('center_axis',(0.,1.,0.));
#1586=DIRECTION('ref_axis',(1.,0.,1.22464679914735E-16));
#1587=DIRECTION('center_axis',(0.,1.,0.));
#1588=DIRECTION('ref_axis',(1.,0.,1.22464679914735E-16));
#1589=DIRECTION('',(0.,-1.,0.));
#1590=DIRECTION('center_axis',(0.,1.,0.));
#1591=DIRECTION('ref_axis',(0.,0.,1.));
#1592=DIRECTION('center_axis',(-1.,0.,1.22464679914735E-16));
#1593=DIRECTION('ref_axis',(-1.22464679914735E-16,0.,-1.));
#1594=DIRECTION('center_axis',(0.,1.,0.));
#1595=DIRECTION('ref_axis',(-0.860797075526498,0.,-0.508948322293165));
#1596=DIRECTION('',(0.,1.,0.));
#1597=DIRECTION('',(0.,-1.,0.));
#1598=DIRECTION('center_axis',(0.,-1.,0.));
#1599=DIRECTION('ref_axis',(0.196773595544255,0.,0.980448954355394));
#1600=DIRECTION('',(0.,-1.,0.));
#1601=DIRECTION('center_axis',(0.,-1.,0.));
#1602=DIRECTION('ref_axis',(-0.297773239023019,0.,0.954636631458138));
#1603=DIRECTION('',(0.,-1.,0.));
#1604=DIRECTION('',(0.,1.,0.));
#1605=DIRECTION('center_axis',(0.,-1.,0.));
#1606=DIRECTION('ref_axis',(-0.196773595544255,0.,-0.980448954355394));
#1607=DIRECTION('',(0.,1.,0.));
#1608=DIRECTION('center_axis',(0.,-1.,0.));
#1609=DIRECTION('ref_axis',(0.202600785364336,0.,-0.979261416461281));
#1610=DIRECTION('',(0.,1.,0.));
#1611=DIRECTION('center_axis',(0.,1.,0.));
#1612=DIRECTION('ref_axis',(0.996990792913946,0.,0.0775200544686401));
#1613=DIRECTION('',(0.,-1.,0.));
#1614=DIRECTION('center_axis',(0.,1.,0.));
#1615=DIRECTION('ref_axis',(0.0103636385561009,0.,-0.999946296055882));
#1616=DIRECTION('',(0.,1.,0.));
#1617=DIRECTION('',(0.,-1.,0.));
#1618=DIRECTION('center_axis',(0.,-1.,0.));
#1619=DIRECTION('ref_axis',(-0.750706903813533,0.,0.660635409713027));
#1620=DIRECTION('',(0.,-1.,0.));
#1621=DIRECTION('center_axis',(0.,-1.,0.));
#1622=DIRECTION('ref_axis',(-0.975626193737459,0.,0.21943912616796));
#1623=DIRECTION('',(0.,-1.,0.));
#1624=DIRECTION('',(0.,1.,0.));
#1625=DIRECTION('center_axis',(0.,-1.,0.));
#1626=DIRECTION('ref_axis',(0.750706903813533,0.,-0.660635409713027));
#1627=DIRECTION('',(0.,1.,0.));
#1628=DIRECTION('center_axis',(0.,-1.,0.));
#1629=DIRECTION('ref_axis',(0.94936565628357,0.,-0.314173281278449));
#1630=DIRECTION('',(0.,1.,0.));
#1631=DIRECTION('center_axis',(0.,1.,0.));
#1632=DIRECTION('ref_axis',(0.431361059984376,0.,0.902179381236989));
#1633=DIRECTION('',(0.,-1.,0.));
#1634=DIRECTION('center_axis',(0.,1.,0.));
#1635=DIRECTION('ref_axis',(0.8711607140826,0.,-0.490997973762718));
#1636=DIRECTION('',(0.,1.,0.));
#1637=DIRECTION('',(0.,-1.,0.));
#1638=DIRECTION('center_axis',(0.,-1.,0.));
#1639=DIRECTION('ref_axis',(-0.947480499357789,0.,-0.319813544642367));
#1640=DIRECTION('',(0.,-1.,0.));
#1641=DIRECTION('center_axis',(0.,-1.,0.));
#1642=DIRECTION('ref_axis',(-0.677852954714443,0.,-0.735197505290177));
#1643=DIRECTION('',(0.,-1.,0.));
#1644=DIRECTION('',(0.,1.,0.));
#1645=DIRECTION('center_axis',(0.,-1.,0.));
#1646=DIRECTION('ref_axis',(0.947480499357789,0.,0.319813544642367));
#1647=DIRECTION('',(0.,1.,0.));
#1648=DIRECTION('center_axis',(0.,-1.,0.));
#1649=DIRECTION('ref_axis',(0.746764870919235,0.,0.665088135182832));
#1650=DIRECTION('',(0.,1.,0.));
#1651=DIRECTION('center_axis',(0.,1.,0.));
#1652=DIRECTION('ref_axis',(-0.565629732929572,0.,0.824659326768346));
#1653=DIRECTION('',(0.,-1.,0.));
#1654=DIRECTION('center_axis',(0.,1.,0.));
#1655=DIRECTION('ref_axis',(0.860797075526499,0.,0.508948322293164));
#1656=DIRECTION('',(0.,1.,0.));
#1657=DIRECTION('',(0.,-1.,0.));
#1658=DIRECTION('center_axis',(0.,-1.,0.));
#1659=DIRECTION('ref_axis',(-0.196773595544256,0.,-0.980448954355394));
#1660=DIRECTION('',(0.,-1.,0.));
#1661=DIRECTION('center_axis',(0.,-1.,0.));
#1662=DIRECTION('ref_axis',(0.297773239023017,0.,-0.954636631458138));
#1663=DIRECTION('',(0.,-1.,0.));
#1664=DIRECTION('',(0.,1.,0.));
#1665=DIRECTION('center_axis',(0.,-1.,0.));
#1666=DIRECTION('ref_axis',(0.196773595544256,0.,0.980448954355394));
#1667=DIRECTION('',(0.,1.,0.));
#1668=DIRECTION('center_axis',(0.,-1.,0.));
#1669=DIRECTION('ref_axis',(-0.202600785364336,0.,0.979261416461281));
#1670=DIRECTION('',(0.,1.,0.));
#1671=DIRECTION('center_axis',(0.,1.,0.));
#1672=DIRECTION('ref_axis',(-0.996990792913946,0.,-0.0775200544686415));
#1673=DIRECTION('',(0.,-1.,0.));
#1674=DIRECTION('center_axis',(0.,1.,0.));
#1675=DIRECTION('ref_axis',(-0.0103636385561009,0.,0.999946296055882));
#1676=DIRECTION('',(0.,1.,0.));
#1677=DIRECTION('',(0.,-1.,0.));
#1678=DIRECTION('center_axis',(0.,-1.,0.));
#1679=DIRECTION('ref_axis',(0.750706903813533,0.,-0.660635409713027));
#1680=DIRECTION('',(0.,-1.,0.));
#1681=DIRECTION('center_axis',(0.,-1.,0.));
#1682=DIRECTION('ref_axis',(0.975626193737459,0.,-0.219439126167962));
#1683=DIRECTION('',(0.,-1.,0.));
#1684=DIRECTION('',(0.,1.,0.));
#1685=DIRECTION('center_axis',(0.,-1.,0.));
#1686=DIRECTION('ref_axis',(-0.750706903813533,0.,0.660635409713027));
#1687=DIRECTION('',(0.,1.,0.));
#1688=DIRECTION('center_axis',(0.,-1.,0.));
#1689=DIRECTION('ref_axis',(-0.94936565628357,0.,0.314173281278448));
#1690=DIRECTION('',(0.,1.,0.));
#1691=DIRECTION('center_axis',(0.,1.,0.));
#1692=DIRECTION('ref_axis',(-0.431361059984377,0.,-0.902179381236988));
#1693=DIRECTION('',(0.,-1.,0.));
#1694=DIRECTION('center_axis',(0.,-1.,0.));
#1695=DIRECTION('ref_axis',(-1.,0.,0.));
#1696=DIRECTION('',(0.,1.,0.));
#1697=DIRECTION('center_axis',(0.,-1.,0.));
#1698=DIRECTION('ref_axis',(-1.,0.,0.));
#1699=DIRECTION('center_axis',(0.,-1.,0.));
#1700=DIRECTION('ref_axis',(-1.,0.,0.));
#1701=DIRECTION('center_axis',(0.,-1.,0.));
#1702=DIRECTION('ref_axis',(-1.,0.,0.));
#1703=DIRECTION('center_axis',(0.,-1.,0.));
#1704=DIRECTION('ref_axis',(-1.,0.,0.));
#1705=DIRECTION('',(0.,-1.,0.));
#1706=DIRECTION('center_axis',(0.,-1.,0.));
#1707=DIRECTION('ref_axis',(0.999363676637408,0.,0.0356684989558384));
#1708=DIRECTION('center_axis',(0.,-1.,0.));
#1709=DIRECTION('ref_axis',(1.,0.,0.));
#1710=DIRECTION('',(0.,-1.,0.));
#1711=DIRECTION('center_axis',(0.,-1.,0.));
#1712=DIRECTION('ref_axis',(-0.999803939433188,0.,-0.0198010780988993));
#1713=DIRECTION('center_axis',(0.,-1.,0.));
#1714=DIRECTION('ref_axis',(1.,0.,0.));
#1715=DIRECTION('center_axis',(0.,-1.,0.));
#1716=DIRECTION('ref_axis',(1.,0.,0.));
#1717=DIRECTION('center_axis',(0.,-1.,0.));
#1718=DIRECTION('ref_axis',(1.,0.,0.));
#1719=DIRECTION('center_axis',(0.,-1.,0.));
#1720=DIRECTION('ref_axis',(1.,0.,0.));
#1721=DIRECTION('',(0.,1.,0.));
#1722=DIRECTION('center_axis',(0.,1.,0.));
#1723=DIRECTION('ref_axis',(-0.871160714082599,0.,0.49099797376272));
#1724=DIRECTION('',(0.,1.,0.));
#1725=DIRECTION('center_axis',(0.,-1.,0.));
#1726=DIRECTION('ref_axis',(0.947480499357789,0.,0.319813544642367));
#1727=DIRECTION('',(0.,-1.,0.));
#1728=DIRECTION('center_axis',(0.,-1.,0.));
#1729=DIRECTION('ref_axis',(0.677852954714443,0.,0.735197505290177));
#1730=DIRECTION('',(0.,-1.,0.));
#1731=DIRECTION('center_axis',(0.,-1.,0.));
#1732=DIRECTION('ref_axis',(-0.947480499357789,0.,-0.319813544642367));
#1733=DIRECTION('',(0.,1.,0.));
#1734=DIRECTION('center_axis',(0.,-1.,0.));
#1735=DIRECTION('ref_axis',(-0.746764870919236,0.,-0.665088135182832));
#1736=DIRECTION('center_axis',(0.,1.,0.));
#1737=DIRECTION('ref_axis',(0.56562973292957,0.,-0.824659326768347));
#1738=CARTESIAN_POINT('',(0.,0.,0.));
#1739=CARTESIAN_POINT('Origin',(0.5,-1.95,-37.5));
#1740=CARTESIAN_POINT('',(-2.1,-2.,-37.5));
#1741=CARTESIAN_POINT('Origin',(0.5,-2.,-37.5));
#1742=CARTESIAN_POINT('',(-2.,-1.9,-37.5));
#1743=CARTESIAN_POINT('',(-2.05,-1.95,-37.5));
#1744=CARTESIAN_POINT('Origin',(0.5,-1.9,-37.5));
#1745=CARTESIAN_POINT('Origin',(0.5,2.,-37.5));
#1746=CARTESIAN_POINT('',(3.,1.9,-37.5));
#1747=CARTESIAN_POINT('',(-2.,1.9,-37.5));
#1748=CARTESIAN_POINT('Origin',(0.5,1.9,-37.5));
#1749=CARTESIAN_POINT('Origin',(0.5,1.9,-37.5));
#1750=CARTESIAN_POINT('',(-2.,2.,-37.5));
#1751=CARTESIAN_POINT('Origin',(0.,-2.,0.));
#1752=CARTESIAN_POINT('',(-4.99043570652547E-15,-2.,40.75));
#1753=CARTESIAN_POINT('Origin',(0.,-2.,0.));
#1754=CARTESIAN_POINT('',(12.2952346858615,-2.,-3.05877492136778));
#1755=CARTESIAN_POINT('',(12.0458846904191,-2.,3.9275389272581));
#1756=CARTESIAN_POINT('Origin',(0.,-2.,0.));
#1757=CARTESIAN_POINT('',(12.4944721811919,-2.,5.92195858169095));
#1758=CARTESIAN_POINT('Origin',(13.9473660938001,-2.,4.54751350141092));
#1759=CARTESIAN_POINT('',(29.4511355799875,-2.,15.8290927706762));
#1760=CARTESIAN_POINT('Origin',(37.9201156518358,-2.,-18.1308303232096));
#1761=CARTESIAN_POINT('',(31.7493244073715,-2.,14.7302545692696));
#1762=CARTESIAN_POINT('Origin',(29.9350772983788,-2.,13.8885257367399));
#1763=CARTESIAN_POINT('',(32.3076631564714,-2.,-13.4616084242554));
#1764=CARTESIAN_POINT('Origin',(0.,-2.,0.));
#1765=CARTESIAN_POINT('',(29.0721481219508,-2.,-14.1310087253729));
#1766=CARTESIAN_POINT('Origin',(30.4615109761016,-2.,-12.6923736571551));
#1767=CARTESIAN_POINT('',(13.7237644258467,-2.,-5.47488313632637));
#1768=CARTESIAN_POINT('Origin',(4.75829817431318,-2.,-39.3071224191852));
#1769=CARTESIAN_POINT('Origin',(14.2360767830772,-2.,-3.54161232016301));
#1770=CARTESIAN_POINT('',(8.79659412929399,-2.,9.11859812276375));
#1771=CARTESIAN_POINT('',(2.62159385985174,-2.,12.39581161659));
#1772=CARTESIAN_POINT('Origin',(0.,-2.,0.));
#1773=CARTESIAN_POINT('',(1.11866951869233,-2.,13.7815096066356));
#1774=CARTESIAN_POINT('Origin',(3.03542083062549,-2.,14.3525301038181));
#1775=CARTESIAN_POINT('',(1.01717133172754,-2.,33.419977967907));
#1776=CARTESIAN_POINT('Origin',(34.6618174775226,-2.,23.7743683073289));
#1777=CARTESIAN_POINT('',(3.1178875424865,-2.,34.8608487744118));
#1778=CARTESIAN_POINT('Origin',(2.9397225400587,-2.,32.8688002730168));
#1779=CARTESIAN_POINT('',(27.8119264494394,-2.,21.248452818287));
#1780=CARTESIAN_POINT('Origin',(0.,-2.,0.));
#1781=CARTESIAN_POINT('',(26.7738865982479,-2.,18.111714453507));
#1782=CARTESIAN_POINT('Origin',(26.2226735094715,-2.,20.0342555143849));
#1783=CARTESIAN_POINT('',(11.603270091733,-2.,9.14768706017323));
#1784=CARTESIAN_POINT('Origin',(36.4201156518358,-2.,-15.5327541118563));
#1785=CARTESIAN_POINT('Origin',(10.1851646311557,-2.,10.5579979842892));
#1786=CARTESIAN_POINT('',(-3.49864055656751,-2.,12.1773730441315));
#1787=CARTESIAN_POINT('',(-9.42429083056732,-2.,8.46827268933191));
#1788=CARTESIAN_POINT('Origin',(0.,-2.,0.));
#1789=CARTESIAN_POINT('',(-11.3758026624996,-2.,7.85955102494468));
#1790=CARTESIAN_POINT('Origin',(-10.9119452631746,-2.,9.80501660240719));
#1791=CARTESIAN_POINT('',(-28.4339642482599,-2.,17.5908851972308));
#1792=CARTESIAN_POINT('Origin',(-3.25829817431316,-2.,41.9051986305385));
#1793=CARTESIAN_POINT('',(-28.631436864885,-2.,20.1305942051422));
#1794=CARTESIAN_POINT('Origin',(-26.9953547583201,-2.,18.980274536277));
#1795=CARTESIAN_POINT('',(-4.4957367070319,-2.,34.7100612425424));
#1796=CARTESIAN_POINT('Origin',(0.,-2.,0.));
#1797=CARTESIAN_POINT('',(-2.29826152370291,-2.,32.2427231788799));
#1798=CARTESIAN_POINT('Origin',(-4.23883746663008,-2.,32.72662917154));
#1799=CARTESIAN_POINT('',(-2.1204943341137,-2.,14.6225701964996));
#1800=CARTESIAN_POINT('Origin',(31.6618174775226,-2.,23.7743683073289));
#1801=CARTESIAN_POINT('Origin',(-4.0509121519215,-2.,14.0996103044522));
#1802=CARTESIAN_POINT('',(-12.2952346858615,-2.,3.05877492136778));
#1803=CARTESIAN_POINT('',(-12.0458846904191,-2.,-3.9275389272581));
#1804=CARTESIAN_POINT('Origin',(0.,-2.,0.));
#1805=CARTESIAN_POINT('',(-12.4944721811919,-2.,-5.92195858169095));
#1806=CARTESIAN_POINT('Origin',(-13.9473660938001,-2.,-4.54751350141091));
#1807=CARTESIAN_POINT('',(-29.4511355799875,-2.,-15.8290927706762));
#1808=CARTESIAN_POINT('Origin',(-37.9201156518358,-2.,18.1308303232096));
#1809=CARTESIAN_POINT('',(-31.7493244073715,-2.,-14.7302545692695));
#1810=CARTESIAN_POINT('Origin',(-29.9350772983788,-2.,-13.8885257367399));
#1811=CARTESIAN_POINT('',(-32.3076631564713,-2.,13.4616084242554));
#1812=CARTESIAN_POINT('Origin',(0.,-2.,0.));
#1813=CARTESIAN_POINT('',(-29.0721481219508,-2.,14.1310087253729));
#1814=CARTESIAN_POINT('Origin',(-30.4615109761016,-2.,12.6923736571551));
#1815=CARTESIAN_POINT('',(-13.7237644258467,-2.,5.47488313632637));
#1816=CARTESIAN_POINT('Origin',(-4.75829817431316,-2.,39.3071224191851));
#1817=CARTESIAN_POINT('Origin',(-14.2360767830772,-2.,3.54161232016301));
#1818=CARTESIAN_POINT('',(-8.79659412929399,-2.,-9.11859812276375));
#1819=CARTESIAN_POINT('',(-2.62159385985174,-2.,-12.39581161659));
#1820=CARTESIAN_POINT('Origin',(0.,-2.,0.));
#1821=CARTESIAN_POINT('',(-1.11866951869233,-2.,-13.7815096066356));
#1822=CARTESIAN_POINT('Origin',(-3.03542083062549,-2.,-14.3525301038181));
#1823=CARTESIAN_POINT('',(-1.01717133172755,-2.,-33.419977967907));
#1824=CARTESIAN_POINT('Origin',(-34.6618174775226,-2.,-23.7743683073289));
#1825=CARTESIAN_POINT('',(-3.1178875424865,-2.,-34.8608487744118));
#1826=CARTESIAN_POINT('Origin',(-2.9397225400587,-2.,-32.8688002730168));
#1827=CARTESIAN_POINT('',(-27.8119264494395,-2.,-21.248452818287));
#1828=CARTESIAN_POINT('Origin',(0.,-2.,0.));
#1829=CARTESIAN_POINT('',(-26.7738865982479,-2.,-18.111714453507));
#1830=CARTESIAN_POINT('Origin',(-26.2226735094715,-2.,-20.0342555143849));
#1831=CARTESIAN_POINT('',(-11.603270091733,-2.,-9.14768706017323));
#1832=CARTESIAN_POINT('Origin',(-36.4201156518358,-2.,15.5327541118563));
#1833=CARTESIAN_POINT('Origin',(-10.1851646311557,-2.,-10.5579979842892));
#1834=CARTESIAN_POINT('',(11.3758026624996,-2.,-7.85955102494468));
#1835=CARTESIAN_POINT('',(28.4339642482599,-2.,-17.5908851972308));
#1836=CARTESIAN_POINT('Origin',(3.25829817431319,-2.,-41.9051986305385));
#1837=CARTESIAN_POINT('',(28.631436864885,-2.,-20.1305942051422));
#1838=CARTESIAN_POINT('Origin',(26.9953547583201,-2.,-18.9802745362769));
#1839=CARTESIAN_POINT('',(4.49573670703189,-2.,-34.7100612425424));
#1840=CARTESIAN_POINT('Origin',(0.,-2.,0.));
#1841=CARTESIAN_POINT('',(2.2982615237029,-2.,-32.2427231788799));
#1842=CARTESIAN_POINT('Origin',(4.23883746663007,-2.,-32.72662917154));
#1843=CARTESIAN_POINT('',(2.1204943341137,-2.,-14.6225701964996));
#1844=CARTESIAN_POINT('Origin',(-31.6618174775226,-2.,-23.7743683073289));
#1845=CARTESIAN_POINT('',(3.4986405565675,-2.,-12.1773730441315));
#1846=CARTESIAN_POINT('Origin',(4.05091215192148,-2.,-14.0996103044522));
#1847=CARTESIAN_POINT('',(9.42429083056733,-2.,-8.4682726893319));
#1848=CARTESIAN_POINT('Origin',(0.,-2.,0.));
#1849=CARTESIAN_POINT('Origin',(10.9119452631746,-2.,-9.80501660240718));
#1850=CARTESIAN_POINT('',(4.7705,-2.,1.50570323955167E-16));
#1851=CARTESIAN_POINT('Origin',(6.,-2.,0.));
#1852=CARTESIAN_POINT('',(-7.2295,-2.,1.50570323955167E-16));
#1853=CARTESIAN_POINT('Origin',(-6.,-2.,0.));
#1854=CARTESIAN_POINT('',(-1.5,-2.,1.83697019872103E-16));
#1855=CARTESIAN_POINT('Origin',(0.,-2.,0.));
#1856=CARTESIAN_POINT('Origin',(0.5,1.95,-37.5));
#1857=CARTESIAN_POINT('',(3.1,2.,-37.5));
#1858=CARTESIAN_POINT('Origin',(0.5,2.,-37.5));
#1859=CARTESIAN_POINT('',(3.05,1.95,-37.5));
#1860=CARTESIAN_POINT('Origin',(0.,2.,0.));
#1861=CARTESIAN_POINT('',(-4.99043570652547E-15,2.,-40.75));
#1862=CARTESIAN_POINT('Origin',(0.,2.,0.));
#1863=CARTESIAN_POINT('',(9.42429083056733,2.,-8.4682726893319));
#1864=CARTESIAN_POINT('',(3.4986405565675,2.,-12.1773730441315));
#1865=CARTESIAN_POINT('Origin',(0.,2.,0.));
#1866=CARTESIAN_POINT('',(2.1204943341137,2.,-14.6225701964996));
#1867=CARTESIAN_POINT('Origin',(4.05091215192148,2.,-14.0996103044522));
#1868=CARTESIAN_POINT('',(2.2982615237029,2.,-32.2427231788799));
#1869=CARTESIAN_POINT('Origin',(-31.6618174775226,2.,-23.7743683073289));
#1870=CARTESIAN_POINT('',(4.49573670703189,2.,-34.7100612425424));
#1871=CARTESIAN_POINT('Origin',(4.23883746663007,2.,-32.72662917154));
#1872=CARTESIAN_POINT('',(28.631436864885,2.,-20.1305942051422));
#1873=CARTESIAN_POINT('Origin',(0.,2.,0.));
#1874=CARTESIAN_POINT('',(28.4339642482599,2.,-17.5908851972308));
#1875=CARTESIAN_POINT('Origin',(26.9953547583201,2.,-18.9802745362769));
#1876=CARTESIAN_POINT('',(11.3758026624996,2.,-7.85955102494468));
#1877=CARTESIAN_POINT('Origin',(3.25829817431319,2.,-41.9051986305385));
#1878=CARTESIAN_POINT('Origin',(10.9119452631746,2.,-9.80501660240718));
#1879=CARTESIAN_POINT('',(13.7237644258467,2.,-5.47488313632637));
#1880=CARTESIAN_POINT('',(29.0721481219508,2.,-14.1310087253729));
#1881=CARTESIAN_POINT('Origin',(4.75829817431318,2.,-39.3071224191852));
#1882=CARTESIAN_POINT('',(32.3076631564714,2.,-13.4616084242554));
#1883=CARTESIAN_POINT('Origin',(30.4615109761016,2.,-12.6923736571551));
#1884=CARTESIAN_POINT('',(31.7493244073715,2.,14.7302545692696));
#1885=CARTESIAN_POINT('Origin',(0.,2.,0.));
#1886=CARTESIAN_POINT('',(29.4511355799875,2.,15.8290927706762));
#1887=CARTESIAN_POINT('Origin',(29.9350772983788,2.,13.8885257367399));
#1888=CARTESIAN_POINT('',(12.4944721811919,2.,5.92195858169095));
#1889=CARTESIAN_POINT('Origin',(37.9201156518358,2.,-18.1308303232096));
#1890=CARTESIAN_POINT('',(12.0458846904191,2.,3.9275389272581));
#1891=CARTESIAN_POINT('Origin',(13.9473660938001,2.,4.54751350141092));
#1892=CARTESIAN_POINT('',(12.2952346858615,2.,-3.05877492136778));
#1893=CARTESIAN_POINT('Origin',(0.,2.,0.));
#1894=CARTESIAN_POINT('Origin',(14.2360767830772,2.,-3.54161232016301));
#1895=CARTESIAN_POINT('',(11.603270091733,2.,9.14768706017323));
#1896=CARTESIAN_POINT('',(26.7738865982479,2.,18.111714453507));
#1897=CARTESIAN_POINT('Origin',(36.4201156518358,2.,-15.5327541118563));
#1898=CARTESIAN_POINT('',(27.8119264494394,2.,21.248452818287));
#1899=CARTESIAN_POINT('Origin',(26.2226735094715,2.,20.0342555143849));
#1900=CARTESIAN_POINT('',(3.1178875424865,2.,34.8608487744118));
#1901=CARTESIAN_POINT('Origin',(0.,2.,0.));
#1902=CARTESIAN_POINT('',(1.01717133172754,2.,33.419977967907));
#1903=CARTESIAN_POINT('Origin',(2.9397225400587,2.,32.8688002730168));
#1904=CARTESIAN_POINT('',(1.11866951869233,2.,13.7815096066356));
#1905=CARTESIAN_POINT('Origin',(34.6618174775226,2.,23.7743683073289));
#1906=CARTESIAN_POINT('',(2.62159385985174,2.,12.39581161659));
#1907=CARTESIAN_POINT('Origin',(3.03542083062549,2.,14.3525301038181));
#1908=CARTESIAN_POINT('',(8.79659412929399,2.,9.11859812276375));
#1909=CARTESIAN_POINT('Origin',(0.,2.,0.));
#1910=CARTESIAN_POINT('Origin',(10.1851646311557,2.,10.5579979842892));
#1911=CARTESIAN_POINT('',(-2.1204943341137,2.,14.6225701964996));
#1912=CARTESIAN_POINT('',(-2.29826152370291,2.,32.2427231788799));
#1913=CARTESIAN_POINT('Origin',(31.6618174775226,2.,23.7743683073289));
#1914=CARTESIAN_POINT('',(-4.4957367070319,2.,34.7100612425424));
#1915=CARTESIAN_POINT('Origin',(-4.23883746663008,2.,32.72662917154));
#1916=CARTESIAN_POINT('',(-28.631436864885,2.,20.1305942051422));
#1917=CARTESIAN_POINT('Origin',(0.,2.,0.));
#1918=CARTESIAN_POINT('',(-28.4339642482599,2.,17.5908851972308));
#1919=CARTESIAN_POINT('Origin',(-26.9953547583201,2.,18.980274536277));
#1920=CARTESIAN_POINT('',(-11.3758026624996,2.,7.85955102494468));
#1921=CARTESIAN_POINT('Origin',(-3.25829817431316,2.,41.9051986305385));
#1922=CARTESIAN_POINT('',(-9.42429083056732,2.,8.46827268933191));
#1923=CARTESIAN_POINT('Origin',(-10.9119452631746,2.,9.80501660240719));
#1924=CARTESIAN_POINT('',(-3.49864055656751,2.,12.1773730441315));
#1925=CARTESIAN_POINT('Origin',(0.,2.,0.));
#1926=CARTESIAN_POINT('Origin',(-4.0509121519215,2.,14.0996103044522));
#1927=CARTESIAN_POINT('',(-13.7237644258467,2.,5.47488313632637));
#1928=CARTESIAN_POINT('',(-29.0721481219508,2.,14.1310087253729));
#1929=CARTESIAN_POINT('Origin',(-4.75829817431316,2.,39.3071224191851));
#1930=CARTESIAN_POINT('',(-32.3076631564713,2.,13.4616084242554));
#1931=CARTESIAN_POINT('Origin',(-30.4615109761016,2.,12.6923736571551));
#1932=CARTESIAN_POINT('',(-31.7493244073715,2.,-14.7302545692695));
#1933=CARTESIAN_POINT('Origin',(0.,2.,0.));
#1934=CARTESIAN_POINT('',(-29.4511355799875,2.,-15.8290927706762));
#1935=CARTESIAN_POINT('Origin',(-29.9350772983788,2.,-13.8885257367399));
#1936=CARTESIAN_POINT('',(-12.4944721811919,2.,-5.92195858169095));
#1937=CARTESIAN_POINT('Origin',(-37.9201156518358,2.,18.1308303232096));
#1938=CARTESIAN_POINT('',(-12.0458846904191,2.,-3.9275389272581));
#1939=CARTESIAN_POINT('Origin',(-13.9473660938001,2.,-4.54751350141091));
#1940=CARTESIAN_POINT('',(-12.2952346858615,2.,3.05877492136778));
#1941=CARTESIAN_POINT('Origin',(0.,2.,0.));
#1942=CARTESIAN_POINT('Origin',(-14.2360767830772,2.,3.54161232016301));
#1943=CARTESIAN_POINT('',(-11.603270091733,2.,-9.14768706017323));
#1944=CARTESIAN_POINT('',(-26.7738865982479,2.,-18.111714453507));
#1945=CARTESIAN_POINT('Origin',(-36.4201156518358,2.,15.5327541118563));
#1946=CARTESIAN_POINT('',(-27.8119264494395,2.,-21.248452818287));
#1947=CARTESIAN_POINT('Origin',(-26.2226735094715,2.,-20.0342555143849));
#1948=CARTESIAN_POINT('',(-3.1178875424865,2.,-34.8608487744118));
#1949=CARTESIAN_POINT('Origin',(0.,2.,0.));
#1950=CARTESIAN_POINT('',(-1.01717133172755,2.,-33.419977967907));
#1951=CARTESIAN_POINT('Origin',(-2.9397225400587,2.,-32.8688002730168));
#1952=CARTESIAN_POINT('',(-1.11866951869233,2.,-13.7815096066356));
#1953=CARTESIAN_POINT('Origin',(-34.6618174775226,2.,-23.7743683073289));
#1954=CARTESIAN_POINT('',(-2.62159385985174,2.,-12.39581161659));
#1955=CARTESIAN_POINT('Origin',(-3.03542083062549,2.,-14.3525301038181));
#1956=CARTESIAN_POINT('',(-8.79659412929399,2.,-9.11859812276375));
#1957=CARTESIAN_POINT('Origin',(0.,2.,0.));
#1958=CARTESIAN_POINT('Origin',(-10.1851646311557,2.,-10.5579979842892));
#1959=CARTESIAN_POINT('',(4.7705,2.,1.50570323955167E-16));
#1960=CARTESIAN_POINT('Origin',(6.,2.,0.));
#1961=CARTESIAN_POINT('',(-7.2295,2.,1.50570323955167E-16));
#1962=CARTESIAN_POINT('Origin',(-6.,2.,0.));
#1963=CARTESIAN_POINT('',(-1.5,2.,1.83697019872103E-16));
#1964=CARTESIAN_POINT('Origin',(0.,2.,0.));
#1965=CARTESIAN_POINT('Origin',(0.,-2.4,0.));
#1966=CARTESIAN_POINT('',(-1.5,-2.4,1.83697019872103E-16));
#1967=CARTESIAN_POINT('Origin',(-6.,-2.4,0.));
#1968=CARTESIAN_POINT('',(-7.2295,-2.4,1.50570323955167E-16));
#1969=CARTESIAN_POINT('Origin',(6.,-2.4,0.));
#1970=CARTESIAN_POINT('',(4.7705,-2.4,1.50570323955167E-16));
#1971=CARTESIAN_POINT('Origin',(0.,-1.5,0.));
#1972=CARTESIAN_POINT('',(-5.05166804648283E-15,-1.5,41.25));
#1973=CARTESIAN_POINT('Origin',(-4.99043570652547E-15,-1.5,40.75));
#1974=CARTESIAN_POINT('',(41.25,-1.5,-5.05166804648283E-15));
#1975=CARTESIAN_POINT('Origin',(0.,-1.5,0.));
#1976=CARTESIAN_POINT('Origin',(0.,-1.5,0.));
#1977=CARTESIAN_POINT('Origin',(0.,0.,0.));
#1978=CARTESIAN_POINT('',(-5.05166804648283E-15,1.5,-41.25));
#1979=CARTESIAN_POINT('',(41.25,1.5,-5.05166804648283E-15));
#1980=CARTESIAN_POINT('Origin',(0.,1.5,0.));
#1981=CARTESIAN_POINT('Origin',(0.,1.5,0.));
#1982=CARTESIAN_POINT('',(41.25,0.,-5.05166804648283E-15));
#1983=CARTESIAN_POINT('Origin',(0.,1.5,0.));
#1984=CARTESIAN_POINT('Origin',(-4.99043570652547E-15,1.5,-40.75));
#1985=CARTESIAN_POINT('Origin',(14.2360767830772,2.,-3.54161232016301));
#1986=CARTESIAN_POINT('',(13.7237644258467,2.,-5.47488313632637));
#1987=CARTESIAN_POINT('',(12.2952346858615,2.,-3.05877492136778));
#1988=CARTESIAN_POINT('Origin',(4.75829817431318,2.,-39.3071224191852));
#1989=CARTESIAN_POINT('',(29.0721481219508,2.,-14.1310087253729));
#1990=CARTESIAN_POINT('Origin',(10.9119452631746,2.,-9.80501660240718));
#1991=CARTESIAN_POINT('',(11.3758026624996,2.,-7.85955102494469));
#1992=CARTESIAN_POINT('',(9.42429083056733,2.,-8.4682726893319));
#1993=CARTESIAN_POINT('Origin',(3.25829817431319,2.,-41.9051986305385));
#1994=CARTESIAN_POINT('',(28.4339642482599,2.,-17.5908851972308));
#1995=CARTESIAN_POINT('Origin',(30.4615109761016,2.,-12.6923736571551));
#1996=CARTESIAN_POINT('',(32.3076631564714,2.,-13.4616084242554));
#1997=CARTESIAN_POINT('Origin',(26.9953547583201,2.,-18.9802745362769));
#1998=CARTESIAN_POINT('',(28.631436864885,2.,-20.1305942051422));
#1999=CARTESIAN_POINT('Origin',(10.1851646311557,2.,10.5579979842892));
#2000=CARTESIAN_POINT('',(11.603270091733,2.,9.14768706017323));
#2001=CARTESIAN_POINT('',(8.79659412929399,2.,9.11859812276375));
#2002=CARTESIAN_POINT('Origin',(36.4201156518358,2.,-15.5327541118563));
#2003=CARTESIAN_POINT('',(26.7738865982479,2.,18.111714453507));
#2004=CARTESIAN_POINT('Origin',(13.9473660938001,2.,4.54751350141092));
#2005=CARTESIAN_POINT('',(12.4944721811919,2.,5.92195858169095));
#2006=CARTESIAN_POINT('',(12.0458846904191,2.,3.9275389272581));
#2007=CARTESIAN_POINT('Origin',(37.9201156518358,2.,-18.1308303232096));
#2008=CARTESIAN_POINT('',(29.4511355799875,2.,15.8290927706762));
#2009=CARTESIAN_POINT('Origin',(26.2226735094715,2.,20.0342555143849));
#2010=CARTESIAN_POINT('',(27.8119264494394,2.,21.248452818287));
#2011=CARTESIAN_POINT('Origin',(29.9350772983788,2.,13.8885257367399));
#2012=CARTESIAN_POINT('',(31.7493244073715,2.,14.7302545692696));
#2013=CARTESIAN_POINT('Origin',(-4.0509121519215,2.,14.0996103044522));
#2014=CARTESIAN_POINT('',(-2.12049433411371,2.,14.6225701964996));
#2015=CARTESIAN_POINT('',(-3.49864055656751,2.,12.1773730441315));
#2016=CARTESIAN_POINT('Origin',(31.6618174775226,2.,23.7743683073289));
#2017=CARTESIAN_POINT('',(-2.29826152370291,2.,32.2427231788799));
#2018=CARTESIAN_POINT('Origin',(3.03542083062549,2.,14.3525301038181));
#2019=CARTESIAN_POINT('',(1.11866951869233,2.,13.7815096066356));
#2020=CARTESIAN_POINT('',(2.62159385985174,2.,12.39581161659));
#2021=CARTESIAN_POINT('Origin',(34.6618174775226,2.,23.7743683073289));
#2022=CARTESIAN_POINT('',(1.01717133172754,2.,33.419977967907));
#2023=CARTESIAN_POINT('Origin',(-4.23883746663008,2.,32.72662917154));
#2024=CARTESIAN_POINT('',(-4.4957367070319,2.,34.7100612425424));
#2025=CARTESIAN_POINT('Origin',(2.9397225400587,2.,32.8688002730168));
#2026=CARTESIAN_POINT('',(3.11788754248649,2.,34.8608487744118));
#2027=CARTESIAN_POINT('Origin',(-14.2360767830772,2.,3.54161232016301));
#2028=CARTESIAN_POINT('',(-13.7237644258467,2.,5.47488313632637));
#2029=CARTESIAN_POINT('',(-12.2952346858615,2.,3.05877492136778));
#2030=CARTESIAN_POINT('Origin',(-4.75829817431316,2.,39.3071224191851));
#2031=CARTESIAN_POINT('',(-29.0721481219508,2.,14.1310087253729));
#2032=CARTESIAN_POINT('Origin',(-10.9119452631746,2.,9.80501660240719));
#2033=CARTESIAN_POINT('',(-11.3758026624996,2.,7.85955102494469));
#2034=CARTESIAN_POINT('',(-9.42429083056732,2.,8.46827268933191));
#2035=CARTESIAN_POINT('Origin',(-3.25829817431316,2.,41.9051986305385));
#2036=CARTESIAN_POINT('',(-28.4339642482599,2.,17.5908851972308));
#2037=CARTESIAN_POINT('Origin',(-30.4615109761016,2.,12.6923736571551));
#2038=CARTESIAN_POINT('',(-32.3076631564713,2.,13.4616084242554));
#2039=CARTESIAN_POINT('Origin',(-26.9953547583201,2.,18.980274536277));
#2040=CARTESIAN_POINT('',(-28.631436864885,2.,20.1305942051422));
#2041=CARTESIAN_POINT('Origin',(-10.1851646311557,2.,-10.5579979842892));
#2042=CARTESIAN_POINT('',(-11.603270091733,2.,-9.14768706017323));
#2043=CARTESIAN_POINT('',(-8.79659412929399,2.,-9.11859812276375));
#2044=CARTESIAN_POINT('Origin',(-36.4201156518358,2.,15.5327541118563));
#2045=CARTESIAN_POINT('',(-26.7738865982479,2.,-18.111714453507));
#2046=CARTESIAN_POINT('Origin',(-13.9473660938001,2.,-4.54751350141091));
#2047=CARTESIAN_POINT('',(-12.4944721811919,2.,-5.92195858169095));
#2048=CARTESIAN_POINT('',(-12.0458846904191,2.,-3.9275389272581));
#2049=CARTESIAN_POINT('Origin',(-37.9201156518358,2.,18.1308303232096));
#2050=CARTESIAN_POINT('',(-29.4511355799875,2.,-15.8290927706762));
#2051=CARTESIAN_POINT('Origin',(-26.2226735094715,2.,-20.0342555143849));
#2052=CARTESIAN_POINT('',(-27.8119264494395,2.,-21.248452818287));
#2053=CARTESIAN_POINT('Origin',(-29.9350772983788,2.,-13.8885257367399));
#2054=CARTESIAN_POINT('',(-31.7493244073715,2.,-14.7302545692695));
#2055=CARTESIAN_POINT('Origin',(0.,2.,0.));
#2056=CARTESIAN_POINT('',(-2.62159385985174,2.,-12.39581161659));
#2057=CARTESIAN_POINT('Origin',(0.,2.,0.));
#2058=CARTESIAN_POINT('Origin',(0.,2.,0.));
#2059=CARTESIAN_POINT('Origin',(0.,2.,0.));
#2060=CARTESIAN_POINT('Origin',(0.,2.,0.));
#2061=CARTESIAN_POINT('',(3.4986405565675,2.,-12.1773730441315));
#2062=CARTESIAN_POINT('Origin',(0.,2.,0.));
#2063=CARTESIAN_POINT('Origin',(0.,2.,0.));
#2064=CARTESIAN_POINT('',(-3.1178875424865,2.,-34.8608487744118));
#2065=CARTESIAN_POINT('Origin',(0.,2.,0.));
#2066=CARTESIAN_POINT('Origin',(0.,2.,0.));
#2067=CARTESIAN_POINT('Origin',(0.,2.,0.));
#2068=CARTESIAN_POINT('Origin',(0.,2.,0.));
#2069=CARTESIAN_POINT('Origin',(0.,2.,0.));
#2070=CARTESIAN_POINT('',(4.49573670703189,2.,-34.7100612425424));
#2071=CARTESIAN_POINT('Origin',(4.05091215192148,2.,-14.0996103044522));
#2072=CARTESIAN_POINT('',(2.1204943341137,2.,-14.6225701964996));
#2073=CARTESIAN_POINT('Origin',(-31.6618174775226,2.,-23.7743683073289));
#2074=CARTESIAN_POINT('',(2.2982615237029,2.,-32.2427231788799));
#2075=CARTESIAN_POINT('Origin',(-3.03542083062549,2.,-14.3525301038181));
#2076=CARTESIAN_POINT('',(-1.11866951869234,2.,-13.7815096066356));
#2077=CARTESIAN_POINT('Origin',(-34.6618174775226,2.,-23.7743683073289));
#2078=CARTESIAN_POINT('',(-1.01717133172755,2.,-33.419977967907));
#2079=CARTESIAN_POINT('Origin',(4.23883746663007,2.,-32.72662917154));
#2080=CARTESIAN_POINT('Origin',(-2.9397225400587,2.,-32.8688002730168));
#2081=UNCERTAINTY_MEASURE_WITH_UNIT(LENGTH_MEASURE(0.01),#2085,
'DISTANCE_ACCURACY_VALUE',
'Maximum model space distance between geometric entities at asserted c
onnectivities');
#2082=UNCERTAINTY_MEASURE_WITH_UNIT(LENGTH_MEASURE(0.01),#2085,
'DISTANCE_ACCURACY_VALUE',
'Maximum model space distance between geometric entities at asserted c
onnectivities');
#2083=(
GEOMETRIC_REPRESENTATION_CONTEXT(3)
GLOBAL_UNCERTAINTY_ASSIGNED_CONTEXT((#2081))
GLOBAL_UNIT_ASSIGNED_CONTEXT((#2085,#2087,#2088))
REPRESENTATION_CONTEXT('','3D')
);
#2084=(
GEOMETRIC_REPRESENTATION_CONTEXT(3)
GLOBAL_UNCERTAINTY_ASSIGNED_CONTEXT((#2082))
GLOBAL_UNIT_ASSIGNED_CONTEXT((#2085,#2087,#2088))
REPRESENTATION_CONTEXT('','3D')
);
#2085=(
LENGTH_UNIT()
NAMED_UNIT(*)
SI_UNIT(.MILLI.,.METRE.)
);
#2086=(
LENGTH_UNIT()
NAMED_UNIT(*)
SI_UNIT(.CENTI.,.METRE.)
);
#2087=(
NAMED_UNIT(*)
PLANE_ANGLE_UNIT()
SI_UNIT($,.RADIAN.)
);
#2088=(
NAMED_UNIT(*)
SI_UNIT($,.STERADIAN.)
SOLID_ANGLE_UNIT()
);
#2089=SHAPE_DEFINITION_REPRESENTATION(#2090,#2091);
#2090=PRODUCT_DEFINITION_SHAPE('',$,#2093);
#2091=SHAPE_REPRESENTATION('',(#1158),#2083);
#2092=PRODUCT_DEFINITION_CONTEXT('part definition',#2097,'design');
#2093=PRODUCT_DEFINITION('Wheel','Wheel',#2094,#2092);
#2094=PRODUCT_DEFINITION_FORMATION('',$,#2099);
#2095=PRODUCT_RELATED_PRODUCT_CATEGORY('Wheel','Wheel',(#2099));
#2096=APPLICATION_PROTOCOL_DEFINITION('international standard',
'automotive_design',2009,#2097);
#2097=APPLICATION_CONTEXT(
'Core Data for Automotive Mechanical Design Process');
#2098=PRODUCT_CONTEXT('part definition',#2097,'mechanical');
#2099=PRODUCT('Wheel','Wheel',$,(#2098));
#2100=PRESENTATION_STYLE_ASSIGNMENT((#2101));
#2101=SURFACE_STYLE_USAGE(.BOTH.,#2104);
#2102=SURFACE_STYLE_RENDERING_WITH_PROPERTIES($,#2108,(#2103));
#2103=SURFACE_STYLE_TRANSPARENT(0.);
#2104=SURFACE_SIDE_STYLE('',(#2105,#2102));
#2105=SURFACE_STYLE_FILL_AREA(#2106);
#2106=FILL_AREA_STYLE('',(#2107));
#2107=FILL_AREA_STYLE_COLOUR('',#2108);
#2108=COLOUR_RGB('',0.745098039215686,0.737254901960784,0.729411764705882);
ENDSEC;
END-ISO-10303-21;
